G04 #@! TF.GenerationSoftware,KiCad,Pcbnew,(5.0.0)*
G04 #@! TF.CreationDate,2018-11-20T23:47:43+08:00*
G04 #@! TF.ProjectId,tomu-fpga,746F6D752D667067612E6B696361645F,rev?*
G04 #@! TF.SameCoordinates,Original*
G04 #@! TF.FileFunction,Other,User*
%FSLAX46Y46*%
G04 Gerber Fmt 4.6, Leading zero omitted, Abs format (unit mm)*
G04 Created by KiCad (PCBNEW (5.0.0)) date 11/20/18 23:47:43*
%MOMM*%
%LPD*%
G01*
G04 APERTURE LIST*
%ADD10C,0.050000*%
%ADD11C,0.100000*%
%ADD12C,0.030000*%
%ADD13C,0.035000*%
G04 APERTURE END LIST*
D10*
G04 #@! TO.C,D5*
X19900000Y-25900000D02*
X20250000Y-25900000D01*
X19900000Y-25200000D02*
X19900000Y-25900000D01*
X20250000Y-25200000D02*
X19900000Y-25200000D01*
X20250000Y-25900000D02*
X20250000Y-25200000D01*
G04 #@! TO.C,U4*
X24700000Y-23675000D02*
X21150000Y-23675000D01*
X21150000Y-23675000D02*
X21150000Y-26175000D01*
X21150000Y-26175000D02*
X24700000Y-26175000D01*
X24700000Y-26175000D02*
X24700000Y-23675000D01*
G04 #@! TO.C,D6*
X20150000Y-21395000D02*
X20150000Y-22195000D01*
X20150000Y-22195000D02*
X20650000Y-22195000D01*
X20650000Y-22195000D02*
X20650000Y-21395000D01*
X20650000Y-21395000D02*
X20150000Y-21395000D01*
G04 #@! TO.C,D7*
X18700000Y-21495000D02*
X18700000Y-20695000D01*
X18700000Y-20695000D02*
X18200000Y-20695000D01*
X18200000Y-20695000D02*
X18200000Y-21495000D01*
X18200000Y-21495000D02*
X18700000Y-21495000D01*
G04 #@! TO.C,D1*
X27010000Y-24165000D02*
X26210000Y-24165000D01*
X26210000Y-24165000D02*
X26210000Y-24665000D01*
X26210000Y-24665000D02*
X27010000Y-24665000D01*
X27010000Y-24665000D02*
X27010000Y-24165000D01*
G04 #@! TO.C,D2*
X26650000Y-22725000D02*
X26650000Y-23525000D01*
X26650000Y-23525000D02*
X27150000Y-23525000D01*
X27150000Y-23525000D02*
X27150000Y-22725000D01*
X27150000Y-22725000D02*
X26650000Y-22725000D01*
G04 #@! TO.C,D3*
X25600000Y-19275000D02*
X26400000Y-19275000D01*
X26400000Y-19275000D02*
X26400000Y-18775000D01*
X26400000Y-18775000D02*
X25600000Y-18775000D01*
X25600000Y-18775000D02*
X25600000Y-19275000D01*
G04 #@! TO.C,D4*
X27500000Y-20835000D02*
X27500000Y-20035000D01*
X27500000Y-20035000D02*
X27000000Y-20035000D01*
X27000000Y-20035000D02*
X27000000Y-20835000D01*
X27000000Y-20835000D02*
X27500000Y-20835000D01*
G04 #@! TO.C,U3*
X19910000Y-20450000D02*
X19910000Y-18950000D01*
X18090000Y-20450000D02*
X19910000Y-20450000D01*
X18090000Y-18950000D02*
X18090000Y-20450000D01*
X19910000Y-18950000D02*
X18090000Y-18950000D01*
G04 #@! TO.C,U5*
X23300000Y-23200000D02*
X23300000Y-20600000D01*
X23300000Y-20600000D02*
X25500000Y-20600000D01*
X25500000Y-20600000D02*
X25500000Y-23200000D01*
X25500000Y-23200000D02*
X23300000Y-23200000D01*
D11*
X23325000Y-23225000D02*
G75*
G03X23325000Y-23225000I-50000J0D01*
G01*
D10*
G04 #@! TO.C,C28*
X26200000Y-23850000D02*
X24800000Y-23850000D01*
X26200000Y-24550000D02*
X26200000Y-23850000D01*
X24800000Y-24550000D02*
X26200000Y-24550000D01*
X24800000Y-23850000D02*
X24800000Y-24550000D01*
G04 #@! TO.C,U2*
X19810000Y-24450000D02*
X19810000Y-22950000D01*
X17990000Y-24450000D02*
X19810000Y-24450000D01*
X17990000Y-22950000D02*
X17990000Y-24450000D01*
X19810000Y-22950000D02*
X17990000Y-22950000D01*
D12*
G04 #@! TO.C,U10*
X25870000Y-22480000D02*
X27070000Y-22480000D01*
X25870000Y-21280000D02*
X25870000Y-22480000D01*
X27070000Y-21280000D02*
X25870000Y-21280000D01*
X27070000Y-22480000D02*
X27070000Y-21280000D01*
D13*
G04 #@! TO.C,TP3*
X26700000Y-17825000D02*
G75*
G03X26700000Y-17825000I-400000J0D01*
G01*
D10*
G04 #@! TO.C,C1*
X17390000Y-17485000D02*
X17390000Y-18885000D01*
X18090000Y-17485000D02*
X17390000Y-17485000D01*
X18090000Y-18885000D02*
X18090000Y-17485000D01*
X17390000Y-18885000D02*
X18090000Y-18885000D01*
G04 #@! TO.C,C11*
X23410000Y-18095000D02*
X24810000Y-18095000D01*
X23410000Y-17395000D02*
X23410000Y-18095000D01*
X24810000Y-17395000D02*
X23410000Y-17395000D01*
X24810000Y-18095000D02*
X24810000Y-17395000D01*
G04 #@! TO.C,C16*
X17990000Y-25905000D02*
X17990000Y-24505000D01*
X17290000Y-25905000D02*
X17990000Y-25905000D01*
X17290000Y-24505000D02*
X17290000Y-25905000D01*
X17990000Y-24505000D02*
X17290000Y-24505000D01*
G04 #@! TO.C,C17*
X21750000Y-20525000D02*
X21750000Y-21925000D01*
X22450000Y-20525000D02*
X21750000Y-20525000D01*
X22450000Y-21925000D02*
X22450000Y-20525000D01*
X21750000Y-21925000D02*
X22450000Y-21925000D01*
G04 #@! TO.C,C19*
X21025000Y-25950000D02*
X21025000Y-24550000D01*
X20325000Y-25950000D02*
X21025000Y-25950000D01*
X20325000Y-24550000D02*
X20325000Y-25950000D01*
X21025000Y-24550000D02*
X20325000Y-24550000D01*
G04 #@! TO.C,C20*
X22450000Y-20525000D02*
X22450000Y-21925000D01*
X23150000Y-20525000D02*
X22450000Y-20525000D01*
X23150000Y-21925000D02*
X23150000Y-20525000D01*
X22450000Y-21925000D02*
X23150000Y-21925000D01*
G04 #@! TO.C,C21*
X27000000Y-19975000D02*
X25600000Y-19975000D01*
X27000000Y-20675000D02*
X27000000Y-19975000D01*
X25600000Y-20675000D02*
X27000000Y-20675000D01*
X25600000Y-19975000D02*
X25600000Y-20675000D01*
G04 #@! TO.C,C24*
X26200000Y-24550000D02*
X24800000Y-24550000D01*
X26200000Y-25250000D02*
X26200000Y-24550000D01*
X24800000Y-25250000D02*
X26200000Y-25250000D01*
X24800000Y-24550000D02*
X24800000Y-25250000D01*
G04 #@! TO.C,C25*
X27000000Y-19275000D02*
X25600000Y-19275000D01*
X27000000Y-19975000D02*
X27000000Y-19275000D01*
X25600000Y-19975000D02*
X27000000Y-19975000D01*
X25600000Y-19275000D02*
X25600000Y-19975000D01*
G04 #@! TO.C,C2*
X17290000Y-23000000D02*
X17290000Y-24400000D01*
X17990000Y-23000000D02*
X17290000Y-23000000D01*
X17990000Y-24400000D02*
X17990000Y-23000000D01*
X17290000Y-24400000D02*
X17990000Y-24400000D01*
G04 #@! TO.C,C3*
X18090000Y-20395000D02*
X18090000Y-18995000D01*
X17390000Y-20395000D02*
X18090000Y-20395000D01*
X17390000Y-18995000D02*
X17390000Y-20395000D01*
X18090000Y-18995000D02*
X17390000Y-18995000D01*
G04 #@! TO.C,C4*
X21550000Y-22195000D02*
X20150000Y-22195000D01*
X21550000Y-22895000D02*
X21550000Y-22195000D01*
X20150000Y-22895000D02*
X21550000Y-22895000D01*
X20150000Y-22195000D02*
X20150000Y-22895000D01*
G04 #@! TO.C,C5*
X22450000Y-23325000D02*
X22450000Y-21925000D01*
X21750000Y-23325000D02*
X22450000Y-23325000D01*
X21750000Y-21925000D02*
X21750000Y-23325000D01*
X22450000Y-21925000D02*
X21750000Y-21925000D01*
G04 #@! TO.C,C7*
X23150000Y-23325000D02*
X23150000Y-21925000D01*
X22450000Y-23325000D02*
X23150000Y-23325000D01*
X22450000Y-21925000D02*
X22450000Y-23325000D01*
X23150000Y-21925000D02*
X22450000Y-21925000D01*
G04 #@! TO.C,C8*
X20610000Y-18905000D02*
X20610000Y-17505000D01*
X19910000Y-18905000D02*
X20610000Y-18905000D01*
X19910000Y-17505000D02*
X19910000Y-18905000D01*
X20610000Y-17505000D02*
X19910000Y-17505000D01*
G04 #@! TO.C,C9*
X20500000Y-24295000D02*
X20500000Y-22895000D01*
X19800000Y-24295000D02*
X20500000Y-24295000D01*
X19800000Y-22895000D02*
X19800000Y-24295000D01*
X20500000Y-22895000D02*
X19800000Y-22895000D01*
G04 #@! TO.C,C10*
X20610000Y-20380000D02*
X20610000Y-18980000D01*
X19910000Y-20380000D02*
X20610000Y-20380000D01*
X19910000Y-18980000D02*
X19910000Y-20380000D01*
X20610000Y-18980000D02*
X19910000Y-18980000D01*
G04 #@! TO.C,R11*
X18050000Y-21500000D02*
X18050000Y-22900000D01*
X18750000Y-21500000D02*
X18050000Y-21500000D01*
X18750000Y-22900000D02*
X18750000Y-21500000D01*
X18050000Y-22900000D02*
X18750000Y-22900000D01*
G04 #@! TO.C,R1*
X18050000Y-22900000D02*
X18050000Y-21500000D01*
X17350000Y-22900000D02*
X18050000Y-22900000D01*
X17350000Y-21500000D02*
X17350000Y-22900000D01*
X18050000Y-21500000D02*
X17350000Y-21500000D01*
G04 #@! TO.C,R5*
X24800000Y-25950000D02*
X26200000Y-25950000D01*
X24800000Y-25250000D02*
X24800000Y-25950000D01*
X26200000Y-25250000D02*
X24800000Y-25250000D01*
X26200000Y-25950000D02*
X26200000Y-25250000D01*
G04 #@! TO.C,R12*
X18750000Y-21500000D02*
X18750000Y-22900000D01*
X19450000Y-21500000D02*
X18750000Y-21500000D01*
X19450000Y-22900000D02*
X19450000Y-21500000D01*
X18750000Y-22900000D02*
X19450000Y-22900000D01*
G04 #@! TO.C,R9*
X19450000Y-21500000D02*
X19450000Y-22900000D01*
X20150000Y-21500000D02*
X19450000Y-21500000D01*
X20150000Y-22900000D02*
X20150000Y-21500000D01*
X19450000Y-22900000D02*
X20150000Y-22900000D01*
G04 #@! TO.C,U1*
X19910000Y-18950000D02*
X19910000Y-17450000D01*
X18090000Y-18950000D02*
X19910000Y-18950000D01*
X18090000Y-17450000D02*
X18090000Y-18950000D01*
X19910000Y-17450000D02*
X18090000Y-17450000D01*
G04 #@! TO.C,U6*
X19810000Y-25950000D02*
X19810000Y-24450000D01*
X17990000Y-25950000D02*
X19810000Y-25950000D01*
X17990000Y-24450000D02*
X17990000Y-25950000D01*
X19810000Y-24450000D02*
X17990000Y-24450000D01*
D12*
G04 #@! TO.C,U7*
X23350000Y-17365000D02*
X20750000Y-17365000D01*
X23350000Y-20365000D02*
X23350000Y-17365000D01*
X20750000Y-20365000D02*
X23350000Y-20365000D01*
X20750000Y-17365000D02*
X20750000Y-20365000D01*
D13*
G04 #@! TO.C,TP2*
X25700000Y-17825000D02*
G75*
G03X25700000Y-17825000I-400000J0D01*
G01*
G04 #@! TO.C,TP1*
X18000000Y-20950000D02*
G75*
G03X18000000Y-20950000I-400000J0D01*
G01*
G04 #@! TO.C,TP12*
X26500000Y-23300000D02*
G75*
G03X26500000Y-23300000I-400000J0D01*
G01*
G04 #@! TO.C,TP11*
X21450000Y-21025000D02*
G75*
G03X21450000Y-21025000I-400000J0D01*
G01*
G04 #@! TO.C,TP10*
X19750000Y-20950000D02*
G75*
G03X19750000Y-20950000I-400000J0D01*
G01*
G04 #@! TO.C,TP9*
X25450000Y-20000000D02*
G75*
G03X25450000Y-20000000I-400000J0D01*
G01*
G04 #@! TO.C,TP8*
X24450000Y-18915000D02*
G75*
G03X24450000Y-18915000I-400000J0D01*
G01*
G04 #@! TO.C,TP7*
X27325000Y-25200000D02*
G75*
G03X27325000Y-25200000I-400000J0D01*
G01*
G04 #@! TO.C,TP6*
X24350000Y-20000000D02*
G75*
G03X24350000Y-20000000I-400000J0D01*
G01*
G04 #@! TO.C,TP5*
X27700000Y-17825000D02*
G75*
G03X27700000Y-17825000I-400000J0D01*
G01*
G04 #@! TO.C,TP4*
X25450000Y-18950000D02*
G75*
G03X25450000Y-18950000I-400000J0D01*
G01*
G04 #@! TD*
M02*
