G04 #@! TF.GenerationSoftware,KiCad,Pcbnew,(5.0.0)*
G04 #@! TF.CreationDate,2018-11-20T23:47:43+08:00*
G04 #@! TF.ProjectId,tomu-fpga,746F6D752D667067612E6B696361645F,rev?*
G04 #@! TF.SameCoordinates,Original*
G04 #@! TF.FileFunction,Soldermask,Bot*
G04 #@! TF.FilePolarity,Negative*
%FSLAX46Y46*%
G04 Gerber Fmt 4.6, Leading zero omitted, Abs format (unit mm)*
G04 Created by KiCad (PCBNEW (5.0.0)) date 11/20/18 23:47:43*
%MOMM*%
%LPD*%
G01*
G04 APERTURE LIST*
%ADD10C,0.100000*%
G04 APERTURE END LIST*
D10*
G36*
X30125000Y-26675000D02*
X28275000Y-26675000D01*
X28275000Y-22325000D01*
X30125000Y-22325000D01*
X30125000Y-26675000D01*
X30125000Y-26675000D01*
G37*
G36*
X20874576Y-24651794D02*
X20886185Y-24655316D01*
X20896886Y-24661035D01*
X20906266Y-24668734D01*
X20913965Y-24678114D01*
X20919684Y-24688815D01*
X20923206Y-24700424D01*
X20925000Y-24718641D01*
X20925000Y-25141359D01*
X20923206Y-25159576D01*
X20919684Y-25171185D01*
X20909052Y-25191077D01*
X20899675Y-25213716D01*
X20894895Y-25237750D01*
X20894895Y-25262254D01*
X20899676Y-25286287D01*
X20909052Y-25308923D01*
X20919684Y-25328815D01*
X20923206Y-25340424D01*
X20925000Y-25358641D01*
X20925000Y-25781359D01*
X20923206Y-25799576D01*
X20919684Y-25811185D01*
X20913965Y-25821886D01*
X20906266Y-25831266D01*
X20896886Y-25838965D01*
X20886185Y-25844684D01*
X20874576Y-25848206D01*
X20856359Y-25850000D01*
X20493641Y-25850000D01*
X20475424Y-25848206D01*
X20463815Y-25844684D01*
X20453111Y-25838963D01*
X20442583Y-25830323D01*
X20422209Y-25816709D01*
X20399569Y-25807332D01*
X20375536Y-25802552D01*
X20351032Y-25802552D01*
X20326998Y-25807333D01*
X20304359Y-25816710D01*
X20283985Y-25830324D01*
X20266658Y-25847652D01*
X20253043Y-25868029D01*
X20249621Y-25874432D01*
X20243859Y-25875000D01*
X19906141Y-25875000D01*
X19900551Y-25874449D01*
X19900000Y-25868859D01*
X19900000Y-25631141D01*
X19900587Y-25625178D01*
X19902919Y-25620815D01*
X19910864Y-25608924D01*
X19920242Y-25586285D01*
X19925022Y-25562251D01*
X19925022Y-25537747D01*
X19920241Y-25513714D01*
X19910864Y-25491075D01*
X19902918Y-25479183D01*
X19900587Y-25474822D01*
X19900000Y-25468859D01*
X19900000Y-25231141D01*
X19900551Y-25225551D01*
X19906141Y-25225000D01*
X20243859Y-25225000D01*
X20249880Y-25225593D01*
X20259214Y-25228424D01*
X20263724Y-25230292D01*
X20287758Y-25235071D01*
X20312262Y-25235069D01*
X20336295Y-25230287D01*
X20358933Y-25220908D01*
X20379307Y-25207292D01*
X20396632Y-25189964D01*
X20410245Y-25169588D01*
X20419620Y-25146948D01*
X20425000Y-25110672D01*
X20425000Y-24718641D01*
X20426794Y-24700424D01*
X20430316Y-24688815D01*
X20436035Y-24678114D01*
X20443734Y-24668734D01*
X20453114Y-24661035D01*
X20463815Y-24655316D01*
X20475424Y-24651794D01*
X20493641Y-24650000D01*
X20856359Y-24650000D01*
X20874576Y-24651794D01*
X20874576Y-24651794D01*
G37*
G36*
X25409576Y-23951794D02*
X25421185Y-23955316D01*
X25441077Y-23965948D01*
X25463716Y-23975325D01*
X25487750Y-23980105D01*
X25512254Y-23980105D01*
X25536287Y-23975324D01*
X25558923Y-23965948D01*
X25578815Y-23955316D01*
X25590424Y-23951794D01*
X25608641Y-23950000D01*
X26031359Y-23950000D01*
X26049576Y-23951794D01*
X26061185Y-23955316D01*
X26071886Y-23961035D01*
X26081266Y-23968734D01*
X26088965Y-23978114D01*
X26094684Y-23988815D01*
X26098206Y-24000424D01*
X26100000Y-24018641D01*
X26100000Y-24090000D01*
X26102402Y-24114386D01*
X26109515Y-24137835D01*
X26121066Y-24159446D01*
X26136612Y-24178388D01*
X26155554Y-24193934D01*
X26177165Y-24205485D01*
X26200614Y-24212598D01*
X26225000Y-24215000D01*
X26965000Y-24215000D01*
X26965000Y-24700090D01*
X26967402Y-24724476D01*
X26974515Y-24747925D01*
X26986066Y-24769536D01*
X27001612Y-24788478D01*
X27020554Y-24804024D01*
X27042166Y-24815575D01*
X27114466Y-24845522D01*
X27114470Y-24845524D01*
X27114471Y-24845525D01*
X27179985Y-24889300D01*
X27179989Y-24889303D01*
X27235697Y-24945011D01*
X27279477Y-25010532D01*
X27301784Y-25064386D01*
X27309628Y-25083324D01*
X27325000Y-25160603D01*
X27325000Y-25239397D01*
X27314934Y-25290000D01*
X27309628Y-25316676D01*
X27279477Y-25389468D01*
X27279475Y-25389471D01*
X27238621Y-25450614D01*
X27235697Y-25454989D01*
X27179989Y-25510697D01*
X27114468Y-25554477D01*
X27041676Y-25584628D01*
X26964397Y-25600000D01*
X26885603Y-25600000D01*
X26808324Y-25584628D01*
X26735532Y-25554477D01*
X26670011Y-25510697D01*
X26614303Y-25454989D01*
X26611380Y-25450614D01*
X26570525Y-25389471D01*
X26570523Y-25389468D01*
X26540372Y-25316676D01*
X26535066Y-25290000D01*
X26525000Y-25239397D01*
X26525000Y-25160603D01*
X26540372Y-25083324D01*
X26548216Y-25064386D01*
X26570523Y-25010532D01*
X26614303Y-24945011D01*
X26670014Y-24889300D01*
X26737910Y-24843933D01*
X26756852Y-24828388D01*
X26772397Y-24809446D01*
X26783948Y-24787835D01*
X26791061Y-24764386D01*
X26793463Y-24739999D01*
X26791061Y-24715613D01*
X26783948Y-24692164D01*
X26772396Y-24670553D01*
X26756851Y-24651611D01*
X26737909Y-24636066D01*
X26716298Y-24624515D01*
X26692849Y-24617402D01*
X26668463Y-24615000D01*
X26236424Y-24615000D01*
X26240231Y-24609304D01*
X26249612Y-24586666D01*
X26254396Y-24562634D01*
X26255000Y-24550362D01*
X26255000Y-24549638D01*
X26252598Y-24525252D01*
X26245485Y-24501803D01*
X26233934Y-24480192D01*
X26218388Y-24461250D01*
X26199446Y-24445704D01*
X26177835Y-24434153D01*
X26154386Y-24427040D01*
X26130000Y-24424638D01*
X26105614Y-24427040D01*
X26082165Y-24434153D01*
X26071058Y-24439407D01*
X26070381Y-24439769D01*
X26050009Y-24453386D01*
X26032684Y-24470716D01*
X26019074Y-24491093D01*
X26009700Y-24513733D01*
X26004923Y-24537767D01*
X26004927Y-24562272D01*
X26009711Y-24586304D01*
X26019092Y-24608942D01*
X26032709Y-24629314D01*
X26050039Y-24646639D01*
X26070381Y-24660231D01*
X26071058Y-24660593D01*
X26093696Y-24669974D01*
X26117728Y-24674758D01*
X26118819Y-24674758D01*
X26109515Y-24692165D01*
X26102402Y-24715614D01*
X26100000Y-24740000D01*
X26100000Y-25081359D01*
X26098206Y-25099576D01*
X26094684Y-25111185D01*
X26088965Y-25121886D01*
X26081266Y-25131266D01*
X26071884Y-25138966D01*
X26070399Y-25139760D01*
X26050024Y-25153373D01*
X26032697Y-25170700D01*
X26019083Y-25191075D01*
X26009706Y-25213714D01*
X26004925Y-25237747D01*
X26004925Y-25262252D01*
X26009705Y-25286285D01*
X26019083Y-25308924D01*
X26032696Y-25329299D01*
X26050023Y-25346626D01*
X26070399Y-25360240D01*
X26071884Y-25361034D01*
X26081266Y-25368734D01*
X26088965Y-25378114D01*
X26094684Y-25388815D01*
X26098206Y-25400424D01*
X26100000Y-25418641D01*
X26100000Y-25781359D01*
X26098206Y-25799576D01*
X26094684Y-25811185D01*
X26088965Y-25821886D01*
X26081266Y-25831266D01*
X26071886Y-25838965D01*
X26061185Y-25844684D01*
X26049576Y-25848206D01*
X26031359Y-25850000D01*
X25608641Y-25850000D01*
X25590424Y-25848206D01*
X25578815Y-25844684D01*
X25558923Y-25834052D01*
X25536284Y-25824675D01*
X25512250Y-25819895D01*
X25487746Y-25819895D01*
X25463713Y-25824676D01*
X25441077Y-25834052D01*
X25421185Y-25844684D01*
X25409576Y-25848206D01*
X25391359Y-25850000D01*
X24968641Y-25850000D01*
X24950424Y-25848206D01*
X24938815Y-25844684D01*
X24928114Y-25838965D01*
X24918734Y-25831266D01*
X24911035Y-25821886D01*
X24905316Y-25811185D01*
X24901794Y-25799576D01*
X24900000Y-25781359D01*
X24900000Y-25418641D01*
X24901794Y-25400424D01*
X24905316Y-25388815D01*
X24911035Y-25378114D01*
X24918734Y-25368734D01*
X24928116Y-25361034D01*
X24929601Y-25360240D01*
X24949976Y-25346627D01*
X24967303Y-25329300D01*
X24980917Y-25308925D01*
X24990294Y-25286286D01*
X24995075Y-25262253D01*
X24995075Y-25237748D01*
X25364925Y-25237748D01*
X25364925Y-25262252D01*
X25369706Y-25286286D01*
X25379083Y-25308925D01*
X25392697Y-25329299D01*
X25410024Y-25346626D01*
X25430398Y-25360240D01*
X25441075Y-25365947D01*
X25463714Y-25375324D01*
X25487748Y-25380105D01*
X25512252Y-25380105D01*
X25536285Y-25375325D01*
X25558925Y-25365947D01*
X25569602Y-25360240D01*
X25589976Y-25346626D01*
X25607303Y-25329299D01*
X25620917Y-25308924D01*
X25630295Y-25286285D01*
X25635075Y-25262252D01*
X25635075Y-25237748D01*
X25630294Y-25213714D01*
X25620917Y-25191075D01*
X25607303Y-25170701D01*
X25589976Y-25153374D01*
X25569602Y-25139760D01*
X25558925Y-25134053D01*
X25536286Y-25124676D01*
X25512252Y-25119895D01*
X25487748Y-25119895D01*
X25463715Y-25124675D01*
X25441075Y-25134053D01*
X25430398Y-25139760D01*
X25410024Y-25153374D01*
X25392697Y-25170701D01*
X25379083Y-25191076D01*
X25369705Y-25213715D01*
X25364925Y-25237748D01*
X24995075Y-25237748D01*
X24990295Y-25213715D01*
X24980917Y-25191076D01*
X24967304Y-25170701D01*
X24949977Y-25153374D01*
X24929601Y-25139760D01*
X24928116Y-25138966D01*
X24918734Y-25131266D01*
X24911035Y-25121886D01*
X24905316Y-25111185D01*
X24901794Y-25099576D01*
X24900000Y-25081359D01*
X24900000Y-24718641D01*
X24901794Y-24700424D01*
X24905316Y-24688815D01*
X24911035Y-24678114D01*
X24918734Y-24668734D01*
X24928116Y-24661034D01*
X24929601Y-24660240D01*
X24949976Y-24646627D01*
X24967303Y-24629300D01*
X24980917Y-24608925D01*
X24990294Y-24586286D01*
X24995075Y-24562253D01*
X24995075Y-24537748D01*
X25364925Y-24537748D01*
X25364925Y-24562252D01*
X25369706Y-24586286D01*
X25379083Y-24608925D01*
X25392697Y-24629299D01*
X25410024Y-24646626D01*
X25430398Y-24660240D01*
X25441075Y-24665947D01*
X25463714Y-24675324D01*
X25487748Y-24680105D01*
X25512252Y-24680105D01*
X25536285Y-24675325D01*
X25558925Y-24665947D01*
X25569602Y-24660240D01*
X25589976Y-24646626D01*
X25607303Y-24629299D01*
X25620917Y-24608924D01*
X25630295Y-24586285D01*
X25635075Y-24562252D01*
X25635075Y-24537748D01*
X25630294Y-24513714D01*
X25620917Y-24491075D01*
X25607303Y-24470701D01*
X25589976Y-24453374D01*
X25569602Y-24439760D01*
X25558925Y-24434053D01*
X25536286Y-24424676D01*
X25512252Y-24419895D01*
X25487748Y-24419895D01*
X25463715Y-24424675D01*
X25441075Y-24434053D01*
X25430398Y-24439760D01*
X25410024Y-24453374D01*
X25392697Y-24470701D01*
X25379083Y-24491076D01*
X25369705Y-24513715D01*
X25364925Y-24537748D01*
X24995075Y-24537748D01*
X24990295Y-24513715D01*
X24980917Y-24491076D01*
X24967304Y-24470701D01*
X24949977Y-24453374D01*
X24929601Y-24439760D01*
X24928116Y-24438966D01*
X24918734Y-24431266D01*
X24911035Y-24421886D01*
X24905316Y-24411185D01*
X24901794Y-24399576D01*
X24900000Y-24381359D01*
X24900000Y-24018641D01*
X24901794Y-24000424D01*
X24905316Y-23988815D01*
X24911035Y-23978114D01*
X24918734Y-23968734D01*
X24928114Y-23961035D01*
X24938815Y-23955316D01*
X24950424Y-23951794D01*
X24968641Y-23950000D01*
X25391359Y-23950000D01*
X25409576Y-23951794D01*
X25409576Y-23951794D01*
G37*
G36*
X24325000Y-25850000D02*
X23925000Y-25850000D01*
X23925000Y-24000000D01*
X24325000Y-24000000D01*
X24325000Y-25850000D01*
X24325000Y-25850000D01*
G37*
G36*
X21925000Y-25850000D02*
X21525000Y-25850000D01*
X21525000Y-24000000D01*
X21925000Y-24000000D01*
X21925000Y-25850000D01*
X21925000Y-25850000D01*
G37*
G36*
X17839576Y-24606794D02*
X17851185Y-24610316D01*
X17861886Y-24616035D01*
X17871266Y-24623734D01*
X17878965Y-24633114D01*
X17884684Y-24643815D01*
X17888206Y-24655424D01*
X17890000Y-24673641D01*
X17890000Y-25096359D01*
X17888206Y-25114576D01*
X17884684Y-25126185D01*
X17874052Y-25146077D01*
X17864675Y-25168716D01*
X17859895Y-25192750D01*
X17859895Y-25217254D01*
X17864676Y-25241287D01*
X17874052Y-25263923D01*
X17884684Y-25283815D01*
X17888206Y-25295424D01*
X17890000Y-25313641D01*
X17890000Y-25736359D01*
X17888206Y-25754576D01*
X17884684Y-25766185D01*
X17878965Y-25776886D01*
X17871266Y-25786266D01*
X17861886Y-25793965D01*
X17851185Y-25799684D01*
X17839576Y-25803206D01*
X17821359Y-25805000D01*
X17458641Y-25805000D01*
X17440424Y-25803206D01*
X17428815Y-25799684D01*
X17418114Y-25793965D01*
X17408734Y-25786266D01*
X17401035Y-25776886D01*
X17395316Y-25766185D01*
X17391794Y-25754576D01*
X17390000Y-25736359D01*
X17390000Y-25313641D01*
X17391794Y-25295424D01*
X17395316Y-25283815D01*
X17405948Y-25263923D01*
X17415325Y-25241284D01*
X17420105Y-25217250D01*
X17420105Y-25192746D01*
X17415324Y-25168713D01*
X17405948Y-25146077D01*
X17395316Y-25126185D01*
X17391794Y-25114576D01*
X17390000Y-25096359D01*
X17390000Y-24673641D01*
X17391794Y-24655424D01*
X17395316Y-24643815D01*
X17401035Y-24633114D01*
X17408734Y-24623734D01*
X17418114Y-24616035D01*
X17428815Y-24610316D01*
X17440424Y-24606794D01*
X17458641Y-24605000D01*
X17821359Y-24605000D01*
X17839576Y-24606794D01*
X17839576Y-24606794D01*
G37*
G36*
X23075000Y-25775000D02*
X22775000Y-25775000D01*
X22775000Y-24075000D01*
X23075000Y-24075000D01*
X23075000Y-25775000D01*
X23075000Y-25775000D01*
G37*
G36*
X18650000Y-25600000D02*
X18650000Y-25630000D01*
X18290000Y-25630000D01*
X18290000Y-25420000D01*
X18470000Y-25420000D01*
X18650000Y-25600000D01*
X18650000Y-25600000D01*
G37*
G36*
X19510000Y-25630000D02*
X19150000Y-25630000D01*
X19150000Y-25600000D01*
X19330000Y-25420000D01*
X19510000Y-25420000D01*
X19510000Y-25630000D01*
X19510000Y-25630000D01*
G37*
G36*
X19239412Y-25200000D02*
X18900000Y-25539412D01*
X18560588Y-25200000D01*
X18900000Y-24860588D01*
X19239412Y-25200000D01*
X19239412Y-25200000D01*
G37*
G36*
X18650000Y-24800000D02*
X18470000Y-24980000D01*
X18290000Y-24980000D01*
X18290000Y-24770000D01*
X18650000Y-24770000D01*
X18650000Y-24800000D01*
X18650000Y-24800000D01*
G37*
G36*
X19510000Y-24980000D02*
X19330000Y-24980000D01*
X19150000Y-24800000D01*
X19150000Y-24770000D01*
X19510000Y-24770000D01*
X19510000Y-24980000D01*
X19510000Y-24980000D01*
G37*
G36*
X17839576Y-23101794D02*
X17851185Y-23105316D01*
X17861886Y-23111035D01*
X17871266Y-23118734D01*
X17878965Y-23128114D01*
X17884684Y-23138815D01*
X17888206Y-23150424D01*
X17890000Y-23168641D01*
X17890000Y-23591359D01*
X17888206Y-23609576D01*
X17884684Y-23621185D01*
X17874052Y-23641077D01*
X17864675Y-23663716D01*
X17859895Y-23687750D01*
X17859895Y-23712254D01*
X17864676Y-23736287D01*
X17874052Y-23758923D01*
X17884684Y-23778815D01*
X17888206Y-23790424D01*
X17890000Y-23808641D01*
X17890000Y-24231359D01*
X17888206Y-24249576D01*
X17884684Y-24261185D01*
X17878965Y-24271886D01*
X17871266Y-24281266D01*
X17861886Y-24288965D01*
X17851185Y-24294684D01*
X17839576Y-24298206D01*
X17821359Y-24300000D01*
X17458641Y-24300000D01*
X17440424Y-24298206D01*
X17428815Y-24294684D01*
X17418114Y-24288965D01*
X17408734Y-24281266D01*
X17401035Y-24271886D01*
X17395316Y-24261185D01*
X17391794Y-24249576D01*
X17390000Y-24231359D01*
X17390000Y-23808641D01*
X17391794Y-23790424D01*
X17395316Y-23778815D01*
X17405948Y-23758923D01*
X17415325Y-23736284D01*
X17420105Y-23712250D01*
X17420105Y-23687746D01*
X17415324Y-23663713D01*
X17405948Y-23641077D01*
X17395316Y-23621185D01*
X17391794Y-23609576D01*
X17390000Y-23591359D01*
X17390000Y-23168641D01*
X17391794Y-23150424D01*
X17395316Y-23138815D01*
X17401035Y-23128114D01*
X17408734Y-23118734D01*
X17418114Y-23111035D01*
X17428815Y-23105316D01*
X17440424Y-23101794D01*
X17458641Y-23100000D01*
X17821359Y-23100000D01*
X17839576Y-23101794D01*
X17839576Y-23101794D01*
G37*
G36*
X18650000Y-21535909D02*
X18652402Y-21560295D01*
X18659515Y-21583744D01*
X18671066Y-21605355D01*
X18686612Y-21624297D01*
X18705554Y-21639843D01*
X18727165Y-21651394D01*
X18750614Y-21658507D01*
X18775000Y-21660909D01*
X18799386Y-21658507D01*
X18822835Y-21651394D01*
X18844446Y-21639843D01*
X18863388Y-21624297D01*
X18867550Y-21619705D01*
X18878114Y-21611035D01*
X18888815Y-21605316D01*
X18900424Y-21601794D01*
X18918641Y-21600000D01*
X19281359Y-21600000D01*
X19299576Y-21601794D01*
X19311185Y-21605316D01*
X19321886Y-21611035D01*
X19331266Y-21618734D01*
X19338966Y-21628116D01*
X19339760Y-21629601D01*
X19353373Y-21649976D01*
X19370700Y-21667303D01*
X19391075Y-21680917D01*
X19413714Y-21690294D01*
X19437747Y-21695075D01*
X19462252Y-21695075D01*
X19486285Y-21690295D01*
X19508924Y-21680917D01*
X19529299Y-21667304D01*
X19546626Y-21649977D01*
X19560240Y-21629601D01*
X19561034Y-21628116D01*
X19568734Y-21618734D01*
X19578114Y-21611035D01*
X19588815Y-21605316D01*
X19600424Y-21601794D01*
X19618641Y-21600000D01*
X19981359Y-21600000D01*
X19999576Y-21601794D01*
X20011184Y-21605316D01*
X20016075Y-21607930D01*
X20038714Y-21617307D01*
X20062748Y-21622088D01*
X20087252Y-21622088D01*
X20111285Y-21617308D01*
X20133924Y-21607930D01*
X20154299Y-21594317D01*
X20171626Y-21576989D01*
X20185240Y-21556615D01*
X20194617Y-21533976D01*
X20199398Y-21509942D01*
X20200000Y-21497690D01*
X20200000Y-21440000D01*
X20600000Y-21440000D01*
X20600000Y-22170000D01*
X20602402Y-22194386D01*
X20609515Y-22217835D01*
X20621066Y-22239446D01*
X20636612Y-22258388D01*
X20655554Y-22273934D01*
X20677165Y-22285485D01*
X20700614Y-22292598D01*
X20725000Y-22295000D01*
X20741359Y-22295000D01*
X20759576Y-22296794D01*
X20771185Y-22300316D01*
X20791077Y-22310948D01*
X20813716Y-22320325D01*
X20837750Y-22325105D01*
X20862254Y-22325105D01*
X20886287Y-22320324D01*
X20908923Y-22310948D01*
X20928815Y-22300316D01*
X20940424Y-22296794D01*
X20958641Y-22295000D01*
X21381359Y-22295000D01*
X21399576Y-22296794D01*
X21411185Y-22300316D01*
X21421886Y-22306035D01*
X21431266Y-22313734D01*
X21438965Y-22323114D01*
X21444684Y-22333815D01*
X21448206Y-22345424D01*
X21450000Y-22363641D01*
X21450000Y-22726359D01*
X21448206Y-22744576D01*
X21444684Y-22756185D01*
X21438965Y-22766886D01*
X21431266Y-22776266D01*
X21421886Y-22783965D01*
X21411185Y-22789684D01*
X21399576Y-22793206D01*
X21381359Y-22795000D01*
X20958641Y-22795000D01*
X20940424Y-22793206D01*
X20928815Y-22789684D01*
X20908923Y-22779052D01*
X20886284Y-22769675D01*
X20862250Y-22764895D01*
X20837746Y-22764895D01*
X20813713Y-22769676D01*
X20791077Y-22779052D01*
X20771185Y-22789684D01*
X20759576Y-22793206D01*
X20741359Y-22795000D01*
X20464091Y-22795000D01*
X20439705Y-22797402D01*
X20416256Y-22804515D01*
X20394645Y-22816066D01*
X20375703Y-22831612D01*
X20360157Y-22850554D01*
X20348606Y-22872165D01*
X20341493Y-22895614D01*
X20339091Y-22920000D01*
X20341493Y-22944386D01*
X20348606Y-22967835D01*
X20360157Y-22989446D01*
X20375703Y-23008388D01*
X20380295Y-23012550D01*
X20388965Y-23023114D01*
X20394684Y-23033815D01*
X20398206Y-23045424D01*
X20400000Y-23063641D01*
X20400000Y-23486359D01*
X20398206Y-23504576D01*
X20394684Y-23516185D01*
X20384052Y-23536077D01*
X20374675Y-23558716D01*
X20369895Y-23582750D01*
X20369895Y-23607254D01*
X20374676Y-23631287D01*
X20384052Y-23653923D01*
X20394684Y-23673815D01*
X20398206Y-23685424D01*
X20400000Y-23703641D01*
X20400000Y-24126359D01*
X20398206Y-24144576D01*
X20394684Y-24156185D01*
X20388965Y-24166886D01*
X20381266Y-24176266D01*
X20371886Y-24183965D01*
X20361185Y-24189684D01*
X20349576Y-24193206D01*
X20331359Y-24195000D01*
X19968641Y-24195000D01*
X19950424Y-24193206D01*
X19938815Y-24189684D01*
X19928114Y-24183965D01*
X19918734Y-24176266D01*
X19911035Y-24166886D01*
X19905316Y-24156185D01*
X19901794Y-24144576D01*
X19900000Y-24126359D01*
X19900000Y-23703641D01*
X19901794Y-23685424D01*
X19905316Y-23673815D01*
X19915948Y-23653923D01*
X19925325Y-23631284D01*
X19930105Y-23607250D01*
X19930105Y-23582746D01*
X19925324Y-23558713D01*
X19915948Y-23536077D01*
X19905316Y-23516185D01*
X19901794Y-23504576D01*
X19900000Y-23486359D01*
X19900000Y-23063641D01*
X19901794Y-23045424D01*
X19905316Y-23033815D01*
X19911037Y-23023111D01*
X19926476Y-23004298D01*
X19940090Y-22983923D01*
X19949467Y-22961284D01*
X19954247Y-22937250D01*
X19954247Y-22912746D01*
X19949466Y-22888713D01*
X19940088Y-22866074D01*
X19934526Y-22857750D01*
X19995753Y-22857750D01*
X19995753Y-22882254D01*
X20000534Y-22906287D01*
X20009912Y-22928926D01*
X20023526Y-22949300D01*
X20040853Y-22966627D01*
X20061228Y-22980241D01*
X20083867Y-22989618D01*
X20120151Y-22995000D01*
X20185909Y-22995000D01*
X20210295Y-22992598D01*
X20233744Y-22985485D01*
X20255355Y-22973934D01*
X20274297Y-22958388D01*
X20289843Y-22939446D01*
X20301394Y-22917835D01*
X20308507Y-22894386D01*
X20310909Y-22870000D01*
X20308507Y-22845614D01*
X20301394Y-22822165D01*
X20289843Y-22800554D01*
X20274297Y-22781612D01*
X20269705Y-22777450D01*
X20260303Y-22765994D01*
X20247961Y-22747522D01*
X20230634Y-22730195D01*
X20210259Y-22716582D01*
X20187620Y-22707205D01*
X20163586Y-22702425D01*
X20139082Y-22702425D01*
X20115048Y-22707206D01*
X20092410Y-22716584D01*
X20072035Y-22730198D01*
X20054708Y-22747525D01*
X20041095Y-22767900D01*
X20038963Y-22771889D01*
X20023524Y-22790702D01*
X20009910Y-22811077D01*
X20000533Y-22833716D01*
X19995753Y-22857750D01*
X19934526Y-22857750D01*
X19926474Y-22845700D01*
X19909147Y-22828373D01*
X19888772Y-22814759D01*
X19866133Y-22805382D01*
X19829849Y-22800000D01*
X19618641Y-22800000D01*
X19600424Y-22798206D01*
X19588815Y-22794684D01*
X19578114Y-22788965D01*
X19568734Y-22781266D01*
X19561034Y-22771884D01*
X19560240Y-22770399D01*
X19546627Y-22750024D01*
X19529300Y-22732697D01*
X19508925Y-22719083D01*
X19486286Y-22709706D01*
X19462253Y-22704925D01*
X19437748Y-22704925D01*
X19413715Y-22709705D01*
X19391076Y-22719083D01*
X19370701Y-22732696D01*
X19353374Y-22750023D01*
X19339760Y-22770399D01*
X19338966Y-22771884D01*
X19331266Y-22781266D01*
X19321886Y-22788965D01*
X19311185Y-22794684D01*
X19299576Y-22798206D01*
X19281359Y-22800000D01*
X18918641Y-22800000D01*
X18900424Y-22798206D01*
X18888815Y-22794684D01*
X18878114Y-22788965D01*
X18868734Y-22781266D01*
X18861034Y-22771884D01*
X18860240Y-22770399D01*
X18846627Y-22750024D01*
X18829300Y-22732697D01*
X18808925Y-22719083D01*
X18786286Y-22709706D01*
X18762253Y-22704925D01*
X18737748Y-22704925D01*
X18713715Y-22709705D01*
X18691076Y-22719083D01*
X18670701Y-22732696D01*
X18653374Y-22750023D01*
X18639760Y-22770399D01*
X18638966Y-22771884D01*
X18631266Y-22781266D01*
X18621886Y-22788965D01*
X18611185Y-22794684D01*
X18599576Y-22798206D01*
X18581359Y-22800000D01*
X18218641Y-22800000D01*
X18200424Y-22798206D01*
X18188815Y-22794684D01*
X18178114Y-22788965D01*
X18168734Y-22781266D01*
X18161034Y-22771884D01*
X18160240Y-22770399D01*
X18146627Y-22750024D01*
X18129300Y-22732697D01*
X18108925Y-22719083D01*
X18086286Y-22709706D01*
X18062253Y-22704925D01*
X18037748Y-22704925D01*
X18013715Y-22709705D01*
X17991076Y-22719083D01*
X17970701Y-22732696D01*
X17953374Y-22750023D01*
X17939760Y-22770399D01*
X17938966Y-22771884D01*
X17931266Y-22781266D01*
X17921886Y-22788965D01*
X17911185Y-22794684D01*
X17899576Y-22798206D01*
X17881359Y-22800000D01*
X17518641Y-22800000D01*
X17500424Y-22798206D01*
X17488815Y-22794684D01*
X17478114Y-22788965D01*
X17468734Y-22781266D01*
X17461035Y-22771886D01*
X17455316Y-22761185D01*
X17451794Y-22749576D01*
X17450000Y-22731359D01*
X17450000Y-22308641D01*
X17451794Y-22290424D01*
X17455316Y-22278815D01*
X17465948Y-22258923D01*
X17475325Y-22236284D01*
X17480105Y-22212250D01*
X17480105Y-22187748D01*
X17919895Y-22187748D01*
X17919895Y-22212252D01*
X17924675Y-22236285D01*
X17934053Y-22258925D01*
X17939760Y-22269602D01*
X17953374Y-22289976D01*
X17970701Y-22307303D01*
X17991076Y-22320917D01*
X18013715Y-22330295D01*
X18037748Y-22335075D01*
X18062252Y-22335075D01*
X18086286Y-22330294D01*
X18108925Y-22320917D01*
X18129299Y-22307303D01*
X18146626Y-22289976D01*
X18160240Y-22269602D01*
X18165947Y-22258925D01*
X18175324Y-22236286D01*
X18180105Y-22212252D01*
X18180105Y-22187748D01*
X18619895Y-22187748D01*
X18619895Y-22212252D01*
X18624675Y-22236285D01*
X18634053Y-22258925D01*
X18639760Y-22269602D01*
X18653374Y-22289976D01*
X18670701Y-22307303D01*
X18691076Y-22320917D01*
X18713715Y-22330295D01*
X18737748Y-22335075D01*
X18762252Y-22335075D01*
X18786286Y-22330294D01*
X18808925Y-22320917D01*
X18829299Y-22307303D01*
X18846626Y-22289976D01*
X18860240Y-22269602D01*
X18865947Y-22258925D01*
X18875324Y-22236286D01*
X18880105Y-22212252D01*
X18880105Y-22187748D01*
X19319895Y-22187748D01*
X19319895Y-22212252D01*
X19324675Y-22236285D01*
X19334053Y-22258925D01*
X19339760Y-22269602D01*
X19353374Y-22289976D01*
X19370701Y-22307303D01*
X19391076Y-22320917D01*
X19413715Y-22330295D01*
X19437748Y-22335075D01*
X19462252Y-22335075D01*
X19486286Y-22330294D01*
X19508925Y-22320917D01*
X19529299Y-22307303D01*
X19546626Y-22289976D01*
X19560240Y-22269602D01*
X19565947Y-22258925D01*
X19575324Y-22236286D01*
X19580105Y-22212252D01*
X19580105Y-22187748D01*
X19575325Y-22163715D01*
X19565947Y-22141075D01*
X19560240Y-22130398D01*
X19546626Y-22110024D01*
X19529299Y-22092697D01*
X19508924Y-22079083D01*
X19486285Y-22069705D01*
X19462252Y-22064925D01*
X19437748Y-22064925D01*
X19413714Y-22069706D01*
X19391075Y-22079083D01*
X19370701Y-22092697D01*
X19353374Y-22110024D01*
X19339760Y-22130398D01*
X19334053Y-22141075D01*
X19324676Y-22163714D01*
X19319895Y-22187748D01*
X18880105Y-22187748D01*
X18875325Y-22163715D01*
X18865947Y-22141075D01*
X18860240Y-22130398D01*
X18846626Y-22110024D01*
X18829299Y-22092697D01*
X18808924Y-22079083D01*
X18786285Y-22069705D01*
X18762252Y-22064925D01*
X18737748Y-22064925D01*
X18713714Y-22069706D01*
X18691075Y-22079083D01*
X18670701Y-22092697D01*
X18653374Y-22110024D01*
X18639760Y-22130398D01*
X18634053Y-22141075D01*
X18624676Y-22163714D01*
X18619895Y-22187748D01*
X18180105Y-22187748D01*
X18175325Y-22163715D01*
X18165947Y-22141075D01*
X18160240Y-22130398D01*
X18146626Y-22110024D01*
X18129299Y-22092697D01*
X18108924Y-22079083D01*
X18086285Y-22069705D01*
X18062252Y-22064925D01*
X18037748Y-22064925D01*
X18013714Y-22069706D01*
X17991075Y-22079083D01*
X17970701Y-22092697D01*
X17953374Y-22110024D01*
X17939760Y-22130398D01*
X17934053Y-22141075D01*
X17924676Y-22163714D01*
X17919895Y-22187748D01*
X17480105Y-22187748D01*
X17480105Y-22187746D01*
X17475324Y-22163713D01*
X17465948Y-22141077D01*
X17455316Y-22121185D01*
X17451794Y-22109576D01*
X17450000Y-22091359D01*
X17450000Y-21668641D01*
X17451794Y-21650424D01*
X17455316Y-21638815D01*
X17461035Y-21628114D01*
X17468734Y-21618734D01*
X17478114Y-21611035D01*
X17488815Y-21605316D01*
X17500424Y-21601794D01*
X17518641Y-21600000D01*
X17548292Y-21600000D01*
X17572678Y-21597598D01*
X17596127Y-21590485D01*
X17600000Y-21588415D01*
X17603873Y-21590485D01*
X17627322Y-21597598D01*
X17651708Y-21600000D01*
X17881359Y-21600000D01*
X17899576Y-21601794D01*
X17911185Y-21605316D01*
X17921886Y-21611035D01*
X17931266Y-21618734D01*
X17938966Y-21628116D01*
X17939760Y-21629601D01*
X17953373Y-21649976D01*
X17970700Y-21667303D01*
X17991075Y-21680917D01*
X18013714Y-21690294D01*
X18037747Y-21695075D01*
X18062252Y-21695075D01*
X18086285Y-21690295D01*
X18108924Y-21680917D01*
X18129299Y-21667304D01*
X18146626Y-21649977D01*
X18160240Y-21629601D01*
X18161034Y-21628116D01*
X18168734Y-21618734D01*
X18178114Y-21611036D01*
X18183921Y-21607932D01*
X18204296Y-21594319D01*
X18221623Y-21576993D01*
X18235238Y-21556619D01*
X18244616Y-21533980D01*
X18249398Y-21509947D01*
X18250000Y-21497690D01*
X18250000Y-21001708D01*
X18247598Y-20977322D01*
X18240485Y-20953873D01*
X18238415Y-20950000D01*
X18240485Y-20946127D01*
X18247598Y-20922678D01*
X18250000Y-20898292D01*
X18250000Y-20740000D01*
X18650000Y-20740000D01*
X18650000Y-21535909D01*
X18650000Y-21535909D01*
G37*
G36*
X19510000Y-24130000D02*
X19150000Y-24130000D01*
X19150000Y-24100000D01*
X19330000Y-23920000D01*
X19510000Y-23920000D01*
X19510000Y-24130000D01*
X19510000Y-24130000D01*
G37*
G36*
X18650000Y-24100000D02*
X18650000Y-24130000D01*
X18290000Y-24130000D01*
X18290000Y-23920000D01*
X18470000Y-23920000D01*
X18650000Y-24100000D01*
X18650000Y-24100000D01*
G37*
G36*
X19239412Y-23700000D02*
X18900000Y-24039412D01*
X18560588Y-23700000D01*
X18900000Y-23360588D01*
X19239412Y-23700000D01*
X19239412Y-23700000D01*
G37*
G36*
X27100000Y-23480000D02*
X26691302Y-23480000D01*
X26690485Y-23477305D01*
X26678934Y-23455694D01*
X26663388Y-23436752D01*
X26644446Y-23421206D01*
X26622835Y-23409655D01*
X26599386Y-23402542D01*
X26575000Y-23400140D01*
X26550614Y-23402542D01*
X26527165Y-23409655D01*
X26505554Y-23421206D01*
X26486612Y-23436752D01*
X26471066Y-23455694D01*
X26459515Y-23477305D01*
X26454477Y-23489468D01*
X26454475Y-23489471D01*
X26417048Y-23545485D01*
X26410697Y-23554989D01*
X26354989Y-23610697D01*
X26354986Y-23610699D01*
X26354985Y-23610700D01*
X26304377Y-23644515D01*
X26289468Y-23654477D01*
X26242781Y-23673815D01*
X26216676Y-23684628D01*
X26139397Y-23700000D01*
X26060603Y-23700000D01*
X25983324Y-23684628D01*
X25957219Y-23673815D01*
X25910532Y-23654477D01*
X25895623Y-23644515D01*
X25845015Y-23610700D01*
X25845014Y-23610699D01*
X25845011Y-23610697D01*
X25789303Y-23554989D01*
X25782953Y-23545485D01*
X25745525Y-23489471D01*
X25745523Y-23489468D01*
X25715372Y-23416676D01*
X25712083Y-23400140D01*
X25700000Y-23339397D01*
X25700000Y-23260603D01*
X25715372Y-23183324D01*
X25718810Y-23175023D01*
X25745523Y-23110532D01*
X25789303Y-23045011D01*
X25845011Y-22989303D01*
X25851487Y-22984976D01*
X25910529Y-22945525D01*
X25910532Y-22945523D01*
X25983324Y-22915372D01*
X26028997Y-22906287D01*
X26060603Y-22900000D01*
X26139397Y-22900000D01*
X26171003Y-22906287D01*
X26216676Y-22915372D01*
X26289468Y-22945523D01*
X26289471Y-22945525D01*
X26348514Y-22984976D01*
X26354989Y-22989303D01*
X26410697Y-23045011D01*
X26454477Y-23110532D01*
X26459515Y-23122695D01*
X26471066Y-23144306D01*
X26486612Y-23163248D01*
X26505554Y-23178794D01*
X26527165Y-23190345D01*
X26550614Y-23197458D01*
X26575000Y-23199860D01*
X26599386Y-23197458D01*
X26622835Y-23190345D01*
X26644446Y-23178794D01*
X26663388Y-23163248D01*
X26678934Y-23144306D01*
X26690485Y-23122695D01*
X26697598Y-23099246D01*
X26700000Y-23074860D01*
X26700000Y-22770000D01*
X27100000Y-22770000D01*
X27100000Y-23480000D01*
X27100000Y-23480000D01*
G37*
G36*
X18650000Y-23300000D02*
X18470000Y-23480000D01*
X18290000Y-23480000D01*
X18290000Y-23270000D01*
X18650000Y-23270000D01*
X18650000Y-23300000D01*
X18650000Y-23300000D01*
G37*
G36*
X19510000Y-23480000D02*
X19330000Y-23480000D01*
X19150000Y-23300000D01*
X19150000Y-23270000D01*
X19510000Y-23270000D01*
X19510000Y-23480000D01*
X19510000Y-23480000D01*
G37*
G36*
X22299576Y-20626794D02*
X22311185Y-20630316D01*
X22321886Y-20636035D01*
X22331266Y-20643734D01*
X22338966Y-20653116D01*
X22339760Y-20654601D01*
X22353373Y-20674976D01*
X22370700Y-20692303D01*
X22391075Y-20705917D01*
X22413714Y-20715294D01*
X22437747Y-20720075D01*
X22462252Y-20720075D01*
X22486285Y-20715295D01*
X22508924Y-20705917D01*
X22529299Y-20692304D01*
X22546626Y-20674977D01*
X22560240Y-20654601D01*
X22561034Y-20653116D01*
X22568734Y-20643734D01*
X22578114Y-20636035D01*
X22588815Y-20630316D01*
X22600424Y-20626794D01*
X22618641Y-20625000D01*
X22981359Y-20625000D01*
X22999576Y-20626794D01*
X23011185Y-20630316D01*
X23021886Y-20636035D01*
X23031266Y-20643734D01*
X23038965Y-20653114D01*
X23044684Y-20663815D01*
X23048206Y-20675424D01*
X23050000Y-20693641D01*
X23050000Y-21116359D01*
X23048206Y-21134576D01*
X23044684Y-21146185D01*
X23034052Y-21166077D01*
X23024675Y-21188716D01*
X23019895Y-21212750D01*
X23019895Y-21237254D01*
X23024676Y-21261287D01*
X23034052Y-21283923D01*
X23044684Y-21303815D01*
X23048206Y-21315424D01*
X23050000Y-21333641D01*
X23050000Y-21756359D01*
X23048206Y-21774576D01*
X23044684Y-21786185D01*
X23038965Y-21796886D01*
X23031266Y-21806266D01*
X23021884Y-21813966D01*
X23020399Y-21814760D01*
X23000024Y-21828373D01*
X22982697Y-21845700D01*
X22969083Y-21866075D01*
X22959706Y-21888714D01*
X22954925Y-21912747D01*
X22954925Y-21937252D01*
X22959705Y-21961285D01*
X22969083Y-21983924D01*
X22982696Y-22004299D01*
X23000023Y-22021626D01*
X23020399Y-22035240D01*
X23021884Y-22036034D01*
X23031266Y-22043734D01*
X23038965Y-22053114D01*
X23044684Y-22063815D01*
X23048206Y-22075424D01*
X23050000Y-22093641D01*
X23050000Y-22516359D01*
X23048206Y-22534576D01*
X23044684Y-22546185D01*
X23034052Y-22566077D01*
X23024675Y-22588716D01*
X23019895Y-22612750D01*
X23019895Y-22637254D01*
X23024676Y-22661287D01*
X23034052Y-22683923D01*
X23044684Y-22703815D01*
X23048206Y-22715424D01*
X23050000Y-22733641D01*
X23050000Y-23156359D01*
X23048206Y-23174576D01*
X23044684Y-23186185D01*
X23038965Y-23196886D01*
X23031266Y-23206266D01*
X23021886Y-23213965D01*
X23011185Y-23219684D01*
X22999576Y-23223206D01*
X22981359Y-23225000D01*
X22618641Y-23225000D01*
X22600424Y-23223206D01*
X22588815Y-23219684D01*
X22578114Y-23213965D01*
X22568734Y-23206266D01*
X22561034Y-23196884D01*
X22560240Y-23195399D01*
X22546627Y-23175024D01*
X22529300Y-23157697D01*
X22508925Y-23144083D01*
X22486286Y-23134706D01*
X22462253Y-23129925D01*
X22437748Y-23129925D01*
X22413715Y-23134705D01*
X22391076Y-23144083D01*
X22370701Y-23157696D01*
X22353374Y-23175023D01*
X22339760Y-23195399D01*
X22338966Y-23196884D01*
X22331266Y-23206266D01*
X22321886Y-23213965D01*
X22311185Y-23219684D01*
X22299576Y-23223206D01*
X22281359Y-23225000D01*
X21918641Y-23225000D01*
X21900424Y-23223206D01*
X21888815Y-23219684D01*
X21878114Y-23213965D01*
X21868734Y-23206266D01*
X21861035Y-23196886D01*
X21855316Y-23186185D01*
X21851794Y-23174576D01*
X21850000Y-23156359D01*
X21850000Y-22733641D01*
X21851794Y-22715424D01*
X21855316Y-22703815D01*
X21865948Y-22683923D01*
X21875325Y-22661284D01*
X21880105Y-22637250D01*
X21880105Y-22612748D01*
X22319895Y-22612748D01*
X22319895Y-22637252D01*
X22324675Y-22661285D01*
X22334053Y-22683925D01*
X22339760Y-22694602D01*
X22353374Y-22714976D01*
X22370701Y-22732303D01*
X22391076Y-22745917D01*
X22413715Y-22755295D01*
X22437748Y-22760075D01*
X22462252Y-22760075D01*
X22486286Y-22755294D01*
X22508925Y-22745917D01*
X22529299Y-22732303D01*
X22546626Y-22714976D01*
X22560240Y-22694602D01*
X22565947Y-22683925D01*
X22575324Y-22661286D01*
X22580105Y-22637252D01*
X22580105Y-22612748D01*
X22575325Y-22588715D01*
X22565947Y-22566075D01*
X22560240Y-22555398D01*
X22546626Y-22535024D01*
X22529299Y-22517697D01*
X22508924Y-22504083D01*
X22486285Y-22494705D01*
X22462252Y-22489925D01*
X22437748Y-22489925D01*
X22413714Y-22494706D01*
X22391075Y-22504083D01*
X22370701Y-22517697D01*
X22353374Y-22535024D01*
X22339760Y-22555398D01*
X22334053Y-22566075D01*
X22324676Y-22588714D01*
X22319895Y-22612748D01*
X21880105Y-22612748D01*
X21880105Y-22612746D01*
X21875324Y-22588713D01*
X21865948Y-22566077D01*
X21855316Y-22546185D01*
X21851794Y-22534576D01*
X21850000Y-22516359D01*
X21850000Y-22093641D01*
X21851794Y-22075424D01*
X21855316Y-22063815D01*
X21861035Y-22053114D01*
X21868734Y-22043734D01*
X21878116Y-22036034D01*
X21879601Y-22035240D01*
X21899976Y-22021627D01*
X21917303Y-22004300D01*
X21930917Y-21983925D01*
X21940294Y-21961286D01*
X21945075Y-21937253D01*
X21945075Y-21912748D01*
X21945075Y-21912747D01*
X22254925Y-21912747D01*
X22254925Y-21937252D01*
X22259705Y-21961285D01*
X22269083Y-21983924D01*
X22282696Y-22004299D01*
X22300023Y-22021626D01*
X22320399Y-22035240D01*
X22321884Y-22036034D01*
X22331266Y-22043734D01*
X22338966Y-22053116D01*
X22339760Y-22054601D01*
X22353373Y-22074976D01*
X22370700Y-22092303D01*
X22391075Y-22105917D01*
X22413714Y-22115294D01*
X22437747Y-22120075D01*
X22462252Y-22120075D01*
X22486285Y-22115295D01*
X22508924Y-22105917D01*
X22529299Y-22092304D01*
X22546626Y-22074977D01*
X22560240Y-22054601D01*
X22561034Y-22053116D01*
X22568734Y-22043734D01*
X22578116Y-22036034D01*
X22579601Y-22035240D01*
X22599976Y-22021627D01*
X22617303Y-22004300D01*
X22630917Y-21983925D01*
X22640294Y-21961286D01*
X22645075Y-21937253D01*
X22645075Y-21912748D01*
X22640295Y-21888715D01*
X22630917Y-21866076D01*
X22617304Y-21845701D01*
X22599977Y-21828374D01*
X22579601Y-21814760D01*
X22578116Y-21813966D01*
X22568734Y-21806266D01*
X22561034Y-21796884D01*
X22560240Y-21795399D01*
X22546627Y-21775024D01*
X22529300Y-21757697D01*
X22508925Y-21744083D01*
X22486286Y-21734706D01*
X22462253Y-21729925D01*
X22437748Y-21729925D01*
X22413715Y-21734705D01*
X22391076Y-21744083D01*
X22370701Y-21757696D01*
X22353374Y-21775023D01*
X22339760Y-21795399D01*
X22338966Y-21796884D01*
X22331266Y-21806266D01*
X22321884Y-21813966D01*
X22320399Y-21814760D01*
X22300024Y-21828373D01*
X22282697Y-21845700D01*
X22269083Y-21866075D01*
X22259706Y-21888714D01*
X22254925Y-21912747D01*
X21945075Y-21912747D01*
X21940295Y-21888715D01*
X21930917Y-21866076D01*
X21917304Y-21845701D01*
X21899977Y-21828374D01*
X21879601Y-21814760D01*
X21878116Y-21813966D01*
X21868734Y-21806266D01*
X21861035Y-21796886D01*
X21855316Y-21786185D01*
X21851794Y-21774576D01*
X21850000Y-21756359D01*
X21850000Y-21333641D01*
X21851794Y-21315424D01*
X21855316Y-21303815D01*
X21865948Y-21283923D01*
X21875325Y-21261284D01*
X21880105Y-21237250D01*
X21880105Y-21212748D01*
X22319895Y-21212748D01*
X22319895Y-21237252D01*
X22324675Y-21261285D01*
X22334053Y-21283925D01*
X22339760Y-21294602D01*
X22353374Y-21314976D01*
X22370701Y-21332303D01*
X22391076Y-21345917D01*
X22413715Y-21355295D01*
X22437748Y-21360075D01*
X22462252Y-21360075D01*
X22486286Y-21355294D01*
X22508925Y-21345917D01*
X22529299Y-21332303D01*
X22546626Y-21314976D01*
X22560240Y-21294602D01*
X22565947Y-21283925D01*
X22575324Y-21261286D01*
X22580105Y-21237252D01*
X22580105Y-21212748D01*
X22575325Y-21188715D01*
X22565947Y-21166075D01*
X22560240Y-21155398D01*
X22546626Y-21135024D01*
X22529299Y-21117697D01*
X22508924Y-21104083D01*
X22486285Y-21094705D01*
X22462252Y-21089925D01*
X22437748Y-21089925D01*
X22413714Y-21094706D01*
X22391075Y-21104083D01*
X22370701Y-21117697D01*
X22353374Y-21135024D01*
X22339760Y-21155398D01*
X22334053Y-21166075D01*
X22324676Y-21188714D01*
X22319895Y-21212748D01*
X21880105Y-21212748D01*
X21880105Y-21212746D01*
X21875324Y-21188713D01*
X21865948Y-21166077D01*
X21855316Y-21146185D01*
X21851794Y-21134576D01*
X21850000Y-21116359D01*
X21850000Y-20693641D01*
X21851794Y-20675424D01*
X21855316Y-20663815D01*
X21861035Y-20653114D01*
X21868734Y-20643734D01*
X21878114Y-20636035D01*
X21888815Y-20630316D01*
X21900424Y-20626794D01*
X21918641Y-20625000D01*
X22281359Y-20625000D01*
X22299576Y-20626794D01*
X22299576Y-20626794D01*
G37*
G36*
X23643754Y-20755764D02*
X23671052Y-20767071D01*
X23695623Y-20783489D01*
X23711612Y-20799478D01*
X23730554Y-20815024D01*
X23752165Y-20826575D01*
X23775614Y-20833688D01*
X23800000Y-20836090D01*
X23824386Y-20833688D01*
X23847835Y-20826575D01*
X23869446Y-20815024D01*
X23888388Y-20799478D01*
X23904377Y-20783489D01*
X23928948Y-20767071D01*
X23956246Y-20755764D01*
X23985225Y-20750000D01*
X24014775Y-20750000D01*
X24043754Y-20755764D01*
X24071052Y-20767071D01*
X24095623Y-20783489D01*
X24111612Y-20799478D01*
X24130554Y-20815024D01*
X24152165Y-20826575D01*
X24175614Y-20833688D01*
X24200000Y-20836090D01*
X24224386Y-20833688D01*
X24247835Y-20826575D01*
X24269446Y-20815024D01*
X24288388Y-20799478D01*
X24304377Y-20783489D01*
X24328948Y-20767071D01*
X24356246Y-20755764D01*
X24385225Y-20750000D01*
X24414775Y-20750000D01*
X24443754Y-20755764D01*
X24471052Y-20767071D01*
X24495623Y-20783489D01*
X24511612Y-20799478D01*
X24530554Y-20815024D01*
X24552165Y-20826575D01*
X24575614Y-20833688D01*
X24600000Y-20836090D01*
X24624386Y-20833688D01*
X24647835Y-20826575D01*
X24669446Y-20815024D01*
X24688388Y-20799478D01*
X24704377Y-20783489D01*
X24728948Y-20767071D01*
X24756246Y-20755764D01*
X24785225Y-20750000D01*
X24814775Y-20750000D01*
X24843754Y-20755764D01*
X24871052Y-20767071D01*
X24895623Y-20783489D01*
X24911612Y-20799478D01*
X24930554Y-20815024D01*
X24952165Y-20826575D01*
X24975614Y-20833688D01*
X25000000Y-20836090D01*
X25024386Y-20833688D01*
X25047835Y-20826575D01*
X25069446Y-20815024D01*
X25088388Y-20799478D01*
X25104377Y-20783489D01*
X25128948Y-20767071D01*
X25156246Y-20755764D01*
X25185225Y-20750000D01*
X25214775Y-20750000D01*
X25243754Y-20755764D01*
X25271052Y-20767071D01*
X25295623Y-20783489D01*
X25316511Y-20804377D01*
X25332929Y-20828948D01*
X25344236Y-20856246D01*
X25350000Y-20885225D01*
X25350000Y-20914775D01*
X25344236Y-20943754D01*
X25332929Y-20971052D01*
X25316511Y-20995623D01*
X25300522Y-21011612D01*
X25284976Y-21030554D01*
X25273425Y-21052165D01*
X25266312Y-21075614D01*
X25263910Y-21100000D01*
X25266312Y-21124386D01*
X25273425Y-21147835D01*
X25284976Y-21169446D01*
X25300522Y-21188388D01*
X25316511Y-21204377D01*
X25332929Y-21228948D01*
X25344236Y-21256246D01*
X25350000Y-21285225D01*
X25350000Y-21314775D01*
X25344236Y-21343754D01*
X25332929Y-21371052D01*
X25316511Y-21395623D01*
X25300522Y-21411612D01*
X25284976Y-21430554D01*
X25273425Y-21452165D01*
X25266312Y-21475614D01*
X25263910Y-21500000D01*
X25266312Y-21524386D01*
X25273425Y-21547835D01*
X25284976Y-21569446D01*
X25300522Y-21588388D01*
X25316511Y-21604377D01*
X25332929Y-21628948D01*
X25344236Y-21656246D01*
X25350000Y-21685225D01*
X25350000Y-21714775D01*
X25344236Y-21743754D01*
X25332929Y-21771052D01*
X25316511Y-21795623D01*
X25300522Y-21811612D01*
X25284976Y-21830554D01*
X25273425Y-21852165D01*
X25266312Y-21875614D01*
X25263910Y-21900000D01*
X25266312Y-21924386D01*
X25273425Y-21947835D01*
X25284976Y-21969446D01*
X25300522Y-21988388D01*
X25316511Y-22004377D01*
X25332929Y-22028948D01*
X25344236Y-22056246D01*
X25350000Y-22085225D01*
X25350000Y-22114775D01*
X25344236Y-22143754D01*
X25332929Y-22171052D01*
X25316511Y-22195623D01*
X25300522Y-22211612D01*
X25284976Y-22230554D01*
X25273425Y-22252165D01*
X25266312Y-22275614D01*
X25263910Y-22300000D01*
X25266312Y-22324386D01*
X25273425Y-22347835D01*
X25284976Y-22369446D01*
X25300522Y-22388388D01*
X25316511Y-22404377D01*
X25332929Y-22428948D01*
X25344236Y-22456246D01*
X25350000Y-22485225D01*
X25350000Y-22514775D01*
X25344236Y-22543754D01*
X25332929Y-22571052D01*
X25316511Y-22595623D01*
X25300522Y-22611612D01*
X25284976Y-22630554D01*
X25273425Y-22652165D01*
X25266312Y-22675614D01*
X25263910Y-22700000D01*
X25266312Y-22724386D01*
X25273425Y-22747835D01*
X25284976Y-22769446D01*
X25300522Y-22788388D01*
X25316511Y-22804377D01*
X25332929Y-22828948D01*
X25344236Y-22856246D01*
X25350000Y-22885225D01*
X25350000Y-22914775D01*
X25344236Y-22943754D01*
X25332929Y-22971052D01*
X25316511Y-22995623D01*
X25295623Y-23016511D01*
X25271052Y-23032929D01*
X25243754Y-23044236D01*
X25214775Y-23050000D01*
X25185225Y-23050000D01*
X25156246Y-23044236D01*
X25128948Y-23032929D01*
X25104377Y-23016511D01*
X25088388Y-23000522D01*
X25069446Y-22984976D01*
X25047835Y-22973425D01*
X25024386Y-22966312D01*
X25000000Y-22963910D01*
X24975614Y-22966312D01*
X24952165Y-22973425D01*
X24930554Y-22984976D01*
X24911612Y-23000522D01*
X24895623Y-23016511D01*
X24871052Y-23032929D01*
X24843754Y-23044236D01*
X24814775Y-23050000D01*
X24785225Y-23050000D01*
X24756246Y-23044236D01*
X24728948Y-23032929D01*
X24704377Y-23016511D01*
X24688388Y-23000522D01*
X24669446Y-22984976D01*
X24647835Y-22973425D01*
X24624386Y-22966312D01*
X24600000Y-22963910D01*
X24575614Y-22966312D01*
X24552165Y-22973425D01*
X24530554Y-22984976D01*
X24511612Y-23000522D01*
X24495623Y-23016511D01*
X24471052Y-23032929D01*
X24443754Y-23044236D01*
X24414775Y-23050000D01*
X24385225Y-23050000D01*
X24356246Y-23044236D01*
X24328948Y-23032929D01*
X24304377Y-23016511D01*
X24288388Y-23000522D01*
X24269446Y-22984976D01*
X24247835Y-22973425D01*
X24224386Y-22966312D01*
X24200000Y-22963910D01*
X24175614Y-22966312D01*
X24152165Y-22973425D01*
X24130554Y-22984976D01*
X24111612Y-23000522D01*
X24095623Y-23016511D01*
X24071052Y-23032929D01*
X24043754Y-23044236D01*
X24014775Y-23050000D01*
X23985225Y-23050000D01*
X23956246Y-23044236D01*
X23928948Y-23032929D01*
X23904377Y-23016511D01*
X23888388Y-23000522D01*
X23869446Y-22984976D01*
X23847835Y-22973425D01*
X23824386Y-22966312D01*
X23800000Y-22963910D01*
X23775614Y-22966312D01*
X23752165Y-22973425D01*
X23730554Y-22984976D01*
X23711612Y-23000522D01*
X23695623Y-23016511D01*
X23671052Y-23032929D01*
X23643754Y-23044236D01*
X23614775Y-23050000D01*
X23585225Y-23050000D01*
X23556246Y-23044236D01*
X23528948Y-23032929D01*
X23504377Y-23016511D01*
X23483489Y-22995623D01*
X23467071Y-22971052D01*
X23455764Y-22943754D01*
X23450000Y-22914775D01*
X23450000Y-22885225D01*
X23455764Y-22856246D01*
X23467071Y-22828948D01*
X23483489Y-22804377D01*
X23499478Y-22788388D01*
X23515024Y-22769446D01*
X23526575Y-22747835D01*
X23533688Y-22724386D01*
X23536090Y-22700000D01*
X23663910Y-22700000D01*
X23666312Y-22724386D01*
X23673425Y-22747835D01*
X23684976Y-22769446D01*
X23700522Y-22788388D01*
X23711612Y-22799478D01*
X23730554Y-22815024D01*
X23752165Y-22826575D01*
X23775614Y-22833688D01*
X23800000Y-22836090D01*
X23824386Y-22833688D01*
X23847835Y-22826575D01*
X23869446Y-22815024D01*
X23888388Y-22799478D01*
X23899478Y-22788388D01*
X23915024Y-22769446D01*
X23926575Y-22747835D01*
X23933688Y-22724386D01*
X23936090Y-22700000D01*
X24063910Y-22700000D01*
X24066312Y-22724386D01*
X24073425Y-22747835D01*
X24084976Y-22769446D01*
X24100522Y-22788388D01*
X24111612Y-22799478D01*
X24130554Y-22815024D01*
X24152165Y-22826575D01*
X24175614Y-22833688D01*
X24200000Y-22836090D01*
X24224386Y-22833688D01*
X24247835Y-22826575D01*
X24269446Y-22815024D01*
X24288388Y-22799478D01*
X24299478Y-22788388D01*
X24315024Y-22769446D01*
X24326575Y-22747835D01*
X24333688Y-22724386D01*
X24336090Y-22700000D01*
X24463910Y-22700000D01*
X24466312Y-22724386D01*
X24473425Y-22747835D01*
X24484976Y-22769446D01*
X24500522Y-22788388D01*
X24511612Y-22799478D01*
X24530554Y-22815024D01*
X24552165Y-22826575D01*
X24575614Y-22833688D01*
X24600000Y-22836090D01*
X24624386Y-22833688D01*
X24647835Y-22826575D01*
X24669446Y-22815024D01*
X24688388Y-22799478D01*
X24699478Y-22788388D01*
X24715024Y-22769446D01*
X24726575Y-22747835D01*
X24733688Y-22724386D01*
X24736090Y-22700000D01*
X24863910Y-22700000D01*
X24866312Y-22724386D01*
X24873425Y-22747835D01*
X24884976Y-22769446D01*
X24900522Y-22788388D01*
X24911612Y-22799478D01*
X24930554Y-22815024D01*
X24952165Y-22826575D01*
X24975614Y-22833688D01*
X25000000Y-22836090D01*
X25024386Y-22833688D01*
X25047835Y-22826575D01*
X25069446Y-22815024D01*
X25088388Y-22799478D01*
X25099478Y-22788388D01*
X25115024Y-22769446D01*
X25126575Y-22747835D01*
X25133688Y-22724386D01*
X25136090Y-22700000D01*
X25133688Y-22675614D01*
X25126575Y-22652165D01*
X25115024Y-22630554D01*
X25099478Y-22611612D01*
X25088388Y-22600522D01*
X25069446Y-22584976D01*
X25047835Y-22573425D01*
X25024386Y-22566312D01*
X25000000Y-22563910D01*
X24975614Y-22566312D01*
X24952165Y-22573425D01*
X24930554Y-22584976D01*
X24911612Y-22600522D01*
X24900522Y-22611612D01*
X24884976Y-22630554D01*
X24873425Y-22652165D01*
X24866312Y-22675614D01*
X24863910Y-22700000D01*
X24736090Y-22700000D01*
X24733688Y-22675614D01*
X24726575Y-22652165D01*
X24715024Y-22630554D01*
X24699478Y-22611612D01*
X24688388Y-22600522D01*
X24669446Y-22584976D01*
X24647835Y-22573425D01*
X24624386Y-22566312D01*
X24600000Y-22563910D01*
X24575614Y-22566312D01*
X24552165Y-22573425D01*
X24530554Y-22584976D01*
X24511612Y-22600522D01*
X24500522Y-22611612D01*
X24484976Y-22630554D01*
X24473425Y-22652165D01*
X24466312Y-22675614D01*
X24463910Y-22700000D01*
X24336090Y-22700000D01*
X24333688Y-22675614D01*
X24326575Y-22652165D01*
X24315024Y-22630554D01*
X24299478Y-22611612D01*
X24288388Y-22600522D01*
X24269446Y-22584976D01*
X24247835Y-22573425D01*
X24224386Y-22566312D01*
X24200000Y-22563910D01*
X24175614Y-22566312D01*
X24152165Y-22573425D01*
X24130554Y-22584976D01*
X24111612Y-22600522D01*
X24100522Y-22611612D01*
X24084976Y-22630554D01*
X24073425Y-22652165D01*
X24066312Y-22675614D01*
X24063910Y-22700000D01*
X23936090Y-22700000D01*
X23933688Y-22675614D01*
X23926575Y-22652165D01*
X23915024Y-22630554D01*
X23899478Y-22611612D01*
X23888388Y-22600522D01*
X23869446Y-22584976D01*
X23847835Y-22573425D01*
X23824386Y-22566312D01*
X23800000Y-22563910D01*
X23775614Y-22566312D01*
X23752165Y-22573425D01*
X23730554Y-22584976D01*
X23711612Y-22600522D01*
X23700522Y-22611612D01*
X23684976Y-22630554D01*
X23673425Y-22652165D01*
X23666312Y-22675614D01*
X23663910Y-22700000D01*
X23536090Y-22700000D01*
X23533688Y-22675614D01*
X23526575Y-22652165D01*
X23515024Y-22630554D01*
X23499478Y-22611612D01*
X23483489Y-22595623D01*
X23467071Y-22571052D01*
X23455764Y-22543754D01*
X23450000Y-22514775D01*
X23450000Y-22485225D01*
X23455764Y-22456246D01*
X23467071Y-22428948D01*
X23483489Y-22404377D01*
X23499478Y-22388388D01*
X23515024Y-22369446D01*
X23526575Y-22347835D01*
X23533688Y-22324386D01*
X23536090Y-22300000D01*
X23663910Y-22300000D01*
X23666312Y-22324386D01*
X23673425Y-22347835D01*
X23684976Y-22369446D01*
X23700522Y-22388388D01*
X23711612Y-22399478D01*
X23730554Y-22415024D01*
X23752165Y-22426575D01*
X23775614Y-22433688D01*
X23800000Y-22436090D01*
X23824386Y-22433688D01*
X23847835Y-22426575D01*
X23869446Y-22415024D01*
X23888388Y-22399478D01*
X23899478Y-22388388D01*
X23915024Y-22369446D01*
X23926575Y-22347835D01*
X23933688Y-22324386D01*
X23936090Y-22300000D01*
X24063910Y-22300000D01*
X24066312Y-22324386D01*
X24073425Y-22347835D01*
X24084976Y-22369446D01*
X24100522Y-22388388D01*
X24111612Y-22399478D01*
X24130554Y-22415024D01*
X24152165Y-22426575D01*
X24175614Y-22433688D01*
X24200000Y-22436090D01*
X24224386Y-22433688D01*
X24247835Y-22426575D01*
X24269446Y-22415024D01*
X24288388Y-22399478D01*
X24299478Y-22388388D01*
X24315024Y-22369446D01*
X24326575Y-22347835D01*
X24333688Y-22324386D01*
X24336090Y-22300000D01*
X24463910Y-22300000D01*
X24466312Y-22324386D01*
X24473425Y-22347835D01*
X24484976Y-22369446D01*
X24500522Y-22388388D01*
X24511612Y-22399478D01*
X24530554Y-22415024D01*
X24552165Y-22426575D01*
X24575614Y-22433688D01*
X24600000Y-22436090D01*
X24624386Y-22433688D01*
X24647835Y-22426575D01*
X24669446Y-22415024D01*
X24688388Y-22399478D01*
X24699478Y-22388388D01*
X24715024Y-22369446D01*
X24726575Y-22347835D01*
X24733688Y-22324386D01*
X24736090Y-22300000D01*
X24863910Y-22300000D01*
X24866312Y-22324386D01*
X24873425Y-22347835D01*
X24884976Y-22369446D01*
X24900522Y-22388388D01*
X24911612Y-22399478D01*
X24930554Y-22415024D01*
X24952165Y-22426575D01*
X24975614Y-22433688D01*
X25000000Y-22436090D01*
X25024386Y-22433688D01*
X25047835Y-22426575D01*
X25069446Y-22415024D01*
X25088388Y-22399478D01*
X25099478Y-22388388D01*
X25115024Y-22369446D01*
X25126575Y-22347835D01*
X25133688Y-22324386D01*
X25136090Y-22300000D01*
X25133688Y-22275614D01*
X25126575Y-22252165D01*
X25115024Y-22230554D01*
X25099478Y-22211612D01*
X25088388Y-22200522D01*
X25069446Y-22184976D01*
X25047835Y-22173425D01*
X25024386Y-22166312D01*
X25000000Y-22163910D01*
X24975614Y-22166312D01*
X24952165Y-22173425D01*
X24930554Y-22184976D01*
X24911612Y-22200522D01*
X24900522Y-22211612D01*
X24884976Y-22230554D01*
X24873425Y-22252165D01*
X24866312Y-22275614D01*
X24863910Y-22300000D01*
X24736090Y-22300000D01*
X24733688Y-22275614D01*
X24726575Y-22252165D01*
X24715024Y-22230554D01*
X24699478Y-22211612D01*
X24688388Y-22200522D01*
X24669446Y-22184976D01*
X24647835Y-22173425D01*
X24624386Y-22166312D01*
X24600000Y-22163910D01*
X24575614Y-22166312D01*
X24552165Y-22173425D01*
X24530554Y-22184976D01*
X24511612Y-22200522D01*
X24500522Y-22211612D01*
X24484976Y-22230554D01*
X24473425Y-22252165D01*
X24466312Y-22275614D01*
X24463910Y-22300000D01*
X24336090Y-22300000D01*
X24333688Y-22275614D01*
X24326575Y-22252165D01*
X24315024Y-22230554D01*
X24299478Y-22211612D01*
X24288388Y-22200522D01*
X24269446Y-22184976D01*
X24247835Y-22173425D01*
X24224386Y-22166312D01*
X24200000Y-22163910D01*
X24175614Y-22166312D01*
X24152165Y-22173425D01*
X24130554Y-22184976D01*
X24111612Y-22200522D01*
X24100522Y-22211612D01*
X24084976Y-22230554D01*
X24073425Y-22252165D01*
X24066312Y-22275614D01*
X24063910Y-22300000D01*
X23936090Y-22300000D01*
X23933688Y-22275614D01*
X23926575Y-22252165D01*
X23915024Y-22230554D01*
X23899478Y-22211612D01*
X23888388Y-22200522D01*
X23869446Y-22184976D01*
X23847835Y-22173425D01*
X23824386Y-22166312D01*
X23800000Y-22163910D01*
X23775614Y-22166312D01*
X23752165Y-22173425D01*
X23730554Y-22184976D01*
X23711612Y-22200522D01*
X23700522Y-22211612D01*
X23684976Y-22230554D01*
X23673425Y-22252165D01*
X23666312Y-22275614D01*
X23663910Y-22300000D01*
X23536090Y-22300000D01*
X23533688Y-22275614D01*
X23526575Y-22252165D01*
X23515024Y-22230554D01*
X23499478Y-22211612D01*
X23483489Y-22195623D01*
X23467071Y-22171052D01*
X23455764Y-22143754D01*
X23450000Y-22114775D01*
X23450000Y-22085225D01*
X23455764Y-22056246D01*
X23467071Y-22028948D01*
X23483489Y-22004377D01*
X23499478Y-21988388D01*
X23515024Y-21969446D01*
X23526575Y-21947835D01*
X23533688Y-21924386D01*
X23536090Y-21900000D01*
X23663910Y-21900000D01*
X23666312Y-21924386D01*
X23673425Y-21947835D01*
X23684976Y-21969446D01*
X23700522Y-21988388D01*
X23711612Y-21999478D01*
X23730554Y-22015024D01*
X23752165Y-22026575D01*
X23775614Y-22033688D01*
X23800000Y-22036090D01*
X23824386Y-22033688D01*
X23847835Y-22026575D01*
X23869446Y-22015024D01*
X23888388Y-21999478D01*
X23899478Y-21988388D01*
X23915024Y-21969446D01*
X23926575Y-21947835D01*
X23933688Y-21924386D01*
X23936090Y-21900000D01*
X24063910Y-21900000D01*
X24066312Y-21924386D01*
X24073425Y-21947835D01*
X24084976Y-21969446D01*
X24100522Y-21988388D01*
X24111612Y-21999478D01*
X24130554Y-22015024D01*
X24152165Y-22026575D01*
X24175614Y-22033688D01*
X24200000Y-22036090D01*
X24224386Y-22033688D01*
X24247835Y-22026575D01*
X24269446Y-22015024D01*
X24288388Y-21999478D01*
X24299478Y-21988388D01*
X24315024Y-21969446D01*
X24326575Y-21947835D01*
X24333688Y-21924386D01*
X24336090Y-21900000D01*
X24463910Y-21900000D01*
X24466312Y-21924386D01*
X24473425Y-21947835D01*
X24484976Y-21969446D01*
X24500522Y-21988388D01*
X24511612Y-21999478D01*
X24530554Y-22015024D01*
X24552165Y-22026575D01*
X24575614Y-22033688D01*
X24600000Y-22036090D01*
X24624386Y-22033688D01*
X24647835Y-22026575D01*
X24669446Y-22015024D01*
X24688388Y-21999478D01*
X24699478Y-21988388D01*
X24715024Y-21969446D01*
X24726575Y-21947835D01*
X24733688Y-21924386D01*
X24736090Y-21900000D01*
X24863910Y-21900000D01*
X24866312Y-21924386D01*
X24873425Y-21947835D01*
X24884976Y-21969446D01*
X24900522Y-21988388D01*
X24911612Y-21999478D01*
X24930554Y-22015024D01*
X24952165Y-22026575D01*
X24975614Y-22033688D01*
X25000000Y-22036090D01*
X25024386Y-22033688D01*
X25047835Y-22026575D01*
X25069446Y-22015024D01*
X25088388Y-21999478D01*
X25099478Y-21988388D01*
X25115024Y-21969446D01*
X25126575Y-21947835D01*
X25133688Y-21924386D01*
X25136090Y-21900000D01*
X25133688Y-21875614D01*
X25126575Y-21852165D01*
X25115024Y-21830554D01*
X25099478Y-21811612D01*
X25088388Y-21800522D01*
X25069446Y-21784976D01*
X25047835Y-21773425D01*
X25024386Y-21766312D01*
X25000000Y-21763910D01*
X24975614Y-21766312D01*
X24952165Y-21773425D01*
X24930554Y-21784976D01*
X24911612Y-21800522D01*
X24900522Y-21811612D01*
X24884976Y-21830554D01*
X24873425Y-21852165D01*
X24866312Y-21875614D01*
X24863910Y-21900000D01*
X24736090Y-21900000D01*
X24733688Y-21875614D01*
X24726575Y-21852165D01*
X24715024Y-21830554D01*
X24699478Y-21811612D01*
X24688388Y-21800522D01*
X24669446Y-21784976D01*
X24647835Y-21773425D01*
X24624386Y-21766312D01*
X24600000Y-21763910D01*
X24575614Y-21766312D01*
X24552165Y-21773425D01*
X24530554Y-21784976D01*
X24511612Y-21800522D01*
X24500522Y-21811612D01*
X24484976Y-21830554D01*
X24473425Y-21852165D01*
X24466312Y-21875614D01*
X24463910Y-21900000D01*
X24336090Y-21900000D01*
X24333688Y-21875614D01*
X24326575Y-21852165D01*
X24315024Y-21830554D01*
X24299478Y-21811612D01*
X24288388Y-21800522D01*
X24269446Y-21784976D01*
X24247835Y-21773425D01*
X24224386Y-21766312D01*
X24200000Y-21763910D01*
X24175614Y-21766312D01*
X24152165Y-21773425D01*
X24130554Y-21784976D01*
X24111612Y-21800522D01*
X24100522Y-21811612D01*
X24084976Y-21830554D01*
X24073425Y-21852165D01*
X24066312Y-21875614D01*
X24063910Y-21900000D01*
X23936090Y-21900000D01*
X23933688Y-21875614D01*
X23926575Y-21852165D01*
X23915024Y-21830554D01*
X23899478Y-21811612D01*
X23888388Y-21800522D01*
X23869446Y-21784976D01*
X23847835Y-21773425D01*
X23824386Y-21766312D01*
X23800000Y-21763910D01*
X23775614Y-21766312D01*
X23752165Y-21773425D01*
X23730554Y-21784976D01*
X23711612Y-21800522D01*
X23700522Y-21811612D01*
X23684976Y-21830554D01*
X23673425Y-21852165D01*
X23666312Y-21875614D01*
X23663910Y-21900000D01*
X23536090Y-21900000D01*
X23533688Y-21875614D01*
X23526575Y-21852165D01*
X23515024Y-21830554D01*
X23499478Y-21811612D01*
X23483489Y-21795623D01*
X23467071Y-21771052D01*
X23455764Y-21743754D01*
X23450000Y-21714775D01*
X23450000Y-21685225D01*
X23455764Y-21656246D01*
X23467071Y-21628948D01*
X23483489Y-21604377D01*
X23499478Y-21588388D01*
X23515024Y-21569446D01*
X23526575Y-21547835D01*
X23533688Y-21524386D01*
X23536090Y-21500000D01*
X23663910Y-21500000D01*
X23666312Y-21524386D01*
X23673425Y-21547835D01*
X23684976Y-21569446D01*
X23700522Y-21588388D01*
X23711612Y-21599478D01*
X23730554Y-21615024D01*
X23752165Y-21626575D01*
X23775614Y-21633688D01*
X23800000Y-21636090D01*
X23824386Y-21633688D01*
X23847835Y-21626575D01*
X23869446Y-21615024D01*
X23888388Y-21599478D01*
X23899478Y-21588388D01*
X23915024Y-21569446D01*
X23926575Y-21547835D01*
X23933688Y-21524386D01*
X23936090Y-21500000D01*
X24063910Y-21500000D01*
X24066312Y-21524386D01*
X24073425Y-21547835D01*
X24084976Y-21569446D01*
X24100522Y-21588388D01*
X24111612Y-21599478D01*
X24130554Y-21615024D01*
X24152165Y-21626575D01*
X24175614Y-21633688D01*
X24200000Y-21636090D01*
X24224386Y-21633688D01*
X24247835Y-21626575D01*
X24269446Y-21615024D01*
X24288388Y-21599478D01*
X24299478Y-21588388D01*
X24315024Y-21569446D01*
X24326575Y-21547835D01*
X24333688Y-21524386D01*
X24336090Y-21500000D01*
X24463910Y-21500000D01*
X24466312Y-21524386D01*
X24473425Y-21547835D01*
X24484976Y-21569446D01*
X24500522Y-21588388D01*
X24511612Y-21599478D01*
X24530554Y-21615024D01*
X24552165Y-21626575D01*
X24575614Y-21633688D01*
X24600000Y-21636090D01*
X24624386Y-21633688D01*
X24647835Y-21626575D01*
X24669446Y-21615024D01*
X24688388Y-21599478D01*
X24699478Y-21588388D01*
X24715024Y-21569446D01*
X24726575Y-21547835D01*
X24733688Y-21524386D01*
X24736090Y-21500000D01*
X24863910Y-21500000D01*
X24866312Y-21524386D01*
X24873425Y-21547835D01*
X24884976Y-21569446D01*
X24900522Y-21588388D01*
X24911612Y-21599478D01*
X24930554Y-21615024D01*
X24952165Y-21626575D01*
X24975614Y-21633688D01*
X25000000Y-21636090D01*
X25024386Y-21633688D01*
X25047835Y-21626575D01*
X25069446Y-21615024D01*
X25088388Y-21599478D01*
X25099478Y-21588388D01*
X25115024Y-21569446D01*
X25126575Y-21547835D01*
X25133688Y-21524386D01*
X25136090Y-21500000D01*
X25133688Y-21475614D01*
X25126575Y-21452165D01*
X25115024Y-21430554D01*
X25099478Y-21411612D01*
X25088388Y-21400522D01*
X25069446Y-21384976D01*
X25047835Y-21373425D01*
X25024386Y-21366312D01*
X25000000Y-21363910D01*
X24975614Y-21366312D01*
X24952165Y-21373425D01*
X24930554Y-21384976D01*
X24911612Y-21400522D01*
X24900522Y-21411612D01*
X24884976Y-21430554D01*
X24873425Y-21452165D01*
X24866312Y-21475614D01*
X24863910Y-21500000D01*
X24736090Y-21500000D01*
X24733688Y-21475614D01*
X24726575Y-21452165D01*
X24715024Y-21430554D01*
X24699478Y-21411612D01*
X24688388Y-21400522D01*
X24669446Y-21384976D01*
X24647835Y-21373425D01*
X24624386Y-21366312D01*
X24600000Y-21363910D01*
X24575614Y-21366312D01*
X24552165Y-21373425D01*
X24530554Y-21384976D01*
X24511612Y-21400522D01*
X24500522Y-21411612D01*
X24484976Y-21430554D01*
X24473425Y-21452165D01*
X24466312Y-21475614D01*
X24463910Y-21500000D01*
X24336090Y-21500000D01*
X24333688Y-21475614D01*
X24326575Y-21452165D01*
X24315024Y-21430554D01*
X24299478Y-21411612D01*
X24288388Y-21400522D01*
X24269446Y-21384976D01*
X24247835Y-21373425D01*
X24224386Y-21366312D01*
X24200000Y-21363910D01*
X24175614Y-21366312D01*
X24152165Y-21373425D01*
X24130554Y-21384976D01*
X24111612Y-21400522D01*
X24100522Y-21411612D01*
X24084976Y-21430554D01*
X24073425Y-21452165D01*
X24066312Y-21475614D01*
X24063910Y-21500000D01*
X23936090Y-21500000D01*
X23933688Y-21475614D01*
X23926575Y-21452165D01*
X23915024Y-21430554D01*
X23899478Y-21411612D01*
X23888388Y-21400522D01*
X23869446Y-21384976D01*
X23847835Y-21373425D01*
X23824386Y-21366312D01*
X23800000Y-21363910D01*
X23775614Y-21366312D01*
X23752165Y-21373425D01*
X23730554Y-21384976D01*
X23711612Y-21400522D01*
X23700522Y-21411612D01*
X23684976Y-21430554D01*
X23673425Y-21452165D01*
X23666312Y-21475614D01*
X23663910Y-21500000D01*
X23536090Y-21500000D01*
X23533688Y-21475614D01*
X23526575Y-21452165D01*
X23515024Y-21430554D01*
X23499478Y-21411612D01*
X23483489Y-21395623D01*
X23467071Y-21371052D01*
X23455764Y-21343754D01*
X23450000Y-21314775D01*
X23450000Y-21285225D01*
X23455764Y-21256246D01*
X23467071Y-21228948D01*
X23483489Y-21204377D01*
X23499478Y-21188388D01*
X23515024Y-21169446D01*
X23526575Y-21147835D01*
X23533688Y-21124386D01*
X23536090Y-21100000D01*
X23663910Y-21100000D01*
X23666312Y-21124386D01*
X23673425Y-21147835D01*
X23684976Y-21169446D01*
X23700522Y-21188388D01*
X23711612Y-21199478D01*
X23730554Y-21215024D01*
X23752165Y-21226575D01*
X23775614Y-21233688D01*
X23800000Y-21236090D01*
X23824386Y-21233688D01*
X23847835Y-21226575D01*
X23869446Y-21215024D01*
X23888388Y-21199478D01*
X23899478Y-21188388D01*
X23915024Y-21169446D01*
X23926575Y-21147835D01*
X23933688Y-21124386D01*
X23936090Y-21100000D01*
X24063910Y-21100000D01*
X24066312Y-21124386D01*
X24073425Y-21147835D01*
X24084976Y-21169446D01*
X24100522Y-21188388D01*
X24111612Y-21199478D01*
X24130554Y-21215024D01*
X24152165Y-21226575D01*
X24175614Y-21233688D01*
X24200000Y-21236090D01*
X24224386Y-21233688D01*
X24247835Y-21226575D01*
X24269446Y-21215024D01*
X24288388Y-21199478D01*
X24299478Y-21188388D01*
X24315024Y-21169446D01*
X24326575Y-21147835D01*
X24333688Y-21124386D01*
X24336090Y-21100000D01*
X24463910Y-21100000D01*
X24466312Y-21124386D01*
X24473425Y-21147835D01*
X24484976Y-21169446D01*
X24500522Y-21188388D01*
X24511612Y-21199478D01*
X24530554Y-21215024D01*
X24552165Y-21226575D01*
X24575614Y-21233688D01*
X24600000Y-21236090D01*
X24624386Y-21233688D01*
X24647835Y-21226575D01*
X24669446Y-21215024D01*
X24688388Y-21199478D01*
X24699478Y-21188388D01*
X24715024Y-21169446D01*
X24726575Y-21147835D01*
X24733688Y-21124386D01*
X24736090Y-21100000D01*
X24863910Y-21100000D01*
X24866312Y-21124386D01*
X24873425Y-21147835D01*
X24884976Y-21169446D01*
X24900522Y-21188388D01*
X24911612Y-21199478D01*
X24930554Y-21215024D01*
X24952165Y-21226575D01*
X24975614Y-21233688D01*
X25000000Y-21236090D01*
X25024386Y-21233688D01*
X25047835Y-21226575D01*
X25069446Y-21215024D01*
X25088388Y-21199478D01*
X25099478Y-21188388D01*
X25115024Y-21169446D01*
X25126575Y-21147835D01*
X25133688Y-21124386D01*
X25136090Y-21100000D01*
X25133688Y-21075614D01*
X25126575Y-21052165D01*
X25115024Y-21030554D01*
X25099478Y-21011612D01*
X25088388Y-21000522D01*
X25069446Y-20984976D01*
X25047835Y-20973425D01*
X25024386Y-20966312D01*
X25000000Y-20963910D01*
X24975614Y-20966312D01*
X24952165Y-20973425D01*
X24930554Y-20984976D01*
X24911612Y-21000522D01*
X24900522Y-21011612D01*
X24884976Y-21030554D01*
X24873425Y-21052165D01*
X24866312Y-21075614D01*
X24863910Y-21100000D01*
X24736090Y-21100000D01*
X24733688Y-21075614D01*
X24726575Y-21052165D01*
X24715024Y-21030554D01*
X24699478Y-21011612D01*
X24688388Y-21000522D01*
X24669446Y-20984976D01*
X24647835Y-20973425D01*
X24624386Y-20966312D01*
X24600000Y-20963910D01*
X24575614Y-20966312D01*
X24552165Y-20973425D01*
X24530554Y-20984976D01*
X24511612Y-21000522D01*
X24500522Y-21011612D01*
X24484976Y-21030554D01*
X24473425Y-21052165D01*
X24466312Y-21075614D01*
X24463910Y-21100000D01*
X24336090Y-21100000D01*
X24333688Y-21075614D01*
X24326575Y-21052165D01*
X24315024Y-21030554D01*
X24299478Y-21011612D01*
X24288388Y-21000522D01*
X24269446Y-20984976D01*
X24247835Y-20973425D01*
X24224386Y-20966312D01*
X24200000Y-20963910D01*
X24175614Y-20966312D01*
X24152165Y-20973425D01*
X24130554Y-20984976D01*
X24111612Y-21000522D01*
X24100522Y-21011612D01*
X24084976Y-21030554D01*
X24073425Y-21052165D01*
X24066312Y-21075614D01*
X24063910Y-21100000D01*
X23936090Y-21100000D01*
X23933688Y-21075614D01*
X23926575Y-21052165D01*
X23915024Y-21030554D01*
X23899478Y-21011612D01*
X23888388Y-21000522D01*
X23869446Y-20984976D01*
X23847835Y-20973425D01*
X23824386Y-20966312D01*
X23800000Y-20963910D01*
X23775614Y-20966312D01*
X23752165Y-20973425D01*
X23730554Y-20984976D01*
X23711612Y-21000522D01*
X23700522Y-21011612D01*
X23684976Y-21030554D01*
X23673425Y-21052165D01*
X23666312Y-21075614D01*
X23663910Y-21100000D01*
X23536090Y-21100000D01*
X23533688Y-21075614D01*
X23526575Y-21052165D01*
X23515024Y-21030554D01*
X23499478Y-21011612D01*
X23483489Y-20995623D01*
X23467071Y-20971052D01*
X23455764Y-20943754D01*
X23450000Y-20914775D01*
X23450000Y-20885225D01*
X23455764Y-20856246D01*
X23467071Y-20828948D01*
X23483489Y-20804377D01*
X23504377Y-20783489D01*
X23528948Y-20767071D01*
X23556246Y-20755764D01*
X23585225Y-20750000D01*
X23614775Y-20750000D01*
X23643754Y-20755764D01*
X23643754Y-20755764D01*
G37*
G36*
X27020000Y-22430000D02*
X25920000Y-22430000D01*
X25920000Y-21330000D01*
X27020000Y-21330000D01*
X27020000Y-22430000D01*
X27020000Y-22430000D01*
G37*
G36*
X21137231Y-20634515D02*
X21166676Y-20640372D01*
X21239468Y-20670523D01*
X21239471Y-20670525D01*
X21286824Y-20702165D01*
X21304989Y-20714303D01*
X21360697Y-20770011D01*
X21360699Y-20770014D01*
X21360700Y-20770015D01*
X21383660Y-20804377D01*
X21404477Y-20835532D01*
X21430473Y-20898292D01*
X21434628Y-20908324D01*
X21450000Y-20985603D01*
X21450000Y-21064397D01*
X21439664Y-21116359D01*
X21434628Y-21141676D01*
X21404477Y-21214468D01*
X21404475Y-21214471D01*
X21369108Y-21267402D01*
X21360697Y-21279989D01*
X21304989Y-21335697D01*
X21304986Y-21335699D01*
X21304985Y-21335700D01*
X21275660Y-21355294D01*
X21239468Y-21379477D01*
X21188660Y-21400522D01*
X21166676Y-21409628D01*
X21089397Y-21425000D01*
X21010603Y-21425000D01*
X20933324Y-21409628D01*
X20911340Y-21400522D01*
X20860532Y-21379477D01*
X20839785Y-21365614D01*
X20795015Y-21335700D01*
X20795014Y-21335699D01*
X20794447Y-21335320D01*
X20772836Y-21323769D01*
X20749387Y-21316656D01*
X20737314Y-21315467D01*
X20737360Y-21315000D01*
X20734958Y-21290614D01*
X20727845Y-21267165D01*
X20716293Y-21245553D01*
X20695525Y-21214471D01*
X20665372Y-21141676D01*
X20660336Y-21116359D01*
X20650000Y-21064397D01*
X20650000Y-20985603D01*
X20665372Y-20908324D01*
X20669527Y-20898292D01*
X20695523Y-20835532D01*
X20716340Y-20804377D01*
X20739300Y-20770015D01*
X20739301Y-20770014D01*
X20739303Y-20770011D01*
X20795011Y-20714303D01*
X20813177Y-20702165D01*
X20860529Y-20670525D01*
X20860532Y-20670523D01*
X20933324Y-20640372D01*
X20962769Y-20634515D01*
X21010603Y-20625000D01*
X21089397Y-20625000D01*
X21137231Y-20634515D01*
X21137231Y-20634515D01*
G37*
G36*
X17698844Y-20561825D02*
X17716676Y-20565372D01*
X17789468Y-20595523D01*
X17789471Y-20595525D01*
X17850099Y-20636035D01*
X17854989Y-20639303D01*
X17910697Y-20695011D01*
X17910699Y-20695014D01*
X17910700Y-20695015D01*
X17940758Y-20740000D01*
X17954477Y-20760532D01*
X17984628Y-20833324D01*
X18002402Y-20922679D01*
X18009515Y-20946128D01*
X18011585Y-20950000D01*
X18009515Y-20953873D01*
X18002402Y-20977321D01*
X18000000Y-20989396D01*
X18000000Y-20989397D01*
X17997787Y-21000522D01*
X17984628Y-21066676D01*
X17954477Y-21139468D01*
X17954475Y-21139471D01*
X17914380Y-21199478D01*
X17910697Y-21204989D01*
X17854989Y-21260697D01*
X17854986Y-21260699D01*
X17854985Y-21260700D01*
X17818279Y-21285226D01*
X17789468Y-21304477D01*
X17742892Y-21323769D01*
X17716676Y-21334628D01*
X17678786Y-21342165D01*
X17627321Y-21352402D01*
X17603872Y-21359515D01*
X17600000Y-21361585D01*
X17596127Y-21359515D01*
X17572679Y-21352402D01*
X17521215Y-21342165D01*
X17483324Y-21334628D01*
X17457108Y-21323769D01*
X17410532Y-21304477D01*
X17381721Y-21285226D01*
X17345015Y-21260700D01*
X17345014Y-21260699D01*
X17345011Y-21260697D01*
X17289303Y-21204989D01*
X17285621Y-21199478D01*
X17245525Y-21139471D01*
X17245523Y-21139468D01*
X17215372Y-21066676D01*
X17202213Y-21000522D01*
X17200000Y-20989397D01*
X17200000Y-20910603D01*
X17215372Y-20833324D01*
X17217185Y-20828948D01*
X17245523Y-20760532D01*
X17259242Y-20740000D01*
X17289300Y-20695015D01*
X17289301Y-20695014D01*
X17289303Y-20695011D01*
X17345011Y-20639303D01*
X17349902Y-20636035D01*
X17410529Y-20595525D01*
X17410532Y-20595523D01*
X17483324Y-20565372D01*
X17501156Y-20561825D01*
X17560603Y-20550000D01*
X17639397Y-20550000D01*
X17698844Y-20561825D01*
X17698844Y-20561825D01*
G37*
G36*
X19448844Y-20561825D02*
X19466676Y-20565372D01*
X19539468Y-20595523D01*
X19539471Y-20595525D01*
X19600099Y-20636035D01*
X19604989Y-20639303D01*
X19660697Y-20695011D01*
X19660699Y-20695014D01*
X19660700Y-20695015D01*
X19690758Y-20740000D01*
X19704477Y-20760532D01*
X19732815Y-20828948D01*
X19734628Y-20833324D01*
X19750000Y-20910603D01*
X19750000Y-20989397D01*
X19747787Y-21000522D01*
X19734628Y-21066676D01*
X19704477Y-21139468D01*
X19704475Y-21139471D01*
X19664380Y-21199478D01*
X19660697Y-21204989D01*
X19604989Y-21260697D01*
X19604986Y-21260699D01*
X19604985Y-21260700D01*
X19568279Y-21285226D01*
X19539468Y-21304477D01*
X19492892Y-21323769D01*
X19466676Y-21334628D01*
X19389397Y-21350000D01*
X19310603Y-21350000D01*
X19233324Y-21334628D01*
X19207108Y-21323769D01*
X19160532Y-21304477D01*
X19131721Y-21285226D01*
X19095015Y-21260700D01*
X19095014Y-21260699D01*
X19095011Y-21260697D01*
X19039303Y-21204989D01*
X19035621Y-21199478D01*
X18995525Y-21139471D01*
X18995523Y-21139468D01*
X18965372Y-21066676D01*
X18952213Y-21000522D01*
X18950000Y-20989397D01*
X18950000Y-20910603D01*
X18965372Y-20833324D01*
X18967185Y-20828948D01*
X18995523Y-20760532D01*
X19009242Y-20740000D01*
X19039300Y-20695015D01*
X19039301Y-20695014D01*
X19039303Y-20695011D01*
X19095011Y-20639303D01*
X19099902Y-20636035D01*
X19160529Y-20595525D01*
X19160532Y-20595523D01*
X19233324Y-20565372D01*
X19251156Y-20561825D01*
X19310603Y-20550000D01*
X19389397Y-20550000D01*
X19448844Y-20561825D01*
X19448844Y-20561825D01*
G37*
G36*
X30125000Y-21075000D02*
X28275000Y-21075000D01*
X28275000Y-16725000D01*
X30125000Y-16725000D01*
X30125000Y-21075000D01*
X30125000Y-21075000D01*
G37*
G36*
X24166676Y-18530372D02*
X24239468Y-18560523D01*
X24239471Y-18560525D01*
X24298550Y-18600000D01*
X24304989Y-18604303D01*
X24360697Y-18660011D01*
X24360699Y-18660014D01*
X24360700Y-18660015D01*
X24384086Y-18695015D01*
X24404477Y-18725532D01*
X24436252Y-18802245D01*
X24440911Y-18817605D01*
X24452462Y-18839216D01*
X24468007Y-18858158D01*
X24486948Y-18873704D01*
X24508559Y-18885256D01*
X24532008Y-18892370D01*
X24556394Y-18894772D01*
X24580780Y-18892371D01*
X24604230Y-18885258D01*
X24625841Y-18873707D01*
X24644783Y-18858162D01*
X24660329Y-18839221D01*
X24671882Y-18817607D01*
X24695523Y-18760532D01*
X24716294Y-18729446D01*
X24739300Y-18695015D01*
X24739301Y-18695014D01*
X24739303Y-18695011D01*
X24795011Y-18639303D01*
X24808934Y-18630000D01*
X24860529Y-18595525D01*
X24860532Y-18595523D01*
X24933324Y-18565372D01*
X24957701Y-18560523D01*
X25010603Y-18550000D01*
X25089397Y-18550000D01*
X25142299Y-18560523D01*
X25166676Y-18565372D01*
X25239468Y-18595523D01*
X25239471Y-18595525D01*
X25291067Y-18630000D01*
X25304989Y-18639303D01*
X25360697Y-18695011D01*
X25360699Y-18695014D01*
X25360700Y-18695015D01*
X25383706Y-18729446D01*
X25404477Y-18760532D01*
X25404515Y-18760624D01*
X25416066Y-18782235D01*
X25431611Y-18801177D01*
X25450553Y-18816723D01*
X25472164Y-18828274D01*
X25495613Y-18835387D01*
X25520000Y-18837789D01*
X25544386Y-18835387D01*
X25567835Y-18828274D01*
X25573960Y-18825000D01*
X26355000Y-18825000D01*
X26355000Y-19250000D01*
X26357402Y-19274386D01*
X26364515Y-19297835D01*
X26376066Y-19319446D01*
X26391612Y-19338388D01*
X26410554Y-19353934D01*
X26432165Y-19365485D01*
X26455614Y-19372598D01*
X26480000Y-19375000D01*
X26831359Y-19375000D01*
X26849576Y-19376794D01*
X26861185Y-19380316D01*
X26871886Y-19386035D01*
X26881266Y-19393734D01*
X26888965Y-19403114D01*
X26894684Y-19413815D01*
X26898206Y-19425424D01*
X26900000Y-19443641D01*
X26900000Y-19806359D01*
X26898206Y-19824576D01*
X26894684Y-19836185D01*
X26888965Y-19846886D01*
X26881265Y-19856268D01*
X26878700Y-19858373D01*
X26861373Y-19875700D01*
X26847759Y-19896075D01*
X26838382Y-19918714D01*
X26833601Y-19942747D01*
X26833601Y-19967252D01*
X26838381Y-19991285D01*
X26847759Y-20013924D01*
X26861372Y-20034299D01*
X26878699Y-20051626D01*
X26899074Y-20065240D01*
X26921713Y-20074617D01*
X26945746Y-20079398D01*
X26957999Y-20080000D01*
X27450000Y-20080000D01*
X27450000Y-20790000D01*
X27050000Y-20790000D01*
X27050000Y-20677310D01*
X27047598Y-20652924D01*
X27040485Y-20629475D01*
X27028934Y-20607864D01*
X27013388Y-20588922D01*
X26994446Y-20573376D01*
X26972835Y-20561825D01*
X26949386Y-20554712D01*
X26925000Y-20552310D01*
X26900614Y-20554712D01*
X26877165Y-20561825D01*
X26866075Y-20567070D01*
X26861184Y-20569684D01*
X26849576Y-20573206D01*
X26831359Y-20575000D01*
X26408641Y-20575000D01*
X26390424Y-20573206D01*
X26378815Y-20569684D01*
X26358923Y-20559052D01*
X26336284Y-20549675D01*
X26312250Y-20544895D01*
X26287746Y-20544895D01*
X26263713Y-20549676D01*
X26241077Y-20559052D01*
X26221185Y-20569684D01*
X26209576Y-20573206D01*
X26191359Y-20575000D01*
X25768641Y-20575000D01*
X25750424Y-20573206D01*
X25738815Y-20569684D01*
X25728114Y-20563965D01*
X25718734Y-20556266D01*
X25711035Y-20546886D01*
X25705316Y-20536185D01*
X25701794Y-20524576D01*
X25700000Y-20506359D01*
X25700000Y-20143641D01*
X25701794Y-20125424D01*
X25705316Y-20113815D01*
X25711035Y-20103114D01*
X25718734Y-20093734D01*
X25728116Y-20086034D01*
X25729601Y-20085240D01*
X25749976Y-20071627D01*
X25767303Y-20054300D01*
X25780917Y-20033925D01*
X25790294Y-20011286D01*
X25795075Y-19987253D01*
X25795075Y-19962748D01*
X26164925Y-19962748D01*
X26164925Y-19987252D01*
X26169706Y-20011286D01*
X26179083Y-20033925D01*
X26192697Y-20054299D01*
X26210024Y-20071626D01*
X26230398Y-20085240D01*
X26241075Y-20090947D01*
X26263714Y-20100324D01*
X26287748Y-20105105D01*
X26312252Y-20105105D01*
X26336285Y-20100325D01*
X26358925Y-20090947D01*
X26369602Y-20085240D01*
X26389976Y-20071626D01*
X26407303Y-20054299D01*
X26420917Y-20033924D01*
X26430295Y-20011285D01*
X26435075Y-19987252D01*
X26435075Y-19962748D01*
X26430294Y-19938714D01*
X26420917Y-19916075D01*
X26407303Y-19895701D01*
X26389976Y-19878374D01*
X26369602Y-19864760D01*
X26358925Y-19859053D01*
X26336286Y-19849676D01*
X26312252Y-19844895D01*
X26287748Y-19844895D01*
X26263715Y-19849675D01*
X26241075Y-19859053D01*
X26230398Y-19864760D01*
X26210024Y-19878374D01*
X26192697Y-19895701D01*
X26179083Y-19916076D01*
X26169705Y-19938715D01*
X26164925Y-19962748D01*
X25795075Y-19962748D01*
X25790295Y-19938715D01*
X25780917Y-19916076D01*
X25767304Y-19895701D01*
X25749977Y-19878374D01*
X25729601Y-19864760D01*
X25728116Y-19863966D01*
X25718734Y-19856266D01*
X25711035Y-19846886D01*
X25705316Y-19836185D01*
X25701794Y-19824576D01*
X25700000Y-19806359D01*
X25700000Y-19443641D01*
X25701794Y-19425424D01*
X25705316Y-19413816D01*
X25707930Y-19408925D01*
X25717307Y-19386286D01*
X25722088Y-19362252D01*
X25722088Y-19337748D01*
X25717308Y-19313715D01*
X25707930Y-19291076D01*
X25694317Y-19270701D01*
X25676989Y-19253374D01*
X25656615Y-19239760D01*
X25645000Y-19234949D01*
X25645000Y-19187211D01*
X25642598Y-19162825D01*
X25635485Y-19139376D01*
X25623934Y-19117765D01*
X25608388Y-19098823D01*
X25589446Y-19083277D01*
X25567835Y-19071726D01*
X25544386Y-19064613D01*
X25520000Y-19062211D01*
X25495614Y-19064613D01*
X25472165Y-19071726D01*
X25450554Y-19083277D01*
X25431612Y-19098823D01*
X25416066Y-19117765D01*
X25404515Y-19139376D01*
X25404477Y-19139468D01*
X25404475Y-19139471D01*
X25382630Y-19172165D01*
X25360697Y-19204989D01*
X25304989Y-19260697D01*
X25304986Y-19260699D01*
X25304985Y-19260700D01*
X25290017Y-19270701D01*
X25239468Y-19304477D01*
X25166676Y-19334628D01*
X25147774Y-19338388D01*
X25077321Y-19352402D01*
X25053872Y-19359515D01*
X25050000Y-19361585D01*
X25046127Y-19359515D01*
X25022679Y-19352402D01*
X24952227Y-19338388D01*
X24933324Y-19334628D01*
X24860532Y-19304477D01*
X24809983Y-19270701D01*
X24795015Y-19260700D01*
X24795014Y-19260699D01*
X24795011Y-19260697D01*
X24739303Y-19204989D01*
X24717371Y-19172165D01*
X24695525Y-19139471D01*
X24695523Y-19139468D01*
X24663748Y-19062755D01*
X24659089Y-19047395D01*
X24647538Y-19025784D01*
X24631993Y-19006842D01*
X24613052Y-18991296D01*
X24591441Y-18979744D01*
X24567992Y-18972630D01*
X24543606Y-18970228D01*
X24519220Y-18972629D01*
X24495770Y-18979742D01*
X24474159Y-18991293D01*
X24455217Y-19006838D01*
X24439671Y-19025779D01*
X24428118Y-19047393D01*
X24404477Y-19104468D01*
X24404475Y-19104471D01*
X24374962Y-19148641D01*
X24360697Y-19169989D01*
X24304989Y-19225697D01*
X24304986Y-19225699D01*
X24304985Y-19225700D01*
X24268617Y-19250000D01*
X24239468Y-19269477D01*
X24171005Y-19297835D01*
X24166676Y-19299628D01*
X24089397Y-19315000D01*
X24010603Y-19315000D01*
X23933324Y-19299628D01*
X23928995Y-19297835D01*
X23860532Y-19269477D01*
X23831383Y-19250000D01*
X23795015Y-19225700D01*
X23795014Y-19225699D01*
X23795011Y-19225697D01*
X23739303Y-19169989D01*
X23725039Y-19148641D01*
X23695525Y-19104471D01*
X23695523Y-19104468D01*
X23665372Y-19031676D01*
X23650000Y-18954396D01*
X23650000Y-18875604D01*
X23659415Y-18828274D01*
X23665372Y-18798324D01*
X23670891Y-18785000D01*
X23695523Y-18725532D01*
X23715914Y-18695015D01*
X23739300Y-18660015D01*
X23739301Y-18660014D01*
X23739303Y-18660011D01*
X23795011Y-18604303D01*
X23801451Y-18600000D01*
X23860529Y-18560525D01*
X23860532Y-18560523D01*
X23933324Y-18530372D01*
X24010603Y-18515000D01*
X24089397Y-18515000D01*
X24166676Y-18530372D01*
X24166676Y-18530372D01*
G37*
G36*
X25053873Y-19590485D02*
X25077321Y-19597598D01*
X25089397Y-19600000D01*
X25166676Y-19615372D01*
X25239468Y-19645523D01*
X25239471Y-19645525D01*
X25250057Y-19652598D01*
X25304989Y-19689303D01*
X25360697Y-19745011D01*
X25360699Y-19745014D01*
X25360700Y-19745015D01*
X25380325Y-19774386D01*
X25404477Y-19810532D01*
X25427239Y-19865485D01*
X25434628Y-19883324D01*
X25450000Y-19960603D01*
X25450000Y-20039397D01*
X25438728Y-20096066D01*
X25434628Y-20116676D01*
X25404477Y-20189468D01*
X25404475Y-20189471D01*
X25362771Y-20251886D01*
X25360697Y-20254989D01*
X25304989Y-20310697D01*
X25239468Y-20354477D01*
X25166676Y-20384628D01*
X25089397Y-20400000D01*
X25010603Y-20400000D01*
X24933324Y-20384628D01*
X24860532Y-20354477D01*
X24795011Y-20310697D01*
X24739303Y-20254989D01*
X24737230Y-20251886D01*
X24695525Y-20189471D01*
X24695523Y-20189468D01*
X24665372Y-20116676D01*
X24661272Y-20096066D01*
X24650000Y-20039397D01*
X24650000Y-19960603D01*
X24665372Y-19883324D01*
X24672761Y-19865485D01*
X24695523Y-19810532D01*
X24719675Y-19774386D01*
X24739300Y-19745015D01*
X24739301Y-19745014D01*
X24739303Y-19745011D01*
X24795011Y-19689303D01*
X24849944Y-19652598D01*
X24860529Y-19645525D01*
X24860532Y-19645523D01*
X24933324Y-19615372D01*
X25010603Y-19600000D01*
X25022679Y-19597598D01*
X25046128Y-19590485D01*
X25050000Y-19588415D01*
X25053873Y-19590485D01*
X25053873Y-19590485D01*
G37*
G36*
X24066676Y-19615372D02*
X24139468Y-19645523D01*
X24139471Y-19645525D01*
X24150057Y-19652598D01*
X24204989Y-19689303D01*
X24260697Y-19745011D01*
X24260699Y-19745014D01*
X24260700Y-19745015D01*
X24280325Y-19774386D01*
X24304477Y-19810532D01*
X24327239Y-19865485D01*
X24334628Y-19883324D01*
X24350000Y-19960603D01*
X24350000Y-20039397D01*
X24338728Y-20096066D01*
X24334628Y-20116676D01*
X24304477Y-20189468D01*
X24304475Y-20189471D01*
X24262771Y-20251886D01*
X24260697Y-20254989D01*
X24204989Y-20310697D01*
X24139468Y-20354477D01*
X24066676Y-20384628D01*
X23989397Y-20400000D01*
X23910603Y-20400000D01*
X23833324Y-20384628D01*
X23760532Y-20354477D01*
X23695011Y-20310697D01*
X23639303Y-20254989D01*
X23637230Y-20251886D01*
X23595525Y-20189471D01*
X23595523Y-20189468D01*
X23565372Y-20116676D01*
X23561272Y-20096066D01*
X23550000Y-20039397D01*
X23550000Y-19960603D01*
X23565372Y-19883324D01*
X23572761Y-19865485D01*
X23595523Y-19810532D01*
X23619675Y-19774386D01*
X23639300Y-19745015D01*
X23639301Y-19745014D01*
X23639303Y-19745011D01*
X23695011Y-19689303D01*
X23749944Y-19652598D01*
X23760529Y-19645525D01*
X23760532Y-19645523D01*
X23833324Y-19615372D01*
X23910603Y-19600000D01*
X23989397Y-19600000D01*
X24066676Y-19615372D01*
X24066676Y-19615372D01*
G37*
G36*
X17939576Y-19096794D02*
X17951185Y-19100316D01*
X17961886Y-19106035D01*
X17971266Y-19113734D01*
X17978965Y-19123114D01*
X17984684Y-19133815D01*
X17988206Y-19145424D01*
X17990000Y-19163641D01*
X17990000Y-19586359D01*
X17988206Y-19604576D01*
X17984684Y-19616185D01*
X17974052Y-19636077D01*
X17964675Y-19658716D01*
X17959895Y-19682750D01*
X17959895Y-19707254D01*
X17964676Y-19731287D01*
X17974052Y-19753923D01*
X17984684Y-19773815D01*
X17988206Y-19785424D01*
X17990000Y-19803641D01*
X17990000Y-20226359D01*
X17988206Y-20244576D01*
X17984684Y-20256185D01*
X17978965Y-20266886D01*
X17971266Y-20276266D01*
X17961886Y-20283965D01*
X17951185Y-20289684D01*
X17939576Y-20293206D01*
X17921359Y-20295000D01*
X17558641Y-20295000D01*
X17540424Y-20293206D01*
X17528815Y-20289684D01*
X17518114Y-20283965D01*
X17508734Y-20276266D01*
X17501035Y-20266886D01*
X17495316Y-20256185D01*
X17491794Y-20244576D01*
X17490000Y-20226359D01*
X17490000Y-19803641D01*
X17491794Y-19785424D01*
X17495316Y-19773815D01*
X17505948Y-19753923D01*
X17515325Y-19731284D01*
X17520105Y-19707250D01*
X17520105Y-19682746D01*
X17515324Y-19658713D01*
X17505948Y-19636077D01*
X17495316Y-19616185D01*
X17491794Y-19604576D01*
X17490000Y-19586359D01*
X17490000Y-19163641D01*
X17491794Y-19145424D01*
X17495316Y-19133815D01*
X17501035Y-19123114D01*
X17508734Y-19113734D01*
X17518114Y-19106035D01*
X17528815Y-19100316D01*
X17540424Y-19096794D01*
X17558641Y-19095000D01*
X17921359Y-19095000D01*
X17939576Y-19096794D01*
X17939576Y-19096794D01*
G37*
G36*
X23225000Y-20290000D02*
X22325000Y-20290000D01*
X22325000Y-19290000D01*
X23225000Y-19290000D01*
X23225000Y-20290000D01*
X23225000Y-20290000D01*
G37*
G36*
X21775000Y-20290000D02*
X20875000Y-20290000D01*
X20875000Y-19290000D01*
X21775000Y-19290000D01*
X21775000Y-20290000D01*
X21775000Y-20290000D01*
G37*
G36*
X20459576Y-19081794D02*
X20471185Y-19085316D01*
X20481886Y-19091035D01*
X20491266Y-19098734D01*
X20498965Y-19108114D01*
X20504684Y-19118815D01*
X20508206Y-19130424D01*
X20510000Y-19148641D01*
X20510000Y-19571359D01*
X20508206Y-19589576D01*
X20504684Y-19601185D01*
X20494052Y-19621077D01*
X20484675Y-19643716D01*
X20479895Y-19667750D01*
X20479895Y-19692254D01*
X20484676Y-19716287D01*
X20494052Y-19738923D01*
X20504684Y-19758815D01*
X20508206Y-19770424D01*
X20510000Y-19788641D01*
X20510000Y-20211359D01*
X20508206Y-20229576D01*
X20504684Y-20241185D01*
X20498965Y-20251886D01*
X20491266Y-20261266D01*
X20481886Y-20268965D01*
X20471185Y-20274684D01*
X20459576Y-20278206D01*
X20441359Y-20280000D01*
X20078641Y-20280000D01*
X20060424Y-20278206D01*
X20048815Y-20274684D01*
X20038114Y-20268965D01*
X20028734Y-20261266D01*
X20021035Y-20251886D01*
X20015316Y-20241185D01*
X20011794Y-20229576D01*
X20010000Y-20211359D01*
X20010000Y-19788641D01*
X20011794Y-19770424D01*
X20015316Y-19758815D01*
X20025948Y-19738923D01*
X20035325Y-19716284D01*
X20040105Y-19692250D01*
X20040105Y-19667746D01*
X20035324Y-19643713D01*
X20025948Y-19621077D01*
X20015316Y-19601185D01*
X20011794Y-19589576D01*
X20010000Y-19571359D01*
X20010000Y-19148641D01*
X20011794Y-19130424D01*
X20015316Y-19118815D01*
X20021035Y-19108114D01*
X20028734Y-19098734D01*
X20038114Y-19091035D01*
X20048815Y-19085316D01*
X20060424Y-19081794D01*
X20078641Y-19080000D01*
X20441359Y-19080000D01*
X20459576Y-19081794D01*
X20459576Y-19081794D01*
G37*
G36*
X19610000Y-20130000D02*
X19250000Y-20130000D01*
X19250000Y-20100000D01*
X19430000Y-19920000D01*
X19610000Y-19920000D01*
X19610000Y-20130000D01*
X19610000Y-20130000D01*
G37*
G36*
X18750000Y-20100000D02*
X18750000Y-20130000D01*
X18390000Y-20130000D01*
X18390000Y-19920000D01*
X18570000Y-19920000D01*
X18750000Y-20100000D01*
X18750000Y-20100000D01*
G37*
G36*
X19339412Y-19700000D02*
X19000000Y-20039412D01*
X18660588Y-19700000D01*
X19000000Y-19360588D01*
X19339412Y-19700000D01*
X19339412Y-19700000D01*
G37*
G36*
X18750000Y-19300000D02*
X18570000Y-19480000D01*
X18390000Y-19480000D01*
X18390000Y-19270000D01*
X18750000Y-19270000D01*
X18750000Y-19300000D01*
X18750000Y-19300000D01*
G37*
G36*
X19610000Y-19480000D02*
X19430000Y-19480000D01*
X19250000Y-19300000D01*
X19250000Y-19270000D01*
X19610000Y-19270000D01*
X19610000Y-19480000D01*
X19610000Y-19480000D01*
G37*
G36*
X20459576Y-17606794D02*
X20471185Y-17610316D01*
X20481886Y-17616035D01*
X20491266Y-17623734D01*
X20498965Y-17633114D01*
X20504684Y-17643815D01*
X20508206Y-17655424D01*
X20510000Y-17673641D01*
X20510000Y-18096359D01*
X20508206Y-18114576D01*
X20504684Y-18126185D01*
X20494052Y-18146077D01*
X20484675Y-18168716D01*
X20479895Y-18192750D01*
X20479895Y-18217254D01*
X20484676Y-18241287D01*
X20494052Y-18263923D01*
X20504684Y-18283815D01*
X20508206Y-18295424D01*
X20510000Y-18313641D01*
X20510000Y-18736359D01*
X20508206Y-18754576D01*
X20504684Y-18766185D01*
X20498965Y-18776886D01*
X20491266Y-18786266D01*
X20481886Y-18793965D01*
X20471185Y-18799684D01*
X20459576Y-18803206D01*
X20441359Y-18805000D01*
X20078641Y-18805000D01*
X20060424Y-18803206D01*
X20048815Y-18799684D01*
X20038114Y-18793965D01*
X20028734Y-18786266D01*
X20021035Y-18776886D01*
X20015316Y-18766185D01*
X20011794Y-18754576D01*
X20010000Y-18736359D01*
X20010000Y-18313641D01*
X20011794Y-18295424D01*
X20015316Y-18283815D01*
X20025948Y-18263923D01*
X20035325Y-18241284D01*
X20040105Y-18217250D01*
X20040105Y-18192746D01*
X20035324Y-18168713D01*
X20025948Y-18146077D01*
X20015316Y-18126185D01*
X20011794Y-18114576D01*
X20010000Y-18096359D01*
X20010000Y-17673641D01*
X20011794Y-17655424D01*
X20015316Y-17643815D01*
X20021035Y-17633114D01*
X20028734Y-17623734D01*
X20038114Y-17616035D01*
X20048815Y-17610316D01*
X20060424Y-17606794D01*
X20078641Y-17605000D01*
X20441359Y-17605000D01*
X20459576Y-17606794D01*
X20459576Y-17606794D01*
G37*
G36*
X17939576Y-17586794D02*
X17951185Y-17590316D01*
X17961886Y-17596035D01*
X17971266Y-17603734D01*
X17978965Y-17613114D01*
X17984684Y-17623815D01*
X17988206Y-17635424D01*
X17990000Y-17653641D01*
X17990000Y-18076359D01*
X17988206Y-18094576D01*
X17984684Y-18106185D01*
X17974052Y-18126077D01*
X17964675Y-18148716D01*
X17959895Y-18172750D01*
X17959895Y-18197254D01*
X17964676Y-18221287D01*
X17974052Y-18243923D01*
X17984684Y-18263815D01*
X17988206Y-18275424D01*
X17990000Y-18293641D01*
X17990000Y-18716359D01*
X17988206Y-18734576D01*
X17984684Y-18746185D01*
X17978965Y-18756886D01*
X17971266Y-18766266D01*
X17961886Y-18773965D01*
X17951185Y-18779684D01*
X17939576Y-18783206D01*
X17921359Y-18785000D01*
X17558641Y-18785000D01*
X17540424Y-18783206D01*
X17528815Y-18779684D01*
X17518114Y-18773965D01*
X17508734Y-18766266D01*
X17501035Y-18756886D01*
X17495316Y-18746185D01*
X17491794Y-18734576D01*
X17490000Y-18716359D01*
X17490000Y-18293641D01*
X17491794Y-18275424D01*
X17495316Y-18263815D01*
X17505948Y-18243923D01*
X17515325Y-18221284D01*
X17520105Y-18197250D01*
X17520105Y-18172746D01*
X17515324Y-18148713D01*
X17505948Y-18126077D01*
X17495316Y-18106185D01*
X17491794Y-18094576D01*
X17490000Y-18076359D01*
X17490000Y-17653641D01*
X17491794Y-17635424D01*
X17495316Y-17623815D01*
X17501035Y-17613114D01*
X17508734Y-17603734D01*
X17518114Y-17596035D01*
X17528815Y-17590316D01*
X17540424Y-17586794D01*
X17558641Y-17585000D01*
X17921359Y-17585000D01*
X17939576Y-17586794D01*
X17939576Y-17586794D01*
G37*
G36*
X19610000Y-18630000D02*
X19250000Y-18630000D01*
X19250000Y-18600000D01*
X19430000Y-18420000D01*
X19610000Y-18420000D01*
X19610000Y-18630000D01*
X19610000Y-18630000D01*
G37*
G36*
X18750000Y-18600000D02*
X18750000Y-18630000D01*
X18390000Y-18630000D01*
X18390000Y-18420000D01*
X18570000Y-18420000D01*
X18750000Y-18600000D01*
X18750000Y-18600000D01*
G37*
G36*
X19339412Y-18200000D02*
X19000000Y-18539412D01*
X18660588Y-18200000D01*
X19000000Y-17860588D01*
X19339412Y-18200000D01*
X19339412Y-18200000D01*
G37*
G36*
X21775000Y-18440000D02*
X20875000Y-18440000D01*
X20875000Y-17440000D01*
X21775000Y-17440000D01*
X21775000Y-18440000D01*
X21775000Y-18440000D01*
G37*
G36*
X23225000Y-18440000D02*
X22325000Y-18440000D01*
X22325000Y-17440000D01*
X23225000Y-17440000D01*
X23225000Y-18440000D01*
X23225000Y-18440000D01*
G37*
G36*
X25414806Y-17440000D02*
X25416676Y-17440372D01*
X25489468Y-17470523D01*
X25489471Y-17470525D01*
X25554138Y-17513734D01*
X25554989Y-17514303D01*
X25610697Y-17570011D01*
X25610699Y-17570014D01*
X25610700Y-17570015D01*
X25644099Y-17620000D01*
X25654477Y-17635532D01*
X25684515Y-17708052D01*
X25696066Y-17729663D01*
X25711611Y-17748605D01*
X25730553Y-17764150D01*
X25752164Y-17775702D01*
X25775613Y-17782815D01*
X25799999Y-17785217D01*
X25824385Y-17782815D01*
X25847835Y-17775702D01*
X25869446Y-17764151D01*
X25888388Y-17748606D01*
X25903933Y-17729664D01*
X25915485Y-17708052D01*
X25945523Y-17635532D01*
X25955901Y-17620000D01*
X25989300Y-17570015D01*
X25989301Y-17570014D01*
X25989303Y-17570011D01*
X26045011Y-17514303D01*
X26045863Y-17513734D01*
X26110529Y-17470525D01*
X26110532Y-17470523D01*
X26183324Y-17440372D01*
X26185194Y-17440000D01*
X26260603Y-17425000D01*
X26339397Y-17425000D01*
X26414806Y-17440000D01*
X26416676Y-17440372D01*
X26489468Y-17470523D01*
X26489471Y-17470525D01*
X26554138Y-17513734D01*
X26554989Y-17514303D01*
X26610697Y-17570011D01*
X26610699Y-17570014D01*
X26610700Y-17570015D01*
X26644099Y-17620000D01*
X26654477Y-17635532D01*
X26684515Y-17708052D01*
X26696066Y-17729663D01*
X26711611Y-17748605D01*
X26730553Y-17764150D01*
X26752164Y-17775702D01*
X26775613Y-17782815D01*
X26799999Y-17785217D01*
X26824385Y-17782815D01*
X26847835Y-17775702D01*
X26869446Y-17764151D01*
X26888388Y-17748606D01*
X26903933Y-17729664D01*
X26915485Y-17708052D01*
X26945523Y-17635532D01*
X26955901Y-17620000D01*
X26989300Y-17570015D01*
X26989301Y-17570014D01*
X26989303Y-17570011D01*
X27045011Y-17514303D01*
X27045863Y-17513734D01*
X27110529Y-17470525D01*
X27110532Y-17470523D01*
X27183324Y-17440372D01*
X27185194Y-17440000D01*
X27260603Y-17425000D01*
X27339397Y-17425000D01*
X27414806Y-17440000D01*
X27416676Y-17440372D01*
X27489468Y-17470523D01*
X27489471Y-17470525D01*
X27554138Y-17513734D01*
X27554989Y-17514303D01*
X27610697Y-17570011D01*
X27610699Y-17570014D01*
X27610700Y-17570015D01*
X27644099Y-17620000D01*
X27654477Y-17635532D01*
X27675221Y-17685614D01*
X27684628Y-17708324D01*
X27700000Y-17785603D01*
X27700000Y-17864397D01*
X27692063Y-17904298D01*
X27684628Y-17941676D01*
X27654477Y-18014468D01*
X27610697Y-18079989D01*
X27554989Y-18135697D01*
X27554986Y-18135699D01*
X27554985Y-18135700D01*
X27514729Y-18162598D01*
X27489468Y-18179477D01*
X27439920Y-18200000D01*
X27416676Y-18209628D01*
X27339397Y-18225000D01*
X27260603Y-18225000D01*
X27183324Y-18209628D01*
X27160080Y-18200000D01*
X27110532Y-18179477D01*
X27085271Y-18162598D01*
X27045015Y-18135700D01*
X27045014Y-18135699D01*
X27045011Y-18135697D01*
X26989303Y-18079989D01*
X26945523Y-18014468D01*
X26918959Y-17950336D01*
X26915484Y-17941945D01*
X26903934Y-17920337D01*
X26888389Y-17901395D01*
X26869447Y-17885850D01*
X26847836Y-17874298D01*
X26824387Y-17867185D01*
X26800001Y-17864783D01*
X26775615Y-17867185D01*
X26752165Y-17874298D01*
X26730554Y-17885849D01*
X26711612Y-17901394D01*
X26696067Y-17920336D01*
X26684516Y-17941945D01*
X26681041Y-17950336D01*
X26654477Y-18014468D01*
X26610697Y-18079989D01*
X26554989Y-18135697D01*
X26554986Y-18135699D01*
X26554985Y-18135700D01*
X26514729Y-18162598D01*
X26489468Y-18179477D01*
X26439920Y-18200000D01*
X26416676Y-18209628D01*
X26339397Y-18225000D01*
X26260603Y-18225000D01*
X26183324Y-18209628D01*
X26160080Y-18200000D01*
X26110532Y-18179477D01*
X26085271Y-18162598D01*
X26045015Y-18135700D01*
X26045014Y-18135699D01*
X26045011Y-18135697D01*
X25989303Y-18079989D01*
X25945523Y-18014468D01*
X25918959Y-17950336D01*
X25915484Y-17941945D01*
X25903934Y-17920337D01*
X25888389Y-17901395D01*
X25869447Y-17885850D01*
X25847836Y-17874298D01*
X25824387Y-17867185D01*
X25800001Y-17864783D01*
X25775615Y-17867185D01*
X25752165Y-17874298D01*
X25730554Y-17885849D01*
X25711612Y-17901394D01*
X25696067Y-17920336D01*
X25684516Y-17941945D01*
X25681041Y-17950336D01*
X25654477Y-18014468D01*
X25610697Y-18079989D01*
X25554989Y-18135697D01*
X25554986Y-18135699D01*
X25554985Y-18135700D01*
X25514729Y-18162598D01*
X25489468Y-18179477D01*
X25439920Y-18200000D01*
X25416676Y-18209628D01*
X25339397Y-18225000D01*
X25260603Y-18225000D01*
X25183324Y-18209628D01*
X25160080Y-18200000D01*
X25110532Y-18179477D01*
X25085271Y-18162598D01*
X25045015Y-18135700D01*
X25045014Y-18135699D01*
X25045011Y-18135697D01*
X24989303Y-18079989D01*
X24945523Y-18014468D01*
X24927911Y-17971948D01*
X24916360Y-17950337D01*
X24900815Y-17931395D01*
X24881873Y-17915850D01*
X24860262Y-17904298D01*
X24836813Y-17897185D01*
X24812427Y-17894783D01*
X24788040Y-17897185D01*
X24764591Y-17904298D01*
X24742980Y-17915849D01*
X24724038Y-17931394D01*
X24708493Y-17950336D01*
X24702184Y-17960862D01*
X24698964Y-17966886D01*
X24691266Y-17976266D01*
X24681886Y-17983965D01*
X24671185Y-17989684D01*
X24659576Y-17993206D01*
X24641359Y-17995000D01*
X24218641Y-17995000D01*
X24200424Y-17993206D01*
X24188815Y-17989684D01*
X24168923Y-17979052D01*
X24146284Y-17969675D01*
X24122250Y-17964895D01*
X24097746Y-17964895D01*
X24073713Y-17969676D01*
X24051077Y-17979052D01*
X24031185Y-17989684D01*
X24019576Y-17993206D01*
X24001359Y-17995000D01*
X23578641Y-17995000D01*
X23560424Y-17993206D01*
X23548815Y-17989684D01*
X23538114Y-17983965D01*
X23528734Y-17976266D01*
X23521035Y-17966886D01*
X23515316Y-17956185D01*
X23511794Y-17944576D01*
X23510000Y-17926359D01*
X23510000Y-17563641D01*
X23511794Y-17545424D01*
X23515316Y-17533815D01*
X23521035Y-17523114D01*
X23528734Y-17513734D01*
X23538114Y-17506035D01*
X23548815Y-17500316D01*
X23560424Y-17496794D01*
X23578641Y-17495000D01*
X24001359Y-17495000D01*
X24019576Y-17496794D01*
X24031185Y-17500316D01*
X24051077Y-17510948D01*
X24073716Y-17520325D01*
X24097750Y-17525105D01*
X24122254Y-17525105D01*
X24146287Y-17520324D01*
X24168923Y-17510948D01*
X24188815Y-17500316D01*
X24200424Y-17496794D01*
X24218641Y-17495000D01*
X24641359Y-17495000D01*
X24659576Y-17496794D01*
X24671185Y-17500316D01*
X24681886Y-17506035D01*
X24691266Y-17513734D01*
X24698965Y-17523114D01*
X24704684Y-17533815D01*
X24708206Y-17545424D01*
X24710000Y-17563641D01*
X24710000Y-17575946D01*
X24712402Y-17600332D01*
X24719515Y-17623781D01*
X24731066Y-17645392D01*
X24746612Y-17664334D01*
X24765554Y-17679880D01*
X24787165Y-17691431D01*
X24810614Y-17698544D01*
X24835000Y-17700946D01*
X24859386Y-17698544D01*
X24882835Y-17691431D01*
X24904446Y-17679880D01*
X24923388Y-17664334D01*
X24938933Y-17645393D01*
X24989300Y-17570014D01*
X25045011Y-17514303D01*
X25045863Y-17513734D01*
X25110529Y-17470525D01*
X25110532Y-17470523D01*
X25183324Y-17440372D01*
X25185194Y-17440000D01*
X25260603Y-17425000D01*
X25339397Y-17425000D01*
X25414806Y-17440000D01*
X25414806Y-17440000D01*
G37*
G36*
X19610000Y-17980000D02*
X19430000Y-17980000D01*
X19250000Y-17800000D01*
X19250000Y-17770000D01*
X19610000Y-17770000D01*
X19610000Y-17980000D01*
X19610000Y-17980000D01*
G37*
G36*
X18750000Y-17800000D02*
X18570000Y-17980000D01*
X18390000Y-17980000D01*
X18390000Y-17770000D01*
X18750000Y-17770000D01*
X18750000Y-17800000D01*
X18750000Y-17800000D01*
G37*
M02*
