M48
;DRILL file {KiCad (5.0.0)} date 11/20/18 23:47:44
;FORMAT={-:-/ absolute / inch / decimal}
FMAT,2
INCH,TZ
T1C0.0079
%
G90
G05
M72
T1
X0.687Y-0.875
X0.7165Y-1.0128
X0.7244Y-0.7726
X0.7254Y-0.7982
X0.7315Y-0.938
X0.7323Y-0.997
X0.7323Y-1.0128
X0.749Y-0.8514
X0.7701Y-0.9762
X0.7726Y-0.8524
X0.7756Y-0.9191
X0.7825Y-0.7126
X0.7843Y-0.975
X0.7963Y-0.8967
X0.7992Y-0.7126
X0.7992Y-0.9281
X0.8219Y-1.001
X0.8307Y-0.9409
X0.8543Y-0.9134
X0.8553Y-0.8465
X0.8563Y-0.7608
X0.8583Y-0.8839
X0.8661Y-0.7057
X0.8795Y-0.7356
X0.8819Y-0.8494
X0.8839Y-0.8848
X0.9008Y-0.7045
X0.9055Y-0.8494
X0.9203Y-0.8287
X0.9262Y-0.999
X0.9311Y-0.7124
X0.9421Y-0.7518
X0.9587Y-0.8829
X0.9606Y-0.9409
X0.9705Y-0.7313
X0.9872Y-1.0089
X0.9902Y-0.872
X0.9921Y-0.8465
X0.9951Y-0.9764
X1.0069Y-0.9439
X1.0098Y-0.6998
X1.0246Y-0.8543
X1.0256Y-0.7313
X1.0303Y-0.7648
X1.0339Y-0.7935
X1.0344Y-0.876
X1.0443Y-1.0138
X1.0561Y-0.7195
X1.0827Y-0.938
X1.0906Y-0.8091
X1.1201Y-0.7195
X1.1378Y-0.9301
X1.1461Y-1.0033
T0
M30
