G04 #@! TF.GenerationSoftware,KiCad,Pcbnew,(5.0.1)-3*
G04 #@! TF.CreationDate,2018-12-22T23:53:39+08:00*
G04 #@! TF.ProjectId,tomu-fpga,746F6D752D667067612E6B696361645F,rev?*
G04 #@! TF.SameCoordinates,Original*
G04 #@! TF.FileFunction,Paste,Bot*
G04 #@! TF.FilePolarity,Positive*
%FSLAX45Y45*%
G04 Gerber Fmt 4.5, Leading zero omitted, Abs format (unit mm)*
G04 Created by KiCad (PCBNEW (5.0.1)-3) date 12/22/18 23:53:39*
%MOMM*%
%LPD*%
G01*
G04 APERTURE LIST*
%ADD10C,0.200000*%
%ADD11C,0.230000*%
%ADD12C,0.100000*%
%ADD13C,0.590000*%
%ADD14C,0.318000*%
%ADD15C,0.150000*%
%ADD16R,0.200000X1.600000*%
%ADD17R,0.300000X0.250000*%
%ADD18R,0.300000X0.230000*%
%ADD19R,0.230000X0.300000*%
%ADD20C,0.450000*%
%ADD21C,0.148492*%
%ADD22R,0.400000X0.400000*%
%ADD23R,0.800000X0.900000*%
G04 APERTURE END LIST*
D10*
G04 #@! TO.C,U5*
X2520000Y-2170000D03*
D11*
X2480000Y-2170000D03*
D10*
X2520000Y-2210000D03*
D11*
X2480000Y-2210000D03*
D10*
X2480000Y-2090000D03*
D11*
X2480000Y-2130000D03*
D10*
X2520000Y-2130000D03*
X2520000Y-2090000D03*
X2480000Y-2290000D03*
D11*
X2480000Y-2250000D03*
D10*
X2520000Y-2290000D03*
X2520000Y-2250000D03*
X2360000Y-2090000D03*
X2360000Y-2130000D03*
X2360000Y-2170000D03*
X2360000Y-2290000D03*
X2360000Y-2250000D03*
X2360000Y-2210000D03*
X2400000Y-2090000D03*
D11*
X2400000Y-2130000D03*
X2400000Y-2170000D03*
D10*
X2400000Y-2290000D03*
D11*
X2400000Y-2250000D03*
X2400000Y-2210000D03*
X2440000Y-2090000D03*
D10*
X2440000Y-2130000D03*
D11*
X2440000Y-2170000D03*
X2440000Y-2290000D03*
D10*
X2440000Y-2250000D03*
D11*
X2440000Y-2210000D03*
G04 #@! TD*
D12*
G04 #@! TO.C,C22*
G36*
X2048696Y-2468071D02*
X2050128Y-2468283D01*
X2051532Y-2468635D01*
X2052895Y-2469123D01*
X2054203Y-2469742D01*
X2055445Y-2470486D01*
X2056607Y-2471348D01*
X2057680Y-2472320D01*
X2058652Y-2473393D01*
X2059514Y-2474555D01*
X2060258Y-2475797D01*
X2060877Y-2477105D01*
X2061365Y-2478468D01*
X2061717Y-2479872D01*
X2061929Y-2481304D01*
X2062000Y-2482750D01*
X2062000Y-2512250D01*
X2061929Y-2513696D01*
X2061717Y-2515128D01*
X2061365Y-2516532D01*
X2060877Y-2517895D01*
X2060258Y-2519203D01*
X2059514Y-2520445D01*
X2058652Y-2521607D01*
X2057680Y-2522680D01*
X2056607Y-2523652D01*
X2055445Y-2524514D01*
X2054203Y-2525258D01*
X2052895Y-2525877D01*
X2051532Y-2526365D01*
X2050128Y-2526717D01*
X2048696Y-2526929D01*
X2047250Y-2527000D01*
X2012750Y-2527000D01*
X2011304Y-2526929D01*
X2009872Y-2526717D01*
X2008468Y-2526365D01*
X2007105Y-2525877D01*
X2005797Y-2525258D01*
X2004555Y-2524514D01*
X2003393Y-2523652D01*
X2002320Y-2522680D01*
X2001348Y-2521607D01*
X2000486Y-2520445D01*
X1999742Y-2519203D01*
X1999123Y-2517895D01*
X1998635Y-2516532D01*
X1998283Y-2515128D01*
X1998071Y-2513696D01*
X1998000Y-2512250D01*
X1998000Y-2482750D01*
X1998071Y-2481304D01*
X1998283Y-2479872D01*
X1998635Y-2478468D01*
X1999123Y-2477105D01*
X1999742Y-2475797D01*
X2000486Y-2474555D01*
X2001348Y-2473393D01*
X2002320Y-2472320D01*
X2003393Y-2471348D01*
X2004555Y-2470486D01*
X2005797Y-2469742D01*
X2007105Y-2469123D01*
X2008468Y-2468635D01*
X2009872Y-2468283D01*
X2011304Y-2468071D01*
X2012750Y-2468000D01*
X2047250Y-2468000D01*
X2048696Y-2468071D01*
X2048696Y-2468071D01*
G37*
D13*
X2030000Y-2497500D03*
D12*
G36*
X2048696Y-2565071D02*
X2050128Y-2565283D01*
X2051532Y-2565635D01*
X2052895Y-2566123D01*
X2054203Y-2566742D01*
X2055445Y-2567486D01*
X2056607Y-2568348D01*
X2057680Y-2569320D01*
X2058652Y-2570393D01*
X2059514Y-2571555D01*
X2060258Y-2572797D01*
X2060877Y-2574105D01*
X2061365Y-2575468D01*
X2061717Y-2576872D01*
X2061929Y-2578304D01*
X2062000Y-2579750D01*
X2062000Y-2609250D01*
X2061929Y-2610696D01*
X2061717Y-2612128D01*
X2061365Y-2613532D01*
X2060877Y-2614895D01*
X2060258Y-2616203D01*
X2059514Y-2617445D01*
X2058652Y-2618607D01*
X2057680Y-2619680D01*
X2056607Y-2620652D01*
X2055445Y-2621514D01*
X2054203Y-2622258D01*
X2052895Y-2622877D01*
X2051532Y-2623365D01*
X2050128Y-2623717D01*
X2048696Y-2623929D01*
X2047250Y-2624000D01*
X2012750Y-2624000D01*
X2011304Y-2623929D01*
X2009872Y-2623717D01*
X2008468Y-2623365D01*
X2007105Y-2622877D01*
X2005797Y-2622258D01*
X2004555Y-2621514D01*
X2003393Y-2620652D01*
X2002320Y-2619680D01*
X2001348Y-2618607D01*
X2000486Y-2617445D01*
X1999742Y-2616203D01*
X1999123Y-2614895D01*
X1998635Y-2613532D01*
X1998283Y-2612128D01*
X1998071Y-2610696D01*
X1998000Y-2609250D01*
X1998000Y-2579750D01*
X1998071Y-2578304D01*
X1998283Y-2576872D01*
X1998635Y-2575468D01*
X1999123Y-2574105D01*
X1999742Y-2572797D01*
X2000486Y-2571555D01*
X2001348Y-2570393D01*
X2002320Y-2569320D01*
X2003393Y-2568348D01*
X2004555Y-2567486D01*
X2005797Y-2566742D01*
X2007105Y-2566123D01*
X2008468Y-2565635D01*
X2009872Y-2565283D01*
X2011304Y-2565071D01*
X2012750Y-2565000D01*
X2047250Y-2565000D01*
X2048696Y-2565071D01*
X2048696Y-2565071D01*
G37*
D13*
X2030000Y-2594500D03*
G04 #@! TD*
D12*
G04 #@! TO.C,C23*
G36*
X1885829Y-2541138D02*
X1886601Y-2541253D01*
X1887358Y-2541442D01*
X1888092Y-2541705D01*
X1888798Y-2542039D01*
X1889467Y-2542440D01*
X1890093Y-2542905D01*
X1890671Y-2543429D01*
X1891195Y-2544007D01*
X1891660Y-2544633D01*
X1892061Y-2545302D01*
X1892395Y-2546008D01*
X1892658Y-2546742D01*
X1892847Y-2547499D01*
X1892962Y-2548271D01*
X1893000Y-2549050D01*
X1893000Y-2564950D01*
X1892962Y-2565729D01*
X1892847Y-2566501D01*
X1892658Y-2567258D01*
X1892395Y-2567992D01*
X1892061Y-2568698D01*
X1891660Y-2569367D01*
X1891195Y-2569993D01*
X1890671Y-2570572D01*
X1890093Y-2571095D01*
X1889467Y-2571560D01*
X1888798Y-2571961D01*
X1888092Y-2572295D01*
X1887358Y-2572558D01*
X1886601Y-2572747D01*
X1885829Y-2572862D01*
X1885050Y-2572900D01*
X1864950Y-2572900D01*
X1864171Y-2572862D01*
X1863399Y-2572747D01*
X1862642Y-2572558D01*
X1861908Y-2572295D01*
X1861202Y-2571961D01*
X1860533Y-2571560D01*
X1859907Y-2571095D01*
X1859328Y-2570572D01*
X1858805Y-2569993D01*
X1858340Y-2569367D01*
X1857939Y-2568698D01*
X1857605Y-2567992D01*
X1857342Y-2567258D01*
X1857153Y-2566501D01*
X1857038Y-2565729D01*
X1857000Y-2564950D01*
X1857000Y-2549050D01*
X1857038Y-2548271D01*
X1857153Y-2547499D01*
X1857342Y-2546742D01*
X1857605Y-2546008D01*
X1857939Y-2545302D01*
X1858340Y-2544633D01*
X1858805Y-2544007D01*
X1859328Y-2543429D01*
X1859907Y-2542905D01*
X1860533Y-2542440D01*
X1861202Y-2542039D01*
X1861908Y-2541705D01*
X1862642Y-2541442D01*
X1863399Y-2541253D01*
X1864171Y-2541138D01*
X1864950Y-2541100D01*
X1885050Y-2541100D01*
X1885829Y-2541138D01*
X1885829Y-2541138D01*
G37*
D14*
X1875000Y-2557000D03*
D12*
G36*
X1885829Y-2472138D02*
X1886601Y-2472253D01*
X1887358Y-2472442D01*
X1888092Y-2472705D01*
X1888798Y-2473039D01*
X1889467Y-2473440D01*
X1890093Y-2473905D01*
X1890671Y-2474429D01*
X1891195Y-2475007D01*
X1891660Y-2475633D01*
X1892061Y-2476302D01*
X1892395Y-2477008D01*
X1892658Y-2477742D01*
X1892847Y-2478499D01*
X1892962Y-2479271D01*
X1893000Y-2480050D01*
X1893000Y-2495950D01*
X1892962Y-2496729D01*
X1892847Y-2497501D01*
X1892658Y-2498258D01*
X1892395Y-2498992D01*
X1892061Y-2499698D01*
X1891660Y-2500367D01*
X1891195Y-2500993D01*
X1890671Y-2501572D01*
X1890093Y-2502095D01*
X1889467Y-2502560D01*
X1888798Y-2502961D01*
X1888092Y-2503295D01*
X1887358Y-2503558D01*
X1886601Y-2503747D01*
X1885829Y-2503862D01*
X1885050Y-2503900D01*
X1864950Y-2503900D01*
X1864171Y-2503862D01*
X1863399Y-2503747D01*
X1862642Y-2503558D01*
X1861908Y-2503295D01*
X1861202Y-2502961D01*
X1860533Y-2502560D01*
X1859907Y-2502095D01*
X1859328Y-2501572D01*
X1858805Y-2500993D01*
X1858340Y-2500367D01*
X1857939Y-2499698D01*
X1857605Y-2498992D01*
X1857342Y-2498258D01*
X1857153Y-2497501D01*
X1857038Y-2496729D01*
X1857000Y-2495950D01*
X1857000Y-2480050D01*
X1857038Y-2479271D01*
X1857153Y-2478499D01*
X1857342Y-2477742D01*
X1857605Y-2477008D01*
X1857939Y-2476302D01*
X1858340Y-2475633D01*
X1858805Y-2475007D01*
X1859328Y-2474429D01*
X1859907Y-2473905D01*
X1860533Y-2473440D01*
X1861202Y-2473039D01*
X1861908Y-2472705D01*
X1862642Y-2472442D01*
X1863399Y-2472253D01*
X1864171Y-2472138D01*
X1864950Y-2472100D01*
X1885050Y-2472100D01*
X1885829Y-2472138D01*
X1885829Y-2472138D01*
G37*
D14*
X1875000Y-2488000D03*
G04 #@! TD*
D12*
G04 #@! TO.C,R10*
G36*
X1955829Y-2541638D02*
X1956601Y-2541753D01*
X1957358Y-2541942D01*
X1958092Y-2542205D01*
X1958798Y-2542539D01*
X1959467Y-2542940D01*
X1960093Y-2543405D01*
X1960671Y-2543929D01*
X1961195Y-2544507D01*
X1961660Y-2545133D01*
X1962061Y-2545802D01*
X1962395Y-2546508D01*
X1962658Y-2547242D01*
X1962847Y-2547999D01*
X1962962Y-2548771D01*
X1963000Y-2549550D01*
X1963000Y-2565450D01*
X1962962Y-2566229D01*
X1962847Y-2567001D01*
X1962658Y-2567758D01*
X1962395Y-2568492D01*
X1962061Y-2569198D01*
X1961660Y-2569867D01*
X1961195Y-2570493D01*
X1960671Y-2571072D01*
X1960093Y-2571595D01*
X1959467Y-2572060D01*
X1958798Y-2572461D01*
X1958092Y-2572795D01*
X1957358Y-2573058D01*
X1956601Y-2573247D01*
X1955829Y-2573362D01*
X1955050Y-2573400D01*
X1934950Y-2573400D01*
X1934171Y-2573362D01*
X1933399Y-2573247D01*
X1932642Y-2573058D01*
X1931908Y-2572795D01*
X1931202Y-2572461D01*
X1930533Y-2572060D01*
X1929907Y-2571595D01*
X1929328Y-2571072D01*
X1928805Y-2570493D01*
X1928340Y-2569867D01*
X1927939Y-2569198D01*
X1927605Y-2568492D01*
X1927342Y-2567758D01*
X1927153Y-2567001D01*
X1927038Y-2566229D01*
X1927000Y-2565450D01*
X1927000Y-2549550D01*
X1927038Y-2548771D01*
X1927153Y-2547999D01*
X1927342Y-2547242D01*
X1927605Y-2546508D01*
X1927939Y-2545802D01*
X1928340Y-2545133D01*
X1928805Y-2544507D01*
X1929328Y-2543929D01*
X1929907Y-2543405D01*
X1930533Y-2542940D01*
X1931202Y-2542539D01*
X1931908Y-2542205D01*
X1932642Y-2541942D01*
X1933399Y-2541753D01*
X1934171Y-2541638D01*
X1934950Y-2541600D01*
X1955050Y-2541600D01*
X1955829Y-2541638D01*
X1955829Y-2541638D01*
G37*
D14*
X1945000Y-2557500D03*
D12*
G36*
X1955829Y-2472638D02*
X1956601Y-2472753D01*
X1957358Y-2472942D01*
X1958092Y-2473205D01*
X1958798Y-2473539D01*
X1959467Y-2473940D01*
X1960093Y-2474405D01*
X1960671Y-2474929D01*
X1961195Y-2475507D01*
X1961660Y-2476133D01*
X1962061Y-2476802D01*
X1962395Y-2477508D01*
X1962658Y-2478242D01*
X1962847Y-2478999D01*
X1962962Y-2479771D01*
X1963000Y-2480550D01*
X1963000Y-2496450D01*
X1962962Y-2497229D01*
X1962847Y-2498001D01*
X1962658Y-2498758D01*
X1962395Y-2499492D01*
X1962061Y-2500198D01*
X1961660Y-2500867D01*
X1961195Y-2501493D01*
X1960671Y-2502072D01*
X1960093Y-2502595D01*
X1959467Y-2503060D01*
X1958798Y-2503461D01*
X1958092Y-2503795D01*
X1957358Y-2504058D01*
X1956601Y-2504247D01*
X1955829Y-2504362D01*
X1955050Y-2504400D01*
X1934950Y-2504400D01*
X1934171Y-2504362D01*
X1933399Y-2504247D01*
X1932642Y-2504058D01*
X1931908Y-2503795D01*
X1931202Y-2503461D01*
X1930533Y-2503060D01*
X1929907Y-2502595D01*
X1929328Y-2502072D01*
X1928805Y-2501493D01*
X1928340Y-2500867D01*
X1927939Y-2500198D01*
X1927605Y-2499492D01*
X1927342Y-2498758D01*
X1927153Y-2498001D01*
X1927038Y-2497229D01*
X1927000Y-2496450D01*
X1927000Y-2480550D01*
X1927038Y-2479771D01*
X1927153Y-2478999D01*
X1927342Y-2478242D01*
X1927605Y-2477508D01*
X1927939Y-2476802D01*
X1928340Y-2476133D01*
X1928805Y-2475507D01*
X1929328Y-2474929D01*
X1929907Y-2474405D01*
X1930533Y-2473940D01*
X1931202Y-2473539D01*
X1931908Y-2473205D01*
X1932642Y-2472942D01*
X1933399Y-2472753D01*
X1934171Y-2472638D01*
X1934950Y-2472600D01*
X1955050Y-2472600D01*
X1955829Y-2472638D01*
X1955829Y-2472638D01*
G37*
D14*
X1945000Y-2488500D03*
G04 #@! TD*
D12*
G04 #@! TO.C,D5*
G36*
X1889118Y-2600018D02*
X1889482Y-2600072D01*
X1889839Y-2600162D01*
X1890185Y-2600286D01*
X1890518Y-2600443D01*
X1890833Y-2600632D01*
X1891129Y-2600851D01*
X1891402Y-2601098D01*
X1891649Y-2601371D01*
X1891868Y-2601667D01*
X1892057Y-2601982D01*
X1892214Y-2602315D01*
X1892338Y-2602661D01*
X1892428Y-2603018D01*
X1892482Y-2603382D01*
X1892500Y-2603750D01*
X1892500Y-2621250D01*
X1892482Y-2621618D01*
X1892428Y-2621982D01*
X1892338Y-2622339D01*
X1892214Y-2622685D01*
X1892057Y-2623018D01*
X1891868Y-2623333D01*
X1891649Y-2623629D01*
X1891402Y-2623902D01*
X1891129Y-2624149D01*
X1890833Y-2624368D01*
X1890518Y-2624557D01*
X1890185Y-2624715D01*
X1889839Y-2624839D01*
X1889482Y-2624928D01*
X1889118Y-2624982D01*
X1888750Y-2625000D01*
X1881250Y-2625000D01*
X1880882Y-2624982D01*
X1880518Y-2624928D01*
X1880161Y-2624839D01*
X1879815Y-2624715D01*
X1879482Y-2624557D01*
X1879167Y-2624368D01*
X1878871Y-2624149D01*
X1878598Y-2623902D01*
X1878351Y-2623629D01*
X1878132Y-2623333D01*
X1877943Y-2623018D01*
X1877785Y-2622685D01*
X1877661Y-2622339D01*
X1877572Y-2621982D01*
X1877518Y-2621618D01*
X1877500Y-2621250D01*
X1877500Y-2603750D01*
X1877518Y-2603382D01*
X1877572Y-2603018D01*
X1877661Y-2602661D01*
X1877785Y-2602315D01*
X1877943Y-2601982D01*
X1878132Y-2601667D01*
X1878351Y-2601371D01*
X1878598Y-2601098D01*
X1878871Y-2600851D01*
X1879167Y-2600632D01*
X1879482Y-2600443D01*
X1879815Y-2600286D01*
X1880161Y-2600162D01*
X1880518Y-2600072D01*
X1880882Y-2600018D01*
X1881250Y-2600000D01*
X1888750Y-2600000D01*
X1889118Y-2600018D01*
X1889118Y-2600018D01*
G37*
D15*
X1885000Y-2612500D03*
D12*
G36*
X1929118Y-2600018D02*
X1929482Y-2600072D01*
X1929839Y-2600162D01*
X1930185Y-2600286D01*
X1930518Y-2600443D01*
X1930833Y-2600632D01*
X1931129Y-2600851D01*
X1931402Y-2601098D01*
X1931649Y-2601371D01*
X1931868Y-2601667D01*
X1932057Y-2601982D01*
X1932214Y-2602315D01*
X1932338Y-2602661D01*
X1932428Y-2603018D01*
X1932482Y-2603382D01*
X1932500Y-2603750D01*
X1932500Y-2621250D01*
X1932482Y-2621618D01*
X1932428Y-2621982D01*
X1932338Y-2622339D01*
X1932214Y-2622685D01*
X1932057Y-2623018D01*
X1931868Y-2623333D01*
X1931649Y-2623629D01*
X1931402Y-2623902D01*
X1931129Y-2624149D01*
X1930833Y-2624368D01*
X1930518Y-2624557D01*
X1930185Y-2624715D01*
X1929839Y-2624839D01*
X1929482Y-2624928D01*
X1929118Y-2624982D01*
X1928750Y-2625000D01*
X1921250Y-2625000D01*
X1920882Y-2624982D01*
X1920518Y-2624928D01*
X1920161Y-2624839D01*
X1919815Y-2624715D01*
X1919482Y-2624557D01*
X1919167Y-2624368D01*
X1918871Y-2624149D01*
X1918598Y-2623902D01*
X1918351Y-2623629D01*
X1918132Y-2623333D01*
X1917943Y-2623018D01*
X1917785Y-2622685D01*
X1917661Y-2622339D01*
X1917572Y-2621982D01*
X1917518Y-2621618D01*
X1917500Y-2621250D01*
X1917500Y-2603750D01*
X1917518Y-2603382D01*
X1917572Y-2603018D01*
X1917661Y-2602661D01*
X1917785Y-2602315D01*
X1917943Y-2601982D01*
X1918132Y-2601667D01*
X1918351Y-2601371D01*
X1918598Y-2601098D01*
X1918871Y-2600851D01*
X1919167Y-2600632D01*
X1919482Y-2600443D01*
X1919815Y-2600286D01*
X1920161Y-2600162D01*
X1920518Y-2600072D01*
X1920882Y-2600018D01*
X1921250Y-2600000D01*
X1928750Y-2600000D01*
X1929118Y-2600018D01*
X1929118Y-2600018D01*
G37*
D15*
X1925000Y-2612500D03*
G04 #@! TD*
D16*
G04 #@! TO.C,U4*
X2292500Y-2492500D03*
D17*
X2172500Y-2417500D03*
X2172500Y-2467500D03*
X2172500Y-2517500D03*
X2172500Y-2567500D03*
X2412500Y-2567500D03*
X2412500Y-2517500D03*
X2412500Y-2467500D03*
X2412500Y-2417500D03*
G04 #@! TD*
D18*
G04 #@! TO.C,D6*
X2050000Y-2198500D03*
X2050000Y-2160500D03*
G04 #@! TD*
G04 #@! TO.C,D7*
X1845000Y-2090500D03*
X1845000Y-2128500D03*
G04 #@! TD*
D19*
G04 #@! TO.C,D1*
X2642000Y-2441500D03*
X2680000Y-2441500D03*
G04 #@! TD*
D18*
G04 #@! TO.C,D2*
X2690000Y-2331500D03*
X2690000Y-2293500D03*
G04 #@! TD*
D19*
G04 #@! TO.C,D3*
X2619000Y-1902500D03*
X2581000Y-1902500D03*
G04 #@! TD*
D18*
G04 #@! TO.C,D4*
X2725000Y-2024500D03*
X2725000Y-2062500D03*
G04 #@! TD*
D20*
G04 #@! TO.C,U3*
X1900000Y-1970000D03*
D12*
G36*
X1931820Y-1970000D02*
X1900000Y-2001820D01*
X1868180Y-1970000D01*
X1900000Y-1938180D01*
X1931820Y-1970000D01*
X1931820Y-1970000D01*
G37*
D21*
X1943000Y-2002500D03*
D12*
G36*
X1925000Y-2010000D02*
X1943000Y-1992000D01*
X1965000Y-1992000D01*
X1965000Y-2013000D01*
X1925000Y-2013000D01*
X1925000Y-2010000D01*
X1925000Y-2010000D01*
G37*
D21*
X1857000Y-2002500D03*
D12*
G36*
X1835000Y-1992000D02*
X1857000Y-1992000D01*
X1875000Y-2010000D01*
X1875000Y-2013000D01*
X1835000Y-2013000D01*
X1835000Y-1992000D01*
X1835000Y-1992000D01*
G37*
D21*
X1857000Y-1937500D03*
D12*
G36*
X1835000Y-1927000D02*
X1875000Y-1927000D01*
X1875000Y-1930000D01*
X1857000Y-1948000D01*
X1835000Y-1948000D01*
X1835000Y-1927000D01*
X1835000Y-1927000D01*
G37*
D21*
X1943000Y-1937500D03*
D12*
G36*
X1925000Y-1930000D02*
X1925000Y-1927000D01*
X1965000Y-1927000D01*
X1965000Y-1948000D01*
X1943000Y-1948000D01*
X1925000Y-1930000D01*
X1925000Y-1930000D01*
G37*
G04 #@! TD*
G04 #@! TO.C,C28*
G36*
X2524229Y-2402038D02*
X2525001Y-2402153D01*
X2525758Y-2402342D01*
X2526492Y-2402605D01*
X2527198Y-2402939D01*
X2527867Y-2403340D01*
X2528493Y-2403805D01*
X2529072Y-2404329D01*
X2529595Y-2404907D01*
X2530060Y-2405533D01*
X2530461Y-2406202D01*
X2530795Y-2406908D01*
X2531058Y-2407642D01*
X2531247Y-2408399D01*
X2531362Y-2409171D01*
X2531400Y-2409950D01*
X2531400Y-2430050D01*
X2531362Y-2430829D01*
X2531247Y-2431601D01*
X2531058Y-2432358D01*
X2530795Y-2433092D01*
X2530461Y-2433798D01*
X2530060Y-2434467D01*
X2529595Y-2435093D01*
X2529072Y-2435672D01*
X2528493Y-2436195D01*
X2527867Y-2436660D01*
X2527198Y-2437061D01*
X2526492Y-2437395D01*
X2525758Y-2437658D01*
X2525001Y-2437847D01*
X2524229Y-2437962D01*
X2523450Y-2438000D01*
X2507550Y-2438000D01*
X2506771Y-2437962D01*
X2505999Y-2437847D01*
X2505242Y-2437658D01*
X2504508Y-2437395D01*
X2503802Y-2437061D01*
X2503133Y-2436660D01*
X2502507Y-2436195D01*
X2501929Y-2435672D01*
X2501405Y-2435093D01*
X2500940Y-2434467D01*
X2500539Y-2433798D01*
X2500205Y-2433092D01*
X2499942Y-2432358D01*
X2499753Y-2431601D01*
X2499638Y-2430829D01*
X2499600Y-2430050D01*
X2499600Y-2409950D01*
X2499638Y-2409171D01*
X2499753Y-2408399D01*
X2499942Y-2407642D01*
X2500205Y-2406908D01*
X2500539Y-2406202D01*
X2500940Y-2405533D01*
X2501405Y-2404907D01*
X2501929Y-2404329D01*
X2502507Y-2403805D01*
X2503133Y-2403340D01*
X2503802Y-2402939D01*
X2504508Y-2402605D01*
X2505242Y-2402342D01*
X2505999Y-2402153D01*
X2506771Y-2402038D01*
X2507550Y-2402000D01*
X2523450Y-2402000D01*
X2524229Y-2402038D01*
X2524229Y-2402038D01*
G37*
D14*
X2515500Y-2420000D03*
D12*
G36*
X2593229Y-2402038D02*
X2594001Y-2402153D01*
X2594758Y-2402342D01*
X2595492Y-2402605D01*
X2596198Y-2402939D01*
X2596867Y-2403340D01*
X2597493Y-2403805D01*
X2598072Y-2404329D01*
X2598595Y-2404907D01*
X2599060Y-2405533D01*
X2599461Y-2406202D01*
X2599795Y-2406908D01*
X2600058Y-2407642D01*
X2600247Y-2408399D01*
X2600362Y-2409171D01*
X2600400Y-2409950D01*
X2600400Y-2430050D01*
X2600362Y-2430829D01*
X2600247Y-2431601D01*
X2600058Y-2432358D01*
X2599795Y-2433092D01*
X2599461Y-2433798D01*
X2599060Y-2434467D01*
X2598595Y-2435093D01*
X2598072Y-2435672D01*
X2597493Y-2436195D01*
X2596867Y-2436660D01*
X2596198Y-2437061D01*
X2595492Y-2437395D01*
X2594758Y-2437658D01*
X2594001Y-2437847D01*
X2593229Y-2437962D01*
X2592450Y-2438000D01*
X2576550Y-2438000D01*
X2575771Y-2437962D01*
X2574999Y-2437847D01*
X2574242Y-2437658D01*
X2573508Y-2437395D01*
X2572802Y-2437061D01*
X2572133Y-2436660D01*
X2571507Y-2436195D01*
X2570929Y-2435672D01*
X2570405Y-2435093D01*
X2569940Y-2434467D01*
X2569539Y-2433798D01*
X2569205Y-2433092D01*
X2568942Y-2432358D01*
X2568753Y-2431601D01*
X2568638Y-2430829D01*
X2568600Y-2430050D01*
X2568600Y-2409950D01*
X2568638Y-2409171D01*
X2568753Y-2408399D01*
X2568942Y-2407642D01*
X2569205Y-2406908D01*
X2569539Y-2406202D01*
X2569940Y-2405533D01*
X2570405Y-2404907D01*
X2570929Y-2404329D01*
X2571507Y-2403805D01*
X2572133Y-2403340D01*
X2572802Y-2402939D01*
X2573508Y-2402605D01*
X2574242Y-2402342D01*
X2574999Y-2402153D01*
X2575771Y-2402038D01*
X2576550Y-2402000D01*
X2592450Y-2402000D01*
X2593229Y-2402038D01*
X2593229Y-2402038D01*
G37*
D14*
X2584500Y-2420000D03*
G04 #@! TD*
D20*
G04 #@! TO.C,U2*
X1890000Y-2370000D03*
D12*
G36*
X1921820Y-2370000D02*
X1890000Y-2401820D01*
X1858180Y-2370000D01*
X1890000Y-2338180D01*
X1921820Y-2370000D01*
X1921820Y-2370000D01*
G37*
D21*
X1933000Y-2402500D03*
D12*
G36*
X1915000Y-2410000D02*
X1933000Y-2392000D01*
X1955000Y-2392000D01*
X1955000Y-2413000D01*
X1915000Y-2413000D01*
X1915000Y-2410000D01*
X1915000Y-2410000D01*
G37*
D21*
X1847000Y-2402500D03*
D12*
G36*
X1825000Y-2392000D02*
X1847000Y-2392000D01*
X1865000Y-2410000D01*
X1865000Y-2413000D01*
X1825000Y-2413000D01*
X1825000Y-2392000D01*
X1825000Y-2392000D01*
G37*
D21*
X1847000Y-2337500D03*
D12*
G36*
X1825000Y-2327000D02*
X1865000Y-2327000D01*
X1865000Y-2330000D01*
X1847000Y-2348000D01*
X1825000Y-2348000D01*
X1825000Y-2327000D01*
X1825000Y-2327000D01*
G37*
D21*
X1933000Y-2337500D03*
D12*
G36*
X1915000Y-2330000D02*
X1915000Y-2327000D01*
X1955000Y-2327000D01*
X1955000Y-2348000D01*
X1933000Y-2348000D01*
X1915000Y-2330000D01*
X1915000Y-2330000D01*
G37*
G04 #@! TD*
D22*
G04 #@! TO.C,U10*
X2677000Y-2218000D03*
X2677000Y-2158000D03*
X2617000Y-2218000D03*
X2617000Y-2158000D03*
G04 #@! TD*
D12*
G04 #@! TO.C,C1*
G36*
X1784829Y-1837138D02*
X1785601Y-1837253D01*
X1786358Y-1837442D01*
X1787092Y-1837705D01*
X1787798Y-1838039D01*
X1788467Y-1838440D01*
X1789093Y-1838905D01*
X1789671Y-1839428D01*
X1790195Y-1840007D01*
X1790660Y-1840633D01*
X1791061Y-1841302D01*
X1791395Y-1842008D01*
X1791658Y-1842742D01*
X1791847Y-1843499D01*
X1791962Y-1844271D01*
X1792000Y-1845050D01*
X1792000Y-1860950D01*
X1791962Y-1861729D01*
X1791847Y-1862501D01*
X1791658Y-1863258D01*
X1791395Y-1863992D01*
X1791061Y-1864698D01*
X1790660Y-1865367D01*
X1790195Y-1865993D01*
X1789671Y-1866571D01*
X1789093Y-1867095D01*
X1788467Y-1867560D01*
X1787798Y-1867961D01*
X1787092Y-1868295D01*
X1786358Y-1868558D01*
X1785601Y-1868747D01*
X1784829Y-1868862D01*
X1784050Y-1868900D01*
X1763950Y-1868900D01*
X1763171Y-1868862D01*
X1762399Y-1868747D01*
X1761642Y-1868558D01*
X1760908Y-1868295D01*
X1760202Y-1867961D01*
X1759533Y-1867560D01*
X1758907Y-1867095D01*
X1758328Y-1866571D01*
X1757805Y-1865993D01*
X1757340Y-1865367D01*
X1756939Y-1864698D01*
X1756605Y-1863992D01*
X1756342Y-1863258D01*
X1756153Y-1862501D01*
X1756038Y-1861729D01*
X1756000Y-1860950D01*
X1756000Y-1845050D01*
X1756038Y-1844271D01*
X1756153Y-1843499D01*
X1756342Y-1842742D01*
X1756605Y-1842008D01*
X1756939Y-1841302D01*
X1757340Y-1840633D01*
X1757805Y-1840007D01*
X1758328Y-1839428D01*
X1758907Y-1838905D01*
X1759533Y-1838440D01*
X1760202Y-1838039D01*
X1760908Y-1837705D01*
X1761642Y-1837442D01*
X1762399Y-1837253D01*
X1763171Y-1837138D01*
X1763950Y-1837100D01*
X1784050Y-1837100D01*
X1784829Y-1837138D01*
X1784829Y-1837138D01*
G37*
D14*
X1774000Y-1853000D03*
D12*
G36*
X1784829Y-1768138D02*
X1785601Y-1768253D01*
X1786358Y-1768442D01*
X1787092Y-1768705D01*
X1787798Y-1769039D01*
X1788467Y-1769440D01*
X1789093Y-1769905D01*
X1789671Y-1770428D01*
X1790195Y-1771007D01*
X1790660Y-1771633D01*
X1791061Y-1772302D01*
X1791395Y-1773008D01*
X1791658Y-1773742D01*
X1791847Y-1774499D01*
X1791962Y-1775271D01*
X1792000Y-1776050D01*
X1792000Y-1791950D01*
X1791962Y-1792729D01*
X1791847Y-1793501D01*
X1791658Y-1794258D01*
X1791395Y-1794992D01*
X1791061Y-1795698D01*
X1790660Y-1796367D01*
X1790195Y-1796993D01*
X1789671Y-1797571D01*
X1789093Y-1798095D01*
X1788467Y-1798560D01*
X1787798Y-1798961D01*
X1787092Y-1799295D01*
X1786358Y-1799558D01*
X1785601Y-1799747D01*
X1784829Y-1799862D01*
X1784050Y-1799900D01*
X1763950Y-1799900D01*
X1763171Y-1799862D01*
X1762399Y-1799747D01*
X1761642Y-1799558D01*
X1760908Y-1799295D01*
X1760202Y-1798961D01*
X1759533Y-1798560D01*
X1758907Y-1798095D01*
X1758328Y-1797571D01*
X1757805Y-1796993D01*
X1757340Y-1796367D01*
X1756939Y-1795698D01*
X1756605Y-1794992D01*
X1756342Y-1794258D01*
X1756153Y-1793501D01*
X1756038Y-1792729D01*
X1756000Y-1791950D01*
X1756000Y-1776050D01*
X1756038Y-1775271D01*
X1756153Y-1774499D01*
X1756342Y-1773742D01*
X1756605Y-1773008D01*
X1756939Y-1772302D01*
X1757340Y-1771633D01*
X1757805Y-1771007D01*
X1758328Y-1770428D01*
X1758907Y-1769905D01*
X1759533Y-1769440D01*
X1760202Y-1769039D01*
X1760908Y-1768705D01*
X1761642Y-1768442D01*
X1762399Y-1768253D01*
X1763171Y-1768138D01*
X1763950Y-1768100D01*
X1784050Y-1768100D01*
X1784829Y-1768138D01*
X1784829Y-1768138D01*
G37*
D14*
X1774000Y-1784000D03*
G04 #@! TD*
D12*
G04 #@! TO.C,C11*
G36*
X2454229Y-1756538D02*
X2455001Y-1756653D01*
X2455758Y-1756842D01*
X2456492Y-1757105D01*
X2457198Y-1757439D01*
X2457867Y-1757840D01*
X2458493Y-1758305D01*
X2459072Y-1758828D01*
X2459595Y-1759407D01*
X2460060Y-1760033D01*
X2460461Y-1760702D01*
X2460795Y-1761408D01*
X2461058Y-1762142D01*
X2461247Y-1762899D01*
X2461362Y-1763671D01*
X2461400Y-1764450D01*
X2461400Y-1784550D01*
X2461362Y-1785329D01*
X2461247Y-1786101D01*
X2461058Y-1786858D01*
X2460795Y-1787592D01*
X2460461Y-1788298D01*
X2460060Y-1788967D01*
X2459595Y-1789593D01*
X2459072Y-1790171D01*
X2458493Y-1790695D01*
X2457867Y-1791160D01*
X2457198Y-1791561D01*
X2456492Y-1791895D01*
X2455758Y-1792158D01*
X2455001Y-1792347D01*
X2454229Y-1792462D01*
X2453450Y-1792500D01*
X2437550Y-1792500D01*
X2436771Y-1792462D01*
X2435999Y-1792347D01*
X2435242Y-1792158D01*
X2434508Y-1791895D01*
X2433802Y-1791561D01*
X2433133Y-1791160D01*
X2432507Y-1790695D01*
X2431929Y-1790171D01*
X2431405Y-1789593D01*
X2430940Y-1788967D01*
X2430539Y-1788298D01*
X2430205Y-1787592D01*
X2429942Y-1786858D01*
X2429753Y-1786101D01*
X2429638Y-1785329D01*
X2429600Y-1784550D01*
X2429600Y-1764450D01*
X2429638Y-1763671D01*
X2429753Y-1762899D01*
X2429942Y-1762142D01*
X2430205Y-1761408D01*
X2430539Y-1760702D01*
X2430940Y-1760033D01*
X2431405Y-1759407D01*
X2431929Y-1758828D01*
X2432507Y-1758305D01*
X2433133Y-1757840D01*
X2433802Y-1757439D01*
X2434508Y-1757105D01*
X2435242Y-1756842D01*
X2435999Y-1756653D01*
X2436771Y-1756538D01*
X2437550Y-1756500D01*
X2453450Y-1756500D01*
X2454229Y-1756538D01*
X2454229Y-1756538D01*
G37*
D14*
X2445500Y-1774500D03*
D12*
G36*
X2385229Y-1756538D02*
X2386001Y-1756653D01*
X2386758Y-1756842D01*
X2387492Y-1757105D01*
X2388198Y-1757439D01*
X2388867Y-1757840D01*
X2389493Y-1758305D01*
X2390072Y-1758828D01*
X2390595Y-1759407D01*
X2391060Y-1760033D01*
X2391461Y-1760702D01*
X2391795Y-1761408D01*
X2392058Y-1762142D01*
X2392247Y-1762899D01*
X2392362Y-1763671D01*
X2392400Y-1764450D01*
X2392400Y-1784550D01*
X2392362Y-1785329D01*
X2392247Y-1786101D01*
X2392058Y-1786858D01*
X2391795Y-1787592D01*
X2391461Y-1788298D01*
X2391060Y-1788967D01*
X2390595Y-1789593D01*
X2390072Y-1790171D01*
X2389493Y-1790695D01*
X2388867Y-1791160D01*
X2388198Y-1791561D01*
X2387492Y-1791895D01*
X2386758Y-1792158D01*
X2386001Y-1792347D01*
X2385229Y-1792462D01*
X2384450Y-1792500D01*
X2368550Y-1792500D01*
X2367771Y-1792462D01*
X2366999Y-1792347D01*
X2366242Y-1792158D01*
X2365508Y-1791895D01*
X2364802Y-1791561D01*
X2364133Y-1791160D01*
X2363507Y-1790695D01*
X2362929Y-1790171D01*
X2362405Y-1789593D01*
X2361940Y-1788967D01*
X2361539Y-1788298D01*
X2361205Y-1787592D01*
X2360942Y-1786858D01*
X2360753Y-1786101D01*
X2360638Y-1785329D01*
X2360600Y-1784550D01*
X2360600Y-1764450D01*
X2360638Y-1763671D01*
X2360753Y-1762899D01*
X2360942Y-1762142D01*
X2361205Y-1761408D01*
X2361539Y-1760702D01*
X2361940Y-1760033D01*
X2362405Y-1759407D01*
X2362929Y-1758828D01*
X2363507Y-1758305D01*
X2364133Y-1757840D01*
X2364802Y-1757439D01*
X2365508Y-1757105D01*
X2366242Y-1756842D01*
X2366999Y-1756653D01*
X2367771Y-1756538D01*
X2368550Y-1756500D01*
X2384450Y-1756500D01*
X2385229Y-1756538D01*
X2385229Y-1756538D01*
G37*
D14*
X2376500Y-1774500D03*
G04 #@! TD*
D12*
G04 #@! TO.C,C17*
G36*
X2220829Y-2141138D02*
X2221601Y-2141253D01*
X2222358Y-2141442D01*
X2223092Y-2141705D01*
X2223798Y-2142039D01*
X2224467Y-2142440D01*
X2225093Y-2142905D01*
X2225672Y-2143429D01*
X2226195Y-2144007D01*
X2226660Y-2144633D01*
X2227061Y-2145302D01*
X2227395Y-2146008D01*
X2227658Y-2146742D01*
X2227847Y-2147499D01*
X2227962Y-2148271D01*
X2228000Y-2149050D01*
X2228000Y-2164950D01*
X2227962Y-2165729D01*
X2227847Y-2166501D01*
X2227658Y-2167258D01*
X2227395Y-2167992D01*
X2227061Y-2168698D01*
X2226660Y-2169367D01*
X2226195Y-2169993D01*
X2225672Y-2170572D01*
X2225093Y-2171095D01*
X2224467Y-2171560D01*
X2223798Y-2171961D01*
X2223092Y-2172295D01*
X2222358Y-2172558D01*
X2221601Y-2172747D01*
X2220829Y-2172862D01*
X2220050Y-2172900D01*
X2199950Y-2172900D01*
X2199171Y-2172862D01*
X2198399Y-2172747D01*
X2197642Y-2172558D01*
X2196908Y-2172295D01*
X2196202Y-2171961D01*
X2195533Y-2171560D01*
X2194907Y-2171095D01*
X2194329Y-2170572D01*
X2193805Y-2169993D01*
X2193340Y-2169367D01*
X2192939Y-2168698D01*
X2192605Y-2167992D01*
X2192342Y-2167258D01*
X2192153Y-2166501D01*
X2192038Y-2165729D01*
X2192000Y-2164950D01*
X2192000Y-2149050D01*
X2192038Y-2148271D01*
X2192153Y-2147499D01*
X2192342Y-2146742D01*
X2192605Y-2146008D01*
X2192939Y-2145302D01*
X2193340Y-2144633D01*
X2193805Y-2144007D01*
X2194329Y-2143429D01*
X2194907Y-2142905D01*
X2195533Y-2142440D01*
X2196202Y-2142039D01*
X2196908Y-2141705D01*
X2197642Y-2141442D01*
X2198399Y-2141253D01*
X2199171Y-2141138D01*
X2199950Y-2141100D01*
X2220050Y-2141100D01*
X2220829Y-2141138D01*
X2220829Y-2141138D01*
G37*
D14*
X2210000Y-2157000D03*
D12*
G36*
X2220829Y-2072138D02*
X2221601Y-2072253D01*
X2222358Y-2072442D01*
X2223092Y-2072705D01*
X2223798Y-2073039D01*
X2224467Y-2073440D01*
X2225093Y-2073905D01*
X2225672Y-2074428D01*
X2226195Y-2075007D01*
X2226660Y-2075633D01*
X2227061Y-2076302D01*
X2227395Y-2077008D01*
X2227658Y-2077742D01*
X2227847Y-2078499D01*
X2227962Y-2079271D01*
X2228000Y-2080050D01*
X2228000Y-2095950D01*
X2227962Y-2096729D01*
X2227847Y-2097501D01*
X2227658Y-2098258D01*
X2227395Y-2098992D01*
X2227061Y-2099698D01*
X2226660Y-2100367D01*
X2226195Y-2100993D01*
X2225672Y-2101572D01*
X2225093Y-2102095D01*
X2224467Y-2102560D01*
X2223798Y-2102961D01*
X2223092Y-2103295D01*
X2222358Y-2103558D01*
X2221601Y-2103747D01*
X2220829Y-2103862D01*
X2220050Y-2103900D01*
X2199950Y-2103900D01*
X2199171Y-2103862D01*
X2198399Y-2103747D01*
X2197642Y-2103558D01*
X2196908Y-2103295D01*
X2196202Y-2102961D01*
X2195533Y-2102560D01*
X2194907Y-2102095D01*
X2194329Y-2101572D01*
X2193805Y-2100993D01*
X2193340Y-2100367D01*
X2192939Y-2099698D01*
X2192605Y-2098992D01*
X2192342Y-2098258D01*
X2192153Y-2097501D01*
X2192038Y-2096729D01*
X2192000Y-2095950D01*
X2192000Y-2080050D01*
X2192038Y-2079271D01*
X2192153Y-2078499D01*
X2192342Y-2077742D01*
X2192605Y-2077008D01*
X2192939Y-2076302D01*
X2193340Y-2075633D01*
X2193805Y-2075007D01*
X2194329Y-2074428D01*
X2194907Y-2073905D01*
X2195533Y-2073440D01*
X2196202Y-2073039D01*
X2196908Y-2072705D01*
X2197642Y-2072442D01*
X2198399Y-2072253D01*
X2199171Y-2072138D01*
X2199950Y-2072100D01*
X2220050Y-2072100D01*
X2220829Y-2072138D01*
X2220829Y-2072138D01*
G37*
D14*
X2210000Y-2088000D03*
G04 #@! TD*
D12*
G04 #@! TO.C,C20*
G36*
X2290829Y-2141138D02*
X2291601Y-2141253D01*
X2292358Y-2141442D01*
X2293092Y-2141705D01*
X2293798Y-2142039D01*
X2294467Y-2142440D01*
X2295093Y-2142905D01*
X2295672Y-2143429D01*
X2296195Y-2144007D01*
X2296660Y-2144633D01*
X2297061Y-2145302D01*
X2297395Y-2146008D01*
X2297658Y-2146742D01*
X2297847Y-2147499D01*
X2297962Y-2148271D01*
X2298000Y-2149050D01*
X2298000Y-2164950D01*
X2297962Y-2165729D01*
X2297847Y-2166501D01*
X2297658Y-2167258D01*
X2297395Y-2167992D01*
X2297061Y-2168698D01*
X2296660Y-2169367D01*
X2296195Y-2169993D01*
X2295672Y-2170572D01*
X2295093Y-2171095D01*
X2294467Y-2171560D01*
X2293798Y-2171961D01*
X2293092Y-2172295D01*
X2292358Y-2172558D01*
X2291601Y-2172747D01*
X2290829Y-2172862D01*
X2290050Y-2172900D01*
X2269950Y-2172900D01*
X2269171Y-2172862D01*
X2268399Y-2172747D01*
X2267642Y-2172558D01*
X2266908Y-2172295D01*
X2266202Y-2171961D01*
X2265533Y-2171560D01*
X2264907Y-2171095D01*
X2264329Y-2170572D01*
X2263805Y-2169993D01*
X2263340Y-2169367D01*
X2262939Y-2168698D01*
X2262605Y-2167992D01*
X2262342Y-2167258D01*
X2262153Y-2166501D01*
X2262038Y-2165729D01*
X2262000Y-2164950D01*
X2262000Y-2149050D01*
X2262038Y-2148271D01*
X2262153Y-2147499D01*
X2262342Y-2146742D01*
X2262605Y-2146008D01*
X2262939Y-2145302D01*
X2263340Y-2144633D01*
X2263805Y-2144007D01*
X2264329Y-2143429D01*
X2264907Y-2142905D01*
X2265533Y-2142440D01*
X2266202Y-2142039D01*
X2266908Y-2141705D01*
X2267642Y-2141442D01*
X2268399Y-2141253D01*
X2269171Y-2141138D01*
X2269950Y-2141100D01*
X2290050Y-2141100D01*
X2290829Y-2141138D01*
X2290829Y-2141138D01*
G37*
D14*
X2280000Y-2157000D03*
D12*
G36*
X2290829Y-2072138D02*
X2291601Y-2072253D01*
X2292358Y-2072442D01*
X2293092Y-2072705D01*
X2293798Y-2073039D01*
X2294467Y-2073440D01*
X2295093Y-2073905D01*
X2295672Y-2074428D01*
X2296195Y-2075007D01*
X2296660Y-2075633D01*
X2297061Y-2076302D01*
X2297395Y-2077008D01*
X2297658Y-2077742D01*
X2297847Y-2078499D01*
X2297962Y-2079271D01*
X2298000Y-2080050D01*
X2298000Y-2095950D01*
X2297962Y-2096729D01*
X2297847Y-2097501D01*
X2297658Y-2098258D01*
X2297395Y-2098992D01*
X2297061Y-2099698D01*
X2296660Y-2100367D01*
X2296195Y-2100993D01*
X2295672Y-2101572D01*
X2295093Y-2102095D01*
X2294467Y-2102560D01*
X2293798Y-2102961D01*
X2293092Y-2103295D01*
X2292358Y-2103558D01*
X2291601Y-2103747D01*
X2290829Y-2103862D01*
X2290050Y-2103900D01*
X2269950Y-2103900D01*
X2269171Y-2103862D01*
X2268399Y-2103747D01*
X2267642Y-2103558D01*
X2266908Y-2103295D01*
X2266202Y-2102961D01*
X2265533Y-2102560D01*
X2264907Y-2102095D01*
X2264329Y-2101572D01*
X2263805Y-2100993D01*
X2263340Y-2100367D01*
X2262939Y-2099698D01*
X2262605Y-2098992D01*
X2262342Y-2098258D01*
X2262153Y-2097501D01*
X2262038Y-2096729D01*
X2262000Y-2095950D01*
X2262000Y-2080050D01*
X2262038Y-2079271D01*
X2262153Y-2078499D01*
X2262342Y-2077742D01*
X2262605Y-2077008D01*
X2262939Y-2076302D01*
X2263340Y-2075633D01*
X2263805Y-2075007D01*
X2264329Y-2074428D01*
X2264907Y-2073905D01*
X2265533Y-2073440D01*
X2266202Y-2073039D01*
X2266908Y-2072705D01*
X2267642Y-2072442D01*
X2268399Y-2072253D01*
X2269171Y-2072138D01*
X2269950Y-2072100D01*
X2290050Y-2072100D01*
X2290829Y-2072138D01*
X2290829Y-2072138D01*
G37*
D14*
X2280000Y-2088000D03*
G04 #@! TD*
D12*
G04 #@! TO.C,C21*
G36*
X2604229Y-2014538D02*
X2605001Y-2014653D01*
X2605758Y-2014842D01*
X2606492Y-2015105D01*
X2607198Y-2015439D01*
X2607867Y-2015840D01*
X2608493Y-2016305D01*
X2609072Y-2016828D01*
X2609595Y-2017407D01*
X2610060Y-2018033D01*
X2610461Y-2018702D01*
X2610795Y-2019408D01*
X2611058Y-2020142D01*
X2611247Y-2020899D01*
X2611362Y-2021671D01*
X2611400Y-2022450D01*
X2611400Y-2042550D01*
X2611362Y-2043329D01*
X2611247Y-2044101D01*
X2611058Y-2044858D01*
X2610795Y-2045592D01*
X2610461Y-2046298D01*
X2610060Y-2046967D01*
X2609595Y-2047593D01*
X2609072Y-2048171D01*
X2608493Y-2048695D01*
X2607867Y-2049160D01*
X2607198Y-2049561D01*
X2606492Y-2049895D01*
X2605758Y-2050158D01*
X2605001Y-2050347D01*
X2604229Y-2050462D01*
X2603450Y-2050500D01*
X2587550Y-2050500D01*
X2586771Y-2050462D01*
X2585999Y-2050347D01*
X2585242Y-2050158D01*
X2584508Y-2049895D01*
X2583802Y-2049561D01*
X2583133Y-2049160D01*
X2582507Y-2048695D01*
X2581929Y-2048171D01*
X2581405Y-2047593D01*
X2580940Y-2046967D01*
X2580539Y-2046298D01*
X2580205Y-2045592D01*
X2579942Y-2044858D01*
X2579753Y-2044101D01*
X2579638Y-2043329D01*
X2579600Y-2042550D01*
X2579600Y-2022450D01*
X2579638Y-2021671D01*
X2579753Y-2020899D01*
X2579942Y-2020142D01*
X2580205Y-2019408D01*
X2580539Y-2018702D01*
X2580940Y-2018033D01*
X2581405Y-2017407D01*
X2581929Y-2016828D01*
X2582507Y-2016305D01*
X2583133Y-2015840D01*
X2583802Y-2015439D01*
X2584508Y-2015105D01*
X2585242Y-2014842D01*
X2585999Y-2014653D01*
X2586771Y-2014538D01*
X2587550Y-2014500D01*
X2603450Y-2014500D01*
X2604229Y-2014538D01*
X2604229Y-2014538D01*
G37*
D14*
X2595500Y-2032500D03*
D12*
G36*
X2673229Y-2014538D02*
X2674001Y-2014653D01*
X2674758Y-2014842D01*
X2675492Y-2015105D01*
X2676198Y-2015439D01*
X2676867Y-2015840D01*
X2677493Y-2016305D01*
X2678072Y-2016828D01*
X2678595Y-2017407D01*
X2679060Y-2018033D01*
X2679461Y-2018702D01*
X2679795Y-2019408D01*
X2680058Y-2020142D01*
X2680247Y-2020899D01*
X2680362Y-2021671D01*
X2680400Y-2022450D01*
X2680400Y-2042550D01*
X2680362Y-2043329D01*
X2680247Y-2044101D01*
X2680058Y-2044858D01*
X2679795Y-2045592D01*
X2679461Y-2046298D01*
X2679060Y-2046967D01*
X2678595Y-2047593D01*
X2678072Y-2048171D01*
X2677493Y-2048695D01*
X2676867Y-2049160D01*
X2676198Y-2049561D01*
X2675492Y-2049895D01*
X2674758Y-2050158D01*
X2674001Y-2050347D01*
X2673229Y-2050462D01*
X2672450Y-2050500D01*
X2656550Y-2050500D01*
X2655771Y-2050462D01*
X2654999Y-2050347D01*
X2654242Y-2050158D01*
X2653508Y-2049895D01*
X2652802Y-2049561D01*
X2652133Y-2049160D01*
X2651507Y-2048695D01*
X2650929Y-2048171D01*
X2650405Y-2047593D01*
X2649940Y-2046967D01*
X2649539Y-2046298D01*
X2649205Y-2045592D01*
X2648942Y-2044858D01*
X2648753Y-2044101D01*
X2648638Y-2043329D01*
X2648600Y-2042550D01*
X2648600Y-2022450D01*
X2648638Y-2021671D01*
X2648753Y-2020899D01*
X2648942Y-2020142D01*
X2649205Y-2019408D01*
X2649539Y-2018702D01*
X2649940Y-2018033D01*
X2650405Y-2017407D01*
X2650929Y-2016828D01*
X2651507Y-2016305D01*
X2652133Y-2015840D01*
X2652802Y-2015439D01*
X2653508Y-2015105D01*
X2654242Y-2014842D01*
X2654999Y-2014653D01*
X2655771Y-2014538D01*
X2656550Y-2014500D01*
X2672450Y-2014500D01*
X2673229Y-2014538D01*
X2673229Y-2014538D01*
G37*
D14*
X2664500Y-2032500D03*
G04 #@! TD*
D12*
G04 #@! TO.C,C24*
G36*
X2524229Y-2472038D02*
X2525001Y-2472153D01*
X2525758Y-2472342D01*
X2526492Y-2472605D01*
X2527198Y-2472939D01*
X2527867Y-2473340D01*
X2528493Y-2473805D01*
X2529072Y-2474329D01*
X2529595Y-2474907D01*
X2530060Y-2475533D01*
X2530461Y-2476202D01*
X2530795Y-2476908D01*
X2531058Y-2477642D01*
X2531247Y-2478399D01*
X2531362Y-2479171D01*
X2531400Y-2479950D01*
X2531400Y-2500050D01*
X2531362Y-2500829D01*
X2531247Y-2501601D01*
X2531058Y-2502358D01*
X2530795Y-2503092D01*
X2530461Y-2503798D01*
X2530060Y-2504467D01*
X2529595Y-2505093D01*
X2529072Y-2505672D01*
X2528493Y-2506195D01*
X2527867Y-2506660D01*
X2527198Y-2507061D01*
X2526492Y-2507395D01*
X2525758Y-2507658D01*
X2525001Y-2507847D01*
X2524229Y-2507962D01*
X2523450Y-2508000D01*
X2507550Y-2508000D01*
X2506771Y-2507962D01*
X2505999Y-2507847D01*
X2505242Y-2507658D01*
X2504508Y-2507395D01*
X2503802Y-2507061D01*
X2503133Y-2506660D01*
X2502507Y-2506195D01*
X2501929Y-2505672D01*
X2501405Y-2505093D01*
X2500940Y-2504467D01*
X2500539Y-2503798D01*
X2500205Y-2503092D01*
X2499942Y-2502358D01*
X2499753Y-2501601D01*
X2499638Y-2500829D01*
X2499600Y-2500050D01*
X2499600Y-2479950D01*
X2499638Y-2479171D01*
X2499753Y-2478399D01*
X2499942Y-2477642D01*
X2500205Y-2476908D01*
X2500539Y-2476202D01*
X2500940Y-2475533D01*
X2501405Y-2474907D01*
X2501929Y-2474329D01*
X2502507Y-2473805D01*
X2503133Y-2473340D01*
X2503802Y-2472939D01*
X2504508Y-2472605D01*
X2505242Y-2472342D01*
X2505999Y-2472153D01*
X2506771Y-2472038D01*
X2507550Y-2472000D01*
X2523450Y-2472000D01*
X2524229Y-2472038D01*
X2524229Y-2472038D01*
G37*
D14*
X2515500Y-2490000D03*
D12*
G36*
X2593229Y-2472038D02*
X2594001Y-2472153D01*
X2594758Y-2472342D01*
X2595492Y-2472605D01*
X2596198Y-2472939D01*
X2596867Y-2473340D01*
X2597493Y-2473805D01*
X2598072Y-2474329D01*
X2598595Y-2474907D01*
X2599060Y-2475533D01*
X2599461Y-2476202D01*
X2599795Y-2476908D01*
X2600058Y-2477642D01*
X2600247Y-2478399D01*
X2600362Y-2479171D01*
X2600400Y-2479950D01*
X2600400Y-2500050D01*
X2600362Y-2500829D01*
X2600247Y-2501601D01*
X2600058Y-2502358D01*
X2599795Y-2503092D01*
X2599461Y-2503798D01*
X2599060Y-2504467D01*
X2598595Y-2505093D01*
X2598072Y-2505672D01*
X2597493Y-2506195D01*
X2596867Y-2506660D01*
X2596198Y-2507061D01*
X2595492Y-2507395D01*
X2594758Y-2507658D01*
X2594001Y-2507847D01*
X2593229Y-2507962D01*
X2592450Y-2508000D01*
X2576550Y-2508000D01*
X2575771Y-2507962D01*
X2574999Y-2507847D01*
X2574242Y-2507658D01*
X2573508Y-2507395D01*
X2572802Y-2507061D01*
X2572133Y-2506660D01*
X2571507Y-2506195D01*
X2570929Y-2505672D01*
X2570405Y-2505093D01*
X2569940Y-2504467D01*
X2569539Y-2503798D01*
X2569205Y-2503092D01*
X2568942Y-2502358D01*
X2568753Y-2501601D01*
X2568638Y-2500829D01*
X2568600Y-2500050D01*
X2568600Y-2479950D01*
X2568638Y-2479171D01*
X2568753Y-2478399D01*
X2568942Y-2477642D01*
X2569205Y-2476908D01*
X2569539Y-2476202D01*
X2569940Y-2475533D01*
X2570405Y-2474907D01*
X2570929Y-2474329D01*
X2571507Y-2473805D01*
X2572133Y-2473340D01*
X2572802Y-2472939D01*
X2573508Y-2472605D01*
X2574242Y-2472342D01*
X2574999Y-2472153D01*
X2575771Y-2472038D01*
X2576550Y-2472000D01*
X2592450Y-2472000D01*
X2593229Y-2472038D01*
X2593229Y-2472038D01*
G37*
D14*
X2584500Y-2490000D03*
G04 #@! TD*
D12*
G04 #@! TO.C,C25*
G36*
X2604229Y-1944538D02*
X2605001Y-1944653D01*
X2605758Y-1944842D01*
X2606492Y-1945105D01*
X2607198Y-1945439D01*
X2607867Y-1945840D01*
X2608493Y-1946305D01*
X2609072Y-1946828D01*
X2609595Y-1947407D01*
X2610060Y-1948033D01*
X2610461Y-1948702D01*
X2610795Y-1949408D01*
X2611058Y-1950142D01*
X2611247Y-1950899D01*
X2611362Y-1951671D01*
X2611400Y-1952450D01*
X2611400Y-1972550D01*
X2611362Y-1973329D01*
X2611247Y-1974101D01*
X2611058Y-1974858D01*
X2610795Y-1975592D01*
X2610461Y-1976298D01*
X2610060Y-1976967D01*
X2609595Y-1977593D01*
X2609072Y-1978171D01*
X2608493Y-1978695D01*
X2607867Y-1979160D01*
X2607198Y-1979561D01*
X2606492Y-1979895D01*
X2605758Y-1980158D01*
X2605001Y-1980347D01*
X2604229Y-1980462D01*
X2603450Y-1980500D01*
X2587550Y-1980500D01*
X2586771Y-1980462D01*
X2585999Y-1980347D01*
X2585242Y-1980158D01*
X2584508Y-1979895D01*
X2583802Y-1979561D01*
X2583133Y-1979160D01*
X2582507Y-1978695D01*
X2581929Y-1978171D01*
X2581405Y-1977593D01*
X2580940Y-1976967D01*
X2580539Y-1976298D01*
X2580205Y-1975592D01*
X2579942Y-1974858D01*
X2579753Y-1974101D01*
X2579638Y-1973329D01*
X2579600Y-1972550D01*
X2579600Y-1952450D01*
X2579638Y-1951671D01*
X2579753Y-1950899D01*
X2579942Y-1950142D01*
X2580205Y-1949408D01*
X2580539Y-1948702D01*
X2580940Y-1948033D01*
X2581405Y-1947407D01*
X2581929Y-1946828D01*
X2582507Y-1946305D01*
X2583133Y-1945840D01*
X2583802Y-1945439D01*
X2584508Y-1945105D01*
X2585242Y-1944842D01*
X2585999Y-1944653D01*
X2586771Y-1944538D01*
X2587550Y-1944500D01*
X2603450Y-1944500D01*
X2604229Y-1944538D01*
X2604229Y-1944538D01*
G37*
D14*
X2595500Y-1962500D03*
D12*
G36*
X2673229Y-1944538D02*
X2674001Y-1944653D01*
X2674758Y-1944842D01*
X2675492Y-1945105D01*
X2676198Y-1945439D01*
X2676867Y-1945840D01*
X2677493Y-1946305D01*
X2678072Y-1946828D01*
X2678595Y-1947407D01*
X2679060Y-1948033D01*
X2679461Y-1948702D01*
X2679795Y-1949408D01*
X2680058Y-1950142D01*
X2680247Y-1950899D01*
X2680362Y-1951671D01*
X2680400Y-1952450D01*
X2680400Y-1972550D01*
X2680362Y-1973329D01*
X2680247Y-1974101D01*
X2680058Y-1974858D01*
X2679795Y-1975592D01*
X2679461Y-1976298D01*
X2679060Y-1976967D01*
X2678595Y-1977593D01*
X2678072Y-1978171D01*
X2677493Y-1978695D01*
X2676867Y-1979160D01*
X2676198Y-1979561D01*
X2675492Y-1979895D01*
X2674758Y-1980158D01*
X2674001Y-1980347D01*
X2673229Y-1980462D01*
X2672450Y-1980500D01*
X2656550Y-1980500D01*
X2655771Y-1980462D01*
X2654999Y-1980347D01*
X2654242Y-1980158D01*
X2653508Y-1979895D01*
X2652802Y-1979561D01*
X2652133Y-1979160D01*
X2651507Y-1978695D01*
X2650929Y-1978171D01*
X2650405Y-1977593D01*
X2649940Y-1976967D01*
X2649539Y-1976298D01*
X2649205Y-1975592D01*
X2648942Y-1974858D01*
X2648753Y-1974101D01*
X2648638Y-1973329D01*
X2648600Y-1972550D01*
X2648600Y-1952450D01*
X2648638Y-1951671D01*
X2648753Y-1950899D01*
X2648942Y-1950142D01*
X2649205Y-1949408D01*
X2649539Y-1948702D01*
X2649940Y-1948033D01*
X2650405Y-1947407D01*
X2650929Y-1946828D01*
X2651507Y-1946305D01*
X2652133Y-1945840D01*
X2652802Y-1945439D01*
X2653508Y-1945105D01*
X2654242Y-1944842D01*
X2654999Y-1944653D01*
X2655771Y-1944538D01*
X2656550Y-1944500D01*
X2672450Y-1944500D01*
X2673229Y-1944538D01*
X2673229Y-1944538D01*
G37*
D14*
X2664500Y-1962500D03*
G04 #@! TD*
D12*
G04 #@! TO.C,C2*
G36*
X1815829Y-2469638D02*
X1816601Y-2469753D01*
X1817358Y-2469942D01*
X1818092Y-2470205D01*
X1818798Y-2470539D01*
X1819467Y-2470940D01*
X1820093Y-2471405D01*
X1820671Y-2471929D01*
X1821195Y-2472507D01*
X1821660Y-2473133D01*
X1822061Y-2473802D01*
X1822395Y-2474508D01*
X1822658Y-2475242D01*
X1822847Y-2475999D01*
X1822962Y-2476771D01*
X1823000Y-2477550D01*
X1823000Y-2493450D01*
X1822962Y-2494229D01*
X1822847Y-2495001D01*
X1822658Y-2495758D01*
X1822395Y-2496492D01*
X1822061Y-2497198D01*
X1821660Y-2497867D01*
X1821195Y-2498493D01*
X1820671Y-2499072D01*
X1820093Y-2499595D01*
X1819467Y-2500060D01*
X1818798Y-2500461D01*
X1818092Y-2500795D01*
X1817358Y-2501058D01*
X1816601Y-2501247D01*
X1815829Y-2501362D01*
X1815050Y-2501400D01*
X1794950Y-2501400D01*
X1794171Y-2501362D01*
X1793399Y-2501247D01*
X1792642Y-2501058D01*
X1791908Y-2500795D01*
X1791202Y-2500461D01*
X1790533Y-2500060D01*
X1789907Y-2499595D01*
X1789328Y-2499072D01*
X1788805Y-2498493D01*
X1788340Y-2497867D01*
X1787939Y-2497198D01*
X1787605Y-2496492D01*
X1787342Y-2495758D01*
X1787153Y-2495001D01*
X1787038Y-2494229D01*
X1787000Y-2493450D01*
X1787000Y-2477550D01*
X1787038Y-2476771D01*
X1787153Y-2475999D01*
X1787342Y-2475242D01*
X1787605Y-2474508D01*
X1787939Y-2473802D01*
X1788340Y-2473133D01*
X1788805Y-2472507D01*
X1789328Y-2471929D01*
X1789907Y-2471405D01*
X1790533Y-2470940D01*
X1791202Y-2470539D01*
X1791908Y-2470205D01*
X1792642Y-2469942D01*
X1793399Y-2469753D01*
X1794171Y-2469638D01*
X1794950Y-2469600D01*
X1815050Y-2469600D01*
X1815829Y-2469638D01*
X1815829Y-2469638D01*
G37*
D14*
X1805000Y-2485500D03*
D12*
G36*
X1815829Y-2538638D02*
X1816601Y-2538753D01*
X1817358Y-2538942D01*
X1818092Y-2539205D01*
X1818798Y-2539539D01*
X1819467Y-2539940D01*
X1820093Y-2540405D01*
X1820671Y-2540929D01*
X1821195Y-2541507D01*
X1821660Y-2542133D01*
X1822061Y-2542802D01*
X1822395Y-2543508D01*
X1822658Y-2544242D01*
X1822847Y-2544999D01*
X1822962Y-2545771D01*
X1823000Y-2546550D01*
X1823000Y-2562450D01*
X1822962Y-2563229D01*
X1822847Y-2564001D01*
X1822658Y-2564758D01*
X1822395Y-2565492D01*
X1822061Y-2566198D01*
X1821660Y-2566867D01*
X1821195Y-2567493D01*
X1820671Y-2568072D01*
X1820093Y-2568595D01*
X1819467Y-2569060D01*
X1818798Y-2569461D01*
X1818092Y-2569795D01*
X1817358Y-2570058D01*
X1816601Y-2570247D01*
X1815829Y-2570362D01*
X1815050Y-2570400D01*
X1794950Y-2570400D01*
X1794171Y-2570362D01*
X1793399Y-2570247D01*
X1792642Y-2570058D01*
X1791908Y-2569795D01*
X1791202Y-2569461D01*
X1790533Y-2569060D01*
X1789907Y-2568595D01*
X1789328Y-2568072D01*
X1788805Y-2567493D01*
X1788340Y-2566867D01*
X1787939Y-2566198D01*
X1787605Y-2565492D01*
X1787342Y-2564758D01*
X1787153Y-2564001D01*
X1787038Y-2563229D01*
X1787000Y-2562450D01*
X1787000Y-2546550D01*
X1787038Y-2545771D01*
X1787153Y-2544999D01*
X1787342Y-2544242D01*
X1787605Y-2543508D01*
X1787939Y-2542802D01*
X1788340Y-2542133D01*
X1788805Y-2541507D01*
X1789328Y-2540929D01*
X1789907Y-2540405D01*
X1790533Y-2539940D01*
X1791202Y-2539539D01*
X1791908Y-2539205D01*
X1792642Y-2538942D01*
X1793399Y-2538753D01*
X1794171Y-2538638D01*
X1794950Y-2538600D01*
X1815050Y-2538600D01*
X1815829Y-2538638D01*
X1815829Y-2538638D01*
G37*
D14*
X1805000Y-2554500D03*
G04 #@! TD*
D12*
G04 #@! TO.C,C3*
G36*
X1784829Y-1919138D02*
X1785601Y-1919253D01*
X1786358Y-1919442D01*
X1787092Y-1919705D01*
X1787798Y-1920039D01*
X1788467Y-1920440D01*
X1789093Y-1920905D01*
X1789671Y-1921428D01*
X1790195Y-1922007D01*
X1790660Y-1922633D01*
X1791061Y-1923302D01*
X1791395Y-1924008D01*
X1791658Y-1924742D01*
X1791847Y-1925499D01*
X1791962Y-1926271D01*
X1792000Y-1927050D01*
X1792000Y-1942950D01*
X1791962Y-1943729D01*
X1791847Y-1944501D01*
X1791658Y-1945258D01*
X1791395Y-1945992D01*
X1791061Y-1946698D01*
X1790660Y-1947367D01*
X1790195Y-1947993D01*
X1789671Y-1948571D01*
X1789093Y-1949095D01*
X1788467Y-1949560D01*
X1787798Y-1949961D01*
X1787092Y-1950295D01*
X1786358Y-1950558D01*
X1785601Y-1950747D01*
X1784829Y-1950862D01*
X1784050Y-1950900D01*
X1763950Y-1950900D01*
X1763171Y-1950862D01*
X1762399Y-1950747D01*
X1761642Y-1950558D01*
X1760908Y-1950295D01*
X1760202Y-1949961D01*
X1759533Y-1949560D01*
X1758907Y-1949095D01*
X1758328Y-1948571D01*
X1757805Y-1947993D01*
X1757340Y-1947367D01*
X1756939Y-1946698D01*
X1756605Y-1945992D01*
X1756342Y-1945258D01*
X1756153Y-1944501D01*
X1756038Y-1943729D01*
X1756000Y-1942950D01*
X1756000Y-1927050D01*
X1756038Y-1926271D01*
X1756153Y-1925499D01*
X1756342Y-1924742D01*
X1756605Y-1924008D01*
X1756939Y-1923302D01*
X1757340Y-1922633D01*
X1757805Y-1922007D01*
X1758328Y-1921428D01*
X1758907Y-1920905D01*
X1759533Y-1920440D01*
X1760202Y-1920039D01*
X1760908Y-1919705D01*
X1761642Y-1919442D01*
X1762399Y-1919253D01*
X1763171Y-1919138D01*
X1763950Y-1919100D01*
X1784050Y-1919100D01*
X1784829Y-1919138D01*
X1784829Y-1919138D01*
G37*
D14*
X1774000Y-1935000D03*
D12*
G36*
X1784829Y-1988138D02*
X1785601Y-1988253D01*
X1786358Y-1988442D01*
X1787092Y-1988705D01*
X1787798Y-1989039D01*
X1788467Y-1989440D01*
X1789093Y-1989905D01*
X1789671Y-1990428D01*
X1790195Y-1991007D01*
X1790660Y-1991633D01*
X1791061Y-1992302D01*
X1791395Y-1993008D01*
X1791658Y-1993742D01*
X1791847Y-1994499D01*
X1791962Y-1995271D01*
X1792000Y-1996050D01*
X1792000Y-2011950D01*
X1791962Y-2012729D01*
X1791847Y-2013501D01*
X1791658Y-2014258D01*
X1791395Y-2014992D01*
X1791061Y-2015698D01*
X1790660Y-2016367D01*
X1790195Y-2016993D01*
X1789671Y-2017571D01*
X1789093Y-2018095D01*
X1788467Y-2018560D01*
X1787798Y-2018961D01*
X1787092Y-2019295D01*
X1786358Y-2019558D01*
X1785601Y-2019747D01*
X1784829Y-2019862D01*
X1784050Y-2019900D01*
X1763950Y-2019900D01*
X1763171Y-2019862D01*
X1762399Y-2019747D01*
X1761642Y-2019558D01*
X1760908Y-2019295D01*
X1760202Y-2018961D01*
X1759533Y-2018560D01*
X1758907Y-2018095D01*
X1758328Y-2017571D01*
X1757805Y-2016993D01*
X1757340Y-2016367D01*
X1756939Y-2015698D01*
X1756605Y-2014992D01*
X1756342Y-2014258D01*
X1756153Y-2013501D01*
X1756038Y-2012729D01*
X1756000Y-2011950D01*
X1756000Y-1996050D01*
X1756038Y-1995271D01*
X1756153Y-1994499D01*
X1756342Y-1993742D01*
X1756605Y-1993008D01*
X1756939Y-1992302D01*
X1757340Y-1991633D01*
X1757805Y-1991007D01*
X1758328Y-1990428D01*
X1758907Y-1989905D01*
X1759533Y-1989440D01*
X1760202Y-1989039D01*
X1760908Y-1988705D01*
X1761642Y-1988442D01*
X1762399Y-1988253D01*
X1763171Y-1988138D01*
X1763950Y-1988100D01*
X1784050Y-1988100D01*
X1784829Y-1988138D01*
X1784829Y-1988138D01*
G37*
D14*
X1774000Y-2004000D03*
G04 #@! TD*
D12*
G04 #@! TO.C,C4*
G36*
X2069229Y-2236538D02*
X2070001Y-2236653D01*
X2070758Y-2236842D01*
X2071492Y-2237105D01*
X2072198Y-2237439D01*
X2072867Y-2237840D01*
X2073493Y-2238305D01*
X2074071Y-2238829D01*
X2074595Y-2239407D01*
X2075060Y-2240033D01*
X2075461Y-2240702D01*
X2075795Y-2241408D01*
X2076058Y-2242142D01*
X2076247Y-2242899D01*
X2076362Y-2243671D01*
X2076400Y-2244450D01*
X2076400Y-2264550D01*
X2076362Y-2265329D01*
X2076247Y-2266101D01*
X2076058Y-2266858D01*
X2075795Y-2267592D01*
X2075461Y-2268298D01*
X2075060Y-2268967D01*
X2074595Y-2269593D01*
X2074071Y-2270172D01*
X2073493Y-2270695D01*
X2072867Y-2271160D01*
X2072198Y-2271561D01*
X2071492Y-2271895D01*
X2070758Y-2272158D01*
X2070001Y-2272347D01*
X2069229Y-2272462D01*
X2068450Y-2272500D01*
X2052550Y-2272500D01*
X2051771Y-2272462D01*
X2050999Y-2272347D01*
X2050242Y-2272158D01*
X2049508Y-2271895D01*
X2048802Y-2271561D01*
X2048133Y-2271160D01*
X2047507Y-2270695D01*
X2046928Y-2270172D01*
X2046405Y-2269593D01*
X2045940Y-2268967D01*
X2045539Y-2268298D01*
X2045205Y-2267592D01*
X2044942Y-2266858D01*
X2044753Y-2266101D01*
X2044638Y-2265329D01*
X2044600Y-2264550D01*
X2044600Y-2244450D01*
X2044638Y-2243671D01*
X2044753Y-2242899D01*
X2044942Y-2242142D01*
X2045205Y-2241408D01*
X2045539Y-2240702D01*
X2045940Y-2240033D01*
X2046405Y-2239407D01*
X2046928Y-2238829D01*
X2047507Y-2238305D01*
X2048133Y-2237840D01*
X2048802Y-2237439D01*
X2049508Y-2237105D01*
X2050242Y-2236842D01*
X2050999Y-2236653D01*
X2051771Y-2236538D01*
X2052550Y-2236500D01*
X2068450Y-2236500D01*
X2069229Y-2236538D01*
X2069229Y-2236538D01*
G37*
D14*
X2060500Y-2254500D03*
D12*
G36*
X2138229Y-2236538D02*
X2139001Y-2236653D01*
X2139758Y-2236842D01*
X2140492Y-2237105D01*
X2141198Y-2237439D01*
X2141867Y-2237840D01*
X2142493Y-2238305D01*
X2143072Y-2238829D01*
X2143595Y-2239407D01*
X2144060Y-2240033D01*
X2144461Y-2240702D01*
X2144795Y-2241408D01*
X2145058Y-2242142D01*
X2145247Y-2242899D01*
X2145362Y-2243671D01*
X2145400Y-2244450D01*
X2145400Y-2264550D01*
X2145362Y-2265329D01*
X2145247Y-2266101D01*
X2145058Y-2266858D01*
X2144795Y-2267592D01*
X2144461Y-2268298D01*
X2144060Y-2268967D01*
X2143595Y-2269593D01*
X2143072Y-2270172D01*
X2142493Y-2270695D01*
X2141867Y-2271160D01*
X2141198Y-2271561D01*
X2140492Y-2271895D01*
X2139758Y-2272158D01*
X2139001Y-2272347D01*
X2138229Y-2272462D01*
X2137450Y-2272500D01*
X2121550Y-2272500D01*
X2120771Y-2272462D01*
X2119999Y-2272347D01*
X2119242Y-2272158D01*
X2118508Y-2271895D01*
X2117802Y-2271561D01*
X2117133Y-2271160D01*
X2116507Y-2270695D01*
X2115929Y-2270172D01*
X2115405Y-2269593D01*
X2114940Y-2268967D01*
X2114539Y-2268298D01*
X2114205Y-2267592D01*
X2113942Y-2266858D01*
X2113753Y-2266101D01*
X2113638Y-2265329D01*
X2113600Y-2264550D01*
X2113600Y-2244450D01*
X2113638Y-2243671D01*
X2113753Y-2242899D01*
X2113942Y-2242142D01*
X2114205Y-2241408D01*
X2114539Y-2240702D01*
X2114940Y-2240033D01*
X2115405Y-2239407D01*
X2115929Y-2238829D01*
X2116507Y-2238305D01*
X2117133Y-2237840D01*
X2117802Y-2237439D01*
X2118508Y-2237105D01*
X2119242Y-2236842D01*
X2119999Y-2236653D01*
X2120771Y-2236538D01*
X2121550Y-2236500D01*
X2137450Y-2236500D01*
X2138229Y-2236538D01*
X2138229Y-2236538D01*
G37*
D14*
X2129500Y-2254500D03*
G04 #@! TD*
D12*
G04 #@! TO.C,C5*
G36*
X2220829Y-2212138D02*
X2221601Y-2212253D01*
X2222358Y-2212442D01*
X2223092Y-2212705D01*
X2223798Y-2213039D01*
X2224467Y-2213440D01*
X2225093Y-2213905D01*
X2225672Y-2214429D01*
X2226195Y-2215007D01*
X2226660Y-2215633D01*
X2227061Y-2216302D01*
X2227395Y-2217008D01*
X2227658Y-2217742D01*
X2227847Y-2218499D01*
X2227962Y-2219271D01*
X2228000Y-2220050D01*
X2228000Y-2235950D01*
X2227962Y-2236729D01*
X2227847Y-2237501D01*
X2227658Y-2238258D01*
X2227395Y-2238992D01*
X2227061Y-2239698D01*
X2226660Y-2240367D01*
X2226195Y-2240993D01*
X2225672Y-2241572D01*
X2225093Y-2242095D01*
X2224467Y-2242560D01*
X2223798Y-2242961D01*
X2223092Y-2243295D01*
X2222358Y-2243558D01*
X2221601Y-2243747D01*
X2220829Y-2243862D01*
X2220050Y-2243900D01*
X2199950Y-2243900D01*
X2199171Y-2243862D01*
X2198399Y-2243747D01*
X2197642Y-2243558D01*
X2196908Y-2243295D01*
X2196202Y-2242961D01*
X2195533Y-2242560D01*
X2194907Y-2242095D01*
X2194329Y-2241572D01*
X2193805Y-2240993D01*
X2193340Y-2240367D01*
X2192939Y-2239698D01*
X2192605Y-2238992D01*
X2192342Y-2238258D01*
X2192153Y-2237501D01*
X2192038Y-2236729D01*
X2192000Y-2235950D01*
X2192000Y-2220050D01*
X2192038Y-2219271D01*
X2192153Y-2218499D01*
X2192342Y-2217742D01*
X2192605Y-2217008D01*
X2192939Y-2216302D01*
X2193340Y-2215633D01*
X2193805Y-2215007D01*
X2194329Y-2214429D01*
X2194907Y-2213905D01*
X2195533Y-2213440D01*
X2196202Y-2213039D01*
X2196908Y-2212705D01*
X2197642Y-2212442D01*
X2198399Y-2212253D01*
X2199171Y-2212138D01*
X2199950Y-2212100D01*
X2220050Y-2212100D01*
X2220829Y-2212138D01*
X2220829Y-2212138D01*
G37*
D14*
X2210000Y-2228000D03*
D12*
G36*
X2220829Y-2281138D02*
X2221601Y-2281253D01*
X2222358Y-2281442D01*
X2223092Y-2281705D01*
X2223798Y-2282039D01*
X2224467Y-2282440D01*
X2225093Y-2282905D01*
X2225672Y-2283429D01*
X2226195Y-2284007D01*
X2226660Y-2284633D01*
X2227061Y-2285302D01*
X2227395Y-2286008D01*
X2227658Y-2286742D01*
X2227847Y-2287499D01*
X2227962Y-2288271D01*
X2228000Y-2289050D01*
X2228000Y-2304950D01*
X2227962Y-2305729D01*
X2227847Y-2306501D01*
X2227658Y-2307258D01*
X2227395Y-2307992D01*
X2227061Y-2308698D01*
X2226660Y-2309367D01*
X2226195Y-2309993D01*
X2225672Y-2310572D01*
X2225093Y-2311095D01*
X2224467Y-2311560D01*
X2223798Y-2311961D01*
X2223092Y-2312295D01*
X2222358Y-2312558D01*
X2221601Y-2312747D01*
X2220829Y-2312862D01*
X2220050Y-2312900D01*
X2199950Y-2312900D01*
X2199171Y-2312862D01*
X2198399Y-2312747D01*
X2197642Y-2312558D01*
X2196908Y-2312295D01*
X2196202Y-2311961D01*
X2195533Y-2311560D01*
X2194907Y-2311095D01*
X2194329Y-2310572D01*
X2193805Y-2309993D01*
X2193340Y-2309367D01*
X2192939Y-2308698D01*
X2192605Y-2307992D01*
X2192342Y-2307258D01*
X2192153Y-2306501D01*
X2192038Y-2305729D01*
X2192000Y-2304950D01*
X2192000Y-2289050D01*
X2192038Y-2288271D01*
X2192153Y-2287499D01*
X2192342Y-2286742D01*
X2192605Y-2286008D01*
X2192939Y-2285302D01*
X2193340Y-2284633D01*
X2193805Y-2284007D01*
X2194329Y-2283429D01*
X2194907Y-2282905D01*
X2195533Y-2282440D01*
X2196202Y-2282039D01*
X2196908Y-2281705D01*
X2197642Y-2281442D01*
X2198399Y-2281253D01*
X2199171Y-2281138D01*
X2199950Y-2281100D01*
X2220050Y-2281100D01*
X2220829Y-2281138D01*
X2220829Y-2281138D01*
G37*
D14*
X2210000Y-2297000D03*
G04 #@! TD*
D12*
G04 #@! TO.C,C7*
G36*
X2290829Y-2212138D02*
X2291601Y-2212253D01*
X2292358Y-2212442D01*
X2293092Y-2212705D01*
X2293798Y-2213039D01*
X2294467Y-2213440D01*
X2295093Y-2213905D01*
X2295672Y-2214429D01*
X2296195Y-2215007D01*
X2296660Y-2215633D01*
X2297061Y-2216302D01*
X2297395Y-2217008D01*
X2297658Y-2217742D01*
X2297847Y-2218499D01*
X2297962Y-2219271D01*
X2298000Y-2220050D01*
X2298000Y-2235950D01*
X2297962Y-2236729D01*
X2297847Y-2237501D01*
X2297658Y-2238258D01*
X2297395Y-2238992D01*
X2297061Y-2239698D01*
X2296660Y-2240367D01*
X2296195Y-2240993D01*
X2295672Y-2241572D01*
X2295093Y-2242095D01*
X2294467Y-2242560D01*
X2293798Y-2242961D01*
X2293092Y-2243295D01*
X2292358Y-2243558D01*
X2291601Y-2243747D01*
X2290829Y-2243862D01*
X2290050Y-2243900D01*
X2269950Y-2243900D01*
X2269171Y-2243862D01*
X2268399Y-2243747D01*
X2267642Y-2243558D01*
X2266908Y-2243295D01*
X2266202Y-2242961D01*
X2265533Y-2242560D01*
X2264907Y-2242095D01*
X2264329Y-2241572D01*
X2263805Y-2240993D01*
X2263340Y-2240367D01*
X2262939Y-2239698D01*
X2262605Y-2238992D01*
X2262342Y-2238258D01*
X2262153Y-2237501D01*
X2262038Y-2236729D01*
X2262000Y-2235950D01*
X2262000Y-2220050D01*
X2262038Y-2219271D01*
X2262153Y-2218499D01*
X2262342Y-2217742D01*
X2262605Y-2217008D01*
X2262939Y-2216302D01*
X2263340Y-2215633D01*
X2263805Y-2215007D01*
X2264329Y-2214429D01*
X2264907Y-2213905D01*
X2265533Y-2213440D01*
X2266202Y-2213039D01*
X2266908Y-2212705D01*
X2267642Y-2212442D01*
X2268399Y-2212253D01*
X2269171Y-2212138D01*
X2269950Y-2212100D01*
X2290050Y-2212100D01*
X2290829Y-2212138D01*
X2290829Y-2212138D01*
G37*
D14*
X2280000Y-2228000D03*
D12*
G36*
X2290829Y-2281138D02*
X2291601Y-2281253D01*
X2292358Y-2281442D01*
X2293092Y-2281705D01*
X2293798Y-2282039D01*
X2294467Y-2282440D01*
X2295093Y-2282905D01*
X2295672Y-2283429D01*
X2296195Y-2284007D01*
X2296660Y-2284633D01*
X2297061Y-2285302D01*
X2297395Y-2286008D01*
X2297658Y-2286742D01*
X2297847Y-2287499D01*
X2297962Y-2288271D01*
X2298000Y-2289050D01*
X2298000Y-2304950D01*
X2297962Y-2305729D01*
X2297847Y-2306501D01*
X2297658Y-2307258D01*
X2297395Y-2307992D01*
X2297061Y-2308698D01*
X2296660Y-2309367D01*
X2296195Y-2309993D01*
X2295672Y-2310572D01*
X2295093Y-2311095D01*
X2294467Y-2311560D01*
X2293798Y-2311961D01*
X2293092Y-2312295D01*
X2292358Y-2312558D01*
X2291601Y-2312747D01*
X2290829Y-2312862D01*
X2290050Y-2312900D01*
X2269950Y-2312900D01*
X2269171Y-2312862D01*
X2268399Y-2312747D01*
X2267642Y-2312558D01*
X2266908Y-2312295D01*
X2266202Y-2311961D01*
X2265533Y-2311560D01*
X2264907Y-2311095D01*
X2264329Y-2310572D01*
X2263805Y-2309993D01*
X2263340Y-2309367D01*
X2262939Y-2308698D01*
X2262605Y-2307992D01*
X2262342Y-2307258D01*
X2262153Y-2306501D01*
X2262038Y-2305729D01*
X2262000Y-2304950D01*
X2262000Y-2289050D01*
X2262038Y-2288271D01*
X2262153Y-2287499D01*
X2262342Y-2286742D01*
X2262605Y-2286008D01*
X2262939Y-2285302D01*
X2263340Y-2284633D01*
X2263805Y-2284007D01*
X2264329Y-2283429D01*
X2264907Y-2282905D01*
X2265533Y-2282440D01*
X2266202Y-2282039D01*
X2266908Y-2281705D01*
X2267642Y-2281442D01*
X2268399Y-2281253D01*
X2269171Y-2281138D01*
X2269950Y-2281100D01*
X2290050Y-2281100D01*
X2290829Y-2281138D01*
X2290829Y-2281138D01*
G37*
D14*
X2280000Y-2297000D03*
G04 #@! TD*
D12*
G04 #@! TO.C,C8*
G36*
X2036829Y-1770138D02*
X2037601Y-1770253D01*
X2038358Y-1770442D01*
X2039092Y-1770705D01*
X2039798Y-1771039D01*
X2040467Y-1771440D01*
X2041093Y-1771905D01*
X2041671Y-1772428D01*
X2042195Y-1773007D01*
X2042660Y-1773633D01*
X2043061Y-1774302D01*
X2043395Y-1775008D01*
X2043658Y-1775742D01*
X2043847Y-1776499D01*
X2043962Y-1777271D01*
X2044000Y-1778050D01*
X2044000Y-1793950D01*
X2043962Y-1794729D01*
X2043847Y-1795501D01*
X2043658Y-1796258D01*
X2043395Y-1796992D01*
X2043061Y-1797698D01*
X2042660Y-1798367D01*
X2042195Y-1798993D01*
X2041671Y-1799571D01*
X2041093Y-1800095D01*
X2040467Y-1800560D01*
X2039798Y-1800961D01*
X2039092Y-1801295D01*
X2038358Y-1801558D01*
X2037601Y-1801747D01*
X2036829Y-1801862D01*
X2036050Y-1801900D01*
X2015950Y-1801900D01*
X2015171Y-1801862D01*
X2014399Y-1801747D01*
X2013642Y-1801558D01*
X2012908Y-1801295D01*
X2012202Y-1800961D01*
X2011533Y-1800560D01*
X2010907Y-1800095D01*
X2010328Y-1799571D01*
X2009805Y-1798993D01*
X2009340Y-1798367D01*
X2008939Y-1797698D01*
X2008605Y-1796992D01*
X2008342Y-1796258D01*
X2008153Y-1795501D01*
X2008038Y-1794729D01*
X2008000Y-1793950D01*
X2008000Y-1778050D01*
X2008038Y-1777271D01*
X2008153Y-1776499D01*
X2008342Y-1775742D01*
X2008605Y-1775008D01*
X2008939Y-1774302D01*
X2009340Y-1773633D01*
X2009805Y-1773007D01*
X2010328Y-1772428D01*
X2010907Y-1771905D01*
X2011533Y-1771440D01*
X2012202Y-1771039D01*
X2012908Y-1770705D01*
X2013642Y-1770442D01*
X2014399Y-1770253D01*
X2015171Y-1770138D01*
X2015950Y-1770100D01*
X2036050Y-1770100D01*
X2036829Y-1770138D01*
X2036829Y-1770138D01*
G37*
D14*
X2026000Y-1786000D03*
D12*
G36*
X2036829Y-1839138D02*
X2037601Y-1839253D01*
X2038358Y-1839442D01*
X2039092Y-1839705D01*
X2039798Y-1840039D01*
X2040467Y-1840440D01*
X2041093Y-1840905D01*
X2041671Y-1841428D01*
X2042195Y-1842007D01*
X2042660Y-1842633D01*
X2043061Y-1843302D01*
X2043395Y-1844008D01*
X2043658Y-1844742D01*
X2043847Y-1845499D01*
X2043962Y-1846271D01*
X2044000Y-1847050D01*
X2044000Y-1862950D01*
X2043962Y-1863729D01*
X2043847Y-1864501D01*
X2043658Y-1865258D01*
X2043395Y-1865992D01*
X2043061Y-1866698D01*
X2042660Y-1867367D01*
X2042195Y-1867993D01*
X2041671Y-1868571D01*
X2041093Y-1869095D01*
X2040467Y-1869560D01*
X2039798Y-1869961D01*
X2039092Y-1870295D01*
X2038358Y-1870558D01*
X2037601Y-1870747D01*
X2036829Y-1870862D01*
X2036050Y-1870900D01*
X2015950Y-1870900D01*
X2015171Y-1870862D01*
X2014399Y-1870747D01*
X2013642Y-1870558D01*
X2012908Y-1870295D01*
X2012202Y-1869961D01*
X2011533Y-1869560D01*
X2010907Y-1869095D01*
X2010328Y-1868571D01*
X2009805Y-1867993D01*
X2009340Y-1867367D01*
X2008939Y-1866698D01*
X2008605Y-1865992D01*
X2008342Y-1865258D01*
X2008153Y-1864501D01*
X2008038Y-1863729D01*
X2008000Y-1862950D01*
X2008000Y-1847050D01*
X2008038Y-1846271D01*
X2008153Y-1845499D01*
X2008342Y-1844742D01*
X2008605Y-1844008D01*
X2008939Y-1843302D01*
X2009340Y-1842633D01*
X2009805Y-1842007D01*
X2010328Y-1841428D01*
X2010907Y-1840905D01*
X2011533Y-1840440D01*
X2012202Y-1840039D01*
X2012908Y-1839705D01*
X2013642Y-1839442D01*
X2014399Y-1839253D01*
X2015171Y-1839138D01*
X2015950Y-1839100D01*
X2036050Y-1839100D01*
X2036829Y-1839138D01*
X2036829Y-1839138D01*
G37*
D14*
X2026000Y-1855000D03*
G04 #@! TD*
D12*
G04 #@! TO.C,C9*
G36*
X2025829Y-2309138D02*
X2026601Y-2309253D01*
X2027358Y-2309442D01*
X2028092Y-2309705D01*
X2028798Y-2310039D01*
X2029467Y-2310440D01*
X2030093Y-2310905D01*
X2030671Y-2311429D01*
X2031195Y-2312007D01*
X2031660Y-2312633D01*
X2032061Y-2313302D01*
X2032395Y-2314008D01*
X2032658Y-2314742D01*
X2032847Y-2315499D01*
X2032962Y-2316271D01*
X2033000Y-2317050D01*
X2033000Y-2332950D01*
X2032962Y-2333729D01*
X2032847Y-2334501D01*
X2032658Y-2335258D01*
X2032395Y-2335992D01*
X2032061Y-2336698D01*
X2031660Y-2337367D01*
X2031195Y-2337993D01*
X2030671Y-2338572D01*
X2030093Y-2339095D01*
X2029467Y-2339560D01*
X2028798Y-2339961D01*
X2028092Y-2340295D01*
X2027358Y-2340558D01*
X2026601Y-2340747D01*
X2025829Y-2340862D01*
X2025050Y-2340900D01*
X2004950Y-2340900D01*
X2004171Y-2340862D01*
X2003399Y-2340747D01*
X2002642Y-2340558D01*
X2001908Y-2340295D01*
X2001202Y-2339961D01*
X2000533Y-2339560D01*
X1999907Y-2339095D01*
X1999328Y-2338572D01*
X1998805Y-2337993D01*
X1998340Y-2337367D01*
X1997939Y-2336698D01*
X1997605Y-2335992D01*
X1997342Y-2335258D01*
X1997153Y-2334501D01*
X1997038Y-2333729D01*
X1997000Y-2332950D01*
X1997000Y-2317050D01*
X1997038Y-2316271D01*
X1997153Y-2315499D01*
X1997342Y-2314742D01*
X1997605Y-2314008D01*
X1997939Y-2313302D01*
X1998340Y-2312633D01*
X1998805Y-2312007D01*
X1999328Y-2311429D01*
X1999907Y-2310905D01*
X2000533Y-2310440D01*
X2001202Y-2310039D01*
X2001908Y-2309705D01*
X2002642Y-2309442D01*
X2003399Y-2309253D01*
X2004171Y-2309138D01*
X2004950Y-2309100D01*
X2025050Y-2309100D01*
X2025829Y-2309138D01*
X2025829Y-2309138D01*
G37*
D14*
X2015000Y-2325000D03*
D12*
G36*
X2025829Y-2378138D02*
X2026601Y-2378253D01*
X2027358Y-2378442D01*
X2028092Y-2378705D01*
X2028798Y-2379039D01*
X2029467Y-2379440D01*
X2030093Y-2379905D01*
X2030671Y-2380429D01*
X2031195Y-2381007D01*
X2031660Y-2381633D01*
X2032061Y-2382302D01*
X2032395Y-2383008D01*
X2032658Y-2383742D01*
X2032847Y-2384499D01*
X2032962Y-2385271D01*
X2033000Y-2386050D01*
X2033000Y-2401950D01*
X2032962Y-2402729D01*
X2032847Y-2403501D01*
X2032658Y-2404258D01*
X2032395Y-2404992D01*
X2032061Y-2405698D01*
X2031660Y-2406367D01*
X2031195Y-2406993D01*
X2030671Y-2407572D01*
X2030093Y-2408095D01*
X2029467Y-2408560D01*
X2028798Y-2408961D01*
X2028092Y-2409295D01*
X2027358Y-2409558D01*
X2026601Y-2409747D01*
X2025829Y-2409862D01*
X2025050Y-2409900D01*
X2004950Y-2409900D01*
X2004171Y-2409862D01*
X2003399Y-2409747D01*
X2002642Y-2409558D01*
X2001908Y-2409295D01*
X2001202Y-2408961D01*
X2000533Y-2408560D01*
X1999907Y-2408095D01*
X1999328Y-2407572D01*
X1998805Y-2406993D01*
X1998340Y-2406367D01*
X1997939Y-2405698D01*
X1997605Y-2404992D01*
X1997342Y-2404258D01*
X1997153Y-2403501D01*
X1997038Y-2402729D01*
X1997000Y-2401950D01*
X1997000Y-2386050D01*
X1997038Y-2385271D01*
X1997153Y-2384499D01*
X1997342Y-2383742D01*
X1997605Y-2383008D01*
X1997939Y-2382302D01*
X1998340Y-2381633D01*
X1998805Y-2381007D01*
X1999328Y-2380429D01*
X1999907Y-2379905D01*
X2000533Y-2379440D01*
X2001202Y-2379039D01*
X2001908Y-2378705D01*
X2002642Y-2378442D01*
X2003399Y-2378253D01*
X2004171Y-2378138D01*
X2004950Y-2378100D01*
X2025050Y-2378100D01*
X2025829Y-2378138D01*
X2025829Y-2378138D01*
G37*
D14*
X2015000Y-2394000D03*
G04 #@! TD*
D12*
G04 #@! TO.C,C10*
G36*
X2036829Y-1917638D02*
X2037601Y-1917753D01*
X2038358Y-1917942D01*
X2039092Y-1918205D01*
X2039798Y-1918539D01*
X2040467Y-1918940D01*
X2041093Y-1919405D01*
X2041671Y-1919928D01*
X2042195Y-1920507D01*
X2042660Y-1921133D01*
X2043061Y-1921802D01*
X2043395Y-1922508D01*
X2043658Y-1923242D01*
X2043847Y-1923999D01*
X2043962Y-1924771D01*
X2044000Y-1925550D01*
X2044000Y-1941450D01*
X2043962Y-1942229D01*
X2043847Y-1943001D01*
X2043658Y-1943758D01*
X2043395Y-1944492D01*
X2043061Y-1945198D01*
X2042660Y-1945867D01*
X2042195Y-1946493D01*
X2041671Y-1947071D01*
X2041093Y-1947595D01*
X2040467Y-1948060D01*
X2039798Y-1948461D01*
X2039092Y-1948795D01*
X2038358Y-1949058D01*
X2037601Y-1949247D01*
X2036829Y-1949362D01*
X2036050Y-1949400D01*
X2015950Y-1949400D01*
X2015171Y-1949362D01*
X2014399Y-1949247D01*
X2013642Y-1949058D01*
X2012908Y-1948795D01*
X2012202Y-1948461D01*
X2011533Y-1948060D01*
X2010907Y-1947595D01*
X2010328Y-1947071D01*
X2009805Y-1946493D01*
X2009340Y-1945867D01*
X2008939Y-1945198D01*
X2008605Y-1944492D01*
X2008342Y-1943758D01*
X2008153Y-1943001D01*
X2008038Y-1942229D01*
X2008000Y-1941450D01*
X2008000Y-1925550D01*
X2008038Y-1924771D01*
X2008153Y-1923999D01*
X2008342Y-1923242D01*
X2008605Y-1922508D01*
X2008939Y-1921802D01*
X2009340Y-1921133D01*
X2009805Y-1920507D01*
X2010328Y-1919928D01*
X2010907Y-1919405D01*
X2011533Y-1918940D01*
X2012202Y-1918539D01*
X2012908Y-1918205D01*
X2013642Y-1917942D01*
X2014399Y-1917753D01*
X2015171Y-1917638D01*
X2015950Y-1917600D01*
X2036050Y-1917600D01*
X2036829Y-1917638D01*
X2036829Y-1917638D01*
G37*
D14*
X2026000Y-1933500D03*
D12*
G36*
X2036829Y-1986638D02*
X2037601Y-1986753D01*
X2038358Y-1986942D01*
X2039092Y-1987205D01*
X2039798Y-1987539D01*
X2040467Y-1987940D01*
X2041093Y-1988405D01*
X2041671Y-1988928D01*
X2042195Y-1989507D01*
X2042660Y-1990133D01*
X2043061Y-1990802D01*
X2043395Y-1991508D01*
X2043658Y-1992242D01*
X2043847Y-1992999D01*
X2043962Y-1993771D01*
X2044000Y-1994550D01*
X2044000Y-2010450D01*
X2043962Y-2011229D01*
X2043847Y-2012001D01*
X2043658Y-2012758D01*
X2043395Y-2013492D01*
X2043061Y-2014198D01*
X2042660Y-2014867D01*
X2042195Y-2015493D01*
X2041671Y-2016071D01*
X2041093Y-2016595D01*
X2040467Y-2017060D01*
X2039798Y-2017461D01*
X2039092Y-2017795D01*
X2038358Y-2018058D01*
X2037601Y-2018247D01*
X2036829Y-2018362D01*
X2036050Y-2018400D01*
X2015950Y-2018400D01*
X2015171Y-2018362D01*
X2014399Y-2018247D01*
X2013642Y-2018058D01*
X2012908Y-2017795D01*
X2012202Y-2017461D01*
X2011533Y-2017060D01*
X2010907Y-2016595D01*
X2010328Y-2016071D01*
X2009805Y-2015493D01*
X2009340Y-2014867D01*
X2008939Y-2014198D01*
X2008605Y-2013492D01*
X2008342Y-2012758D01*
X2008153Y-2012001D01*
X2008038Y-2011229D01*
X2008000Y-2010450D01*
X2008000Y-1994550D01*
X2008038Y-1993771D01*
X2008153Y-1992999D01*
X2008342Y-1992242D01*
X2008605Y-1991508D01*
X2008939Y-1990802D01*
X2009340Y-1990133D01*
X2009805Y-1989507D01*
X2010328Y-1988928D01*
X2010907Y-1988405D01*
X2011533Y-1987940D01*
X2012202Y-1987539D01*
X2012908Y-1987205D01*
X2013642Y-1986942D01*
X2014399Y-1986753D01*
X2015171Y-1986638D01*
X2015950Y-1986600D01*
X2036050Y-1986600D01*
X2036829Y-1986638D01*
X2036829Y-1986638D01*
G37*
D14*
X2026000Y-2002500D03*
G04 #@! TD*
D12*
G04 #@! TO.C,R11*
G36*
X1860829Y-2238638D02*
X1861601Y-2238753D01*
X1862358Y-2238942D01*
X1863092Y-2239205D01*
X1863798Y-2239539D01*
X1864467Y-2239940D01*
X1865093Y-2240405D01*
X1865671Y-2240929D01*
X1866195Y-2241507D01*
X1866660Y-2242133D01*
X1867061Y-2242802D01*
X1867395Y-2243508D01*
X1867658Y-2244242D01*
X1867847Y-2244999D01*
X1867962Y-2245771D01*
X1868000Y-2246550D01*
X1868000Y-2262450D01*
X1867962Y-2263229D01*
X1867847Y-2264001D01*
X1867658Y-2264758D01*
X1867395Y-2265492D01*
X1867061Y-2266198D01*
X1866660Y-2266867D01*
X1866195Y-2267493D01*
X1865671Y-2268072D01*
X1865093Y-2268595D01*
X1864467Y-2269060D01*
X1863798Y-2269461D01*
X1863092Y-2269795D01*
X1862358Y-2270058D01*
X1861601Y-2270247D01*
X1860829Y-2270362D01*
X1860050Y-2270400D01*
X1839950Y-2270400D01*
X1839171Y-2270362D01*
X1838399Y-2270247D01*
X1837642Y-2270058D01*
X1836908Y-2269795D01*
X1836202Y-2269461D01*
X1835533Y-2269060D01*
X1834907Y-2268595D01*
X1834328Y-2268072D01*
X1833805Y-2267493D01*
X1833340Y-2266867D01*
X1832939Y-2266198D01*
X1832605Y-2265492D01*
X1832342Y-2264758D01*
X1832153Y-2264001D01*
X1832038Y-2263229D01*
X1832000Y-2262450D01*
X1832000Y-2246550D01*
X1832038Y-2245771D01*
X1832153Y-2244999D01*
X1832342Y-2244242D01*
X1832605Y-2243508D01*
X1832939Y-2242802D01*
X1833340Y-2242133D01*
X1833805Y-2241507D01*
X1834328Y-2240929D01*
X1834907Y-2240405D01*
X1835533Y-2239940D01*
X1836202Y-2239539D01*
X1836908Y-2239205D01*
X1837642Y-2238942D01*
X1838399Y-2238753D01*
X1839171Y-2238638D01*
X1839950Y-2238600D01*
X1860050Y-2238600D01*
X1860829Y-2238638D01*
X1860829Y-2238638D01*
G37*
D14*
X1850000Y-2254500D03*
D12*
G36*
X1860829Y-2169638D02*
X1861601Y-2169753D01*
X1862358Y-2169942D01*
X1863092Y-2170205D01*
X1863798Y-2170539D01*
X1864467Y-2170940D01*
X1865093Y-2171405D01*
X1865671Y-2171929D01*
X1866195Y-2172507D01*
X1866660Y-2173133D01*
X1867061Y-2173802D01*
X1867395Y-2174508D01*
X1867658Y-2175242D01*
X1867847Y-2175999D01*
X1867962Y-2176771D01*
X1868000Y-2177550D01*
X1868000Y-2193450D01*
X1867962Y-2194229D01*
X1867847Y-2195001D01*
X1867658Y-2195758D01*
X1867395Y-2196492D01*
X1867061Y-2197198D01*
X1866660Y-2197867D01*
X1866195Y-2198493D01*
X1865671Y-2199072D01*
X1865093Y-2199595D01*
X1864467Y-2200060D01*
X1863798Y-2200461D01*
X1863092Y-2200795D01*
X1862358Y-2201058D01*
X1861601Y-2201247D01*
X1860829Y-2201362D01*
X1860050Y-2201400D01*
X1839950Y-2201400D01*
X1839171Y-2201362D01*
X1838399Y-2201247D01*
X1837642Y-2201058D01*
X1836908Y-2200795D01*
X1836202Y-2200461D01*
X1835533Y-2200060D01*
X1834907Y-2199595D01*
X1834328Y-2199072D01*
X1833805Y-2198493D01*
X1833340Y-2197867D01*
X1832939Y-2197198D01*
X1832605Y-2196492D01*
X1832342Y-2195758D01*
X1832153Y-2195001D01*
X1832038Y-2194229D01*
X1832000Y-2193450D01*
X1832000Y-2177550D01*
X1832038Y-2176771D01*
X1832153Y-2175999D01*
X1832342Y-2175242D01*
X1832605Y-2174508D01*
X1832939Y-2173802D01*
X1833340Y-2173133D01*
X1833805Y-2172507D01*
X1834328Y-2171929D01*
X1834907Y-2171405D01*
X1835533Y-2170940D01*
X1836202Y-2170539D01*
X1836908Y-2170205D01*
X1837642Y-2169942D01*
X1838399Y-2169753D01*
X1839171Y-2169638D01*
X1839950Y-2169600D01*
X1860050Y-2169600D01*
X1860829Y-2169638D01*
X1860829Y-2169638D01*
G37*
D14*
X1850000Y-2185500D03*
G04 #@! TD*
D12*
G04 #@! TO.C,R1*
G36*
X1790829Y-2169638D02*
X1791601Y-2169753D01*
X1792358Y-2169942D01*
X1793092Y-2170205D01*
X1793798Y-2170539D01*
X1794467Y-2170940D01*
X1795093Y-2171405D01*
X1795671Y-2171929D01*
X1796195Y-2172507D01*
X1796660Y-2173133D01*
X1797061Y-2173802D01*
X1797395Y-2174508D01*
X1797658Y-2175242D01*
X1797847Y-2175999D01*
X1797962Y-2176771D01*
X1798000Y-2177550D01*
X1798000Y-2193450D01*
X1797962Y-2194229D01*
X1797847Y-2195001D01*
X1797658Y-2195758D01*
X1797395Y-2196492D01*
X1797061Y-2197198D01*
X1796660Y-2197867D01*
X1796195Y-2198493D01*
X1795671Y-2199072D01*
X1795093Y-2199595D01*
X1794467Y-2200060D01*
X1793798Y-2200461D01*
X1793092Y-2200795D01*
X1792358Y-2201058D01*
X1791601Y-2201247D01*
X1790829Y-2201362D01*
X1790050Y-2201400D01*
X1769950Y-2201400D01*
X1769171Y-2201362D01*
X1768399Y-2201247D01*
X1767642Y-2201058D01*
X1766908Y-2200795D01*
X1766202Y-2200461D01*
X1765533Y-2200060D01*
X1764907Y-2199595D01*
X1764328Y-2199072D01*
X1763805Y-2198493D01*
X1763340Y-2197867D01*
X1762939Y-2197198D01*
X1762605Y-2196492D01*
X1762342Y-2195758D01*
X1762153Y-2195001D01*
X1762038Y-2194229D01*
X1762000Y-2193450D01*
X1762000Y-2177550D01*
X1762038Y-2176771D01*
X1762153Y-2175999D01*
X1762342Y-2175242D01*
X1762605Y-2174508D01*
X1762939Y-2173802D01*
X1763340Y-2173133D01*
X1763805Y-2172507D01*
X1764328Y-2171929D01*
X1764907Y-2171405D01*
X1765533Y-2170940D01*
X1766202Y-2170539D01*
X1766908Y-2170205D01*
X1767642Y-2169942D01*
X1768399Y-2169753D01*
X1769171Y-2169638D01*
X1769950Y-2169600D01*
X1790050Y-2169600D01*
X1790829Y-2169638D01*
X1790829Y-2169638D01*
G37*
D14*
X1780000Y-2185500D03*
D12*
G36*
X1790829Y-2238638D02*
X1791601Y-2238753D01*
X1792358Y-2238942D01*
X1793092Y-2239205D01*
X1793798Y-2239539D01*
X1794467Y-2239940D01*
X1795093Y-2240405D01*
X1795671Y-2240929D01*
X1796195Y-2241507D01*
X1796660Y-2242133D01*
X1797061Y-2242802D01*
X1797395Y-2243508D01*
X1797658Y-2244242D01*
X1797847Y-2244999D01*
X1797962Y-2245771D01*
X1798000Y-2246550D01*
X1798000Y-2262450D01*
X1797962Y-2263229D01*
X1797847Y-2264001D01*
X1797658Y-2264758D01*
X1797395Y-2265492D01*
X1797061Y-2266198D01*
X1796660Y-2266867D01*
X1796195Y-2267493D01*
X1795671Y-2268072D01*
X1795093Y-2268595D01*
X1794467Y-2269060D01*
X1793798Y-2269461D01*
X1793092Y-2269795D01*
X1792358Y-2270058D01*
X1791601Y-2270247D01*
X1790829Y-2270362D01*
X1790050Y-2270400D01*
X1769950Y-2270400D01*
X1769171Y-2270362D01*
X1768399Y-2270247D01*
X1767642Y-2270058D01*
X1766908Y-2269795D01*
X1766202Y-2269461D01*
X1765533Y-2269060D01*
X1764907Y-2268595D01*
X1764328Y-2268072D01*
X1763805Y-2267493D01*
X1763340Y-2266867D01*
X1762939Y-2266198D01*
X1762605Y-2265492D01*
X1762342Y-2264758D01*
X1762153Y-2264001D01*
X1762038Y-2263229D01*
X1762000Y-2262450D01*
X1762000Y-2246550D01*
X1762038Y-2245771D01*
X1762153Y-2244999D01*
X1762342Y-2244242D01*
X1762605Y-2243508D01*
X1762939Y-2242802D01*
X1763340Y-2242133D01*
X1763805Y-2241507D01*
X1764328Y-2240929D01*
X1764907Y-2240405D01*
X1765533Y-2239940D01*
X1766202Y-2239539D01*
X1766908Y-2239205D01*
X1767642Y-2238942D01*
X1768399Y-2238753D01*
X1769171Y-2238638D01*
X1769950Y-2238600D01*
X1790050Y-2238600D01*
X1790829Y-2238638D01*
X1790829Y-2238638D01*
G37*
D14*
X1780000Y-2254500D03*
G04 #@! TD*
D12*
G04 #@! TO.C,R5*
G36*
X2593229Y-2542038D02*
X2594001Y-2542153D01*
X2594758Y-2542342D01*
X2595492Y-2542605D01*
X2596198Y-2542939D01*
X2596867Y-2543340D01*
X2597493Y-2543805D01*
X2598072Y-2544329D01*
X2598595Y-2544907D01*
X2599060Y-2545533D01*
X2599461Y-2546202D01*
X2599795Y-2546908D01*
X2600058Y-2547642D01*
X2600247Y-2548399D01*
X2600362Y-2549171D01*
X2600400Y-2549950D01*
X2600400Y-2570050D01*
X2600362Y-2570829D01*
X2600247Y-2571601D01*
X2600058Y-2572358D01*
X2599795Y-2573092D01*
X2599461Y-2573798D01*
X2599060Y-2574467D01*
X2598595Y-2575093D01*
X2598072Y-2575672D01*
X2597493Y-2576195D01*
X2596867Y-2576660D01*
X2596198Y-2577061D01*
X2595492Y-2577395D01*
X2594758Y-2577658D01*
X2594001Y-2577847D01*
X2593229Y-2577962D01*
X2592450Y-2578000D01*
X2576550Y-2578000D01*
X2575771Y-2577962D01*
X2574999Y-2577847D01*
X2574242Y-2577658D01*
X2573508Y-2577395D01*
X2572802Y-2577061D01*
X2572133Y-2576660D01*
X2571507Y-2576195D01*
X2570929Y-2575672D01*
X2570405Y-2575093D01*
X2569940Y-2574467D01*
X2569539Y-2573798D01*
X2569205Y-2573092D01*
X2568942Y-2572358D01*
X2568753Y-2571601D01*
X2568638Y-2570829D01*
X2568600Y-2570050D01*
X2568600Y-2549950D01*
X2568638Y-2549171D01*
X2568753Y-2548399D01*
X2568942Y-2547642D01*
X2569205Y-2546908D01*
X2569539Y-2546202D01*
X2569940Y-2545533D01*
X2570405Y-2544907D01*
X2570929Y-2544329D01*
X2571507Y-2543805D01*
X2572133Y-2543340D01*
X2572802Y-2542939D01*
X2573508Y-2542605D01*
X2574242Y-2542342D01*
X2574999Y-2542153D01*
X2575771Y-2542038D01*
X2576550Y-2542000D01*
X2592450Y-2542000D01*
X2593229Y-2542038D01*
X2593229Y-2542038D01*
G37*
D14*
X2584500Y-2560000D03*
D12*
G36*
X2524229Y-2542038D02*
X2525001Y-2542153D01*
X2525758Y-2542342D01*
X2526492Y-2542605D01*
X2527198Y-2542939D01*
X2527867Y-2543340D01*
X2528493Y-2543805D01*
X2529072Y-2544329D01*
X2529595Y-2544907D01*
X2530060Y-2545533D01*
X2530461Y-2546202D01*
X2530795Y-2546908D01*
X2531058Y-2547642D01*
X2531247Y-2548399D01*
X2531362Y-2549171D01*
X2531400Y-2549950D01*
X2531400Y-2570050D01*
X2531362Y-2570829D01*
X2531247Y-2571601D01*
X2531058Y-2572358D01*
X2530795Y-2573092D01*
X2530461Y-2573798D01*
X2530060Y-2574467D01*
X2529595Y-2575093D01*
X2529072Y-2575672D01*
X2528493Y-2576195D01*
X2527867Y-2576660D01*
X2527198Y-2577061D01*
X2526492Y-2577395D01*
X2525758Y-2577658D01*
X2525001Y-2577847D01*
X2524229Y-2577962D01*
X2523450Y-2578000D01*
X2507550Y-2578000D01*
X2506771Y-2577962D01*
X2505999Y-2577847D01*
X2505242Y-2577658D01*
X2504508Y-2577395D01*
X2503802Y-2577061D01*
X2503133Y-2576660D01*
X2502507Y-2576195D01*
X2501929Y-2575672D01*
X2501405Y-2575093D01*
X2500940Y-2574467D01*
X2500539Y-2573798D01*
X2500205Y-2573092D01*
X2499942Y-2572358D01*
X2499753Y-2571601D01*
X2499638Y-2570829D01*
X2499600Y-2570050D01*
X2499600Y-2549950D01*
X2499638Y-2549171D01*
X2499753Y-2548399D01*
X2499942Y-2547642D01*
X2500205Y-2546908D01*
X2500539Y-2546202D01*
X2500940Y-2545533D01*
X2501405Y-2544907D01*
X2501929Y-2544329D01*
X2502507Y-2543805D01*
X2503133Y-2543340D01*
X2503802Y-2542939D01*
X2504508Y-2542605D01*
X2505242Y-2542342D01*
X2505999Y-2542153D01*
X2506771Y-2542038D01*
X2507550Y-2542000D01*
X2523450Y-2542000D01*
X2524229Y-2542038D01*
X2524229Y-2542038D01*
G37*
D14*
X2515500Y-2560000D03*
G04 #@! TD*
D12*
G04 #@! TO.C,R12*
G36*
X1930829Y-2238638D02*
X1931601Y-2238753D01*
X1932358Y-2238942D01*
X1933092Y-2239205D01*
X1933798Y-2239539D01*
X1934467Y-2239940D01*
X1935093Y-2240405D01*
X1935671Y-2240929D01*
X1936195Y-2241507D01*
X1936660Y-2242133D01*
X1937061Y-2242802D01*
X1937395Y-2243508D01*
X1937658Y-2244242D01*
X1937847Y-2244999D01*
X1937962Y-2245771D01*
X1938000Y-2246550D01*
X1938000Y-2262450D01*
X1937962Y-2263229D01*
X1937847Y-2264001D01*
X1937658Y-2264758D01*
X1937395Y-2265492D01*
X1937061Y-2266198D01*
X1936660Y-2266867D01*
X1936195Y-2267493D01*
X1935671Y-2268072D01*
X1935093Y-2268595D01*
X1934467Y-2269060D01*
X1933798Y-2269461D01*
X1933092Y-2269795D01*
X1932358Y-2270058D01*
X1931601Y-2270247D01*
X1930829Y-2270362D01*
X1930050Y-2270400D01*
X1909950Y-2270400D01*
X1909171Y-2270362D01*
X1908399Y-2270247D01*
X1907642Y-2270058D01*
X1906908Y-2269795D01*
X1906202Y-2269461D01*
X1905533Y-2269060D01*
X1904907Y-2268595D01*
X1904328Y-2268072D01*
X1903805Y-2267493D01*
X1903340Y-2266867D01*
X1902939Y-2266198D01*
X1902605Y-2265492D01*
X1902342Y-2264758D01*
X1902153Y-2264001D01*
X1902038Y-2263229D01*
X1902000Y-2262450D01*
X1902000Y-2246550D01*
X1902038Y-2245771D01*
X1902153Y-2244999D01*
X1902342Y-2244242D01*
X1902605Y-2243508D01*
X1902939Y-2242802D01*
X1903340Y-2242133D01*
X1903805Y-2241507D01*
X1904328Y-2240929D01*
X1904907Y-2240405D01*
X1905533Y-2239940D01*
X1906202Y-2239539D01*
X1906908Y-2239205D01*
X1907642Y-2238942D01*
X1908399Y-2238753D01*
X1909171Y-2238638D01*
X1909950Y-2238600D01*
X1930050Y-2238600D01*
X1930829Y-2238638D01*
X1930829Y-2238638D01*
G37*
D14*
X1920000Y-2254500D03*
D12*
G36*
X1930829Y-2169638D02*
X1931601Y-2169753D01*
X1932358Y-2169942D01*
X1933092Y-2170205D01*
X1933798Y-2170539D01*
X1934467Y-2170940D01*
X1935093Y-2171405D01*
X1935671Y-2171929D01*
X1936195Y-2172507D01*
X1936660Y-2173133D01*
X1937061Y-2173802D01*
X1937395Y-2174508D01*
X1937658Y-2175242D01*
X1937847Y-2175999D01*
X1937962Y-2176771D01*
X1938000Y-2177550D01*
X1938000Y-2193450D01*
X1937962Y-2194229D01*
X1937847Y-2195001D01*
X1937658Y-2195758D01*
X1937395Y-2196492D01*
X1937061Y-2197198D01*
X1936660Y-2197867D01*
X1936195Y-2198493D01*
X1935671Y-2199072D01*
X1935093Y-2199595D01*
X1934467Y-2200060D01*
X1933798Y-2200461D01*
X1933092Y-2200795D01*
X1932358Y-2201058D01*
X1931601Y-2201247D01*
X1930829Y-2201362D01*
X1930050Y-2201400D01*
X1909950Y-2201400D01*
X1909171Y-2201362D01*
X1908399Y-2201247D01*
X1907642Y-2201058D01*
X1906908Y-2200795D01*
X1906202Y-2200461D01*
X1905533Y-2200060D01*
X1904907Y-2199595D01*
X1904328Y-2199072D01*
X1903805Y-2198493D01*
X1903340Y-2197867D01*
X1902939Y-2197198D01*
X1902605Y-2196492D01*
X1902342Y-2195758D01*
X1902153Y-2195001D01*
X1902038Y-2194229D01*
X1902000Y-2193450D01*
X1902000Y-2177550D01*
X1902038Y-2176771D01*
X1902153Y-2175999D01*
X1902342Y-2175242D01*
X1902605Y-2174508D01*
X1902939Y-2173802D01*
X1903340Y-2173133D01*
X1903805Y-2172507D01*
X1904328Y-2171929D01*
X1904907Y-2171405D01*
X1905533Y-2170940D01*
X1906202Y-2170539D01*
X1906908Y-2170205D01*
X1907642Y-2169942D01*
X1908399Y-2169753D01*
X1909171Y-2169638D01*
X1909950Y-2169600D01*
X1930050Y-2169600D01*
X1930829Y-2169638D01*
X1930829Y-2169638D01*
G37*
D14*
X1920000Y-2185500D03*
G04 #@! TD*
D12*
G04 #@! TO.C,R9*
G36*
X2000829Y-2238638D02*
X2001601Y-2238753D01*
X2002358Y-2238942D01*
X2003092Y-2239205D01*
X2003798Y-2239539D01*
X2004467Y-2239940D01*
X2005093Y-2240405D01*
X2005671Y-2240929D01*
X2006195Y-2241507D01*
X2006660Y-2242133D01*
X2007061Y-2242802D01*
X2007395Y-2243508D01*
X2007658Y-2244242D01*
X2007847Y-2244999D01*
X2007962Y-2245771D01*
X2008000Y-2246550D01*
X2008000Y-2262450D01*
X2007962Y-2263229D01*
X2007847Y-2264001D01*
X2007658Y-2264758D01*
X2007395Y-2265492D01*
X2007061Y-2266198D01*
X2006660Y-2266867D01*
X2006195Y-2267493D01*
X2005671Y-2268072D01*
X2005093Y-2268595D01*
X2004467Y-2269060D01*
X2003798Y-2269461D01*
X2003092Y-2269795D01*
X2002358Y-2270058D01*
X2001601Y-2270247D01*
X2000829Y-2270362D01*
X2000050Y-2270400D01*
X1979950Y-2270400D01*
X1979171Y-2270362D01*
X1978399Y-2270247D01*
X1977642Y-2270058D01*
X1976908Y-2269795D01*
X1976202Y-2269461D01*
X1975533Y-2269060D01*
X1974907Y-2268595D01*
X1974328Y-2268072D01*
X1973805Y-2267493D01*
X1973340Y-2266867D01*
X1972939Y-2266198D01*
X1972605Y-2265492D01*
X1972342Y-2264758D01*
X1972153Y-2264001D01*
X1972038Y-2263229D01*
X1972000Y-2262450D01*
X1972000Y-2246550D01*
X1972038Y-2245771D01*
X1972153Y-2244999D01*
X1972342Y-2244242D01*
X1972605Y-2243508D01*
X1972939Y-2242802D01*
X1973340Y-2242133D01*
X1973805Y-2241507D01*
X1974328Y-2240929D01*
X1974907Y-2240405D01*
X1975533Y-2239940D01*
X1976202Y-2239539D01*
X1976908Y-2239205D01*
X1977642Y-2238942D01*
X1978399Y-2238753D01*
X1979171Y-2238638D01*
X1979950Y-2238600D01*
X2000050Y-2238600D01*
X2000829Y-2238638D01*
X2000829Y-2238638D01*
G37*
D14*
X1990000Y-2254500D03*
D12*
G36*
X2000829Y-2169638D02*
X2001601Y-2169753D01*
X2002358Y-2169942D01*
X2003092Y-2170205D01*
X2003798Y-2170539D01*
X2004467Y-2170940D01*
X2005093Y-2171405D01*
X2005671Y-2171929D01*
X2006195Y-2172507D01*
X2006660Y-2173133D01*
X2007061Y-2173802D01*
X2007395Y-2174508D01*
X2007658Y-2175242D01*
X2007847Y-2175999D01*
X2007962Y-2176771D01*
X2008000Y-2177550D01*
X2008000Y-2193450D01*
X2007962Y-2194229D01*
X2007847Y-2195001D01*
X2007658Y-2195758D01*
X2007395Y-2196492D01*
X2007061Y-2197198D01*
X2006660Y-2197867D01*
X2006195Y-2198493D01*
X2005671Y-2199072D01*
X2005093Y-2199595D01*
X2004467Y-2200060D01*
X2003798Y-2200461D01*
X2003092Y-2200795D01*
X2002358Y-2201058D01*
X2001601Y-2201247D01*
X2000829Y-2201362D01*
X2000050Y-2201400D01*
X1979950Y-2201400D01*
X1979171Y-2201362D01*
X1978399Y-2201247D01*
X1977642Y-2201058D01*
X1976908Y-2200795D01*
X1976202Y-2200461D01*
X1975533Y-2200060D01*
X1974907Y-2199595D01*
X1974328Y-2199072D01*
X1973805Y-2198493D01*
X1973340Y-2197867D01*
X1972939Y-2197198D01*
X1972605Y-2196492D01*
X1972342Y-2195758D01*
X1972153Y-2195001D01*
X1972038Y-2194229D01*
X1972000Y-2193450D01*
X1972000Y-2177550D01*
X1972038Y-2176771D01*
X1972153Y-2175999D01*
X1972342Y-2175242D01*
X1972605Y-2174508D01*
X1972939Y-2173802D01*
X1973340Y-2173133D01*
X1973805Y-2172507D01*
X1974328Y-2171929D01*
X1974907Y-2171405D01*
X1975533Y-2170940D01*
X1976202Y-2170539D01*
X1976908Y-2170205D01*
X1977642Y-2169942D01*
X1978399Y-2169753D01*
X1979171Y-2169638D01*
X1979950Y-2169600D01*
X2000050Y-2169600D01*
X2000829Y-2169638D01*
X2000829Y-2169638D01*
G37*
D14*
X1990000Y-2185500D03*
G04 #@! TD*
D20*
G04 #@! TO.C,U1*
X1900000Y-1820000D03*
D12*
G36*
X1931820Y-1820000D02*
X1900000Y-1851820D01*
X1868180Y-1820000D01*
X1900000Y-1788180D01*
X1931820Y-1820000D01*
X1931820Y-1820000D01*
G37*
D21*
X1943000Y-1852500D03*
D12*
G36*
X1925000Y-1860000D02*
X1943000Y-1842000D01*
X1965000Y-1842000D01*
X1965000Y-1863000D01*
X1925000Y-1863000D01*
X1925000Y-1860000D01*
X1925000Y-1860000D01*
G37*
D21*
X1857000Y-1852500D03*
D12*
G36*
X1835000Y-1842000D02*
X1857000Y-1842000D01*
X1875000Y-1860000D01*
X1875000Y-1863000D01*
X1835000Y-1863000D01*
X1835000Y-1842000D01*
X1835000Y-1842000D01*
G37*
D21*
X1857000Y-1787500D03*
D12*
G36*
X1835000Y-1777000D02*
X1875000Y-1777000D01*
X1875000Y-1780000D01*
X1857000Y-1798000D01*
X1835000Y-1798000D01*
X1835000Y-1777000D01*
X1835000Y-1777000D01*
G37*
D21*
X1943000Y-1787500D03*
D12*
G36*
X1925000Y-1780000D02*
X1925000Y-1777000D01*
X1965000Y-1777000D01*
X1965000Y-1798000D01*
X1943000Y-1798000D01*
X1925000Y-1780000D01*
X1925000Y-1780000D01*
G37*
G04 #@! TD*
D23*
G04 #@! TO.C,U7*
X2277500Y-1979000D03*
X2132500Y-1979000D03*
X2132500Y-1794000D03*
X2277500Y-1794000D03*
G04 #@! TD*
M02*
