M48
;DRILL file {KiCad (5.0.1)-3} date 04/09/19 12:41:30
;FORMAT={-:-/ absolute / inch / decimal}
FMAT,2
INCH,TZ
T1C0.0039
%
G90
G05
M72
T1
X0.685Y-0.9813
X0.685Y-0.997
X0.7008Y-0.9813
X0.7008Y-0.997
X0.7008Y-1.0128
X0.7165Y-0.9813
X0.7165Y-0.997
X0.7165Y-1.0266
X0.7323Y-1.0266
X0.7559Y-0.872
X0.7667Y-0.8337
X0.9075Y-0.7254
X0.9075Y-0.7313
X0.9134Y-0.7254
X0.9134Y-0.7313
X0.9193Y-0.7254
X0.9193Y-0.7313
X0.9252Y-0.7254
X0.9252Y-0.7313
X0.9311Y-0.7254
X0.9311Y-0.7313
X0.937Y-0.7254
X0.937Y-0.7313
X0.9429Y-0.7254
X0.9429Y-0.7313
X1.0906Y-0.7904
X1.1043Y-0.7264
X1.1476Y-0.9242
X1.1614Y-0.9813
T0
M30
