G04 #@! TF.GenerationSoftware,KiCad,Pcbnew,(5.0.1)-3*
G04 #@! TF.CreationDate,2019-04-09T12:58:51+08:00*
G04 #@! TF.ProjectId,tomu-fpga,746F6D752D667067612E6B696361645F,rev?*
G04 #@! TF.SameCoordinates,Original*
G04 #@! TF.FileFunction,Copper,L4,Bot,Signal*
G04 #@! TF.FilePolarity,Positive*
%FSLAX45Y45*%
G04 Gerber Fmt 4.5, Leading zero omitted, Abs format (unit mm)*
G04 Created by KiCad (PCBNEW (5.0.1)-3) date 04/09/19 12:58:51*
%MOMM*%
%LPD*%
G01*
G04 APERTURE LIST*
G04 #@! TA.AperFunction,SMDPad,CuDef*
%ADD10R,0.800000X0.900000*%
G04 #@! TD*
G04 #@! TA.AperFunction,SMDPad,CuDef*
%ADD11R,0.400000X0.400000*%
G04 #@! TD*
G04 #@! TA.AperFunction,BGAPad,CuDef*
%ADD12C,0.200000*%
G04 #@! TD*
G04 #@! TA.AperFunction,BGAPad,CuDef*
%ADD13C,0.230000*%
G04 #@! TD*
G04 #@! TA.AperFunction,Conductor*
%ADD14C,0.100000*%
G04 #@! TD*
G04 #@! TA.AperFunction,SMDPad,CuDef*
%ADD15C,0.590000*%
G04 #@! TD*
G04 #@! TA.AperFunction,SMDPad,CuDef*
%ADD16C,0.400000*%
G04 #@! TD*
G04 #@! TA.AperFunction,SMDPad,CuDef*
%ADD17C,0.140000*%
G04 #@! TD*
G04 #@! TA.AperFunction,SMDPad,CuDef*
%ADD18R,0.200000X1.600000*%
G04 #@! TD*
G04 #@! TA.AperFunction,SMDPad,CuDef*
%ADD19R,0.300000X0.250000*%
G04 #@! TD*
G04 #@! TA.AperFunction,SMDPad,CuDef*
%ADD20C,0.230000*%
G04 #@! TD*
G04 #@! TA.AperFunction,SMDPad,CuDef*
%ADD21C,0.580000*%
G04 #@! TD*
G04 #@! TA.AperFunction,Conductor*
%ADD22C,0.148492*%
G04 #@! TD*
G04 #@! TA.AperFunction,BGAPad,CuDef*
%ADD23C,0.700000*%
G04 #@! TD*
G04 #@! TA.AperFunction,ViaPad*
%ADD24C,0.200000*%
G04 #@! TD*
G04 #@! TA.AperFunction,Conductor*
%ADD25C,0.200000*%
G04 #@! TD*
G04 #@! TA.AperFunction,Conductor*
%ADD26C,0.400000*%
G04 #@! TD*
G04 #@! TA.AperFunction,Conductor*
%ADD27C,0.254000*%
G04 #@! TD*
G04 APERTURE END LIST*
D10*
G04 #@! TO.P,U7,2*
G04 #@! TO.N,GND*
X2277500Y-1979000D03*
G04 #@! TO.P,U7,3*
G04 #@! TO.N,/OSC_IN*
X2132500Y-1979000D03*
G04 #@! TO.P,U7,4*
G04 #@! TO.N,+3V3*
X2132500Y-1794000D03*
G04 #@! TO.P,U7,1*
G04 #@! TO.N,Net-(U7-Pad1)*
X2277500Y-1794000D03*
G04 #@! TD*
D11*
G04 #@! TO.P,U10,4*
G04 #@! TO.N,+3V3*
X2612000Y-2158000D03*
G04 #@! TO.P,U10,3*
G04 #@! TO.N,/LED_R*
X2612000Y-2218000D03*
G04 #@! TO.P,U10,1*
G04 #@! TO.N,/LED_B*
X2672000Y-2158000D03*
G04 #@! TO.P,U10,2*
G04 #@! TO.N,/LED_G*
X2672000Y-2218000D03*
G04 #@! TD*
D12*
G04 #@! TO.P,U5,D5*
G04 #@! TO.N,/TOUCH_2*
X2520000Y-2170000D03*
D13*
G04 #@! TO.P,U5,D4*
G04 #@! TO.N,+2V5*
X2480000Y-2170000D03*
D12*
G04 #@! TO.P,U5,C5*
G04 #@! TO.N,/LED_B*
X2520000Y-2210000D03*
D13*
G04 #@! TO.P,U5,C4*
G04 #@! TO.N,+3V3*
X2480000Y-2210000D03*
D12*
G04 #@! TO.P,U5,F4*
G04 #@! TO.N,/OSC_IN*
X2480000Y-2090000D03*
D13*
G04 #@! TO.P,U5,E4*
G04 #@! TO.N,/TOUCH_1*
X2480000Y-2130000D03*
D12*
G04 #@! TO.P,U5,E5*
G04 #@! TO.N,/TOUCH_3*
X2520000Y-2130000D03*
G04 #@! TO.P,U5,F5*
G04 #@! TO.N,/TOUCH_4*
X2520000Y-2090000D03*
G04 #@! TO.P,U5,A4*
G04 #@! TO.N,/PU_CTRL_USBP*
X2480000Y-2290000D03*
D13*
G04 #@! TO.P,U5,B4*
G04 #@! TO.N,GND*
X2480000Y-2250000D03*
D12*
G04 #@! TO.P,U5,A5*
G04 #@! TO.N,/LED_G*
X2520000Y-2290000D03*
G04 #@! TO.P,U5,B5*
G04 #@! TO.N,/LED_R*
X2520000Y-2250000D03*
G04 #@! TO.P,U5,F1*
G04 #@! TO.N,/SPI_MOSI*
X2360000Y-2090000D03*
G04 #@! TO.P,U5,E1*
G04 #@! TO.N,/SPI_MISO*
X2360000Y-2130000D03*
G04 #@! TO.P,U5,D1*
G04 #@! TO.N,/SPI_CLK*
X2360000Y-2170000D03*
G04 #@! TO.P,U5,A1*
G04 #@! TO.N,/ICE_USBP*
X2360000Y-2290000D03*
G04 #@! TO.P,U5,B1*
G04 #@! TO.N,/SPI_IO3*
X2360000Y-2250000D03*
G04 #@! TO.P,U5,C1*
G04 #@! TO.N,/SPI_CS*
X2360000Y-2210000D03*
G04 #@! TO.P,U5,F2*
G04 #@! TO.N,/SPI_IO2*
X2400000Y-2090000D03*
D13*
G04 #@! TO.P,U5,E2*
G04 #@! TO.N,GND*
X2400000Y-2130000D03*
G04 #@! TO.P,U5,D2*
G04 #@! TO.N,+3V3*
X2400000Y-2170000D03*
D12*
G04 #@! TO.P,U5,A2*
G04 #@! TO.N,/ICE_USBN*
X2400000Y-2290000D03*
D13*
G04 #@! TO.P,U5,B2*
G04 #@! TO.N,/VCCPLL*
X2400000Y-2250000D03*
G04 #@! TO.P,U5,C2*
G04 #@! TO.N,+1V2*
X2400000Y-2210000D03*
G04 #@! TO.P,U5,F3*
G04 #@! TO.N,/CRESET*
X2440000Y-2090000D03*
D12*
G04 #@! TO.P,U5,E3*
G04 #@! TO.N,Net-(U5-PadE3)*
X2440000Y-2130000D03*
D13*
G04 #@! TO.P,U5,D3*
G04 #@! TO.N,/CDONE*
X2440000Y-2170000D03*
G04 #@! TO.P,U5,A3*
G04 #@! TO.N,+3V3*
X2440000Y-2290000D03*
D12*
G04 #@! TO.P,U5,B3*
G04 #@! TO.N,Net-(U5-PadB3)*
X2440000Y-2250000D03*
D13*
G04 #@! TO.P,U5,C3*
G04 #@! TO.N,Net-(U5-PadC3)*
X2440000Y-2210000D03*
G04 #@! TD*
D14*
G04 #@! TO.N,/VCCPLL*
G04 #@! TO.C,C22*
G36*
X2048696Y-2468071D02*
X2050128Y-2468283D01*
X2051532Y-2468635D01*
X2052895Y-2469123D01*
X2054203Y-2469742D01*
X2055445Y-2470486D01*
X2056607Y-2471348D01*
X2057680Y-2472320D01*
X2058652Y-2473393D01*
X2059514Y-2474555D01*
X2060258Y-2475797D01*
X2060877Y-2477105D01*
X2061365Y-2478468D01*
X2061717Y-2479872D01*
X2061929Y-2481304D01*
X2062000Y-2482750D01*
X2062000Y-2512250D01*
X2061929Y-2513696D01*
X2061717Y-2515128D01*
X2061365Y-2516532D01*
X2060877Y-2517895D01*
X2060258Y-2519203D01*
X2059514Y-2520445D01*
X2058652Y-2521607D01*
X2057680Y-2522680D01*
X2056607Y-2523652D01*
X2055445Y-2524514D01*
X2054203Y-2525258D01*
X2052895Y-2525877D01*
X2051532Y-2526365D01*
X2050128Y-2526717D01*
X2048696Y-2526929D01*
X2047250Y-2527000D01*
X2012750Y-2527000D01*
X2011304Y-2526929D01*
X2009872Y-2526717D01*
X2008468Y-2526365D01*
X2007105Y-2525877D01*
X2005797Y-2525258D01*
X2004555Y-2524514D01*
X2003393Y-2523652D01*
X2002320Y-2522680D01*
X2001348Y-2521607D01*
X2000486Y-2520445D01*
X1999742Y-2519203D01*
X1999123Y-2517895D01*
X1998635Y-2516532D01*
X1998283Y-2515128D01*
X1998071Y-2513696D01*
X1998000Y-2512250D01*
X1998000Y-2482750D01*
X1998071Y-2481304D01*
X1998283Y-2479872D01*
X1998635Y-2478468D01*
X1999123Y-2477105D01*
X1999742Y-2475797D01*
X2000486Y-2474555D01*
X2001348Y-2473393D01*
X2002320Y-2472320D01*
X2003393Y-2471348D01*
X2004555Y-2470486D01*
X2005797Y-2469742D01*
X2007105Y-2469123D01*
X2008468Y-2468635D01*
X2009872Y-2468283D01*
X2011304Y-2468071D01*
X2012750Y-2468000D01*
X2047250Y-2468000D01*
X2048696Y-2468071D01*
X2048696Y-2468071D01*
G37*
D15*
G04 #@! TD*
G04 #@! TO.P,C22,2*
G04 #@! TO.N,/VCCPLL*
X2030000Y-2497500D03*
D14*
G04 #@! TO.N,GND*
G04 #@! TO.C,C22*
G36*
X2048696Y-2565071D02*
X2050128Y-2565283D01*
X2051532Y-2565635D01*
X2052895Y-2566123D01*
X2054203Y-2566742D01*
X2055445Y-2567486D01*
X2056607Y-2568348D01*
X2057680Y-2569320D01*
X2058652Y-2570393D01*
X2059514Y-2571555D01*
X2060258Y-2572797D01*
X2060877Y-2574105D01*
X2061365Y-2575468D01*
X2061717Y-2576872D01*
X2061929Y-2578304D01*
X2062000Y-2579750D01*
X2062000Y-2609250D01*
X2061929Y-2610696D01*
X2061717Y-2612128D01*
X2061365Y-2613532D01*
X2060877Y-2614895D01*
X2060258Y-2616203D01*
X2059514Y-2617445D01*
X2058652Y-2618607D01*
X2057680Y-2619680D01*
X2056607Y-2620652D01*
X2055445Y-2621514D01*
X2054203Y-2622258D01*
X2052895Y-2622877D01*
X2051532Y-2623365D01*
X2050128Y-2623717D01*
X2048696Y-2623929D01*
X2047250Y-2624000D01*
X2012750Y-2624000D01*
X2011304Y-2623929D01*
X2009872Y-2623717D01*
X2008468Y-2623365D01*
X2007105Y-2622877D01*
X2005797Y-2622258D01*
X2004555Y-2621514D01*
X2003393Y-2620652D01*
X2002320Y-2619680D01*
X2001348Y-2618607D01*
X2000486Y-2617445D01*
X1999742Y-2616203D01*
X1999123Y-2614895D01*
X1998635Y-2613532D01*
X1998283Y-2612128D01*
X1998071Y-2610696D01*
X1998000Y-2609250D01*
X1998000Y-2579750D01*
X1998071Y-2578304D01*
X1998283Y-2576872D01*
X1998635Y-2575468D01*
X1999123Y-2574105D01*
X1999742Y-2572797D01*
X2000486Y-2571555D01*
X2001348Y-2570393D01*
X2002320Y-2569320D01*
X2003393Y-2568348D01*
X2004555Y-2567486D01*
X2005797Y-2566742D01*
X2007105Y-2566123D01*
X2008468Y-2565635D01*
X2009872Y-2565283D01*
X2011304Y-2565071D01*
X2012750Y-2565000D01*
X2047250Y-2565000D01*
X2048696Y-2565071D01*
X2048696Y-2565071D01*
G37*
D15*
G04 #@! TD*
G04 #@! TO.P,C22,1*
G04 #@! TO.N,GND*
X2030000Y-2594500D03*
D14*
G04 #@! TO.N,GND*
G04 #@! TO.C,C23*
G36*
X1885980Y-2524048D02*
X1886951Y-2524192D01*
X1887903Y-2524431D01*
X1888827Y-2524761D01*
X1889714Y-2525181D01*
X1890556Y-2525685D01*
X1891344Y-2526270D01*
X1892071Y-2526929D01*
X1892730Y-2527656D01*
X1893315Y-2528444D01*
X1893819Y-2529286D01*
X1894239Y-2530173D01*
X1894569Y-2531097D01*
X1894808Y-2532049D01*
X1894952Y-2533020D01*
X1895000Y-2534000D01*
X1895000Y-2560000D01*
X1894952Y-2560980D01*
X1894808Y-2561951D01*
X1894569Y-2562903D01*
X1894239Y-2563827D01*
X1893819Y-2564714D01*
X1893315Y-2565556D01*
X1892730Y-2566344D01*
X1892071Y-2567071D01*
X1891344Y-2567730D01*
X1890556Y-2568315D01*
X1889714Y-2568819D01*
X1888827Y-2569239D01*
X1887903Y-2569569D01*
X1886951Y-2569808D01*
X1885980Y-2569952D01*
X1885000Y-2570000D01*
X1865000Y-2570000D01*
X1864020Y-2569952D01*
X1863049Y-2569808D01*
X1862097Y-2569569D01*
X1861173Y-2569239D01*
X1860286Y-2568819D01*
X1859444Y-2568315D01*
X1858656Y-2567730D01*
X1857929Y-2567071D01*
X1857270Y-2566344D01*
X1856685Y-2565556D01*
X1856181Y-2564714D01*
X1855761Y-2563827D01*
X1855431Y-2562903D01*
X1855192Y-2561951D01*
X1855048Y-2560980D01*
X1855000Y-2560000D01*
X1855000Y-2534000D01*
X1855048Y-2533020D01*
X1855192Y-2532049D01*
X1855431Y-2531097D01*
X1855761Y-2530173D01*
X1856181Y-2529286D01*
X1856685Y-2528444D01*
X1857270Y-2527656D01*
X1857929Y-2526929D01*
X1858656Y-2526270D01*
X1859444Y-2525685D01*
X1860286Y-2525181D01*
X1861173Y-2524761D01*
X1862097Y-2524431D01*
X1863049Y-2524192D01*
X1864020Y-2524048D01*
X1865000Y-2524000D01*
X1885000Y-2524000D01*
X1885980Y-2524048D01*
X1885980Y-2524048D01*
G37*
D16*
G04 #@! TD*
G04 #@! TO.P,C23,1*
G04 #@! TO.N,GND*
X1875000Y-2547000D03*
D14*
G04 #@! TO.N,/VCCPLL*
G04 #@! TO.C,C23*
G36*
X1885980Y-2460048D02*
X1886951Y-2460192D01*
X1887903Y-2460431D01*
X1888827Y-2460761D01*
X1889714Y-2461181D01*
X1890556Y-2461685D01*
X1891344Y-2462270D01*
X1892071Y-2462929D01*
X1892730Y-2463656D01*
X1893315Y-2464444D01*
X1893819Y-2465286D01*
X1894239Y-2466173D01*
X1894569Y-2467097D01*
X1894808Y-2468049D01*
X1894952Y-2469020D01*
X1895000Y-2470000D01*
X1895000Y-2496000D01*
X1894952Y-2496980D01*
X1894808Y-2497951D01*
X1894569Y-2498903D01*
X1894239Y-2499827D01*
X1893819Y-2500714D01*
X1893315Y-2501556D01*
X1892730Y-2502344D01*
X1892071Y-2503071D01*
X1891344Y-2503730D01*
X1890556Y-2504315D01*
X1889714Y-2504819D01*
X1888827Y-2505239D01*
X1887903Y-2505569D01*
X1886951Y-2505808D01*
X1885980Y-2505952D01*
X1885000Y-2506000D01*
X1865000Y-2506000D01*
X1864020Y-2505952D01*
X1863049Y-2505808D01*
X1862097Y-2505569D01*
X1861173Y-2505239D01*
X1860286Y-2504819D01*
X1859444Y-2504315D01*
X1858656Y-2503730D01*
X1857929Y-2503071D01*
X1857270Y-2502344D01*
X1856685Y-2501556D01*
X1856181Y-2500714D01*
X1855761Y-2499827D01*
X1855431Y-2498903D01*
X1855192Y-2497951D01*
X1855048Y-2496980D01*
X1855000Y-2496000D01*
X1855000Y-2470000D01*
X1855048Y-2469020D01*
X1855192Y-2468049D01*
X1855431Y-2467097D01*
X1855761Y-2466173D01*
X1856181Y-2465286D01*
X1856685Y-2464444D01*
X1857270Y-2463656D01*
X1857929Y-2462929D01*
X1858656Y-2462270D01*
X1859444Y-2461685D01*
X1860286Y-2461181D01*
X1861173Y-2460761D01*
X1862097Y-2460431D01*
X1863049Y-2460192D01*
X1864020Y-2460048D01*
X1865000Y-2460000D01*
X1885000Y-2460000D01*
X1885980Y-2460048D01*
X1885980Y-2460048D01*
G37*
D16*
G04 #@! TD*
G04 #@! TO.P,C23,2*
G04 #@! TO.N,/VCCPLL*
X1875000Y-2483000D03*
D14*
G04 #@! TO.N,+1V2*
G04 #@! TO.C,R10*
G36*
X1955980Y-2524548D02*
X1956951Y-2524692D01*
X1957903Y-2524931D01*
X1958827Y-2525261D01*
X1959714Y-2525681D01*
X1960556Y-2526185D01*
X1961344Y-2526770D01*
X1962071Y-2527429D01*
X1962730Y-2528156D01*
X1963315Y-2528944D01*
X1963819Y-2529786D01*
X1964239Y-2530673D01*
X1964569Y-2531597D01*
X1964808Y-2532549D01*
X1964952Y-2533520D01*
X1965000Y-2534500D01*
X1965000Y-2560500D01*
X1964952Y-2561480D01*
X1964808Y-2562451D01*
X1964569Y-2563403D01*
X1964239Y-2564327D01*
X1963819Y-2565214D01*
X1963315Y-2566056D01*
X1962730Y-2566844D01*
X1962071Y-2567571D01*
X1961344Y-2568230D01*
X1960556Y-2568815D01*
X1959714Y-2569319D01*
X1958827Y-2569739D01*
X1957903Y-2570069D01*
X1956951Y-2570308D01*
X1955980Y-2570452D01*
X1955000Y-2570500D01*
X1935000Y-2570500D01*
X1934020Y-2570452D01*
X1933049Y-2570308D01*
X1932097Y-2570069D01*
X1931173Y-2569739D01*
X1930286Y-2569319D01*
X1929444Y-2568815D01*
X1928656Y-2568230D01*
X1927929Y-2567571D01*
X1927270Y-2566844D01*
X1926685Y-2566056D01*
X1926181Y-2565214D01*
X1925761Y-2564327D01*
X1925431Y-2563403D01*
X1925192Y-2562451D01*
X1925048Y-2561480D01*
X1925000Y-2560500D01*
X1925000Y-2534500D01*
X1925048Y-2533520D01*
X1925192Y-2532549D01*
X1925431Y-2531597D01*
X1925761Y-2530673D01*
X1926181Y-2529786D01*
X1926685Y-2528944D01*
X1927270Y-2528156D01*
X1927929Y-2527429D01*
X1928656Y-2526770D01*
X1929444Y-2526185D01*
X1930286Y-2525681D01*
X1931173Y-2525261D01*
X1932097Y-2524931D01*
X1933049Y-2524692D01*
X1934020Y-2524548D01*
X1935000Y-2524500D01*
X1955000Y-2524500D01*
X1955980Y-2524548D01*
X1955980Y-2524548D01*
G37*
D16*
G04 #@! TD*
G04 #@! TO.P,R10,1*
G04 #@! TO.N,+1V2*
X1945000Y-2547500D03*
D14*
G04 #@! TO.N,/VCCPLL*
G04 #@! TO.C,R10*
G36*
X1955980Y-2460548D02*
X1956951Y-2460692D01*
X1957903Y-2460931D01*
X1958827Y-2461261D01*
X1959714Y-2461681D01*
X1960556Y-2462185D01*
X1961344Y-2462770D01*
X1962071Y-2463429D01*
X1962730Y-2464156D01*
X1963315Y-2464944D01*
X1963819Y-2465786D01*
X1964239Y-2466673D01*
X1964569Y-2467597D01*
X1964808Y-2468549D01*
X1964952Y-2469520D01*
X1965000Y-2470500D01*
X1965000Y-2496500D01*
X1964952Y-2497480D01*
X1964808Y-2498451D01*
X1964569Y-2499403D01*
X1964239Y-2500327D01*
X1963819Y-2501214D01*
X1963315Y-2502056D01*
X1962730Y-2502844D01*
X1962071Y-2503571D01*
X1961344Y-2504230D01*
X1960556Y-2504815D01*
X1959714Y-2505319D01*
X1958827Y-2505739D01*
X1957903Y-2506069D01*
X1956951Y-2506308D01*
X1955980Y-2506452D01*
X1955000Y-2506500D01*
X1935000Y-2506500D01*
X1934020Y-2506452D01*
X1933049Y-2506308D01*
X1932097Y-2506069D01*
X1931173Y-2505739D01*
X1930286Y-2505319D01*
X1929444Y-2504815D01*
X1928656Y-2504230D01*
X1927929Y-2503571D01*
X1927270Y-2502844D01*
X1926685Y-2502056D01*
X1926181Y-2501214D01*
X1925761Y-2500327D01*
X1925431Y-2499403D01*
X1925192Y-2498451D01*
X1925048Y-2497480D01*
X1925000Y-2496500D01*
X1925000Y-2470500D01*
X1925048Y-2469520D01*
X1925192Y-2468549D01*
X1925431Y-2467597D01*
X1925761Y-2466673D01*
X1926181Y-2465786D01*
X1926685Y-2464944D01*
X1927270Y-2464156D01*
X1927929Y-2463429D01*
X1928656Y-2462770D01*
X1929444Y-2462185D01*
X1930286Y-2461681D01*
X1931173Y-2461261D01*
X1932097Y-2460931D01*
X1933049Y-2460692D01*
X1934020Y-2460548D01*
X1935000Y-2460500D01*
X1955000Y-2460500D01*
X1955980Y-2460548D01*
X1955980Y-2460548D01*
G37*
D16*
G04 #@! TD*
G04 #@! TO.P,R10,2*
G04 #@! TO.N,/VCCPLL*
X1945000Y-2483500D03*
D14*
G04 #@! TO.N,GND*
G04 #@! TO.C,D5*
G36*
X1928843Y-2600517D02*
X1929183Y-2600567D01*
X1929516Y-2600651D01*
X1929839Y-2600766D01*
X1930150Y-2600913D01*
X1930444Y-2601090D01*
X1930720Y-2601295D01*
X1930975Y-2601525D01*
X1931205Y-2601780D01*
X1931410Y-2602056D01*
X1931587Y-2602350D01*
X1931734Y-2602661D01*
X1931849Y-2602984D01*
X1931933Y-2603317D01*
X1931983Y-2603657D01*
X1932000Y-2604000D01*
X1932000Y-2621000D01*
X1931983Y-2621343D01*
X1931933Y-2621683D01*
X1931849Y-2622016D01*
X1931734Y-2622339D01*
X1931587Y-2622650D01*
X1931410Y-2622945D01*
X1931205Y-2623220D01*
X1930975Y-2623475D01*
X1930720Y-2623706D01*
X1930444Y-2623910D01*
X1930150Y-2624087D01*
X1929839Y-2624234D01*
X1929516Y-2624349D01*
X1929183Y-2624433D01*
X1928843Y-2624483D01*
X1928500Y-2624500D01*
X1921500Y-2624500D01*
X1921157Y-2624483D01*
X1920817Y-2624433D01*
X1920484Y-2624349D01*
X1920161Y-2624234D01*
X1919850Y-2624087D01*
X1919555Y-2623910D01*
X1919280Y-2623706D01*
X1919025Y-2623475D01*
X1918794Y-2623220D01*
X1918590Y-2622945D01*
X1918413Y-2622650D01*
X1918266Y-2622339D01*
X1918151Y-2622016D01*
X1918067Y-2621683D01*
X1918017Y-2621343D01*
X1918000Y-2621000D01*
X1918000Y-2604000D01*
X1918017Y-2603657D01*
X1918067Y-2603317D01*
X1918151Y-2602984D01*
X1918266Y-2602661D01*
X1918413Y-2602350D01*
X1918590Y-2602056D01*
X1918794Y-2601780D01*
X1919025Y-2601525D01*
X1919280Y-2601295D01*
X1919555Y-2601090D01*
X1919850Y-2600913D01*
X1920161Y-2600766D01*
X1920484Y-2600651D01*
X1920817Y-2600567D01*
X1921157Y-2600517D01*
X1921500Y-2600500D01*
X1928500Y-2600500D01*
X1928843Y-2600517D01*
X1928843Y-2600517D01*
G37*
D17*
G04 #@! TD*
G04 #@! TO.P,D5,2*
G04 #@! TO.N,GND*
X1925000Y-2612500D03*
D14*
G04 #@! TO.N,+5V*
G04 #@! TO.C,D5*
G36*
X1888843Y-2600517D02*
X1889183Y-2600567D01*
X1889516Y-2600651D01*
X1889839Y-2600766D01*
X1890150Y-2600913D01*
X1890444Y-2601090D01*
X1890720Y-2601295D01*
X1890975Y-2601525D01*
X1891205Y-2601780D01*
X1891410Y-2602056D01*
X1891587Y-2602350D01*
X1891734Y-2602661D01*
X1891849Y-2602984D01*
X1891933Y-2603317D01*
X1891983Y-2603657D01*
X1892000Y-2604000D01*
X1892000Y-2621000D01*
X1891983Y-2621343D01*
X1891933Y-2621683D01*
X1891849Y-2622016D01*
X1891734Y-2622339D01*
X1891587Y-2622650D01*
X1891410Y-2622945D01*
X1891205Y-2623220D01*
X1890975Y-2623475D01*
X1890720Y-2623706D01*
X1890444Y-2623910D01*
X1890150Y-2624087D01*
X1889839Y-2624234D01*
X1889516Y-2624349D01*
X1889183Y-2624433D01*
X1888843Y-2624483D01*
X1888500Y-2624500D01*
X1881500Y-2624500D01*
X1881157Y-2624483D01*
X1880817Y-2624433D01*
X1880484Y-2624349D01*
X1880161Y-2624234D01*
X1879850Y-2624087D01*
X1879555Y-2623910D01*
X1879280Y-2623706D01*
X1879025Y-2623475D01*
X1878794Y-2623220D01*
X1878590Y-2622945D01*
X1878413Y-2622650D01*
X1878266Y-2622339D01*
X1878151Y-2622016D01*
X1878067Y-2621683D01*
X1878017Y-2621343D01*
X1878000Y-2621000D01*
X1878000Y-2604000D01*
X1878017Y-2603657D01*
X1878067Y-2603317D01*
X1878151Y-2602984D01*
X1878266Y-2602661D01*
X1878413Y-2602350D01*
X1878590Y-2602056D01*
X1878794Y-2601780D01*
X1879025Y-2601525D01*
X1879280Y-2601295D01*
X1879555Y-2601090D01*
X1879850Y-2600913D01*
X1880161Y-2600766D01*
X1880484Y-2600651D01*
X1880817Y-2600567D01*
X1881157Y-2600517D01*
X1881500Y-2600500D01*
X1888500Y-2600500D01*
X1888843Y-2600517D01*
X1888843Y-2600517D01*
G37*
D17*
G04 #@! TD*
G04 #@! TO.P,D5,1*
G04 #@! TO.N,+5V*
X1885000Y-2612500D03*
D18*
G04 #@! TO.P,U4,9*
G04 #@! TO.N,N/C*
X2292500Y-2492500D03*
D19*
G04 #@! TO.P,U4,8*
G04 #@! TO.N,+3V3*
X2172500Y-2417500D03*
G04 #@! TO.P,U4,7*
G04 #@! TO.N,/SPI_IO3*
X2172500Y-2467500D03*
G04 #@! TO.P,U4,6*
G04 #@! TO.N,/SPI_CLK*
X2172500Y-2517500D03*
G04 #@! TO.P,U4,5*
G04 #@! TO.N,/SPI_MOSI*
X2172500Y-2567500D03*
G04 #@! TO.P,U4,4*
G04 #@! TO.N,GND*
X2412500Y-2567500D03*
G04 #@! TO.P,U4,3*
G04 #@! TO.N,/SPI_IO2*
X2412500Y-2517500D03*
G04 #@! TO.P,U4,2*
G04 #@! TO.N,/SPI_MISO*
X2412500Y-2467500D03*
G04 #@! TO.P,U4,1*
G04 #@! TO.N,/SPI_CS*
X2412500Y-2417500D03*
G04 #@! TD*
D14*
G04 #@! TO.N,/USB_P*
G04 #@! TO.C,D6*
G36*
X2079814Y-2170028D02*
X2080372Y-2170111D01*
X2080919Y-2170248D01*
X2081450Y-2170438D01*
X2081960Y-2170679D01*
X2082444Y-2170969D01*
X2082898Y-2171305D01*
X2083316Y-2171684D01*
X2083695Y-2172102D01*
X2084031Y-2172556D01*
X2084321Y-2173040D01*
X2084562Y-2173550D01*
X2084752Y-2174081D01*
X2084889Y-2174628D01*
X2084972Y-2175186D01*
X2085000Y-2175750D01*
X2085000Y-2194250D01*
X2084972Y-2194814D01*
X2084889Y-2195372D01*
X2084752Y-2195919D01*
X2084562Y-2196450D01*
X2084321Y-2196961D01*
X2084031Y-2197445D01*
X2083695Y-2197898D01*
X2083316Y-2198316D01*
X2082898Y-2198695D01*
X2082444Y-2199031D01*
X2081960Y-2199321D01*
X2081450Y-2199562D01*
X2080919Y-2199752D01*
X2080372Y-2199890D01*
X2079814Y-2199972D01*
X2079250Y-2200000D01*
X2067750Y-2200000D01*
X2067186Y-2199972D01*
X2066628Y-2199890D01*
X2066081Y-2199752D01*
X2065550Y-2199562D01*
X2065039Y-2199321D01*
X2064555Y-2199031D01*
X2064102Y-2198695D01*
X2063684Y-2198316D01*
X2063305Y-2197898D01*
X2062969Y-2197445D01*
X2062679Y-2196961D01*
X2062438Y-2196450D01*
X2062248Y-2195919D01*
X2062110Y-2195372D01*
X2062028Y-2194814D01*
X2062000Y-2194250D01*
X2062000Y-2175750D01*
X2062028Y-2175186D01*
X2062110Y-2174628D01*
X2062248Y-2174081D01*
X2062438Y-2173550D01*
X2062679Y-2173040D01*
X2062969Y-2172556D01*
X2063305Y-2172102D01*
X2063684Y-2171684D01*
X2064102Y-2171305D01*
X2064555Y-2170969D01*
X2065039Y-2170679D01*
X2065550Y-2170438D01*
X2066081Y-2170248D01*
X2066628Y-2170111D01*
X2067186Y-2170028D01*
X2067750Y-2170000D01*
X2079250Y-2170000D01*
X2079814Y-2170028D01*
X2079814Y-2170028D01*
G37*
D20*
G04 #@! TD*
G04 #@! TO.P,D6,1*
G04 #@! TO.N,/USB_P*
X2073500Y-2185000D03*
D14*
G04 #@! TO.N,GND*
G04 #@! TO.C,D6*
G36*
X2117814Y-2170028D02*
X2118372Y-2170111D01*
X2118919Y-2170248D01*
X2119450Y-2170438D01*
X2119961Y-2170679D01*
X2120445Y-2170969D01*
X2120898Y-2171305D01*
X2121316Y-2171684D01*
X2121695Y-2172102D01*
X2122031Y-2172556D01*
X2122321Y-2173040D01*
X2122562Y-2173550D01*
X2122752Y-2174081D01*
X2122890Y-2174628D01*
X2122972Y-2175186D01*
X2123000Y-2175750D01*
X2123000Y-2194250D01*
X2122972Y-2194814D01*
X2122890Y-2195372D01*
X2122752Y-2195919D01*
X2122562Y-2196450D01*
X2122321Y-2196961D01*
X2122031Y-2197445D01*
X2121695Y-2197898D01*
X2121316Y-2198316D01*
X2120898Y-2198695D01*
X2120445Y-2199031D01*
X2119961Y-2199321D01*
X2119450Y-2199562D01*
X2118919Y-2199752D01*
X2118372Y-2199890D01*
X2117814Y-2199972D01*
X2117250Y-2200000D01*
X2105750Y-2200000D01*
X2105186Y-2199972D01*
X2104628Y-2199890D01*
X2104081Y-2199752D01*
X2103550Y-2199562D01*
X2103040Y-2199321D01*
X2102556Y-2199031D01*
X2102102Y-2198695D01*
X2101684Y-2198316D01*
X2101305Y-2197898D01*
X2100969Y-2197445D01*
X2100679Y-2196961D01*
X2100438Y-2196450D01*
X2100248Y-2195919D01*
X2100111Y-2195372D01*
X2100028Y-2194814D01*
X2100000Y-2194250D01*
X2100000Y-2175750D01*
X2100028Y-2175186D01*
X2100111Y-2174628D01*
X2100248Y-2174081D01*
X2100438Y-2173550D01*
X2100679Y-2173040D01*
X2100969Y-2172556D01*
X2101305Y-2172102D01*
X2101684Y-2171684D01*
X2102102Y-2171305D01*
X2102556Y-2170969D01*
X2103040Y-2170679D01*
X2103550Y-2170438D01*
X2104081Y-2170248D01*
X2104628Y-2170111D01*
X2105186Y-2170028D01*
X2105750Y-2170000D01*
X2117250Y-2170000D01*
X2117814Y-2170028D01*
X2117814Y-2170028D01*
G37*
D20*
G04 #@! TD*
G04 #@! TO.P,D6,2*
G04 #@! TO.N,GND*
X2111500Y-2185000D03*
D14*
G04 #@! TO.N,/USB_N*
G04 #@! TO.C,D7*
G36*
X1897814Y-2082528D02*
X1898372Y-2082610D01*
X1898919Y-2082748D01*
X1899450Y-2082938D01*
X1899960Y-2083179D01*
X1900444Y-2083469D01*
X1900898Y-2083805D01*
X1901316Y-2084184D01*
X1901695Y-2084602D01*
X1902031Y-2085055D01*
X1902321Y-2085539D01*
X1902562Y-2086050D01*
X1902752Y-2086581D01*
X1902889Y-2087128D01*
X1902972Y-2087686D01*
X1903000Y-2088250D01*
X1903000Y-2106750D01*
X1902972Y-2107314D01*
X1902889Y-2107872D01*
X1902752Y-2108419D01*
X1902562Y-2108950D01*
X1902321Y-2109461D01*
X1902031Y-2109945D01*
X1901695Y-2110398D01*
X1901316Y-2110816D01*
X1900898Y-2111195D01*
X1900444Y-2111531D01*
X1899960Y-2111821D01*
X1899450Y-2112062D01*
X1898919Y-2112252D01*
X1898372Y-2112390D01*
X1897814Y-2112472D01*
X1897250Y-2112500D01*
X1885750Y-2112500D01*
X1885186Y-2112472D01*
X1884628Y-2112390D01*
X1884081Y-2112252D01*
X1883550Y-2112062D01*
X1883039Y-2111821D01*
X1882555Y-2111531D01*
X1882102Y-2111195D01*
X1881684Y-2110816D01*
X1881305Y-2110398D01*
X1880969Y-2109945D01*
X1880679Y-2109461D01*
X1880438Y-2108950D01*
X1880248Y-2108419D01*
X1880110Y-2107872D01*
X1880028Y-2107314D01*
X1880000Y-2106750D01*
X1880000Y-2088250D01*
X1880028Y-2087686D01*
X1880110Y-2087128D01*
X1880248Y-2086581D01*
X1880438Y-2086050D01*
X1880679Y-2085539D01*
X1880969Y-2085055D01*
X1881305Y-2084602D01*
X1881684Y-2084184D01*
X1882102Y-2083805D01*
X1882555Y-2083469D01*
X1883039Y-2083179D01*
X1883550Y-2082938D01*
X1884081Y-2082748D01*
X1884628Y-2082610D01*
X1885186Y-2082528D01*
X1885750Y-2082500D01*
X1897250Y-2082500D01*
X1897814Y-2082528D01*
X1897814Y-2082528D01*
G37*
D20*
G04 #@! TD*
G04 #@! TO.P,D7,1*
G04 #@! TO.N,/USB_N*
X1891500Y-2097500D03*
D14*
G04 #@! TO.N,GND*
G04 #@! TO.C,D7*
G36*
X1859814Y-2082528D02*
X1860372Y-2082610D01*
X1860919Y-2082748D01*
X1861450Y-2082938D01*
X1861960Y-2083179D01*
X1862444Y-2083469D01*
X1862898Y-2083805D01*
X1863316Y-2084184D01*
X1863695Y-2084602D01*
X1864031Y-2085055D01*
X1864321Y-2085539D01*
X1864562Y-2086050D01*
X1864752Y-2086581D01*
X1864889Y-2087128D01*
X1864972Y-2087686D01*
X1865000Y-2088250D01*
X1865000Y-2106750D01*
X1864972Y-2107314D01*
X1864889Y-2107872D01*
X1864752Y-2108419D01*
X1864562Y-2108950D01*
X1864321Y-2109461D01*
X1864031Y-2109945D01*
X1863695Y-2110398D01*
X1863316Y-2110816D01*
X1862898Y-2111195D01*
X1862444Y-2111531D01*
X1861960Y-2111821D01*
X1861450Y-2112062D01*
X1860919Y-2112252D01*
X1860372Y-2112390D01*
X1859814Y-2112472D01*
X1859250Y-2112500D01*
X1847750Y-2112500D01*
X1847186Y-2112472D01*
X1846628Y-2112390D01*
X1846081Y-2112252D01*
X1845550Y-2112062D01*
X1845039Y-2111821D01*
X1844555Y-2111531D01*
X1844102Y-2111195D01*
X1843684Y-2110816D01*
X1843305Y-2110398D01*
X1842969Y-2109945D01*
X1842679Y-2109461D01*
X1842438Y-2108950D01*
X1842248Y-2108419D01*
X1842110Y-2107872D01*
X1842028Y-2107314D01*
X1842000Y-2106750D01*
X1842000Y-2088250D01*
X1842028Y-2087686D01*
X1842110Y-2087128D01*
X1842248Y-2086581D01*
X1842438Y-2086050D01*
X1842679Y-2085539D01*
X1842969Y-2085055D01*
X1843305Y-2084602D01*
X1843684Y-2084184D01*
X1844102Y-2083805D01*
X1844555Y-2083469D01*
X1845039Y-2083179D01*
X1845550Y-2082938D01*
X1846081Y-2082748D01*
X1846628Y-2082610D01*
X1847186Y-2082528D01*
X1847750Y-2082500D01*
X1859250Y-2082500D01*
X1859814Y-2082528D01*
X1859814Y-2082528D01*
G37*
D20*
G04 #@! TD*
G04 #@! TO.P,D7,2*
G04 #@! TO.N,GND*
X1853500Y-2097500D03*
D14*
G04 #@! TO.N,/TOUCH_1*
G04 #@! TO.C,D1*
G36*
X2722814Y-2420028D02*
X2723372Y-2420111D01*
X2723919Y-2420248D01*
X2724450Y-2420438D01*
X2724961Y-2420679D01*
X2725445Y-2420969D01*
X2725898Y-2421305D01*
X2726316Y-2421684D01*
X2726695Y-2422102D01*
X2727031Y-2422556D01*
X2727321Y-2423040D01*
X2727562Y-2423550D01*
X2727752Y-2424081D01*
X2727890Y-2424628D01*
X2727972Y-2425186D01*
X2728000Y-2425750D01*
X2728000Y-2444250D01*
X2727972Y-2444814D01*
X2727890Y-2445372D01*
X2727752Y-2445919D01*
X2727562Y-2446450D01*
X2727321Y-2446961D01*
X2727031Y-2447445D01*
X2726695Y-2447898D01*
X2726316Y-2448316D01*
X2725898Y-2448695D01*
X2725445Y-2449031D01*
X2724961Y-2449321D01*
X2724450Y-2449562D01*
X2723919Y-2449752D01*
X2723372Y-2449890D01*
X2722814Y-2449972D01*
X2722250Y-2450000D01*
X2710750Y-2450000D01*
X2710186Y-2449972D01*
X2709628Y-2449890D01*
X2709081Y-2449752D01*
X2708550Y-2449562D01*
X2708040Y-2449321D01*
X2707556Y-2449031D01*
X2707102Y-2448695D01*
X2706684Y-2448316D01*
X2706305Y-2447898D01*
X2705969Y-2447445D01*
X2705679Y-2446961D01*
X2705438Y-2446450D01*
X2705248Y-2445919D01*
X2705111Y-2445372D01*
X2705028Y-2444814D01*
X2705000Y-2444250D01*
X2705000Y-2425750D01*
X2705028Y-2425186D01*
X2705111Y-2424628D01*
X2705248Y-2424081D01*
X2705438Y-2423550D01*
X2705679Y-2423040D01*
X2705969Y-2422556D01*
X2706305Y-2422102D01*
X2706684Y-2421684D01*
X2707102Y-2421305D01*
X2707556Y-2420969D01*
X2708040Y-2420679D01*
X2708550Y-2420438D01*
X2709081Y-2420248D01*
X2709628Y-2420111D01*
X2710186Y-2420028D01*
X2710750Y-2420000D01*
X2722250Y-2420000D01*
X2722814Y-2420028D01*
X2722814Y-2420028D01*
G37*
D20*
G04 #@! TD*
G04 #@! TO.P,D1,1*
G04 #@! TO.N,/TOUCH_1*
X2716500Y-2435000D03*
D14*
G04 #@! TO.N,GND*
G04 #@! TO.C,D1*
G36*
X2684814Y-2420028D02*
X2685372Y-2420111D01*
X2685919Y-2420248D01*
X2686450Y-2420438D01*
X2686961Y-2420679D01*
X2687445Y-2420969D01*
X2687898Y-2421305D01*
X2688316Y-2421684D01*
X2688695Y-2422102D01*
X2689031Y-2422556D01*
X2689321Y-2423040D01*
X2689562Y-2423550D01*
X2689752Y-2424081D01*
X2689890Y-2424628D01*
X2689972Y-2425186D01*
X2690000Y-2425750D01*
X2690000Y-2444250D01*
X2689972Y-2444814D01*
X2689890Y-2445372D01*
X2689752Y-2445919D01*
X2689562Y-2446450D01*
X2689321Y-2446961D01*
X2689031Y-2447445D01*
X2688695Y-2447898D01*
X2688316Y-2448316D01*
X2687898Y-2448695D01*
X2687445Y-2449031D01*
X2686961Y-2449321D01*
X2686450Y-2449562D01*
X2685919Y-2449752D01*
X2685372Y-2449890D01*
X2684814Y-2449972D01*
X2684250Y-2450000D01*
X2672750Y-2450000D01*
X2672186Y-2449972D01*
X2671628Y-2449890D01*
X2671081Y-2449752D01*
X2670550Y-2449562D01*
X2670040Y-2449321D01*
X2669556Y-2449031D01*
X2669102Y-2448695D01*
X2668684Y-2448316D01*
X2668305Y-2447898D01*
X2667969Y-2447445D01*
X2667679Y-2446961D01*
X2667438Y-2446450D01*
X2667248Y-2445919D01*
X2667111Y-2445372D01*
X2667028Y-2444814D01*
X2667000Y-2444250D01*
X2667000Y-2425750D01*
X2667028Y-2425186D01*
X2667111Y-2424628D01*
X2667248Y-2424081D01*
X2667438Y-2423550D01*
X2667679Y-2423040D01*
X2667969Y-2422556D01*
X2668305Y-2422102D01*
X2668684Y-2421684D01*
X2669102Y-2421305D01*
X2669556Y-2420969D01*
X2670040Y-2420679D01*
X2670550Y-2420438D01*
X2671081Y-2420248D01*
X2671628Y-2420111D01*
X2672186Y-2420028D01*
X2672750Y-2420000D01*
X2684250Y-2420000D01*
X2684814Y-2420028D01*
X2684814Y-2420028D01*
G37*
D20*
G04 #@! TD*
G04 #@! TO.P,D1,2*
G04 #@! TO.N,GND*
X2678500Y-2435000D03*
D14*
G04 #@! TO.N,/TOUCH_2*
G04 #@! TO.C,D2*
G36*
X2699814Y-2287028D02*
X2700372Y-2287111D01*
X2700919Y-2287248D01*
X2701450Y-2287438D01*
X2701961Y-2287679D01*
X2702445Y-2287969D01*
X2702898Y-2288305D01*
X2703316Y-2288684D01*
X2703695Y-2289102D01*
X2704031Y-2289556D01*
X2704321Y-2290040D01*
X2704562Y-2290550D01*
X2704752Y-2291081D01*
X2704890Y-2291628D01*
X2704972Y-2292186D01*
X2705000Y-2292750D01*
X2705000Y-2304250D01*
X2704972Y-2304814D01*
X2704890Y-2305372D01*
X2704752Y-2305919D01*
X2704562Y-2306450D01*
X2704321Y-2306961D01*
X2704031Y-2307445D01*
X2703695Y-2307898D01*
X2703316Y-2308316D01*
X2702898Y-2308695D01*
X2702445Y-2309031D01*
X2701961Y-2309321D01*
X2701450Y-2309562D01*
X2700919Y-2309752D01*
X2700372Y-2309890D01*
X2699814Y-2309972D01*
X2699250Y-2310000D01*
X2680750Y-2310000D01*
X2680186Y-2309972D01*
X2679628Y-2309890D01*
X2679081Y-2309752D01*
X2678550Y-2309562D01*
X2678040Y-2309321D01*
X2677556Y-2309031D01*
X2677102Y-2308695D01*
X2676684Y-2308316D01*
X2676305Y-2307898D01*
X2675969Y-2307445D01*
X2675679Y-2306961D01*
X2675438Y-2306450D01*
X2675248Y-2305919D01*
X2675111Y-2305372D01*
X2675028Y-2304814D01*
X2675000Y-2304250D01*
X2675000Y-2292750D01*
X2675028Y-2292186D01*
X2675111Y-2291628D01*
X2675248Y-2291081D01*
X2675438Y-2290550D01*
X2675679Y-2290040D01*
X2675969Y-2289556D01*
X2676305Y-2289102D01*
X2676684Y-2288684D01*
X2677102Y-2288305D01*
X2677556Y-2287969D01*
X2678040Y-2287679D01*
X2678550Y-2287438D01*
X2679081Y-2287248D01*
X2679628Y-2287111D01*
X2680186Y-2287028D01*
X2680750Y-2287000D01*
X2699250Y-2287000D01*
X2699814Y-2287028D01*
X2699814Y-2287028D01*
G37*
D20*
G04 #@! TD*
G04 #@! TO.P,D2,1*
G04 #@! TO.N,/TOUCH_2*
X2690000Y-2298500D03*
D14*
G04 #@! TO.N,GND*
G04 #@! TO.C,D2*
G36*
X2699814Y-2325028D02*
X2700372Y-2325111D01*
X2700919Y-2325248D01*
X2701450Y-2325438D01*
X2701961Y-2325679D01*
X2702445Y-2325969D01*
X2702898Y-2326305D01*
X2703316Y-2326684D01*
X2703695Y-2327102D01*
X2704031Y-2327556D01*
X2704321Y-2328040D01*
X2704562Y-2328550D01*
X2704752Y-2329081D01*
X2704890Y-2329628D01*
X2704972Y-2330186D01*
X2705000Y-2330750D01*
X2705000Y-2342250D01*
X2704972Y-2342814D01*
X2704890Y-2343372D01*
X2704752Y-2343919D01*
X2704562Y-2344450D01*
X2704321Y-2344961D01*
X2704031Y-2345445D01*
X2703695Y-2345898D01*
X2703316Y-2346316D01*
X2702898Y-2346695D01*
X2702445Y-2347031D01*
X2701961Y-2347321D01*
X2701450Y-2347562D01*
X2700919Y-2347752D01*
X2700372Y-2347890D01*
X2699814Y-2347972D01*
X2699250Y-2348000D01*
X2680750Y-2348000D01*
X2680186Y-2347972D01*
X2679628Y-2347890D01*
X2679081Y-2347752D01*
X2678550Y-2347562D01*
X2678040Y-2347321D01*
X2677556Y-2347031D01*
X2677102Y-2346695D01*
X2676684Y-2346316D01*
X2676305Y-2345898D01*
X2675969Y-2345445D01*
X2675679Y-2344961D01*
X2675438Y-2344450D01*
X2675248Y-2343919D01*
X2675111Y-2343372D01*
X2675028Y-2342814D01*
X2675000Y-2342250D01*
X2675000Y-2330750D01*
X2675028Y-2330186D01*
X2675111Y-2329628D01*
X2675248Y-2329081D01*
X2675438Y-2328550D01*
X2675679Y-2328040D01*
X2675969Y-2327556D01*
X2676305Y-2327102D01*
X2676684Y-2326684D01*
X2677102Y-2326305D01*
X2677556Y-2325969D01*
X2678040Y-2325679D01*
X2678550Y-2325438D01*
X2679081Y-2325248D01*
X2679628Y-2325111D01*
X2680186Y-2325028D01*
X2680750Y-2325000D01*
X2699250Y-2325000D01*
X2699814Y-2325028D01*
X2699814Y-2325028D01*
G37*
D20*
G04 #@! TD*
G04 #@! TO.P,D2,2*
G04 #@! TO.N,GND*
X2690000Y-2336500D03*
D14*
G04 #@! TO.N,/TOUCH_4*
G04 #@! TO.C,D3*
G36*
X2609814Y-1877528D02*
X2610372Y-1877610D01*
X2610919Y-1877748D01*
X2611450Y-1877938D01*
X2611961Y-1878179D01*
X2612445Y-1878469D01*
X2612898Y-1878805D01*
X2613316Y-1879184D01*
X2613695Y-1879602D01*
X2614031Y-1880055D01*
X2614321Y-1880539D01*
X2614562Y-1881050D01*
X2614752Y-1881581D01*
X2614890Y-1882128D01*
X2614972Y-1882686D01*
X2615000Y-1883250D01*
X2615000Y-1901750D01*
X2614972Y-1902314D01*
X2614890Y-1902872D01*
X2614752Y-1903419D01*
X2614562Y-1903950D01*
X2614321Y-1904460D01*
X2614031Y-1904944D01*
X2613695Y-1905398D01*
X2613316Y-1905816D01*
X2612898Y-1906195D01*
X2612445Y-1906531D01*
X2611961Y-1906821D01*
X2611450Y-1907062D01*
X2610919Y-1907252D01*
X2610372Y-1907389D01*
X2609814Y-1907472D01*
X2609250Y-1907500D01*
X2597750Y-1907500D01*
X2597186Y-1907472D01*
X2596628Y-1907389D01*
X2596081Y-1907252D01*
X2595550Y-1907062D01*
X2595040Y-1906821D01*
X2594556Y-1906531D01*
X2594102Y-1906195D01*
X2593684Y-1905816D01*
X2593305Y-1905398D01*
X2592969Y-1904944D01*
X2592679Y-1904460D01*
X2592438Y-1903950D01*
X2592248Y-1903419D01*
X2592111Y-1902872D01*
X2592028Y-1902314D01*
X2592000Y-1901750D01*
X2592000Y-1883250D01*
X2592028Y-1882686D01*
X2592111Y-1882128D01*
X2592248Y-1881581D01*
X2592438Y-1881050D01*
X2592679Y-1880539D01*
X2592969Y-1880055D01*
X2593305Y-1879602D01*
X2593684Y-1879184D01*
X2594102Y-1878805D01*
X2594556Y-1878469D01*
X2595040Y-1878179D01*
X2595550Y-1877938D01*
X2596081Y-1877748D01*
X2596628Y-1877610D01*
X2597186Y-1877528D01*
X2597750Y-1877500D01*
X2609250Y-1877500D01*
X2609814Y-1877528D01*
X2609814Y-1877528D01*
G37*
D20*
G04 #@! TD*
G04 #@! TO.P,D3,1*
G04 #@! TO.N,/TOUCH_4*
X2603500Y-1892500D03*
D14*
G04 #@! TO.N,GND*
G04 #@! TO.C,D3*
G36*
X2647814Y-1877528D02*
X2648372Y-1877610D01*
X2648919Y-1877748D01*
X2649450Y-1877938D01*
X2649961Y-1878179D01*
X2650445Y-1878469D01*
X2650898Y-1878805D01*
X2651316Y-1879184D01*
X2651695Y-1879602D01*
X2652031Y-1880055D01*
X2652321Y-1880539D01*
X2652562Y-1881050D01*
X2652752Y-1881581D01*
X2652890Y-1882128D01*
X2652972Y-1882686D01*
X2653000Y-1883250D01*
X2653000Y-1901750D01*
X2652972Y-1902314D01*
X2652890Y-1902872D01*
X2652752Y-1903419D01*
X2652562Y-1903950D01*
X2652321Y-1904460D01*
X2652031Y-1904944D01*
X2651695Y-1905398D01*
X2651316Y-1905816D01*
X2650898Y-1906195D01*
X2650445Y-1906531D01*
X2649961Y-1906821D01*
X2649450Y-1907062D01*
X2648919Y-1907252D01*
X2648372Y-1907389D01*
X2647814Y-1907472D01*
X2647250Y-1907500D01*
X2635750Y-1907500D01*
X2635186Y-1907472D01*
X2634628Y-1907389D01*
X2634081Y-1907252D01*
X2633550Y-1907062D01*
X2633040Y-1906821D01*
X2632556Y-1906531D01*
X2632102Y-1906195D01*
X2631684Y-1905816D01*
X2631305Y-1905398D01*
X2630969Y-1904944D01*
X2630679Y-1904460D01*
X2630438Y-1903950D01*
X2630248Y-1903419D01*
X2630111Y-1902872D01*
X2630028Y-1902314D01*
X2630000Y-1901750D01*
X2630000Y-1883250D01*
X2630028Y-1882686D01*
X2630111Y-1882128D01*
X2630248Y-1881581D01*
X2630438Y-1881050D01*
X2630679Y-1880539D01*
X2630969Y-1880055D01*
X2631305Y-1879602D01*
X2631684Y-1879184D01*
X2632102Y-1878805D01*
X2632556Y-1878469D01*
X2633040Y-1878179D01*
X2633550Y-1877938D01*
X2634081Y-1877748D01*
X2634628Y-1877610D01*
X2635186Y-1877528D01*
X2635750Y-1877500D01*
X2647250Y-1877500D01*
X2647814Y-1877528D01*
X2647814Y-1877528D01*
G37*
D20*
G04 #@! TD*
G04 #@! TO.P,D3,2*
G04 #@! TO.N,GND*
X2641500Y-1892500D03*
D14*
G04 #@! TO.N,/TOUCH_3*
G04 #@! TO.C,D4*
G36*
X2742314Y-2042528D02*
X2742872Y-2042610D01*
X2743419Y-2042748D01*
X2743950Y-2042938D01*
X2744461Y-2043179D01*
X2744945Y-2043469D01*
X2745398Y-2043805D01*
X2745816Y-2044184D01*
X2746195Y-2044602D01*
X2746531Y-2045055D01*
X2746821Y-2045539D01*
X2747062Y-2046050D01*
X2747252Y-2046581D01*
X2747390Y-2047128D01*
X2747472Y-2047686D01*
X2747500Y-2048250D01*
X2747500Y-2059750D01*
X2747472Y-2060314D01*
X2747390Y-2060872D01*
X2747252Y-2061419D01*
X2747062Y-2061950D01*
X2746821Y-2062460D01*
X2746531Y-2062944D01*
X2746195Y-2063398D01*
X2745816Y-2063816D01*
X2745398Y-2064195D01*
X2744945Y-2064531D01*
X2744461Y-2064821D01*
X2743950Y-2065062D01*
X2743419Y-2065252D01*
X2742872Y-2065389D01*
X2742314Y-2065472D01*
X2741750Y-2065500D01*
X2723250Y-2065500D01*
X2722686Y-2065472D01*
X2722128Y-2065389D01*
X2721581Y-2065252D01*
X2721050Y-2065062D01*
X2720540Y-2064821D01*
X2720056Y-2064531D01*
X2719602Y-2064195D01*
X2719184Y-2063816D01*
X2718805Y-2063398D01*
X2718469Y-2062944D01*
X2718179Y-2062460D01*
X2717938Y-2061950D01*
X2717748Y-2061419D01*
X2717611Y-2060872D01*
X2717528Y-2060314D01*
X2717500Y-2059750D01*
X2717500Y-2048250D01*
X2717528Y-2047686D01*
X2717611Y-2047128D01*
X2717748Y-2046581D01*
X2717938Y-2046050D01*
X2718179Y-2045539D01*
X2718469Y-2045055D01*
X2718805Y-2044602D01*
X2719184Y-2044184D01*
X2719602Y-2043805D01*
X2720056Y-2043469D01*
X2720540Y-2043179D01*
X2721050Y-2042938D01*
X2721581Y-2042748D01*
X2722128Y-2042610D01*
X2722686Y-2042528D01*
X2723250Y-2042500D01*
X2741750Y-2042500D01*
X2742314Y-2042528D01*
X2742314Y-2042528D01*
G37*
D20*
G04 #@! TD*
G04 #@! TO.P,D4,1*
G04 #@! TO.N,/TOUCH_3*
X2732500Y-2054000D03*
D14*
G04 #@! TO.N,GND*
G04 #@! TO.C,D4*
G36*
X2742314Y-2004528D02*
X2742872Y-2004610D01*
X2743419Y-2004748D01*
X2743950Y-2004938D01*
X2744461Y-2005179D01*
X2744945Y-2005469D01*
X2745398Y-2005805D01*
X2745816Y-2006184D01*
X2746195Y-2006602D01*
X2746531Y-2007055D01*
X2746821Y-2007539D01*
X2747062Y-2008050D01*
X2747252Y-2008581D01*
X2747390Y-2009128D01*
X2747472Y-2009686D01*
X2747500Y-2010250D01*
X2747500Y-2021750D01*
X2747472Y-2022314D01*
X2747390Y-2022872D01*
X2747252Y-2023419D01*
X2747062Y-2023950D01*
X2746821Y-2024460D01*
X2746531Y-2024944D01*
X2746195Y-2025398D01*
X2745816Y-2025816D01*
X2745398Y-2026195D01*
X2744945Y-2026531D01*
X2744461Y-2026821D01*
X2743950Y-2027062D01*
X2743419Y-2027252D01*
X2742872Y-2027389D01*
X2742314Y-2027472D01*
X2741750Y-2027500D01*
X2723250Y-2027500D01*
X2722686Y-2027472D01*
X2722128Y-2027389D01*
X2721581Y-2027252D01*
X2721050Y-2027062D01*
X2720540Y-2026821D01*
X2720056Y-2026531D01*
X2719602Y-2026195D01*
X2719184Y-2025816D01*
X2718805Y-2025398D01*
X2718469Y-2024944D01*
X2718179Y-2024460D01*
X2717938Y-2023950D01*
X2717748Y-2023419D01*
X2717611Y-2022872D01*
X2717528Y-2022314D01*
X2717500Y-2021750D01*
X2717500Y-2010250D01*
X2717528Y-2009686D01*
X2717611Y-2009128D01*
X2717748Y-2008581D01*
X2717938Y-2008050D01*
X2718179Y-2007539D01*
X2718469Y-2007055D01*
X2718805Y-2006602D01*
X2719184Y-2006184D01*
X2719602Y-2005805D01*
X2720056Y-2005469D01*
X2720540Y-2005179D01*
X2721050Y-2004938D01*
X2721581Y-2004748D01*
X2722128Y-2004610D01*
X2722686Y-2004528D01*
X2723250Y-2004500D01*
X2741750Y-2004500D01*
X2742314Y-2004528D01*
X2742314Y-2004528D01*
G37*
D20*
G04 #@! TD*
G04 #@! TO.P,D4,2*
G04 #@! TO.N,GND*
X2732500Y-2016000D03*
D21*
G04 #@! TO.P,U3,5*
G04 #@! TO.N,GND*
X1900000Y-1970000D03*
D14*
G04 #@! TD*
G04 #@! TO.N,GND*
G04 #@! TO.C,U3*
G36*
X1941012Y-1970000D02*
X1900000Y-2011012D01*
X1858988Y-1970000D01*
X1900000Y-1928988D01*
X1941012Y-1970000D01*
X1941012Y-1970000D01*
G37*
D22*
G04 #@! TO.N,GND*
G04 #@! TO.C,U3*
X1943000Y-2002500D03*
D14*
G36*
X1920000Y-2007929D02*
X1940929Y-1987000D01*
X1966000Y-1987000D01*
X1966000Y-2018000D01*
X1920000Y-2018000D01*
X1920000Y-2007929D01*
X1920000Y-2007929D01*
G37*
D22*
G04 #@! TO.N,+3V3*
X1857000Y-2002500D03*
D14*
G36*
X1834000Y-1987000D02*
X1859071Y-1987000D01*
X1880000Y-2007929D01*
X1880000Y-2018000D01*
X1834000Y-2018000D01*
X1834000Y-1987000D01*
X1834000Y-1987000D01*
G37*
D22*
G04 #@! TO.N,+5V*
X1857000Y-1937500D03*
D14*
G36*
X1834000Y-1922000D02*
X1880000Y-1922000D01*
X1880000Y-1932071D01*
X1859071Y-1953000D01*
X1834000Y-1953000D01*
X1834000Y-1922000D01*
X1834000Y-1922000D01*
G37*
D22*
G04 #@! TO.N,+2V5*
X1943000Y-1937500D03*
D14*
G36*
X1920000Y-1932071D02*
X1920000Y-1922000D01*
X1966000Y-1922000D01*
X1966000Y-1953000D01*
X1940929Y-1953000D01*
X1920000Y-1932071D01*
X1920000Y-1932071D01*
G37*
G04 #@! TD*
G04 #@! TO.N,GND*
G04 #@! TO.C,C28*
G36*
X2595980Y-2400048D02*
X2596951Y-2400192D01*
X2597903Y-2400431D01*
X2598827Y-2400761D01*
X2599714Y-2401181D01*
X2600556Y-2401685D01*
X2601344Y-2402270D01*
X2602071Y-2402929D01*
X2602730Y-2403656D01*
X2603315Y-2404444D01*
X2603819Y-2405286D01*
X2604239Y-2406173D01*
X2604569Y-2407097D01*
X2604808Y-2408049D01*
X2604952Y-2409020D01*
X2605000Y-2410000D01*
X2605000Y-2430000D01*
X2604952Y-2430980D01*
X2604808Y-2431951D01*
X2604569Y-2432903D01*
X2604239Y-2433827D01*
X2603819Y-2434714D01*
X2603315Y-2435556D01*
X2602730Y-2436344D01*
X2602071Y-2437071D01*
X2601344Y-2437730D01*
X2600556Y-2438315D01*
X2599714Y-2438819D01*
X2598827Y-2439239D01*
X2597903Y-2439569D01*
X2596951Y-2439808D01*
X2595980Y-2439952D01*
X2595000Y-2440000D01*
X2569000Y-2440000D01*
X2568020Y-2439952D01*
X2567049Y-2439808D01*
X2566097Y-2439569D01*
X2565173Y-2439239D01*
X2564286Y-2438819D01*
X2563444Y-2438315D01*
X2562656Y-2437730D01*
X2561929Y-2437071D01*
X2561270Y-2436344D01*
X2560685Y-2435556D01*
X2560181Y-2434714D01*
X2559761Y-2433827D01*
X2559431Y-2432903D01*
X2559192Y-2431951D01*
X2559048Y-2430980D01*
X2559000Y-2430000D01*
X2559000Y-2410000D01*
X2559048Y-2409020D01*
X2559192Y-2408049D01*
X2559431Y-2407097D01*
X2559761Y-2406173D01*
X2560181Y-2405286D01*
X2560685Y-2404444D01*
X2561270Y-2403656D01*
X2561929Y-2402929D01*
X2562656Y-2402270D01*
X2563444Y-2401685D01*
X2564286Y-2401181D01*
X2565173Y-2400761D01*
X2566097Y-2400431D01*
X2567049Y-2400192D01*
X2568020Y-2400048D01*
X2569000Y-2400000D01*
X2595000Y-2400000D01*
X2595980Y-2400048D01*
X2595980Y-2400048D01*
G37*
D16*
G04 #@! TD*
G04 #@! TO.P,C28,1*
G04 #@! TO.N,GND*
X2582000Y-2420000D03*
D14*
G04 #@! TO.N,+3V3*
G04 #@! TO.C,C28*
G36*
X2531980Y-2400048D02*
X2532951Y-2400192D01*
X2533903Y-2400431D01*
X2534827Y-2400761D01*
X2535714Y-2401181D01*
X2536556Y-2401685D01*
X2537344Y-2402270D01*
X2538071Y-2402929D01*
X2538730Y-2403656D01*
X2539315Y-2404444D01*
X2539819Y-2405286D01*
X2540239Y-2406173D01*
X2540569Y-2407097D01*
X2540808Y-2408049D01*
X2540952Y-2409020D01*
X2541000Y-2410000D01*
X2541000Y-2430000D01*
X2540952Y-2430980D01*
X2540808Y-2431951D01*
X2540569Y-2432903D01*
X2540239Y-2433827D01*
X2539819Y-2434714D01*
X2539315Y-2435556D01*
X2538730Y-2436344D01*
X2538071Y-2437071D01*
X2537344Y-2437730D01*
X2536556Y-2438315D01*
X2535714Y-2438819D01*
X2534827Y-2439239D01*
X2533903Y-2439569D01*
X2532951Y-2439808D01*
X2531980Y-2439952D01*
X2531000Y-2440000D01*
X2505000Y-2440000D01*
X2504020Y-2439952D01*
X2503049Y-2439808D01*
X2502097Y-2439569D01*
X2501173Y-2439239D01*
X2500286Y-2438819D01*
X2499444Y-2438315D01*
X2498656Y-2437730D01*
X2497929Y-2437071D01*
X2497270Y-2436344D01*
X2496685Y-2435556D01*
X2496181Y-2434714D01*
X2495761Y-2433827D01*
X2495431Y-2432903D01*
X2495192Y-2431951D01*
X2495048Y-2430980D01*
X2495000Y-2430000D01*
X2495000Y-2410000D01*
X2495048Y-2409020D01*
X2495192Y-2408049D01*
X2495431Y-2407097D01*
X2495761Y-2406173D01*
X2496181Y-2405286D01*
X2496685Y-2404444D01*
X2497270Y-2403656D01*
X2497929Y-2402929D01*
X2498656Y-2402270D01*
X2499444Y-2401685D01*
X2500286Y-2401181D01*
X2501173Y-2400761D01*
X2502097Y-2400431D01*
X2503049Y-2400192D01*
X2504020Y-2400048D01*
X2505000Y-2400000D01*
X2531000Y-2400000D01*
X2531980Y-2400048D01*
X2531980Y-2400048D01*
G37*
D16*
G04 #@! TD*
G04 #@! TO.P,C28,2*
G04 #@! TO.N,+3V3*
X2518000Y-2420000D03*
D21*
G04 #@! TO.P,U2,5*
G04 #@! TO.N,GND*
X1890000Y-2370000D03*
D14*
G04 #@! TD*
G04 #@! TO.N,GND*
G04 #@! TO.C,U2*
G36*
X1931012Y-2370000D02*
X1890000Y-2411012D01*
X1848988Y-2370000D01*
X1890000Y-2328988D01*
X1931012Y-2370000D01*
X1931012Y-2370000D01*
G37*
D22*
G04 #@! TO.N,GND*
G04 #@! TO.C,U2*
X1933000Y-2402500D03*
D14*
G36*
X1910000Y-2407929D02*
X1930929Y-2387000D01*
X1956000Y-2387000D01*
X1956000Y-2418000D01*
X1910000Y-2418000D01*
X1910000Y-2407929D01*
X1910000Y-2407929D01*
G37*
D22*
G04 #@! TO.N,+1V2*
X1847000Y-2402500D03*
D14*
G36*
X1824000Y-2387000D02*
X1849071Y-2387000D01*
X1870000Y-2407929D01*
X1870000Y-2418000D01*
X1824000Y-2418000D01*
X1824000Y-2387000D01*
X1824000Y-2387000D01*
G37*
D22*
G04 #@! TO.N,+5V*
X1847000Y-2337500D03*
D14*
G36*
X1824000Y-2322000D02*
X1870000Y-2322000D01*
X1870000Y-2332071D01*
X1849071Y-2353000D01*
X1824000Y-2353000D01*
X1824000Y-2322000D01*
X1824000Y-2322000D01*
G37*
D22*
G04 #@! TO.N,+3V3*
X1933000Y-2337500D03*
D14*
G36*
X1910000Y-2332071D02*
X1910000Y-2322000D01*
X1956000Y-2322000D01*
X1956000Y-2353000D01*
X1930929Y-2353000D01*
X1910000Y-2332071D01*
X1910000Y-2332071D01*
G37*
G04 #@! TD*
D23*
G04 #@! TO.P,TP3,1*
G04 #@! TO.N,/SPI_MISO*
X2630000Y-1782500D03*
G04 #@! TD*
D14*
G04 #@! TO.N,+5V*
G04 #@! TO.C,C1*
G36*
X1784980Y-1827548D02*
X1785951Y-1827692D01*
X1786903Y-1827931D01*
X1787827Y-1828261D01*
X1788714Y-1828681D01*
X1789556Y-1829185D01*
X1790344Y-1829770D01*
X1791071Y-1830429D01*
X1791730Y-1831156D01*
X1792315Y-1831944D01*
X1792819Y-1832786D01*
X1793239Y-1833673D01*
X1793569Y-1834597D01*
X1793808Y-1835549D01*
X1793952Y-1836520D01*
X1794000Y-1837500D01*
X1794000Y-1863500D01*
X1793952Y-1864480D01*
X1793808Y-1865451D01*
X1793569Y-1866403D01*
X1793239Y-1867327D01*
X1792819Y-1868214D01*
X1792315Y-1869056D01*
X1791730Y-1869844D01*
X1791071Y-1870571D01*
X1790344Y-1871230D01*
X1789556Y-1871815D01*
X1788714Y-1872319D01*
X1787827Y-1872739D01*
X1786903Y-1873069D01*
X1785951Y-1873308D01*
X1784980Y-1873452D01*
X1784000Y-1873500D01*
X1764000Y-1873500D01*
X1763020Y-1873452D01*
X1762049Y-1873308D01*
X1761097Y-1873069D01*
X1760173Y-1872739D01*
X1759286Y-1872319D01*
X1758444Y-1871815D01*
X1757656Y-1871230D01*
X1756929Y-1870571D01*
X1756270Y-1869844D01*
X1755685Y-1869056D01*
X1755181Y-1868214D01*
X1754761Y-1867327D01*
X1754431Y-1866403D01*
X1754192Y-1865451D01*
X1754048Y-1864480D01*
X1754000Y-1863500D01*
X1754000Y-1837500D01*
X1754048Y-1836520D01*
X1754192Y-1835549D01*
X1754431Y-1834597D01*
X1754761Y-1833673D01*
X1755181Y-1832786D01*
X1755685Y-1831944D01*
X1756270Y-1831156D01*
X1756929Y-1830429D01*
X1757656Y-1829770D01*
X1758444Y-1829185D01*
X1759286Y-1828681D01*
X1760173Y-1828261D01*
X1761097Y-1827931D01*
X1762049Y-1827692D01*
X1763020Y-1827548D01*
X1764000Y-1827500D01*
X1784000Y-1827500D01*
X1784980Y-1827548D01*
X1784980Y-1827548D01*
G37*
D16*
G04 #@! TD*
G04 #@! TO.P,C1,1*
G04 #@! TO.N,+5V*
X1774000Y-1850500D03*
D14*
G04 #@! TO.N,GND*
G04 #@! TO.C,C1*
G36*
X1784980Y-1763548D02*
X1785951Y-1763692D01*
X1786903Y-1763931D01*
X1787827Y-1764261D01*
X1788714Y-1764681D01*
X1789556Y-1765185D01*
X1790344Y-1765770D01*
X1791071Y-1766429D01*
X1791730Y-1767156D01*
X1792315Y-1767944D01*
X1792819Y-1768786D01*
X1793239Y-1769673D01*
X1793569Y-1770597D01*
X1793808Y-1771549D01*
X1793952Y-1772520D01*
X1794000Y-1773500D01*
X1794000Y-1799500D01*
X1793952Y-1800480D01*
X1793808Y-1801451D01*
X1793569Y-1802403D01*
X1793239Y-1803327D01*
X1792819Y-1804214D01*
X1792315Y-1805056D01*
X1791730Y-1805844D01*
X1791071Y-1806571D01*
X1790344Y-1807230D01*
X1789556Y-1807815D01*
X1788714Y-1808319D01*
X1787827Y-1808739D01*
X1786903Y-1809069D01*
X1785951Y-1809308D01*
X1784980Y-1809452D01*
X1784000Y-1809500D01*
X1764000Y-1809500D01*
X1763020Y-1809452D01*
X1762049Y-1809308D01*
X1761097Y-1809069D01*
X1760173Y-1808739D01*
X1759286Y-1808319D01*
X1758444Y-1807815D01*
X1757656Y-1807230D01*
X1756929Y-1806571D01*
X1756270Y-1805844D01*
X1755685Y-1805056D01*
X1755181Y-1804214D01*
X1754761Y-1803327D01*
X1754431Y-1802403D01*
X1754192Y-1801451D01*
X1754048Y-1800480D01*
X1754000Y-1799500D01*
X1754000Y-1773500D01*
X1754048Y-1772520D01*
X1754192Y-1771549D01*
X1754431Y-1770597D01*
X1754761Y-1769673D01*
X1755181Y-1768786D01*
X1755685Y-1767944D01*
X1756270Y-1767156D01*
X1756929Y-1766429D01*
X1757656Y-1765770D01*
X1758444Y-1765185D01*
X1759286Y-1764681D01*
X1760173Y-1764261D01*
X1761097Y-1763931D01*
X1762049Y-1763692D01*
X1763020Y-1763548D01*
X1764000Y-1763500D01*
X1784000Y-1763500D01*
X1784980Y-1763548D01*
X1784980Y-1763548D01*
G37*
D16*
G04 #@! TD*
G04 #@! TO.P,C1,2*
G04 #@! TO.N,GND*
X1774000Y-1786500D03*
D14*
G04 #@! TO.N,GND*
G04 #@! TO.C,C11*
G36*
X2456980Y-1754548D02*
X2457951Y-1754692D01*
X2458903Y-1754931D01*
X2459827Y-1755261D01*
X2460714Y-1755681D01*
X2461556Y-1756185D01*
X2462344Y-1756770D01*
X2463071Y-1757429D01*
X2463730Y-1758156D01*
X2464315Y-1758944D01*
X2464819Y-1759786D01*
X2465239Y-1760673D01*
X2465569Y-1761597D01*
X2465808Y-1762549D01*
X2465952Y-1763520D01*
X2466000Y-1764500D01*
X2466000Y-1784500D01*
X2465952Y-1785480D01*
X2465808Y-1786451D01*
X2465569Y-1787403D01*
X2465239Y-1788327D01*
X2464819Y-1789214D01*
X2464315Y-1790056D01*
X2463730Y-1790844D01*
X2463071Y-1791571D01*
X2462344Y-1792230D01*
X2461556Y-1792815D01*
X2460714Y-1793319D01*
X2459827Y-1793739D01*
X2458903Y-1794069D01*
X2457951Y-1794308D01*
X2456980Y-1794452D01*
X2456000Y-1794500D01*
X2430000Y-1794500D01*
X2429020Y-1794452D01*
X2428049Y-1794308D01*
X2427097Y-1794069D01*
X2426173Y-1793739D01*
X2425286Y-1793319D01*
X2424444Y-1792815D01*
X2423656Y-1792230D01*
X2422929Y-1791571D01*
X2422270Y-1790844D01*
X2421685Y-1790056D01*
X2421181Y-1789214D01*
X2420761Y-1788327D01*
X2420431Y-1787403D01*
X2420192Y-1786451D01*
X2420048Y-1785480D01*
X2420000Y-1784500D01*
X2420000Y-1764500D01*
X2420048Y-1763520D01*
X2420192Y-1762549D01*
X2420431Y-1761597D01*
X2420761Y-1760673D01*
X2421181Y-1759786D01*
X2421685Y-1758944D01*
X2422270Y-1758156D01*
X2422929Y-1757429D01*
X2423656Y-1756770D01*
X2424444Y-1756185D01*
X2425286Y-1755681D01*
X2426173Y-1755261D01*
X2427097Y-1754931D01*
X2428049Y-1754692D01*
X2429020Y-1754548D01*
X2430000Y-1754500D01*
X2456000Y-1754500D01*
X2456980Y-1754548D01*
X2456980Y-1754548D01*
G37*
D16*
G04 #@! TD*
G04 #@! TO.P,C11,1*
G04 #@! TO.N,GND*
X2443000Y-1774500D03*
D14*
G04 #@! TO.N,+3V3*
G04 #@! TO.C,C11*
G36*
X2392980Y-1754548D02*
X2393951Y-1754692D01*
X2394903Y-1754931D01*
X2395827Y-1755261D01*
X2396714Y-1755681D01*
X2397556Y-1756185D01*
X2398344Y-1756770D01*
X2399071Y-1757429D01*
X2399730Y-1758156D01*
X2400315Y-1758944D01*
X2400819Y-1759786D01*
X2401239Y-1760673D01*
X2401569Y-1761597D01*
X2401808Y-1762549D01*
X2401952Y-1763520D01*
X2402000Y-1764500D01*
X2402000Y-1784500D01*
X2401952Y-1785480D01*
X2401808Y-1786451D01*
X2401569Y-1787403D01*
X2401239Y-1788327D01*
X2400819Y-1789214D01*
X2400315Y-1790056D01*
X2399730Y-1790844D01*
X2399071Y-1791571D01*
X2398344Y-1792230D01*
X2397556Y-1792815D01*
X2396714Y-1793319D01*
X2395827Y-1793739D01*
X2394903Y-1794069D01*
X2393951Y-1794308D01*
X2392980Y-1794452D01*
X2392000Y-1794500D01*
X2366000Y-1794500D01*
X2365020Y-1794452D01*
X2364049Y-1794308D01*
X2363097Y-1794069D01*
X2362173Y-1793739D01*
X2361286Y-1793319D01*
X2360444Y-1792815D01*
X2359656Y-1792230D01*
X2358929Y-1791571D01*
X2358270Y-1790844D01*
X2357685Y-1790056D01*
X2357181Y-1789214D01*
X2356761Y-1788327D01*
X2356431Y-1787403D01*
X2356192Y-1786451D01*
X2356048Y-1785480D01*
X2356000Y-1784500D01*
X2356000Y-1764500D01*
X2356048Y-1763520D01*
X2356192Y-1762549D01*
X2356431Y-1761597D01*
X2356761Y-1760673D01*
X2357181Y-1759786D01*
X2357685Y-1758944D01*
X2358270Y-1758156D01*
X2358929Y-1757429D01*
X2359656Y-1756770D01*
X2360444Y-1756185D01*
X2361286Y-1755681D01*
X2362173Y-1755261D01*
X2363097Y-1754931D01*
X2364049Y-1754692D01*
X2365020Y-1754548D01*
X2366000Y-1754500D01*
X2392000Y-1754500D01*
X2392980Y-1754548D01*
X2392980Y-1754548D01*
G37*
D16*
G04 #@! TD*
G04 #@! TO.P,C11,2*
G04 #@! TO.N,+3V3*
X2379000Y-1774500D03*
D14*
G04 #@! TO.N,+1V2*
G04 #@! TO.C,C17*
G36*
X2220980Y-2131548D02*
X2221951Y-2131692D01*
X2222903Y-2131931D01*
X2223827Y-2132261D01*
X2224714Y-2132681D01*
X2225556Y-2133185D01*
X2226344Y-2133770D01*
X2227071Y-2134429D01*
X2227730Y-2135156D01*
X2228315Y-2135944D01*
X2228819Y-2136786D01*
X2229239Y-2137673D01*
X2229569Y-2138597D01*
X2229808Y-2139549D01*
X2229952Y-2140520D01*
X2230000Y-2141500D01*
X2230000Y-2167500D01*
X2229952Y-2168480D01*
X2229808Y-2169451D01*
X2229569Y-2170403D01*
X2229239Y-2171327D01*
X2228819Y-2172214D01*
X2228315Y-2173056D01*
X2227730Y-2173844D01*
X2227071Y-2174571D01*
X2226344Y-2175230D01*
X2225556Y-2175815D01*
X2224714Y-2176319D01*
X2223827Y-2176739D01*
X2222903Y-2177069D01*
X2221951Y-2177308D01*
X2220980Y-2177452D01*
X2220000Y-2177500D01*
X2200000Y-2177500D01*
X2199020Y-2177452D01*
X2198049Y-2177308D01*
X2197097Y-2177069D01*
X2196173Y-2176739D01*
X2195286Y-2176319D01*
X2194444Y-2175815D01*
X2193656Y-2175230D01*
X2192929Y-2174571D01*
X2192270Y-2173844D01*
X2191685Y-2173056D01*
X2191181Y-2172214D01*
X2190761Y-2171327D01*
X2190431Y-2170403D01*
X2190192Y-2169451D01*
X2190048Y-2168480D01*
X2190000Y-2167500D01*
X2190000Y-2141500D01*
X2190048Y-2140520D01*
X2190192Y-2139549D01*
X2190431Y-2138597D01*
X2190761Y-2137673D01*
X2191181Y-2136786D01*
X2191685Y-2135944D01*
X2192270Y-2135156D01*
X2192929Y-2134429D01*
X2193656Y-2133770D01*
X2194444Y-2133185D01*
X2195286Y-2132681D01*
X2196173Y-2132261D01*
X2197097Y-2131931D01*
X2198049Y-2131692D01*
X2199020Y-2131548D01*
X2200000Y-2131500D01*
X2220000Y-2131500D01*
X2220980Y-2131548D01*
X2220980Y-2131548D01*
G37*
D16*
G04 #@! TD*
G04 #@! TO.P,C17,1*
G04 #@! TO.N,+1V2*
X2210000Y-2154500D03*
D14*
G04 #@! TO.N,GND*
G04 #@! TO.C,C17*
G36*
X2220980Y-2067548D02*
X2221951Y-2067692D01*
X2222903Y-2067931D01*
X2223827Y-2068261D01*
X2224714Y-2068681D01*
X2225556Y-2069185D01*
X2226344Y-2069770D01*
X2227071Y-2070429D01*
X2227730Y-2071156D01*
X2228315Y-2071944D01*
X2228819Y-2072786D01*
X2229239Y-2073673D01*
X2229569Y-2074597D01*
X2229808Y-2075549D01*
X2229952Y-2076520D01*
X2230000Y-2077500D01*
X2230000Y-2103500D01*
X2229952Y-2104480D01*
X2229808Y-2105451D01*
X2229569Y-2106403D01*
X2229239Y-2107327D01*
X2228819Y-2108214D01*
X2228315Y-2109056D01*
X2227730Y-2109844D01*
X2227071Y-2110571D01*
X2226344Y-2111230D01*
X2225556Y-2111815D01*
X2224714Y-2112319D01*
X2223827Y-2112739D01*
X2222903Y-2113069D01*
X2221951Y-2113308D01*
X2220980Y-2113452D01*
X2220000Y-2113500D01*
X2200000Y-2113500D01*
X2199020Y-2113452D01*
X2198049Y-2113308D01*
X2197097Y-2113069D01*
X2196173Y-2112739D01*
X2195286Y-2112319D01*
X2194444Y-2111815D01*
X2193656Y-2111230D01*
X2192929Y-2110571D01*
X2192270Y-2109844D01*
X2191685Y-2109056D01*
X2191181Y-2108214D01*
X2190761Y-2107327D01*
X2190431Y-2106403D01*
X2190192Y-2105451D01*
X2190048Y-2104480D01*
X2190000Y-2103500D01*
X2190000Y-2077500D01*
X2190048Y-2076520D01*
X2190192Y-2075549D01*
X2190431Y-2074597D01*
X2190761Y-2073673D01*
X2191181Y-2072786D01*
X2191685Y-2071944D01*
X2192270Y-2071156D01*
X2192929Y-2070429D01*
X2193656Y-2069770D01*
X2194444Y-2069185D01*
X2195286Y-2068681D01*
X2196173Y-2068261D01*
X2197097Y-2067931D01*
X2198049Y-2067692D01*
X2199020Y-2067548D01*
X2200000Y-2067500D01*
X2220000Y-2067500D01*
X2220980Y-2067548D01*
X2220980Y-2067548D01*
G37*
D16*
G04 #@! TD*
G04 #@! TO.P,C17,2*
G04 #@! TO.N,GND*
X2210000Y-2090500D03*
D14*
G04 #@! TO.N,+1V2*
G04 #@! TO.C,C20*
G36*
X2290980Y-2131548D02*
X2291951Y-2131692D01*
X2292903Y-2131931D01*
X2293827Y-2132261D01*
X2294714Y-2132681D01*
X2295556Y-2133185D01*
X2296344Y-2133770D01*
X2297071Y-2134429D01*
X2297730Y-2135156D01*
X2298315Y-2135944D01*
X2298819Y-2136786D01*
X2299239Y-2137673D01*
X2299569Y-2138597D01*
X2299808Y-2139549D01*
X2299952Y-2140520D01*
X2300000Y-2141500D01*
X2300000Y-2167500D01*
X2299952Y-2168480D01*
X2299808Y-2169451D01*
X2299569Y-2170403D01*
X2299239Y-2171327D01*
X2298819Y-2172214D01*
X2298315Y-2173056D01*
X2297730Y-2173844D01*
X2297071Y-2174571D01*
X2296344Y-2175230D01*
X2295556Y-2175815D01*
X2294714Y-2176319D01*
X2293827Y-2176739D01*
X2292903Y-2177069D01*
X2291951Y-2177308D01*
X2290980Y-2177452D01*
X2290000Y-2177500D01*
X2270000Y-2177500D01*
X2269020Y-2177452D01*
X2268049Y-2177308D01*
X2267097Y-2177069D01*
X2266173Y-2176739D01*
X2265286Y-2176319D01*
X2264444Y-2175815D01*
X2263656Y-2175230D01*
X2262929Y-2174571D01*
X2262270Y-2173844D01*
X2261685Y-2173056D01*
X2261181Y-2172214D01*
X2260761Y-2171327D01*
X2260431Y-2170403D01*
X2260192Y-2169451D01*
X2260048Y-2168480D01*
X2260000Y-2167500D01*
X2260000Y-2141500D01*
X2260048Y-2140520D01*
X2260192Y-2139549D01*
X2260431Y-2138597D01*
X2260761Y-2137673D01*
X2261181Y-2136786D01*
X2261685Y-2135944D01*
X2262270Y-2135156D01*
X2262929Y-2134429D01*
X2263656Y-2133770D01*
X2264444Y-2133185D01*
X2265286Y-2132681D01*
X2266173Y-2132261D01*
X2267097Y-2131931D01*
X2268049Y-2131692D01*
X2269020Y-2131548D01*
X2270000Y-2131500D01*
X2290000Y-2131500D01*
X2290980Y-2131548D01*
X2290980Y-2131548D01*
G37*
D16*
G04 #@! TD*
G04 #@! TO.P,C20,1*
G04 #@! TO.N,+1V2*
X2280000Y-2154500D03*
D14*
G04 #@! TO.N,GND*
G04 #@! TO.C,C20*
G36*
X2290980Y-2067548D02*
X2291951Y-2067692D01*
X2292903Y-2067931D01*
X2293827Y-2068261D01*
X2294714Y-2068681D01*
X2295556Y-2069185D01*
X2296344Y-2069770D01*
X2297071Y-2070429D01*
X2297730Y-2071156D01*
X2298315Y-2071944D01*
X2298819Y-2072786D01*
X2299239Y-2073673D01*
X2299569Y-2074597D01*
X2299808Y-2075549D01*
X2299952Y-2076520D01*
X2300000Y-2077500D01*
X2300000Y-2103500D01*
X2299952Y-2104480D01*
X2299808Y-2105451D01*
X2299569Y-2106403D01*
X2299239Y-2107327D01*
X2298819Y-2108214D01*
X2298315Y-2109056D01*
X2297730Y-2109844D01*
X2297071Y-2110571D01*
X2296344Y-2111230D01*
X2295556Y-2111815D01*
X2294714Y-2112319D01*
X2293827Y-2112739D01*
X2292903Y-2113069D01*
X2291951Y-2113308D01*
X2290980Y-2113452D01*
X2290000Y-2113500D01*
X2270000Y-2113500D01*
X2269020Y-2113452D01*
X2268049Y-2113308D01*
X2267097Y-2113069D01*
X2266173Y-2112739D01*
X2265286Y-2112319D01*
X2264444Y-2111815D01*
X2263656Y-2111230D01*
X2262929Y-2110571D01*
X2262270Y-2109844D01*
X2261685Y-2109056D01*
X2261181Y-2108214D01*
X2260761Y-2107327D01*
X2260431Y-2106403D01*
X2260192Y-2105451D01*
X2260048Y-2104480D01*
X2260000Y-2103500D01*
X2260000Y-2077500D01*
X2260048Y-2076520D01*
X2260192Y-2075549D01*
X2260431Y-2074597D01*
X2260761Y-2073673D01*
X2261181Y-2072786D01*
X2261685Y-2071944D01*
X2262270Y-2071156D01*
X2262929Y-2070429D01*
X2263656Y-2069770D01*
X2264444Y-2069185D01*
X2265286Y-2068681D01*
X2266173Y-2068261D01*
X2267097Y-2067931D01*
X2268049Y-2067692D01*
X2269020Y-2067548D01*
X2270000Y-2067500D01*
X2290000Y-2067500D01*
X2290980Y-2067548D01*
X2290980Y-2067548D01*
G37*
D16*
G04 #@! TD*
G04 #@! TO.P,C20,2*
G04 #@! TO.N,GND*
X2280000Y-2090500D03*
D14*
G04 #@! TO.N,+2V5*
G04 #@! TO.C,C21*
G36*
X2611980Y-2012548D02*
X2612951Y-2012692D01*
X2613903Y-2012931D01*
X2614827Y-2013261D01*
X2615714Y-2013681D01*
X2616556Y-2014185D01*
X2617344Y-2014770D01*
X2618071Y-2015429D01*
X2618730Y-2016156D01*
X2619315Y-2016944D01*
X2619819Y-2017786D01*
X2620239Y-2018673D01*
X2620569Y-2019597D01*
X2620808Y-2020549D01*
X2620952Y-2021520D01*
X2621000Y-2022500D01*
X2621000Y-2042500D01*
X2620952Y-2043480D01*
X2620808Y-2044451D01*
X2620569Y-2045403D01*
X2620239Y-2046327D01*
X2619819Y-2047214D01*
X2619315Y-2048056D01*
X2618730Y-2048844D01*
X2618071Y-2049571D01*
X2617344Y-2050230D01*
X2616556Y-2050815D01*
X2615714Y-2051319D01*
X2614827Y-2051739D01*
X2613903Y-2052069D01*
X2612951Y-2052308D01*
X2611980Y-2052452D01*
X2611000Y-2052500D01*
X2585000Y-2052500D01*
X2584020Y-2052452D01*
X2583049Y-2052308D01*
X2582097Y-2052069D01*
X2581173Y-2051739D01*
X2580286Y-2051319D01*
X2579444Y-2050815D01*
X2578656Y-2050230D01*
X2577929Y-2049571D01*
X2577270Y-2048844D01*
X2576685Y-2048056D01*
X2576181Y-2047214D01*
X2575761Y-2046327D01*
X2575431Y-2045403D01*
X2575192Y-2044451D01*
X2575048Y-2043480D01*
X2575000Y-2042500D01*
X2575000Y-2022500D01*
X2575048Y-2021520D01*
X2575192Y-2020549D01*
X2575431Y-2019597D01*
X2575761Y-2018673D01*
X2576181Y-2017786D01*
X2576685Y-2016944D01*
X2577270Y-2016156D01*
X2577929Y-2015429D01*
X2578656Y-2014770D01*
X2579444Y-2014185D01*
X2580286Y-2013681D01*
X2581173Y-2013261D01*
X2582097Y-2012931D01*
X2583049Y-2012692D01*
X2584020Y-2012548D01*
X2585000Y-2012500D01*
X2611000Y-2012500D01*
X2611980Y-2012548D01*
X2611980Y-2012548D01*
G37*
D16*
G04 #@! TD*
G04 #@! TO.P,C21,1*
G04 #@! TO.N,+2V5*
X2598000Y-2032500D03*
D14*
G04 #@! TO.N,GND*
G04 #@! TO.C,C21*
G36*
X2675980Y-2012548D02*
X2676951Y-2012692D01*
X2677903Y-2012931D01*
X2678827Y-2013261D01*
X2679714Y-2013681D01*
X2680556Y-2014185D01*
X2681344Y-2014770D01*
X2682071Y-2015429D01*
X2682730Y-2016156D01*
X2683315Y-2016944D01*
X2683819Y-2017786D01*
X2684239Y-2018673D01*
X2684569Y-2019597D01*
X2684808Y-2020549D01*
X2684952Y-2021520D01*
X2685000Y-2022500D01*
X2685000Y-2042500D01*
X2684952Y-2043480D01*
X2684808Y-2044451D01*
X2684569Y-2045403D01*
X2684239Y-2046327D01*
X2683819Y-2047214D01*
X2683315Y-2048056D01*
X2682730Y-2048844D01*
X2682071Y-2049571D01*
X2681344Y-2050230D01*
X2680556Y-2050815D01*
X2679714Y-2051319D01*
X2678827Y-2051739D01*
X2677903Y-2052069D01*
X2676951Y-2052308D01*
X2675980Y-2052452D01*
X2675000Y-2052500D01*
X2649000Y-2052500D01*
X2648020Y-2052452D01*
X2647049Y-2052308D01*
X2646097Y-2052069D01*
X2645173Y-2051739D01*
X2644286Y-2051319D01*
X2643444Y-2050815D01*
X2642656Y-2050230D01*
X2641929Y-2049571D01*
X2641270Y-2048844D01*
X2640685Y-2048056D01*
X2640181Y-2047214D01*
X2639761Y-2046327D01*
X2639431Y-2045403D01*
X2639192Y-2044451D01*
X2639048Y-2043480D01*
X2639000Y-2042500D01*
X2639000Y-2022500D01*
X2639048Y-2021520D01*
X2639192Y-2020549D01*
X2639431Y-2019597D01*
X2639761Y-2018673D01*
X2640181Y-2017786D01*
X2640685Y-2016944D01*
X2641270Y-2016156D01*
X2641929Y-2015429D01*
X2642656Y-2014770D01*
X2643444Y-2014185D01*
X2644286Y-2013681D01*
X2645173Y-2013261D01*
X2646097Y-2012931D01*
X2647049Y-2012692D01*
X2648020Y-2012548D01*
X2649000Y-2012500D01*
X2675000Y-2012500D01*
X2675980Y-2012548D01*
X2675980Y-2012548D01*
G37*
D16*
G04 #@! TD*
G04 #@! TO.P,C21,2*
G04 #@! TO.N,GND*
X2662000Y-2032500D03*
D14*
G04 #@! TO.N,GND*
G04 #@! TO.C,C24*
G36*
X2595980Y-2470048D02*
X2596951Y-2470192D01*
X2597903Y-2470431D01*
X2598827Y-2470761D01*
X2599714Y-2471181D01*
X2600556Y-2471685D01*
X2601344Y-2472270D01*
X2602071Y-2472929D01*
X2602730Y-2473656D01*
X2603315Y-2474444D01*
X2603819Y-2475286D01*
X2604239Y-2476173D01*
X2604569Y-2477097D01*
X2604808Y-2478049D01*
X2604952Y-2479020D01*
X2605000Y-2480000D01*
X2605000Y-2500000D01*
X2604952Y-2500980D01*
X2604808Y-2501951D01*
X2604569Y-2502903D01*
X2604239Y-2503827D01*
X2603819Y-2504714D01*
X2603315Y-2505556D01*
X2602730Y-2506344D01*
X2602071Y-2507071D01*
X2601344Y-2507730D01*
X2600556Y-2508315D01*
X2599714Y-2508819D01*
X2598827Y-2509239D01*
X2597903Y-2509569D01*
X2596951Y-2509808D01*
X2595980Y-2509952D01*
X2595000Y-2510000D01*
X2569000Y-2510000D01*
X2568020Y-2509952D01*
X2567049Y-2509808D01*
X2566097Y-2509569D01*
X2565173Y-2509239D01*
X2564286Y-2508819D01*
X2563444Y-2508315D01*
X2562656Y-2507730D01*
X2561929Y-2507071D01*
X2561270Y-2506344D01*
X2560685Y-2505556D01*
X2560181Y-2504714D01*
X2559761Y-2503827D01*
X2559431Y-2502903D01*
X2559192Y-2501951D01*
X2559048Y-2500980D01*
X2559000Y-2500000D01*
X2559000Y-2480000D01*
X2559048Y-2479020D01*
X2559192Y-2478049D01*
X2559431Y-2477097D01*
X2559761Y-2476173D01*
X2560181Y-2475286D01*
X2560685Y-2474444D01*
X2561270Y-2473656D01*
X2561929Y-2472929D01*
X2562656Y-2472270D01*
X2563444Y-2471685D01*
X2564286Y-2471181D01*
X2565173Y-2470761D01*
X2566097Y-2470431D01*
X2567049Y-2470192D01*
X2568020Y-2470048D01*
X2569000Y-2470000D01*
X2595000Y-2470000D01*
X2595980Y-2470048D01*
X2595980Y-2470048D01*
G37*
D16*
G04 #@! TD*
G04 #@! TO.P,C24,1*
G04 #@! TO.N,GND*
X2582000Y-2490000D03*
D14*
G04 #@! TO.N,+3V3*
G04 #@! TO.C,C24*
G36*
X2531980Y-2470048D02*
X2532951Y-2470192D01*
X2533903Y-2470431D01*
X2534827Y-2470761D01*
X2535714Y-2471181D01*
X2536556Y-2471685D01*
X2537344Y-2472270D01*
X2538071Y-2472929D01*
X2538730Y-2473656D01*
X2539315Y-2474444D01*
X2539819Y-2475286D01*
X2540239Y-2476173D01*
X2540569Y-2477097D01*
X2540808Y-2478049D01*
X2540952Y-2479020D01*
X2541000Y-2480000D01*
X2541000Y-2500000D01*
X2540952Y-2500980D01*
X2540808Y-2501951D01*
X2540569Y-2502903D01*
X2540239Y-2503827D01*
X2539819Y-2504714D01*
X2539315Y-2505556D01*
X2538730Y-2506344D01*
X2538071Y-2507071D01*
X2537344Y-2507730D01*
X2536556Y-2508315D01*
X2535714Y-2508819D01*
X2534827Y-2509239D01*
X2533903Y-2509569D01*
X2532951Y-2509808D01*
X2531980Y-2509952D01*
X2531000Y-2510000D01*
X2505000Y-2510000D01*
X2504020Y-2509952D01*
X2503049Y-2509808D01*
X2502097Y-2509569D01*
X2501173Y-2509239D01*
X2500286Y-2508819D01*
X2499444Y-2508315D01*
X2498656Y-2507730D01*
X2497929Y-2507071D01*
X2497270Y-2506344D01*
X2496685Y-2505556D01*
X2496181Y-2504714D01*
X2495761Y-2503827D01*
X2495431Y-2502903D01*
X2495192Y-2501951D01*
X2495048Y-2500980D01*
X2495000Y-2500000D01*
X2495000Y-2480000D01*
X2495048Y-2479020D01*
X2495192Y-2478049D01*
X2495431Y-2477097D01*
X2495761Y-2476173D01*
X2496181Y-2475286D01*
X2496685Y-2474444D01*
X2497270Y-2473656D01*
X2497929Y-2472929D01*
X2498656Y-2472270D01*
X2499444Y-2471685D01*
X2500286Y-2471181D01*
X2501173Y-2470761D01*
X2502097Y-2470431D01*
X2503049Y-2470192D01*
X2504020Y-2470048D01*
X2505000Y-2470000D01*
X2531000Y-2470000D01*
X2531980Y-2470048D01*
X2531980Y-2470048D01*
G37*
D16*
G04 #@! TD*
G04 #@! TO.P,C24,2*
G04 #@! TO.N,+3V3*
X2518000Y-2490000D03*
D14*
G04 #@! TO.N,+2V5*
G04 #@! TO.C,C25*
G36*
X2611980Y-1942548D02*
X2612951Y-1942692D01*
X2613903Y-1942931D01*
X2614827Y-1943261D01*
X2615714Y-1943681D01*
X2616556Y-1944185D01*
X2617344Y-1944770D01*
X2618071Y-1945429D01*
X2618730Y-1946156D01*
X2619315Y-1946944D01*
X2619819Y-1947786D01*
X2620239Y-1948673D01*
X2620569Y-1949597D01*
X2620808Y-1950549D01*
X2620952Y-1951520D01*
X2621000Y-1952500D01*
X2621000Y-1972500D01*
X2620952Y-1973480D01*
X2620808Y-1974451D01*
X2620569Y-1975403D01*
X2620239Y-1976327D01*
X2619819Y-1977214D01*
X2619315Y-1978056D01*
X2618730Y-1978844D01*
X2618071Y-1979571D01*
X2617344Y-1980230D01*
X2616556Y-1980815D01*
X2615714Y-1981319D01*
X2614827Y-1981739D01*
X2613903Y-1982069D01*
X2612951Y-1982308D01*
X2611980Y-1982452D01*
X2611000Y-1982500D01*
X2585000Y-1982500D01*
X2584020Y-1982452D01*
X2583049Y-1982308D01*
X2582097Y-1982069D01*
X2581173Y-1981739D01*
X2580286Y-1981319D01*
X2579444Y-1980815D01*
X2578656Y-1980230D01*
X2577929Y-1979571D01*
X2577270Y-1978844D01*
X2576685Y-1978056D01*
X2576181Y-1977214D01*
X2575761Y-1976327D01*
X2575431Y-1975403D01*
X2575192Y-1974451D01*
X2575048Y-1973480D01*
X2575000Y-1972500D01*
X2575000Y-1952500D01*
X2575048Y-1951520D01*
X2575192Y-1950549D01*
X2575431Y-1949597D01*
X2575761Y-1948673D01*
X2576181Y-1947786D01*
X2576685Y-1946944D01*
X2577270Y-1946156D01*
X2577929Y-1945429D01*
X2578656Y-1944770D01*
X2579444Y-1944185D01*
X2580286Y-1943681D01*
X2581173Y-1943261D01*
X2582097Y-1942931D01*
X2583049Y-1942692D01*
X2584020Y-1942548D01*
X2585000Y-1942500D01*
X2611000Y-1942500D01*
X2611980Y-1942548D01*
X2611980Y-1942548D01*
G37*
D16*
G04 #@! TD*
G04 #@! TO.P,C25,1*
G04 #@! TO.N,+2V5*
X2598000Y-1962500D03*
D14*
G04 #@! TO.N,GND*
G04 #@! TO.C,C25*
G36*
X2675980Y-1942548D02*
X2676951Y-1942692D01*
X2677903Y-1942931D01*
X2678827Y-1943261D01*
X2679714Y-1943681D01*
X2680556Y-1944185D01*
X2681344Y-1944770D01*
X2682071Y-1945429D01*
X2682730Y-1946156D01*
X2683315Y-1946944D01*
X2683819Y-1947786D01*
X2684239Y-1948673D01*
X2684569Y-1949597D01*
X2684808Y-1950549D01*
X2684952Y-1951520D01*
X2685000Y-1952500D01*
X2685000Y-1972500D01*
X2684952Y-1973480D01*
X2684808Y-1974451D01*
X2684569Y-1975403D01*
X2684239Y-1976327D01*
X2683819Y-1977214D01*
X2683315Y-1978056D01*
X2682730Y-1978844D01*
X2682071Y-1979571D01*
X2681344Y-1980230D01*
X2680556Y-1980815D01*
X2679714Y-1981319D01*
X2678827Y-1981739D01*
X2677903Y-1982069D01*
X2676951Y-1982308D01*
X2675980Y-1982452D01*
X2675000Y-1982500D01*
X2649000Y-1982500D01*
X2648020Y-1982452D01*
X2647049Y-1982308D01*
X2646097Y-1982069D01*
X2645173Y-1981739D01*
X2644286Y-1981319D01*
X2643444Y-1980815D01*
X2642656Y-1980230D01*
X2641929Y-1979571D01*
X2641270Y-1978844D01*
X2640685Y-1978056D01*
X2640181Y-1977214D01*
X2639761Y-1976327D01*
X2639431Y-1975403D01*
X2639192Y-1974451D01*
X2639048Y-1973480D01*
X2639000Y-1972500D01*
X2639000Y-1952500D01*
X2639048Y-1951520D01*
X2639192Y-1950549D01*
X2639431Y-1949597D01*
X2639761Y-1948673D01*
X2640181Y-1947786D01*
X2640685Y-1946944D01*
X2641270Y-1946156D01*
X2641929Y-1945429D01*
X2642656Y-1944770D01*
X2643444Y-1944185D01*
X2644286Y-1943681D01*
X2645173Y-1943261D01*
X2646097Y-1942931D01*
X2647049Y-1942692D01*
X2648020Y-1942548D01*
X2649000Y-1942500D01*
X2675000Y-1942500D01*
X2675980Y-1942548D01*
X2675980Y-1942548D01*
G37*
D16*
G04 #@! TD*
G04 #@! TO.P,C25,2*
G04 #@! TO.N,GND*
X2662000Y-1962500D03*
D14*
G04 #@! TO.N,+5V*
G04 #@! TO.C,C2*
G36*
X1815980Y-2460048D02*
X1816951Y-2460192D01*
X1817903Y-2460431D01*
X1818827Y-2460761D01*
X1819714Y-2461181D01*
X1820556Y-2461685D01*
X1821344Y-2462270D01*
X1822071Y-2462929D01*
X1822730Y-2463656D01*
X1823315Y-2464444D01*
X1823819Y-2465286D01*
X1824239Y-2466173D01*
X1824569Y-2467097D01*
X1824808Y-2468049D01*
X1824952Y-2469020D01*
X1825000Y-2470000D01*
X1825000Y-2496000D01*
X1824952Y-2496980D01*
X1824808Y-2497951D01*
X1824569Y-2498903D01*
X1824239Y-2499827D01*
X1823819Y-2500714D01*
X1823315Y-2501556D01*
X1822730Y-2502344D01*
X1822071Y-2503071D01*
X1821344Y-2503730D01*
X1820556Y-2504315D01*
X1819714Y-2504819D01*
X1818827Y-2505239D01*
X1817903Y-2505569D01*
X1816951Y-2505808D01*
X1815980Y-2505952D01*
X1815000Y-2506000D01*
X1795000Y-2506000D01*
X1794020Y-2505952D01*
X1793049Y-2505808D01*
X1792097Y-2505569D01*
X1791173Y-2505239D01*
X1790286Y-2504819D01*
X1789444Y-2504315D01*
X1788656Y-2503730D01*
X1787929Y-2503071D01*
X1787270Y-2502344D01*
X1786685Y-2501556D01*
X1786181Y-2500714D01*
X1785761Y-2499827D01*
X1785431Y-2498903D01*
X1785192Y-2497951D01*
X1785048Y-2496980D01*
X1785000Y-2496000D01*
X1785000Y-2470000D01*
X1785048Y-2469020D01*
X1785192Y-2468049D01*
X1785431Y-2467097D01*
X1785761Y-2466173D01*
X1786181Y-2465286D01*
X1786685Y-2464444D01*
X1787270Y-2463656D01*
X1787929Y-2462929D01*
X1788656Y-2462270D01*
X1789444Y-2461685D01*
X1790286Y-2461181D01*
X1791173Y-2460761D01*
X1792097Y-2460431D01*
X1793049Y-2460192D01*
X1794020Y-2460048D01*
X1795000Y-2460000D01*
X1815000Y-2460000D01*
X1815980Y-2460048D01*
X1815980Y-2460048D01*
G37*
D16*
G04 #@! TD*
G04 #@! TO.P,C2,1*
G04 #@! TO.N,+5V*
X1805000Y-2483000D03*
D14*
G04 #@! TO.N,GND*
G04 #@! TO.C,C2*
G36*
X1815980Y-2524048D02*
X1816951Y-2524192D01*
X1817903Y-2524431D01*
X1818827Y-2524761D01*
X1819714Y-2525181D01*
X1820556Y-2525685D01*
X1821344Y-2526270D01*
X1822071Y-2526929D01*
X1822730Y-2527656D01*
X1823315Y-2528444D01*
X1823819Y-2529286D01*
X1824239Y-2530173D01*
X1824569Y-2531097D01*
X1824808Y-2532049D01*
X1824952Y-2533020D01*
X1825000Y-2534000D01*
X1825000Y-2560000D01*
X1824952Y-2560980D01*
X1824808Y-2561951D01*
X1824569Y-2562903D01*
X1824239Y-2563827D01*
X1823819Y-2564714D01*
X1823315Y-2565556D01*
X1822730Y-2566344D01*
X1822071Y-2567071D01*
X1821344Y-2567730D01*
X1820556Y-2568315D01*
X1819714Y-2568819D01*
X1818827Y-2569239D01*
X1817903Y-2569569D01*
X1816951Y-2569808D01*
X1815980Y-2569952D01*
X1815000Y-2570000D01*
X1795000Y-2570000D01*
X1794020Y-2569952D01*
X1793049Y-2569808D01*
X1792097Y-2569569D01*
X1791173Y-2569239D01*
X1790286Y-2568819D01*
X1789444Y-2568315D01*
X1788656Y-2567730D01*
X1787929Y-2567071D01*
X1787270Y-2566344D01*
X1786685Y-2565556D01*
X1786181Y-2564714D01*
X1785761Y-2563827D01*
X1785431Y-2562903D01*
X1785192Y-2561951D01*
X1785048Y-2560980D01*
X1785000Y-2560000D01*
X1785000Y-2534000D01*
X1785048Y-2533020D01*
X1785192Y-2532049D01*
X1785431Y-2531097D01*
X1785761Y-2530173D01*
X1786181Y-2529286D01*
X1786685Y-2528444D01*
X1787270Y-2527656D01*
X1787929Y-2526929D01*
X1788656Y-2526270D01*
X1789444Y-2525685D01*
X1790286Y-2525181D01*
X1791173Y-2524761D01*
X1792097Y-2524431D01*
X1793049Y-2524192D01*
X1794020Y-2524048D01*
X1795000Y-2524000D01*
X1815000Y-2524000D01*
X1815980Y-2524048D01*
X1815980Y-2524048D01*
G37*
D16*
G04 #@! TD*
G04 #@! TO.P,C2,2*
G04 #@! TO.N,GND*
X1805000Y-2547000D03*
D14*
G04 #@! TO.N,+5V*
G04 #@! TO.C,C3*
G36*
X1784980Y-1914548D02*
X1785951Y-1914692D01*
X1786903Y-1914931D01*
X1787827Y-1915261D01*
X1788714Y-1915681D01*
X1789556Y-1916185D01*
X1790344Y-1916770D01*
X1791071Y-1917429D01*
X1791730Y-1918156D01*
X1792315Y-1918944D01*
X1792819Y-1919786D01*
X1793239Y-1920673D01*
X1793569Y-1921597D01*
X1793808Y-1922549D01*
X1793952Y-1923520D01*
X1794000Y-1924500D01*
X1794000Y-1950500D01*
X1793952Y-1951480D01*
X1793808Y-1952451D01*
X1793569Y-1953403D01*
X1793239Y-1954327D01*
X1792819Y-1955214D01*
X1792315Y-1956056D01*
X1791730Y-1956844D01*
X1791071Y-1957571D01*
X1790344Y-1958230D01*
X1789556Y-1958815D01*
X1788714Y-1959319D01*
X1787827Y-1959739D01*
X1786903Y-1960069D01*
X1785951Y-1960308D01*
X1784980Y-1960452D01*
X1784000Y-1960500D01*
X1764000Y-1960500D01*
X1763020Y-1960452D01*
X1762049Y-1960308D01*
X1761097Y-1960069D01*
X1760173Y-1959739D01*
X1759286Y-1959319D01*
X1758444Y-1958815D01*
X1757656Y-1958230D01*
X1756929Y-1957571D01*
X1756270Y-1956844D01*
X1755685Y-1956056D01*
X1755181Y-1955214D01*
X1754761Y-1954327D01*
X1754431Y-1953403D01*
X1754192Y-1952451D01*
X1754048Y-1951480D01*
X1754000Y-1950500D01*
X1754000Y-1924500D01*
X1754048Y-1923520D01*
X1754192Y-1922549D01*
X1754431Y-1921597D01*
X1754761Y-1920673D01*
X1755181Y-1919786D01*
X1755685Y-1918944D01*
X1756270Y-1918156D01*
X1756929Y-1917429D01*
X1757656Y-1916770D01*
X1758444Y-1916185D01*
X1759286Y-1915681D01*
X1760173Y-1915261D01*
X1761097Y-1914931D01*
X1762049Y-1914692D01*
X1763020Y-1914548D01*
X1764000Y-1914500D01*
X1784000Y-1914500D01*
X1784980Y-1914548D01*
X1784980Y-1914548D01*
G37*
D16*
G04 #@! TD*
G04 #@! TO.P,C3,1*
G04 #@! TO.N,+5V*
X1774000Y-1937500D03*
D14*
G04 #@! TO.N,GND*
G04 #@! TO.C,C3*
G36*
X1784980Y-1978548D02*
X1785951Y-1978692D01*
X1786903Y-1978931D01*
X1787827Y-1979261D01*
X1788714Y-1979681D01*
X1789556Y-1980185D01*
X1790344Y-1980770D01*
X1791071Y-1981429D01*
X1791730Y-1982156D01*
X1792315Y-1982944D01*
X1792819Y-1983786D01*
X1793239Y-1984673D01*
X1793569Y-1985597D01*
X1793808Y-1986549D01*
X1793952Y-1987520D01*
X1794000Y-1988500D01*
X1794000Y-2014500D01*
X1793952Y-2015480D01*
X1793808Y-2016451D01*
X1793569Y-2017403D01*
X1793239Y-2018327D01*
X1792819Y-2019214D01*
X1792315Y-2020056D01*
X1791730Y-2020844D01*
X1791071Y-2021571D01*
X1790344Y-2022230D01*
X1789556Y-2022815D01*
X1788714Y-2023319D01*
X1787827Y-2023739D01*
X1786903Y-2024069D01*
X1785951Y-2024308D01*
X1784980Y-2024452D01*
X1784000Y-2024500D01*
X1764000Y-2024500D01*
X1763020Y-2024452D01*
X1762049Y-2024308D01*
X1761097Y-2024069D01*
X1760173Y-2023739D01*
X1759286Y-2023319D01*
X1758444Y-2022815D01*
X1757656Y-2022230D01*
X1756929Y-2021571D01*
X1756270Y-2020844D01*
X1755685Y-2020056D01*
X1755181Y-2019214D01*
X1754761Y-2018327D01*
X1754431Y-2017403D01*
X1754192Y-2016451D01*
X1754048Y-2015480D01*
X1754000Y-2014500D01*
X1754000Y-1988500D01*
X1754048Y-1987520D01*
X1754192Y-1986549D01*
X1754431Y-1985597D01*
X1754761Y-1984673D01*
X1755181Y-1983786D01*
X1755685Y-1982944D01*
X1756270Y-1982156D01*
X1756929Y-1981429D01*
X1757656Y-1980770D01*
X1758444Y-1980185D01*
X1759286Y-1979681D01*
X1760173Y-1979261D01*
X1761097Y-1978931D01*
X1762049Y-1978692D01*
X1763020Y-1978548D01*
X1764000Y-1978500D01*
X1784000Y-1978500D01*
X1784980Y-1978548D01*
X1784980Y-1978548D01*
G37*
D16*
G04 #@! TD*
G04 #@! TO.P,C3,2*
G04 #@! TO.N,GND*
X1774000Y-2001500D03*
D14*
G04 #@! TO.N,+3V3*
G04 #@! TO.C,C4*
G36*
X2076980Y-2234548D02*
X2077951Y-2234692D01*
X2078903Y-2234931D01*
X2079827Y-2235261D01*
X2080714Y-2235681D01*
X2081556Y-2236185D01*
X2082344Y-2236770D01*
X2083071Y-2237429D01*
X2083730Y-2238156D01*
X2084315Y-2238944D01*
X2084819Y-2239786D01*
X2085239Y-2240673D01*
X2085569Y-2241597D01*
X2085808Y-2242549D01*
X2085952Y-2243520D01*
X2086000Y-2244500D01*
X2086000Y-2264500D01*
X2085952Y-2265480D01*
X2085808Y-2266451D01*
X2085569Y-2267403D01*
X2085239Y-2268327D01*
X2084819Y-2269214D01*
X2084315Y-2270056D01*
X2083730Y-2270844D01*
X2083071Y-2271571D01*
X2082344Y-2272230D01*
X2081556Y-2272815D01*
X2080714Y-2273319D01*
X2079827Y-2273739D01*
X2078903Y-2274069D01*
X2077951Y-2274308D01*
X2076980Y-2274452D01*
X2076000Y-2274500D01*
X2050000Y-2274500D01*
X2049020Y-2274452D01*
X2048049Y-2274308D01*
X2047097Y-2274069D01*
X2046173Y-2273739D01*
X2045286Y-2273319D01*
X2044444Y-2272815D01*
X2043656Y-2272230D01*
X2042929Y-2271571D01*
X2042270Y-2270844D01*
X2041685Y-2270056D01*
X2041181Y-2269214D01*
X2040761Y-2268327D01*
X2040431Y-2267403D01*
X2040192Y-2266451D01*
X2040048Y-2265480D01*
X2040000Y-2264500D01*
X2040000Y-2244500D01*
X2040048Y-2243520D01*
X2040192Y-2242549D01*
X2040431Y-2241597D01*
X2040761Y-2240673D01*
X2041181Y-2239786D01*
X2041685Y-2238944D01*
X2042270Y-2238156D01*
X2042929Y-2237429D01*
X2043656Y-2236770D01*
X2044444Y-2236185D01*
X2045286Y-2235681D01*
X2046173Y-2235261D01*
X2047097Y-2234931D01*
X2048049Y-2234692D01*
X2049020Y-2234548D01*
X2050000Y-2234500D01*
X2076000Y-2234500D01*
X2076980Y-2234548D01*
X2076980Y-2234548D01*
G37*
D16*
G04 #@! TD*
G04 #@! TO.P,C4,1*
G04 #@! TO.N,+3V3*
X2063000Y-2254500D03*
D14*
G04 #@! TO.N,GND*
G04 #@! TO.C,C4*
G36*
X2140980Y-2234548D02*
X2141951Y-2234692D01*
X2142903Y-2234931D01*
X2143827Y-2235261D01*
X2144714Y-2235681D01*
X2145556Y-2236185D01*
X2146344Y-2236770D01*
X2147071Y-2237429D01*
X2147730Y-2238156D01*
X2148315Y-2238944D01*
X2148819Y-2239786D01*
X2149239Y-2240673D01*
X2149569Y-2241597D01*
X2149808Y-2242549D01*
X2149952Y-2243520D01*
X2150000Y-2244500D01*
X2150000Y-2264500D01*
X2149952Y-2265480D01*
X2149808Y-2266451D01*
X2149569Y-2267403D01*
X2149239Y-2268327D01*
X2148819Y-2269214D01*
X2148315Y-2270056D01*
X2147730Y-2270844D01*
X2147071Y-2271571D01*
X2146344Y-2272230D01*
X2145556Y-2272815D01*
X2144714Y-2273319D01*
X2143827Y-2273739D01*
X2142903Y-2274069D01*
X2141951Y-2274308D01*
X2140980Y-2274452D01*
X2140000Y-2274500D01*
X2114000Y-2274500D01*
X2113020Y-2274452D01*
X2112049Y-2274308D01*
X2111097Y-2274069D01*
X2110173Y-2273739D01*
X2109286Y-2273319D01*
X2108444Y-2272815D01*
X2107656Y-2272230D01*
X2106929Y-2271571D01*
X2106270Y-2270844D01*
X2105685Y-2270056D01*
X2105181Y-2269214D01*
X2104761Y-2268327D01*
X2104431Y-2267403D01*
X2104192Y-2266451D01*
X2104048Y-2265480D01*
X2104000Y-2264500D01*
X2104000Y-2244500D01*
X2104048Y-2243520D01*
X2104192Y-2242549D01*
X2104431Y-2241597D01*
X2104761Y-2240673D01*
X2105181Y-2239786D01*
X2105685Y-2238944D01*
X2106270Y-2238156D01*
X2106929Y-2237429D01*
X2107656Y-2236770D01*
X2108444Y-2236185D01*
X2109286Y-2235681D01*
X2110173Y-2235261D01*
X2111097Y-2234931D01*
X2112049Y-2234692D01*
X2113020Y-2234548D01*
X2114000Y-2234500D01*
X2140000Y-2234500D01*
X2140980Y-2234548D01*
X2140980Y-2234548D01*
G37*
D16*
G04 #@! TD*
G04 #@! TO.P,C4,2*
G04 #@! TO.N,GND*
X2127000Y-2254500D03*
D14*
G04 #@! TO.N,+3V3*
G04 #@! TO.C,C5*
G36*
X2220980Y-2207548D02*
X2221951Y-2207692D01*
X2222903Y-2207931D01*
X2223827Y-2208261D01*
X2224714Y-2208681D01*
X2225556Y-2209185D01*
X2226344Y-2209770D01*
X2227071Y-2210429D01*
X2227730Y-2211156D01*
X2228315Y-2211944D01*
X2228819Y-2212786D01*
X2229239Y-2213673D01*
X2229569Y-2214597D01*
X2229808Y-2215549D01*
X2229952Y-2216520D01*
X2230000Y-2217500D01*
X2230000Y-2243500D01*
X2229952Y-2244480D01*
X2229808Y-2245451D01*
X2229569Y-2246403D01*
X2229239Y-2247327D01*
X2228819Y-2248214D01*
X2228315Y-2249056D01*
X2227730Y-2249844D01*
X2227071Y-2250571D01*
X2226344Y-2251230D01*
X2225556Y-2251815D01*
X2224714Y-2252319D01*
X2223827Y-2252739D01*
X2222903Y-2253069D01*
X2221951Y-2253308D01*
X2220980Y-2253452D01*
X2220000Y-2253500D01*
X2200000Y-2253500D01*
X2199020Y-2253452D01*
X2198049Y-2253308D01*
X2197097Y-2253069D01*
X2196173Y-2252739D01*
X2195286Y-2252319D01*
X2194444Y-2251815D01*
X2193656Y-2251230D01*
X2192929Y-2250571D01*
X2192270Y-2249844D01*
X2191685Y-2249056D01*
X2191181Y-2248214D01*
X2190761Y-2247327D01*
X2190431Y-2246403D01*
X2190192Y-2245451D01*
X2190048Y-2244480D01*
X2190000Y-2243500D01*
X2190000Y-2217500D01*
X2190048Y-2216520D01*
X2190192Y-2215549D01*
X2190431Y-2214597D01*
X2190761Y-2213673D01*
X2191181Y-2212786D01*
X2191685Y-2211944D01*
X2192270Y-2211156D01*
X2192929Y-2210429D01*
X2193656Y-2209770D01*
X2194444Y-2209185D01*
X2195286Y-2208681D01*
X2196173Y-2208261D01*
X2197097Y-2207931D01*
X2198049Y-2207692D01*
X2199020Y-2207548D01*
X2200000Y-2207500D01*
X2220000Y-2207500D01*
X2220980Y-2207548D01*
X2220980Y-2207548D01*
G37*
D16*
G04 #@! TD*
G04 #@! TO.P,C5,1*
G04 #@! TO.N,+3V3*
X2210000Y-2230500D03*
D14*
G04 #@! TO.N,GND*
G04 #@! TO.C,C5*
G36*
X2220980Y-2271548D02*
X2221951Y-2271692D01*
X2222903Y-2271931D01*
X2223827Y-2272261D01*
X2224714Y-2272681D01*
X2225556Y-2273185D01*
X2226344Y-2273770D01*
X2227071Y-2274429D01*
X2227730Y-2275156D01*
X2228315Y-2275944D01*
X2228819Y-2276786D01*
X2229239Y-2277673D01*
X2229569Y-2278597D01*
X2229808Y-2279549D01*
X2229952Y-2280520D01*
X2230000Y-2281500D01*
X2230000Y-2307500D01*
X2229952Y-2308480D01*
X2229808Y-2309451D01*
X2229569Y-2310403D01*
X2229239Y-2311327D01*
X2228819Y-2312214D01*
X2228315Y-2313056D01*
X2227730Y-2313844D01*
X2227071Y-2314571D01*
X2226344Y-2315230D01*
X2225556Y-2315815D01*
X2224714Y-2316319D01*
X2223827Y-2316739D01*
X2222903Y-2317069D01*
X2221951Y-2317308D01*
X2220980Y-2317452D01*
X2220000Y-2317500D01*
X2200000Y-2317500D01*
X2199020Y-2317452D01*
X2198049Y-2317308D01*
X2197097Y-2317069D01*
X2196173Y-2316739D01*
X2195286Y-2316319D01*
X2194444Y-2315815D01*
X2193656Y-2315230D01*
X2192929Y-2314571D01*
X2192270Y-2313844D01*
X2191685Y-2313056D01*
X2191181Y-2312214D01*
X2190761Y-2311327D01*
X2190431Y-2310403D01*
X2190192Y-2309451D01*
X2190048Y-2308480D01*
X2190000Y-2307500D01*
X2190000Y-2281500D01*
X2190048Y-2280520D01*
X2190192Y-2279549D01*
X2190431Y-2278597D01*
X2190761Y-2277673D01*
X2191181Y-2276786D01*
X2191685Y-2275944D01*
X2192270Y-2275156D01*
X2192929Y-2274429D01*
X2193656Y-2273770D01*
X2194444Y-2273185D01*
X2195286Y-2272681D01*
X2196173Y-2272261D01*
X2197097Y-2271931D01*
X2198049Y-2271692D01*
X2199020Y-2271548D01*
X2200000Y-2271500D01*
X2220000Y-2271500D01*
X2220980Y-2271548D01*
X2220980Y-2271548D01*
G37*
D16*
G04 #@! TD*
G04 #@! TO.P,C5,2*
G04 #@! TO.N,GND*
X2210000Y-2294500D03*
D14*
G04 #@! TO.N,+3V3*
G04 #@! TO.C,C7*
G36*
X2290980Y-2207548D02*
X2291951Y-2207692D01*
X2292903Y-2207931D01*
X2293827Y-2208261D01*
X2294714Y-2208681D01*
X2295556Y-2209185D01*
X2296344Y-2209770D01*
X2297071Y-2210429D01*
X2297730Y-2211156D01*
X2298315Y-2211944D01*
X2298819Y-2212786D01*
X2299239Y-2213673D01*
X2299569Y-2214597D01*
X2299808Y-2215549D01*
X2299952Y-2216520D01*
X2300000Y-2217500D01*
X2300000Y-2243500D01*
X2299952Y-2244480D01*
X2299808Y-2245451D01*
X2299569Y-2246403D01*
X2299239Y-2247327D01*
X2298819Y-2248214D01*
X2298315Y-2249056D01*
X2297730Y-2249844D01*
X2297071Y-2250571D01*
X2296344Y-2251230D01*
X2295556Y-2251815D01*
X2294714Y-2252319D01*
X2293827Y-2252739D01*
X2292903Y-2253069D01*
X2291951Y-2253308D01*
X2290980Y-2253452D01*
X2290000Y-2253500D01*
X2270000Y-2253500D01*
X2269020Y-2253452D01*
X2268049Y-2253308D01*
X2267097Y-2253069D01*
X2266173Y-2252739D01*
X2265286Y-2252319D01*
X2264444Y-2251815D01*
X2263656Y-2251230D01*
X2262929Y-2250571D01*
X2262270Y-2249844D01*
X2261685Y-2249056D01*
X2261181Y-2248214D01*
X2260761Y-2247327D01*
X2260431Y-2246403D01*
X2260192Y-2245451D01*
X2260048Y-2244480D01*
X2260000Y-2243500D01*
X2260000Y-2217500D01*
X2260048Y-2216520D01*
X2260192Y-2215549D01*
X2260431Y-2214597D01*
X2260761Y-2213673D01*
X2261181Y-2212786D01*
X2261685Y-2211944D01*
X2262270Y-2211156D01*
X2262929Y-2210429D01*
X2263656Y-2209770D01*
X2264444Y-2209185D01*
X2265286Y-2208681D01*
X2266173Y-2208261D01*
X2267097Y-2207931D01*
X2268049Y-2207692D01*
X2269020Y-2207548D01*
X2270000Y-2207500D01*
X2290000Y-2207500D01*
X2290980Y-2207548D01*
X2290980Y-2207548D01*
G37*
D16*
G04 #@! TD*
G04 #@! TO.P,C7,1*
G04 #@! TO.N,+3V3*
X2280000Y-2230500D03*
D14*
G04 #@! TO.N,GND*
G04 #@! TO.C,C7*
G36*
X2290980Y-2271548D02*
X2291951Y-2271692D01*
X2292903Y-2271931D01*
X2293827Y-2272261D01*
X2294714Y-2272681D01*
X2295556Y-2273185D01*
X2296344Y-2273770D01*
X2297071Y-2274429D01*
X2297730Y-2275156D01*
X2298315Y-2275944D01*
X2298819Y-2276786D01*
X2299239Y-2277673D01*
X2299569Y-2278597D01*
X2299808Y-2279549D01*
X2299952Y-2280520D01*
X2300000Y-2281500D01*
X2300000Y-2307500D01*
X2299952Y-2308480D01*
X2299808Y-2309451D01*
X2299569Y-2310403D01*
X2299239Y-2311327D01*
X2298819Y-2312214D01*
X2298315Y-2313056D01*
X2297730Y-2313844D01*
X2297071Y-2314571D01*
X2296344Y-2315230D01*
X2295556Y-2315815D01*
X2294714Y-2316319D01*
X2293827Y-2316739D01*
X2292903Y-2317069D01*
X2291951Y-2317308D01*
X2290980Y-2317452D01*
X2290000Y-2317500D01*
X2270000Y-2317500D01*
X2269020Y-2317452D01*
X2268049Y-2317308D01*
X2267097Y-2317069D01*
X2266173Y-2316739D01*
X2265286Y-2316319D01*
X2264444Y-2315815D01*
X2263656Y-2315230D01*
X2262929Y-2314571D01*
X2262270Y-2313844D01*
X2261685Y-2313056D01*
X2261181Y-2312214D01*
X2260761Y-2311327D01*
X2260431Y-2310403D01*
X2260192Y-2309451D01*
X2260048Y-2308480D01*
X2260000Y-2307500D01*
X2260000Y-2281500D01*
X2260048Y-2280520D01*
X2260192Y-2279549D01*
X2260431Y-2278597D01*
X2260761Y-2277673D01*
X2261181Y-2276786D01*
X2261685Y-2275944D01*
X2262270Y-2275156D01*
X2262929Y-2274429D01*
X2263656Y-2273770D01*
X2264444Y-2273185D01*
X2265286Y-2272681D01*
X2266173Y-2272261D01*
X2267097Y-2271931D01*
X2268049Y-2271692D01*
X2269020Y-2271548D01*
X2270000Y-2271500D01*
X2290000Y-2271500D01*
X2290980Y-2271548D01*
X2290980Y-2271548D01*
G37*
D16*
G04 #@! TD*
G04 #@! TO.P,C7,2*
G04 #@! TO.N,GND*
X2280000Y-2294500D03*
D14*
G04 #@! TO.N,+1V2*
G04 #@! TO.C,C8*
G36*
X2036980Y-1765548D02*
X2037951Y-1765692D01*
X2038903Y-1765931D01*
X2039827Y-1766261D01*
X2040714Y-1766681D01*
X2041556Y-1767185D01*
X2042344Y-1767770D01*
X2043071Y-1768429D01*
X2043730Y-1769156D01*
X2044315Y-1769944D01*
X2044819Y-1770786D01*
X2045239Y-1771673D01*
X2045569Y-1772597D01*
X2045808Y-1773549D01*
X2045952Y-1774520D01*
X2046000Y-1775500D01*
X2046000Y-1801500D01*
X2045952Y-1802480D01*
X2045808Y-1803451D01*
X2045569Y-1804403D01*
X2045239Y-1805327D01*
X2044819Y-1806214D01*
X2044315Y-1807056D01*
X2043730Y-1807844D01*
X2043071Y-1808571D01*
X2042344Y-1809230D01*
X2041556Y-1809815D01*
X2040714Y-1810319D01*
X2039827Y-1810739D01*
X2038903Y-1811069D01*
X2037951Y-1811308D01*
X2036980Y-1811452D01*
X2036000Y-1811500D01*
X2016000Y-1811500D01*
X2015020Y-1811452D01*
X2014049Y-1811308D01*
X2013097Y-1811069D01*
X2012173Y-1810739D01*
X2011286Y-1810319D01*
X2010444Y-1809815D01*
X2009656Y-1809230D01*
X2008929Y-1808571D01*
X2008270Y-1807844D01*
X2007685Y-1807056D01*
X2007181Y-1806214D01*
X2006761Y-1805327D01*
X2006431Y-1804403D01*
X2006192Y-1803451D01*
X2006048Y-1802480D01*
X2006000Y-1801500D01*
X2006000Y-1775500D01*
X2006048Y-1774520D01*
X2006192Y-1773549D01*
X2006431Y-1772597D01*
X2006761Y-1771673D01*
X2007181Y-1770786D01*
X2007685Y-1769944D01*
X2008270Y-1769156D01*
X2008929Y-1768429D01*
X2009656Y-1767770D01*
X2010444Y-1767185D01*
X2011286Y-1766681D01*
X2012173Y-1766261D01*
X2013097Y-1765931D01*
X2014049Y-1765692D01*
X2015020Y-1765548D01*
X2016000Y-1765500D01*
X2036000Y-1765500D01*
X2036980Y-1765548D01*
X2036980Y-1765548D01*
G37*
D16*
G04 #@! TD*
G04 #@! TO.P,C8,1*
G04 #@! TO.N,+1V2*
X2026000Y-1788500D03*
D14*
G04 #@! TO.N,GND*
G04 #@! TO.C,C8*
G36*
X2036980Y-1829548D02*
X2037951Y-1829692D01*
X2038903Y-1829931D01*
X2039827Y-1830261D01*
X2040714Y-1830681D01*
X2041556Y-1831185D01*
X2042344Y-1831770D01*
X2043071Y-1832429D01*
X2043730Y-1833156D01*
X2044315Y-1833944D01*
X2044819Y-1834786D01*
X2045239Y-1835673D01*
X2045569Y-1836597D01*
X2045808Y-1837549D01*
X2045952Y-1838520D01*
X2046000Y-1839500D01*
X2046000Y-1865500D01*
X2045952Y-1866480D01*
X2045808Y-1867451D01*
X2045569Y-1868403D01*
X2045239Y-1869327D01*
X2044819Y-1870214D01*
X2044315Y-1871056D01*
X2043730Y-1871844D01*
X2043071Y-1872571D01*
X2042344Y-1873230D01*
X2041556Y-1873815D01*
X2040714Y-1874319D01*
X2039827Y-1874739D01*
X2038903Y-1875069D01*
X2037951Y-1875308D01*
X2036980Y-1875452D01*
X2036000Y-1875500D01*
X2016000Y-1875500D01*
X2015020Y-1875452D01*
X2014049Y-1875308D01*
X2013097Y-1875069D01*
X2012173Y-1874739D01*
X2011286Y-1874319D01*
X2010444Y-1873815D01*
X2009656Y-1873230D01*
X2008929Y-1872571D01*
X2008270Y-1871844D01*
X2007685Y-1871056D01*
X2007181Y-1870214D01*
X2006761Y-1869327D01*
X2006431Y-1868403D01*
X2006192Y-1867451D01*
X2006048Y-1866480D01*
X2006000Y-1865500D01*
X2006000Y-1839500D01*
X2006048Y-1838520D01*
X2006192Y-1837549D01*
X2006431Y-1836597D01*
X2006761Y-1835673D01*
X2007181Y-1834786D01*
X2007685Y-1833944D01*
X2008270Y-1833156D01*
X2008929Y-1832429D01*
X2009656Y-1831770D01*
X2010444Y-1831185D01*
X2011286Y-1830681D01*
X2012173Y-1830261D01*
X2013097Y-1829931D01*
X2014049Y-1829692D01*
X2015020Y-1829548D01*
X2016000Y-1829500D01*
X2036000Y-1829500D01*
X2036980Y-1829548D01*
X2036980Y-1829548D01*
G37*
D16*
G04 #@! TD*
G04 #@! TO.P,C8,2*
G04 #@! TO.N,GND*
X2026000Y-1852500D03*
D14*
G04 #@! TO.N,+3V3*
G04 #@! TO.C,C9*
G36*
X2025980Y-2304548D02*
X2026951Y-2304692D01*
X2027903Y-2304931D01*
X2028827Y-2305261D01*
X2029714Y-2305681D01*
X2030556Y-2306185D01*
X2031344Y-2306770D01*
X2032071Y-2307429D01*
X2032730Y-2308156D01*
X2033315Y-2308944D01*
X2033819Y-2309786D01*
X2034239Y-2310673D01*
X2034569Y-2311597D01*
X2034808Y-2312549D01*
X2034952Y-2313520D01*
X2035000Y-2314500D01*
X2035000Y-2340500D01*
X2034952Y-2341480D01*
X2034808Y-2342451D01*
X2034569Y-2343403D01*
X2034239Y-2344327D01*
X2033819Y-2345214D01*
X2033315Y-2346056D01*
X2032730Y-2346844D01*
X2032071Y-2347571D01*
X2031344Y-2348230D01*
X2030556Y-2348815D01*
X2029714Y-2349319D01*
X2028827Y-2349739D01*
X2027903Y-2350069D01*
X2026951Y-2350308D01*
X2025980Y-2350452D01*
X2025000Y-2350500D01*
X2005000Y-2350500D01*
X2004020Y-2350452D01*
X2003049Y-2350308D01*
X2002097Y-2350069D01*
X2001173Y-2349739D01*
X2000286Y-2349319D01*
X1999444Y-2348815D01*
X1998656Y-2348230D01*
X1997929Y-2347571D01*
X1997270Y-2346844D01*
X1996685Y-2346056D01*
X1996181Y-2345214D01*
X1995761Y-2344327D01*
X1995431Y-2343403D01*
X1995192Y-2342451D01*
X1995048Y-2341480D01*
X1995000Y-2340500D01*
X1995000Y-2314500D01*
X1995048Y-2313520D01*
X1995192Y-2312549D01*
X1995431Y-2311597D01*
X1995761Y-2310673D01*
X1996181Y-2309786D01*
X1996685Y-2308944D01*
X1997270Y-2308156D01*
X1997929Y-2307429D01*
X1998656Y-2306770D01*
X1999444Y-2306185D01*
X2000286Y-2305681D01*
X2001173Y-2305261D01*
X2002097Y-2304931D01*
X2003049Y-2304692D01*
X2004020Y-2304548D01*
X2005000Y-2304500D01*
X2025000Y-2304500D01*
X2025980Y-2304548D01*
X2025980Y-2304548D01*
G37*
D16*
G04 #@! TD*
G04 #@! TO.P,C9,1*
G04 #@! TO.N,+3V3*
X2015000Y-2327500D03*
D14*
G04 #@! TO.N,GND*
G04 #@! TO.C,C9*
G36*
X2025980Y-2368548D02*
X2026951Y-2368692D01*
X2027903Y-2368931D01*
X2028827Y-2369261D01*
X2029714Y-2369681D01*
X2030556Y-2370185D01*
X2031344Y-2370770D01*
X2032071Y-2371429D01*
X2032730Y-2372156D01*
X2033315Y-2372944D01*
X2033819Y-2373786D01*
X2034239Y-2374673D01*
X2034569Y-2375597D01*
X2034808Y-2376549D01*
X2034952Y-2377520D01*
X2035000Y-2378500D01*
X2035000Y-2404500D01*
X2034952Y-2405480D01*
X2034808Y-2406451D01*
X2034569Y-2407403D01*
X2034239Y-2408327D01*
X2033819Y-2409214D01*
X2033315Y-2410056D01*
X2032730Y-2410844D01*
X2032071Y-2411571D01*
X2031344Y-2412230D01*
X2030556Y-2412815D01*
X2029714Y-2413319D01*
X2028827Y-2413739D01*
X2027903Y-2414069D01*
X2026951Y-2414308D01*
X2025980Y-2414452D01*
X2025000Y-2414500D01*
X2005000Y-2414500D01*
X2004020Y-2414452D01*
X2003049Y-2414308D01*
X2002097Y-2414069D01*
X2001173Y-2413739D01*
X2000286Y-2413319D01*
X1999444Y-2412815D01*
X1998656Y-2412230D01*
X1997929Y-2411571D01*
X1997270Y-2410844D01*
X1996685Y-2410056D01*
X1996181Y-2409214D01*
X1995761Y-2408327D01*
X1995431Y-2407403D01*
X1995192Y-2406451D01*
X1995048Y-2405480D01*
X1995000Y-2404500D01*
X1995000Y-2378500D01*
X1995048Y-2377520D01*
X1995192Y-2376549D01*
X1995431Y-2375597D01*
X1995761Y-2374673D01*
X1996181Y-2373786D01*
X1996685Y-2372944D01*
X1997270Y-2372156D01*
X1997929Y-2371429D01*
X1998656Y-2370770D01*
X1999444Y-2370185D01*
X2000286Y-2369681D01*
X2001173Y-2369261D01*
X2002097Y-2368931D01*
X2003049Y-2368692D01*
X2004020Y-2368548D01*
X2005000Y-2368500D01*
X2025000Y-2368500D01*
X2025980Y-2368548D01*
X2025980Y-2368548D01*
G37*
D16*
G04 #@! TD*
G04 #@! TO.P,C9,2*
G04 #@! TO.N,GND*
X2015000Y-2391500D03*
D14*
G04 #@! TO.N,+2V5*
G04 #@! TO.C,C10*
G36*
X2036980Y-1913048D02*
X2037951Y-1913192D01*
X2038903Y-1913431D01*
X2039827Y-1913761D01*
X2040714Y-1914181D01*
X2041556Y-1914685D01*
X2042344Y-1915270D01*
X2043071Y-1915929D01*
X2043730Y-1916656D01*
X2044315Y-1917444D01*
X2044819Y-1918286D01*
X2045239Y-1919173D01*
X2045569Y-1920097D01*
X2045808Y-1921049D01*
X2045952Y-1922020D01*
X2046000Y-1923000D01*
X2046000Y-1949000D01*
X2045952Y-1949980D01*
X2045808Y-1950951D01*
X2045569Y-1951903D01*
X2045239Y-1952827D01*
X2044819Y-1953714D01*
X2044315Y-1954556D01*
X2043730Y-1955344D01*
X2043071Y-1956071D01*
X2042344Y-1956730D01*
X2041556Y-1957315D01*
X2040714Y-1957819D01*
X2039827Y-1958239D01*
X2038903Y-1958569D01*
X2037951Y-1958808D01*
X2036980Y-1958952D01*
X2036000Y-1959000D01*
X2016000Y-1959000D01*
X2015020Y-1958952D01*
X2014049Y-1958808D01*
X2013097Y-1958569D01*
X2012173Y-1958239D01*
X2011286Y-1957819D01*
X2010444Y-1957315D01*
X2009656Y-1956730D01*
X2008929Y-1956071D01*
X2008270Y-1955344D01*
X2007685Y-1954556D01*
X2007181Y-1953714D01*
X2006761Y-1952827D01*
X2006431Y-1951903D01*
X2006192Y-1950951D01*
X2006048Y-1949980D01*
X2006000Y-1949000D01*
X2006000Y-1923000D01*
X2006048Y-1922020D01*
X2006192Y-1921049D01*
X2006431Y-1920097D01*
X2006761Y-1919173D01*
X2007181Y-1918286D01*
X2007685Y-1917444D01*
X2008270Y-1916656D01*
X2008929Y-1915929D01*
X2009656Y-1915270D01*
X2010444Y-1914685D01*
X2011286Y-1914181D01*
X2012173Y-1913761D01*
X2013097Y-1913431D01*
X2014049Y-1913192D01*
X2015020Y-1913048D01*
X2016000Y-1913000D01*
X2036000Y-1913000D01*
X2036980Y-1913048D01*
X2036980Y-1913048D01*
G37*
D16*
G04 #@! TD*
G04 #@! TO.P,C10,1*
G04 #@! TO.N,+2V5*
X2026000Y-1936000D03*
D14*
G04 #@! TO.N,GND*
G04 #@! TO.C,C10*
G36*
X2036980Y-1977048D02*
X2037951Y-1977192D01*
X2038903Y-1977431D01*
X2039827Y-1977761D01*
X2040714Y-1978181D01*
X2041556Y-1978685D01*
X2042344Y-1979270D01*
X2043071Y-1979929D01*
X2043730Y-1980656D01*
X2044315Y-1981444D01*
X2044819Y-1982286D01*
X2045239Y-1983173D01*
X2045569Y-1984097D01*
X2045808Y-1985049D01*
X2045952Y-1986020D01*
X2046000Y-1987000D01*
X2046000Y-2013000D01*
X2045952Y-2013980D01*
X2045808Y-2014951D01*
X2045569Y-2015903D01*
X2045239Y-2016827D01*
X2044819Y-2017714D01*
X2044315Y-2018556D01*
X2043730Y-2019344D01*
X2043071Y-2020071D01*
X2042344Y-2020730D01*
X2041556Y-2021315D01*
X2040714Y-2021819D01*
X2039827Y-2022239D01*
X2038903Y-2022569D01*
X2037951Y-2022808D01*
X2036980Y-2022952D01*
X2036000Y-2023000D01*
X2016000Y-2023000D01*
X2015020Y-2022952D01*
X2014049Y-2022808D01*
X2013097Y-2022569D01*
X2012173Y-2022239D01*
X2011286Y-2021819D01*
X2010444Y-2021315D01*
X2009656Y-2020730D01*
X2008929Y-2020071D01*
X2008270Y-2019344D01*
X2007685Y-2018556D01*
X2007181Y-2017714D01*
X2006761Y-2016827D01*
X2006431Y-2015903D01*
X2006192Y-2014951D01*
X2006048Y-2013980D01*
X2006000Y-2013000D01*
X2006000Y-1987000D01*
X2006048Y-1986020D01*
X2006192Y-1985049D01*
X2006431Y-1984097D01*
X2006761Y-1983173D01*
X2007181Y-1982286D01*
X2007685Y-1981444D01*
X2008270Y-1980656D01*
X2008929Y-1979929D01*
X2009656Y-1979270D01*
X2010444Y-1978685D01*
X2011286Y-1978181D01*
X2012173Y-1977761D01*
X2013097Y-1977431D01*
X2014049Y-1977192D01*
X2015020Y-1977048D01*
X2016000Y-1977000D01*
X2036000Y-1977000D01*
X2036980Y-1977048D01*
X2036980Y-1977048D01*
G37*
D16*
G04 #@! TD*
G04 #@! TO.P,C10,2*
G04 #@! TO.N,GND*
X2026000Y-2000000D03*
D14*
G04 #@! TO.N,/ICE_USBN*
G04 #@! TO.C,R11*
G36*
X1860980Y-2229048D02*
X1861951Y-2229192D01*
X1862903Y-2229431D01*
X1863827Y-2229761D01*
X1864714Y-2230181D01*
X1865556Y-2230685D01*
X1866344Y-2231270D01*
X1867071Y-2231929D01*
X1867730Y-2232656D01*
X1868315Y-2233444D01*
X1868819Y-2234286D01*
X1869239Y-2235173D01*
X1869569Y-2236097D01*
X1869808Y-2237049D01*
X1869952Y-2238020D01*
X1870000Y-2239000D01*
X1870000Y-2265000D01*
X1869952Y-2265980D01*
X1869808Y-2266951D01*
X1869569Y-2267903D01*
X1869239Y-2268827D01*
X1868819Y-2269714D01*
X1868315Y-2270556D01*
X1867730Y-2271344D01*
X1867071Y-2272071D01*
X1866344Y-2272730D01*
X1865556Y-2273315D01*
X1864714Y-2273819D01*
X1863827Y-2274239D01*
X1862903Y-2274569D01*
X1861951Y-2274808D01*
X1860980Y-2274952D01*
X1860000Y-2275000D01*
X1840000Y-2275000D01*
X1839020Y-2274952D01*
X1838049Y-2274808D01*
X1837097Y-2274569D01*
X1836173Y-2274239D01*
X1835286Y-2273819D01*
X1834444Y-2273315D01*
X1833656Y-2272730D01*
X1832929Y-2272071D01*
X1832270Y-2271344D01*
X1831685Y-2270556D01*
X1831181Y-2269714D01*
X1830761Y-2268827D01*
X1830431Y-2267903D01*
X1830192Y-2266951D01*
X1830048Y-2265980D01*
X1830000Y-2265000D01*
X1830000Y-2239000D01*
X1830048Y-2238020D01*
X1830192Y-2237049D01*
X1830431Y-2236097D01*
X1830761Y-2235173D01*
X1831181Y-2234286D01*
X1831685Y-2233444D01*
X1832270Y-2232656D01*
X1832929Y-2231929D01*
X1833656Y-2231270D01*
X1834444Y-2230685D01*
X1835286Y-2230181D01*
X1836173Y-2229761D01*
X1837097Y-2229431D01*
X1838049Y-2229192D01*
X1839020Y-2229048D01*
X1840000Y-2229000D01*
X1860000Y-2229000D01*
X1860980Y-2229048D01*
X1860980Y-2229048D01*
G37*
D16*
G04 #@! TD*
G04 #@! TO.P,R11,1*
G04 #@! TO.N,/ICE_USBN*
X1850000Y-2252000D03*
D14*
G04 #@! TO.N,/USB_N*
G04 #@! TO.C,R11*
G36*
X1860980Y-2165048D02*
X1861951Y-2165192D01*
X1862903Y-2165431D01*
X1863827Y-2165761D01*
X1864714Y-2166181D01*
X1865556Y-2166685D01*
X1866344Y-2167270D01*
X1867071Y-2167929D01*
X1867730Y-2168656D01*
X1868315Y-2169444D01*
X1868819Y-2170286D01*
X1869239Y-2171173D01*
X1869569Y-2172097D01*
X1869808Y-2173049D01*
X1869952Y-2174020D01*
X1870000Y-2175000D01*
X1870000Y-2201000D01*
X1869952Y-2201980D01*
X1869808Y-2202951D01*
X1869569Y-2203903D01*
X1869239Y-2204827D01*
X1868819Y-2205714D01*
X1868315Y-2206556D01*
X1867730Y-2207344D01*
X1867071Y-2208071D01*
X1866344Y-2208730D01*
X1865556Y-2209315D01*
X1864714Y-2209819D01*
X1863827Y-2210239D01*
X1862903Y-2210569D01*
X1861951Y-2210808D01*
X1860980Y-2210952D01*
X1860000Y-2211000D01*
X1840000Y-2211000D01*
X1839020Y-2210952D01*
X1838049Y-2210808D01*
X1837097Y-2210569D01*
X1836173Y-2210239D01*
X1835286Y-2209819D01*
X1834444Y-2209315D01*
X1833656Y-2208730D01*
X1832929Y-2208071D01*
X1832270Y-2207344D01*
X1831685Y-2206556D01*
X1831181Y-2205714D01*
X1830761Y-2204827D01*
X1830431Y-2203903D01*
X1830192Y-2202951D01*
X1830048Y-2201980D01*
X1830000Y-2201000D01*
X1830000Y-2175000D01*
X1830048Y-2174020D01*
X1830192Y-2173049D01*
X1830431Y-2172097D01*
X1830761Y-2171173D01*
X1831181Y-2170286D01*
X1831685Y-2169444D01*
X1832270Y-2168656D01*
X1832929Y-2167929D01*
X1833656Y-2167270D01*
X1834444Y-2166685D01*
X1835286Y-2166181D01*
X1836173Y-2165761D01*
X1837097Y-2165431D01*
X1838049Y-2165192D01*
X1839020Y-2165048D01*
X1840000Y-2165000D01*
X1860000Y-2165000D01*
X1860980Y-2165048D01*
X1860980Y-2165048D01*
G37*
D16*
G04 #@! TD*
G04 #@! TO.P,R11,2*
G04 #@! TO.N,/USB_N*
X1850000Y-2188000D03*
D14*
G04 #@! TO.N,/CRESET*
G04 #@! TO.C,R1*
G36*
X1790980Y-2165048D02*
X1791951Y-2165192D01*
X1792903Y-2165431D01*
X1793827Y-2165761D01*
X1794714Y-2166181D01*
X1795556Y-2166685D01*
X1796344Y-2167270D01*
X1797071Y-2167929D01*
X1797730Y-2168656D01*
X1798315Y-2169444D01*
X1798819Y-2170286D01*
X1799239Y-2171173D01*
X1799569Y-2172097D01*
X1799808Y-2173049D01*
X1799952Y-2174020D01*
X1800000Y-2175000D01*
X1800000Y-2201000D01*
X1799952Y-2201980D01*
X1799808Y-2202951D01*
X1799569Y-2203903D01*
X1799239Y-2204827D01*
X1798819Y-2205714D01*
X1798315Y-2206556D01*
X1797730Y-2207344D01*
X1797071Y-2208071D01*
X1796344Y-2208730D01*
X1795556Y-2209315D01*
X1794714Y-2209819D01*
X1793827Y-2210239D01*
X1792903Y-2210569D01*
X1791951Y-2210808D01*
X1790980Y-2210952D01*
X1790000Y-2211000D01*
X1770000Y-2211000D01*
X1769020Y-2210952D01*
X1768049Y-2210808D01*
X1767097Y-2210569D01*
X1766173Y-2210239D01*
X1765286Y-2209819D01*
X1764444Y-2209315D01*
X1763656Y-2208730D01*
X1762929Y-2208071D01*
X1762270Y-2207344D01*
X1761685Y-2206556D01*
X1761181Y-2205714D01*
X1760761Y-2204827D01*
X1760431Y-2203903D01*
X1760192Y-2202951D01*
X1760048Y-2201980D01*
X1760000Y-2201000D01*
X1760000Y-2175000D01*
X1760048Y-2174020D01*
X1760192Y-2173049D01*
X1760431Y-2172097D01*
X1760761Y-2171173D01*
X1761181Y-2170286D01*
X1761685Y-2169444D01*
X1762270Y-2168656D01*
X1762929Y-2167929D01*
X1763656Y-2167270D01*
X1764444Y-2166685D01*
X1765286Y-2166181D01*
X1766173Y-2165761D01*
X1767097Y-2165431D01*
X1768049Y-2165192D01*
X1769020Y-2165048D01*
X1770000Y-2165000D01*
X1790000Y-2165000D01*
X1790980Y-2165048D01*
X1790980Y-2165048D01*
G37*
D16*
G04 #@! TD*
G04 #@! TO.P,R1,1*
G04 #@! TO.N,/CRESET*
X1780000Y-2188000D03*
D14*
G04 #@! TO.N,+3V3*
G04 #@! TO.C,R1*
G36*
X1790980Y-2229048D02*
X1791951Y-2229192D01*
X1792903Y-2229431D01*
X1793827Y-2229761D01*
X1794714Y-2230181D01*
X1795556Y-2230685D01*
X1796344Y-2231270D01*
X1797071Y-2231929D01*
X1797730Y-2232656D01*
X1798315Y-2233444D01*
X1798819Y-2234286D01*
X1799239Y-2235173D01*
X1799569Y-2236097D01*
X1799808Y-2237049D01*
X1799952Y-2238020D01*
X1800000Y-2239000D01*
X1800000Y-2265000D01*
X1799952Y-2265980D01*
X1799808Y-2266951D01*
X1799569Y-2267903D01*
X1799239Y-2268827D01*
X1798819Y-2269714D01*
X1798315Y-2270556D01*
X1797730Y-2271344D01*
X1797071Y-2272071D01*
X1796344Y-2272730D01*
X1795556Y-2273315D01*
X1794714Y-2273819D01*
X1793827Y-2274239D01*
X1792903Y-2274569D01*
X1791951Y-2274808D01*
X1790980Y-2274952D01*
X1790000Y-2275000D01*
X1770000Y-2275000D01*
X1769020Y-2274952D01*
X1768049Y-2274808D01*
X1767097Y-2274569D01*
X1766173Y-2274239D01*
X1765286Y-2273819D01*
X1764444Y-2273315D01*
X1763656Y-2272730D01*
X1762929Y-2272071D01*
X1762270Y-2271344D01*
X1761685Y-2270556D01*
X1761181Y-2269714D01*
X1760761Y-2268827D01*
X1760431Y-2267903D01*
X1760192Y-2266951D01*
X1760048Y-2265980D01*
X1760000Y-2265000D01*
X1760000Y-2239000D01*
X1760048Y-2238020D01*
X1760192Y-2237049D01*
X1760431Y-2236097D01*
X1760761Y-2235173D01*
X1761181Y-2234286D01*
X1761685Y-2233444D01*
X1762270Y-2232656D01*
X1762929Y-2231929D01*
X1763656Y-2231270D01*
X1764444Y-2230685D01*
X1765286Y-2230181D01*
X1766173Y-2229761D01*
X1767097Y-2229431D01*
X1768049Y-2229192D01*
X1769020Y-2229048D01*
X1770000Y-2229000D01*
X1790000Y-2229000D01*
X1790980Y-2229048D01*
X1790980Y-2229048D01*
G37*
D16*
G04 #@! TD*
G04 #@! TO.P,R1,2*
G04 #@! TO.N,+3V3*
X1780000Y-2252000D03*
D14*
G04 #@! TO.N,/SPI_CS*
G04 #@! TO.C,R5*
G36*
X2595980Y-2540048D02*
X2596951Y-2540192D01*
X2597903Y-2540431D01*
X2598827Y-2540761D01*
X2599714Y-2541181D01*
X2600556Y-2541685D01*
X2601344Y-2542270D01*
X2602071Y-2542929D01*
X2602730Y-2543656D01*
X2603315Y-2544444D01*
X2603819Y-2545286D01*
X2604239Y-2546173D01*
X2604569Y-2547097D01*
X2604808Y-2548049D01*
X2604952Y-2549020D01*
X2605000Y-2550000D01*
X2605000Y-2570000D01*
X2604952Y-2570980D01*
X2604808Y-2571951D01*
X2604569Y-2572903D01*
X2604239Y-2573827D01*
X2603819Y-2574714D01*
X2603315Y-2575556D01*
X2602730Y-2576344D01*
X2602071Y-2577071D01*
X2601344Y-2577730D01*
X2600556Y-2578315D01*
X2599714Y-2578819D01*
X2598827Y-2579239D01*
X2597903Y-2579569D01*
X2596951Y-2579808D01*
X2595980Y-2579952D01*
X2595000Y-2580000D01*
X2569000Y-2580000D01*
X2568020Y-2579952D01*
X2567049Y-2579808D01*
X2566097Y-2579569D01*
X2565173Y-2579239D01*
X2564286Y-2578819D01*
X2563444Y-2578315D01*
X2562656Y-2577730D01*
X2561929Y-2577071D01*
X2561270Y-2576344D01*
X2560685Y-2575556D01*
X2560181Y-2574714D01*
X2559761Y-2573827D01*
X2559431Y-2572903D01*
X2559192Y-2571951D01*
X2559048Y-2570980D01*
X2559000Y-2570000D01*
X2559000Y-2550000D01*
X2559048Y-2549020D01*
X2559192Y-2548049D01*
X2559431Y-2547097D01*
X2559761Y-2546173D01*
X2560181Y-2545286D01*
X2560685Y-2544444D01*
X2561270Y-2543656D01*
X2561929Y-2542929D01*
X2562656Y-2542270D01*
X2563444Y-2541685D01*
X2564286Y-2541181D01*
X2565173Y-2540761D01*
X2566097Y-2540431D01*
X2567049Y-2540192D01*
X2568020Y-2540048D01*
X2569000Y-2540000D01*
X2595000Y-2540000D01*
X2595980Y-2540048D01*
X2595980Y-2540048D01*
G37*
D16*
G04 #@! TD*
G04 #@! TO.P,R5,1*
G04 #@! TO.N,/SPI_CS*
X2582000Y-2560000D03*
D14*
G04 #@! TO.N,+3V3*
G04 #@! TO.C,R5*
G36*
X2531980Y-2540048D02*
X2532951Y-2540192D01*
X2533903Y-2540431D01*
X2534827Y-2540761D01*
X2535714Y-2541181D01*
X2536556Y-2541685D01*
X2537344Y-2542270D01*
X2538071Y-2542929D01*
X2538730Y-2543656D01*
X2539315Y-2544444D01*
X2539819Y-2545286D01*
X2540239Y-2546173D01*
X2540569Y-2547097D01*
X2540808Y-2548049D01*
X2540952Y-2549020D01*
X2541000Y-2550000D01*
X2541000Y-2570000D01*
X2540952Y-2570980D01*
X2540808Y-2571951D01*
X2540569Y-2572903D01*
X2540239Y-2573827D01*
X2539819Y-2574714D01*
X2539315Y-2575556D01*
X2538730Y-2576344D01*
X2538071Y-2577071D01*
X2537344Y-2577730D01*
X2536556Y-2578315D01*
X2535714Y-2578819D01*
X2534827Y-2579239D01*
X2533903Y-2579569D01*
X2532951Y-2579808D01*
X2531980Y-2579952D01*
X2531000Y-2580000D01*
X2505000Y-2580000D01*
X2504020Y-2579952D01*
X2503049Y-2579808D01*
X2502097Y-2579569D01*
X2501173Y-2579239D01*
X2500286Y-2578819D01*
X2499444Y-2578315D01*
X2498656Y-2577730D01*
X2497929Y-2577071D01*
X2497270Y-2576344D01*
X2496685Y-2575556D01*
X2496181Y-2574714D01*
X2495761Y-2573827D01*
X2495431Y-2572903D01*
X2495192Y-2571951D01*
X2495048Y-2570980D01*
X2495000Y-2570000D01*
X2495000Y-2550000D01*
X2495048Y-2549020D01*
X2495192Y-2548049D01*
X2495431Y-2547097D01*
X2495761Y-2546173D01*
X2496181Y-2545286D01*
X2496685Y-2544444D01*
X2497270Y-2543656D01*
X2497929Y-2542929D01*
X2498656Y-2542270D01*
X2499444Y-2541685D01*
X2500286Y-2541181D01*
X2501173Y-2540761D01*
X2502097Y-2540431D01*
X2503049Y-2540192D01*
X2504020Y-2540048D01*
X2505000Y-2540000D01*
X2531000Y-2540000D01*
X2531980Y-2540048D01*
X2531980Y-2540048D01*
G37*
D16*
G04 #@! TD*
G04 #@! TO.P,R5,2*
G04 #@! TO.N,+3V3*
X2518000Y-2560000D03*
D14*
G04 #@! TO.N,/ICE_USBP*
G04 #@! TO.C,R12*
G36*
X1930980Y-2229048D02*
X1931951Y-2229192D01*
X1932903Y-2229431D01*
X1933827Y-2229761D01*
X1934714Y-2230181D01*
X1935556Y-2230685D01*
X1936344Y-2231270D01*
X1937071Y-2231929D01*
X1937730Y-2232656D01*
X1938315Y-2233444D01*
X1938819Y-2234286D01*
X1939239Y-2235173D01*
X1939569Y-2236097D01*
X1939808Y-2237049D01*
X1939952Y-2238020D01*
X1940000Y-2239000D01*
X1940000Y-2265000D01*
X1939952Y-2265980D01*
X1939808Y-2266951D01*
X1939569Y-2267903D01*
X1939239Y-2268827D01*
X1938819Y-2269714D01*
X1938315Y-2270556D01*
X1937730Y-2271344D01*
X1937071Y-2272071D01*
X1936344Y-2272730D01*
X1935556Y-2273315D01*
X1934714Y-2273819D01*
X1933827Y-2274239D01*
X1932903Y-2274569D01*
X1931951Y-2274808D01*
X1930980Y-2274952D01*
X1930000Y-2275000D01*
X1910000Y-2275000D01*
X1909020Y-2274952D01*
X1908049Y-2274808D01*
X1907097Y-2274569D01*
X1906173Y-2274239D01*
X1905286Y-2273819D01*
X1904444Y-2273315D01*
X1903656Y-2272730D01*
X1902929Y-2272071D01*
X1902270Y-2271344D01*
X1901685Y-2270556D01*
X1901181Y-2269714D01*
X1900761Y-2268827D01*
X1900431Y-2267903D01*
X1900192Y-2266951D01*
X1900048Y-2265980D01*
X1900000Y-2265000D01*
X1900000Y-2239000D01*
X1900048Y-2238020D01*
X1900192Y-2237049D01*
X1900431Y-2236097D01*
X1900761Y-2235173D01*
X1901181Y-2234286D01*
X1901685Y-2233444D01*
X1902270Y-2232656D01*
X1902929Y-2231929D01*
X1903656Y-2231270D01*
X1904444Y-2230685D01*
X1905286Y-2230181D01*
X1906173Y-2229761D01*
X1907097Y-2229431D01*
X1908049Y-2229192D01*
X1909020Y-2229048D01*
X1910000Y-2229000D01*
X1930000Y-2229000D01*
X1930980Y-2229048D01*
X1930980Y-2229048D01*
G37*
D16*
G04 #@! TD*
G04 #@! TO.P,R12,1*
G04 #@! TO.N,/ICE_USBP*
X1920000Y-2252000D03*
D14*
G04 #@! TO.N,/USB_P*
G04 #@! TO.C,R12*
G36*
X1930980Y-2165048D02*
X1931951Y-2165192D01*
X1932903Y-2165431D01*
X1933827Y-2165761D01*
X1934714Y-2166181D01*
X1935556Y-2166685D01*
X1936344Y-2167270D01*
X1937071Y-2167929D01*
X1937730Y-2168656D01*
X1938315Y-2169444D01*
X1938819Y-2170286D01*
X1939239Y-2171173D01*
X1939569Y-2172097D01*
X1939808Y-2173049D01*
X1939952Y-2174020D01*
X1940000Y-2175000D01*
X1940000Y-2201000D01*
X1939952Y-2201980D01*
X1939808Y-2202951D01*
X1939569Y-2203903D01*
X1939239Y-2204827D01*
X1938819Y-2205714D01*
X1938315Y-2206556D01*
X1937730Y-2207344D01*
X1937071Y-2208071D01*
X1936344Y-2208730D01*
X1935556Y-2209315D01*
X1934714Y-2209819D01*
X1933827Y-2210239D01*
X1932903Y-2210569D01*
X1931951Y-2210808D01*
X1930980Y-2210952D01*
X1930000Y-2211000D01*
X1910000Y-2211000D01*
X1909020Y-2210952D01*
X1908049Y-2210808D01*
X1907097Y-2210569D01*
X1906173Y-2210239D01*
X1905286Y-2209819D01*
X1904444Y-2209315D01*
X1903656Y-2208730D01*
X1902929Y-2208071D01*
X1902270Y-2207344D01*
X1901685Y-2206556D01*
X1901181Y-2205714D01*
X1900761Y-2204827D01*
X1900431Y-2203903D01*
X1900192Y-2202951D01*
X1900048Y-2201980D01*
X1900000Y-2201000D01*
X1900000Y-2175000D01*
X1900048Y-2174020D01*
X1900192Y-2173049D01*
X1900431Y-2172097D01*
X1900761Y-2171173D01*
X1901181Y-2170286D01*
X1901685Y-2169444D01*
X1902270Y-2168656D01*
X1902929Y-2167929D01*
X1903656Y-2167270D01*
X1904444Y-2166685D01*
X1905286Y-2166181D01*
X1906173Y-2165761D01*
X1907097Y-2165431D01*
X1908049Y-2165192D01*
X1909020Y-2165048D01*
X1910000Y-2165000D01*
X1930000Y-2165000D01*
X1930980Y-2165048D01*
X1930980Y-2165048D01*
G37*
D16*
G04 #@! TD*
G04 #@! TO.P,R12,2*
G04 #@! TO.N,/USB_P*
X1920000Y-2188000D03*
D14*
G04 #@! TO.N,/PU_CTRL_USBP*
G04 #@! TO.C,R9*
G36*
X2000980Y-2229048D02*
X2001951Y-2229192D01*
X2002903Y-2229431D01*
X2003827Y-2229761D01*
X2004714Y-2230181D01*
X2005556Y-2230685D01*
X2006344Y-2231270D01*
X2007071Y-2231929D01*
X2007730Y-2232656D01*
X2008315Y-2233444D01*
X2008819Y-2234286D01*
X2009239Y-2235173D01*
X2009569Y-2236097D01*
X2009808Y-2237049D01*
X2009952Y-2238020D01*
X2010000Y-2239000D01*
X2010000Y-2265000D01*
X2009952Y-2265980D01*
X2009808Y-2266951D01*
X2009569Y-2267903D01*
X2009239Y-2268827D01*
X2008819Y-2269714D01*
X2008315Y-2270556D01*
X2007730Y-2271344D01*
X2007071Y-2272071D01*
X2006344Y-2272730D01*
X2005556Y-2273315D01*
X2004714Y-2273819D01*
X2003827Y-2274239D01*
X2002903Y-2274569D01*
X2001951Y-2274808D01*
X2000980Y-2274952D01*
X2000000Y-2275000D01*
X1980000Y-2275000D01*
X1979020Y-2274952D01*
X1978049Y-2274808D01*
X1977097Y-2274569D01*
X1976173Y-2274239D01*
X1975286Y-2273819D01*
X1974444Y-2273315D01*
X1973656Y-2272730D01*
X1972929Y-2272071D01*
X1972270Y-2271344D01*
X1971685Y-2270556D01*
X1971181Y-2269714D01*
X1970761Y-2268827D01*
X1970431Y-2267903D01*
X1970192Y-2266951D01*
X1970048Y-2265980D01*
X1970000Y-2265000D01*
X1970000Y-2239000D01*
X1970048Y-2238020D01*
X1970192Y-2237049D01*
X1970431Y-2236097D01*
X1970761Y-2235173D01*
X1971181Y-2234286D01*
X1971685Y-2233444D01*
X1972270Y-2232656D01*
X1972929Y-2231929D01*
X1973656Y-2231270D01*
X1974444Y-2230685D01*
X1975286Y-2230181D01*
X1976173Y-2229761D01*
X1977097Y-2229431D01*
X1978049Y-2229192D01*
X1979020Y-2229048D01*
X1980000Y-2229000D01*
X2000000Y-2229000D01*
X2000980Y-2229048D01*
X2000980Y-2229048D01*
G37*
D16*
G04 #@! TD*
G04 #@! TO.P,R9,1*
G04 #@! TO.N,/PU_CTRL_USBP*
X1990000Y-2252000D03*
D14*
G04 #@! TO.N,/USB_P*
G04 #@! TO.C,R9*
G36*
X2000980Y-2165048D02*
X2001951Y-2165192D01*
X2002903Y-2165431D01*
X2003827Y-2165761D01*
X2004714Y-2166181D01*
X2005556Y-2166685D01*
X2006344Y-2167270D01*
X2007071Y-2167929D01*
X2007730Y-2168656D01*
X2008315Y-2169444D01*
X2008819Y-2170286D01*
X2009239Y-2171173D01*
X2009569Y-2172097D01*
X2009808Y-2173049D01*
X2009952Y-2174020D01*
X2010000Y-2175000D01*
X2010000Y-2201000D01*
X2009952Y-2201980D01*
X2009808Y-2202951D01*
X2009569Y-2203903D01*
X2009239Y-2204827D01*
X2008819Y-2205714D01*
X2008315Y-2206556D01*
X2007730Y-2207344D01*
X2007071Y-2208071D01*
X2006344Y-2208730D01*
X2005556Y-2209315D01*
X2004714Y-2209819D01*
X2003827Y-2210239D01*
X2002903Y-2210569D01*
X2001951Y-2210808D01*
X2000980Y-2210952D01*
X2000000Y-2211000D01*
X1980000Y-2211000D01*
X1979020Y-2210952D01*
X1978049Y-2210808D01*
X1977097Y-2210569D01*
X1976173Y-2210239D01*
X1975286Y-2209819D01*
X1974444Y-2209315D01*
X1973656Y-2208730D01*
X1972929Y-2208071D01*
X1972270Y-2207344D01*
X1971685Y-2206556D01*
X1971181Y-2205714D01*
X1970761Y-2204827D01*
X1970431Y-2203903D01*
X1970192Y-2202951D01*
X1970048Y-2201980D01*
X1970000Y-2201000D01*
X1970000Y-2175000D01*
X1970048Y-2174020D01*
X1970192Y-2173049D01*
X1970431Y-2172097D01*
X1970761Y-2171173D01*
X1971181Y-2170286D01*
X1971685Y-2169444D01*
X1972270Y-2168656D01*
X1972929Y-2167929D01*
X1973656Y-2167270D01*
X1974444Y-2166685D01*
X1975286Y-2166181D01*
X1976173Y-2165761D01*
X1977097Y-2165431D01*
X1978049Y-2165192D01*
X1979020Y-2165048D01*
X1980000Y-2165000D01*
X2000000Y-2165000D01*
X2000980Y-2165048D01*
X2000980Y-2165048D01*
G37*
D16*
G04 #@! TD*
G04 #@! TO.P,R9,2*
G04 #@! TO.N,/USB_P*
X1990000Y-2188000D03*
D21*
G04 #@! TO.P,U1,5*
G04 #@! TO.N,GND*
X1900000Y-1820000D03*
D14*
G04 #@! TD*
G04 #@! TO.N,GND*
G04 #@! TO.C,U1*
G36*
X1941012Y-1820000D02*
X1900000Y-1861012D01*
X1858988Y-1820000D01*
X1900000Y-1778988D01*
X1941012Y-1820000D01*
X1941012Y-1820000D01*
G37*
D22*
G04 #@! TO.N,GND*
G04 #@! TO.C,U1*
X1943000Y-1852500D03*
D14*
G36*
X1920000Y-1857929D02*
X1940929Y-1837000D01*
X1966000Y-1837000D01*
X1966000Y-1868000D01*
X1920000Y-1868000D01*
X1920000Y-1857929D01*
X1920000Y-1857929D01*
G37*
D22*
G04 #@! TO.N,+5V*
X1857000Y-1852500D03*
D14*
G36*
X1834000Y-1837000D02*
X1859071Y-1837000D01*
X1880000Y-1857929D01*
X1880000Y-1868000D01*
X1834000Y-1868000D01*
X1834000Y-1837000D01*
X1834000Y-1837000D01*
G37*
D22*
X1857000Y-1787500D03*
D14*
G36*
X1834000Y-1772000D02*
X1880000Y-1772000D01*
X1880000Y-1782071D01*
X1859071Y-1803000D01*
X1834000Y-1803000D01*
X1834000Y-1772000D01*
X1834000Y-1772000D01*
G37*
D22*
G04 #@! TO.N,+1V2*
X1943000Y-1787500D03*
D14*
G36*
X1920000Y-1782071D02*
X1920000Y-1772000D01*
X1966000Y-1772000D01*
X1966000Y-1803000D01*
X1940929Y-1803000D01*
X1920000Y-1782071D01*
X1920000Y-1782071D01*
G37*
G04 #@! TD*
D23*
G04 #@! TO.P,TP2,1*
G04 #@! TO.N,/SPI_MOSI*
X2530000Y-1782500D03*
G04 #@! TD*
G04 #@! TO.P,TP1,1*
G04 #@! TO.N,+5V*
X1760000Y-2095000D03*
G04 #@! TD*
G04 #@! TO.P,TP12,1*
G04 #@! TO.N,GND*
X2610000Y-2330000D03*
G04 #@! TD*
G04 #@! TO.P,TP11,1*
G04 #@! TO.N,/USB_P*
X2105000Y-2102500D03*
G04 #@! TD*
G04 #@! TO.P,TP10,1*
G04 #@! TO.N,/USB_N*
X1977500Y-2097500D03*
G04 #@! TD*
G04 #@! TO.P,TP9,1*
G04 #@! TO.N,/CDONE*
X2505000Y-2000000D03*
G04 #@! TD*
G04 #@! TO.P,TP8,1*
G04 #@! TO.N,/CRESET*
X2405000Y-1891500D03*
G04 #@! TD*
G04 #@! TO.P,TP7,1*
G04 #@! TO.N,/SPI_IO3*
X2692500Y-2520000D03*
G04 #@! TD*
G04 #@! TO.P,TP6,1*
G04 #@! TO.N,/SPI_IO2*
X2395000Y-2000000D03*
G04 #@! TD*
G04 #@! TO.P,TP5,1*
G04 #@! TO.N,/SPI_CLK*
X2730000Y-1782500D03*
G04 #@! TD*
G04 #@! TO.P,TP4,1*
G04 #@! TO.N,/SPI_CS*
X2505000Y-1895000D03*
G04 #@! TD*
D24*
G04 #@! TO.N,GND*
X2005000Y-2552500D03*
X1950000Y-2410000D03*
X1925000Y-2410000D03*
X1935000Y-2395000D03*
X1915000Y-2370000D03*
X1960000Y-2010000D03*
X1930000Y-2010000D03*
X1945000Y-2000000D03*
X1900000Y-1995000D03*
X1900000Y-1950000D03*
X1920000Y-1970000D03*
X2035000Y-2010000D03*
X2020000Y-1990000D03*
X1935000Y-1860000D03*
X1950000Y-1845000D03*
X1900000Y-1845000D03*
X1900000Y-1805000D03*
X1880000Y-1820000D03*
X1789000Y-1786500D03*
X1764000Y-1794500D03*
X1780000Y-2015000D03*
X2660000Y-1885000D03*
X2685000Y-1905000D03*
X2660000Y-1960000D03*
X2690000Y-1975000D03*
X2685000Y-2050000D03*
X2220000Y-2310000D03*
X2220000Y-2097500D03*
X2197500Y-2100000D03*
X2610000Y-2455000D03*
X2607500Y-2432500D03*
X1920000Y-1820000D03*
X2270000Y-2312500D03*
X1885000Y-1972500D03*
X2480000Y-2250000D03*
X2593000Y-2328500D03*
X2400000Y-2130000D03*
X2234000Y-2603500D03*
X2194000Y-2603500D03*
X2132500Y-2615000D03*
X2165000Y-2615000D03*
X2605000Y-2387500D03*
X2215000Y-2595000D03*
X2307500Y-2607500D03*
X2265000Y-2607500D03*
X2590000Y-2362500D03*
X2290000Y-2092500D03*
X2260000Y-2092500D03*
X1845000Y-2090500D03*
X2168000Y-2097500D03*
X1765000Y-1987500D03*
X2092500Y-2615000D03*
X2020000Y-2615000D03*
X2055000Y-2615000D03*
X2045000Y-2580000D03*
X2672500Y-2380000D03*
X2015000Y-2582500D03*
X2292000Y-1962500D03*
X2255000Y-1965500D03*
X2265000Y-2003500D03*
X2306000Y-2014500D03*
X2671000Y-2024500D03*
X2243000Y-2019500D03*
X2025000Y-2402500D03*
X2002500Y-2397500D03*
X2471000Y-1780500D03*
X2460000Y-1799500D03*
G04 #@! TO.N,+3V3*
X2440000Y-2290000D03*
X1845000Y-2000000D03*
X2040000Y-2260000D03*
X2220000Y-2230000D03*
X2400000Y-2170000D03*
X1865000Y-2005000D03*
X2480000Y-2210000D03*
X2103000Y-2405000D03*
X2128000Y-2405000D03*
X2110000Y-1780000D03*
X2112000Y-1820500D03*
X2140000Y-1818500D03*
X2157500Y-1787500D03*
X1945000Y-2332500D03*
X1945000Y-2347500D03*
X2020000Y-2312500D03*
X2522500Y-2390000D03*
X2602500Y-2150000D03*
X2627500Y-2162500D03*
X2502500Y-2392500D03*
X2275000Y-2242500D03*
X2260000Y-2227500D03*
X2205000Y-2242500D03*
X2045000Y-2247500D03*
X2510000Y-2410000D03*
X1770000Y-2240000D03*
X2385000Y-1774500D03*
X2360000Y-1773500D03*
G04 #@! TO.N,/SPI_MISO*
X2392500Y-2470000D03*
X2087500Y-2295000D03*
X2660000Y-1757500D03*
G04 #@! TO.N,/SPI_CS*
X2330000Y-2242500D03*
X2355000Y-2417500D03*
X2593671Y-2571671D03*
X2545000Y-1837500D03*
G04 #@! TO.N,/SPI_CLK*
X2325356Y-2205356D03*
X2225000Y-2490000D03*
X2770000Y-1782500D03*
G04 #@! TO.N,/SPI_IO2*
X2450000Y-2487500D03*
X2362000Y-1963500D03*
G04 #@! TO.N,/SPI_IO3*
X2245000Y-2455000D03*
X2690000Y-2535000D03*
X2262500Y-2577500D03*
X2330000Y-2282500D03*
G04 #@! TO.N,/CRESET*
X2440000Y-2090000D03*
X2524000Y-1947500D03*
X1770000Y-2177500D03*
X2408000Y-1843500D03*
G04 #@! TO.N,/CDONE*
X2440000Y-2170000D03*
X2510000Y-2058500D03*
G04 #@! TO.N,+5V*
X1790000Y-2495000D03*
X1817500Y-2475000D03*
X1730000Y-2497500D03*
X1730000Y-2542500D03*
X1740000Y-2587500D03*
X1836000Y-2337500D03*
X1725000Y-2587500D03*
X1730000Y-2517500D03*
X1735000Y-2617500D03*
X1820000Y-2612500D03*
X1730000Y-2562500D03*
X1855000Y-2615000D03*
X1745000Y-2295000D03*
X1747500Y-2350000D03*
X1850000Y-2310000D03*
X1835000Y-2320000D03*
G04 #@! TO.N,/SPI_MOSI*
X2225000Y-2525000D03*
X2309000Y-1910500D03*
X2500000Y-1752500D03*
G04 #@! TO.N,/PU_CTRL_USBP*
X1997500Y-2235000D03*
X2305000Y-2387500D03*
G04 #@! TO.N,/VCCPLL*
X2400000Y-2250000D03*
X2080000Y-2497500D03*
X2080000Y-2477500D03*
G04 #@! TO.N,+1V2*
X1940000Y-2562500D03*
X2400000Y-2210000D03*
X2007500Y-1782500D03*
X2042500Y-1777500D03*
X2200000Y-2140000D03*
X2220000Y-2140000D03*
X2270000Y-2140000D03*
X2290000Y-2140000D03*
X1936000Y-1783500D03*
X1953000Y-1791500D03*
X1846000Y-2408500D03*
X1955000Y-2547500D03*
G04 #@! TO.N,+2V5*
X2027500Y-1927500D03*
X2619000Y-1978500D03*
X2612000Y-1961500D03*
X2480000Y-2170000D03*
X2610000Y-1995500D03*
X2032500Y-1950000D03*
G04 #@! TO.N,/TOUCH_4*
X2797500Y-1835000D03*
G04 #@! TO.N,/TOUCH_1*
X2479751Y-2129875D03*
X2832000Y-2536500D03*
X2740000Y-2417500D03*
G04 #@! TO.N,/TOUCH_2*
X2850000Y-2362500D03*
G04 #@! TO.N,/TOUCH_3*
X2810000Y-2027500D03*
G04 #@! TO.N,/USB_P*
X2017500Y-2180000D03*
G04 #@! TO.N,/USB_N*
X1905000Y-2117500D03*
G04 #@! TD*
D14*
G04 #@! TO.N,GND*
X1945500Y-2000000D02*
X1943000Y-2002500D01*
X2030000Y-2000000D02*
X1945500Y-2000000D01*
X1942000Y-1852500D02*
X1943000Y-1852500D01*
D25*
X2595210Y-2373343D02*
X2595210Y-2513343D01*
X1944500Y-1854000D02*
X1943000Y-1852500D01*
X2030000Y-1854000D02*
X1944500Y-1854000D01*
X1910000Y-2370000D02*
X1935000Y-2395000D01*
X1890000Y-2370000D02*
X1910000Y-2370000D01*
D26*
X1920000Y-2400000D02*
X1920000Y-2405000D01*
X1890000Y-2370000D02*
X1920000Y-2400000D01*
X1945000Y-2000000D02*
X2030000Y-2000000D01*
X2037500Y-1992500D02*
X2030000Y-2000000D01*
X1910500Y-1820000D02*
X1943000Y-1852500D01*
X1900000Y-1820000D02*
X1910500Y-1820000D01*
D25*
X1933000Y-2002500D02*
X1943000Y-2002500D01*
D26*
X1900000Y-1970000D02*
X1930000Y-2000000D01*
X1930000Y-2000000D02*
X1930000Y-2022500D01*
X1932500Y-2002500D02*
X1900000Y-1970000D01*
X1943000Y-2002500D02*
X1932500Y-2002500D01*
X1905000Y-1985800D02*
X1905000Y-1990501D01*
X1900000Y-1980800D02*
X1905000Y-1985800D01*
X1900000Y-1970000D02*
X1900000Y-1980800D01*
X1927577Y-2007923D02*
X1918000Y-2017500D01*
X1927577Y-1997577D02*
X1927577Y-2007923D01*
X1900000Y-1970000D02*
X1927577Y-1997577D01*
D25*
X1918000Y-2017500D02*
X1933000Y-2002500D01*
X2007500Y-2574000D02*
X2004000Y-2574000D01*
X1925000Y-2604500D02*
X1925000Y-2612500D01*
X1875000Y-2554500D02*
X1925000Y-2604500D01*
D26*
X1872500Y-2552000D02*
X1875000Y-2554500D01*
X1800000Y-2552000D02*
X1872500Y-2552000D01*
D25*
X1900000Y-2021012D02*
X1900000Y-1970000D01*
X1900000Y-2026286D02*
X1900000Y-2021012D01*
X1853500Y-2072786D02*
X1900000Y-2026286D01*
X1853500Y-2097500D02*
X1853500Y-2072786D01*
G04 #@! TO.N,+3V3*
X1933500Y-2338000D02*
X1933000Y-2337500D01*
D14*
X2531210Y-2513343D02*
X2531210Y-2522210D01*
D26*
X2210000Y-2230500D02*
X2280000Y-2230500D01*
D14*
X2518000Y-2513343D02*
X2518000Y-2519500D01*
D26*
X2518000Y-2442500D02*
X2518000Y-2513343D01*
X2518000Y-2412500D02*
X2517500Y-2412000D01*
X2518000Y-2442500D02*
X2518000Y-2412500D01*
X2517500Y-2412000D02*
X2517500Y-2401501D01*
X2511501Y-2395502D02*
X2517500Y-2401501D01*
D14*
X2140500Y-2417500D02*
X2128000Y-2405000D01*
X2172500Y-2417500D02*
X2140500Y-2417500D01*
D26*
X2518000Y-2560000D02*
X2518000Y-2420000D01*
D25*
X2015000Y-2302500D02*
X2015000Y-2327500D01*
X2063000Y-2254500D02*
X2015000Y-2302500D01*
D14*
G04 #@! TO.N,/SPI_MISO*
X2410000Y-2470000D02*
X2412500Y-2467500D01*
X2392500Y-2470000D02*
X2410000Y-2470000D01*
X2170000Y-2202500D02*
X2180000Y-2192500D01*
X2180000Y-2192500D02*
X2300357Y-2192500D01*
X2170000Y-2317500D02*
X2170000Y-2202500D01*
X2130000Y-2317500D02*
X2170000Y-2317500D01*
X2115000Y-2302500D02*
X2130000Y-2317500D01*
X2300357Y-2192500D02*
X2350000Y-2142857D01*
X2087500Y-2295000D02*
X2095000Y-2302500D01*
X2350000Y-2140000D02*
X2360000Y-2130000D01*
X2350000Y-2142857D02*
X2350000Y-2140000D01*
X2095000Y-2302500D02*
X2115000Y-2302500D01*
X2655000Y-1757500D02*
X2630000Y-1782500D01*
X2660000Y-1757500D02*
X2655000Y-1757500D01*
G04 #@! TO.N,/SPI_CS*
X2360000Y-2212500D02*
X2330000Y-2242500D01*
X2360000Y-2210000D02*
X2360000Y-2212500D01*
X2476500Y-2456500D02*
X2476500Y-2460000D01*
X2437500Y-2417500D02*
X2476500Y-2456500D01*
X2412500Y-2417500D02*
X2437500Y-2417500D01*
X2412500Y-2417500D02*
X2355000Y-2417500D01*
X2476500Y-2576857D02*
X2476500Y-2557500D01*
X2494644Y-2595001D02*
X2476500Y-2576857D01*
X2546999Y-2595001D02*
X2494644Y-2595001D01*
X2582000Y-2560000D02*
X2546999Y-2595001D01*
X2476500Y-2572500D02*
X2476500Y-2557500D01*
X2476500Y-2557500D02*
X2476500Y-2460000D01*
X2563000Y-1837000D02*
X2505000Y-1895000D01*
X2545000Y-1837500D02*
X2563000Y-1837000D01*
G04 #@! TO.N,/SPI_CLK*
X2360000Y-2170712D02*
X2325356Y-2205356D01*
X2360000Y-2170000D02*
X2360000Y-2170712D01*
X2200000Y-2490000D02*
X2225000Y-2490000D01*
X2172500Y-2517500D02*
X2200000Y-2490000D01*
X2770000Y-1782500D02*
X2730000Y-1782500D01*
G04 #@! TO.N,/SPI_IO2*
X2432500Y-2505000D02*
X2450000Y-2487500D01*
X2420000Y-2517500D02*
X2450000Y-2487500D01*
X2412500Y-2517500D02*
X2420000Y-2517500D01*
X2400000Y-2005000D02*
X2395000Y-2000000D01*
X2400000Y-2090000D02*
X2400000Y-2005000D01*
X2362000Y-1967000D02*
X2395000Y-2000000D01*
X2362000Y-1963500D02*
X2362000Y-1967000D01*
G04 #@! TO.N,/SPI_IO3*
X2185000Y-2455000D02*
X2245000Y-2455000D01*
X2172500Y-2467500D02*
X2185000Y-2455000D01*
X2262500Y-2472500D02*
X2245000Y-2455000D01*
X2262500Y-2577500D02*
X2262500Y-2472500D01*
X2330000Y-2280000D02*
X2360000Y-2250000D01*
X2330000Y-2282500D02*
X2330000Y-2280000D01*
G04 #@! TO.N,/CRESET*
X2524000Y-1947500D02*
X2488000Y-1947500D01*
X2422500Y-1895000D02*
X2397500Y-1895000D01*
X2488000Y-1947500D02*
X2422500Y-1895000D01*
X2416000Y-1880500D02*
X2405000Y-1891500D01*
X2408000Y-1843500D02*
X2416000Y-1880500D01*
G04 #@! TO.N,/CDONE*
X2510000Y-2005000D02*
X2505000Y-2000000D01*
X2510000Y-2058500D02*
X2510000Y-2005000D01*
G04 #@! TO.N,/ICE_USBN*
X2342498Y-2360002D02*
X2350000Y-2352500D01*
X2412501Y-2340784D02*
X2412501Y-2302501D01*
X2103283Y-2360002D02*
X2342498Y-2360002D01*
X2073500Y-2389785D02*
X2103283Y-2360002D01*
X2073500Y-2422500D02*
X2073500Y-2389785D01*
X2400785Y-2352500D02*
X2412501Y-2340784D01*
X2046498Y-2449502D02*
X2073500Y-2422500D01*
X1986359Y-2449502D02*
X2046498Y-2449502D01*
X1976858Y-2440001D02*
X1986359Y-2449502D01*
X1824786Y-2440001D02*
X1976858Y-2440001D01*
X2350000Y-2352500D02*
X2400785Y-2352500D01*
X1808999Y-2424214D02*
X1824786Y-2440001D01*
X2412501Y-2302501D02*
X2400000Y-2290000D01*
X1808999Y-2283001D02*
X1808999Y-2424214D01*
X1840000Y-2252000D02*
X1808999Y-2283001D01*
G04 #@! TO.N,/ICE_USBP*
X1910000Y-2306999D02*
X1910000Y-2252000D01*
X1926001Y-2306999D02*
X1910000Y-2306999D01*
X1957143Y-2287500D02*
X1945500Y-2287500D01*
X1971001Y-2301358D02*
X1957143Y-2287500D01*
X1975000Y-2397500D02*
X1971001Y-2393501D01*
X1975000Y-2409857D02*
X1975000Y-2397500D01*
X1994644Y-2429501D02*
X1975000Y-2409857D01*
X1971001Y-2393501D02*
X1971001Y-2301358D01*
X2050001Y-2414856D02*
X2035356Y-2429501D01*
X2076715Y-2349999D02*
X2076715Y-2321715D01*
X1945500Y-2287500D02*
X1926001Y-2306999D01*
X2365000Y-2327500D02*
X2359000Y-2322500D01*
X2341715Y-2332499D02*
X2334213Y-2340001D01*
X2370000Y-2332500D02*
X2365000Y-2327500D01*
X2359000Y-2322500D02*
X2345000Y-2317500D01*
X2341715Y-2320785D02*
X2341715Y-2332499D01*
X2392499Y-2332500D02*
X2370000Y-2332500D01*
X2035356Y-2429501D02*
X1994644Y-2429501D01*
X2392500Y-2332499D02*
X2392499Y-2332500D01*
X2334213Y-2340001D02*
X2119644Y-2340001D01*
X2105358Y-2334999D02*
X2097856Y-2334999D01*
X2360000Y-2290000D02*
X2392500Y-2322500D01*
X2392500Y-2322500D02*
X2392500Y-2332499D01*
X2110000Y-2330357D02*
X2105358Y-2334999D01*
X2345000Y-2317500D02*
X2341715Y-2320785D01*
X2119644Y-2340001D02*
X2110000Y-2330357D01*
X2097856Y-2334999D02*
X2085000Y-2349999D01*
X2085000Y-2349999D02*
X2076715Y-2349999D01*
X2060000Y-2305001D02*
X2050001Y-2315000D01*
X2060000Y-2305000D02*
X2060000Y-2305001D01*
X2050001Y-2315000D02*
X2050001Y-2414856D01*
X2076715Y-2321715D02*
X2060000Y-2305000D01*
G04 #@! TO.N,+5V*
X1854500Y-1850000D02*
X1857000Y-1852500D01*
G04 #@! TO.N,/SPI_MOSI*
X2195000Y-2555000D02*
X2225000Y-2525000D01*
X2182500Y-2567500D02*
X2225000Y-2525000D01*
X2172500Y-2567500D02*
X2182500Y-2567500D01*
X2550000Y-1795000D02*
X2540000Y-1795000D01*
X2550000Y-1787500D02*
X2550000Y-1795000D01*
X2337000Y-2067000D02*
X2360000Y-2090000D01*
X2337000Y-1930500D02*
X2337000Y-2067000D01*
X2317000Y-1910500D02*
X2337000Y-1930500D01*
X2309000Y-1910500D02*
X2317000Y-1910500D01*
X2500000Y-1752500D02*
X2530000Y-1782500D01*
G04 #@! TO.N,/OSC_IN*
X2125000Y-2000000D02*
X2132500Y-1992500D01*
X2480000Y-2090000D02*
X2448000Y-2058000D01*
X2448000Y-2058000D02*
X2448000Y-1979000D01*
X2448000Y-1979000D02*
X2414500Y-1945500D01*
X2414500Y-1945500D02*
X2380286Y-1945500D01*
X2380286Y-1945500D02*
X2315287Y-1880501D01*
X2132500Y-1979000D02*
X2132500Y-1970000D01*
X2221999Y-1880501D02*
X2233000Y-1880501D01*
X2132500Y-1970000D02*
X2221999Y-1880501D01*
X2315287Y-1880501D02*
X2233000Y-1880501D01*
G04 #@! TO.N,/PU_CTRL_USBP*
X1980500Y-2252000D02*
X1997500Y-2235000D01*
X1980000Y-2252000D02*
X1980500Y-2252000D01*
X2480000Y-2304142D02*
X2480000Y-2290000D01*
X2396642Y-2387500D02*
X2480000Y-2304142D01*
X2305000Y-2387500D02*
X2396642Y-2387500D01*
D26*
G04 #@! TO.N,/VCCPLL*
X2075000Y-2490500D02*
X1944700Y-2490500D01*
X2023000Y-2490500D02*
X2030000Y-2497500D01*
D25*
X2050000Y-2477500D02*
X2030000Y-2497500D01*
X2080000Y-2477500D02*
X2050000Y-2477500D01*
D26*
X1944500Y-2485500D02*
X1945000Y-2486000D01*
X1875000Y-2485500D02*
X1944500Y-2485500D01*
D25*
G04 #@! TO.N,+1V2*
X2027500Y-1787500D02*
X2030000Y-1790000D01*
X1943000Y-1787500D02*
X2027500Y-1787500D01*
D14*
X2280000Y-2150000D02*
X2290000Y-2140000D01*
X2280000Y-2150000D02*
X2270000Y-2140000D01*
X2280000Y-2154500D02*
X2280000Y-2150000D01*
G04 #@! TO.N,+2V5*
X1944500Y-1936000D02*
X1943000Y-1937500D01*
D25*
X2028500Y-1937500D02*
X2030000Y-1936000D01*
X1943000Y-1937500D02*
X2028500Y-1937500D01*
D26*
X2598000Y-1962500D02*
X2598000Y-2032500D01*
D14*
X2619000Y-2011500D02*
X2598000Y-2032500D01*
X2619000Y-1978500D02*
X2619000Y-2011500D01*
G04 #@! TO.N,/TOUCH_4*
X2797500Y-1835000D02*
X2847500Y-1835000D01*
X2636000Y-1835000D02*
X2661000Y-1835000D01*
X2603500Y-1867500D02*
X2636000Y-1835000D01*
X2603500Y-1892500D02*
X2603500Y-1867500D01*
X2797500Y-1835000D02*
X2661000Y-1835000D01*
X2661000Y-1835000D02*
X2650000Y-1835000D01*
X2559999Y-1936001D02*
X2603500Y-1892500D01*
X2559999Y-2050001D02*
X2559999Y-1936001D01*
X2520000Y-2090000D02*
X2559999Y-2050001D01*
G04 #@! TO.N,/TOUCH_1*
X2480000Y-2130000D02*
X2479875Y-2130000D01*
X2479875Y-2130000D02*
X2479751Y-2129875D01*
X2835000Y-2533500D02*
X2832000Y-2536500D01*
D25*
X2819500Y-2524000D02*
X2832000Y-2536500D01*
D14*
X2832000Y-2449500D02*
X2824000Y-2441500D01*
X2832000Y-2536500D02*
X2832000Y-2485000D01*
X2832000Y-2485000D02*
X2832000Y-2449500D01*
X2799008Y-2452008D02*
X2814500Y-2467500D01*
X2814500Y-2467500D02*
X2832000Y-2485000D01*
X2734000Y-2417500D02*
X2716500Y-2435000D01*
X2740000Y-2417500D02*
X2734000Y-2417500D01*
X2749000Y-2467500D02*
X2716500Y-2435000D01*
X2814500Y-2467500D02*
X2749000Y-2467500D01*
G04 #@! TO.N,/TOUCH_2*
X2760356Y-2267499D02*
X2757746Y-2267499D01*
X2820000Y-2330000D02*
X2820000Y-2327143D01*
X2850000Y-2362500D02*
X2820000Y-2330000D01*
X2780000Y-2290000D02*
X2850000Y-2362500D01*
X2810000Y-2320000D02*
X2850000Y-2362500D01*
X2820000Y-2327143D02*
X2760356Y-2267499D01*
D25*
X2850000Y-2362500D02*
X2781500Y-2291500D01*
D14*
X2690000Y-2298500D02*
X2765000Y-2298500D01*
X2765000Y-2298500D02*
X2795000Y-2328500D01*
X2554714Y-2135286D02*
X2520000Y-2170000D01*
X2554714Y-2125000D02*
X2554714Y-2135286D01*
X2576715Y-2102999D02*
X2554714Y-2125000D01*
X2680285Y-2102999D02*
X2576715Y-2102999D01*
X2707000Y-2129715D02*
X2680285Y-2102999D01*
X2707000Y-2250000D02*
X2707000Y-2129715D01*
X2690000Y-2267000D02*
X2707000Y-2250000D01*
X2690000Y-2298500D02*
X2690000Y-2267000D01*
D25*
G04 #@! TO.N,/TOUCH_3*
X2764643Y-2062500D02*
X2770000Y-2057143D01*
D14*
X2810000Y-2027500D02*
X2770000Y-2057143D01*
D25*
X2775000Y-2062500D02*
X2810000Y-2027500D01*
D14*
X2520000Y-2130000D02*
X2568000Y-2082000D01*
X2783500Y-2054000D02*
X2810000Y-2027500D01*
X2732500Y-2054000D02*
X2783500Y-2054000D01*
X2726000Y-2082000D02*
X2689000Y-2082000D01*
X2732500Y-2075500D02*
X2726000Y-2082000D01*
X2732500Y-2054000D02*
X2732500Y-2075500D01*
X2568000Y-2082000D02*
X2689000Y-2082000D01*
X2689000Y-2082000D02*
X2714000Y-2082000D01*
G04 #@! TO.N,/LED_B*
X2677000Y-2158000D02*
X2673000Y-2158000D01*
X2677000Y-2128000D02*
X2677000Y-2158000D01*
X2575000Y-2133000D02*
X2585000Y-2123000D01*
X2575000Y-2155000D02*
X2575000Y-2133000D01*
X2520000Y-2210000D02*
X2575000Y-2155000D01*
X2672000Y-2123000D02*
X2677000Y-2128000D01*
X2585000Y-2123000D02*
X2672000Y-2123000D01*
G04 #@! TO.N,/LED_G*
X2557000Y-2253000D02*
X2520000Y-2290000D01*
X2677000Y-2218000D02*
X2677000Y-2225000D01*
X2667000Y-2253000D02*
X2557000Y-2253000D01*
X2672000Y-2248000D02*
X2667000Y-2253000D01*
X2672000Y-2218000D02*
X2672000Y-2248000D01*
G04 #@! TO.N,/LED_R*
X2552000Y-2218000D02*
X2535000Y-2235000D01*
X2617000Y-2218000D02*
X2552000Y-2218000D01*
X2520000Y-2250000D02*
X2535000Y-2235000D01*
D26*
G04 #@! TO.N,/USB_P*
X1920000Y-2188000D02*
X1990000Y-2188000D01*
D14*
X2105000Y-2102500D02*
X2098000Y-2102500D01*
X2105000Y-2102500D02*
X2105000Y-2129500D01*
X1998500Y-2179500D02*
X1990000Y-2188000D01*
X1910000Y-2174427D02*
X1910000Y-2188000D01*
X2017500Y-2180000D02*
X1910000Y-2174427D01*
X2073500Y-2134000D02*
X2073500Y-2185000D01*
X2105000Y-2102500D02*
X2073500Y-2134000D01*
X2022500Y-2185000D02*
X2017500Y-2180000D01*
X2073500Y-2185000D02*
X2022500Y-2185000D01*
G04 #@! TO.N,/USB_N*
X1845000Y-2183000D02*
X1840000Y-2188000D01*
X1840000Y-2180000D02*
X1840000Y-2188000D01*
X1977500Y-2097500D02*
X1902500Y-2097500D01*
X1850000Y-2150000D02*
X1850000Y-2188000D01*
X1902500Y-2097500D02*
X1850000Y-2150000D01*
X1900000Y-2100000D02*
X1902500Y-2097500D01*
X1905000Y-2117500D02*
X1900000Y-2100000D01*
D26*
G04 #@! TO.N,Net-(U7-Pad1)*
X2295000Y-1785000D02*
X2272500Y-1807500D01*
X2277500Y-1795000D02*
X2272500Y-1800000D01*
G04 #@! TD*
D27*
G04 #@! TO.N,/TOUCH_4*
G36*
X2944053Y-1727764D02*
X2945815Y-1733933D01*
X2947391Y-1740234D01*
X2947391Y-1740235D01*
X2949506Y-1748694D01*
X2950319Y-1756011D01*
X2950337Y-1756836D01*
X2950484Y-1757495D01*
X2950558Y-1758166D01*
X2950807Y-1758952D01*
X2952381Y-1766033D01*
X2952391Y-1766235D01*
X2952706Y-1767494D01*
X2952987Y-1768758D01*
X2953068Y-1768942D01*
X2954666Y-1775335D01*
X2956334Y-1783673D01*
X2956337Y-1783836D01*
X2956627Y-1785140D01*
X2956889Y-1786448D01*
X2956951Y-1786599D01*
X2958466Y-1793413D01*
X2959301Y-1801767D01*
X2959302Y-1802513D01*
X2959449Y-1803252D01*
X2959524Y-1804002D01*
X2959742Y-1804715D01*
X2961302Y-1812513D01*
X2963449Y-1823252D01*
X2964288Y-1831634D01*
X2964277Y-1832246D01*
X2964436Y-1833119D01*
X2964524Y-1834002D01*
X2964703Y-1834588D01*
X2966436Y-1844120D01*
X2967288Y-1852634D01*
X2967277Y-1853246D01*
X2967436Y-1854119D01*
X2967524Y-1855002D01*
X2967703Y-1855588D01*
X2969424Y-1865052D01*
X2970357Y-1875318D01*
X2971290Y-1886508D01*
X2971277Y-1887246D01*
X2971414Y-1887995D01*
X2971477Y-1888754D01*
X2971681Y-1889464D01*
X2973414Y-1898996D01*
X2974477Y-1911754D01*
X2974477Y-1911754D01*
X2974939Y-1917300D01*
X2815200Y-1917300D01*
X2815200Y-1725200D01*
X2943091Y-1725200D01*
X2944053Y-1727764D01*
X2944053Y-1727764D01*
G37*
X2944053Y-1727764D02*
X2945815Y-1733933D01*
X2947391Y-1740234D01*
X2947391Y-1740235D01*
X2949506Y-1748694D01*
X2950319Y-1756011D01*
X2950337Y-1756836D01*
X2950484Y-1757495D01*
X2950558Y-1758166D01*
X2950807Y-1758952D01*
X2952381Y-1766033D01*
X2952391Y-1766235D01*
X2952706Y-1767494D01*
X2952987Y-1768758D01*
X2953068Y-1768942D01*
X2954666Y-1775335D01*
X2956334Y-1783673D01*
X2956337Y-1783836D01*
X2956627Y-1785140D01*
X2956889Y-1786448D01*
X2956951Y-1786599D01*
X2958466Y-1793413D01*
X2959301Y-1801767D01*
X2959302Y-1802513D01*
X2959449Y-1803252D01*
X2959524Y-1804002D01*
X2959742Y-1804715D01*
X2961302Y-1812513D01*
X2963449Y-1823252D01*
X2964288Y-1831634D01*
X2964277Y-1832246D01*
X2964436Y-1833119D01*
X2964524Y-1834002D01*
X2964703Y-1834588D01*
X2966436Y-1844120D01*
X2967288Y-1852634D01*
X2967277Y-1853246D01*
X2967436Y-1854119D01*
X2967524Y-1855002D01*
X2967703Y-1855588D01*
X2969424Y-1865052D01*
X2970357Y-1875318D01*
X2971290Y-1886508D01*
X2971277Y-1887246D01*
X2971414Y-1887995D01*
X2971477Y-1888754D01*
X2971681Y-1889464D01*
X2973414Y-1898996D01*
X2974477Y-1911754D01*
X2974477Y-1911754D01*
X2974939Y-1917300D01*
X2815200Y-1917300D01*
X2815200Y-1725200D01*
X2943091Y-1725200D01*
X2944053Y-1727764D01*
G04 #@! TO.N,/TOUCH_2*
G36*
X2987300Y-2217366D02*
X2987300Y-2233417D01*
X2986414Y-2244928D01*
X2986300Y-2245503D01*
X2986300Y-2246416D01*
X2986230Y-2247326D01*
X2986300Y-2247909D01*
X2986300Y-2273417D01*
X2985414Y-2284928D01*
X2985300Y-2285503D01*
X2985300Y-2286416D01*
X2985230Y-2287326D01*
X2985300Y-2287909D01*
X2985300Y-2300417D01*
X2984356Y-2312682D01*
X2983414Y-2324928D01*
X2983300Y-2325503D01*
X2983300Y-2326416D01*
X2983230Y-2327326D01*
X2983300Y-2327909D01*
X2983300Y-2339417D01*
X2982348Y-2351786D01*
X2981473Y-2362295D01*
X2981460Y-2362342D01*
X2981348Y-2363790D01*
X2981228Y-2365229D01*
X2981234Y-2365277D01*
X2980348Y-2376786D01*
X2979473Y-2387295D01*
X2979460Y-2387342D01*
X2979348Y-2388790D01*
X2979228Y-2390229D01*
X2979234Y-2390277D01*
X2979109Y-2391897D01*
X2758809Y-2390064D01*
X2758523Y-2389778D01*
X2746504Y-2384800D01*
X2739700Y-2384800D01*
X2739700Y-2244863D01*
X2741421Y-2247438D01*
X2745062Y-2251080D01*
X2772638Y-2269505D01*
X2777397Y-2271476D01*
X2801274Y-2276226D01*
X2804121Y-2290536D01*
X2805551Y-2293989D01*
X2806092Y-2295295D01*
X2819098Y-2314760D01*
X2820996Y-2316658D01*
X2822740Y-2318402D01*
X2842205Y-2331408D01*
X2846964Y-2333379D01*
X2869925Y-2337946D01*
X2875075Y-2337946D01*
X2898036Y-2333379D01*
X2902794Y-2331408D01*
X2922260Y-2318402D01*
X2925902Y-2314760D01*
X2938908Y-2295295D01*
X2940879Y-2290536D01*
X2945446Y-2267575D01*
X2945446Y-2267575D01*
X2945700Y-2266300D01*
X2945700Y-2217020D01*
X2987300Y-2217366D01*
X2987300Y-2217366D01*
G37*
X2987300Y-2217366D02*
X2987300Y-2233417D01*
X2986414Y-2244928D01*
X2986300Y-2245503D01*
X2986300Y-2246416D01*
X2986230Y-2247326D01*
X2986300Y-2247909D01*
X2986300Y-2273417D01*
X2985414Y-2284928D01*
X2985300Y-2285503D01*
X2985300Y-2286416D01*
X2985230Y-2287326D01*
X2985300Y-2287909D01*
X2985300Y-2300417D01*
X2984356Y-2312682D01*
X2983414Y-2324928D01*
X2983300Y-2325503D01*
X2983300Y-2326416D01*
X2983230Y-2327326D01*
X2983300Y-2327909D01*
X2983300Y-2339417D01*
X2982348Y-2351786D01*
X2981473Y-2362295D01*
X2981460Y-2362342D01*
X2981348Y-2363790D01*
X2981228Y-2365229D01*
X2981234Y-2365277D01*
X2980348Y-2376786D01*
X2979473Y-2387295D01*
X2979460Y-2387342D01*
X2979348Y-2388790D01*
X2979228Y-2390229D01*
X2979234Y-2390277D01*
X2979109Y-2391897D01*
X2758809Y-2390064D01*
X2758523Y-2389778D01*
X2746504Y-2384800D01*
X2739700Y-2384800D01*
X2739700Y-2244863D01*
X2741421Y-2247438D01*
X2745062Y-2251080D01*
X2772638Y-2269505D01*
X2777397Y-2271476D01*
X2801274Y-2276226D01*
X2804121Y-2290536D01*
X2805551Y-2293989D01*
X2806092Y-2295295D01*
X2819098Y-2314760D01*
X2820996Y-2316658D01*
X2822740Y-2318402D01*
X2842205Y-2331408D01*
X2846964Y-2333379D01*
X2869925Y-2337946D01*
X2875075Y-2337946D01*
X2898036Y-2333379D01*
X2902794Y-2331408D01*
X2922260Y-2318402D01*
X2925902Y-2314760D01*
X2938908Y-2295295D01*
X2940879Y-2290536D01*
X2945446Y-2267575D01*
X2945446Y-2267575D01*
X2945700Y-2266300D01*
X2945700Y-2217020D01*
X2987300Y-2217366D01*
G04 #@! TO.N,/TOUCH_1*
G36*
X2974477Y-2448246D02*
X2974477Y-2448246D01*
X2973414Y-2461004D01*
X2971681Y-2470536D01*
X2971477Y-2471246D01*
X2971414Y-2472005D01*
X2971277Y-2472754D01*
X2971290Y-2473492D01*
X2970357Y-2484682D01*
X2969424Y-2494948D01*
X2967703Y-2504412D01*
X2967524Y-2504998D01*
X2967436Y-2505881D01*
X2967277Y-2506754D01*
X2967288Y-2507366D01*
X2966436Y-2515880D01*
X2964703Y-2525412D01*
X2964524Y-2525998D01*
X2964436Y-2526881D01*
X2964277Y-2527754D01*
X2964288Y-2528366D01*
X2963449Y-2536748D01*
X2961889Y-2544552D01*
X2959742Y-2555285D01*
X2959524Y-2555998D01*
X2959449Y-2556748D01*
X2959302Y-2557487D01*
X2959301Y-2558233D01*
X2958466Y-2566587D01*
X2956951Y-2573401D01*
X2956889Y-2573552D01*
X2956627Y-2574860D01*
X2956337Y-2576164D01*
X2956334Y-2576327D01*
X2954666Y-2584665D01*
X2953068Y-2591058D01*
X2952987Y-2591242D01*
X2952706Y-2592506D01*
X2952391Y-2593765D01*
X2952381Y-2593967D01*
X2950807Y-2601048D01*
X2950558Y-2601834D01*
X2950484Y-2602505D01*
X2950337Y-2603164D01*
X2950319Y-2603989D01*
X2949506Y-2611306D01*
X2948117Y-2616862D01*
X2945815Y-2626067D01*
X2944053Y-2632236D01*
X2943091Y-2634800D01*
X2862474Y-2634800D01*
X2858818Y-2616420D01*
X2858714Y-2616169D01*
X2857827Y-2614027D01*
X2856549Y-2610941D01*
X2856548Y-2610940D01*
X2839207Y-2584987D01*
X2839207Y-2584987D01*
X2835013Y-2580793D01*
X2809060Y-2563452D01*
X2809059Y-2563451D01*
X2806320Y-2562317D01*
X2803580Y-2561182D01*
X2803580Y-2561182D01*
X2772966Y-2555092D01*
X2772965Y-2555092D01*
X2772700Y-2555092D01*
X2772700Y-2445200D01*
X2974731Y-2445200D01*
X2974477Y-2448246D01*
X2974477Y-2448246D01*
G37*
X2974477Y-2448246D02*
X2974477Y-2448246D01*
X2973414Y-2461004D01*
X2971681Y-2470536D01*
X2971477Y-2471246D01*
X2971414Y-2472005D01*
X2971277Y-2472754D01*
X2971290Y-2473492D01*
X2970357Y-2484682D01*
X2969424Y-2494948D01*
X2967703Y-2504412D01*
X2967524Y-2504998D01*
X2967436Y-2505881D01*
X2967277Y-2506754D01*
X2967288Y-2507366D01*
X2966436Y-2515880D01*
X2964703Y-2525412D01*
X2964524Y-2525998D01*
X2964436Y-2526881D01*
X2964277Y-2527754D01*
X2964288Y-2528366D01*
X2963449Y-2536748D01*
X2961889Y-2544552D01*
X2959742Y-2555285D01*
X2959524Y-2555998D01*
X2959449Y-2556748D01*
X2959302Y-2557487D01*
X2959301Y-2558233D01*
X2958466Y-2566587D01*
X2956951Y-2573401D01*
X2956889Y-2573552D01*
X2956627Y-2574860D01*
X2956337Y-2576164D01*
X2956334Y-2576327D01*
X2954666Y-2584665D01*
X2953068Y-2591058D01*
X2952987Y-2591242D01*
X2952706Y-2592506D01*
X2952391Y-2593765D01*
X2952381Y-2593967D01*
X2950807Y-2601048D01*
X2950558Y-2601834D01*
X2950484Y-2602505D01*
X2950337Y-2603164D01*
X2950319Y-2603989D01*
X2949506Y-2611306D01*
X2948117Y-2616862D01*
X2945815Y-2626067D01*
X2944053Y-2632236D01*
X2943091Y-2634800D01*
X2862474Y-2634800D01*
X2858818Y-2616420D01*
X2858714Y-2616169D01*
X2857827Y-2614027D01*
X2856549Y-2610941D01*
X2856548Y-2610940D01*
X2839207Y-2584987D01*
X2839207Y-2584987D01*
X2835013Y-2580793D01*
X2809060Y-2563452D01*
X2809059Y-2563451D01*
X2806320Y-2562317D01*
X2803580Y-2561182D01*
X2803580Y-2561182D01*
X2772966Y-2555092D01*
X2772965Y-2555092D01*
X2772700Y-2555092D01*
X2772700Y-2445200D01*
X2974731Y-2445200D01*
X2974477Y-2448246D01*
D14*
G04 #@! TO.N,+5V*
G36*
X1895000Y-1764689D02*
X1894147Y-1764858D01*
X1889186Y-1768173D01*
X1848173Y-1809186D01*
X1844858Y-1814147D01*
X1843694Y-1820000D01*
X1844858Y-1825853D01*
X1848173Y-1830814D01*
X1889186Y-1871826D01*
X1894147Y-1875142D01*
X1895000Y-1875311D01*
X1895000Y-1914689D01*
X1894147Y-1914858D01*
X1889186Y-1918173D01*
X1848173Y-1959186D01*
X1844858Y-1964147D01*
X1843694Y-1970000D01*
X1844033Y-1971706D01*
X1834000Y-1971706D01*
X1828147Y-1972870D01*
X1823186Y-1976186D01*
X1819870Y-1981147D01*
X1818706Y-1987000D01*
X1818706Y-2018000D01*
X1819870Y-2023853D01*
X1823186Y-2028814D01*
X1828147Y-2032130D01*
X1834000Y-2033294D01*
X1857637Y-2033294D01*
X1837563Y-2053368D01*
X1835476Y-2054762D01*
X1834082Y-2056849D01*
X1834082Y-2056849D01*
X1829951Y-2063032D01*
X1828172Y-2071972D01*
X1823806Y-2076339D01*
X1820000Y-2085527D01*
X1820000Y-2095473D01*
X1823806Y-2104661D01*
X1826908Y-2107763D01*
X1828308Y-2114803D01*
X1832870Y-2121630D01*
X1839697Y-2126192D01*
X1844557Y-2127159D01*
X1837251Y-2134465D01*
X1835581Y-2135581D01*
X1831160Y-2142197D01*
X1830087Y-2147593D01*
X1829608Y-2150000D01*
X1829978Y-2151860D01*
X1822115Y-2157115D01*
X1816632Y-2165321D01*
X1815000Y-2173523D01*
X1813368Y-2165321D01*
X1807885Y-2157115D01*
X1799679Y-2151632D01*
X1790000Y-2149706D01*
X1770000Y-2149706D01*
X1760320Y-2151632D01*
X1752115Y-2157115D01*
X1746632Y-2165321D01*
X1745381Y-2171607D01*
X1745000Y-2172527D01*
X1745000Y-2173523D01*
X1744706Y-2175000D01*
X1744706Y-2201000D01*
X1746632Y-2210680D01*
X1752115Y-2218885D01*
X1753783Y-2220000D01*
X1752115Y-2221115D01*
X1749264Y-2225380D01*
X1748806Y-2225839D01*
X1748558Y-2226438D01*
X1746632Y-2229321D01*
X1745955Y-2232721D01*
X1745000Y-2235027D01*
X1745000Y-2237523D01*
X1744706Y-2239000D01*
X1744706Y-2265000D01*
X1746632Y-2274680D01*
X1752115Y-2282885D01*
X1760320Y-2288368D01*
X1770000Y-2290294D01*
X1788999Y-2290294D01*
X1788999Y-2422244D01*
X1788607Y-2424214D01*
X1789858Y-2430503D01*
X1790159Y-2432017D01*
X1794580Y-2438633D01*
X1796250Y-2439749D01*
X1809251Y-2452750D01*
X1810367Y-2454420D01*
X1812037Y-2455536D01*
X1816982Y-2458841D01*
X1824786Y-2460393D01*
X1826756Y-2460001D01*
X1841845Y-2460001D01*
X1841632Y-2460321D01*
X1839706Y-2470000D01*
X1839706Y-2483530D01*
X1839314Y-2485500D01*
X1839706Y-2487470D01*
X1839706Y-2496000D01*
X1841632Y-2505680D01*
X1847115Y-2513885D01*
X1848783Y-2515000D01*
X1847115Y-2516115D01*
X1846523Y-2517000D01*
X1833477Y-2517000D01*
X1832885Y-2516115D01*
X1824679Y-2510632D01*
X1815000Y-2508706D01*
X1795000Y-2508706D01*
X1785320Y-2510632D01*
X1777115Y-2516115D01*
X1771632Y-2524321D01*
X1769706Y-2534000D01*
X1769706Y-2534340D01*
X1767031Y-2538344D01*
X1764314Y-2552000D01*
X1767031Y-2565656D01*
X1774766Y-2577234D01*
X1786344Y-2584969D01*
X1796553Y-2587000D01*
X1860642Y-2587000D01*
X1861344Y-2587469D01*
X1875000Y-2590186D01*
X1875275Y-2590131D01*
X1895000Y-2609855D01*
X1895000Y-2642500D01*
X1753239Y-2642500D01*
X1736292Y-2639129D01*
X1722552Y-2629948D01*
X1713371Y-2616208D01*
X1710000Y-2599261D01*
X1710000Y-1988500D01*
X1738706Y-1988500D01*
X1738706Y-2014500D01*
X1740632Y-2024179D01*
X1746115Y-2032385D01*
X1754320Y-2037868D01*
X1764000Y-2039794D01*
X1774529Y-2039794D01*
X1775027Y-2040000D01*
X1784973Y-2040000D01*
X1786829Y-2039231D01*
X1793679Y-2037868D01*
X1801885Y-2032385D01*
X1807368Y-2024179D01*
X1809294Y-2014500D01*
X1809294Y-1988500D01*
X1807368Y-1978820D01*
X1801885Y-1970615D01*
X1793679Y-1965132D01*
X1784000Y-1963206D01*
X1771678Y-1963206D01*
X1769973Y-1962500D01*
X1760027Y-1962500D01*
X1750839Y-1966306D01*
X1747366Y-1969778D01*
X1746115Y-1970615D01*
X1745278Y-1971866D01*
X1743806Y-1973339D01*
X1743009Y-1975262D01*
X1740632Y-1978820D01*
X1738706Y-1988500D01*
X1710000Y-1988500D01*
X1710000Y-1773500D01*
X1738706Y-1773500D01*
X1738706Y-1799500D01*
X1740632Y-1809179D01*
X1746115Y-1817385D01*
X1754320Y-1822868D01*
X1764000Y-1824794D01*
X1784000Y-1824794D01*
X1793679Y-1822868D01*
X1801885Y-1817385D01*
X1807368Y-1809179D01*
X1808782Y-1802073D01*
X1810194Y-1800661D01*
X1814000Y-1791473D01*
X1814000Y-1781527D01*
X1810194Y-1772339D01*
X1808782Y-1770926D01*
X1807368Y-1763820D01*
X1801885Y-1755615D01*
X1793679Y-1750132D01*
X1784000Y-1748206D01*
X1764000Y-1748206D01*
X1754320Y-1750132D01*
X1746115Y-1755615D01*
X1740632Y-1763820D01*
X1738706Y-1773500D01*
X1710000Y-1773500D01*
X1710000Y-1760739D01*
X1713371Y-1743792D01*
X1722552Y-1730052D01*
X1736292Y-1720871D01*
X1753239Y-1717500D01*
X1895000Y-1717500D01*
X1895000Y-1764689D01*
X1895000Y-1764689D01*
G37*
X1895000Y-1764689D02*
X1894147Y-1764858D01*
X1889186Y-1768173D01*
X1848173Y-1809186D01*
X1844858Y-1814147D01*
X1843694Y-1820000D01*
X1844858Y-1825853D01*
X1848173Y-1830814D01*
X1889186Y-1871826D01*
X1894147Y-1875142D01*
X1895000Y-1875311D01*
X1895000Y-1914689D01*
X1894147Y-1914858D01*
X1889186Y-1918173D01*
X1848173Y-1959186D01*
X1844858Y-1964147D01*
X1843694Y-1970000D01*
X1844033Y-1971706D01*
X1834000Y-1971706D01*
X1828147Y-1972870D01*
X1823186Y-1976186D01*
X1819870Y-1981147D01*
X1818706Y-1987000D01*
X1818706Y-2018000D01*
X1819870Y-2023853D01*
X1823186Y-2028814D01*
X1828147Y-2032130D01*
X1834000Y-2033294D01*
X1857637Y-2033294D01*
X1837563Y-2053368D01*
X1835476Y-2054762D01*
X1834082Y-2056849D01*
X1834082Y-2056849D01*
X1829951Y-2063032D01*
X1828172Y-2071972D01*
X1823806Y-2076339D01*
X1820000Y-2085527D01*
X1820000Y-2095473D01*
X1823806Y-2104661D01*
X1826908Y-2107763D01*
X1828308Y-2114803D01*
X1832870Y-2121630D01*
X1839697Y-2126192D01*
X1844557Y-2127159D01*
X1837251Y-2134465D01*
X1835581Y-2135581D01*
X1831160Y-2142197D01*
X1830087Y-2147593D01*
X1829608Y-2150000D01*
X1829978Y-2151860D01*
X1822115Y-2157115D01*
X1816632Y-2165321D01*
X1815000Y-2173523D01*
X1813368Y-2165321D01*
X1807885Y-2157115D01*
X1799679Y-2151632D01*
X1790000Y-2149706D01*
X1770000Y-2149706D01*
X1760320Y-2151632D01*
X1752115Y-2157115D01*
X1746632Y-2165321D01*
X1745381Y-2171607D01*
X1745000Y-2172527D01*
X1745000Y-2173523D01*
X1744706Y-2175000D01*
X1744706Y-2201000D01*
X1746632Y-2210680D01*
X1752115Y-2218885D01*
X1753783Y-2220000D01*
X1752115Y-2221115D01*
X1749264Y-2225380D01*
X1748806Y-2225839D01*
X1748558Y-2226438D01*
X1746632Y-2229321D01*
X1745955Y-2232721D01*
X1745000Y-2235027D01*
X1745000Y-2237523D01*
X1744706Y-2239000D01*
X1744706Y-2265000D01*
X1746632Y-2274680D01*
X1752115Y-2282885D01*
X1760320Y-2288368D01*
X1770000Y-2290294D01*
X1788999Y-2290294D01*
X1788999Y-2422244D01*
X1788607Y-2424214D01*
X1789858Y-2430503D01*
X1790159Y-2432017D01*
X1794580Y-2438633D01*
X1796250Y-2439749D01*
X1809251Y-2452750D01*
X1810367Y-2454420D01*
X1812037Y-2455536D01*
X1816982Y-2458841D01*
X1824786Y-2460393D01*
X1826756Y-2460001D01*
X1841845Y-2460001D01*
X1841632Y-2460321D01*
X1839706Y-2470000D01*
X1839706Y-2483530D01*
X1839314Y-2485500D01*
X1839706Y-2487470D01*
X1839706Y-2496000D01*
X1841632Y-2505680D01*
X1847115Y-2513885D01*
X1848783Y-2515000D01*
X1847115Y-2516115D01*
X1846523Y-2517000D01*
X1833477Y-2517000D01*
X1832885Y-2516115D01*
X1824679Y-2510632D01*
X1815000Y-2508706D01*
X1795000Y-2508706D01*
X1785320Y-2510632D01*
X1777115Y-2516115D01*
X1771632Y-2524321D01*
X1769706Y-2534000D01*
X1769706Y-2534340D01*
X1767031Y-2538344D01*
X1764314Y-2552000D01*
X1767031Y-2565656D01*
X1774766Y-2577234D01*
X1786344Y-2584969D01*
X1796553Y-2587000D01*
X1860642Y-2587000D01*
X1861344Y-2587469D01*
X1875000Y-2590186D01*
X1875275Y-2590131D01*
X1895000Y-2609855D01*
X1895000Y-2642500D01*
X1753239Y-2642500D01*
X1736292Y-2639129D01*
X1722552Y-2629948D01*
X1713371Y-2616208D01*
X1710000Y-2599261D01*
X1710000Y-1988500D01*
X1738706Y-1988500D01*
X1738706Y-2014500D01*
X1740632Y-2024179D01*
X1746115Y-2032385D01*
X1754320Y-2037868D01*
X1764000Y-2039794D01*
X1774529Y-2039794D01*
X1775027Y-2040000D01*
X1784973Y-2040000D01*
X1786829Y-2039231D01*
X1793679Y-2037868D01*
X1801885Y-2032385D01*
X1807368Y-2024179D01*
X1809294Y-2014500D01*
X1809294Y-1988500D01*
X1807368Y-1978820D01*
X1801885Y-1970615D01*
X1793679Y-1965132D01*
X1784000Y-1963206D01*
X1771678Y-1963206D01*
X1769973Y-1962500D01*
X1760027Y-1962500D01*
X1750839Y-1966306D01*
X1747366Y-1969778D01*
X1746115Y-1970615D01*
X1745278Y-1971866D01*
X1743806Y-1973339D01*
X1743009Y-1975262D01*
X1740632Y-1978820D01*
X1738706Y-1988500D01*
X1710000Y-1988500D01*
X1710000Y-1773500D01*
X1738706Y-1773500D01*
X1738706Y-1799500D01*
X1740632Y-1809179D01*
X1746115Y-1817385D01*
X1754320Y-1822868D01*
X1764000Y-1824794D01*
X1784000Y-1824794D01*
X1793679Y-1822868D01*
X1801885Y-1817385D01*
X1807368Y-1809179D01*
X1808782Y-1802073D01*
X1810194Y-1800661D01*
X1814000Y-1791473D01*
X1814000Y-1781527D01*
X1810194Y-1772339D01*
X1808782Y-1770926D01*
X1807368Y-1763820D01*
X1801885Y-1755615D01*
X1793679Y-1750132D01*
X1784000Y-1748206D01*
X1764000Y-1748206D01*
X1754320Y-1750132D01*
X1746115Y-1755615D01*
X1740632Y-1763820D01*
X1738706Y-1773500D01*
X1710000Y-1773500D01*
X1710000Y-1760739D01*
X1713371Y-1743792D01*
X1722552Y-1730052D01*
X1736292Y-1720871D01*
X1753239Y-1717500D01*
X1895000Y-1717500D01*
X1895000Y-1764689D01*
G36*
X1886632Y-2274680D02*
X1890000Y-2279721D01*
X1890000Y-2305029D01*
X1889608Y-2306999D01*
X1890979Y-2313889D01*
X1890000Y-2313694D01*
X1884147Y-2314858D01*
X1879186Y-2318174D01*
X1838173Y-2359186D01*
X1834858Y-2364147D01*
X1833694Y-2370000D01*
X1834033Y-2371706D01*
X1828999Y-2371706D01*
X1828999Y-2291285D01*
X1831651Y-2288633D01*
X1840000Y-2290294D01*
X1860000Y-2290294D01*
X1869679Y-2288368D01*
X1877885Y-2282885D01*
X1883368Y-2274680D01*
X1885000Y-2266477D01*
X1886632Y-2274680D01*
X1886632Y-2274680D01*
G37*
X1886632Y-2274680D02*
X1890000Y-2279721D01*
X1890000Y-2305029D01*
X1889608Y-2306999D01*
X1890979Y-2313889D01*
X1890000Y-2313694D01*
X1884147Y-2314858D01*
X1879186Y-2318174D01*
X1838173Y-2359186D01*
X1834858Y-2364147D01*
X1833694Y-2370000D01*
X1834033Y-2371706D01*
X1828999Y-2371706D01*
X1828999Y-2291285D01*
X1831651Y-2288633D01*
X1840000Y-2290294D01*
X1860000Y-2290294D01*
X1869679Y-2288368D01*
X1877885Y-2282885D01*
X1883368Y-2274680D01*
X1885000Y-2266477D01*
X1886632Y-2274680D01*
D27*
G04 #@! TO.N,/TOUCH_3*
G36*
X2979234Y-1969723D02*
X2979228Y-1969771D01*
X2979348Y-1971210D01*
X2979460Y-1972658D01*
X2979473Y-1972705D01*
X2980348Y-1983214D01*
X2981234Y-1994723D01*
X2981228Y-1994771D01*
X2981348Y-1996210D01*
X2981460Y-1997658D01*
X2981473Y-1997705D01*
X2982348Y-2008214D01*
X2983300Y-2020583D01*
X2983300Y-2032091D01*
X2983230Y-2032674D01*
X2983300Y-2033584D01*
X2983300Y-2034496D01*
X2983414Y-2035072D01*
X2984230Y-2045673D01*
X2984230Y-2045674D01*
X2985300Y-2059583D01*
X2985300Y-2072091D01*
X2985230Y-2072674D01*
X2985300Y-2073584D01*
X2985300Y-2074496D01*
X2985414Y-2075072D01*
X2986300Y-2086583D01*
X2986300Y-2112091D01*
X2986230Y-2112674D01*
X2986300Y-2113584D01*
X2986300Y-2114497D01*
X2986414Y-2115072D01*
X2987300Y-2126583D01*
X2987300Y-2142300D01*
X2945700Y-2142300D01*
X2945700Y-2093700D01*
X2945446Y-2092425D01*
X2945446Y-2092425D01*
X2940879Y-2069464D01*
X2938908Y-2064705D01*
X2925902Y-2045240D01*
X2924164Y-2043502D01*
X2922260Y-2041598D01*
X2902794Y-2028592D01*
X2901812Y-2028185D01*
X2898036Y-2026621D01*
X2875075Y-2022054D01*
X2872500Y-2022054D01*
X2869925Y-2022054D01*
X2846964Y-2026621D01*
X2842205Y-2028592D01*
X2822740Y-2041598D01*
X2819098Y-2045240D01*
X2806092Y-2064705D01*
X2804121Y-2069464D01*
X2801274Y-2083774D01*
X2777700Y-2088463D01*
X2777700Y-1967700D01*
X2979078Y-1967700D01*
X2979234Y-1969723D01*
X2979234Y-1969723D01*
G37*
X2979234Y-1969723D02*
X2979228Y-1969771D01*
X2979348Y-1971210D01*
X2979460Y-1972658D01*
X2979473Y-1972705D01*
X2980348Y-1983214D01*
X2981234Y-1994723D01*
X2981228Y-1994771D01*
X2981348Y-1996210D01*
X2981460Y-1997658D01*
X2981473Y-1997705D01*
X2982348Y-2008214D01*
X2983300Y-2020583D01*
X2983300Y-2032091D01*
X2983230Y-2032674D01*
X2983300Y-2033584D01*
X2983300Y-2034496D01*
X2983414Y-2035072D01*
X2984230Y-2045673D01*
X2984230Y-2045674D01*
X2985300Y-2059583D01*
X2985300Y-2072091D01*
X2985230Y-2072674D01*
X2985300Y-2073584D01*
X2985300Y-2074496D01*
X2985414Y-2075072D01*
X2986300Y-2086583D01*
X2986300Y-2112091D01*
X2986230Y-2112674D01*
X2986300Y-2113584D01*
X2986300Y-2114497D01*
X2986414Y-2115072D01*
X2987300Y-2126583D01*
X2987300Y-2142300D01*
X2945700Y-2142300D01*
X2945700Y-2093700D01*
X2945446Y-2092425D01*
X2945446Y-2092425D01*
X2940879Y-2069464D01*
X2938908Y-2064705D01*
X2925902Y-2045240D01*
X2924164Y-2043502D01*
X2922260Y-2041598D01*
X2902794Y-2028592D01*
X2901812Y-2028185D01*
X2898036Y-2026621D01*
X2875075Y-2022054D01*
X2872500Y-2022054D01*
X2869925Y-2022054D01*
X2846964Y-2026621D01*
X2842205Y-2028592D01*
X2822740Y-2041598D01*
X2819098Y-2045240D01*
X2806092Y-2064705D01*
X2804121Y-2069464D01*
X2801274Y-2083774D01*
X2777700Y-2088463D01*
X2777700Y-1967700D01*
X2979078Y-1967700D01*
X2979234Y-1969723D01*
G04 #@! TO.N,GND*
G36*
X2654055Y-2281693D02*
X2651855Y-2292750D01*
X2651855Y-2304250D01*
X2654055Y-2315308D01*
X2660318Y-2324682D01*
X2669693Y-2330945D01*
X2680750Y-2333145D01*
X2699250Y-2333145D01*
X2704300Y-2332140D01*
X2704300Y-2398138D01*
X2699693Y-2399055D01*
X2690318Y-2405318D01*
X2684055Y-2414693D01*
X2681855Y-2425750D01*
X2681855Y-2444250D01*
X2684055Y-2455308D01*
X2688727Y-2462300D01*
X2681023Y-2462300D01*
X2659816Y-2471084D01*
X2643584Y-2487316D01*
X2634800Y-2508523D01*
X2634800Y-2531477D01*
X2643584Y-2552684D01*
X2659816Y-2568916D01*
X2681023Y-2577700D01*
X2703977Y-2577700D01*
X2718813Y-2571555D01*
X2704987Y-2580793D01*
X2704987Y-2580793D01*
X2700793Y-2584987D01*
X2683452Y-2610940D01*
X2683451Y-2610941D01*
X2682316Y-2613680D01*
X2681182Y-2616420D01*
X2681182Y-2616420D01*
X2677526Y-2634800D01*
X1922700Y-2634800D01*
X1922700Y-2591198D01*
X1924882Y-2591632D01*
X1933496Y-2595200D01*
X1946504Y-2595200D01*
X1950259Y-2593645D01*
X1955000Y-2593645D01*
X1967684Y-2591122D01*
X1978437Y-2583937D01*
X1985622Y-2573184D01*
X1988145Y-2560500D01*
X1988145Y-2540509D01*
X1998248Y-2547260D01*
X2012750Y-2550145D01*
X2047250Y-2550145D01*
X2061752Y-2547260D01*
X2074046Y-2539046D01*
X2077951Y-2533200D01*
X2079205Y-2533200D01*
X2091661Y-2530723D01*
X2105785Y-2521285D01*
X2115223Y-2507161D01*
X2118537Y-2490500D01*
X2115223Y-2473839D01*
X2111685Y-2468545D01*
X2111443Y-2467962D01*
X2110803Y-2464741D01*
X2108978Y-2462011D01*
X2107722Y-2458977D01*
X2105400Y-2456655D01*
X2103575Y-2453925D01*
X2100845Y-2452100D01*
X2098523Y-2449778D01*
X2095489Y-2448522D01*
X2092759Y-2446697D01*
X2089538Y-2446057D01*
X2089240Y-2445933D01*
X2091158Y-2444016D01*
X2093470Y-2442471D01*
X2096658Y-2437700D01*
X2109504Y-2437700D01*
X2115500Y-2435217D01*
X2120372Y-2437235D01*
X2120530Y-2437471D01*
X2129692Y-2443593D01*
X2136867Y-2445020D01*
X2136117Y-2446143D01*
X2134355Y-2455000D01*
X2134355Y-2480000D01*
X2136117Y-2488857D01*
X2138551Y-2492500D01*
X2136117Y-2496143D01*
X2134355Y-2505000D01*
X2134355Y-2530000D01*
X2136117Y-2538857D01*
X2138551Y-2542500D01*
X2136117Y-2546143D01*
X2134355Y-2555000D01*
X2134355Y-2580000D01*
X2136117Y-2588857D01*
X2141134Y-2596366D01*
X2148643Y-2601383D01*
X2157500Y-2603145D01*
X2187500Y-2603145D01*
X2196357Y-2601383D01*
X2203866Y-2596366D01*
X2208883Y-2588857D01*
X2210645Y-2580000D01*
X2210645Y-2578529D01*
X2231474Y-2557700D01*
X2231504Y-2557700D01*
X2234800Y-2556335D01*
X2234800Y-2558955D01*
X2234778Y-2558977D01*
X2229800Y-2570996D01*
X2229800Y-2584004D01*
X2234778Y-2596023D01*
X2243977Y-2605222D01*
X2255996Y-2610200D01*
X2269004Y-2610200D01*
X2281023Y-2605222D01*
X2290222Y-2596023D01*
X2290378Y-2595645D01*
X2302500Y-2595645D01*
X2311357Y-2593883D01*
X2318866Y-2588866D01*
X2323883Y-2581357D01*
X2325645Y-2572500D01*
X2325645Y-2432079D01*
X2327278Y-2436023D01*
X2336477Y-2445222D01*
X2348496Y-2450200D01*
X2361504Y-2450200D01*
X2369273Y-2446982D01*
X2364778Y-2451477D01*
X2359800Y-2463496D01*
X2359800Y-2476504D01*
X2364778Y-2488523D01*
X2373977Y-2497722D01*
X2375664Y-2498421D01*
X2374355Y-2505000D01*
X2374355Y-2530000D01*
X2376117Y-2538857D01*
X2381134Y-2546366D01*
X2388643Y-2551383D01*
X2397500Y-2553145D01*
X2427500Y-2553145D01*
X2436357Y-2551383D01*
X2443866Y-2546366D01*
X2448800Y-2538981D01*
X2448800Y-2574130D01*
X2448258Y-2576857D01*
X2448800Y-2579585D01*
X2448800Y-2579585D01*
X2450407Y-2587665D01*
X2456530Y-2596828D01*
X2458842Y-2598373D01*
X2473128Y-2612659D01*
X2474674Y-2614972D01*
X2483836Y-2621094D01*
X2491916Y-2622701D01*
X2491917Y-2622701D01*
X2494644Y-2623244D01*
X2497371Y-2622701D01*
X2544272Y-2622701D01*
X2546999Y-2623244D01*
X2549727Y-2622701D01*
X2549727Y-2622701D01*
X2557807Y-2621094D01*
X2566970Y-2614972D01*
X2568515Y-2612659D01*
X2578029Y-2603145D01*
X2584207Y-2603145D01*
X2587166Y-2604371D01*
X2600175Y-2604371D01*
X2612194Y-2599392D01*
X2617570Y-2594016D01*
X2618437Y-2593437D01*
X2619016Y-2592570D01*
X2621392Y-2590194D01*
X2622678Y-2587089D01*
X2625622Y-2582684D01*
X2628145Y-2570000D01*
X2628145Y-2550000D01*
X2625622Y-2537316D01*
X2618437Y-2526563D01*
X2607684Y-2519378D01*
X2595000Y-2516855D01*
X2569000Y-2516855D01*
X2560700Y-2518506D01*
X2560700Y-2514063D01*
X2561622Y-2512684D01*
X2564145Y-2500000D01*
X2564145Y-2480000D01*
X2561622Y-2467316D01*
X2560700Y-2465937D01*
X2560700Y-2444063D01*
X2561622Y-2442684D01*
X2564145Y-2430000D01*
X2564145Y-2410000D01*
X2561622Y-2397316D01*
X2559603Y-2394295D01*
X2557723Y-2384841D01*
X2552551Y-2377101D01*
X2550222Y-2371477D01*
X2541023Y-2362278D01*
X2534742Y-2359677D01*
X2528162Y-2355280D01*
X2511501Y-2351966D01*
X2494840Y-2355280D01*
X2480716Y-2364717D01*
X2471279Y-2378842D01*
X2469907Y-2385737D01*
X2469800Y-2385996D01*
X2469800Y-2386275D01*
X2467965Y-2395502D01*
X2471264Y-2412091D01*
X2459016Y-2399842D01*
X2457471Y-2397530D01*
X2448308Y-2391407D01*
X2445322Y-2390813D01*
X2443866Y-2388634D01*
X2438360Y-2384956D01*
X2497658Y-2325658D01*
X2499971Y-2324113D01*
X2502585Y-2320200D01*
X2507460Y-2320200D01*
X2513496Y-2322700D01*
X2526504Y-2322700D01*
X2538523Y-2317722D01*
X2547722Y-2308523D01*
X2552700Y-2296504D01*
X2552700Y-2296474D01*
X2568474Y-2280700D01*
X2654718Y-2280700D01*
X2654055Y-2281693D01*
X2654055Y-2281693D01*
G37*
X2654055Y-2281693D02*
X2651855Y-2292750D01*
X2651855Y-2304250D01*
X2654055Y-2315308D01*
X2660318Y-2324682D01*
X2669693Y-2330945D01*
X2680750Y-2333145D01*
X2699250Y-2333145D01*
X2704300Y-2332140D01*
X2704300Y-2398138D01*
X2699693Y-2399055D01*
X2690318Y-2405318D01*
X2684055Y-2414693D01*
X2681855Y-2425750D01*
X2681855Y-2444250D01*
X2684055Y-2455308D01*
X2688727Y-2462300D01*
X2681023Y-2462300D01*
X2659816Y-2471084D01*
X2643584Y-2487316D01*
X2634800Y-2508523D01*
X2634800Y-2531477D01*
X2643584Y-2552684D01*
X2659816Y-2568916D01*
X2681023Y-2577700D01*
X2703977Y-2577700D01*
X2718813Y-2571555D01*
X2704987Y-2580793D01*
X2704987Y-2580793D01*
X2700793Y-2584987D01*
X2683452Y-2610940D01*
X2683451Y-2610941D01*
X2682316Y-2613680D01*
X2681182Y-2616420D01*
X2681182Y-2616420D01*
X2677526Y-2634800D01*
X1922700Y-2634800D01*
X1922700Y-2591198D01*
X1924882Y-2591632D01*
X1933496Y-2595200D01*
X1946504Y-2595200D01*
X1950259Y-2593645D01*
X1955000Y-2593645D01*
X1967684Y-2591122D01*
X1978437Y-2583937D01*
X1985622Y-2573184D01*
X1988145Y-2560500D01*
X1988145Y-2540509D01*
X1998248Y-2547260D01*
X2012750Y-2550145D01*
X2047250Y-2550145D01*
X2061752Y-2547260D01*
X2074046Y-2539046D01*
X2077951Y-2533200D01*
X2079205Y-2533200D01*
X2091661Y-2530723D01*
X2105785Y-2521285D01*
X2115223Y-2507161D01*
X2118537Y-2490500D01*
X2115223Y-2473839D01*
X2111685Y-2468545D01*
X2111443Y-2467962D01*
X2110803Y-2464741D01*
X2108978Y-2462011D01*
X2107722Y-2458977D01*
X2105400Y-2456655D01*
X2103575Y-2453925D01*
X2100845Y-2452100D01*
X2098523Y-2449778D01*
X2095489Y-2448522D01*
X2092759Y-2446697D01*
X2089538Y-2446057D01*
X2089240Y-2445933D01*
X2091158Y-2444016D01*
X2093470Y-2442471D01*
X2096658Y-2437700D01*
X2109504Y-2437700D01*
X2115500Y-2435217D01*
X2120372Y-2437235D01*
X2120530Y-2437471D01*
X2129692Y-2443593D01*
X2136867Y-2445020D01*
X2136117Y-2446143D01*
X2134355Y-2455000D01*
X2134355Y-2480000D01*
X2136117Y-2488857D01*
X2138551Y-2492500D01*
X2136117Y-2496143D01*
X2134355Y-2505000D01*
X2134355Y-2530000D01*
X2136117Y-2538857D01*
X2138551Y-2542500D01*
X2136117Y-2546143D01*
X2134355Y-2555000D01*
X2134355Y-2580000D01*
X2136117Y-2588857D01*
X2141134Y-2596366D01*
X2148643Y-2601383D01*
X2157500Y-2603145D01*
X2187500Y-2603145D01*
X2196357Y-2601383D01*
X2203866Y-2596366D01*
X2208883Y-2588857D01*
X2210645Y-2580000D01*
X2210645Y-2578529D01*
X2231474Y-2557700D01*
X2231504Y-2557700D01*
X2234800Y-2556335D01*
X2234800Y-2558955D01*
X2234778Y-2558977D01*
X2229800Y-2570996D01*
X2229800Y-2584004D01*
X2234778Y-2596023D01*
X2243977Y-2605222D01*
X2255996Y-2610200D01*
X2269004Y-2610200D01*
X2281023Y-2605222D01*
X2290222Y-2596023D01*
X2290378Y-2595645D01*
X2302500Y-2595645D01*
X2311357Y-2593883D01*
X2318866Y-2588866D01*
X2323883Y-2581357D01*
X2325645Y-2572500D01*
X2325645Y-2432079D01*
X2327278Y-2436023D01*
X2336477Y-2445222D01*
X2348496Y-2450200D01*
X2361504Y-2450200D01*
X2369273Y-2446982D01*
X2364778Y-2451477D01*
X2359800Y-2463496D01*
X2359800Y-2476504D01*
X2364778Y-2488523D01*
X2373977Y-2497722D01*
X2375664Y-2498421D01*
X2374355Y-2505000D01*
X2374355Y-2530000D01*
X2376117Y-2538857D01*
X2381134Y-2546366D01*
X2388643Y-2551383D01*
X2397500Y-2553145D01*
X2427500Y-2553145D01*
X2436357Y-2551383D01*
X2443866Y-2546366D01*
X2448800Y-2538981D01*
X2448800Y-2574130D01*
X2448258Y-2576857D01*
X2448800Y-2579585D01*
X2448800Y-2579585D01*
X2450407Y-2587665D01*
X2456530Y-2596828D01*
X2458842Y-2598373D01*
X2473128Y-2612659D01*
X2474674Y-2614972D01*
X2483836Y-2621094D01*
X2491916Y-2622701D01*
X2491917Y-2622701D01*
X2494644Y-2623244D01*
X2497371Y-2622701D01*
X2544272Y-2622701D01*
X2546999Y-2623244D01*
X2549727Y-2622701D01*
X2549727Y-2622701D01*
X2557807Y-2621094D01*
X2566970Y-2614972D01*
X2568515Y-2612659D01*
X2578029Y-2603145D01*
X2584207Y-2603145D01*
X2587166Y-2604371D01*
X2600175Y-2604371D01*
X2612194Y-2599392D01*
X2617570Y-2594016D01*
X2618437Y-2593437D01*
X2619016Y-2592570D01*
X2621392Y-2590194D01*
X2622678Y-2587089D01*
X2625622Y-2582684D01*
X2628145Y-2570000D01*
X2628145Y-2550000D01*
X2625622Y-2537316D01*
X2618437Y-2526563D01*
X2607684Y-2519378D01*
X2595000Y-2516855D01*
X2569000Y-2516855D01*
X2560700Y-2518506D01*
X2560700Y-2514063D01*
X2561622Y-2512684D01*
X2564145Y-2500000D01*
X2564145Y-2480000D01*
X2561622Y-2467316D01*
X2560700Y-2465937D01*
X2560700Y-2444063D01*
X2561622Y-2442684D01*
X2564145Y-2430000D01*
X2564145Y-2410000D01*
X2561622Y-2397316D01*
X2559603Y-2394295D01*
X2557723Y-2384841D01*
X2552551Y-2377101D01*
X2550222Y-2371477D01*
X2541023Y-2362278D01*
X2534742Y-2359677D01*
X2528162Y-2355280D01*
X2511501Y-2351966D01*
X2494840Y-2355280D01*
X2480716Y-2364717D01*
X2471279Y-2378842D01*
X2469907Y-2385737D01*
X2469800Y-2385996D01*
X2469800Y-2386275D01*
X2467965Y-2395502D01*
X2471264Y-2412091D01*
X2459016Y-2399842D01*
X2457471Y-2397530D01*
X2448308Y-2391407D01*
X2445322Y-2390813D01*
X2443866Y-2388634D01*
X2438360Y-2384956D01*
X2497658Y-2325658D01*
X2499971Y-2324113D01*
X2502585Y-2320200D01*
X2507460Y-2320200D01*
X2513496Y-2322700D01*
X2526504Y-2322700D01*
X2538523Y-2317722D01*
X2547722Y-2308523D01*
X2552700Y-2296504D01*
X2552700Y-2296474D01*
X2568474Y-2280700D01*
X2654718Y-2280700D01*
X2654055Y-2281693D01*
G36*
X1926651Y-2375294D02*
X1938496Y-2380200D01*
X1943301Y-2380200D01*
X1943301Y-2390774D01*
X1942758Y-2393501D01*
X1943301Y-2396229D01*
X1943301Y-2396229D01*
X1944908Y-2404309D01*
X1947184Y-2407715D01*
X1946758Y-2409857D01*
X1947244Y-2412301D01*
X1922700Y-2412301D01*
X1922700Y-2374508D01*
X1926651Y-2375294D01*
X1926651Y-2375294D01*
G37*
X1926651Y-2375294D02*
X1938496Y-2380200D01*
X1943301Y-2380200D01*
X1943301Y-2390774D01*
X1942758Y-2393501D01*
X1943301Y-2396229D01*
X1943301Y-2396229D01*
X1944908Y-2404309D01*
X1947184Y-2407715D01*
X1946758Y-2409857D01*
X1947244Y-2412301D01*
X1922700Y-2412301D01*
X1922700Y-2374508D01*
X1926651Y-2375294D01*
G36*
X2005000Y-2373645D02*
X2022301Y-2373645D01*
X2022301Y-2401801D01*
X2006118Y-2401801D01*
X2003006Y-2398689D01*
X2003243Y-2397500D01*
X2002700Y-2394773D01*
X2002700Y-2394772D01*
X2001093Y-2386692D01*
X1998701Y-2383113D01*
X1998701Y-2372392D01*
X2005000Y-2373645D01*
X2005000Y-2373645D01*
G37*
X2005000Y-2373645D02*
X2022301Y-2373645D01*
X2022301Y-2401801D01*
X2006118Y-2401801D01*
X2003006Y-2398689D01*
X2003243Y-2397500D01*
X2002700Y-2394773D01*
X2002700Y-2394772D01*
X2001093Y-2386692D01*
X1998701Y-2383113D01*
X1998701Y-2372392D01*
X2005000Y-2373645D01*
G36*
X2257316Y-2274122D02*
X2270000Y-2276645D01*
X2290000Y-2276645D01*
X2297663Y-2275121D01*
X2297300Y-2275996D01*
X2297300Y-2289004D01*
X2302278Y-2301023D01*
X2311477Y-2310222D01*
X2315262Y-2311790D01*
X2315160Y-2312301D01*
X2197700Y-2312301D01*
X2197700Y-2276187D01*
X2200000Y-2276645D01*
X2220000Y-2276645D01*
X2232684Y-2274122D01*
X2234063Y-2273200D01*
X2255937Y-2273200D01*
X2257316Y-2274122D01*
X2257316Y-2274122D01*
G37*
X2257316Y-2274122D02*
X2270000Y-2276645D01*
X2290000Y-2276645D01*
X2297663Y-2275121D01*
X2297300Y-2275996D01*
X2297300Y-2289004D01*
X2302278Y-2301023D01*
X2311477Y-2310222D01*
X2315262Y-2311790D01*
X2315160Y-2312301D01*
X2197700Y-2312301D01*
X2197700Y-2276187D01*
X2200000Y-2276645D01*
X2220000Y-2276645D01*
X2232684Y-2274122D01*
X2234063Y-2273200D01*
X2255937Y-2273200D01*
X2257316Y-2274122D01*
G36*
X2276300Y-1917004D02*
X2281278Y-1929023D01*
X2290477Y-1938222D01*
X2302496Y-1943200D01*
X2309300Y-1943200D01*
X2309300Y-2064272D01*
X2308758Y-2067000D01*
X2310907Y-2077808D01*
X2315061Y-2084025D01*
X2317030Y-2086970D01*
X2319342Y-2088516D01*
X2327300Y-2096474D01*
X2327300Y-2096504D01*
X2332278Y-2108523D01*
X2333755Y-2110000D01*
X2332278Y-2111477D01*
X2327300Y-2123496D01*
X2327300Y-2124115D01*
X2323907Y-2129192D01*
X2323762Y-2129921D01*
X2321964Y-2131719D01*
X2317722Y-2121477D01*
X2308523Y-2112278D01*
X2296504Y-2107300D01*
X2283496Y-2107300D01*
X2280948Y-2108355D01*
X2279052Y-2108355D01*
X2276504Y-2107300D01*
X2263496Y-2107300D01*
X2251477Y-2112278D01*
X2245000Y-2118755D01*
X2238523Y-2112278D01*
X2226504Y-2107300D01*
X2213496Y-2107300D01*
X2210948Y-2108355D01*
X2209052Y-2108355D01*
X2206504Y-2107300D01*
X2193496Y-2107300D01*
X2181477Y-2112278D01*
X2172278Y-2121477D01*
X2167300Y-2133496D01*
X2167300Y-2139264D01*
X2166855Y-2141500D01*
X2166855Y-2167500D01*
X2166938Y-2167914D01*
X2160030Y-2172530D01*
X2158484Y-2174842D01*
X2152342Y-2180984D01*
X2150030Y-2182530D01*
X2148484Y-2184842D01*
X2148484Y-2184842D01*
X2143907Y-2191692D01*
X2141758Y-2202500D01*
X2142300Y-2205228D01*
X2142300Y-2289800D01*
X2141474Y-2289800D01*
X2136516Y-2284842D01*
X2134971Y-2282530D01*
X2132233Y-2280700D01*
X2128555Y-2278243D01*
X2125808Y-2276407D01*
X2125808Y-2276407D01*
X2125808Y-2276407D01*
X2115000Y-2274258D01*
X2113334Y-2274589D01*
X2108166Y-2269421D01*
X2109145Y-2264500D01*
X2109145Y-2244500D01*
X2106622Y-2231816D01*
X2099437Y-2221063D01*
X2094784Y-2217954D01*
X2099682Y-2214682D01*
X2105945Y-2205308D01*
X2108145Y-2194250D01*
X2108145Y-2175750D01*
X2105945Y-2164693D01*
X2102943Y-2160200D01*
X2116477Y-2160200D01*
X2137684Y-2151416D01*
X2153916Y-2135184D01*
X2162700Y-2113977D01*
X2162700Y-2091023D01*
X2153916Y-2069816D01*
X2137684Y-2053584D01*
X2122138Y-2047145D01*
X2172500Y-2047145D01*
X2181357Y-2045383D01*
X2188866Y-2040366D01*
X2193883Y-2032857D01*
X2195645Y-2024000D01*
X2195645Y-1946029D01*
X2233473Y-1908201D01*
X2276300Y-1908201D01*
X2276300Y-1917004D01*
X2276300Y-1917004D01*
G37*
X2276300Y-1917004D02*
X2281278Y-1929023D01*
X2290477Y-1938222D01*
X2302496Y-1943200D01*
X2309300Y-1943200D01*
X2309300Y-2064272D01*
X2308758Y-2067000D01*
X2310907Y-2077808D01*
X2315061Y-2084025D01*
X2317030Y-2086970D01*
X2319342Y-2088516D01*
X2327300Y-2096474D01*
X2327300Y-2096504D01*
X2332278Y-2108523D01*
X2333755Y-2110000D01*
X2332278Y-2111477D01*
X2327300Y-2123496D01*
X2327300Y-2124115D01*
X2323907Y-2129192D01*
X2323762Y-2129921D01*
X2321964Y-2131719D01*
X2317722Y-2121477D01*
X2308523Y-2112278D01*
X2296504Y-2107300D01*
X2283496Y-2107300D01*
X2280948Y-2108355D01*
X2279052Y-2108355D01*
X2276504Y-2107300D01*
X2263496Y-2107300D01*
X2251477Y-2112278D01*
X2245000Y-2118755D01*
X2238523Y-2112278D01*
X2226504Y-2107300D01*
X2213496Y-2107300D01*
X2210948Y-2108355D01*
X2209052Y-2108355D01*
X2206504Y-2107300D01*
X2193496Y-2107300D01*
X2181477Y-2112278D01*
X2172278Y-2121477D01*
X2167300Y-2133496D01*
X2167300Y-2139264D01*
X2166855Y-2141500D01*
X2166855Y-2167500D01*
X2166938Y-2167914D01*
X2160030Y-2172530D01*
X2158484Y-2174842D01*
X2152342Y-2180984D01*
X2150030Y-2182530D01*
X2148484Y-2184842D01*
X2148484Y-2184842D01*
X2143907Y-2191692D01*
X2141758Y-2202500D01*
X2142300Y-2205228D01*
X2142300Y-2289800D01*
X2141474Y-2289800D01*
X2136516Y-2284842D01*
X2134971Y-2282530D01*
X2132233Y-2280700D01*
X2128555Y-2278243D01*
X2125808Y-2276407D01*
X2125808Y-2276407D01*
X2125808Y-2276407D01*
X2115000Y-2274258D01*
X2113334Y-2274589D01*
X2108166Y-2269421D01*
X2109145Y-2264500D01*
X2109145Y-2244500D01*
X2106622Y-2231816D01*
X2099437Y-2221063D01*
X2094784Y-2217954D01*
X2099682Y-2214682D01*
X2105945Y-2205308D01*
X2108145Y-2194250D01*
X2108145Y-2175750D01*
X2105945Y-2164693D01*
X2102943Y-2160200D01*
X2116477Y-2160200D01*
X2137684Y-2151416D01*
X2153916Y-2135184D01*
X2162700Y-2113977D01*
X2162700Y-2091023D01*
X2153916Y-2069816D01*
X2137684Y-2053584D01*
X2122138Y-2047145D01*
X2172500Y-2047145D01*
X2181357Y-2045383D01*
X2188866Y-2040366D01*
X2193883Y-2032857D01*
X2195645Y-2024000D01*
X2195645Y-1946029D01*
X2233473Y-1908201D01*
X2276300Y-1908201D01*
X2276300Y-1917004D01*
G36*
X2472278Y-1733977D02*
X2467300Y-1745996D01*
X2467300Y-1759004D01*
X2472278Y-1771023D01*
X2472300Y-1771045D01*
X2472300Y-1793977D01*
X2481084Y-1815184D01*
X2497316Y-1831416D01*
X2511522Y-1837300D01*
X2493523Y-1837300D01*
X2472316Y-1846084D01*
X2456084Y-1862316D01*
X2455725Y-1863183D01*
X2453916Y-1858816D01*
X2440700Y-1845600D01*
X2440700Y-1836996D01*
X2435722Y-1824977D01*
X2426523Y-1815778D01*
X2414504Y-1810800D01*
X2411152Y-1810800D01*
X2415437Y-1807937D01*
X2422622Y-1797184D01*
X2425145Y-1784500D01*
X2425145Y-1764500D01*
X2422622Y-1751816D01*
X2415437Y-1741063D01*
X2404684Y-1733878D01*
X2392000Y-1731355D01*
X2366000Y-1731355D01*
X2353316Y-1733878D01*
X2342563Y-1741063D01*
X2339868Y-1745096D01*
X2338883Y-1740143D01*
X2333866Y-1732634D01*
X2326357Y-1727617D01*
X2317500Y-1725855D01*
X2237500Y-1725855D01*
X2228643Y-1727617D01*
X2221134Y-1732634D01*
X2216117Y-1740143D01*
X2214355Y-1749000D01*
X2214355Y-1839000D01*
X2216117Y-1847857D01*
X2219403Y-1852775D01*
X2219272Y-1852801D01*
X2219271Y-1852801D01*
X2211457Y-1854355D01*
X2211191Y-1854408D01*
X2209112Y-1855797D01*
X2202029Y-1860530D01*
X2200483Y-1862843D01*
X2152471Y-1910855D01*
X2092500Y-1910855D01*
X2083643Y-1912617D01*
X2076134Y-1917634D01*
X2071117Y-1925143D01*
X2069355Y-1934000D01*
X2069355Y-2024000D01*
X2071117Y-2032857D01*
X2076134Y-2040366D01*
X2083643Y-2045383D01*
X2089367Y-2046521D01*
X2072316Y-2053584D01*
X2056084Y-2069816D01*
X2047300Y-2091023D01*
X2047300Y-2113977D01*
X2049697Y-2119765D01*
X2047407Y-2123192D01*
X2045800Y-2131272D01*
X2045800Y-2131273D01*
X2045257Y-2134000D01*
X2045800Y-2136728D01*
X2045800Y-2157300D01*
X2041045Y-2157300D01*
X2036023Y-2152278D01*
X2024004Y-2147300D01*
X2017056Y-2147300D01*
X2012684Y-2144378D01*
X2012298Y-2144302D01*
X2026416Y-2130184D01*
X2035200Y-2108977D01*
X2035200Y-2086023D01*
X2026416Y-2064816D01*
X2010184Y-2048584D01*
X1988977Y-2039800D01*
X1966023Y-2039800D01*
X1944816Y-2048584D01*
X1928584Y-2064816D01*
X1926520Y-2069800D01*
X1922700Y-2069800D01*
X1922700Y-1967503D01*
X1924563Y-1969366D01*
X1932072Y-1974383D01*
X1940929Y-1976145D01*
X1966000Y-1976145D01*
X1974857Y-1974383D01*
X1981117Y-1970200D01*
X1991069Y-1970200D01*
X1992563Y-1972437D01*
X2003316Y-1979622D01*
X2016000Y-1982145D01*
X2024655Y-1982145D01*
X2025996Y-1982700D01*
X2039004Y-1982700D01*
X2044359Y-1980482D01*
X2048684Y-1979622D01*
X2059437Y-1972437D01*
X2066622Y-1961684D01*
X2069145Y-1949000D01*
X2069145Y-1923000D01*
X2066622Y-1910316D01*
X2059437Y-1899563D01*
X2048684Y-1892378D01*
X2036000Y-1889855D01*
X2016000Y-1889855D01*
X2003316Y-1892378D01*
X1992563Y-1899563D01*
X1989064Y-1904800D01*
X1981117Y-1904800D01*
X1974857Y-1900617D01*
X1966000Y-1898855D01*
X1922700Y-1898855D01*
X1922700Y-1817503D01*
X1924563Y-1819366D01*
X1932072Y-1824383D01*
X1940929Y-1826145D01*
X1966000Y-1826145D01*
X1974857Y-1824383D01*
X1981117Y-1820200D01*
X1989398Y-1820200D01*
X1992563Y-1824937D01*
X2003316Y-1832122D01*
X2016000Y-1834645D01*
X2036000Y-1834645D01*
X2048684Y-1832122D01*
X2059437Y-1824937D01*
X2066622Y-1814184D01*
X2069145Y-1801500D01*
X2069145Y-1797100D01*
X2069355Y-1796889D01*
X2069355Y-1839000D01*
X2071117Y-1847857D01*
X2076134Y-1855366D01*
X2083643Y-1860383D01*
X2092500Y-1862145D01*
X2172500Y-1862145D01*
X2181357Y-1860383D01*
X2188866Y-1855366D01*
X2193883Y-1847857D01*
X2195645Y-1839000D01*
X2195645Y-1749000D01*
X2193883Y-1740143D01*
X2188866Y-1732634D01*
X2181357Y-1727617D01*
X2172500Y-1725855D01*
X2092500Y-1725855D01*
X2083643Y-1727617D01*
X2076134Y-1732634D01*
X2071117Y-1740143D01*
X2069355Y-1749000D01*
X2069355Y-1758111D01*
X2061023Y-1749778D01*
X2049004Y-1744800D01*
X2048290Y-1744800D01*
X2036000Y-1742355D01*
X2016000Y-1742355D01*
X2003316Y-1744878D01*
X1992563Y-1752063D01*
X1991427Y-1753763D01*
X1988977Y-1754778D01*
X1988955Y-1754800D01*
X1981117Y-1754800D01*
X1974857Y-1750617D01*
X1966000Y-1748855D01*
X1922700Y-1748855D01*
X1922700Y-1725200D01*
X2481055Y-1725200D01*
X2472278Y-1733977D01*
X2472278Y-1733977D01*
G37*
X2472278Y-1733977D02*
X2467300Y-1745996D01*
X2467300Y-1759004D01*
X2472278Y-1771023D01*
X2472300Y-1771045D01*
X2472300Y-1793977D01*
X2481084Y-1815184D01*
X2497316Y-1831416D01*
X2511522Y-1837300D01*
X2493523Y-1837300D01*
X2472316Y-1846084D01*
X2456084Y-1862316D01*
X2455725Y-1863183D01*
X2453916Y-1858816D01*
X2440700Y-1845600D01*
X2440700Y-1836996D01*
X2435722Y-1824977D01*
X2426523Y-1815778D01*
X2414504Y-1810800D01*
X2411152Y-1810800D01*
X2415437Y-1807937D01*
X2422622Y-1797184D01*
X2425145Y-1784500D01*
X2425145Y-1764500D01*
X2422622Y-1751816D01*
X2415437Y-1741063D01*
X2404684Y-1733878D01*
X2392000Y-1731355D01*
X2366000Y-1731355D01*
X2353316Y-1733878D01*
X2342563Y-1741063D01*
X2339868Y-1745096D01*
X2338883Y-1740143D01*
X2333866Y-1732634D01*
X2326357Y-1727617D01*
X2317500Y-1725855D01*
X2237500Y-1725855D01*
X2228643Y-1727617D01*
X2221134Y-1732634D01*
X2216117Y-1740143D01*
X2214355Y-1749000D01*
X2214355Y-1839000D01*
X2216117Y-1847857D01*
X2219403Y-1852775D01*
X2219272Y-1852801D01*
X2219271Y-1852801D01*
X2211457Y-1854355D01*
X2211191Y-1854408D01*
X2209112Y-1855797D01*
X2202029Y-1860530D01*
X2200483Y-1862843D01*
X2152471Y-1910855D01*
X2092500Y-1910855D01*
X2083643Y-1912617D01*
X2076134Y-1917634D01*
X2071117Y-1925143D01*
X2069355Y-1934000D01*
X2069355Y-2024000D01*
X2071117Y-2032857D01*
X2076134Y-2040366D01*
X2083643Y-2045383D01*
X2089367Y-2046521D01*
X2072316Y-2053584D01*
X2056084Y-2069816D01*
X2047300Y-2091023D01*
X2047300Y-2113977D01*
X2049697Y-2119765D01*
X2047407Y-2123192D01*
X2045800Y-2131272D01*
X2045800Y-2131273D01*
X2045257Y-2134000D01*
X2045800Y-2136728D01*
X2045800Y-2157300D01*
X2041045Y-2157300D01*
X2036023Y-2152278D01*
X2024004Y-2147300D01*
X2017056Y-2147300D01*
X2012684Y-2144378D01*
X2012298Y-2144302D01*
X2026416Y-2130184D01*
X2035200Y-2108977D01*
X2035200Y-2086023D01*
X2026416Y-2064816D01*
X2010184Y-2048584D01*
X1988977Y-2039800D01*
X1966023Y-2039800D01*
X1944816Y-2048584D01*
X1928584Y-2064816D01*
X1926520Y-2069800D01*
X1922700Y-2069800D01*
X1922700Y-1967503D01*
X1924563Y-1969366D01*
X1932072Y-1974383D01*
X1940929Y-1976145D01*
X1966000Y-1976145D01*
X1974857Y-1974383D01*
X1981117Y-1970200D01*
X1991069Y-1970200D01*
X1992563Y-1972437D01*
X2003316Y-1979622D01*
X2016000Y-1982145D01*
X2024655Y-1982145D01*
X2025996Y-1982700D01*
X2039004Y-1982700D01*
X2044359Y-1980482D01*
X2048684Y-1979622D01*
X2059437Y-1972437D01*
X2066622Y-1961684D01*
X2069145Y-1949000D01*
X2069145Y-1923000D01*
X2066622Y-1910316D01*
X2059437Y-1899563D01*
X2048684Y-1892378D01*
X2036000Y-1889855D01*
X2016000Y-1889855D01*
X2003316Y-1892378D01*
X1992563Y-1899563D01*
X1989064Y-1904800D01*
X1981117Y-1904800D01*
X1974857Y-1900617D01*
X1966000Y-1898855D01*
X1922700Y-1898855D01*
X1922700Y-1817503D01*
X1924563Y-1819366D01*
X1932072Y-1824383D01*
X1940929Y-1826145D01*
X1966000Y-1826145D01*
X1974857Y-1824383D01*
X1981117Y-1820200D01*
X1989398Y-1820200D01*
X1992563Y-1824937D01*
X2003316Y-1832122D01*
X2016000Y-1834645D01*
X2036000Y-1834645D01*
X2048684Y-1832122D01*
X2059437Y-1824937D01*
X2066622Y-1814184D01*
X2069145Y-1801500D01*
X2069145Y-1797100D01*
X2069355Y-1796889D01*
X2069355Y-1839000D01*
X2071117Y-1847857D01*
X2076134Y-1855366D01*
X2083643Y-1860383D01*
X2092500Y-1862145D01*
X2172500Y-1862145D01*
X2181357Y-1860383D01*
X2188866Y-1855366D01*
X2193883Y-1847857D01*
X2195645Y-1839000D01*
X2195645Y-1749000D01*
X2193883Y-1740143D01*
X2188866Y-1732634D01*
X2181357Y-1727617D01*
X2172500Y-1725855D01*
X2092500Y-1725855D01*
X2083643Y-1727617D01*
X2076134Y-1732634D01*
X2071117Y-1740143D01*
X2069355Y-1749000D01*
X2069355Y-1758111D01*
X2061023Y-1749778D01*
X2049004Y-1744800D01*
X2048290Y-1744800D01*
X2036000Y-1742355D01*
X2016000Y-1742355D01*
X2003316Y-1744878D01*
X1992563Y-1752063D01*
X1991427Y-1753763D01*
X1988977Y-1754778D01*
X1988955Y-1754800D01*
X1981117Y-1754800D01*
X1974857Y-1750617D01*
X1966000Y-1748855D01*
X1922700Y-1748855D01*
X1922700Y-1725200D01*
X2481055Y-1725200D01*
X2472278Y-1733977D01*
G36*
X2747300Y-1941416D02*
X2744028Y-1946313D01*
X2742300Y-1955000D01*
X2742300Y-2019465D01*
X2741750Y-2019355D01*
X2723250Y-2019355D01*
X2712193Y-2021555D01*
X2702818Y-2027818D01*
X2696555Y-2037192D01*
X2694355Y-2048250D01*
X2694355Y-2054300D01*
X2641798Y-2054300D01*
X2644145Y-2042500D01*
X2644145Y-2023727D01*
X2645093Y-2022308D01*
X2646700Y-2014228D01*
X2646700Y-2014227D01*
X2647243Y-2011500D01*
X2646700Y-2008772D01*
X2646700Y-1997045D01*
X2646722Y-1997023D01*
X2651700Y-1985004D01*
X2651700Y-1971996D01*
X2646722Y-1959977D01*
X2644700Y-1957955D01*
X2644700Y-1954996D01*
X2644145Y-1953655D01*
X2644145Y-1952500D01*
X2641622Y-1939816D01*
X2634437Y-1929063D01*
X2626910Y-1924034D01*
X2629682Y-1922182D01*
X2635945Y-1912807D01*
X2638145Y-1901750D01*
X2638145Y-1883250D01*
X2636283Y-1873891D01*
X2647474Y-1862700D01*
X2747300Y-1862700D01*
X2747300Y-1941416D01*
X2747300Y-1941416D01*
G37*
X2747300Y-1941416D02*
X2744028Y-1946313D01*
X2742300Y-1955000D01*
X2742300Y-2019465D01*
X2741750Y-2019355D01*
X2723250Y-2019355D01*
X2712193Y-2021555D01*
X2702818Y-2027818D01*
X2696555Y-2037192D01*
X2694355Y-2048250D01*
X2694355Y-2054300D01*
X2641798Y-2054300D01*
X2644145Y-2042500D01*
X2644145Y-2023727D01*
X2645093Y-2022308D01*
X2646700Y-2014228D01*
X2646700Y-2014227D01*
X2647243Y-2011500D01*
X2646700Y-2008772D01*
X2646700Y-1997045D01*
X2646722Y-1997023D01*
X2651700Y-1985004D01*
X2651700Y-1971996D01*
X2646722Y-1959977D01*
X2644700Y-1957955D01*
X2644700Y-1954996D01*
X2644145Y-1953655D01*
X2644145Y-1952500D01*
X2641622Y-1939816D01*
X2634437Y-1929063D01*
X2626910Y-1924034D01*
X2629682Y-1922182D01*
X2635945Y-1912807D01*
X2638145Y-1901750D01*
X2638145Y-1883250D01*
X2636283Y-1873891D01*
X2647474Y-1862700D01*
X2747300Y-1862700D01*
X2747300Y-1941416D01*
G04 #@! TD*
M02*
