%FSLAX45Y45*%
G04 Gerber Fmt 4.5, Leading zero omitted, Abs format (unit mm)*
G04 Created by KiCad (PCBNEW (5.0.0)) date 11/02/18 19:45:57*
%MOMM*%
%LPD*%
G01*
G04 APERTURE LIST*
%ADD10C,0.150000*%
%ADD11C,0.200000*%
%ADD12C,0.300000*%
G04 APERTURE END LIST*
D10*
X10605000Y-3065000D02*
X10765000Y-3065000D01*
X11435000Y-3895000D02*
X11435000Y-3735000D01*
X9785000Y-3885000D02*
X8900000Y-3000000D01*
X10605000Y-3065000D02*
X9785000Y-3885000D01*
X11435000Y-3735000D02*
X10765000Y-3065000D01*
X10615000Y-4715000D02*
X11435000Y-3895000D01*
X11495000Y-5595000D02*
X10615000Y-4715000D01*
X2500000Y-8000000D02*
X2500000Y-3000000D01*
X11495000Y-8000000D02*
X2500000Y-8000000D01*
X11495000Y-5595000D02*
X11495000Y-8000000D01*
X2500000Y-3000000D02*
X8900000Y-3000000D01*
D11*
X2858490Y-6308490D02*
X2891510Y-6341510D01*
X2891510Y-6308490D02*
X2858490Y-6341510D01*
X3083490Y-3583490D02*
X3116510Y-3616510D01*
X3116510Y-3583490D02*
X3083490Y-3616510D01*
X3833490Y-6883490D02*
X3866510Y-6916510D01*
X3866510Y-6883490D02*
X3833490Y-6916510D01*
X3843490Y-5133490D02*
X3876510Y-5166510D01*
X3876510Y-5133490D02*
X3843490Y-5166510D01*
X3858490Y-5958490D02*
X3891510Y-5991510D01*
X3891510Y-5958490D02*
X3858490Y-5991510D01*
X3963490Y-5343490D02*
X3996510Y-5376510D01*
X3996510Y-5343490D02*
X3963490Y-5376510D01*
X4233490Y-6883490D02*
X4266510Y-6916510D01*
X4266510Y-6883490D02*
X4233490Y-6916510D01*
X4283490Y-3583490D02*
X4316510Y-3616510D01*
X4316510Y-3583490D02*
X4283490Y-3616510D01*
X4383490Y-6158490D02*
X4416510Y-6191510D01*
X4416510Y-6158490D02*
X4383490Y-6191510D01*
X4393480Y-6783490D02*
X4426500Y-6816510D01*
X4426500Y-6783490D02*
X4393480Y-6816510D01*
X4673490Y-4493490D02*
X4706510Y-4526510D01*
X4706510Y-4493490D02*
X4673490Y-4526510D01*
X4783490Y-4803490D02*
X4816510Y-4836510D01*
X4816510Y-4803490D02*
X4783490Y-4836510D01*
X4886434Y-5723782D02*
X4919454Y-5756802D01*
X4919454Y-5723782D02*
X4886434Y-5756802D01*
X4953490Y-5673490D02*
X4986510Y-5706510D01*
X4986510Y-5673490D02*
X4953490Y-5706510D01*
X5053490Y-7143490D02*
X5086510Y-7176510D01*
X5086510Y-7143490D02*
X5053490Y-7176510D01*
X5093490Y-6923490D02*
X5126510Y-6956510D01*
X5126510Y-6923490D02*
X5093490Y-6956510D01*
X5166340Y-4470714D02*
X5199360Y-4503734D01*
X5199360Y-4470714D02*
X5166340Y-4503734D01*
X5173490Y-5983490D02*
X5206510Y-6016510D01*
X5206510Y-5983490D02*
X5173490Y-6016510D01*
X5223490Y-4543490D02*
X5256510Y-4576510D01*
X5256510Y-4543490D02*
X5223490Y-4576510D01*
X5233490Y-5683490D02*
X5266510Y-5716510D01*
X5266510Y-5683490D02*
X5233490Y-5716510D01*
X5283490Y-4613490D02*
X5316510Y-4646510D01*
X5316510Y-4613490D02*
X5283490Y-4646510D01*
X5363490Y-5323490D02*
X5396510Y-5356510D01*
X5396510Y-5323490D02*
X5363490Y-5356510D01*
X5409985Y-5253747D02*
X5443005Y-5286767D01*
X5443005Y-5253747D02*
X5409985Y-5286767D01*
X5423490Y-5163490D02*
X5456510Y-5196510D01*
X5456510Y-5163490D02*
X5423490Y-5196510D01*
X5443439Y-5063465D02*
X5476459Y-5096485D01*
X5476459Y-5063465D02*
X5443439Y-5096485D01*
X5483490Y-3583490D02*
X5516510Y-3616510D01*
X5516510Y-3583490D02*
X5483490Y-3616510D01*
X5483490Y-4983490D02*
X5516510Y-5016510D01*
X5516510Y-4983490D02*
X5483490Y-5016510D01*
X5633490Y-5833490D02*
X5666510Y-5866510D01*
X5666510Y-5833490D02*
X5633490Y-5866510D01*
X5643490Y-6023490D02*
X5676510Y-6056510D01*
X5676510Y-6023490D02*
X5643490Y-6056510D01*
X5763490Y-5023020D02*
X5796510Y-5056040D01*
X5796510Y-5023020D02*
X5763490Y-5056040D01*
X5883490Y-4853490D02*
X5916510Y-4886510D01*
X5916510Y-4853490D02*
X5883490Y-4886510D01*
X5943490Y-4943490D02*
X5976510Y-4976510D01*
X5976510Y-4943490D02*
X5943490Y-4976510D01*
X5983490Y-4853490D02*
X6016510Y-4886510D01*
X6016510Y-4853490D02*
X5983490Y-4886510D01*
X5983490Y-5933490D02*
X6016510Y-5966510D01*
X6016510Y-5933490D02*
X5983490Y-5966510D01*
X6103490Y-4843490D02*
X6136510Y-4876510D01*
X6136510Y-4843490D02*
X6103490Y-4876510D01*
X6233490Y-4908490D02*
X6266510Y-4941510D01*
X6266510Y-4908490D02*
X6233490Y-4941510D01*
X6233490Y-5183490D02*
X6266510Y-5216510D01*
X6266510Y-5183490D02*
X6233490Y-5216510D01*
X6283490Y-5253490D02*
X6316510Y-5286510D01*
X6316510Y-5253490D02*
X6283490Y-5286510D01*
X6483490Y-5223490D02*
X6516510Y-5256510D01*
X6516510Y-5223490D02*
X6483490Y-5256510D01*
X6483490Y-6443490D02*
X6516510Y-6476510D01*
X6516510Y-6443490D02*
X6483490Y-6476510D01*
X6503490Y-6573490D02*
X6536510Y-6606510D01*
X6536510Y-6573490D02*
X6503490Y-6606510D01*
X6513490Y-5973490D02*
X6546510Y-6006510D01*
X6546510Y-5973490D02*
X6513490Y-6006510D01*
X6533490Y-7163490D02*
X6566510Y-7196510D01*
X6566510Y-7163490D02*
X6533490Y-7196510D01*
X6628519Y-7160640D02*
X6661539Y-7193660D01*
X6661539Y-7160640D02*
X6628519Y-7193660D01*
X6633490Y-6663490D02*
X6666510Y-6696510D01*
X6666510Y-6663490D02*
X6633490Y-6696510D01*
X6683490Y-3583490D02*
X6716510Y-3616510D01*
X6716510Y-3583490D02*
X6683490Y-3616510D01*
X6683490Y-5243490D02*
X6716510Y-5276510D01*
X6716510Y-5243490D02*
X6683490Y-5276510D01*
X6703490Y-7103490D02*
X6736510Y-7136510D01*
X6736510Y-7103490D02*
X6703490Y-7136510D01*
X6723490Y-6803490D02*
X6756510Y-6836510D01*
X6756510Y-6803490D02*
X6723490Y-6836510D01*
X6758490Y-6958490D02*
X6791510Y-6991510D01*
X6791510Y-6958490D02*
X6758490Y-6991510D01*
X6783490Y-6863490D02*
X6816510Y-6896510D01*
X6816510Y-6863490D02*
X6783490Y-6896510D01*
X6803490Y-6723490D02*
X6836510Y-6756510D01*
X6836510Y-6723490D02*
X6803490Y-6756510D01*
X6833490Y-5933490D02*
X6866510Y-5966510D01*
X6866510Y-5933490D02*
X6833490Y-5966510D01*
X6833490Y-6013490D02*
X6866510Y-6046510D01*
X6866510Y-6013490D02*
X6833490Y-6046510D01*
X6858490Y-7033490D02*
X6891510Y-7066510D01*
X6891510Y-7033490D02*
X6858490Y-7066510D01*
X6913490Y-5933490D02*
X6946510Y-5966510D01*
X6946510Y-5933490D02*
X6913490Y-5966510D01*
X6973490Y-6483490D02*
X7006510Y-6516510D01*
X7006510Y-6483490D02*
X6973490Y-6516510D01*
X6998490Y-5529740D02*
X7031510Y-5562760D01*
X7031510Y-5529740D02*
X6998490Y-5562760D01*
X7013490Y-5443490D02*
X7046510Y-5476510D01*
X7046510Y-5443490D02*
X7013490Y-5476510D01*
X7033490Y-6423490D02*
X7066510Y-6456510D01*
X7066510Y-6423490D02*
X7033490Y-6456510D01*
X7043490Y-5183490D02*
X7076510Y-5216510D01*
X7076510Y-5183490D02*
X7043490Y-5216510D01*
X7103490Y-5463490D02*
X7136510Y-5496510D01*
X7136510Y-5463490D02*
X7103490Y-5496510D01*
X7183490Y-6858490D02*
X7216510Y-6891510D01*
X7216510Y-6858490D02*
X7183490Y-6891510D01*
X7183490Y-6983490D02*
X7216510Y-7016510D01*
X7216510Y-6983490D02*
X7183490Y-7016510D01*
X7203490Y-7178490D02*
X7236510Y-7211510D01*
X7236510Y-7178490D02*
X7203490Y-7211510D01*
X7208490Y-5773490D02*
X7241510Y-5806510D01*
X7241510Y-5773490D02*
X7208490Y-5806510D01*
X7208490Y-6183490D02*
X7241510Y-6216510D01*
X7241510Y-6183490D02*
X7208490Y-6216510D01*
X7223490Y-5483490D02*
X7256510Y-5516510D01*
X7256510Y-5483490D02*
X7223490Y-5516510D01*
X7233490Y-4683490D02*
X7266510Y-4716510D01*
X7266510Y-4683490D02*
X7233490Y-4716510D01*
X7283490Y-5773490D02*
X7316510Y-5806510D01*
X7316510Y-5773490D02*
X7283490Y-5806510D01*
X7283490Y-6183490D02*
X7316510Y-6216510D01*
X7316510Y-6183490D02*
X7283490Y-6216510D01*
X7348490Y-6643490D02*
X7381510Y-6676510D01*
X7381510Y-6643490D02*
X7348490Y-6676510D01*
X7358490Y-5773490D02*
X7391510Y-5806510D01*
X7391510Y-5773490D02*
X7358490Y-5806510D01*
X7358490Y-6183490D02*
X7391510Y-6216510D01*
X7391510Y-6183490D02*
X7358490Y-6216510D01*
X7399890Y-5482846D02*
X7432910Y-5515866D01*
X7432910Y-5482846D02*
X7399890Y-5515866D01*
X7433490Y-5773490D02*
X7466510Y-5806510D01*
X7466510Y-5773490D02*
X7433490Y-5806510D01*
X7433490Y-6183490D02*
X7466510Y-6216510D01*
X7466510Y-6183490D02*
X7433490Y-6216510D01*
X7463490Y-3763490D02*
X7496510Y-3796510D01*
X7496510Y-3763490D02*
X7463490Y-3796510D01*
X7503490Y-6503490D02*
X7536510Y-6536510D01*
X7536510Y-6503490D02*
X7503490Y-6536510D01*
X7503490Y-6613490D02*
X7536510Y-6646510D01*
X7536510Y-6613490D02*
X7503490Y-6646510D01*
X7508490Y-5773490D02*
X7541510Y-5806510D01*
X7541510Y-5773490D02*
X7508490Y-5806510D01*
X7508490Y-6183490D02*
X7541510Y-6216510D01*
X7541510Y-6183490D02*
X7508490Y-6216510D01*
X7548490Y-6558490D02*
X7581510Y-6591510D01*
X7581510Y-6558490D02*
X7548490Y-6591510D01*
X7583490Y-5773490D02*
X7616510Y-5806510D01*
X7616510Y-5773490D02*
X7583490Y-5806510D01*
X7583490Y-6183490D02*
X7616510Y-6216510D01*
X7616510Y-6183490D02*
X7583490Y-6216510D01*
X7633490Y-3483490D02*
X7666510Y-3516510D01*
X7666510Y-3483490D02*
X7633490Y-3516510D01*
X7633490Y-5133490D02*
X7666510Y-5166510D01*
X7666510Y-5133490D02*
X7633490Y-5166510D01*
X7793490Y-4953490D02*
X7826510Y-4986510D01*
X7826510Y-4953490D02*
X7793490Y-4986510D01*
X7803490Y-5243490D02*
X7836510Y-5276510D01*
X7836510Y-5243490D02*
X7803490Y-5276510D01*
X7833490Y-5983490D02*
X7866510Y-6016510D01*
X7866510Y-5983490D02*
X7833490Y-6016510D01*
X7923490Y-5993490D02*
X7956510Y-6026510D01*
X7956510Y-5993490D02*
X7923490Y-6026510D01*
X7933490Y-3483490D02*
X7966510Y-3516510D01*
X7966510Y-3483490D02*
X7933490Y-3516510D01*
X7933490Y-5923490D02*
X7966510Y-5956510D01*
X7966510Y-5923490D02*
X7933490Y-5956510D01*
X7963490Y-4283490D02*
X7996510Y-4316510D01*
X7996510Y-4283490D02*
X7963490Y-4316510D01*
X7963490Y-5643490D02*
X7996510Y-5676510D01*
X7996510Y-5643490D02*
X7963490Y-5676510D01*
X8003490Y-5723490D02*
X8036510Y-5756510D01*
X8036510Y-5723490D02*
X8003490Y-5756510D01*
X8033490Y-5573490D02*
X8066510Y-5606510D01*
X8066510Y-5573490D02*
X8033490Y-5606510D01*
X8063490Y-5663490D02*
X8096510Y-5696510D01*
X8096510Y-5663490D02*
X8063490Y-5696510D01*
X8093490Y-7103490D02*
X8126510Y-7136510D01*
X8126510Y-7103490D02*
X8093490Y-7136510D01*
X8113490Y-6683490D02*
X8146510Y-6716510D01*
X8146510Y-6683490D02*
X8113490Y-6716510D01*
X8113490Y-6883490D02*
X8146510Y-6916510D01*
X8146510Y-6883490D02*
X8113490Y-6916510D01*
X8163490Y-5793490D02*
X8196510Y-5826510D01*
X8196510Y-5793490D02*
X8163490Y-5826510D01*
X8223490Y-5833490D02*
X8256510Y-5866510D01*
X8256510Y-5833490D02*
X8223490Y-5866510D01*
X8243490Y-5763490D02*
X8276510Y-5796510D01*
X8276510Y-5763490D02*
X8243490Y-5796510D01*
X8313490Y-6523490D02*
X8346510Y-6556510D01*
X8346510Y-6523490D02*
X8313490Y-6556510D01*
X8373490Y-3973490D02*
X8406510Y-4006510D01*
X8406510Y-3973490D02*
X8373490Y-4006510D01*
X8403490Y-6523490D02*
X8436510Y-6556510D01*
X8436510Y-6523490D02*
X8403490Y-6556510D01*
X8463490Y-6463490D02*
X8496510Y-6496510D01*
X8496510Y-6463490D02*
X8463490Y-6496510D01*
X8493490Y-7373490D02*
X8526510Y-7406510D01*
X8526510Y-7373490D02*
X8493490Y-7406510D01*
X8533490Y-6403490D02*
X8566510Y-6436510D01*
X8566510Y-6403490D02*
X8533490Y-6436510D01*
X8598490Y-5373490D02*
X8631510Y-5406510D01*
X8631510Y-5373490D02*
X8598490Y-5406510D01*
X8633490Y-3483490D02*
X8666510Y-3516510D01*
X8666510Y-3483490D02*
X8633490Y-3516510D01*
X8633490Y-4883490D02*
X8666510Y-4916510D01*
X8666510Y-4883490D02*
X8633490Y-4916510D01*
X8683490Y-6433490D02*
X8716510Y-6466510D01*
X8716510Y-6433490D02*
X8683490Y-6466510D01*
X8823490Y-6433490D02*
X8856510Y-6466510D01*
X8856510Y-6433490D02*
X8823490Y-6466510D01*
X8933490Y-3483490D02*
X8966510Y-3516510D01*
X8966510Y-3483490D02*
X8933490Y-3516510D01*
X8933490Y-6483490D02*
X8966510Y-6516510D01*
X8966510Y-6483490D02*
X8933490Y-6516510D01*
X8933490Y-7683490D02*
X8966510Y-7716510D01*
X8966510Y-7683490D02*
X8933490Y-7716510D01*
X8973490Y-7183490D02*
X9006510Y-7216510D01*
X9006510Y-7183490D02*
X8973490Y-7216510D01*
X9063490Y-5103490D02*
X9096510Y-5136510D01*
X9096510Y-5103490D02*
X9063490Y-5136510D01*
X9153079Y-5153079D02*
X9186099Y-5186099D01*
X9186099Y-5153079D02*
X9153079Y-5186099D01*
X9183490Y-5043490D02*
X9216510Y-5076510D01*
X9216510Y-5043490D02*
X9183490Y-5076510D01*
X9243490Y-5143490D02*
X9276510Y-5176510D01*
X9276510Y-5143490D02*
X9243490Y-5176510D01*
X9343490Y-7073490D02*
X9376510Y-7106510D01*
X9376510Y-7073490D02*
X9343490Y-7106510D01*
X9383490Y-6683490D02*
X9416510Y-6716510D01*
X9416510Y-6683490D02*
X9383490Y-6716510D01*
X9443490Y-7093490D02*
X9476510Y-7126510D01*
X9476510Y-7093490D02*
X9443490Y-7126510D01*
X9553490Y-7113490D02*
X9586510Y-7146510D01*
X9586510Y-7113490D02*
X9553490Y-7146510D01*
X9683490Y-7083490D02*
X9716510Y-7116510D01*
X9716510Y-7083490D02*
X9683490Y-7116510D01*
X9763490Y-6433490D02*
X9796510Y-6466510D01*
X9796510Y-6433490D02*
X9763490Y-6466510D01*
X9958490Y-3958490D02*
X9991510Y-3991510D01*
X9991510Y-3958490D02*
X9958490Y-3991510D01*
X10033490Y-5063490D02*
X10066510Y-5096510D01*
X10066510Y-5063490D02*
X10033490Y-5096510D01*
X10058490Y-4033490D02*
X10091510Y-4066510D01*
X10091510Y-4033490D02*
X10058490Y-4066510D01*
X10083490Y-3808490D02*
X10116510Y-3841510D01*
X10116510Y-3808490D02*
X10083490Y-3841510D01*
X10108490Y-5158490D02*
X10141510Y-5191510D01*
X10141510Y-5158490D02*
X10108490Y-5191510D01*
X10133490Y-3933490D02*
X10166510Y-3966510D01*
X10166510Y-3933490D02*
X10133490Y-3966510D01*
X10133490Y-5033490D02*
X10166510Y-5066510D01*
X10166510Y-5033490D02*
X10133490Y-5066510D01*
X10208490Y-3833490D02*
X10241510Y-3866510D01*
X10241510Y-3833490D02*
X10208490Y-3866510D01*
X10233490Y-5133490D02*
X10266510Y-5166510D01*
X10266510Y-5133490D02*
X10233490Y-5166510D01*
X10258490Y-5033490D02*
X10291510Y-5066510D01*
X10291510Y-5033490D02*
X10258490Y-5066510D01*
X2724000Y-7500000D02*
G75*
G03X2724000Y-7500000I-50000J0D01*
G01*
X2724000Y-7754000D02*
G75*
G03X2724000Y-7754000I-50000J0D01*
G01*
X2978000Y-7500000D02*
G75*
G03X2978000Y-7500000I-50000J0D01*
G01*
X2978000Y-7754000D02*
G75*
G03X2978000Y-7754000I-50000J0D01*
G01*
X3232000Y-7500000D02*
G75*
G03X3232000Y-7500000I-50000J0D01*
G01*
X3232000Y-7754000D02*
G75*
G03X3232000Y-7754000I-50000J0D01*
G01*
X3486000Y-7500000D02*
G75*
G03X3486000Y-7500000I-50000J0D01*
G01*
X3486000Y-7754000D02*
G75*
G03X3486000Y-7754000I-50000J0D01*
G01*
X3740000Y-7500000D02*
G75*
G03X3740000Y-7500000I-50000J0D01*
G01*
X3740000Y-7754000D02*
G75*
G03X3740000Y-7754000I-50000J0D01*
G01*
X3994000Y-7500000D02*
G75*
G03X3994000Y-7500000I-50000J0D01*
G01*
X3994000Y-7754000D02*
G75*
G03X3994000Y-7754000I-50000J0D01*
G01*
X4248000Y-7500000D02*
G75*
G03X4248000Y-7500000I-50000J0D01*
G01*
X4248000Y-7754000D02*
G75*
G03X4248000Y-7754000I-50000J0D01*
G01*
X4502000Y-7500000D02*
G75*
G03X4502000Y-7500000I-50000J0D01*
G01*
X4502000Y-7754000D02*
G75*
G03X4502000Y-7754000I-50000J0D01*
G01*
X4756000Y-7500000D02*
G75*
G03X4756000Y-7500000I-50000J0D01*
G01*
X4756000Y-7754000D02*
G75*
G03X4756000Y-7754000I-50000J0D01*
G01*
X5010000Y-7500000D02*
G75*
G03X5010000Y-7500000I-50000J0D01*
G01*
X5010000Y-7754000D02*
G75*
G03X5010000Y-7754000I-50000J0D01*
G01*
X5264000Y-7500000D02*
G75*
G03X5264000Y-7500000I-50000J0D01*
G01*
X5264000Y-7754000D02*
G75*
G03X5264000Y-7754000I-50000J0D01*
G01*
X5518000Y-7500000D02*
G75*
G03X5518000Y-7500000I-50000J0D01*
G01*
X5518000Y-7754000D02*
G75*
G03X5518000Y-7754000I-50000J0D01*
G01*
X5772000Y-7500000D02*
G75*
G03X5772000Y-7500000I-50000J0D01*
G01*
X5772000Y-7754000D02*
G75*
G03X5772000Y-7754000I-50000J0D01*
G01*
X6026000Y-7500000D02*
G75*
G03X6026000Y-7500000I-50000J0D01*
G01*
X6026000Y-7754000D02*
G75*
G03X6026000Y-7754000I-50000J0D01*
G01*
X6280000Y-7500000D02*
G75*
G03X6280000Y-7500000I-50000J0D01*
G01*
X6280000Y-7754000D02*
G75*
G03X6280000Y-7754000I-50000J0D01*
G01*
X6534000Y-7500000D02*
G75*
G03X6534000Y-7500000I-50000J0D01*
G01*
X6534000Y-7754000D02*
G75*
G03X6534000Y-7754000I-50000J0D01*
G01*
X6788000Y-7500000D02*
G75*
G03X6788000Y-7500000I-50000J0D01*
G01*
X6788000Y-7754000D02*
G75*
G03X6788000Y-7754000I-50000J0D01*
G01*
X7042000Y-7500000D02*
G75*
G03X7042000Y-7500000I-50000J0D01*
G01*
X7042000Y-7754000D02*
G75*
G03X7042000Y-7754000I-50000J0D01*
G01*
X7296000Y-7500000D02*
G75*
G03X7296000Y-7500000I-50000J0D01*
G01*
X7296000Y-7754000D02*
G75*
G03X7296000Y-7754000I-50000J0D01*
G01*
X7550000Y-7500000D02*
G75*
G03X7550000Y-7500000I-50000J0D01*
G01*
X7550000Y-7754000D02*
G75*
G03X7550000Y-7754000I-50000J0D01*
G01*
X9606000Y-7770000D02*
G75*
G03X9606000Y-7770000I-50000J0D01*
G01*
X9860000Y-7770000D02*
G75*
G03X9860000Y-7770000I-50000J0D01*
G01*
X10114000Y-7770000D02*
G75*
G03X10114000Y-7770000I-50000J0D01*
G01*
X10368000Y-7770000D02*
G75*
G03X10368000Y-7770000I-50000J0D01*
G01*
X10622000Y-7770000D02*
G75*
G03X10622000Y-7770000I-50000J0D01*
G01*
X10876000Y-7770000D02*
G75*
G03X10876000Y-7770000I-50000J0D01*
G01*
D12*
X2778928Y-8473214D02*
X2778928Y-8173214D01*
X2850357Y-8173214D01*
X2893214Y-8187500D01*
X2921786Y-8216071D01*
X2936071Y-8244643D01*
X2950357Y-8301786D01*
X2950357Y-8344643D01*
X2936071Y-8401786D01*
X2921786Y-8430357D01*
X2893214Y-8458929D01*
X2850357Y-8473214D01*
X2778928Y-8473214D01*
X3078928Y-8473214D02*
X3078928Y-8273214D01*
X3078928Y-8330357D02*
X3093214Y-8301786D01*
X3107500Y-8287500D01*
X3136071Y-8273214D01*
X3164643Y-8273214D01*
X3264643Y-8473214D02*
X3264643Y-8273214D01*
X3264643Y-8173214D02*
X3250357Y-8187500D01*
X3264643Y-8201786D01*
X3278928Y-8187500D01*
X3264643Y-8173214D01*
X3264643Y-8201786D01*
X3450357Y-8473214D02*
X3421786Y-8458929D01*
X3407500Y-8430357D01*
X3407500Y-8173214D01*
X3607500Y-8473214D02*
X3578928Y-8458929D01*
X3564643Y-8430357D01*
X3564643Y-8173214D01*
X3950357Y-8473214D02*
X3950357Y-8173214D01*
X4050357Y-8387500D01*
X4150357Y-8173214D01*
X4150357Y-8473214D01*
X4421786Y-8473214D02*
X4421786Y-8316071D01*
X4407500Y-8287500D01*
X4378928Y-8273214D01*
X4321786Y-8273214D01*
X4293214Y-8287500D01*
X4421786Y-8458929D02*
X4393214Y-8473214D01*
X4321786Y-8473214D01*
X4293214Y-8458929D01*
X4278928Y-8430357D01*
X4278928Y-8401786D01*
X4293214Y-8373214D01*
X4321786Y-8358929D01*
X4393214Y-8358929D01*
X4421786Y-8344643D01*
X4564643Y-8273214D02*
X4564643Y-8573214D01*
X4564643Y-8287500D02*
X4593214Y-8273214D01*
X4650357Y-8273214D01*
X4678928Y-8287500D01*
X4693214Y-8301786D01*
X4707500Y-8330357D01*
X4707500Y-8416072D01*
X4693214Y-8444643D01*
X4678928Y-8458929D01*
X4650357Y-8473214D01*
X4593214Y-8473214D01*
X4564643Y-8458929D01*
X4836071Y-8444643D02*
X4850357Y-8458929D01*
X4836071Y-8473214D01*
X4821786Y-8458929D01*
X4836071Y-8444643D01*
X4836071Y-8473214D01*
X4836071Y-8287500D02*
X4850357Y-8301786D01*
X4836071Y-8316071D01*
X4821786Y-8301786D01*
X4836071Y-8287500D01*
X4836071Y-8316071D01*
X2459480Y-8950990D02*
X2492500Y-8984010D01*
X2492500Y-8950990D02*
X2459480Y-8984010D01*
X2836071Y-8803214D02*
X2864643Y-8803214D01*
X2893214Y-8817500D01*
X2907500Y-8831786D01*
X2921786Y-8860357D01*
X2936071Y-8917500D01*
X2936071Y-8988929D01*
X2921786Y-9046072D01*
X2907500Y-9074643D01*
X2893214Y-9088929D01*
X2864643Y-9103214D01*
X2836071Y-9103214D01*
X2807500Y-9088929D01*
X2793214Y-9074643D01*
X2778928Y-9046072D01*
X2764643Y-8988929D01*
X2764643Y-8917500D01*
X2778928Y-8860357D01*
X2793214Y-8831786D01*
X2807500Y-8817500D01*
X2836071Y-8803214D01*
X3064643Y-9074643D02*
X3078928Y-9088929D01*
X3064643Y-9103214D01*
X3050357Y-9088929D01*
X3064643Y-9074643D01*
X3064643Y-9103214D01*
X3178928Y-8803214D02*
X3364643Y-8803214D01*
X3264643Y-8917500D01*
X3307500Y-8917500D01*
X3336071Y-8931786D01*
X3350357Y-8946072D01*
X3364643Y-8974643D01*
X3364643Y-9046072D01*
X3350357Y-9074643D01*
X3336071Y-9088929D01*
X3307500Y-9103214D01*
X3221786Y-9103214D01*
X3193214Y-9088929D01*
X3178928Y-9074643D01*
X3464643Y-8803214D02*
X3650357Y-8803214D01*
X3550357Y-8917500D01*
X3593214Y-8917500D01*
X3621786Y-8931786D01*
X3636071Y-8946072D01*
X3650357Y-8974643D01*
X3650357Y-9046072D01*
X3636071Y-9074643D01*
X3621786Y-9088929D01*
X3593214Y-9103214D01*
X3507500Y-9103214D01*
X3478928Y-9088929D01*
X3464643Y-9074643D01*
X3778928Y-9103214D02*
X3778928Y-8903214D01*
X3778928Y-8931786D02*
X3793214Y-8917500D01*
X3821786Y-8903214D01*
X3864643Y-8903214D01*
X3893214Y-8917500D01*
X3907500Y-8946072D01*
X3907500Y-9103214D01*
X3907500Y-8946072D02*
X3921786Y-8917500D01*
X3950357Y-8903214D01*
X3993214Y-8903214D01*
X4021786Y-8917500D01*
X4036071Y-8946072D01*
X4036071Y-9103214D01*
X4178928Y-9103214D02*
X4178928Y-8903214D01*
X4178928Y-8931786D02*
X4193214Y-8917500D01*
X4221786Y-8903214D01*
X4264643Y-8903214D01*
X4293214Y-8917500D01*
X4307500Y-8946072D01*
X4307500Y-9103214D01*
X4307500Y-8946072D02*
X4321786Y-8917500D01*
X4350357Y-8903214D01*
X4393214Y-8903214D01*
X4421786Y-8917500D01*
X4436071Y-8946072D01*
X4436071Y-9103214D01*
X5021786Y-8788929D02*
X4764643Y-9174643D01*
X5407500Y-8803214D02*
X5436071Y-8803214D01*
X5464643Y-8817500D01*
X5478928Y-8831786D01*
X5493214Y-8860357D01*
X5507500Y-8917500D01*
X5507500Y-8988929D01*
X5493214Y-9046072D01*
X5478928Y-9074643D01*
X5464643Y-9088929D01*
X5436071Y-9103214D01*
X5407500Y-9103214D01*
X5378928Y-9088929D01*
X5364643Y-9074643D01*
X5350357Y-9046072D01*
X5336071Y-8988929D01*
X5336071Y-8917500D01*
X5350357Y-8860357D01*
X5364643Y-8831786D01*
X5378928Y-8817500D01*
X5407500Y-8803214D01*
X5636071Y-9074643D02*
X5650357Y-9088929D01*
X5636071Y-9103214D01*
X5621786Y-9088929D01*
X5636071Y-9074643D01*
X5636071Y-9103214D01*
X5836071Y-8803214D02*
X5864643Y-8803214D01*
X5893214Y-8817500D01*
X5907500Y-8831786D01*
X5921786Y-8860357D01*
X5936071Y-8917500D01*
X5936071Y-8988929D01*
X5921786Y-9046072D01*
X5907500Y-9074643D01*
X5893214Y-9088929D01*
X5864643Y-9103214D01*
X5836071Y-9103214D01*
X5807500Y-9088929D01*
X5793214Y-9074643D01*
X5778928Y-9046072D01*
X5764643Y-8988929D01*
X5764643Y-8917500D01*
X5778928Y-8860357D01*
X5793214Y-8831786D01*
X5807500Y-8817500D01*
X5836071Y-8803214D01*
X6221786Y-9103214D02*
X6050357Y-9103214D01*
X6136071Y-9103214D02*
X6136071Y-8803214D01*
X6107500Y-8846072D01*
X6078928Y-8874643D01*
X6050357Y-8888929D01*
X6321786Y-8803214D02*
X6507500Y-8803214D01*
X6407500Y-8917500D01*
X6450357Y-8917500D01*
X6478928Y-8931786D01*
X6493214Y-8946072D01*
X6507500Y-8974643D01*
X6507500Y-9046072D01*
X6493214Y-9074643D01*
X6478928Y-9088929D01*
X6450357Y-9103214D01*
X6364643Y-9103214D01*
X6336071Y-9088929D01*
X6321786Y-9074643D01*
X6621786Y-8803214D02*
X6621786Y-8860357D01*
X6736071Y-8803214D02*
X6736071Y-8860357D01*
X7178928Y-9217500D02*
X7164643Y-9203214D01*
X7136071Y-9160357D01*
X7121786Y-9131786D01*
X7107500Y-9088929D01*
X7093214Y-9017500D01*
X7093214Y-8960357D01*
X7107500Y-8888929D01*
X7121786Y-8846072D01*
X7136071Y-8817500D01*
X7164643Y-8774643D01*
X7178928Y-8760357D01*
X7450357Y-9103214D02*
X7278928Y-9103214D01*
X7364643Y-9103214D02*
X7364643Y-8803214D01*
X7336071Y-8846072D01*
X7307500Y-8874643D01*
X7278928Y-8888929D01*
X7550357Y-8803214D02*
X7736071Y-8803214D01*
X7636071Y-8917500D01*
X7678928Y-8917500D01*
X7707500Y-8931786D01*
X7721786Y-8946072D01*
X7736071Y-8974643D01*
X7736071Y-9046072D01*
X7721786Y-9074643D01*
X7707500Y-9088929D01*
X7678928Y-9103214D01*
X7593214Y-9103214D01*
X7564643Y-9088929D01*
X7550357Y-9074643D01*
X7878928Y-9103214D02*
X7936071Y-9103214D01*
X7964643Y-9088929D01*
X7978928Y-9074643D01*
X8007500Y-9031786D01*
X8021786Y-8974643D01*
X8021786Y-8860357D01*
X8007500Y-8831786D01*
X7993214Y-8817500D01*
X7964643Y-8803214D01*
X7907500Y-8803214D01*
X7878928Y-8817500D01*
X7864643Y-8831786D01*
X7850357Y-8860357D01*
X7850357Y-8931786D01*
X7864643Y-8960357D01*
X7878928Y-8974643D01*
X7907500Y-8988929D01*
X7964643Y-8988929D01*
X7993214Y-8974643D01*
X8007500Y-8960357D01*
X8021786Y-8931786D01*
X8378928Y-9103214D02*
X8378928Y-8803214D01*
X8507500Y-9103214D02*
X8507500Y-8946072D01*
X8493214Y-8917500D01*
X8464643Y-8903214D01*
X8421786Y-8903214D01*
X8393214Y-8917500D01*
X8378928Y-8931786D01*
X8693214Y-9103214D02*
X8664643Y-9088929D01*
X8650357Y-9074643D01*
X8636071Y-9046072D01*
X8636071Y-8960357D01*
X8650357Y-8931786D01*
X8664643Y-8917500D01*
X8693214Y-8903214D01*
X8736071Y-8903214D01*
X8764643Y-8917500D01*
X8778928Y-8931786D01*
X8793214Y-8960357D01*
X8793214Y-9046072D01*
X8778928Y-9074643D01*
X8764643Y-9088929D01*
X8736071Y-9103214D01*
X8693214Y-9103214D01*
X8964643Y-9103214D02*
X8936071Y-9088929D01*
X8921786Y-9060357D01*
X8921786Y-8803214D01*
X9193214Y-9088929D02*
X9164643Y-9103214D01*
X9107500Y-9103214D01*
X9078928Y-9088929D01*
X9064643Y-9060357D01*
X9064643Y-8946072D01*
X9078928Y-8917500D01*
X9107500Y-8903214D01*
X9164643Y-8903214D01*
X9193214Y-8917500D01*
X9207500Y-8946072D01*
X9207500Y-8974643D01*
X9064643Y-9003214D01*
X9321786Y-9088929D02*
X9350357Y-9103214D01*
X9407500Y-9103214D01*
X9436071Y-9088929D01*
X9450357Y-9060357D01*
X9450357Y-9046072D01*
X9436071Y-9017500D01*
X9407500Y-9003214D01*
X9364643Y-9003214D01*
X9336071Y-8988929D01*
X9321786Y-8960357D01*
X9321786Y-8946072D01*
X9336071Y-8917500D01*
X9364643Y-8903214D01*
X9407500Y-8903214D01*
X9436071Y-8917500D01*
X9550357Y-9217500D02*
X9564643Y-9203214D01*
X9593214Y-9160357D01*
X9607500Y-9131786D01*
X9621786Y-9088929D01*
X9636071Y-9017500D01*
X9636071Y-8960357D01*
X9621786Y-8888929D01*
X9607500Y-8846072D01*
X9593214Y-8817500D01*
X9564643Y-8774643D01*
X9550357Y-8760357D01*
X2492500Y-9363500D02*
G75*
G03X2492500Y-9363500I-50000J0D01*
G01*
X2936071Y-9499214D02*
X2764643Y-9499214D01*
X2850357Y-9499214D02*
X2850357Y-9199214D01*
X2821786Y-9242072D01*
X2793214Y-9270643D01*
X2764643Y-9284929D01*
X3064643Y-9470643D02*
X3078928Y-9484929D01*
X3064643Y-9499214D01*
X3050357Y-9484929D01*
X3064643Y-9470643D01*
X3064643Y-9499214D01*
X3264643Y-9199214D02*
X3293214Y-9199214D01*
X3321786Y-9213500D01*
X3336071Y-9227786D01*
X3350357Y-9256357D01*
X3364643Y-9313500D01*
X3364643Y-9384929D01*
X3350357Y-9442072D01*
X3336071Y-9470643D01*
X3321786Y-9484929D01*
X3293214Y-9499214D01*
X3264643Y-9499214D01*
X3236071Y-9484929D01*
X3221786Y-9470643D01*
X3207500Y-9442072D01*
X3193214Y-9384929D01*
X3193214Y-9313500D01*
X3207500Y-9256357D01*
X3221786Y-9227786D01*
X3236071Y-9213500D01*
X3264643Y-9199214D01*
X3550357Y-9199214D02*
X3578928Y-9199214D01*
X3607500Y-9213500D01*
X3621786Y-9227786D01*
X3636071Y-9256357D01*
X3650357Y-9313500D01*
X3650357Y-9384929D01*
X3636071Y-9442072D01*
X3621786Y-9470643D01*
X3607500Y-9484929D01*
X3578928Y-9499214D01*
X3550357Y-9499214D01*
X3521786Y-9484929D01*
X3507500Y-9470643D01*
X3493214Y-9442072D01*
X3478928Y-9384929D01*
X3478928Y-9313500D01*
X3493214Y-9256357D01*
X3507500Y-9227786D01*
X3521786Y-9213500D01*
X3550357Y-9199214D01*
X3778928Y-9499214D02*
X3778928Y-9299214D01*
X3778928Y-9327786D02*
X3793214Y-9313500D01*
X3821786Y-9299214D01*
X3864643Y-9299214D01*
X3893214Y-9313500D01*
X3907500Y-9342072D01*
X3907500Y-9499214D01*
X3907500Y-9342072D02*
X3921786Y-9313500D01*
X3950357Y-9299214D01*
X3993214Y-9299214D01*
X4021786Y-9313500D01*
X4036071Y-9342072D01*
X4036071Y-9499214D01*
X4178928Y-9499214D02*
X4178928Y-9299214D01*
X4178928Y-9327786D02*
X4193214Y-9313500D01*
X4221786Y-9299214D01*
X4264643Y-9299214D01*
X4293214Y-9313500D01*
X4307500Y-9342072D01*
X4307500Y-9499214D01*
X4307500Y-9342072D02*
X4321786Y-9313500D01*
X4350357Y-9299214D01*
X4393214Y-9299214D01*
X4421786Y-9313500D01*
X4436071Y-9342072D01*
X4436071Y-9499214D01*
X5021786Y-9184929D02*
X4764643Y-9570643D01*
X5407500Y-9199214D02*
X5436071Y-9199214D01*
X5464643Y-9213500D01*
X5478928Y-9227786D01*
X5493214Y-9256357D01*
X5507500Y-9313500D01*
X5507500Y-9384929D01*
X5493214Y-9442072D01*
X5478928Y-9470643D01*
X5464643Y-9484929D01*
X5436071Y-9499214D01*
X5407500Y-9499214D01*
X5378928Y-9484929D01*
X5364643Y-9470643D01*
X5350357Y-9442072D01*
X5336071Y-9384929D01*
X5336071Y-9313500D01*
X5350357Y-9256357D01*
X5364643Y-9227786D01*
X5378928Y-9213500D01*
X5407500Y-9199214D01*
X5636071Y-9470643D02*
X5650357Y-9484929D01*
X5636071Y-9499214D01*
X5621786Y-9484929D01*
X5636071Y-9470643D01*
X5636071Y-9499214D01*
X5836071Y-9199214D02*
X5864643Y-9199214D01*
X5893214Y-9213500D01*
X5907500Y-9227786D01*
X5921786Y-9256357D01*
X5936071Y-9313500D01*
X5936071Y-9384929D01*
X5921786Y-9442072D01*
X5907500Y-9470643D01*
X5893214Y-9484929D01*
X5864643Y-9499214D01*
X5836071Y-9499214D01*
X5807500Y-9484929D01*
X5793214Y-9470643D01*
X5778928Y-9442072D01*
X5764643Y-9384929D01*
X5764643Y-9313500D01*
X5778928Y-9256357D01*
X5793214Y-9227786D01*
X5807500Y-9213500D01*
X5836071Y-9199214D01*
X6036071Y-9199214D02*
X6221786Y-9199214D01*
X6121786Y-9313500D01*
X6164643Y-9313500D01*
X6193214Y-9327786D01*
X6207500Y-9342072D01*
X6221786Y-9370643D01*
X6221786Y-9442072D01*
X6207500Y-9470643D01*
X6193214Y-9484929D01*
X6164643Y-9499214D01*
X6078928Y-9499214D01*
X6050357Y-9484929D01*
X6036071Y-9470643D01*
X6364643Y-9499214D02*
X6421786Y-9499214D01*
X6450357Y-9484929D01*
X6464643Y-9470643D01*
X6493214Y-9427786D01*
X6507500Y-9370643D01*
X6507500Y-9256357D01*
X6493214Y-9227786D01*
X6478928Y-9213500D01*
X6450357Y-9199214D01*
X6393214Y-9199214D01*
X6364643Y-9213500D01*
X6350357Y-9227786D01*
X6336071Y-9256357D01*
X6336071Y-9327786D01*
X6350357Y-9356357D01*
X6364643Y-9370643D01*
X6393214Y-9384929D01*
X6450357Y-9384929D01*
X6478928Y-9370643D01*
X6493214Y-9356357D01*
X6507500Y-9327786D01*
X6621786Y-9199214D02*
X6621786Y-9256357D01*
X6736071Y-9199214D02*
X6736071Y-9256357D01*
X7178928Y-9613500D02*
X7164643Y-9599214D01*
X7136071Y-9556357D01*
X7121786Y-9527786D01*
X7107500Y-9484929D01*
X7093214Y-9413500D01*
X7093214Y-9356357D01*
X7107500Y-9284929D01*
X7121786Y-9242072D01*
X7136071Y-9213500D01*
X7164643Y-9170643D01*
X7178928Y-9156357D01*
X7421786Y-9299214D02*
X7421786Y-9499214D01*
X7350357Y-9184929D02*
X7278928Y-9399214D01*
X7464643Y-9399214D01*
X7707500Y-9199214D02*
X7650357Y-9199214D01*
X7621786Y-9213500D01*
X7607500Y-9227786D01*
X7578928Y-9270643D01*
X7564643Y-9327786D01*
X7564643Y-9442072D01*
X7578928Y-9470643D01*
X7593214Y-9484929D01*
X7621786Y-9499214D01*
X7678928Y-9499214D01*
X7707500Y-9484929D01*
X7721786Y-9470643D01*
X7736071Y-9442072D01*
X7736071Y-9370643D01*
X7721786Y-9342072D01*
X7707500Y-9327786D01*
X7678928Y-9313500D01*
X7621786Y-9313500D01*
X7593214Y-9327786D01*
X7578928Y-9342072D01*
X7564643Y-9370643D01*
X8093214Y-9499214D02*
X8093214Y-9199214D01*
X8221786Y-9499214D02*
X8221786Y-9342072D01*
X8207500Y-9313500D01*
X8178928Y-9299214D01*
X8136071Y-9299214D01*
X8107500Y-9313500D01*
X8093214Y-9327786D01*
X8407500Y-9499214D02*
X8378928Y-9484929D01*
X8364643Y-9470643D01*
X8350357Y-9442072D01*
X8350357Y-9356357D01*
X8364643Y-9327786D01*
X8378928Y-9313500D01*
X8407500Y-9299214D01*
X8450357Y-9299214D01*
X8478928Y-9313500D01*
X8493214Y-9327786D01*
X8507500Y-9356357D01*
X8507500Y-9442072D01*
X8493214Y-9470643D01*
X8478928Y-9484929D01*
X8450357Y-9499214D01*
X8407500Y-9499214D01*
X8678928Y-9499214D02*
X8650357Y-9484929D01*
X8636071Y-9456357D01*
X8636071Y-9199214D01*
X8907500Y-9484929D02*
X8878928Y-9499214D01*
X8821786Y-9499214D01*
X8793214Y-9484929D01*
X8778928Y-9456357D01*
X8778928Y-9342072D01*
X8793214Y-9313500D01*
X8821786Y-9299214D01*
X8878928Y-9299214D01*
X8907500Y-9313500D01*
X8921786Y-9342072D01*
X8921786Y-9370643D01*
X8778928Y-9399214D01*
X9036071Y-9484929D02*
X9064643Y-9499214D01*
X9121786Y-9499214D01*
X9150357Y-9484929D01*
X9164643Y-9456357D01*
X9164643Y-9442072D01*
X9150357Y-9413500D01*
X9121786Y-9399214D01*
X9078928Y-9399214D01*
X9050357Y-9384929D01*
X9036071Y-9356357D01*
X9036071Y-9342072D01*
X9050357Y-9313500D01*
X9078928Y-9299214D01*
X9121786Y-9299214D01*
X9150357Y-9313500D01*
X9264643Y-9613500D02*
X9278928Y-9599214D01*
X9307500Y-9556357D01*
X9321786Y-9527786D01*
X9336071Y-9484929D01*
X9350357Y-9413500D01*
X9350357Y-9356357D01*
X9336071Y-9284929D01*
X9321786Y-9242072D01*
X9307500Y-9213500D01*
X9278928Y-9170643D01*
X9264643Y-9156357D01*
M02*
