M48
;DRILL file {KiCad (5.0.0)} date 11/25/18 04:16:21
;FORMAT={-:-/ absolute / inch / decimal}
FMAT,2
INCH,TZ
T1C0.0130
T2C0.0394
%
G90
G05
M72
T1
X1.1319Y-2.4902
X1.2205Y-1.4173
X1.4331Y-2.1142
X1.4528Y-2.3189
X1.5157Y-2.7165
X1.5197Y-2.0276
X1.6732Y-2.7165
X1.6831Y-1.8012
X1.6831Y-1.8898
X1.6929Y-1.4173
X1.7323Y-2.4311
X1.7362Y-2.6772
X1.8465Y-1.7756
X1.8898Y-1.8976
X1.9303Y-2.26
X1.939Y-1.8012
X1.9567Y-2.2402
X1.9961Y-2.8189
X2.0118Y-2.7323
X2.0405Y-1.7666
X2.0433Y-2.3622
X2.063Y-1.7953
X2.0669Y-2.2441
X2.0866Y-1.8228
X2.1181Y-2.1024
X2.1364Y-2.0749
X2.1417Y-2.0394
X2.1496Y-2.
X2.1654Y-1.4173
X2.1654Y-1.9685
X2.2244Y-2.3031
X2.2283Y-2.378
X2.2539Y-1.7913
X2.2756Y-1.9841
X2.3228Y-1.9173
X2.3465Y-1.9528
X2.3622Y-1.9173
X2.3622Y-2.3425
X2.4094Y-1.9134
X2.4606Y-1.939
X2.4606Y-2.0472
X2.4803Y-2.0748
X2.5591Y-2.063
X2.5591Y-2.5433
X2.5669Y-2.5945
X2.5709Y-2.3583
X2.5787Y-2.8268
X2.6162Y-2.8256
X2.6181Y-2.6299
X2.6378Y-1.4173
X2.6378Y-2.0709
X2.6457Y-2.8031
X2.6535Y-2.685
X2.6673Y-2.7461
X2.6772Y-2.7087
X2.685Y-2.6535
X2.6969Y-2.3425
X2.6969Y-2.374
X2.7067Y-2.7756
X2.7283Y-2.3425
X2.752Y-2.5591
X2.7618Y-2.1836
X2.7677Y-2.0591
X2.7677Y-2.1496
X2.7756Y-2.5354
X2.8031Y-2.1575
X2.8346Y-2.7067
X2.8346Y-2.7559
X2.8425Y-2.8327
X2.8445Y-2.2795
X2.8445Y-2.4409
X2.8504Y-2.1654
X2.8543Y-1.8504
X2.874Y-2.2795
X2.874Y-2.4409
X2.8996Y-2.622
X2.9035Y-2.2795
X2.9035Y-2.4409
X2.9094Y-1.9764
X2.9198Y-2.1651
X2.9331Y-2.2795
X2.9331Y-2.4409
X2.9449Y-1.4882
X2.9606Y-2.5669
X2.9606Y-2.6102
X2.9626Y-2.2795
X2.9626Y-2.4409
X2.9783Y-2.5886
X2.9921Y-2.2795
X2.9921Y-2.4409
X3.0118Y-1.378
X3.0748Y-1.9567
X3.0787Y-2.0709
X3.0906Y-2.3622
X3.126Y-2.3661
X3.1299Y-1.378
X3.1299Y-2.3386
X3.1417Y-1.6929
X3.1417Y-2.2283
X3.1575Y-2.2598
X3.1693Y-2.2008
X3.1811Y-2.2362
X3.1929Y-2.8031
X3.2008Y-2.6378
X3.2008Y-2.7165
X3.2205Y-2.2874
X3.2441Y-2.3031
X3.252Y-2.2756
X3.2795Y-2.5748
X3.3031Y-1.5709
X3.315Y-2.5748
X3.3386Y-2.5512
X3.3504Y-2.9094
X3.3661Y-2.5276
X3.3917Y-2.122
X3.4055Y-1.378
X3.4055Y-1.6929
X3.4055Y-1.8504
X3.4055Y-1.9291
X3.4252Y-2.5394
X3.435Y-1.6929
X3.435Y-1.8504
X3.4646Y-1.6929
X3.4646Y-1.8504
X3.4803Y-2.5394
X3.4941Y-1.6929
X3.4941Y-1.8504
X3.5236Y-1.378
X3.5236Y-2.5591
X3.5236Y-3.0315
X3.5394Y-2.8346
X3.5748Y-2.0157
X3.6101Y-2.0353
X3.622Y-1.9921
X3.6457Y-2.0315
X3.685Y-2.7913
X3.7008Y-2.6378
X3.7244Y-2.7992
X3.75Y-1.5354
X3.7677Y-2.8071
X3.8189Y-2.7953
X3.8504Y-2.5394
X3.9173Y-1.6043
X3.9252Y-1.9843
X3.9429Y-2.0394
X3.9567Y-1.5846
X3.9567Y-2.
X3.9862Y-1.5276
X3.9862Y-2.0374
X3.9961Y-1.565
X3.9961Y-1.9882
X4.0157Y-1.5059
X4.0256Y-1.5354
X4.0354Y-1.4764
X4.0551Y-1.5059
X4.0846Y-1.6339
X4.1575Y-1.7047
X4.185Y-1.6772
X4.185Y-1.7323
X4.2126Y-1.6496
X4.2126Y-1.7047
X4.2402Y-1.622
X4.2402Y-1.6772
X4.2677Y-1.6496
T2
X1.0528Y-2.9528
X1.0528Y-3.0528
X1.1528Y-2.9528
X1.1528Y-3.0528
X1.2528Y-2.9528
X1.2528Y-3.0528
X1.3528Y-2.9528
X1.3528Y-3.0528
X1.4528Y-2.9528
X1.4528Y-3.0528
X1.5528Y-2.9528
X1.5528Y-3.0528
X1.6528Y-2.9528
X1.6528Y-3.0528
X1.7528Y-2.9528
X1.7528Y-3.0528
X1.8528Y-2.9528
X1.8528Y-3.0528
X1.9528Y-2.9528
X1.9528Y-3.0528
X2.0528Y-2.9528
X2.0528Y-3.0528
X2.1528Y-2.9528
X2.1528Y-3.0528
X2.2528Y-2.9528
X2.2528Y-3.0528
X2.3528Y-2.9528
X2.3528Y-3.0528
X2.4528Y-2.9528
X2.4528Y-3.0528
X2.5528Y-2.9528
X2.5528Y-3.0528
X2.6528Y-2.9528
X2.6528Y-3.0528
X2.7528Y-2.9528
X2.7528Y-3.0528
X2.8528Y-2.9528
X2.8528Y-3.0528
X2.9528Y-2.9528
X2.9528Y-3.0528
X3.7622Y-3.0591
X3.8622Y-3.0591
X3.9622Y-3.0591
X4.0622Y-3.0591
X4.1622Y-3.0591
X4.2622Y-3.0591
T0
M30
