G04 #@! TF.GenerationSoftware,KiCad,Pcbnew,(5.0.1)-4*
G04 #@! TF.CreationDate,2018-11-24T16:54:36-05:00*
G04 #@! TF.ProjectId,tomu-fpga,746F6D752D667067612E6B696361645F,rev?*
G04 #@! TF.SameCoordinates,Original*
G04 #@! TF.FileFunction,Legend,Top*
G04 #@! TF.FilePolarity,Positive*
%FSLAX46Y46*%
G04 Gerber Fmt 4.6, Leading zero omitted, Abs format (unit mm)*
G04 Created by KiCad (PCBNEW (5.0.1)-4) date 11/24/18 16:54:36*
%MOMM*%
%LPD*%
G01*
G04 APERTURE LIST*
%ADD10C,0.175000*%
%ADD11C,0.300000*%
%ADD12C,0.200000*%
%ADD13C,0.100000*%
%ADD14C,0.150000*%
%ADD15C,0.250000*%
%ADD16C,0.120000*%
%ADD17C,0.400000*%
%ADD18C,0.050000*%
G04 APERTURE END LIST*
D10*
X44683333Y-72650000D02*
X44616666Y-72616666D01*
X44516666Y-72616666D01*
X44416666Y-72650000D01*
X44350000Y-72716666D01*
X44316666Y-72783333D01*
X44283333Y-72916666D01*
X44283333Y-73016666D01*
X44316666Y-73150000D01*
X44350000Y-73216666D01*
X44416666Y-73283333D01*
X44516666Y-73316666D01*
X44583333Y-73316666D01*
X44683333Y-73283333D01*
X44716666Y-73250000D01*
X44716666Y-73016666D01*
X44583333Y-73016666D01*
X43983333Y-79716666D02*
X43983333Y-79016666D01*
X44150000Y-79016666D01*
X44250000Y-79050000D01*
X44316666Y-79116666D01*
X44350000Y-79183333D01*
X44383333Y-79316666D01*
X44383333Y-79416666D01*
X44350000Y-79550000D01*
X44316666Y-79616666D01*
X44250000Y-79683333D01*
X44150000Y-79716666D01*
X43983333Y-79716666D01*
X44983333Y-79016666D02*
X44850000Y-79016666D01*
X44783333Y-79050000D01*
X44750000Y-79083333D01*
X44683333Y-79183333D01*
X44650000Y-79316666D01*
X44650000Y-79583333D01*
X44683333Y-79650000D01*
X44716666Y-79683333D01*
X44783333Y-79716666D01*
X44916666Y-79716666D01*
X44983333Y-79683333D01*
X45016666Y-79650000D01*
X45050000Y-79583333D01*
X45050000Y-79416666D01*
X45016666Y-79350000D01*
X44983333Y-79316666D01*
X44916666Y-79283333D01*
X44783333Y-79283333D01*
X44716666Y-79316666D01*
X44683333Y-79350000D01*
X44650000Y-79416666D01*
X56683333Y-73416666D02*
X56683333Y-72716666D01*
X56850000Y-72716666D01*
X56950000Y-72750000D01*
X57016666Y-72816666D01*
X57050000Y-72883333D01*
X57083333Y-73016666D01*
X57083333Y-73116666D01*
X57050000Y-73250000D01*
X57016666Y-73316666D01*
X56950000Y-73383333D01*
X56850000Y-73416666D01*
X56683333Y-73416666D01*
X57716666Y-72716666D02*
X57383333Y-72716666D01*
X57350000Y-73050000D01*
X57383333Y-73016666D01*
X57450000Y-72983333D01*
X57616666Y-72983333D01*
X57683333Y-73016666D01*
X57716666Y-73050000D01*
X57750000Y-73116666D01*
X57750000Y-73283333D01*
X57716666Y-73350000D01*
X57683333Y-73383333D01*
X57616666Y-73416666D01*
X57450000Y-73416666D01*
X57383333Y-73383333D01*
X57350000Y-73350000D01*
X61783333Y-79716666D02*
X61783333Y-79016666D01*
X61950000Y-79016666D01*
X62050000Y-79050000D01*
X62116666Y-79116666D01*
X62150000Y-79183333D01*
X62183333Y-79316666D01*
X62183333Y-79416666D01*
X62150000Y-79550000D01*
X62116666Y-79616666D01*
X62050000Y-79683333D01*
X61950000Y-79716666D01*
X61783333Y-79716666D01*
X62783333Y-79250000D02*
X62783333Y-79716666D01*
X62616666Y-78983333D02*
X62450000Y-79483333D01*
X62883333Y-79483333D01*
X65083333Y-72750000D02*
X65016666Y-72716666D01*
X64916666Y-72716666D01*
X64816666Y-72750000D01*
X64750000Y-72816666D01*
X64716666Y-72883333D01*
X64683333Y-73016666D01*
X64683333Y-73116666D01*
X64716666Y-73250000D01*
X64750000Y-73316666D01*
X64816666Y-73383333D01*
X64916666Y-73416666D01*
X64983333Y-73416666D01*
X65083333Y-73383333D01*
X65116666Y-73350000D01*
X65116666Y-73116666D01*
X64983333Y-73116666D01*
X52283333Y-79050000D02*
X52216666Y-79016666D01*
X52116666Y-79016666D01*
X52016666Y-79050000D01*
X51950000Y-79116666D01*
X51916666Y-79183333D01*
X51883333Y-79316666D01*
X51883333Y-79416666D01*
X51916666Y-79550000D01*
X51950000Y-79616666D01*
X52016666Y-79683333D01*
X52116666Y-79716666D01*
X52183333Y-79716666D01*
X52283333Y-79683333D01*
X52316666Y-79650000D01*
X52316666Y-79416666D01*
X52183333Y-79416666D01*
X74866666Y-79016666D02*
X74533333Y-79016666D01*
X74500000Y-79350000D01*
X74533333Y-79316666D01*
X74600000Y-79283333D01*
X74766666Y-79283333D01*
X74833333Y-79316666D01*
X74866666Y-79350000D01*
X74900000Y-79416666D01*
X74900000Y-79583333D01*
X74866666Y-79650000D01*
X74833333Y-79683333D01*
X74766666Y-79716666D01*
X74600000Y-79716666D01*
X74533333Y-79683333D01*
X74500000Y-79650000D01*
X75100000Y-79016666D02*
X75333333Y-79716666D01*
X75566666Y-79016666D01*
X72366666Y-79016666D02*
X72033333Y-79016666D01*
X72000000Y-79350000D01*
X72033333Y-79316666D01*
X72100000Y-79283333D01*
X72266666Y-79283333D01*
X72333333Y-79316666D01*
X72366666Y-79350000D01*
X72400000Y-79416666D01*
X72400000Y-79583333D01*
X72366666Y-79650000D01*
X72333333Y-79683333D01*
X72266666Y-79716666D01*
X72100000Y-79716666D01*
X72033333Y-79683333D01*
X72000000Y-79650000D01*
X72600000Y-79016666D02*
X72833333Y-79716666D01*
X73066666Y-79016666D01*
X70083333Y-79050000D02*
X70016666Y-79016666D01*
X69916666Y-79016666D01*
X69816666Y-79050000D01*
X69750000Y-79116666D01*
X69716666Y-79183333D01*
X69683333Y-79316666D01*
X69683333Y-79416666D01*
X69716666Y-79550000D01*
X69750000Y-79616666D01*
X69816666Y-79683333D01*
X69916666Y-79716666D01*
X69983333Y-79716666D01*
X70083333Y-79683333D01*
X70116666Y-79650000D01*
X70116666Y-79416666D01*
X69983333Y-79416666D01*
X59983333Y-79050000D02*
X59916666Y-79016666D01*
X59816666Y-79016666D01*
X59716666Y-79050000D01*
X59650000Y-79116666D01*
X59616666Y-79183333D01*
X59583333Y-79316666D01*
X59583333Y-79416666D01*
X59616666Y-79550000D01*
X59650000Y-79616666D01*
X59716666Y-79683333D01*
X59816666Y-79716666D01*
X59883333Y-79716666D01*
X59983333Y-79683333D01*
X60016666Y-79650000D01*
X60016666Y-79416666D01*
X59883333Y-79416666D01*
X54266666Y-79683333D02*
X54366666Y-79716666D01*
X54533333Y-79716666D01*
X54600000Y-79683333D01*
X54633333Y-79650000D01*
X54666666Y-79583333D01*
X54666666Y-79516666D01*
X54633333Y-79450000D01*
X54600000Y-79416666D01*
X54533333Y-79383333D01*
X54400000Y-79350000D01*
X54333333Y-79316666D01*
X54300000Y-79283333D01*
X54266666Y-79216666D01*
X54266666Y-79150000D01*
X54300000Y-79083333D01*
X54333333Y-79050000D01*
X54400000Y-79016666D01*
X54566666Y-79016666D01*
X54666666Y-79050000D01*
X54933333Y-79083333D02*
X54966666Y-79050000D01*
X55033333Y-79016666D01*
X55200000Y-79016666D01*
X55266666Y-79050000D01*
X55300000Y-79083333D01*
X55333333Y-79150000D01*
X55333333Y-79216666D01*
X55300000Y-79316666D01*
X54900000Y-79716666D01*
X55333333Y-79716666D01*
X49166666Y-79683333D02*
X49266666Y-79716666D01*
X49433333Y-79716666D01*
X49500000Y-79683333D01*
X49533333Y-79650000D01*
X49566666Y-79583333D01*
X49566666Y-79516666D01*
X49533333Y-79450000D01*
X49500000Y-79416666D01*
X49433333Y-79383333D01*
X49300000Y-79350000D01*
X49233333Y-79316666D01*
X49200000Y-79283333D01*
X49166666Y-79216666D01*
X49166666Y-79150000D01*
X49200000Y-79083333D01*
X49233333Y-79050000D01*
X49300000Y-79016666D01*
X49466666Y-79016666D01*
X49566666Y-79050000D01*
X49800000Y-79016666D02*
X50233333Y-79016666D01*
X50000000Y-79283333D01*
X50100000Y-79283333D01*
X50166666Y-79316666D01*
X50200000Y-79350000D01*
X50233333Y-79416666D01*
X50233333Y-79583333D01*
X50200000Y-79650000D01*
X50166666Y-79683333D01*
X50100000Y-79716666D01*
X49900000Y-79716666D01*
X49833333Y-79683333D01*
X49800000Y-79650000D01*
X46550000Y-79683333D02*
X46650000Y-79716666D01*
X46816666Y-79716666D01*
X46883333Y-79683333D01*
X46916666Y-79650000D01*
X46950000Y-79583333D01*
X46950000Y-79516666D01*
X46916666Y-79450000D01*
X46883333Y-79416666D01*
X46816666Y-79383333D01*
X46683333Y-79350000D01*
X46616666Y-79316666D01*
X46583333Y-79283333D01*
X46550000Y-79216666D01*
X46550000Y-79150000D01*
X46583333Y-79083333D01*
X46616666Y-79050000D01*
X46683333Y-79016666D01*
X46850000Y-79016666D01*
X46950000Y-79050000D01*
X47650000Y-79650000D02*
X47616666Y-79683333D01*
X47516666Y-79716666D01*
X47450000Y-79716666D01*
X47350000Y-79683333D01*
X47283333Y-79616666D01*
X47250000Y-79550000D01*
X47216666Y-79416666D01*
X47216666Y-79316666D01*
X47250000Y-79183333D01*
X47283333Y-79116666D01*
X47350000Y-79050000D01*
X47450000Y-79016666D01*
X47516666Y-79016666D01*
X47616666Y-79050000D01*
X47650000Y-79083333D01*
X66966666Y-79016666D02*
X67366666Y-79016666D01*
X67166666Y-79716666D02*
X67166666Y-79016666D01*
X67533333Y-79016666D02*
X68000000Y-79716666D01*
X68000000Y-79016666D02*
X67533333Y-79716666D01*
X64683333Y-79716666D02*
X64450000Y-79383333D01*
X64283333Y-79716666D02*
X64283333Y-79016666D01*
X64550000Y-79016666D01*
X64616666Y-79050000D01*
X64650000Y-79083333D01*
X64683333Y-79150000D01*
X64683333Y-79250000D01*
X64650000Y-79316666D01*
X64616666Y-79350000D01*
X64550000Y-79383333D01*
X64283333Y-79383333D01*
X64916666Y-79016666D02*
X65383333Y-79716666D01*
X65383333Y-79016666D02*
X64916666Y-79716666D01*
X71983333Y-73416666D02*
X71983333Y-72716666D01*
X72150000Y-72716666D01*
X72250000Y-72750000D01*
X72316666Y-72816666D01*
X72350000Y-72883333D01*
X72383333Y-73016666D01*
X72383333Y-73116666D01*
X72350000Y-73250000D01*
X72316666Y-73316666D01*
X72250000Y-73383333D01*
X72150000Y-73416666D01*
X71983333Y-73416666D01*
X73050000Y-73416666D02*
X72650000Y-73416666D01*
X72850000Y-73416666D02*
X72850000Y-72716666D01*
X72783333Y-72816666D01*
X72716666Y-72883333D01*
X72650000Y-72916666D01*
X69383333Y-73316666D02*
X69383333Y-72616666D01*
X69550000Y-72616666D01*
X69650000Y-72650000D01*
X69716666Y-72716666D01*
X69750000Y-72783333D01*
X69783333Y-72916666D01*
X69783333Y-73016666D01*
X69750000Y-73150000D01*
X69716666Y-73216666D01*
X69650000Y-73283333D01*
X69550000Y-73316666D01*
X69383333Y-73316666D01*
X70050000Y-72683333D02*
X70083333Y-72650000D01*
X70150000Y-72616666D01*
X70316666Y-72616666D01*
X70383333Y-72650000D01*
X70416666Y-72683333D01*
X70450000Y-72750000D01*
X70450000Y-72816666D01*
X70416666Y-72916666D01*
X70016666Y-73316666D01*
X70450000Y-73316666D01*
X66783333Y-73316666D02*
X66783333Y-72616666D01*
X66950000Y-72616666D01*
X67050000Y-72650000D01*
X67116666Y-72716666D01*
X67150000Y-72783333D01*
X67183333Y-72916666D01*
X67183333Y-73016666D01*
X67150000Y-73150000D01*
X67116666Y-73216666D01*
X67050000Y-73283333D01*
X66950000Y-73316666D01*
X66783333Y-73316666D01*
X67416666Y-72616666D02*
X67850000Y-72616666D01*
X67616666Y-72883333D01*
X67716666Y-72883333D01*
X67783333Y-72916666D01*
X67816666Y-72950000D01*
X67850000Y-73016666D01*
X67850000Y-73183333D01*
X67816666Y-73250000D01*
X67783333Y-73283333D01*
X67716666Y-73316666D01*
X67516666Y-73316666D01*
X67450000Y-73283333D01*
X67416666Y-73250000D01*
X62116666Y-73250000D02*
X62083333Y-73283333D01*
X61983333Y-73316666D01*
X61916666Y-73316666D01*
X61816666Y-73283333D01*
X61750000Y-73216666D01*
X61716666Y-73150000D01*
X61683333Y-73016666D01*
X61683333Y-72916666D01*
X61716666Y-72783333D01*
X61750000Y-72716666D01*
X61816666Y-72650000D01*
X61916666Y-72616666D01*
X61983333Y-72616666D01*
X62083333Y-72650000D01*
X62116666Y-72683333D01*
X62416666Y-73316666D02*
X62416666Y-72616666D01*
X62583333Y-72616666D01*
X62683333Y-72650000D01*
X62750000Y-72716666D01*
X62783333Y-72783333D01*
X62816666Y-72916666D01*
X62816666Y-73016666D01*
X62783333Y-73150000D01*
X62750000Y-73216666D01*
X62683333Y-73283333D01*
X62583333Y-73316666D01*
X62416666Y-73316666D01*
X59616666Y-73250000D02*
X59583333Y-73283333D01*
X59483333Y-73316666D01*
X59416666Y-73316666D01*
X59316666Y-73283333D01*
X59250000Y-73216666D01*
X59216666Y-73150000D01*
X59183333Y-73016666D01*
X59183333Y-72916666D01*
X59216666Y-72783333D01*
X59250000Y-72716666D01*
X59316666Y-72650000D01*
X59416666Y-72616666D01*
X59483333Y-72616666D01*
X59583333Y-72650000D01*
X59616666Y-72683333D01*
X60316666Y-73316666D02*
X60083333Y-72983333D01*
X59916666Y-73316666D02*
X59916666Y-72616666D01*
X60183333Y-72616666D01*
X60250000Y-72650000D01*
X60283333Y-72683333D01*
X60316666Y-72750000D01*
X60316666Y-72850000D01*
X60283333Y-72916666D01*
X60250000Y-72950000D01*
X60183333Y-72983333D01*
X59916666Y-72983333D01*
X51400000Y-73316666D02*
X51400000Y-72616666D01*
X51633333Y-73116666D01*
X51866666Y-72616666D01*
X51866666Y-73316666D01*
X52333333Y-72616666D02*
X52466666Y-72616666D01*
X52533333Y-72650000D01*
X52600000Y-72716666D01*
X52633333Y-72850000D01*
X52633333Y-73083333D01*
X52600000Y-73216666D01*
X52533333Y-73283333D01*
X52466666Y-73316666D01*
X52333333Y-73316666D01*
X52266666Y-73283333D01*
X52200000Y-73216666D01*
X52166666Y-73083333D01*
X52166666Y-72850000D01*
X52200000Y-72716666D01*
X52266666Y-72650000D01*
X52333333Y-72616666D01*
X49100000Y-73316666D02*
X49100000Y-72616666D01*
X49333333Y-73116666D01*
X49566666Y-72616666D01*
X49566666Y-73316666D01*
X49900000Y-73316666D02*
X49900000Y-72616666D01*
X46450000Y-73283333D02*
X46550000Y-73316666D01*
X46716666Y-73316666D01*
X46783333Y-73283333D01*
X46816666Y-73250000D01*
X46850000Y-73183333D01*
X46850000Y-73116666D01*
X46816666Y-73050000D01*
X46783333Y-73016666D01*
X46716666Y-72983333D01*
X46583333Y-72950000D01*
X46516666Y-72916666D01*
X46483333Y-72883333D01*
X46450000Y-72816666D01*
X46450000Y-72750000D01*
X46483333Y-72683333D01*
X46516666Y-72650000D01*
X46583333Y-72616666D01*
X46750000Y-72616666D01*
X46850000Y-72650000D01*
X47150000Y-73316666D02*
X47150000Y-72616666D01*
X47550000Y-73316666D02*
X47250000Y-72916666D01*
X47550000Y-72616666D02*
X47150000Y-73016666D01*
D11*
X30250000Y-51642857D02*
X30178571Y-51785714D01*
X30178571Y-52000000D01*
X30250000Y-52214285D01*
X30392857Y-52357142D01*
X30535714Y-52428571D01*
X30821428Y-52500000D01*
X31035714Y-52500000D01*
X31321428Y-52428571D01*
X31464285Y-52357142D01*
X31607142Y-52214285D01*
X31678571Y-52000000D01*
X31678571Y-51857142D01*
X31607142Y-51642857D01*
X31535714Y-51571428D01*
X31035714Y-51571428D01*
X31035714Y-51857142D01*
X31678571Y-50928571D02*
X30178571Y-50928571D01*
X31678571Y-50071428D01*
X30178571Y-50071428D01*
X31678571Y-49357142D02*
X30178571Y-49357142D01*
X30178571Y-49000000D01*
X30250000Y-48785714D01*
X30392857Y-48642857D01*
X30535714Y-48571428D01*
X30821428Y-48500000D01*
X31035714Y-48500000D01*
X31321428Y-48571428D01*
X31464285Y-48642857D01*
X31607142Y-48785714D01*
X31678571Y-49000000D01*
X31678571Y-49357142D01*
D12*
X29500000Y-53000000D02*
X25000000Y-53000000D01*
X29500000Y-48000000D02*
X29500000Y-53000000D01*
X25000000Y-48000000D02*
X29500000Y-48000000D01*
D11*
X30178571Y-72214285D02*
X30178571Y-71285714D01*
X30750000Y-71785714D01*
X30750000Y-71571428D01*
X30821428Y-71428571D01*
X30892857Y-71357142D01*
X31035714Y-71285714D01*
X31392857Y-71285714D01*
X31535714Y-71357142D01*
X31607142Y-71428571D01*
X31678571Y-71571428D01*
X31678571Y-72000000D01*
X31607142Y-72142857D01*
X31535714Y-72214285D01*
X31535714Y-70642857D02*
X31607142Y-70571428D01*
X31678571Y-70642857D01*
X31607142Y-70714285D01*
X31535714Y-70642857D01*
X31678571Y-70642857D01*
X30178571Y-70071428D02*
X30178571Y-69142857D01*
X30750000Y-69642857D01*
X30750000Y-69428571D01*
X30821428Y-69285714D01*
X30892857Y-69214285D01*
X31035714Y-69142857D01*
X31392857Y-69142857D01*
X31535714Y-69214285D01*
X31607142Y-69285714D01*
X31678571Y-69428571D01*
X31678571Y-69857142D01*
X31607142Y-70000000D01*
X31535714Y-70071428D01*
X30178571Y-68714285D02*
X31678571Y-68214285D01*
X30178571Y-67714285D01*
D12*
X95885714Y-76152380D02*
X95314285Y-76152380D01*
X95600000Y-76152380D02*
X95600000Y-75152380D01*
X95504761Y-75295238D01*
X95409523Y-75390476D01*
X95314285Y-75438095D01*
X97814285Y-75247619D02*
X97861904Y-75200000D01*
X97957142Y-75152380D01*
X98195238Y-75152380D01*
X98290476Y-75200000D01*
X98338095Y-75247619D01*
X98385714Y-75342857D01*
X98385714Y-75438095D01*
X98338095Y-75580952D01*
X97766666Y-76152380D01*
X98385714Y-76152380D01*
X100266666Y-75152380D02*
X100885714Y-75152380D01*
X100552380Y-75533333D01*
X100695238Y-75533333D01*
X100790476Y-75580952D01*
X100838095Y-75628571D01*
X100885714Y-75723809D01*
X100885714Y-75961904D01*
X100838095Y-76057142D01*
X100790476Y-76104761D01*
X100695238Y-76152380D01*
X100409523Y-76152380D01*
X100314285Y-76104761D01*
X100266666Y-76057142D01*
X103290476Y-75485714D02*
X103290476Y-76152380D01*
X103052380Y-75104761D02*
X102814285Y-75819047D01*
X103433333Y-75819047D01*
X105961904Y-75200000D02*
X105866666Y-75152380D01*
X105723809Y-75152380D01*
X105580952Y-75200000D01*
X105485714Y-75295238D01*
X105438095Y-75390476D01*
X105390476Y-75580952D01*
X105390476Y-75723809D01*
X105438095Y-75914285D01*
X105485714Y-76009523D01*
X105580952Y-76104761D01*
X105723809Y-76152380D01*
X105819047Y-76152380D01*
X105961904Y-76104761D01*
X106009523Y-76057142D01*
X106009523Y-75723809D01*
X105819047Y-75723809D01*
X107538095Y-75152380D02*
X108157142Y-75152380D01*
X107823809Y-75533333D01*
X107966666Y-75533333D01*
X108061904Y-75580952D01*
X108109523Y-75628571D01*
X108157142Y-75723809D01*
X108157142Y-75961904D01*
X108109523Y-76057142D01*
X108061904Y-76104761D01*
X107966666Y-76152380D01*
X107680952Y-76152380D01*
X107585714Y-76104761D01*
X107538095Y-76057142D01*
X108442857Y-75152380D02*
X108776190Y-76152380D01*
X109109523Y-75152380D01*
D13*
X36738095Y-60190476D02*
X37538095Y-60190476D01*
X37538095Y-60495238D01*
X37500000Y-60571428D01*
X37461904Y-60609523D01*
X37385714Y-60647619D01*
X37271428Y-60647619D01*
X37195238Y-60609523D01*
X37157142Y-60571428D01*
X37119047Y-60495238D01*
X37119047Y-60190476D01*
X36738095Y-60990476D02*
X37538095Y-60990476D01*
X37538095Y-61180952D01*
X37500000Y-61295238D01*
X37423809Y-61371428D01*
X37347619Y-61409523D01*
X37195238Y-61447619D01*
X37080952Y-61447619D01*
X36928571Y-61409523D01*
X36852380Y-61371428D01*
X36776190Y-61295238D01*
X36738095Y-61180952D01*
X36738095Y-60990476D01*
D14*
X97264166Y-55383333D02*
X97230833Y-55350000D01*
X97164166Y-55250000D01*
X97130833Y-55183333D01*
X97097500Y-55083333D01*
X97064166Y-54916666D01*
X97064166Y-54783333D01*
X97097500Y-54616666D01*
X97130833Y-54516666D01*
X97164166Y-54450000D01*
X97230833Y-54350000D01*
X97264166Y-54316666D01*
X97830833Y-55083333D02*
X97764166Y-55116666D01*
X97630833Y-55116666D01*
X97564166Y-55083333D01*
X97530833Y-55050000D01*
X97497500Y-54983333D01*
X97497500Y-54783333D01*
X97530833Y-54716666D01*
X97564166Y-54683333D01*
X97630833Y-54650000D01*
X97764166Y-54650000D01*
X97830833Y-54683333D01*
X98064166Y-55383333D02*
X98097500Y-55350000D01*
X98164166Y-55250000D01*
X98197500Y-55183333D01*
X98230833Y-55083333D01*
X98264166Y-54916666D01*
X98264166Y-54783333D01*
X98230833Y-54616666D01*
X98197500Y-54516666D01*
X98164166Y-54450000D01*
X98097500Y-54350000D01*
X98064166Y-54316666D01*
X99097500Y-55083333D02*
X99164166Y-55116666D01*
X99297500Y-55116666D01*
X99364166Y-55083333D01*
X99397500Y-55016666D01*
X99397500Y-54983333D01*
X99364166Y-54916666D01*
X99297500Y-54883333D01*
X99197500Y-54883333D01*
X99130833Y-54850000D01*
X99097500Y-54783333D01*
X99097500Y-54750000D01*
X99130833Y-54683333D01*
X99197500Y-54650000D01*
X99297500Y-54650000D01*
X99364166Y-54683333D01*
X99964166Y-55083333D02*
X99897500Y-55116666D01*
X99764166Y-55116666D01*
X99697500Y-55083333D01*
X99664166Y-55016666D01*
X99664166Y-54750000D01*
X99697500Y-54683333D01*
X99764166Y-54650000D01*
X99897500Y-54650000D01*
X99964166Y-54683333D01*
X99997500Y-54750000D01*
X99997500Y-54816666D01*
X99664166Y-54883333D01*
X100597500Y-55116666D02*
X100597500Y-54750000D01*
X100564166Y-54683333D01*
X100497500Y-54650000D01*
X100364166Y-54650000D01*
X100297500Y-54683333D01*
X100597500Y-55083333D02*
X100530833Y-55116666D01*
X100364166Y-55116666D01*
X100297500Y-55083333D01*
X100264166Y-55016666D01*
X100264166Y-54950000D01*
X100297500Y-54883333D01*
X100364166Y-54850000D01*
X100530833Y-54850000D01*
X100597500Y-54816666D01*
X100930833Y-54650000D02*
X100930833Y-55116666D01*
X100930833Y-54716666D02*
X100964166Y-54683333D01*
X101030833Y-54650000D01*
X101130833Y-54650000D01*
X101197500Y-54683333D01*
X101230833Y-54750000D01*
X101230833Y-55116666D01*
X101997500Y-54783333D02*
X101964166Y-54750000D01*
X101897500Y-54716666D01*
X101830833Y-54716666D01*
X101764166Y-54750000D01*
X101730833Y-54783333D01*
X101697500Y-54850000D01*
X101697500Y-54916666D01*
X101730833Y-54983333D01*
X101764166Y-55016666D01*
X101830833Y-55050000D01*
X101897500Y-55050000D01*
X101964166Y-55016666D01*
X101997500Y-54983333D01*
X101997500Y-54716666D02*
X101997500Y-54983333D01*
X102030833Y-55016666D01*
X102064166Y-55016666D01*
X102130833Y-54983333D01*
X102164166Y-54916666D01*
X102164166Y-54750000D01*
X102097500Y-54650000D01*
X101997500Y-54583333D01*
X101864166Y-54550000D01*
X101730833Y-54583333D01*
X101630833Y-54650000D01*
X101564166Y-54750000D01*
X101530833Y-54883333D01*
X101564166Y-55016666D01*
X101630833Y-55116666D01*
X101730833Y-55183333D01*
X101864166Y-55216666D01*
X101997500Y-55183333D01*
X102097500Y-55116666D01*
X102397500Y-55116666D02*
X102764166Y-54650000D01*
X102397500Y-54650000D02*
X102764166Y-55116666D01*
X103130833Y-55116666D02*
X103064166Y-55083333D01*
X103030833Y-55050000D01*
X102997500Y-54983333D01*
X102997500Y-54783333D01*
X103030833Y-54716666D01*
X103064166Y-54683333D01*
X103130833Y-54650000D01*
X103230833Y-54650000D01*
X103297500Y-54683333D01*
X103330833Y-54716666D01*
X103364166Y-54783333D01*
X103364166Y-54983333D01*
X103330833Y-55050000D01*
X103297500Y-55083333D01*
X103230833Y-55116666D01*
X103130833Y-55116666D01*
X103664166Y-55116666D02*
X103664166Y-54416666D01*
X103664166Y-54683333D02*
X103730833Y-54650000D01*
X103864166Y-54650000D01*
X103930833Y-54683333D01*
X103964166Y-54716666D01*
X103997500Y-54783333D01*
X103997500Y-54983333D01*
X103964166Y-55050000D01*
X103930833Y-55083333D01*
X103864166Y-55116666D01*
X103730833Y-55116666D01*
X103664166Y-55083333D01*
X104264166Y-55083333D02*
X104330833Y-55116666D01*
X104464166Y-55116666D01*
X104530833Y-55083333D01*
X104564166Y-55016666D01*
X104564166Y-54983333D01*
X104530833Y-54916666D01*
X104464166Y-54883333D01*
X104364166Y-54883333D01*
X104297500Y-54850000D01*
X104264166Y-54783333D01*
X104264166Y-54750000D01*
X104297500Y-54683333D01*
X104364166Y-54650000D01*
X104464166Y-54650000D01*
X104530833Y-54683333D01*
X104864166Y-55050000D02*
X104897500Y-55083333D01*
X104864166Y-55116666D01*
X104830833Y-55083333D01*
X104864166Y-55050000D01*
X104864166Y-55116666D01*
X105197500Y-55116666D02*
X105197500Y-54650000D01*
X105197500Y-54416666D02*
X105164166Y-54450000D01*
X105197500Y-54483333D01*
X105230833Y-54450000D01*
X105197500Y-54416666D01*
X105197500Y-54483333D01*
X105630833Y-55116666D02*
X105564166Y-55083333D01*
X105530833Y-55050000D01*
X105497500Y-54983333D01*
X105497500Y-54783333D01*
X105530833Y-54716666D01*
X105564166Y-54683333D01*
X105630833Y-54650000D01*
X105730833Y-54650000D01*
X105797500Y-54683333D01*
X105830833Y-54716666D01*
X105864166Y-54783333D01*
X105864166Y-54983333D01*
X105830833Y-55050000D01*
X105797500Y-55083333D01*
X105730833Y-55116666D01*
X105630833Y-55116666D01*
X97030833Y-56116666D02*
X97364166Y-56116666D01*
X96964166Y-56316666D02*
X97197500Y-55616666D01*
X97430833Y-56316666D01*
X97664166Y-55850000D02*
X97664166Y-56550000D01*
X97664166Y-55883333D02*
X97730833Y-55850000D01*
X97864166Y-55850000D01*
X97930833Y-55883333D01*
X97964166Y-55916666D01*
X97997500Y-55983333D01*
X97997500Y-56183333D01*
X97964166Y-56250000D01*
X97930833Y-56283333D01*
X97864166Y-56316666D01*
X97730833Y-56316666D01*
X97664166Y-56283333D01*
X98597500Y-56316666D02*
X98597500Y-55950000D01*
X98564166Y-55883333D01*
X98497500Y-55850000D01*
X98364166Y-55850000D01*
X98297500Y-55883333D01*
X98597500Y-56283333D02*
X98530833Y-56316666D01*
X98364166Y-56316666D01*
X98297500Y-56283333D01*
X98264166Y-56216666D01*
X98264166Y-56150000D01*
X98297500Y-56083333D01*
X98364166Y-56050000D01*
X98530833Y-56050000D01*
X98597500Y-56016666D01*
X99230833Y-56283333D02*
X99164166Y-56316666D01*
X99030833Y-56316666D01*
X98964166Y-56283333D01*
X98930833Y-56250000D01*
X98897500Y-56183333D01*
X98897500Y-55983333D01*
X98930833Y-55916666D01*
X98964166Y-55883333D01*
X99030833Y-55850000D01*
X99164166Y-55850000D01*
X99230833Y-55883333D01*
X99530833Y-56316666D02*
X99530833Y-55616666D01*
X99830833Y-56316666D02*
X99830833Y-55950000D01*
X99797500Y-55883333D01*
X99730833Y-55850000D01*
X99630833Y-55850000D01*
X99564166Y-55883333D01*
X99530833Y-55916666D01*
X100430833Y-56283333D02*
X100364166Y-56316666D01*
X100230833Y-56316666D01*
X100164166Y-56283333D01*
X100130833Y-56216666D01*
X100130833Y-55950000D01*
X100164166Y-55883333D01*
X100230833Y-55850000D01*
X100364166Y-55850000D01*
X100430833Y-55883333D01*
X100464166Y-55950000D01*
X100464166Y-56016666D01*
X100130833Y-56083333D01*
X101264166Y-55683333D02*
X101297500Y-55650000D01*
X101364166Y-55616666D01*
X101530833Y-55616666D01*
X101597500Y-55650000D01*
X101630833Y-55683333D01*
X101664166Y-55750000D01*
X101664166Y-55816666D01*
X101630833Y-55916666D01*
X101230833Y-56316666D01*
X101664166Y-56316666D01*
X101964166Y-56250000D02*
X101997500Y-56283333D01*
X101964166Y-56316666D01*
X101930833Y-56283333D01*
X101964166Y-56250000D01*
X101964166Y-56316666D01*
X102430833Y-55616666D02*
X102497500Y-55616666D01*
X102564166Y-55650000D01*
X102597500Y-55683333D01*
X102630833Y-55750000D01*
X102664166Y-55883333D01*
X102664166Y-56050000D01*
X102630833Y-56183333D01*
X102597500Y-56250000D01*
X102564166Y-56283333D01*
X102497500Y-56316666D01*
X102430833Y-56316666D01*
X102364166Y-56283333D01*
X102330833Y-56250000D01*
X102297500Y-56183333D01*
X102264166Y-56050000D01*
X102264166Y-55883333D01*
X102297500Y-55750000D01*
X102330833Y-55683333D01*
X102364166Y-55650000D01*
X102430833Y-55616666D01*
X103830833Y-56316666D02*
X103497500Y-56316666D01*
X103497500Y-55616666D01*
X104064166Y-56316666D02*
X104064166Y-55850000D01*
X104064166Y-55616666D02*
X104030833Y-55650000D01*
X104064166Y-55683333D01*
X104097500Y-55650000D01*
X104064166Y-55616666D01*
X104064166Y-55683333D01*
X104697500Y-56283333D02*
X104630833Y-56316666D01*
X104497500Y-56316666D01*
X104430833Y-56283333D01*
X104397500Y-56250000D01*
X104364166Y-56183333D01*
X104364166Y-55983333D01*
X104397500Y-55916666D01*
X104430833Y-55883333D01*
X104497500Y-55850000D01*
X104630833Y-55850000D01*
X104697500Y-55883333D01*
X105264166Y-56283333D02*
X105197500Y-56316666D01*
X105064166Y-56316666D01*
X104997500Y-56283333D01*
X104964166Y-56216666D01*
X104964166Y-55950000D01*
X104997500Y-55883333D01*
X105064166Y-55850000D01*
X105197500Y-55850000D01*
X105264166Y-55883333D01*
X105297500Y-55950000D01*
X105297500Y-56016666D01*
X104964166Y-56083333D01*
X105597500Y-55850000D02*
X105597500Y-56316666D01*
X105597500Y-55916666D02*
X105630833Y-55883333D01*
X105697500Y-55850000D01*
X105797500Y-55850000D01*
X105864166Y-55883333D01*
X105897500Y-55950000D01*
X105897500Y-56316666D01*
X106197500Y-56283333D02*
X106264166Y-56316666D01*
X106397500Y-56316666D01*
X106464166Y-56283333D01*
X106497500Y-56216666D01*
X106497500Y-56183333D01*
X106464166Y-56116666D01*
X106397500Y-56083333D01*
X106297500Y-56083333D01*
X106230833Y-56050000D01*
X106197500Y-55983333D01*
X106197500Y-55950000D01*
X106230833Y-55883333D01*
X106297500Y-55850000D01*
X106397500Y-55850000D01*
X106464166Y-55883333D01*
X107064166Y-56283333D02*
X106997500Y-56316666D01*
X106864166Y-56316666D01*
X106797500Y-56283333D01*
X106764166Y-56216666D01*
X106764166Y-55950000D01*
X106797500Y-55883333D01*
X106864166Y-55850000D01*
X106997500Y-55850000D01*
X107064166Y-55883333D01*
X107097500Y-55950000D01*
X107097500Y-56016666D01*
X106764166Y-56083333D01*
D15*
X97256547Y-59688095D02*
X97999404Y-59688095D01*
X97627976Y-60988095D02*
X97627976Y-59688095D01*
X98618452Y-60988095D02*
X98494642Y-60926190D01*
X98432738Y-60864285D01*
X98370833Y-60740476D01*
X98370833Y-60369047D01*
X98432738Y-60245238D01*
X98494642Y-60183333D01*
X98618452Y-60121428D01*
X98804166Y-60121428D01*
X98927976Y-60183333D01*
X98989880Y-60245238D01*
X99051785Y-60369047D01*
X99051785Y-60740476D01*
X98989880Y-60864285D01*
X98927976Y-60926190D01*
X98804166Y-60988095D01*
X98618452Y-60988095D01*
X99608928Y-60988095D02*
X99608928Y-60121428D01*
X99608928Y-60245238D02*
X99670833Y-60183333D01*
X99794642Y-60121428D01*
X99980357Y-60121428D01*
X100104166Y-60183333D01*
X100166071Y-60307142D01*
X100166071Y-60988095D01*
X100166071Y-60307142D02*
X100227976Y-60183333D01*
X100351785Y-60121428D01*
X100537500Y-60121428D01*
X100661309Y-60183333D01*
X100723214Y-60307142D01*
X100723214Y-60988095D01*
X101899404Y-60121428D02*
X101899404Y-60988095D01*
X101342261Y-60121428D02*
X101342261Y-60802380D01*
X101404166Y-60926190D01*
X101527976Y-60988095D01*
X101713690Y-60988095D01*
X101837500Y-60926190D01*
X101899404Y-60864285D01*
X103942261Y-60307142D02*
X103508928Y-60307142D01*
X103508928Y-60988095D02*
X103508928Y-59688095D01*
X104127976Y-59688095D01*
X104623214Y-60988095D02*
X104623214Y-59688095D01*
X105118452Y-59688095D01*
X105242261Y-59750000D01*
X105304166Y-59811904D01*
X105366071Y-59935714D01*
X105366071Y-60121428D01*
X105304166Y-60245238D01*
X105242261Y-60307142D01*
X105118452Y-60369047D01*
X104623214Y-60369047D01*
X106604166Y-59750000D02*
X106480357Y-59688095D01*
X106294642Y-59688095D01*
X106108928Y-59750000D01*
X105985119Y-59873809D01*
X105923214Y-59997619D01*
X105861309Y-60245238D01*
X105861309Y-60430952D01*
X105923214Y-60678571D01*
X105985119Y-60802380D01*
X106108928Y-60926190D01*
X106294642Y-60988095D01*
X106418452Y-60988095D01*
X106604166Y-60926190D01*
X106666071Y-60864285D01*
X106666071Y-60430952D01*
X106418452Y-60430952D01*
X107161309Y-60616666D02*
X107780357Y-60616666D01*
X107037500Y-60988095D02*
X107470833Y-59688095D01*
X107904166Y-60988095D01*
X109327976Y-60307142D02*
X109761309Y-60307142D01*
X109947023Y-60988095D02*
X109327976Y-60988095D01*
X109327976Y-59688095D01*
X109947023Y-59688095D01*
X110318452Y-59688095D02*
X110751785Y-60988095D01*
X111185119Y-59688095D01*
X111432738Y-59688095D02*
X112175595Y-59688095D01*
X111804166Y-60988095D02*
X111804166Y-59688095D01*
X112547023Y-59811904D02*
X112608928Y-59750000D01*
X112732738Y-59688095D01*
X113042261Y-59688095D01*
X113166071Y-59750000D01*
X113227976Y-59811904D01*
X113289880Y-59935714D01*
X113289880Y-60059523D01*
X113227976Y-60245238D01*
X112485119Y-60988095D01*
X113289880Y-60988095D01*
X102332738Y-63188095D02*
X102332738Y-61888095D01*
X102642261Y-61888095D01*
X102827976Y-61950000D01*
X102951785Y-62073809D01*
X103013690Y-62197619D01*
X103075595Y-62445238D01*
X103075595Y-62630952D01*
X103013690Y-62878571D01*
X102951785Y-63002380D01*
X102827976Y-63126190D01*
X102642261Y-63188095D01*
X102332738Y-63188095D01*
X104127976Y-63126190D02*
X104004166Y-63188095D01*
X103756547Y-63188095D01*
X103632738Y-63126190D01*
X103570833Y-63002380D01*
X103570833Y-62507142D01*
X103632738Y-62383333D01*
X103756547Y-62321428D01*
X104004166Y-62321428D01*
X104127976Y-62383333D01*
X104189880Y-62507142D01*
X104189880Y-62630952D01*
X103570833Y-62754761D01*
X104685119Y-63126190D02*
X104808928Y-63188095D01*
X105056547Y-63188095D01*
X105180357Y-63126190D01*
X105242261Y-63002380D01*
X105242261Y-62940476D01*
X105180357Y-62816666D01*
X105056547Y-62754761D01*
X104870833Y-62754761D01*
X104747023Y-62692857D01*
X104685119Y-62569047D01*
X104685119Y-62507142D01*
X104747023Y-62383333D01*
X104870833Y-62321428D01*
X105056547Y-62321428D01*
X105180357Y-62383333D01*
X105799404Y-63188095D02*
X105799404Y-62321428D01*
X105799404Y-61888095D02*
X105737500Y-61950000D01*
X105799404Y-62011904D01*
X105861309Y-61950000D01*
X105799404Y-61888095D01*
X105799404Y-62011904D01*
X106975595Y-62321428D02*
X106975595Y-63373809D01*
X106913690Y-63497619D01*
X106851785Y-63559523D01*
X106727976Y-63621428D01*
X106542261Y-63621428D01*
X106418452Y-63559523D01*
X106975595Y-63126190D02*
X106851785Y-63188095D01*
X106604166Y-63188095D01*
X106480357Y-63126190D01*
X106418452Y-63064285D01*
X106356547Y-62940476D01*
X106356547Y-62569047D01*
X106418452Y-62445238D01*
X106480357Y-62383333D01*
X106604166Y-62321428D01*
X106851785Y-62321428D01*
X106975595Y-62383333D01*
X107594642Y-62321428D02*
X107594642Y-63188095D01*
X107594642Y-62445238D02*
X107656547Y-62383333D01*
X107780357Y-62321428D01*
X107966071Y-62321428D01*
X108089880Y-62383333D01*
X108151785Y-62507142D01*
X108151785Y-63188095D01*
X109266071Y-63126190D02*
X109142261Y-63188095D01*
X108894642Y-63188095D01*
X108770833Y-63126190D01*
X108708928Y-63002380D01*
X108708928Y-62507142D01*
X108770833Y-62383333D01*
X108894642Y-62321428D01*
X109142261Y-62321428D01*
X109266071Y-62383333D01*
X109327976Y-62507142D01*
X109327976Y-62630952D01*
X108708928Y-62754761D01*
X110442261Y-63188095D02*
X110442261Y-61888095D01*
X110442261Y-63126190D02*
X110318452Y-63188095D01*
X110070833Y-63188095D01*
X109947023Y-63126190D01*
X109885119Y-63064285D01*
X109823214Y-62940476D01*
X109823214Y-62569047D01*
X109885119Y-62445238D01*
X109947023Y-62383333D01*
X110070833Y-62321428D01*
X110318452Y-62321428D01*
X110442261Y-62383333D01*
X112051785Y-63188095D02*
X112051785Y-62321428D01*
X112051785Y-61888095D02*
X111989880Y-61950000D01*
X112051785Y-62011904D01*
X112113690Y-61950000D01*
X112051785Y-61888095D01*
X112051785Y-62011904D01*
X112670833Y-62321428D02*
X112670833Y-63188095D01*
X112670833Y-62445238D02*
X112732738Y-62383333D01*
X112856547Y-62321428D01*
X113042261Y-62321428D01*
X113166071Y-62383333D01*
X113227976Y-62507142D01*
X113227976Y-63188095D01*
X104127976Y-65326190D02*
X104313690Y-65388095D01*
X104623214Y-65388095D01*
X104747023Y-65326190D01*
X104808928Y-65264285D01*
X104870833Y-65140476D01*
X104870833Y-65016666D01*
X104808928Y-64892857D01*
X104747023Y-64830952D01*
X104623214Y-64769047D01*
X104375595Y-64707142D01*
X104251785Y-64645238D01*
X104189880Y-64583333D01*
X104127976Y-64459523D01*
X104127976Y-64335714D01*
X104189880Y-64211904D01*
X104251785Y-64150000D01*
X104375595Y-64088095D01*
X104685119Y-64088095D01*
X104870833Y-64150000D01*
X105427976Y-65388095D02*
X105427976Y-64521428D01*
X105427976Y-64088095D02*
X105366071Y-64150000D01*
X105427976Y-64211904D01*
X105489880Y-64150000D01*
X105427976Y-64088095D01*
X105427976Y-64211904D01*
X106047023Y-64521428D02*
X106047023Y-65388095D01*
X106047023Y-64645238D02*
X106108928Y-64583333D01*
X106232738Y-64521428D01*
X106418452Y-64521428D01*
X106542261Y-64583333D01*
X106604166Y-64707142D01*
X106604166Y-65388095D01*
X107780357Y-64521428D02*
X107780357Y-65573809D01*
X107718452Y-65697619D01*
X107656547Y-65759523D01*
X107532738Y-65821428D01*
X107347023Y-65821428D01*
X107223214Y-65759523D01*
X107780357Y-65326190D02*
X107656547Y-65388095D01*
X107408928Y-65388095D01*
X107285119Y-65326190D01*
X107223214Y-65264285D01*
X107161309Y-65140476D01*
X107161309Y-64769047D01*
X107223214Y-64645238D01*
X107285119Y-64583333D01*
X107408928Y-64521428D01*
X107656547Y-64521428D01*
X107780357Y-64583333D01*
X108956547Y-65388095D02*
X108956547Y-64707142D01*
X108894642Y-64583333D01*
X108770833Y-64521428D01*
X108523214Y-64521428D01*
X108399404Y-64583333D01*
X108956547Y-65326190D02*
X108832738Y-65388095D01*
X108523214Y-65388095D01*
X108399404Y-65326190D01*
X108337500Y-65202380D01*
X108337500Y-65078571D01*
X108399404Y-64954761D01*
X108523214Y-64892857D01*
X108832738Y-64892857D01*
X108956547Y-64830952D01*
X109575595Y-64521428D02*
X109575595Y-65821428D01*
X109575595Y-64583333D02*
X109699404Y-64521428D01*
X109947023Y-64521428D01*
X110070833Y-64583333D01*
X110132738Y-64645238D01*
X110194642Y-64769047D01*
X110194642Y-65140476D01*
X110132738Y-65264285D01*
X110070833Y-65326190D01*
X109947023Y-65388095D01*
X109699404Y-65388095D01*
X109575595Y-65326190D01*
X110937500Y-65388095D02*
X110813690Y-65326190D01*
X110751785Y-65264285D01*
X110689880Y-65140476D01*
X110689880Y-64769047D01*
X110751785Y-64645238D01*
X110813690Y-64583333D01*
X110937500Y-64521428D01*
X111123214Y-64521428D01*
X111247023Y-64583333D01*
X111308928Y-64645238D01*
X111370833Y-64769047D01*
X111370833Y-65140476D01*
X111308928Y-65264285D01*
X111247023Y-65326190D01*
X111123214Y-65388095D01*
X110937500Y-65388095D01*
X111927976Y-65388095D02*
X111927976Y-64521428D01*
X111927976Y-64769047D02*
X111989880Y-64645238D01*
X112051785Y-64583333D01*
X112175595Y-64521428D01*
X112299404Y-64521428D01*
X113227976Y-65326190D02*
X113104166Y-65388095D01*
X112856547Y-65388095D01*
X112732738Y-65326190D01*
X112670833Y-65202380D01*
X112670833Y-64707142D01*
X112732738Y-64583333D01*
X112856547Y-64521428D01*
X113104166Y-64521428D01*
X113227976Y-64583333D01*
X113289880Y-64707142D01*
X113289880Y-64830952D01*
X112670833Y-64954761D01*
X105737500Y-67588095D02*
X104994642Y-67588095D01*
X105366071Y-67588095D02*
X105366071Y-66288095D01*
X105242261Y-66473809D01*
X105118452Y-66597619D01*
X104994642Y-66659523D01*
X106232738Y-66411904D02*
X106294642Y-66350000D01*
X106418452Y-66288095D01*
X106727976Y-66288095D01*
X106851785Y-66350000D01*
X106913690Y-66411904D01*
X106975595Y-66535714D01*
X106975595Y-66659523D01*
X106913690Y-66845238D01*
X106170833Y-67588095D01*
X106975595Y-67588095D01*
X108461309Y-66226190D02*
X107347023Y-67897619D01*
X108832738Y-66411904D02*
X108894642Y-66350000D01*
X109018452Y-66288095D01*
X109327976Y-66288095D01*
X109451785Y-66350000D01*
X109513690Y-66411904D01*
X109575595Y-66535714D01*
X109575595Y-66659523D01*
X109513690Y-66845238D01*
X108770833Y-67588095D01*
X109575595Y-67588095D01*
X110380357Y-66288095D02*
X110504166Y-66288095D01*
X110627976Y-66350000D01*
X110689880Y-66411904D01*
X110751785Y-66535714D01*
X110813690Y-66783333D01*
X110813690Y-67092857D01*
X110751785Y-67340476D01*
X110689880Y-67464285D01*
X110627976Y-67526190D01*
X110504166Y-67588095D01*
X110380357Y-67588095D01*
X110256547Y-67526190D01*
X110194642Y-67464285D01*
X110132738Y-67340476D01*
X110070833Y-67092857D01*
X110070833Y-66783333D01*
X110132738Y-66535714D01*
X110194642Y-66411904D01*
X110256547Y-66350000D01*
X110380357Y-66288095D01*
X112051785Y-67588095D02*
X111308928Y-67588095D01*
X111680357Y-67588095D02*
X111680357Y-66288095D01*
X111556547Y-66473809D01*
X111432738Y-66597619D01*
X111308928Y-66659523D01*
X112794642Y-66845238D02*
X112670833Y-66783333D01*
X112608928Y-66721428D01*
X112547023Y-66597619D01*
X112547023Y-66535714D01*
X112608928Y-66411904D01*
X112670833Y-66350000D01*
X112794642Y-66288095D01*
X113042261Y-66288095D01*
X113166071Y-66350000D01*
X113227976Y-66411904D01*
X113289880Y-66535714D01*
X113289880Y-66597619D01*
X113227976Y-66721428D01*
X113166071Y-66783333D01*
X113042261Y-66845238D01*
X112794642Y-66845238D01*
X112670833Y-66907142D01*
X112608928Y-66969047D01*
X112547023Y-67092857D01*
X112547023Y-67340476D01*
X112608928Y-67464285D01*
X112670833Y-67526190D01*
X112794642Y-67588095D01*
X113042261Y-67588095D01*
X113166071Y-67526190D01*
X113227976Y-67464285D01*
X113289880Y-67340476D01*
X113289880Y-67092857D01*
X113227976Y-66969047D01*
X113166071Y-66907142D01*
X113042261Y-66845238D01*
X93170833Y-68921428D02*
X93666071Y-68921428D01*
X93356547Y-68488095D02*
X93356547Y-69602380D01*
X93418452Y-69726190D01*
X93542261Y-69788095D01*
X93666071Y-69788095D01*
X94285119Y-69788095D02*
X94161309Y-69726190D01*
X94099404Y-69664285D01*
X94037500Y-69540476D01*
X94037500Y-69169047D01*
X94099404Y-69045238D01*
X94161309Y-68983333D01*
X94285119Y-68921428D01*
X94470833Y-68921428D01*
X94594642Y-68983333D01*
X94656547Y-69045238D01*
X94718452Y-69169047D01*
X94718452Y-69540476D01*
X94656547Y-69664285D01*
X94594642Y-69726190D01*
X94470833Y-69788095D01*
X94285119Y-69788095D01*
X95275595Y-69788095D02*
X95275595Y-68921428D01*
X95275595Y-69045238D02*
X95337500Y-68983333D01*
X95461309Y-68921428D01*
X95647023Y-68921428D01*
X95770833Y-68983333D01*
X95832738Y-69107142D01*
X95832738Y-69788095D01*
X95832738Y-69107142D02*
X95894642Y-68983333D01*
X96018452Y-68921428D01*
X96204166Y-68921428D01*
X96327976Y-68983333D01*
X96389880Y-69107142D01*
X96389880Y-69788095D01*
X97566071Y-68921428D02*
X97566071Y-69788095D01*
X97008928Y-68921428D02*
X97008928Y-69602380D01*
X97070833Y-69726190D01*
X97194642Y-69788095D01*
X97380357Y-69788095D01*
X97504166Y-69726190D01*
X97566071Y-69664285D01*
X98185119Y-69664285D02*
X98247023Y-69726190D01*
X98185119Y-69788095D01*
X98123214Y-69726190D01*
X98185119Y-69664285D01*
X98185119Y-69788095D01*
X98804166Y-69788095D02*
X98804166Y-68921428D01*
X98804166Y-68488095D02*
X98742261Y-68550000D01*
X98804166Y-68611904D01*
X98866071Y-68550000D01*
X98804166Y-68488095D01*
X98804166Y-68611904D01*
X99423214Y-69788095D02*
X99423214Y-68921428D01*
X99423214Y-69045238D02*
X99485119Y-68983333D01*
X99608928Y-68921428D01*
X99794642Y-68921428D01*
X99918452Y-68983333D01*
X99980357Y-69107142D01*
X99980357Y-69788095D01*
X99980357Y-69107142D02*
X100042261Y-68983333D01*
X100166071Y-68921428D01*
X100351785Y-68921428D01*
X100475595Y-68983333D01*
X100537500Y-69107142D01*
X100537500Y-69788095D01*
X102085119Y-68426190D02*
X100970833Y-70097619D01*
X102332738Y-68921428D02*
X102827976Y-68921428D01*
X102518452Y-69788095D02*
X102518452Y-68673809D01*
X102580357Y-68550000D01*
X102704166Y-68488095D01*
X102827976Y-68488095D01*
X103261309Y-68921428D02*
X103261309Y-70221428D01*
X103261309Y-68983333D02*
X103385119Y-68921428D01*
X103632738Y-68921428D01*
X103756547Y-68983333D01*
X103818452Y-69045238D01*
X103880357Y-69169047D01*
X103880357Y-69540476D01*
X103818452Y-69664285D01*
X103756547Y-69726190D01*
X103632738Y-69788095D01*
X103385119Y-69788095D01*
X103261309Y-69726190D01*
X104994642Y-68921428D02*
X104994642Y-69973809D01*
X104932738Y-70097619D01*
X104870833Y-70159523D01*
X104747023Y-70221428D01*
X104561309Y-70221428D01*
X104437500Y-70159523D01*
X104994642Y-69726190D02*
X104870833Y-69788095D01*
X104623214Y-69788095D01*
X104499404Y-69726190D01*
X104437500Y-69664285D01*
X104375595Y-69540476D01*
X104375595Y-69169047D01*
X104437500Y-69045238D01*
X104499404Y-68983333D01*
X104623214Y-68921428D01*
X104870833Y-68921428D01*
X104994642Y-68983333D01*
X106170833Y-69788095D02*
X106170833Y-69107142D01*
X106108928Y-68983333D01*
X105985119Y-68921428D01*
X105737500Y-68921428D01*
X105613690Y-68983333D01*
X106170833Y-69726190D02*
X106047023Y-69788095D01*
X105737500Y-69788095D01*
X105613690Y-69726190D01*
X105551785Y-69602380D01*
X105551785Y-69478571D01*
X105613690Y-69354761D01*
X105737500Y-69292857D01*
X106047023Y-69292857D01*
X106170833Y-69230952D01*
X106789880Y-69292857D02*
X107780357Y-69292857D01*
X108894642Y-69726190D02*
X108770833Y-69788095D01*
X108523214Y-69788095D01*
X108399404Y-69726190D01*
X108337500Y-69602380D01*
X108337500Y-69107142D01*
X108399404Y-68983333D01*
X108523214Y-68921428D01*
X108770833Y-68921428D01*
X108894642Y-68983333D01*
X108956547Y-69107142D01*
X108956547Y-69230952D01*
X108337500Y-69354761D01*
X109389880Y-68921428D02*
X109699404Y-69788095D01*
X110008928Y-68921428D01*
X110318452Y-68921428D02*
X110813690Y-68921428D01*
X110504166Y-68488095D02*
X110504166Y-69602380D01*
X110566071Y-69726190D01*
X110689880Y-69788095D01*
X110813690Y-69788095D01*
X111185119Y-68611904D02*
X111247023Y-68550000D01*
X111370833Y-68488095D01*
X111680357Y-68488095D01*
X111804166Y-68550000D01*
X111866071Y-68611904D01*
X111927976Y-68735714D01*
X111927976Y-68859523D01*
X111866071Y-69045238D01*
X111123214Y-69788095D01*
X111927976Y-69788095D01*
X113413690Y-68426190D02*
X112299404Y-70097619D01*
D12*
X33000000Y-73192380D02*
X32666666Y-72716190D01*
X32428571Y-73192380D02*
X32428571Y-72192380D01*
X32809523Y-72192380D01*
X32904761Y-72240000D01*
X32952380Y-72287619D01*
X33000000Y-72382857D01*
X33000000Y-72525714D01*
X32952380Y-72620952D01*
X32904761Y-72668571D01*
X32809523Y-72716190D01*
X32428571Y-72716190D01*
X33857142Y-73192380D02*
X33857142Y-72668571D01*
X33809523Y-72573333D01*
X33714285Y-72525714D01*
X33523809Y-72525714D01*
X33428571Y-72573333D01*
X33857142Y-73144761D02*
X33761904Y-73192380D01*
X33523809Y-73192380D01*
X33428571Y-73144761D01*
X33380952Y-73049523D01*
X33380952Y-72954285D01*
X33428571Y-72859047D01*
X33523809Y-72811428D01*
X33761904Y-72811428D01*
X33857142Y-72763809D01*
X34285714Y-73144761D02*
X34380952Y-73192380D01*
X34571428Y-73192380D01*
X34666666Y-73144761D01*
X34714285Y-73049523D01*
X34714285Y-73001904D01*
X34666666Y-72906666D01*
X34571428Y-72859047D01*
X34428571Y-72859047D01*
X34333333Y-72811428D01*
X34285714Y-72716190D01*
X34285714Y-72668571D01*
X34333333Y-72573333D01*
X34428571Y-72525714D01*
X34571428Y-72525714D01*
X34666666Y-72573333D01*
X35142857Y-72525714D02*
X35142857Y-73525714D01*
X35142857Y-72573333D02*
X35238095Y-72525714D01*
X35428571Y-72525714D01*
X35523809Y-72573333D01*
X35571428Y-72620952D01*
X35619047Y-72716190D01*
X35619047Y-73001904D01*
X35571428Y-73097142D01*
X35523809Y-73144761D01*
X35428571Y-73192380D01*
X35238095Y-73192380D01*
X35142857Y-73144761D01*
X36047619Y-73192380D02*
X36047619Y-72192380D01*
X36047619Y-72573333D02*
X36142857Y-72525714D01*
X36333333Y-72525714D01*
X36428571Y-72573333D01*
X36476190Y-72620952D01*
X36523809Y-72716190D01*
X36523809Y-73001904D01*
X36476190Y-73097142D01*
X36428571Y-73144761D01*
X36333333Y-73192380D01*
X36142857Y-73192380D01*
X36047619Y-73144761D01*
X37333333Y-73144761D02*
X37238095Y-73192380D01*
X37047619Y-73192380D01*
X36952380Y-73144761D01*
X36904761Y-73049523D01*
X36904761Y-72668571D01*
X36952380Y-72573333D01*
X37047619Y-72525714D01*
X37238095Y-72525714D01*
X37333333Y-72573333D01*
X37380952Y-72668571D01*
X37380952Y-72763809D01*
X36904761Y-72859047D01*
X37809523Y-73192380D02*
X37809523Y-72525714D01*
X37809523Y-72716190D02*
X37857142Y-72620952D01*
X37904761Y-72573333D01*
X38000000Y-72525714D01*
X38095238Y-72525714D01*
X38428571Y-73192380D02*
X38428571Y-72525714D01*
X38428571Y-72716190D02*
X38476190Y-72620952D01*
X38523809Y-72573333D01*
X38619047Y-72525714D01*
X38714285Y-72525714D01*
X38952380Y-72525714D02*
X39190476Y-73192380D01*
X39428571Y-72525714D02*
X39190476Y-73192380D01*
X39095238Y-73430476D01*
X39047619Y-73478095D01*
X38952380Y-73525714D01*
X40571428Y-73192380D02*
X40571428Y-72192380D01*
X40952380Y-72192380D01*
X41047619Y-72240000D01*
X41095238Y-72287619D01*
X41142857Y-72382857D01*
X41142857Y-72525714D01*
X41095238Y-72620952D01*
X41047619Y-72668571D01*
X40952380Y-72716190D01*
X40571428Y-72716190D01*
X41571428Y-73192380D02*
X41571428Y-72525714D01*
X41571428Y-72192380D02*
X41523809Y-72240000D01*
X41571428Y-72287619D01*
X41619047Y-72240000D01*
X41571428Y-72192380D01*
X41571428Y-72287619D01*
X100142857Y-74652380D02*
X100142857Y-73652380D01*
X100523809Y-73652380D01*
X100619047Y-73700000D01*
X100666666Y-73747619D01*
X100714285Y-73842857D01*
X100714285Y-73985714D01*
X100666666Y-74080952D01*
X100619047Y-74128571D01*
X100523809Y-74176190D01*
X100142857Y-74176190D01*
X101142857Y-74652380D02*
X101142857Y-73652380D01*
X101476190Y-74366666D01*
X101809523Y-73652380D01*
X101809523Y-74652380D01*
X102476190Y-73652380D02*
X102666666Y-73652380D01*
X102761904Y-73700000D01*
X102857142Y-73795238D01*
X102904761Y-73985714D01*
X102904761Y-74319047D01*
X102857142Y-74509523D01*
X102761904Y-74604761D01*
X102666666Y-74652380D01*
X102476190Y-74652380D01*
X102380952Y-74604761D01*
X102285714Y-74509523D01*
X102238095Y-74319047D01*
X102238095Y-73985714D01*
X102285714Y-73795238D01*
X102380952Y-73700000D01*
X102476190Y-73652380D01*
X103333333Y-74652380D02*
X103333333Y-73652380D01*
X103571428Y-73652380D01*
X103714285Y-73700000D01*
X103809523Y-73795238D01*
X103857142Y-73890476D01*
X103904761Y-74080952D01*
X103904761Y-74223809D01*
X103857142Y-74414285D01*
X103809523Y-74509523D01*
X103714285Y-74604761D01*
X103571428Y-74652380D01*
X103333333Y-74652380D01*
D14*
X82304761Y-79252380D02*
X82304761Y-78252380D01*
X82685714Y-78252380D01*
X82780952Y-78300000D01*
X82828571Y-78347619D01*
X82876190Y-78442857D01*
X82876190Y-78585714D01*
X82828571Y-78680952D01*
X82780952Y-78728571D01*
X82685714Y-78776190D01*
X82304761Y-78776190D01*
X83209523Y-78585714D02*
X83400000Y-79252380D01*
X83590476Y-78776190D01*
X83780952Y-79252380D01*
X83971428Y-78585714D01*
X84352380Y-79252380D02*
X84352380Y-78585714D01*
X84352380Y-78776190D02*
X84400000Y-78680952D01*
X84447619Y-78633333D01*
X84542857Y-78585714D01*
X84638095Y-78585714D01*
D13*
X43761904Y-61328571D02*
X42961904Y-61328571D01*
X42961904Y-61023809D01*
X43000000Y-60947619D01*
X43038095Y-60909523D01*
X43114285Y-60871428D01*
X43228571Y-60871428D01*
X43304761Y-60909523D01*
X43342857Y-60947619D01*
X43380952Y-61023809D01*
X43380952Y-61328571D01*
X42961904Y-60528571D02*
X43609523Y-60528571D01*
X43685714Y-60490476D01*
X43723809Y-60452380D01*
X43761904Y-60376190D01*
X43761904Y-60223809D01*
X43723809Y-60147619D01*
X43685714Y-60109523D01*
X43609523Y-60071428D01*
X42961904Y-60071428D01*
D16*
G04 #@! TO.C,R13*
X38040000Y-60558748D02*
X38040000Y-61081252D01*
X39460000Y-60558748D02*
X39460000Y-61081252D01*
G04 #@! TO.C,R3*
X42460000Y-61061252D02*
X42460000Y-60538748D01*
X41040000Y-61061252D02*
X41040000Y-60538748D01*
D11*
G04 #@! TO.C,U7*
X75966421Y-51150000D02*
G75*
G03X75966421Y-51150000I-141421J0D01*
G01*
D12*
G04 #@! TO.C,SW1*
X34800000Y-59000000D02*
X34800000Y-60700000D01*
X31000000Y-64300000D02*
X33100000Y-64300000D01*
X29300000Y-59000000D02*
X29300000Y-60700000D01*
X31000000Y-55700000D02*
X33100000Y-55700000D01*
D17*
G04 #@! TO.C,U4*
X37677475Y-65050000D02*
G75*
G03X37677475Y-65050000I-127475J0D01*
G01*
D14*
X40400000Y-65095000D02*
X41200000Y-64295000D01*
X41200000Y-64300000D02*
X45700000Y-64300000D01*
X45700000Y-64295000D02*
X45700000Y-69700000D01*
X45700000Y-69700000D02*
X40400000Y-69700000D01*
X40400000Y-69700000D02*
X40400000Y-65095000D01*
D12*
G04 #@! TO.C,SW3*
X89000000Y-39800000D02*
X87300000Y-39800000D01*
X83700000Y-36000000D02*
X83700000Y-38100000D01*
X89000000Y-34300000D02*
X87300000Y-34300000D01*
X92300000Y-36000000D02*
X92300000Y-38100000D01*
D14*
G04 #@! TO.C,U10*
X77500000Y-53300000D02*
G75*
G03X77500000Y-53300000I-100000J0D01*
G01*
G04 #@! TO.C,U6*
X71300000Y-50900000D02*
G75*
G03X71300000Y-50900000I-100000J0D01*
G01*
G04 #@! TO.C,D1*
X85300000Y-77000000D02*
G75*
G03X85300000Y-77000000I-100000J0D01*
G01*
D16*
X84860000Y-76040000D02*
X82000000Y-76040000D01*
X84860000Y-77960000D02*
X84860000Y-76040000D01*
X82000000Y-77960000D02*
X84860000Y-77960000D01*
G04 #@! TO.C,J3*
X109590000Y-79030000D02*
X109590000Y-76370000D01*
X96830000Y-79030000D02*
X109590000Y-79030000D01*
X96830000Y-76370000D02*
X109590000Y-76370000D01*
X96830000Y-79030000D02*
X96830000Y-76370000D01*
X95560000Y-79030000D02*
X94230000Y-79030000D01*
X94230000Y-79030000D02*
X94230000Y-77700000D01*
G04 #@! TO.C,C27*
X78738748Y-67710000D02*
X79261252Y-67710000D01*
X78738748Y-66290000D02*
X79261252Y-66290000D01*
G04 #@! TO.C,C26*
X83738748Y-51710000D02*
X84261252Y-51710000D01*
X83738748Y-50290000D02*
X84261252Y-50290000D01*
G04 #@! TO.C,C25*
X78738748Y-69710000D02*
X79261252Y-69710000D01*
X78738748Y-68290000D02*
X79261252Y-68290000D01*
G04 #@! TO.C,C24*
X83738748Y-49710000D02*
X84261252Y-49710000D01*
X83738748Y-48290000D02*
X84261252Y-48290000D01*
G04 #@! TO.C,C23*
X86290000Y-61738748D02*
X86290000Y-62261252D01*
X87710000Y-61738748D02*
X87710000Y-62261252D01*
G04 #@! TO.C,C22*
X89710000Y-62286252D02*
X89710000Y-61763748D01*
X88290000Y-62286252D02*
X88290000Y-61763748D01*
G04 #@! TO.C,C21*
X78738748Y-71710000D02*
X79261252Y-71710000D01*
X78738748Y-70290000D02*
X79261252Y-70290000D01*
G04 #@! TO.C,C20*
X64710000Y-61861252D02*
X64710000Y-61338748D01*
X63290000Y-61861252D02*
X63290000Y-61338748D01*
G04 #@! TO.C,C19*
X90290000Y-61763748D02*
X90290000Y-62286252D01*
X91710000Y-61763748D02*
X91710000Y-62286252D01*
G04 #@! TO.C,C18*
X62710000Y-61861252D02*
X62710000Y-61338748D01*
X61290000Y-61861252D02*
X61290000Y-61338748D01*
G04 #@! TO.C,C17*
X60710000Y-61861252D02*
X60710000Y-61338748D01*
X59290000Y-61861252D02*
X59290000Y-61338748D01*
G04 #@! TO.C,C16*
X91710000Y-66261252D02*
X91710000Y-65738748D01*
X90290000Y-66261252D02*
X90290000Y-65738748D01*
G04 #@! TO.C,C14*
X65710000Y-55261252D02*
X65710000Y-54738748D01*
X64290000Y-55261252D02*
X64290000Y-54738748D01*
G04 #@! TO.C,C15*
X67710000Y-55261252D02*
X67710000Y-54738748D01*
X66290000Y-55261252D02*
X66290000Y-54738748D01*
G04 #@! TO.C,C13*
X63710000Y-55261252D02*
X63710000Y-54738748D01*
X62290000Y-55261252D02*
X62290000Y-54738748D01*
G04 #@! TO.C,C11*
X71690000Y-48938748D02*
X71690000Y-49461252D01*
X73110000Y-48938748D02*
X73110000Y-49461252D01*
G04 #@! TO.C,C10*
X84688748Y-75710000D02*
X85211252Y-75710000D01*
X84688748Y-74290000D02*
X85211252Y-74290000D01*
G04 #@! TO.C,C9*
X61710000Y-55261252D02*
X61710000Y-54738748D01*
X60290000Y-55261252D02*
X60290000Y-54738748D01*
G04 #@! TO.C,C8*
X56110000Y-61886252D02*
X56110000Y-61363748D01*
X54690000Y-61886252D02*
X54690000Y-61363748D01*
G04 #@! TO.C,C7*
X74511252Y-71040000D02*
X73988748Y-71040000D01*
X74511252Y-72460000D02*
X73988748Y-72460000D01*
G04 #@! TO.C,C6*
X74511252Y-69040000D02*
X73988748Y-69040000D01*
X74511252Y-70460000D02*
X73988748Y-70460000D01*
G04 #@! TO.C,C5*
X74511252Y-67040000D02*
X73988748Y-67040000D01*
X74511252Y-68460000D02*
X73988748Y-68460000D01*
G04 #@! TO.C,C4*
X45261252Y-62290000D02*
X44738748Y-62290000D01*
X45261252Y-63710000D02*
X44738748Y-63710000D01*
G04 #@! TO.C,C3*
X89236252Y-74290000D02*
X88713748Y-74290000D01*
X89236252Y-75710000D02*
X88713748Y-75710000D01*
G04 #@! TO.C,C2*
X60290000Y-50738748D02*
X60290000Y-51261252D01*
X61710000Y-50738748D02*
X61710000Y-51261252D01*
G04 #@! TO.C,C1*
X54690000Y-57313748D02*
X54690000Y-57836252D01*
X56110000Y-57313748D02*
X56110000Y-57836252D01*
G04 #@! TO.C,C28*
X83738748Y-53710000D02*
X84261252Y-53710000D01*
X83738748Y-52290000D02*
X84261252Y-52290000D01*
G04 #@! TO.C,J1*
X25410000Y-73670000D02*
X25410000Y-78870000D01*
X73730000Y-73670000D02*
X25410000Y-73670000D01*
X76330000Y-78870000D02*
X25410000Y-78870000D01*
X73730000Y-73670000D02*
X73730000Y-76270000D01*
X73730000Y-76270000D02*
X76330000Y-76270000D01*
X76330000Y-76270000D02*
X76330000Y-78870000D01*
X75000000Y-73670000D02*
X76330000Y-73670000D01*
X76330000Y-73670000D02*
X76330000Y-75000000D01*
D17*
G04 #@! TO.C,U5*
X69486803Y-57225000D02*
G75*
G03X69486803Y-57225000I-111803J0D01*
G01*
D16*
X77135000Y-56390000D02*
X77610000Y-56390000D01*
X77610000Y-56390000D02*
X77610000Y-56865000D01*
X70865000Y-63610000D02*
X70390000Y-63610000D01*
X70390000Y-63610000D02*
X70390000Y-63135000D01*
X77135000Y-63610000D02*
X77610000Y-63610000D01*
X77610000Y-63610000D02*
X77610000Y-63135000D01*
X70865000Y-56390000D02*
X70390000Y-56390000D01*
G04 #@! TO.C,R10*
X85710000Y-60261252D02*
X85710000Y-59738748D01*
X84290000Y-60261252D02*
X84290000Y-59738748D01*
G04 #@! TO.C,R4*
X34963748Y-51210000D02*
X35486252Y-51210000D01*
X34963748Y-49790000D02*
X35486252Y-49790000D01*
G04 #@! TO.C,R8*
X98592529Y-45411563D02*
X98961995Y-45042097D01*
X97588437Y-44407471D02*
X97957903Y-44038005D01*
G04 #@! TO.C,R11*
X97142097Y-43961995D02*
X97511563Y-43592529D01*
X96138005Y-42957903D02*
X96507471Y-42588437D01*
G04 #@! TO.C,R12*
X101517313Y-48286779D02*
X101886779Y-47917313D01*
X100513221Y-47282687D02*
X100882687Y-46913221D01*
G04 #@! TO.C,R1*
X34988748Y-53210000D02*
X35511252Y-53210000D01*
X34988748Y-51790000D02*
X35511252Y-51790000D01*
G04 #@! TO.C,R2*
X87286252Y-76290000D02*
X86763748Y-76290000D01*
X87286252Y-77710000D02*
X86763748Y-77710000D01*
G04 #@! TO.C,R9*
X100117313Y-46886779D02*
X100486779Y-46517313D01*
X99113221Y-45882687D02*
X99482687Y-45513221D01*
D12*
G04 #@! TO.C,U8*
X93178078Y-66775000D02*
G75*
G03X93178078Y-66775000I-103078J0D01*
G01*
D16*
X95610000Y-64900000D02*
X95610000Y-63100000D01*
X92390000Y-63100000D02*
X92390000Y-65550000D01*
D12*
G04 #@! TO.C,U1*
X53378078Y-57175000D02*
G75*
G03X53378078Y-57175000I-103078J0D01*
G01*
D16*
X50740000Y-59050000D02*
X50740000Y-60850000D01*
X53960000Y-60850000D02*
X53960000Y-58400000D01*
D12*
G04 #@! TO.C,U2*
X59028078Y-50225000D02*
G75*
G03X59028078Y-50225000I-103078J0D01*
G01*
D16*
X56390000Y-52100000D02*
X56390000Y-53900000D01*
X59610000Y-53900000D02*
X59610000Y-51450000D01*
D12*
G04 #@! TO.C,U3*
X89878078Y-72925000D02*
G75*
G03X89878078Y-72925000I-103078J0D01*
G01*
D16*
X87900000Y-70390000D02*
X86100000Y-70390000D01*
X86100000Y-73610000D02*
X88550000Y-73610000D01*
D12*
G04 #@! TO.C,SW4*
X79000000Y-39800000D02*
X77300000Y-39800000D01*
X73700000Y-36000000D02*
X73700000Y-38100000D01*
X79000000Y-34300000D02*
X77300000Y-34300000D01*
X82300000Y-36000000D02*
X82300000Y-38100000D01*
G04 #@! TO.C,D8*
D14*
X104338375Y-47173435D02*
X103772690Y-46607749D01*
X103907377Y-46473062D01*
X104015126Y-46419187D01*
X104122876Y-46419187D01*
X104203688Y-46446125D01*
X104338375Y-46526937D01*
X104419187Y-46607749D01*
X104500000Y-46742436D01*
X104526937Y-46823248D01*
X104526937Y-46930998D01*
X104473062Y-47038748D01*
X104338375Y-47173435D01*
X104661624Y-46203688D02*
X104580812Y-46230625D01*
X104526937Y-46230625D01*
X104446125Y-46203688D01*
X104419187Y-46176751D01*
X104392250Y-46095938D01*
X104392250Y-46042064D01*
X104419187Y-45961251D01*
X104526937Y-45853502D01*
X104607749Y-45826564D01*
X104661624Y-45826564D01*
X104742436Y-45853502D01*
X104769374Y-45880439D01*
X104796311Y-45961251D01*
X104796311Y-46015126D01*
X104769374Y-46095938D01*
X104661624Y-46203688D01*
X104634687Y-46284500D01*
X104634687Y-46338375D01*
X104661624Y-46419187D01*
X104769374Y-46526937D01*
X104850186Y-46553874D01*
X104904061Y-46553874D01*
X104984873Y-46526937D01*
X105092622Y-46419187D01*
X105119560Y-46338375D01*
X105119560Y-46284500D01*
X105092622Y-46203688D01*
X104984873Y-46095938D01*
X104904061Y-46069001D01*
X104850186Y-46069001D01*
X104769374Y-46095938D01*
G04 #@! TO.C,D6*
X95088375Y-37673435D02*
X94522690Y-37107749D01*
X94657377Y-36973062D01*
X94765126Y-36919187D01*
X94872876Y-36919187D01*
X94953688Y-36946125D01*
X95088375Y-37026937D01*
X95169187Y-37107749D01*
X95250000Y-37242436D01*
X95276937Y-37323248D01*
X95276937Y-37430998D01*
X95223062Y-37538748D01*
X95088375Y-37673435D01*
X95330812Y-36299627D02*
X95223062Y-36407377D01*
X95196125Y-36488189D01*
X95196125Y-36542064D01*
X95223062Y-36676751D01*
X95303874Y-36811438D01*
X95519374Y-37026937D01*
X95600186Y-37053874D01*
X95654061Y-37053874D01*
X95734873Y-37026937D01*
X95842622Y-36919187D01*
X95869560Y-36838375D01*
X95869560Y-36784500D01*
X95842622Y-36703688D01*
X95707935Y-36569001D01*
X95627123Y-36542064D01*
X95573248Y-36542064D01*
X95492436Y-36569001D01*
X95384687Y-36676751D01*
X95357749Y-36757563D01*
X95357749Y-36811438D01*
X95384687Y-36892250D01*
G04 #@! TO.C,D2*
X41159523Y-48361904D02*
X41159523Y-47561904D01*
X41350000Y-47561904D01*
X41464285Y-47600000D01*
X41540476Y-47676190D01*
X41578571Y-47752380D01*
X41616666Y-47904761D01*
X41616666Y-48019047D01*
X41578571Y-48171428D01*
X41540476Y-48247619D01*
X41464285Y-48323809D01*
X41350000Y-48361904D01*
X41159523Y-48361904D01*
X41921428Y-47638095D02*
X41959523Y-47600000D01*
X42035714Y-47561904D01*
X42226190Y-47561904D01*
X42302380Y-47600000D01*
X42340476Y-47638095D01*
X42378571Y-47714285D01*
X42378571Y-47790476D01*
X42340476Y-47904761D01*
X41883333Y-48361904D01*
X42378571Y-48361904D01*
G04 #@! TO.C,D3*
X41159523Y-46111904D02*
X41159523Y-45311904D01*
X41350000Y-45311904D01*
X41464285Y-45350000D01*
X41540476Y-45426190D01*
X41578571Y-45502380D01*
X41616666Y-45654761D01*
X41616666Y-45769047D01*
X41578571Y-45921428D01*
X41540476Y-45997619D01*
X41464285Y-46073809D01*
X41350000Y-46111904D01*
X41159523Y-46111904D01*
X41883333Y-45311904D02*
X42378571Y-45311904D01*
X42111904Y-45616666D01*
X42226190Y-45616666D01*
X42302380Y-45654761D01*
X42340476Y-45692857D01*
X42378571Y-45769047D01*
X42378571Y-45959523D01*
X42340476Y-46035714D01*
X42302380Y-46073809D01*
X42226190Y-46111904D01*
X41997619Y-46111904D01*
X41921428Y-46073809D01*
X41883333Y-46035714D01*
G04 #@! TO.C,D4*
X48909523Y-46861904D02*
X48909523Y-46061904D01*
X49100000Y-46061904D01*
X49214285Y-46100000D01*
X49290476Y-46176190D01*
X49328571Y-46252380D01*
X49366666Y-46404761D01*
X49366666Y-46519047D01*
X49328571Y-46671428D01*
X49290476Y-46747619D01*
X49214285Y-46823809D01*
X49100000Y-46861904D01*
X48909523Y-46861904D01*
X50052380Y-46328571D02*
X50052380Y-46861904D01*
X49861904Y-46023809D02*
X49671428Y-46595238D01*
X50166666Y-46595238D01*
G04 #@! TO.C,D5*
X54659523Y-47311904D02*
X54659523Y-46511904D01*
X54850000Y-46511904D01*
X54964285Y-46550000D01*
X55040476Y-46626190D01*
X55078571Y-46702380D01*
X55116666Y-46854761D01*
X55116666Y-46969047D01*
X55078571Y-47121428D01*
X55040476Y-47197619D01*
X54964285Y-47273809D01*
X54850000Y-47311904D01*
X54659523Y-47311904D01*
X55840476Y-46511904D02*
X55459523Y-46511904D01*
X55421428Y-46892857D01*
X55459523Y-46854761D01*
X55535714Y-46816666D01*
X55726190Y-46816666D01*
X55802380Y-46854761D01*
X55840476Y-46892857D01*
X55878571Y-46969047D01*
X55878571Y-47159523D01*
X55840476Y-47235714D01*
X55802380Y-47273809D01*
X55726190Y-47311904D01*
X55535714Y-47311904D01*
X55459523Y-47273809D01*
X55421428Y-47235714D01*
G04 #@! TO.C,D7*
X98838375Y-41673435D02*
X98272690Y-41107749D01*
X98407377Y-40973062D01*
X98515126Y-40919187D01*
X98622876Y-40919187D01*
X98703688Y-40946125D01*
X98838375Y-41026937D01*
X98919187Y-41107749D01*
X99000000Y-41242436D01*
X99026937Y-41323248D01*
X99026937Y-41430998D01*
X98973062Y-41538748D01*
X98838375Y-41673435D01*
X98784500Y-40595938D02*
X99161624Y-40218815D01*
X99484873Y-41026937D01*
G04 #@! TO.C,R13*
X41157142Y-58652380D02*
X40823809Y-58176190D01*
X40585714Y-58652380D02*
X40585714Y-57652380D01*
X40966666Y-57652380D01*
X41061904Y-57700000D01*
X41109523Y-57747619D01*
X41157142Y-57842857D01*
X41157142Y-57985714D01*
X41109523Y-58080952D01*
X41061904Y-58128571D01*
X40966666Y-58176190D01*
X40585714Y-58176190D01*
X42109523Y-58652380D02*
X41538095Y-58652380D01*
X41823809Y-58652380D02*
X41823809Y-57652380D01*
X41728571Y-57795238D01*
X41633333Y-57890476D01*
X41538095Y-57938095D01*
X42442857Y-57652380D02*
X43061904Y-57652380D01*
X42728571Y-58033333D01*
X42871428Y-58033333D01*
X42966666Y-58080952D01*
X43014285Y-58128571D01*
X43061904Y-58223809D01*
X43061904Y-58461904D01*
X43014285Y-58557142D01*
X42966666Y-58604761D01*
X42871428Y-58652380D01*
X42585714Y-58652380D01*
X42490476Y-58604761D01*
X42442857Y-58557142D01*
G04 #@! TO.C,R3*
X38633333Y-58752380D02*
X38300000Y-58276190D01*
X38061904Y-58752380D02*
X38061904Y-57752380D01*
X38442857Y-57752380D01*
X38538095Y-57800000D01*
X38585714Y-57847619D01*
X38633333Y-57942857D01*
X38633333Y-58085714D01*
X38585714Y-58180952D01*
X38538095Y-58228571D01*
X38442857Y-58276190D01*
X38061904Y-58276190D01*
X38966666Y-57752380D02*
X39585714Y-57752380D01*
X39252380Y-58133333D01*
X39395238Y-58133333D01*
X39490476Y-58180952D01*
X39538095Y-58228571D01*
X39585714Y-58323809D01*
X39585714Y-58561904D01*
X39538095Y-58657142D01*
X39490476Y-58704761D01*
X39395238Y-58752380D01*
X39109523Y-58752380D01*
X39014285Y-58704761D01*
X38966666Y-58657142D01*
G04 #@! TO.C,U7*
D13*
X74619047Y-50326190D02*
X74619047Y-50730952D01*
X74642857Y-50778571D01*
X74666666Y-50802380D01*
X74714285Y-50826190D01*
X74809523Y-50826190D01*
X74857142Y-50802380D01*
X74880952Y-50778571D01*
X74904761Y-50730952D01*
X74904761Y-50326190D01*
X75095238Y-50326190D02*
X75428571Y-50326190D01*
X75214285Y-50826190D01*
G04 #@! TO.C,SW1*
D14*
X32504761Y-61133333D02*
X32552380Y-60990476D01*
X32552380Y-60752380D01*
X32504761Y-60657142D01*
X32457142Y-60609523D01*
X32361904Y-60561904D01*
X32266666Y-60561904D01*
X32171428Y-60609523D01*
X32123809Y-60657142D01*
X32076190Y-60752380D01*
X32028571Y-60942857D01*
X31980952Y-61038095D01*
X31933333Y-61085714D01*
X31838095Y-61133333D01*
X31742857Y-61133333D01*
X31647619Y-61085714D01*
X31600000Y-61038095D01*
X31552380Y-60942857D01*
X31552380Y-60704761D01*
X31600000Y-60561904D01*
X31552380Y-60228571D02*
X32552380Y-59990476D01*
X31838095Y-59800000D01*
X32552380Y-59609523D01*
X31552380Y-59371428D01*
X32552380Y-58466666D02*
X32552380Y-59038095D01*
X32552380Y-58752380D02*
X31552380Y-58752380D01*
X31695238Y-58847619D01*
X31790476Y-58942857D01*
X31838095Y-59038095D01*
D12*
X28678571Y-61857142D02*
X27964285Y-62357142D01*
X28678571Y-62714285D02*
X27178571Y-62714285D01*
X27178571Y-62142857D01*
X27250000Y-62000000D01*
X27321428Y-61928571D01*
X27464285Y-61857142D01*
X27678571Y-61857142D01*
X27821428Y-61928571D01*
X27892857Y-62000000D01*
X27964285Y-62142857D01*
X27964285Y-62714285D01*
X28607142Y-60642857D02*
X28678571Y-60785714D01*
X28678571Y-61071428D01*
X28607142Y-61214285D01*
X28464285Y-61285714D01*
X27892857Y-61285714D01*
X27750000Y-61214285D01*
X27678571Y-61071428D01*
X27678571Y-60785714D01*
X27750000Y-60642857D01*
X27892857Y-60571428D01*
X28035714Y-60571428D01*
X28178571Y-61285714D01*
X28607142Y-60000000D02*
X28678571Y-59857142D01*
X28678571Y-59571428D01*
X28607142Y-59428571D01*
X28464285Y-59357142D01*
X28392857Y-59357142D01*
X28250000Y-59428571D01*
X28178571Y-59571428D01*
X28178571Y-59785714D01*
X28107142Y-59928571D01*
X27964285Y-60000000D01*
X27892857Y-60000000D01*
X27750000Y-59928571D01*
X27678571Y-59785714D01*
X27678571Y-59571428D01*
X27750000Y-59428571D01*
X28607142Y-58142857D02*
X28678571Y-58285714D01*
X28678571Y-58571428D01*
X28607142Y-58714285D01*
X28464285Y-58785714D01*
X27892857Y-58785714D01*
X27750000Y-58714285D01*
X27678571Y-58571428D01*
X27678571Y-58285714D01*
X27750000Y-58142857D01*
X27892857Y-58071428D01*
X28035714Y-58071428D01*
X28178571Y-58785714D01*
X27678571Y-57642857D02*
X27678571Y-57071428D01*
X27178571Y-57428571D02*
X28464285Y-57428571D01*
X28607142Y-57357142D01*
X28678571Y-57214285D01*
X28678571Y-57071428D01*
G04 #@! TO.C,U4*
D14*
X42238095Y-70202380D02*
X42238095Y-71011904D01*
X42285714Y-71107142D01*
X42333333Y-71154761D01*
X42428571Y-71202380D01*
X42619047Y-71202380D01*
X42714285Y-71154761D01*
X42761904Y-71107142D01*
X42809523Y-71011904D01*
X42809523Y-70202380D01*
X43714285Y-70535714D02*
X43714285Y-71202380D01*
X43476190Y-70154761D02*
X43238095Y-70869047D01*
X43857142Y-70869047D01*
G04 #@! TO.C,SW3*
X86916666Y-37654761D02*
X87059523Y-37702380D01*
X87297619Y-37702380D01*
X87392857Y-37654761D01*
X87440476Y-37607142D01*
X87488095Y-37511904D01*
X87488095Y-37416666D01*
X87440476Y-37321428D01*
X87392857Y-37273809D01*
X87297619Y-37226190D01*
X87107142Y-37178571D01*
X87011904Y-37130952D01*
X86964285Y-37083333D01*
X86916666Y-36988095D01*
X86916666Y-36892857D01*
X86964285Y-36797619D01*
X87011904Y-36750000D01*
X87107142Y-36702380D01*
X87345238Y-36702380D01*
X87488095Y-36750000D01*
X87821428Y-36702380D02*
X88059523Y-37702380D01*
X88250000Y-36988095D01*
X88440476Y-37702380D01*
X88678571Y-36702380D01*
X88964285Y-36702380D02*
X89583333Y-36702380D01*
X89250000Y-37083333D01*
X89392857Y-37083333D01*
X89488095Y-37130952D01*
X89535714Y-37178571D01*
X89583333Y-37273809D01*
X89583333Y-37511904D01*
X89535714Y-37607142D01*
X89488095Y-37654761D01*
X89392857Y-37702380D01*
X89107142Y-37702380D01*
X89011904Y-37654761D01*
X88964285Y-37607142D01*
D15*
X88380952Y-41904761D02*
X88000000Y-41904761D01*
X87809523Y-42000000D01*
X87714285Y-42095238D01*
X87523809Y-42380952D01*
X87428571Y-42761904D01*
X87428571Y-43523809D01*
X87523809Y-43714285D01*
X87619047Y-43809523D01*
X87809523Y-43904761D01*
X88190476Y-43904761D01*
X88380952Y-43809523D01*
X88476190Y-43714285D01*
X88571428Y-43523809D01*
X88571428Y-43047619D01*
X88476190Y-42857142D01*
X88380952Y-42761904D01*
X88190476Y-42666666D01*
X87809523Y-42666666D01*
X87619047Y-42761904D01*
X87523809Y-42857142D01*
X87428571Y-43047619D01*
G04 #@! TO.C,U10*
D18*
X76452380Y-52090476D02*
X76452380Y-52252380D01*
X76461904Y-52271428D01*
X76471428Y-52280952D01*
X76490476Y-52290476D01*
X76528571Y-52290476D01*
X76547619Y-52280952D01*
X76557142Y-52271428D01*
X76566666Y-52252380D01*
X76566666Y-52090476D01*
X76766666Y-52290476D02*
X76652380Y-52290476D01*
X76709523Y-52290476D02*
X76709523Y-52090476D01*
X76690476Y-52119047D01*
X76671428Y-52138095D01*
X76652380Y-52147619D01*
X76890476Y-52090476D02*
X76909523Y-52090476D01*
X76928571Y-52100000D01*
X76938095Y-52109523D01*
X76947619Y-52128571D01*
X76957142Y-52166666D01*
X76957142Y-52214285D01*
X76947619Y-52252380D01*
X76938095Y-52271428D01*
X76928571Y-52280952D01*
X76909523Y-52290476D01*
X76890476Y-52290476D01*
X76871428Y-52280952D01*
X76861904Y-52271428D01*
X76852380Y-52252380D01*
X76842857Y-52214285D01*
X76842857Y-52166666D01*
X76852380Y-52128571D01*
X76861904Y-52109523D01*
X76871428Y-52100000D01*
X76890476Y-52090476D01*
G04 #@! TO.C,U6*
D13*
X70226190Y-52580952D02*
X70630952Y-52580952D01*
X70678571Y-52557142D01*
X70702380Y-52533333D01*
X70726190Y-52485714D01*
X70726190Y-52390476D01*
X70702380Y-52342857D01*
X70678571Y-52319047D01*
X70630952Y-52295238D01*
X70226190Y-52295238D01*
X70226190Y-51842857D02*
X70226190Y-51938095D01*
X70250000Y-51985714D01*
X70273809Y-52009523D01*
X70345238Y-52057142D01*
X70440476Y-52080952D01*
X70630952Y-52080952D01*
X70678571Y-52057142D01*
X70702380Y-52033333D01*
X70726190Y-51985714D01*
X70726190Y-51890476D01*
X70702380Y-51842857D01*
X70678571Y-51819047D01*
X70630952Y-51795238D01*
X70511904Y-51795238D01*
X70464285Y-51819047D01*
X70440476Y-51842857D01*
X70416666Y-51890476D01*
X70416666Y-51985714D01*
X70440476Y-52033333D01*
X70464285Y-52057142D01*
X70511904Y-52080952D01*
G04 #@! TO.C,D1*
D14*
X79361904Y-77552380D02*
X79361904Y-76552380D01*
X79600000Y-76552380D01*
X79742857Y-76600000D01*
X79838095Y-76695238D01*
X79885714Y-76790476D01*
X79933333Y-76980952D01*
X79933333Y-77123809D01*
X79885714Y-77314285D01*
X79838095Y-77409523D01*
X79742857Y-77504761D01*
X79600000Y-77552380D01*
X79361904Y-77552380D01*
X80885714Y-77552380D02*
X80314285Y-77552380D01*
X80600000Y-77552380D02*
X80600000Y-76552380D01*
X80504761Y-76695238D01*
X80409523Y-76790476D01*
X80314285Y-76838095D01*
G04 #@! TO.C,C27*
X81857142Y-67357142D02*
X81809523Y-67404761D01*
X81666666Y-67452380D01*
X81571428Y-67452380D01*
X81428571Y-67404761D01*
X81333333Y-67309523D01*
X81285714Y-67214285D01*
X81238095Y-67023809D01*
X81238095Y-66880952D01*
X81285714Y-66690476D01*
X81333333Y-66595238D01*
X81428571Y-66500000D01*
X81571428Y-66452380D01*
X81666666Y-66452380D01*
X81809523Y-66500000D01*
X81857142Y-66547619D01*
X82238095Y-66547619D02*
X82285714Y-66500000D01*
X82380952Y-66452380D01*
X82619047Y-66452380D01*
X82714285Y-66500000D01*
X82761904Y-66547619D01*
X82809523Y-66642857D01*
X82809523Y-66738095D01*
X82761904Y-66880952D01*
X82190476Y-67452380D01*
X82809523Y-67452380D01*
X83142857Y-66452380D02*
X83809523Y-66452380D01*
X83380952Y-67452380D01*
G04 #@! TO.C,C26*
X86857142Y-51357142D02*
X86809523Y-51404761D01*
X86666666Y-51452380D01*
X86571428Y-51452380D01*
X86428571Y-51404761D01*
X86333333Y-51309523D01*
X86285714Y-51214285D01*
X86238095Y-51023809D01*
X86238095Y-50880952D01*
X86285714Y-50690476D01*
X86333333Y-50595238D01*
X86428571Y-50500000D01*
X86571428Y-50452380D01*
X86666666Y-50452380D01*
X86809523Y-50500000D01*
X86857142Y-50547619D01*
X87238095Y-50547619D02*
X87285714Y-50500000D01*
X87380952Y-50452380D01*
X87619047Y-50452380D01*
X87714285Y-50500000D01*
X87761904Y-50547619D01*
X87809523Y-50642857D01*
X87809523Y-50738095D01*
X87761904Y-50880952D01*
X87190476Y-51452380D01*
X87809523Y-51452380D01*
X88666666Y-50452380D02*
X88476190Y-50452380D01*
X88380952Y-50500000D01*
X88333333Y-50547619D01*
X88238095Y-50690476D01*
X88190476Y-50880952D01*
X88190476Y-51261904D01*
X88238095Y-51357142D01*
X88285714Y-51404761D01*
X88380952Y-51452380D01*
X88571428Y-51452380D01*
X88666666Y-51404761D01*
X88714285Y-51357142D01*
X88761904Y-51261904D01*
X88761904Y-51023809D01*
X88714285Y-50928571D01*
X88666666Y-50880952D01*
X88571428Y-50833333D01*
X88380952Y-50833333D01*
X88285714Y-50880952D01*
X88238095Y-50928571D01*
X88190476Y-51023809D01*
G04 #@! TO.C,C25*
X81857142Y-69357142D02*
X81809523Y-69404761D01*
X81666666Y-69452380D01*
X81571428Y-69452380D01*
X81428571Y-69404761D01*
X81333333Y-69309523D01*
X81285714Y-69214285D01*
X81238095Y-69023809D01*
X81238095Y-68880952D01*
X81285714Y-68690476D01*
X81333333Y-68595238D01*
X81428571Y-68500000D01*
X81571428Y-68452380D01*
X81666666Y-68452380D01*
X81809523Y-68500000D01*
X81857142Y-68547619D01*
X82238095Y-68547619D02*
X82285714Y-68500000D01*
X82380952Y-68452380D01*
X82619047Y-68452380D01*
X82714285Y-68500000D01*
X82761904Y-68547619D01*
X82809523Y-68642857D01*
X82809523Y-68738095D01*
X82761904Y-68880952D01*
X82190476Y-69452380D01*
X82809523Y-69452380D01*
X83714285Y-68452380D02*
X83238095Y-68452380D01*
X83190476Y-68928571D01*
X83238095Y-68880952D01*
X83333333Y-68833333D01*
X83571428Y-68833333D01*
X83666666Y-68880952D01*
X83714285Y-68928571D01*
X83761904Y-69023809D01*
X83761904Y-69261904D01*
X83714285Y-69357142D01*
X83666666Y-69404761D01*
X83571428Y-69452380D01*
X83333333Y-69452380D01*
X83238095Y-69404761D01*
X83190476Y-69357142D01*
G04 #@! TO.C,C24*
X86857142Y-49357142D02*
X86809523Y-49404761D01*
X86666666Y-49452380D01*
X86571428Y-49452380D01*
X86428571Y-49404761D01*
X86333333Y-49309523D01*
X86285714Y-49214285D01*
X86238095Y-49023809D01*
X86238095Y-48880952D01*
X86285714Y-48690476D01*
X86333333Y-48595238D01*
X86428571Y-48500000D01*
X86571428Y-48452380D01*
X86666666Y-48452380D01*
X86809523Y-48500000D01*
X86857142Y-48547619D01*
X87238095Y-48547619D02*
X87285714Y-48500000D01*
X87380952Y-48452380D01*
X87619047Y-48452380D01*
X87714285Y-48500000D01*
X87761904Y-48547619D01*
X87809523Y-48642857D01*
X87809523Y-48738095D01*
X87761904Y-48880952D01*
X87190476Y-49452380D01*
X87809523Y-49452380D01*
X88666666Y-48785714D02*
X88666666Y-49452380D01*
X88428571Y-48404761D02*
X88190476Y-49119047D01*
X88809523Y-49119047D01*
G04 #@! TO.C,C23*
X87357142Y-59142857D02*
X87404761Y-59190476D01*
X87452380Y-59333333D01*
X87452380Y-59428571D01*
X87404761Y-59571428D01*
X87309523Y-59666666D01*
X87214285Y-59714285D01*
X87023809Y-59761904D01*
X86880952Y-59761904D01*
X86690476Y-59714285D01*
X86595238Y-59666666D01*
X86500000Y-59571428D01*
X86452380Y-59428571D01*
X86452380Y-59333333D01*
X86500000Y-59190476D01*
X86547619Y-59142857D01*
X86547619Y-58761904D02*
X86500000Y-58714285D01*
X86452380Y-58619047D01*
X86452380Y-58380952D01*
X86500000Y-58285714D01*
X86547619Y-58238095D01*
X86642857Y-58190476D01*
X86738095Y-58190476D01*
X86880952Y-58238095D01*
X87452380Y-58809523D01*
X87452380Y-58190476D01*
X86452380Y-57857142D02*
X86452380Y-57238095D01*
X86833333Y-57571428D01*
X86833333Y-57428571D01*
X86880952Y-57333333D01*
X86928571Y-57285714D01*
X87023809Y-57238095D01*
X87261904Y-57238095D01*
X87357142Y-57285714D01*
X87404761Y-57333333D01*
X87452380Y-57428571D01*
X87452380Y-57714285D01*
X87404761Y-57809523D01*
X87357142Y-57857142D01*
G04 #@! TO.C,C22*
X89357142Y-59142857D02*
X89404761Y-59190476D01*
X89452380Y-59333333D01*
X89452380Y-59428571D01*
X89404761Y-59571428D01*
X89309523Y-59666666D01*
X89214285Y-59714285D01*
X89023809Y-59761904D01*
X88880952Y-59761904D01*
X88690476Y-59714285D01*
X88595238Y-59666666D01*
X88500000Y-59571428D01*
X88452380Y-59428571D01*
X88452380Y-59333333D01*
X88500000Y-59190476D01*
X88547619Y-59142857D01*
X88547619Y-58761904D02*
X88500000Y-58714285D01*
X88452380Y-58619047D01*
X88452380Y-58380952D01*
X88500000Y-58285714D01*
X88547619Y-58238095D01*
X88642857Y-58190476D01*
X88738095Y-58190476D01*
X88880952Y-58238095D01*
X89452380Y-58809523D01*
X89452380Y-58190476D01*
X88547619Y-57809523D02*
X88500000Y-57761904D01*
X88452380Y-57666666D01*
X88452380Y-57428571D01*
X88500000Y-57333333D01*
X88547619Y-57285714D01*
X88642857Y-57238095D01*
X88738095Y-57238095D01*
X88880952Y-57285714D01*
X89452380Y-57857142D01*
X89452380Y-57238095D01*
G04 #@! TO.C,C21*
X81857142Y-71357142D02*
X81809523Y-71404761D01*
X81666666Y-71452380D01*
X81571428Y-71452380D01*
X81428571Y-71404761D01*
X81333333Y-71309523D01*
X81285714Y-71214285D01*
X81238095Y-71023809D01*
X81238095Y-70880952D01*
X81285714Y-70690476D01*
X81333333Y-70595238D01*
X81428571Y-70500000D01*
X81571428Y-70452380D01*
X81666666Y-70452380D01*
X81809523Y-70500000D01*
X81857142Y-70547619D01*
X82238095Y-70547619D02*
X82285714Y-70500000D01*
X82380952Y-70452380D01*
X82619047Y-70452380D01*
X82714285Y-70500000D01*
X82761904Y-70547619D01*
X82809523Y-70642857D01*
X82809523Y-70738095D01*
X82761904Y-70880952D01*
X82190476Y-71452380D01*
X82809523Y-71452380D01*
X83761904Y-71452380D02*
X83190476Y-71452380D01*
X83476190Y-71452380D02*
X83476190Y-70452380D01*
X83380952Y-70595238D01*
X83285714Y-70690476D01*
X83190476Y-70738095D01*
G04 #@! TO.C,C20*
X64357142Y-65642857D02*
X64404761Y-65690476D01*
X64452380Y-65833333D01*
X64452380Y-65928571D01*
X64404761Y-66071428D01*
X64309523Y-66166666D01*
X64214285Y-66214285D01*
X64023809Y-66261904D01*
X63880952Y-66261904D01*
X63690476Y-66214285D01*
X63595238Y-66166666D01*
X63500000Y-66071428D01*
X63452380Y-65928571D01*
X63452380Y-65833333D01*
X63500000Y-65690476D01*
X63547619Y-65642857D01*
X63547619Y-65261904D02*
X63500000Y-65214285D01*
X63452380Y-65119047D01*
X63452380Y-64880952D01*
X63500000Y-64785714D01*
X63547619Y-64738095D01*
X63642857Y-64690476D01*
X63738095Y-64690476D01*
X63880952Y-64738095D01*
X64452380Y-65309523D01*
X64452380Y-64690476D01*
X63452380Y-64071428D02*
X63452380Y-63976190D01*
X63500000Y-63880952D01*
X63547619Y-63833333D01*
X63642857Y-63785714D01*
X63833333Y-63738095D01*
X64071428Y-63738095D01*
X64261904Y-63785714D01*
X64357142Y-63833333D01*
X64404761Y-63880952D01*
X64452380Y-63976190D01*
X64452380Y-64071428D01*
X64404761Y-64166666D01*
X64357142Y-64214285D01*
X64261904Y-64261904D01*
X64071428Y-64309523D01*
X63833333Y-64309523D01*
X63642857Y-64261904D01*
X63547619Y-64214285D01*
X63500000Y-64166666D01*
X63452380Y-64071428D01*
G04 #@! TO.C,C19*
X91357142Y-59142857D02*
X91404761Y-59190476D01*
X91452380Y-59333333D01*
X91452380Y-59428571D01*
X91404761Y-59571428D01*
X91309523Y-59666666D01*
X91214285Y-59714285D01*
X91023809Y-59761904D01*
X90880952Y-59761904D01*
X90690476Y-59714285D01*
X90595238Y-59666666D01*
X90500000Y-59571428D01*
X90452380Y-59428571D01*
X90452380Y-59333333D01*
X90500000Y-59190476D01*
X90547619Y-59142857D01*
X91452380Y-58190476D02*
X91452380Y-58761904D01*
X91452380Y-58476190D02*
X90452380Y-58476190D01*
X90595238Y-58571428D01*
X90690476Y-58666666D01*
X90738095Y-58761904D01*
X91452380Y-57714285D02*
X91452380Y-57523809D01*
X91404761Y-57428571D01*
X91357142Y-57380952D01*
X91214285Y-57285714D01*
X91023809Y-57238095D01*
X90642857Y-57238095D01*
X90547619Y-57285714D01*
X90500000Y-57333333D01*
X90452380Y-57428571D01*
X90452380Y-57619047D01*
X90500000Y-57714285D01*
X90547619Y-57761904D01*
X90642857Y-57809523D01*
X90880952Y-57809523D01*
X90976190Y-57761904D01*
X91023809Y-57714285D01*
X91071428Y-57619047D01*
X91071428Y-57428571D01*
X91023809Y-57333333D01*
X90976190Y-57285714D01*
X90880952Y-57238095D01*
G04 #@! TO.C,C18*
X62357142Y-65642857D02*
X62404761Y-65690476D01*
X62452380Y-65833333D01*
X62452380Y-65928571D01*
X62404761Y-66071428D01*
X62309523Y-66166666D01*
X62214285Y-66214285D01*
X62023809Y-66261904D01*
X61880952Y-66261904D01*
X61690476Y-66214285D01*
X61595238Y-66166666D01*
X61500000Y-66071428D01*
X61452380Y-65928571D01*
X61452380Y-65833333D01*
X61500000Y-65690476D01*
X61547619Y-65642857D01*
X62452380Y-64690476D02*
X62452380Y-65261904D01*
X62452380Y-64976190D02*
X61452380Y-64976190D01*
X61595238Y-65071428D01*
X61690476Y-65166666D01*
X61738095Y-65261904D01*
X61880952Y-64119047D02*
X61833333Y-64214285D01*
X61785714Y-64261904D01*
X61690476Y-64309523D01*
X61642857Y-64309523D01*
X61547619Y-64261904D01*
X61500000Y-64214285D01*
X61452380Y-64119047D01*
X61452380Y-63928571D01*
X61500000Y-63833333D01*
X61547619Y-63785714D01*
X61642857Y-63738095D01*
X61690476Y-63738095D01*
X61785714Y-63785714D01*
X61833333Y-63833333D01*
X61880952Y-63928571D01*
X61880952Y-64119047D01*
X61928571Y-64214285D01*
X61976190Y-64261904D01*
X62071428Y-64309523D01*
X62261904Y-64309523D01*
X62357142Y-64261904D01*
X62404761Y-64214285D01*
X62452380Y-64119047D01*
X62452380Y-63928571D01*
X62404761Y-63833333D01*
X62357142Y-63785714D01*
X62261904Y-63738095D01*
X62071428Y-63738095D01*
X61976190Y-63785714D01*
X61928571Y-63833333D01*
X61880952Y-63928571D01*
G04 #@! TO.C,C17*
X60357142Y-65642857D02*
X60404761Y-65690476D01*
X60452380Y-65833333D01*
X60452380Y-65928571D01*
X60404761Y-66071428D01*
X60309523Y-66166666D01*
X60214285Y-66214285D01*
X60023809Y-66261904D01*
X59880952Y-66261904D01*
X59690476Y-66214285D01*
X59595238Y-66166666D01*
X59500000Y-66071428D01*
X59452380Y-65928571D01*
X59452380Y-65833333D01*
X59500000Y-65690476D01*
X59547619Y-65642857D01*
X60452380Y-64690476D02*
X60452380Y-65261904D01*
X60452380Y-64976190D02*
X59452380Y-64976190D01*
X59595238Y-65071428D01*
X59690476Y-65166666D01*
X59738095Y-65261904D01*
X59452380Y-64357142D02*
X59452380Y-63690476D01*
X60452380Y-64119047D01*
G04 #@! TO.C,C16*
X91357142Y-70142857D02*
X91404761Y-70190476D01*
X91452380Y-70333333D01*
X91452380Y-70428571D01*
X91404761Y-70571428D01*
X91309523Y-70666666D01*
X91214285Y-70714285D01*
X91023809Y-70761904D01*
X90880952Y-70761904D01*
X90690476Y-70714285D01*
X90595238Y-70666666D01*
X90500000Y-70571428D01*
X90452380Y-70428571D01*
X90452380Y-70333333D01*
X90500000Y-70190476D01*
X90547619Y-70142857D01*
X91452380Y-69190476D02*
X91452380Y-69761904D01*
X91452380Y-69476190D02*
X90452380Y-69476190D01*
X90595238Y-69571428D01*
X90690476Y-69666666D01*
X90738095Y-69761904D01*
X90452380Y-68333333D02*
X90452380Y-68523809D01*
X90500000Y-68619047D01*
X90547619Y-68666666D01*
X90690476Y-68761904D01*
X90880952Y-68809523D01*
X91261904Y-68809523D01*
X91357142Y-68761904D01*
X91404761Y-68714285D01*
X91452380Y-68619047D01*
X91452380Y-68428571D01*
X91404761Y-68333333D01*
X91357142Y-68285714D01*
X91261904Y-68238095D01*
X91023809Y-68238095D01*
X90928571Y-68285714D01*
X90880952Y-68333333D01*
X90833333Y-68428571D01*
X90833333Y-68619047D01*
X90880952Y-68714285D01*
X90928571Y-68761904D01*
X91023809Y-68809523D01*
G04 #@! TO.C,C14*
X65357142Y-52142857D02*
X65404761Y-52190476D01*
X65452380Y-52333333D01*
X65452380Y-52428571D01*
X65404761Y-52571428D01*
X65309523Y-52666666D01*
X65214285Y-52714285D01*
X65023809Y-52761904D01*
X64880952Y-52761904D01*
X64690476Y-52714285D01*
X64595238Y-52666666D01*
X64500000Y-52571428D01*
X64452380Y-52428571D01*
X64452380Y-52333333D01*
X64500000Y-52190476D01*
X64547619Y-52142857D01*
X65452380Y-51190476D02*
X65452380Y-51761904D01*
X65452380Y-51476190D02*
X64452380Y-51476190D01*
X64595238Y-51571428D01*
X64690476Y-51666666D01*
X64738095Y-51761904D01*
X64785714Y-50333333D02*
X65452380Y-50333333D01*
X64404761Y-50571428D02*
X65119047Y-50809523D01*
X65119047Y-50190476D01*
G04 #@! TO.C,C15*
X67357142Y-52142857D02*
X67404761Y-52190476D01*
X67452380Y-52333333D01*
X67452380Y-52428571D01*
X67404761Y-52571428D01*
X67309523Y-52666666D01*
X67214285Y-52714285D01*
X67023809Y-52761904D01*
X66880952Y-52761904D01*
X66690476Y-52714285D01*
X66595238Y-52666666D01*
X66500000Y-52571428D01*
X66452380Y-52428571D01*
X66452380Y-52333333D01*
X66500000Y-52190476D01*
X66547619Y-52142857D01*
X67452380Y-51190476D02*
X67452380Y-51761904D01*
X67452380Y-51476190D02*
X66452380Y-51476190D01*
X66595238Y-51571428D01*
X66690476Y-51666666D01*
X66738095Y-51761904D01*
X66452380Y-50285714D02*
X66452380Y-50761904D01*
X66928571Y-50809523D01*
X66880952Y-50761904D01*
X66833333Y-50666666D01*
X66833333Y-50428571D01*
X66880952Y-50333333D01*
X66928571Y-50285714D01*
X67023809Y-50238095D01*
X67261904Y-50238095D01*
X67357142Y-50285714D01*
X67404761Y-50333333D01*
X67452380Y-50428571D01*
X67452380Y-50666666D01*
X67404761Y-50761904D01*
X67357142Y-50809523D01*
G04 #@! TO.C,C13*
X63357142Y-52142857D02*
X63404761Y-52190476D01*
X63452380Y-52333333D01*
X63452380Y-52428571D01*
X63404761Y-52571428D01*
X63309523Y-52666666D01*
X63214285Y-52714285D01*
X63023809Y-52761904D01*
X62880952Y-52761904D01*
X62690476Y-52714285D01*
X62595238Y-52666666D01*
X62500000Y-52571428D01*
X62452380Y-52428571D01*
X62452380Y-52333333D01*
X62500000Y-52190476D01*
X62547619Y-52142857D01*
X63452380Y-51190476D02*
X63452380Y-51761904D01*
X63452380Y-51476190D02*
X62452380Y-51476190D01*
X62595238Y-51571428D01*
X62690476Y-51666666D01*
X62738095Y-51761904D01*
X62452380Y-50857142D02*
X62452380Y-50238095D01*
X62833333Y-50571428D01*
X62833333Y-50428571D01*
X62880952Y-50333333D01*
X62928571Y-50285714D01*
X63023809Y-50238095D01*
X63261904Y-50238095D01*
X63357142Y-50285714D01*
X63404761Y-50333333D01*
X63452380Y-50428571D01*
X63452380Y-50714285D01*
X63404761Y-50809523D01*
X63357142Y-50857142D01*
G04 #@! TO.C,C11*
X71057142Y-49842857D02*
X71104761Y-49890476D01*
X71152380Y-50033333D01*
X71152380Y-50128571D01*
X71104761Y-50271428D01*
X71009523Y-50366666D01*
X70914285Y-50414285D01*
X70723809Y-50461904D01*
X70580952Y-50461904D01*
X70390476Y-50414285D01*
X70295238Y-50366666D01*
X70200000Y-50271428D01*
X70152380Y-50128571D01*
X70152380Y-50033333D01*
X70200000Y-49890476D01*
X70247619Y-49842857D01*
X71152380Y-48890476D02*
X71152380Y-49461904D01*
X71152380Y-49176190D02*
X70152380Y-49176190D01*
X70295238Y-49271428D01*
X70390476Y-49366666D01*
X70438095Y-49461904D01*
X71152380Y-47938095D02*
X71152380Y-48509523D01*
X71152380Y-48223809D02*
X70152380Y-48223809D01*
X70295238Y-48319047D01*
X70390476Y-48414285D01*
X70438095Y-48509523D01*
G04 #@! TO.C,C10*
X80857142Y-75357142D02*
X80809523Y-75404761D01*
X80666666Y-75452380D01*
X80571428Y-75452380D01*
X80428571Y-75404761D01*
X80333333Y-75309523D01*
X80285714Y-75214285D01*
X80238095Y-75023809D01*
X80238095Y-74880952D01*
X80285714Y-74690476D01*
X80333333Y-74595238D01*
X80428571Y-74500000D01*
X80571428Y-74452380D01*
X80666666Y-74452380D01*
X80809523Y-74500000D01*
X80857142Y-74547619D01*
X81809523Y-75452380D02*
X81238095Y-75452380D01*
X81523809Y-75452380D02*
X81523809Y-74452380D01*
X81428571Y-74595238D01*
X81333333Y-74690476D01*
X81238095Y-74738095D01*
X82428571Y-74452380D02*
X82523809Y-74452380D01*
X82619047Y-74500000D01*
X82666666Y-74547619D01*
X82714285Y-74642857D01*
X82761904Y-74833333D01*
X82761904Y-75071428D01*
X82714285Y-75261904D01*
X82666666Y-75357142D01*
X82619047Y-75404761D01*
X82523809Y-75452380D01*
X82428571Y-75452380D01*
X82333333Y-75404761D01*
X82285714Y-75357142D01*
X82238095Y-75261904D01*
X82190476Y-75071428D01*
X82190476Y-74833333D01*
X82238095Y-74642857D01*
X82285714Y-74547619D01*
X82333333Y-74500000D01*
X82428571Y-74452380D01*
G04 #@! TO.C,C9*
X60833333Y-57857142D02*
X60785714Y-57904761D01*
X60642857Y-57952380D01*
X60547619Y-57952380D01*
X60404761Y-57904761D01*
X60309523Y-57809523D01*
X60261904Y-57714285D01*
X60214285Y-57523809D01*
X60214285Y-57380952D01*
X60261904Y-57190476D01*
X60309523Y-57095238D01*
X60404761Y-57000000D01*
X60547619Y-56952380D01*
X60642857Y-56952380D01*
X60785714Y-57000000D01*
X60833333Y-57047619D01*
X61309523Y-57952380D02*
X61500000Y-57952380D01*
X61595238Y-57904761D01*
X61642857Y-57857142D01*
X61738095Y-57714285D01*
X61785714Y-57523809D01*
X61785714Y-57142857D01*
X61738095Y-57047619D01*
X61690476Y-57000000D01*
X61595238Y-56952380D01*
X61404761Y-56952380D01*
X61309523Y-57000000D01*
X61261904Y-57047619D01*
X61214285Y-57142857D01*
X61214285Y-57380952D01*
X61261904Y-57476190D01*
X61309523Y-57523809D01*
X61404761Y-57571428D01*
X61595238Y-57571428D01*
X61690476Y-57523809D01*
X61738095Y-57476190D01*
X61785714Y-57380952D01*
G04 #@! TO.C,C8*
X55333333Y-64857142D02*
X55285714Y-64904761D01*
X55142857Y-64952380D01*
X55047619Y-64952380D01*
X54904761Y-64904761D01*
X54809523Y-64809523D01*
X54761904Y-64714285D01*
X54714285Y-64523809D01*
X54714285Y-64380952D01*
X54761904Y-64190476D01*
X54809523Y-64095238D01*
X54904761Y-64000000D01*
X55047619Y-63952380D01*
X55142857Y-63952380D01*
X55285714Y-64000000D01*
X55333333Y-64047619D01*
X55904761Y-64380952D02*
X55809523Y-64333333D01*
X55761904Y-64285714D01*
X55714285Y-64190476D01*
X55714285Y-64142857D01*
X55761904Y-64047619D01*
X55809523Y-64000000D01*
X55904761Y-63952380D01*
X56095238Y-63952380D01*
X56190476Y-64000000D01*
X56238095Y-64047619D01*
X56285714Y-64142857D01*
X56285714Y-64190476D01*
X56238095Y-64285714D01*
X56190476Y-64333333D01*
X56095238Y-64380952D01*
X55904761Y-64380952D01*
X55809523Y-64428571D01*
X55761904Y-64476190D01*
X55714285Y-64571428D01*
X55714285Y-64761904D01*
X55761904Y-64857142D01*
X55809523Y-64904761D01*
X55904761Y-64952380D01*
X56095238Y-64952380D01*
X56190476Y-64904761D01*
X56238095Y-64857142D01*
X56285714Y-64761904D01*
X56285714Y-64571428D01*
X56238095Y-64476190D01*
X56190476Y-64428571D01*
X56095238Y-64380952D01*
G04 #@! TO.C,C7*
X71083333Y-72107142D02*
X71035714Y-72154761D01*
X70892857Y-72202380D01*
X70797619Y-72202380D01*
X70654761Y-72154761D01*
X70559523Y-72059523D01*
X70511904Y-71964285D01*
X70464285Y-71773809D01*
X70464285Y-71630952D01*
X70511904Y-71440476D01*
X70559523Y-71345238D01*
X70654761Y-71250000D01*
X70797619Y-71202380D01*
X70892857Y-71202380D01*
X71035714Y-71250000D01*
X71083333Y-71297619D01*
X71416666Y-71202380D02*
X72083333Y-71202380D01*
X71654761Y-72202380D01*
G04 #@! TO.C,C6*
X71083333Y-70107142D02*
X71035714Y-70154761D01*
X70892857Y-70202380D01*
X70797619Y-70202380D01*
X70654761Y-70154761D01*
X70559523Y-70059523D01*
X70511904Y-69964285D01*
X70464285Y-69773809D01*
X70464285Y-69630952D01*
X70511904Y-69440476D01*
X70559523Y-69345238D01*
X70654761Y-69250000D01*
X70797619Y-69202380D01*
X70892857Y-69202380D01*
X71035714Y-69250000D01*
X71083333Y-69297619D01*
X71940476Y-69202380D02*
X71750000Y-69202380D01*
X71654761Y-69250000D01*
X71607142Y-69297619D01*
X71511904Y-69440476D01*
X71464285Y-69630952D01*
X71464285Y-70011904D01*
X71511904Y-70107142D01*
X71559523Y-70154761D01*
X71654761Y-70202380D01*
X71845238Y-70202380D01*
X71940476Y-70154761D01*
X71988095Y-70107142D01*
X72035714Y-70011904D01*
X72035714Y-69773809D01*
X71988095Y-69678571D01*
X71940476Y-69630952D01*
X71845238Y-69583333D01*
X71654761Y-69583333D01*
X71559523Y-69630952D01*
X71511904Y-69678571D01*
X71464285Y-69773809D01*
G04 #@! TO.C,C5*
X71083333Y-68107142D02*
X71035714Y-68154761D01*
X70892857Y-68202380D01*
X70797619Y-68202380D01*
X70654761Y-68154761D01*
X70559523Y-68059523D01*
X70511904Y-67964285D01*
X70464285Y-67773809D01*
X70464285Y-67630952D01*
X70511904Y-67440476D01*
X70559523Y-67345238D01*
X70654761Y-67250000D01*
X70797619Y-67202380D01*
X70892857Y-67202380D01*
X71035714Y-67250000D01*
X71083333Y-67297619D01*
X71988095Y-67202380D02*
X71511904Y-67202380D01*
X71464285Y-67678571D01*
X71511904Y-67630952D01*
X71607142Y-67583333D01*
X71845238Y-67583333D01*
X71940476Y-67630952D01*
X71988095Y-67678571D01*
X72035714Y-67773809D01*
X72035714Y-68011904D01*
X71988095Y-68107142D01*
X71940476Y-68154761D01*
X71845238Y-68202380D01*
X71607142Y-68202380D01*
X71511904Y-68154761D01*
X71464285Y-68107142D01*
G04 #@! TO.C,C4*
X47833333Y-63357142D02*
X47785714Y-63404761D01*
X47642857Y-63452380D01*
X47547619Y-63452380D01*
X47404761Y-63404761D01*
X47309523Y-63309523D01*
X47261904Y-63214285D01*
X47214285Y-63023809D01*
X47214285Y-62880952D01*
X47261904Y-62690476D01*
X47309523Y-62595238D01*
X47404761Y-62500000D01*
X47547619Y-62452380D01*
X47642857Y-62452380D01*
X47785714Y-62500000D01*
X47833333Y-62547619D01*
X48690476Y-62785714D02*
X48690476Y-63452380D01*
X48452380Y-62404761D02*
X48214285Y-63119047D01*
X48833333Y-63119047D01*
G04 #@! TO.C,C3*
X91833333Y-75357142D02*
X91785714Y-75404761D01*
X91642857Y-75452380D01*
X91547619Y-75452380D01*
X91404761Y-75404761D01*
X91309523Y-75309523D01*
X91261904Y-75214285D01*
X91214285Y-75023809D01*
X91214285Y-74880952D01*
X91261904Y-74690476D01*
X91309523Y-74595238D01*
X91404761Y-74500000D01*
X91547619Y-74452380D01*
X91642857Y-74452380D01*
X91785714Y-74500000D01*
X91833333Y-74547619D01*
X92166666Y-74452380D02*
X92785714Y-74452380D01*
X92452380Y-74833333D01*
X92595238Y-74833333D01*
X92690476Y-74880952D01*
X92738095Y-74928571D01*
X92785714Y-75023809D01*
X92785714Y-75261904D01*
X92738095Y-75357142D01*
X92690476Y-75404761D01*
X92595238Y-75452380D01*
X92309523Y-75452380D01*
X92214285Y-75404761D01*
X92166666Y-75357142D01*
G04 #@! TO.C,C2*
X60833333Y-48857142D02*
X60785714Y-48904761D01*
X60642857Y-48952380D01*
X60547619Y-48952380D01*
X60404761Y-48904761D01*
X60309523Y-48809523D01*
X60261904Y-48714285D01*
X60214285Y-48523809D01*
X60214285Y-48380952D01*
X60261904Y-48190476D01*
X60309523Y-48095238D01*
X60404761Y-48000000D01*
X60547619Y-47952380D01*
X60642857Y-47952380D01*
X60785714Y-48000000D01*
X60833333Y-48047619D01*
X61214285Y-48047619D02*
X61261904Y-48000000D01*
X61357142Y-47952380D01*
X61595238Y-47952380D01*
X61690476Y-48000000D01*
X61738095Y-48047619D01*
X61785714Y-48142857D01*
X61785714Y-48238095D01*
X61738095Y-48380952D01*
X61166666Y-48952380D01*
X61785714Y-48952380D01*
G04 #@! TO.C,C1*
X55233333Y-55357142D02*
X55185714Y-55404761D01*
X55042857Y-55452380D01*
X54947619Y-55452380D01*
X54804761Y-55404761D01*
X54709523Y-55309523D01*
X54661904Y-55214285D01*
X54614285Y-55023809D01*
X54614285Y-54880952D01*
X54661904Y-54690476D01*
X54709523Y-54595238D01*
X54804761Y-54500000D01*
X54947619Y-54452380D01*
X55042857Y-54452380D01*
X55185714Y-54500000D01*
X55233333Y-54547619D01*
X56185714Y-55452380D02*
X55614285Y-55452380D01*
X55900000Y-55452380D02*
X55900000Y-54452380D01*
X55804761Y-54595238D01*
X55709523Y-54690476D01*
X55614285Y-54738095D01*
G04 #@! TO.C,C28*
X86857142Y-53357142D02*
X86809523Y-53404761D01*
X86666666Y-53452380D01*
X86571428Y-53452380D01*
X86428571Y-53404761D01*
X86333333Y-53309523D01*
X86285714Y-53214285D01*
X86238095Y-53023809D01*
X86238095Y-52880952D01*
X86285714Y-52690476D01*
X86333333Y-52595238D01*
X86428571Y-52500000D01*
X86571428Y-52452380D01*
X86666666Y-52452380D01*
X86809523Y-52500000D01*
X86857142Y-52547619D01*
X87238095Y-52547619D02*
X87285714Y-52500000D01*
X87380952Y-52452380D01*
X87619047Y-52452380D01*
X87714285Y-52500000D01*
X87761904Y-52547619D01*
X87809523Y-52642857D01*
X87809523Y-52738095D01*
X87761904Y-52880952D01*
X87190476Y-53452380D01*
X87809523Y-53452380D01*
X88380952Y-52880952D02*
X88285714Y-52833333D01*
X88238095Y-52785714D01*
X88190476Y-52690476D01*
X88190476Y-52642857D01*
X88238095Y-52547619D01*
X88285714Y-52500000D01*
X88380952Y-52452380D01*
X88571428Y-52452380D01*
X88666666Y-52500000D01*
X88714285Y-52547619D01*
X88761904Y-52642857D01*
X88761904Y-52690476D01*
X88714285Y-52785714D01*
X88666666Y-52833333D01*
X88571428Y-52880952D01*
X88380952Y-52880952D01*
X88285714Y-52928571D01*
X88238095Y-52976190D01*
X88190476Y-53071428D01*
X88190476Y-53261904D01*
X88238095Y-53357142D01*
X88285714Y-53404761D01*
X88380952Y-53452380D01*
X88571428Y-53452380D01*
X88666666Y-53404761D01*
X88714285Y-53357142D01*
X88761904Y-53261904D01*
X88761904Y-53071428D01*
X88714285Y-52976190D01*
X88666666Y-52928571D01*
X88571428Y-52880952D01*
G04 #@! TO.C,U5*
X76538095Y-64352380D02*
X76538095Y-65161904D01*
X76585714Y-65257142D01*
X76633333Y-65304761D01*
X76728571Y-65352380D01*
X76919047Y-65352380D01*
X77014285Y-65304761D01*
X77061904Y-65257142D01*
X77109523Y-65161904D01*
X77109523Y-64352380D01*
X78061904Y-64352380D02*
X77585714Y-64352380D01*
X77538095Y-64828571D01*
X77585714Y-64780952D01*
X77680952Y-64733333D01*
X77919047Y-64733333D01*
X78014285Y-64780952D01*
X78061904Y-64828571D01*
X78109523Y-64923809D01*
X78109523Y-65161904D01*
X78061904Y-65257142D01*
X78014285Y-65304761D01*
X77919047Y-65352380D01*
X77680952Y-65352380D01*
X77585714Y-65304761D01*
X77538095Y-65257142D01*
G04 #@! TO.C,R10*
X85452380Y-57142857D02*
X84976190Y-57476190D01*
X85452380Y-57714285D02*
X84452380Y-57714285D01*
X84452380Y-57333333D01*
X84500000Y-57238095D01*
X84547619Y-57190476D01*
X84642857Y-57142857D01*
X84785714Y-57142857D01*
X84880952Y-57190476D01*
X84928571Y-57238095D01*
X84976190Y-57333333D01*
X84976190Y-57714285D01*
X85452380Y-56190476D02*
X85452380Y-56761904D01*
X85452380Y-56476190D02*
X84452380Y-56476190D01*
X84595238Y-56571428D01*
X84690476Y-56666666D01*
X84738095Y-56761904D01*
X84452380Y-55571428D02*
X84452380Y-55476190D01*
X84500000Y-55380952D01*
X84547619Y-55333333D01*
X84642857Y-55285714D01*
X84833333Y-55238095D01*
X85071428Y-55238095D01*
X85261904Y-55285714D01*
X85357142Y-55333333D01*
X85404761Y-55380952D01*
X85452380Y-55476190D01*
X85452380Y-55571428D01*
X85404761Y-55666666D01*
X85357142Y-55714285D01*
X85261904Y-55761904D01*
X85071428Y-55809523D01*
X84833333Y-55809523D01*
X84642857Y-55761904D01*
X84547619Y-55714285D01*
X84500000Y-55666666D01*
X84452380Y-55571428D01*
G04 #@! TO.C,R4*
X38333333Y-50952380D02*
X38000000Y-50476190D01*
X37761904Y-50952380D02*
X37761904Y-49952380D01*
X38142857Y-49952380D01*
X38238095Y-50000000D01*
X38285714Y-50047619D01*
X38333333Y-50142857D01*
X38333333Y-50285714D01*
X38285714Y-50380952D01*
X38238095Y-50428571D01*
X38142857Y-50476190D01*
X37761904Y-50476190D01*
X39190476Y-50285714D02*
X39190476Y-50952380D01*
X38952380Y-49904761D02*
X38714285Y-50619047D01*
X39333333Y-50619047D01*
G04 #@! TO.C,R8*
X96252462Y-47387300D02*
X95680042Y-47286285D01*
X95848401Y-47791361D02*
X95141294Y-47084255D01*
X95410668Y-46814880D01*
X95511683Y-46781209D01*
X95579027Y-46781209D01*
X95680042Y-46814880D01*
X95781057Y-46915896D01*
X95814729Y-47016911D01*
X95814729Y-47084255D01*
X95781057Y-47185270D01*
X95511683Y-47454644D01*
X96252462Y-46579178D02*
X96151447Y-46612850D01*
X96084103Y-46612850D01*
X95983088Y-46579178D01*
X95949416Y-46545506D01*
X95915744Y-46444491D01*
X95915744Y-46377148D01*
X95949416Y-46276132D01*
X96084103Y-46141445D01*
X96185119Y-46107774D01*
X96252462Y-46107774D01*
X96353477Y-46141445D01*
X96387149Y-46175117D01*
X96420821Y-46276132D01*
X96420821Y-46343476D01*
X96387149Y-46444491D01*
X96252462Y-46579178D01*
X96218790Y-46680193D01*
X96218790Y-46747537D01*
X96252462Y-46848552D01*
X96387149Y-46983239D01*
X96488164Y-47016911D01*
X96555508Y-47016911D01*
X96656523Y-46983239D01*
X96791210Y-46848552D01*
X96824882Y-46747537D01*
X96824882Y-46680193D01*
X96791210Y-46579178D01*
X96656523Y-46444491D01*
X96555508Y-46410819D01*
X96488164Y-46410819D01*
X96387149Y-46444491D01*
G04 #@! TO.C,R11*
X94215312Y-46524450D02*
X93642893Y-46423435D01*
X93811251Y-46928511D02*
X93104145Y-46221404D01*
X93373519Y-45952030D01*
X93474534Y-45918358D01*
X93541877Y-45918358D01*
X93642893Y-45952030D01*
X93743908Y-46053045D01*
X93777580Y-46154061D01*
X93777580Y-46221404D01*
X93743908Y-46322419D01*
X93474534Y-46591793D01*
X94888748Y-45851015D02*
X94484687Y-46255076D01*
X94686717Y-46053045D02*
X93979610Y-45345938D01*
X94013282Y-45514297D01*
X94013282Y-45648984D01*
X93979610Y-45750000D01*
X95562183Y-45177580D02*
X95158122Y-45581641D01*
X95360152Y-45379610D02*
X94653045Y-44672503D01*
X94686717Y-44840862D01*
X94686717Y-44975549D01*
X94653045Y-45076564D01*
G04 #@! TO.C,R12*
X98540096Y-50899666D02*
X97967677Y-50798651D01*
X98136035Y-51303727D02*
X97428929Y-50596620D01*
X97698303Y-50327246D01*
X97799318Y-50293574D01*
X97866661Y-50293574D01*
X97967677Y-50327246D01*
X98068692Y-50428261D01*
X98102364Y-50529277D01*
X98102364Y-50596620D01*
X98068692Y-50697635D01*
X97799318Y-50967009D01*
X99213532Y-50226231D02*
X98809471Y-50630292D01*
X99011501Y-50428261D02*
X98304394Y-49721154D01*
X98338066Y-49889513D01*
X98338066Y-50024200D01*
X98304394Y-50125216D01*
X98843142Y-49317093D02*
X98843142Y-49249750D01*
X98876814Y-49148735D01*
X99045173Y-48980376D01*
X99146188Y-48946704D01*
X99213532Y-48946704D01*
X99314547Y-48980376D01*
X99381890Y-49047719D01*
X99449234Y-49182406D01*
X99449234Y-49990528D01*
X99886967Y-49552796D01*
G04 #@! TO.C,R1*
X37833333Y-52952380D02*
X37500000Y-52476190D01*
X37261904Y-52952380D02*
X37261904Y-51952380D01*
X37642857Y-51952380D01*
X37738095Y-52000000D01*
X37785714Y-52047619D01*
X37833333Y-52142857D01*
X37833333Y-52285714D01*
X37785714Y-52380952D01*
X37738095Y-52428571D01*
X37642857Y-52476190D01*
X37261904Y-52476190D01*
X38785714Y-52952380D02*
X38214285Y-52952380D01*
X38500000Y-52952380D02*
X38500000Y-51952380D01*
X38404761Y-52095238D01*
X38309523Y-52190476D01*
X38214285Y-52238095D01*
G04 #@! TO.C,R2*
X89733333Y-77552380D02*
X89400000Y-77076190D01*
X89161904Y-77552380D02*
X89161904Y-76552380D01*
X89542857Y-76552380D01*
X89638095Y-76600000D01*
X89685714Y-76647619D01*
X89733333Y-76742857D01*
X89733333Y-76885714D01*
X89685714Y-76980952D01*
X89638095Y-77028571D01*
X89542857Y-77076190D01*
X89161904Y-77076190D01*
X90114285Y-76647619D02*
X90161904Y-76600000D01*
X90257142Y-76552380D01*
X90495238Y-76552380D01*
X90590476Y-76600000D01*
X90638095Y-76647619D01*
X90685714Y-76742857D01*
X90685714Y-76838095D01*
X90638095Y-76980952D01*
X90066666Y-77552380D01*
X90685714Y-77552380D01*
G04 #@! TO.C,R9*
X97726814Y-48912948D02*
X97154394Y-48811933D01*
X97322753Y-49317009D02*
X96615646Y-48609903D01*
X96885020Y-48340528D01*
X96986035Y-48306857D01*
X97053379Y-48306857D01*
X97154394Y-48340528D01*
X97255409Y-48441544D01*
X97289081Y-48542559D01*
X97289081Y-48609903D01*
X97255409Y-48710918D01*
X96986035Y-48980292D01*
X98063532Y-48576231D02*
X98198219Y-48441544D01*
X98231890Y-48340528D01*
X98231890Y-48273185D01*
X98198219Y-48104826D01*
X98097203Y-47936467D01*
X97827829Y-47667093D01*
X97726814Y-47633422D01*
X97659471Y-47633422D01*
X97558455Y-47667093D01*
X97423768Y-47801780D01*
X97390096Y-47902796D01*
X97390096Y-47970139D01*
X97423768Y-48071154D01*
X97592127Y-48239513D01*
X97693142Y-48273185D01*
X97760486Y-48273185D01*
X97861501Y-48239513D01*
X97996188Y-48104826D01*
X98029860Y-48003811D01*
X98029860Y-47936467D01*
X97996188Y-47835452D01*
G04 #@! TO.C,U8*
X96038095Y-63552380D02*
X96038095Y-64361904D01*
X96085714Y-64457142D01*
X96133333Y-64504761D01*
X96228571Y-64552380D01*
X96419047Y-64552380D01*
X96514285Y-64504761D01*
X96561904Y-64457142D01*
X96609523Y-64361904D01*
X96609523Y-63552380D01*
X97228571Y-63980952D02*
X97133333Y-63933333D01*
X97085714Y-63885714D01*
X97038095Y-63790476D01*
X97038095Y-63742857D01*
X97085714Y-63647619D01*
X97133333Y-63600000D01*
X97228571Y-63552380D01*
X97419047Y-63552380D01*
X97514285Y-63600000D01*
X97561904Y-63647619D01*
X97609523Y-63742857D01*
X97609523Y-63790476D01*
X97561904Y-63885714D01*
X97514285Y-63933333D01*
X97419047Y-63980952D01*
X97228571Y-63980952D01*
X97133333Y-64028571D01*
X97085714Y-64076190D01*
X97038095Y-64171428D01*
X97038095Y-64361904D01*
X97085714Y-64457142D01*
X97133333Y-64504761D01*
X97228571Y-64552380D01*
X97419047Y-64552380D01*
X97514285Y-64504761D01*
X97561904Y-64457142D01*
X97609523Y-64361904D01*
X97609523Y-64171428D01*
X97561904Y-64076190D01*
X97514285Y-64028571D01*
X97419047Y-63980952D01*
G04 #@! TO.C,U1*
X51488095Y-62452380D02*
X51488095Y-63261904D01*
X51535714Y-63357142D01*
X51583333Y-63404761D01*
X51678571Y-63452380D01*
X51869047Y-63452380D01*
X51964285Y-63404761D01*
X52011904Y-63357142D01*
X52059523Y-63261904D01*
X52059523Y-62452380D01*
X53059523Y-63452380D02*
X52488095Y-63452380D01*
X52773809Y-63452380D02*
X52773809Y-62452380D01*
X52678571Y-62595238D01*
X52583333Y-62690476D01*
X52488095Y-62738095D01*
G04 #@! TO.C,U2*
X57238095Y-55702380D02*
X57238095Y-56511904D01*
X57285714Y-56607142D01*
X57333333Y-56654761D01*
X57428571Y-56702380D01*
X57619047Y-56702380D01*
X57714285Y-56654761D01*
X57761904Y-56607142D01*
X57809523Y-56511904D01*
X57809523Y-55702380D01*
X58238095Y-55797619D02*
X58285714Y-55750000D01*
X58380952Y-55702380D01*
X58619047Y-55702380D01*
X58714285Y-55750000D01*
X58761904Y-55797619D01*
X58809523Y-55892857D01*
X58809523Y-55988095D01*
X58761904Y-56130952D01*
X58190476Y-56702380D01*
X58809523Y-56702380D01*
G04 #@! TO.C,U3*
X86238095Y-68452380D02*
X86238095Y-69261904D01*
X86285714Y-69357142D01*
X86333333Y-69404761D01*
X86428571Y-69452380D01*
X86619047Y-69452380D01*
X86714285Y-69404761D01*
X86761904Y-69357142D01*
X86809523Y-69261904D01*
X86809523Y-68452380D01*
X87190476Y-68452380D02*
X87809523Y-68452380D01*
X87476190Y-68833333D01*
X87619047Y-68833333D01*
X87714285Y-68880952D01*
X87761904Y-68928571D01*
X87809523Y-69023809D01*
X87809523Y-69261904D01*
X87761904Y-69357142D01*
X87714285Y-69404761D01*
X87619047Y-69452380D01*
X87333333Y-69452380D01*
X87238095Y-69404761D01*
X87190476Y-69357142D01*
G04 #@! TO.C,SW4*
X76916666Y-37404761D02*
X77059523Y-37452380D01*
X77297619Y-37452380D01*
X77392857Y-37404761D01*
X77440476Y-37357142D01*
X77488095Y-37261904D01*
X77488095Y-37166666D01*
X77440476Y-37071428D01*
X77392857Y-37023809D01*
X77297619Y-36976190D01*
X77107142Y-36928571D01*
X77011904Y-36880952D01*
X76964285Y-36833333D01*
X76916666Y-36738095D01*
X76916666Y-36642857D01*
X76964285Y-36547619D01*
X77011904Y-36500000D01*
X77107142Y-36452380D01*
X77345238Y-36452380D01*
X77488095Y-36500000D01*
X77821428Y-36452380D02*
X78059523Y-37452380D01*
X78250000Y-36738095D01*
X78440476Y-37452380D01*
X78678571Y-36452380D01*
X79488095Y-36785714D02*
X79488095Y-37452380D01*
X79250000Y-36404761D02*
X79011904Y-37119047D01*
X79630952Y-37119047D01*
D15*
X78726190Y-42154761D02*
X77773809Y-42154761D01*
X77678571Y-43107142D01*
X77773809Y-43011904D01*
X77964285Y-42916666D01*
X78440476Y-42916666D01*
X78630952Y-43011904D01*
X78726190Y-43107142D01*
X78821428Y-43297619D01*
X78821428Y-43773809D01*
X78726190Y-43964285D01*
X78630952Y-44059523D01*
X78440476Y-44154761D01*
X77964285Y-44154761D01*
X77773809Y-44059523D01*
X77678571Y-43964285D01*
G04 #@! TO.C,SW2*
X31571428Y-43904761D02*
X30428571Y-43904761D01*
X31000000Y-43904761D02*
X31000000Y-41904761D01*
X30809523Y-42190476D01*
X30619047Y-42380952D01*
X30428571Y-42476190D01*
X42428571Y-42095238D02*
X42523809Y-42000000D01*
X42714285Y-41904761D01*
X43190476Y-41904761D01*
X43380952Y-42000000D01*
X43476190Y-42095238D01*
X43571428Y-42285714D01*
X43571428Y-42476190D01*
X43476190Y-42761904D01*
X42333333Y-43904761D01*
X43571428Y-43904761D01*
X54333333Y-41904761D02*
X55571428Y-41904761D01*
X54904761Y-42666666D01*
X55190476Y-42666666D01*
X55380952Y-42761904D01*
X55476190Y-42857142D01*
X55571428Y-43047619D01*
X55571428Y-43523809D01*
X55476190Y-43714285D01*
X55380952Y-43809523D01*
X55190476Y-43904761D01*
X54619047Y-43904761D01*
X54428571Y-43809523D01*
X54333333Y-43714285D01*
X67380952Y-42571428D02*
X67380952Y-43904761D01*
X66904761Y-41809523D02*
X66428571Y-43238095D01*
X67666666Y-43238095D01*
G04 #@! TD*
M02*
