G04 #@! TF.GenerationSoftware,KiCad,Pcbnew,(5.0.0)*
G04 #@! TF.CreationDate,2018-11-25T04:16:18+08:00*
G04 #@! TF.ProjectId,tomu-fpga,746F6D752D667067612E6B696361645F,rev?*
G04 #@! TF.SameCoordinates,Original*
G04 #@! TF.FileFunction,Soldermask,Bot*
G04 #@! TF.FilePolarity,Negative*
%FSLAX46Y46*%
G04 Gerber Fmt 4.6, Leading zero omitted, Abs format (unit mm)*
G04 Created by KiCad (PCBNEW (5.0.0)) date 11/25/18 04:16:18*
%MOMM*%
%LPD*%
G01*
G04 APERTURE LIST*
%ADD10C,0.150000*%
%ADD11C,0.100000*%
G04 APERTURE END LIST*
D10*
G36*
X24500000Y-48000000D02*
X29500000Y-48000000D01*
X29500000Y-53000000D01*
X24500000Y-53000000D01*
X24500000Y-48000000D01*
G37*
X24500000Y-48000000D02*
X29500000Y-48000000D01*
X29500000Y-53000000D01*
X24500000Y-53000000D01*
X24500000Y-48000000D01*
D11*
G36*
X96460800Y-78600800D02*
X94659200Y-78600800D01*
X94659200Y-76799200D01*
X96460800Y-76799200D01*
X96460800Y-78600800D01*
X96460800Y-78600800D01*
G37*
G36*
X98188362Y-76803545D02*
X98276588Y-76812234D01*
X98389789Y-76846573D01*
X98446390Y-76863743D01*
X98584980Y-76937822D01*
X98602879Y-76947389D01*
X98638609Y-76976712D01*
X98740044Y-77059956D01*
X98823288Y-77161391D01*
X98852611Y-77197121D01*
X98852612Y-77197123D01*
X98936257Y-77353610D01*
X98936257Y-77353611D01*
X98987766Y-77523412D01*
X99005158Y-77700000D01*
X98987766Y-77876588D01*
X98953427Y-77989789D01*
X98936257Y-78046390D01*
X98864817Y-78180043D01*
X98852611Y-78202879D01*
X98823288Y-78238609D01*
X98740044Y-78340044D01*
X98638609Y-78423288D01*
X98602879Y-78452611D01*
X98602877Y-78452612D01*
X98446390Y-78536257D01*
X98389789Y-78553427D01*
X98276588Y-78587766D01*
X98188362Y-78596455D01*
X98144250Y-78600800D01*
X98055750Y-78600800D01*
X98011638Y-78596455D01*
X97923412Y-78587766D01*
X97810211Y-78553427D01*
X97753610Y-78536257D01*
X97597123Y-78452612D01*
X97597121Y-78452611D01*
X97561391Y-78423288D01*
X97459956Y-78340044D01*
X97376712Y-78238609D01*
X97347389Y-78202879D01*
X97335183Y-78180043D01*
X97263743Y-78046390D01*
X97246573Y-77989789D01*
X97212234Y-77876588D01*
X97194842Y-77700000D01*
X97212234Y-77523412D01*
X97263743Y-77353611D01*
X97263743Y-77353610D01*
X97347388Y-77197123D01*
X97347389Y-77197121D01*
X97376712Y-77161391D01*
X97459956Y-77059956D01*
X97561391Y-76976712D01*
X97597121Y-76947389D01*
X97615020Y-76937822D01*
X97753610Y-76863743D01*
X97810211Y-76846573D01*
X97923412Y-76812234D01*
X98011638Y-76803545D01*
X98055750Y-76799200D01*
X98144250Y-76799200D01*
X98188362Y-76803545D01*
X98188362Y-76803545D01*
G37*
G36*
X100728362Y-76803545D02*
X100816588Y-76812234D01*
X100929789Y-76846573D01*
X100986390Y-76863743D01*
X101124980Y-76937822D01*
X101142879Y-76947389D01*
X101178609Y-76976712D01*
X101280044Y-77059956D01*
X101363288Y-77161391D01*
X101392611Y-77197121D01*
X101392612Y-77197123D01*
X101476257Y-77353610D01*
X101476257Y-77353611D01*
X101527766Y-77523412D01*
X101545158Y-77700000D01*
X101527766Y-77876588D01*
X101493427Y-77989789D01*
X101476257Y-78046390D01*
X101404817Y-78180043D01*
X101392611Y-78202879D01*
X101363288Y-78238609D01*
X101280044Y-78340044D01*
X101178609Y-78423288D01*
X101142879Y-78452611D01*
X101142877Y-78452612D01*
X100986390Y-78536257D01*
X100929789Y-78553427D01*
X100816588Y-78587766D01*
X100728362Y-78596455D01*
X100684250Y-78600800D01*
X100595750Y-78600800D01*
X100551638Y-78596455D01*
X100463412Y-78587766D01*
X100350211Y-78553427D01*
X100293610Y-78536257D01*
X100137123Y-78452612D01*
X100137121Y-78452611D01*
X100101391Y-78423288D01*
X99999956Y-78340044D01*
X99916712Y-78238609D01*
X99887389Y-78202879D01*
X99875183Y-78180043D01*
X99803743Y-78046390D01*
X99786573Y-77989789D01*
X99752234Y-77876588D01*
X99734842Y-77700000D01*
X99752234Y-77523412D01*
X99803743Y-77353611D01*
X99803743Y-77353610D01*
X99887388Y-77197123D01*
X99887389Y-77197121D01*
X99916712Y-77161391D01*
X99999956Y-77059956D01*
X100101391Y-76976712D01*
X100137121Y-76947389D01*
X100155020Y-76937822D01*
X100293610Y-76863743D01*
X100350211Y-76846573D01*
X100463412Y-76812234D01*
X100551638Y-76803545D01*
X100595750Y-76799200D01*
X100684250Y-76799200D01*
X100728362Y-76803545D01*
X100728362Y-76803545D01*
G37*
G36*
X103268362Y-76803545D02*
X103356588Y-76812234D01*
X103469789Y-76846573D01*
X103526390Y-76863743D01*
X103664980Y-76937822D01*
X103682879Y-76947389D01*
X103718609Y-76976712D01*
X103820044Y-77059956D01*
X103903288Y-77161391D01*
X103932611Y-77197121D01*
X103932612Y-77197123D01*
X104016257Y-77353610D01*
X104016257Y-77353611D01*
X104067766Y-77523412D01*
X104085158Y-77700000D01*
X104067766Y-77876588D01*
X104033427Y-77989789D01*
X104016257Y-78046390D01*
X103944817Y-78180043D01*
X103932611Y-78202879D01*
X103903288Y-78238609D01*
X103820044Y-78340044D01*
X103718609Y-78423288D01*
X103682879Y-78452611D01*
X103682877Y-78452612D01*
X103526390Y-78536257D01*
X103469789Y-78553427D01*
X103356588Y-78587766D01*
X103268362Y-78596455D01*
X103224250Y-78600800D01*
X103135750Y-78600800D01*
X103091638Y-78596455D01*
X103003412Y-78587766D01*
X102890211Y-78553427D01*
X102833610Y-78536257D01*
X102677123Y-78452612D01*
X102677121Y-78452611D01*
X102641391Y-78423288D01*
X102539956Y-78340044D01*
X102456712Y-78238609D01*
X102427389Y-78202879D01*
X102415183Y-78180043D01*
X102343743Y-78046390D01*
X102326573Y-77989789D01*
X102292234Y-77876588D01*
X102274842Y-77700000D01*
X102292234Y-77523412D01*
X102343743Y-77353611D01*
X102343743Y-77353610D01*
X102427388Y-77197123D01*
X102427389Y-77197121D01*
X102456712Y-77161391D01*
X102539956Y-77059956D01*
X102641391Y-76976712D01*
X102677121Y-76947389D01*
X102695020Y-76937822D01*
X102833610Y-76863743D01*
X102890211Y-76846573D01*
X103003412Y-76812234D01*
X103091638Y-76803545D01*
X103135750Y-76799200D01*
X103224250Y-76799200D01*
X103268362Y-76803545D01*
X103268362Y-76803545D01*
G37*
G36*
X108348362Y-76803545D02*
X108436588Y-76812234D01*
X108549789Y-76846573D01*
X108606390Y-76863743D01*
X108744980Y-76937822D01*
X108762879Y-76947389D01*
X108798609Y-76976712D01*
X108900044Y-77059956D01*
X108983288Y-77161391D01*
X109012611Y-77197121D01*
X109012612Y-77197123D01*
X109096257Y-77353610D01*
X109096257Y-77353611D01*
X109147766Y-77523412D01*
X109165158Y-77700000D01*
X109147766Y-77876588D01*
X109113427Y-77989789D01*
X109096257Y-78046390D01*
X109024817Y-78180043D01*
X109012611Y-78202879D01*
X108983288Y-78238609D01*
X108900044Y-78340044D01*
X108798609Y-78423288D01*
X108762879Y-78452611D01*
X108762877Y-78452612D01*
X108606390Y-78536257D01*
X108549789Y-78553427D01*
X108436588Y-78587766D01*
X108348362Y-78596455D01*
X108304250Y-78600800D01*
X108215750Y-78600800D01*
X108171638Y-78596455D01*
X108083412Y-78587766D01*
X107970211Y-78553427D01*
X107913610Y-78536257D01*
X107757123Y-78452612D01*
X107757121Y-78452611D01*
X107721391Y-78423288D01*
X107619956Y-78340044D01*
X107536712Y-78238609D01*
X107507389Y-78202879D01*
X107495183Y-78180043D01*
X107423743Y-78046390D01*
X107406573Y-77989789D01*
X107372234Y-77876588D01*
X107354842Y-77700000D01*
X107372234Y-77523412D01*
X107423743Y-77353611D01*
X107423743Y-77353610D01*
X107507388Y-77197123D01*
X107507389Y-77197121D01*
X107536712Y-77161391D01*
X107619956Y-77059956D01*
X107721391Y-76976712D01*
X107757121Y-76947389D01*
X107775020Y-76937822D01*
X107913610Y-76863743D01*
X107970211Y-76846573D01*
X108083412Y-76812234D01*
X108171638Y-76803545D01*
X108215750Y-76799200D01*
X108304250Y-76799200D01*
X108348362Y-76803545D01*
X108348362Y-76803545D01*
G37*
G36*
X105808362Y-76803545D02*
X105896588Y-76812234D01*
X106009789Y-76846573D01*
X106066390Y-76863743D01*
X106204980Y-76937822D01*
X106222879Y-76947389D01*
X106258609Y-76976712D01*
X106360044Y-77059956D01*
X106443288Y-77161391D01*
X106472611Y-77197121D01*
X106472612Y-77197123D01*
X106556257Y-77353610D01*
X106556257Y-77353611D01*
X106607766Y-77523412D01*
X106625158Y-77700000D01*
X106607766Y-77876588D01*
X106573427Y-77989789D01*
X106556257Y-78046390D01*
X106484817Y-78180043D01*
X106472611Y-78202879D01*
X106443288Y-78238609D01*
X106360044Y-78340044D01*
X106258609Y-78423288D01*
X106222879Y-78452611D01*
X106222877Y-78452612D01*
X106066390Y-78536257D01*
X106009789Y-78553427D01*
X105896588Y-78587766D01*
X105808362Y-78596455D01*
X105764250Y-78600800D01*
X105675750Y-78600800D01*
X105631638Y-78596455D01*
X105543412Y-78587766D01*
X105430211Y-78553427D01*
X105373610Y-78536257D01*
X105217123Y-78452612D01*
X105217121Y-78452611D01*
X105181391Y-78423288D01*
X105079956Y-78340044D01*
X104996712Y-78238609D01*
X104967389Y-78202879D01*
X104955183Y-78180043D01*
X104883743Y-78046390D01*
X104866573Y-77989789D01*
X104832234Y-77876588D01*
X104814842Y-77700000D01*
X104832234Y-77523412D01*
X104883743Y-77353611D01*
X104883743Y-77353610D01*
X104967388Y-77197123D01*
X104967389Y-77197121D01*
X104996712Y-77161391D01*
X105079956Y-77059956D01*
X105181391Y-76976712D01*
X105217121Y-76947389D01*
X105235020Y-76937822D01*
X105373610Y-76863743D01*
X105430211Y-76846573D01*
X105543412Y-76812234D01*
X105631638Y-76803545D01*
X105675750Y-76799200D01*
X105764250Y-76799200D01*
X105808362Y-76803545D01*
X105808362Y-76803545D01*
G37*
G36*
X64928362Y-76643545D02*
X65016588Y-76652234D01*
X65129789Y-76686573D01*
X65186390Y-76703743D01*
X65324980Y-76777822D01*
X65342879Y-76787389D01*
X65378609Y-76816712D01*
X65480044Y-76899956D01*
X65563288Y-77001391D01*
X65592611Y-77037121D01*
X65592612Y-77037123D01*
X65676257Y-77193610D01*
X65693427Y-77250211D01*
X65727766Y-77363412D01*
X65745158Y-77540000D01*
X65727766Y-77716588D01*
X65693427Y-77829789D01*
X65676257Y-77886390D01*
X65602178Y-78024980D01*
X65592611Y-78042879D01*
X65563288Y-78078609D01*
X65480044Y-78180044D01*
X65378609Y-78263288D01*
X65342879Y-78292611D01*
X65342877Y-78292612D01*
X65186390Y-78376257D01*
X65129789Y-78393427D01*
X65016588Y-78427766D01*
X64928362Y-78436455D01*
X64884250Y-78440800D01*
X64795750Y-78440800D01*
X64751638Y-78436455D01*
X64663412Y-78427766D01*
X64550211Y-78393427D01*
X64493610Y-78376257D01*
X64337123Y-78292612D01*
X64337121Y-78292611D01*
X64301391Y-78263288D01*
X64199956Y-78180044D01*
X64116712Y-78078609D01*
X64087389Y-78042879D01*
X64077822Y-78024980D01*
X64003743Y-77886390D01*
X63986573Y-77829789D01*
X63952234Y-77716588D01*
X63934842Y-77540000D01*
X63952234Y-77363412D01*
X63986573Y-77250211D01*
X64003743Y-77193610D01*
X64087388Y-77037123D01*
X64087389Y-77037121D01*
X64116712Y-77001391D01*
X64199956Y-76899956D01*
X64301391Y-76816712D01*
X64337121Y-76787389D01*
X64355020Y-76777822D01*
X64493610Y-76703743D01*
X64550211Y-76686573D01*
X64663412Y-76652234D01*
X64751638Y-76643545D01*
X64795750Y-76639200D01*
X64884250Y-76639200D01*
X64928362Y-76643545D01*
X64928362Y-76643545D01*
G37*
G36*
X72548362Y-76643545D02*
X72636588Y-76652234D01*
X72749789Y-76686573D01*
X72806390Y-76703743D01*
X72944980Y-76777822D01*
X72962879Y-76787389D01*
X72998609Y-76816712D01*
X73100044Y-76899956D01*
X73183288Y-77001391D01*
X73212611Y-77037121D01*
X73212612Y-77037123D01*
X73296257Y-77193610D01*
X73313427Y-77250211D01*
X73347766Y-77363412D01*
X73365158Y-77540000D01*
X73347766Y-77716588D01*
X73313427Y-77829789D01*
X73296257Y-77886390D01*
X73222178Y-78024980D01*
X73212611Y-78042879D01*
X73183288Y-78078609D01*
X73100044Y-78180044D01*
X72998609Y-78263288D01*
X72962879Y-78292611D01*
X72962877Y-78292612D01*
X72806390Y-78376257D01*
X72749789Y-78393427D01*
X72636588Y-78427766D01*
X72548362Y-78436455D01*
X72504250Y-78440800D01*
X72415750Y-78440800D01*
X72371638Y-78436455D01*
X72283412Y-78427766D01*
X72170211Y-78393427D01*
X72113610Y-78376257D01*
X71957123Y-78292612D01*
X71957121Y-78292611D01*
X71921391Y-78263288D01*
X71819956Y-78180044D01*
X71736712Y-78078609D01*
X71707389Y-78042879D01*
X71697822Y-78024980D01*
X71623743Y-77886390D01*
X71606573Y-77829789D01*
X71572234Y-77716588D01*
X71554842Y-77540000D01*
X71572234Y-77363412D01*
X71606573Y-77250211D01*
X71623743Y-77193610D01*
X71707388Y-77037123D01*
X71707389Y-77037121D01*
X71736712Y-77001391D01*
X71819956Y-76899956D01*
X71921391Y-76816712D01*
X71957121Y-76787389D01*
X71975020Y-76777822D01*
X72113610Y-76703743D01*
X72170211Y-76686573D01*
X72283412Y-76652234D01*
X72371638Y-76643545D01*
X72415750Y-76639200D01*
X72504250Y-76639200D01*
X72548362Y-76643545D01*
X72548362Y-76643545D01*
G37*
G36*
X67468362Y-76643545D02*
X67556588Y-76652234D01*
X67669789Y-76686573D01*
X67726390Y-76703743D01*
X67864980Y-76777822D01*
X67882879Y-76787389D01*
X67918609Y-76816712D01*
X68020044Y-76899956D01*
X68103288Y-77001391D01*
X68132611Y-77037121D01*
X68132612Y-77037123D01*
X68216257Y-77193610D01*
X68233427Y-77250211D01*
X68267766Y-77363412D01*
X68285158Y-77540000D01*
X68267766Y-77716588D01*
X68233427Y-77829789D01*
X68216257Y-77886390D01*
X68142178Y-78024980D01*
X68132611Y-78042879D01*
X68103288Y-78078609D01*
X68020044Y-78180044D01*
X67918609Y-78263288D01*
X67882879Y-78292611D01*
X67882877Y-78292612D01*
X67726390Y-78376257D01*
X67669789Y-78393427D01*
X67556588Y-78427766D01*
X67468362Y-78436455D01*
X67424250Y-78440800D01*
X67335750Y-78440800D01*
X67291638Y-78436455D01*
X67203412Y-78427766D01*
X67090211Y-78393427D01*
X67033610Y-78376257D01*
X66877123Y-78292612D01*
X66877121Y-78292611D01*
X66841391Y-78263288D01*
X66739956Y-78180044D01*
X66656712Y-78078609D01*
X66627389Y-78042879D01*
X66617822Y-78024980D01*
X66543743Y-77886390D01*
X66526573Y-77829789D01*
X66492234Y-77716588D01*
X66474842Y-77540000D01*
X66492234Y-77363412D01*
X66526573Y-77250211D01*
X66543743Y-77193610D01*
X66627388Y-77037123D01*
X66627389Y-77037121D01*
X66656712Y-77001391D01*
X66739956Y-76899956D01*
X66841391Y-76816712D01*
X66877121Y-76787389D01*
X66895020Y-76777822D01*
X67033610Y-76703743D01*
X67090211Y-76686573D01*
X67203412Y-76652234D01*
X67291638Y-76643545D01*
X67335750Y-76639200D01*
X67424250Y-76639200D01*
X67468362Y-76643545D01*
X67468362Y-76643545D01*
G37*
G36*
X62388362Y-76643545D02*
X62476588Y-76652234D01*
X62589789Y-76686573D01*
X62646390Y-76703743D01*
X62784980Y-76777822D01*
X62802879Y-76787389D01*
X62838609Y-76816712D01*
X62940044Y-76899956D01*
X63023288Y-77001391D01*
X63052611Y-77037121D01*
X63052612Y-77037123D01*
X63136257Y-77193610D01*
X63153427Y-77250211D01*
X63187766Y-77363412D01*
X63205158Y-77540000D01*
X63187766Y-77716588D01*
X63153427Y-77829789D01*
X63136257Y-77886390D01*
X63062178Y-78024980D01*
X63052611Y-78042879D01*
X63023288Y-78078609D01*
X62940044Y-78180044D01*
X62838609Y-78263288D01*
X62802879Y-78292611D01*
X62802877Y-78292612D01*
X62646390Y-78376257D01*
X62589789Y-78393427D01*
X62476588Y-78427766D01*
X62388362Y-78436455D01*
X62344250Y-78440800D01*
X62255750Y-78440800D01*
X62211638Y-78436455D01*
X62123412Y-78427766D01*
X62010211Y-78393427D01*
X61953610Y-78376257D01*
X61797123Y-78292612D01*
X61797121Y-78292611D01*
X61761391Y-78263288D01*
X61659956Y-78180044D01*
X61576712Y-78078609D01*
X61547389Y-78042879D01*
X61537822Y-78024980D01*
X61463743Y-77886390D01*
X61446573Y-77829789D01*
X61412234Y-77716588D01*
X61394842Y-77540000D01*
X61412234Y-77363412D01*
X61446573Y-77250211D01*
X61463743Y-77193610D01*
X61547388Y-77037123D01*
X61547389Y-77037121D01*
X61576712Y-77001391D01*
X61659956Y-76899956D01*
X61761391Y-76816712D01*
X61797121Y-76787389D01*
X61815020Y-76777822D01*
X61953610Y-76703743D01*
X62010211Y-76686573D01*
X62123412Y-76652234D01*
X62211638Y-76643545D01*
X62255750Y-76639200D01*
X62344250Y-76639200D01*
X62388362Y-76643545D01*
X62388362Y-76643545D01*
G37*
G36*
X59848362Y-76643545D02*
X59936588Y-76652234D01*
X60049789Y-76686573D01*
X60106390Y-76703743D01*
X60244980Y-76777822D01*
X60262879Y-76787389D01*
X60298609Y-76816712D01*
X60400044Y-76899956D01*
X60483288Y-77001391D01*
X60512611Y-77037121D01*
X60512612Y-77037123D01*
X60596257Y-77193610D01*
X60613427Y-77250211D01*
X60647766Y-77363412D01*
X60665158Y-77540000D01*
X60647766Y-77716588D01*
X60613427Y-77829789D01*
X60596257Y-77886390D01*
X60522178Y-78024980D01*
X60512611Y-78042879D01*
X60483288Y-78078609D01*
X60400044Y-78180044D01*
X60298609Y-78263288D01*
X60262879Y-78292611D01*
X60262877Y-78292612D01*
X60106390Y-78376257D01*
X60049789Y-78393427D01*
X59936588Y-78427766D01*
X59848362Y-78436455D01*
X59804250Y-78440800D01*
X59715750Y-78440800D01*
X59671638Y-78436455D01*
X59583412Y-78427766D01*
X59470211Y-78393427D01*
X59413610Y-78376257D01*
X59257123Y-78292612D01*
X59257121Y-78292611D01*
X59221391Y-78263288D01*
X59119956Y-78180044D01*
X59036712Y-78078609D01*
X59007389Y-78042879D01*
X58997822Y-78024980D01*
X58923743Y-77886390D01*
X58906573Y-77829789D01*
X58872234Y-77716588D01*
X58854842Y-77540000D01*
X58872234Y-77363412D01*
X58906573Y-77250211D01*
X58923743Y-77193610D01*
X59007388Y-77037123D01*
X59007389Y-77037121D01*
X59036712Y-77001391D01*
X59119956Y-76899956D01*
X59221391Y-76816712D01*
X59257121Y-76787389D01*
X59275020Y-76777822D01*
X59413610Y-76703743D01*
X59470211Y-76686573D01*
X59583412Y-76652234D01*
X59671638Y-76643545D01*
X59715750Y-76639200D01*
X59804250Y-76639200D01*
X59848362Y-76643545D01*
X59848362Y-76643545D01*
G37*
G36*
X57308362Y-76643545D02*
X57396588Y-76652234D01*
X57509789Y-76686573D01*
X57566390Y-76703743D01*
X57704980Y-76777822D01*
X57722879Y-76787389D01*
X57758609Y-76816712D01*
X57860044Y-76899956D01*
X57943288Y-77001391D01*
X57972611Y-77037121D01*
X57972612Y-77037123D01*
X58056257Y-77193610D01*
X58073427Y-77250211D01*
X58107766Y-77363412D01*
X58125158Y-77540000D01*
X58107766Y-77716588D01*
X58073427Y-77829789D01*
X58056257Y-77886390D01*
X57982178Y-78024980D01*
X57972611Y-78042879D01*
X57943288Y-78078609D01*
X57860044Y-78180044D01*
X57758609Y-78263288D01*
X57722879Y-78292611D01*
X57722877Y-78292612D01*
X57566390Y-78376257D01*
X57509789Y-78393427D01*
X57396588Y-78427766D01*
X57308362Y-78436455D01*
X57264250Y-78440800D01*
X57175750Y-78440800D01*
X57131638Y-78436455D01*
X57043412Y-78427766D01*
X56930211Y-78393427D01*
X56873610Y-78376257D01*
X56717123Y-78292612D01*
X56717121Y-78292611D01*
X56681391Y-78263288D01*
X56579956Y-78180044D01*
X56496712Y-78078609D01*
X56467389Y-78042879D01*
X56457822Y-78024980D01*
X56383743Y-77886390D01*
X56366573Y-77829789D01*
X56332234Y-77716588D01*
X56314842Y-77540000D01*
X56332234Y-77363412D01*
X56366573Y-77250211D01*
X56383743Y-77193610D01*
X56467388Y-77037123D01*
X56467389Y-77037121D01*
X56496712Y-77001391D01*
X56579956Y-76899956D01*
X56681391Y-76816712D01*
X56717121Y-76787389D01*
X56735020Y-76777822D01*
X56873610Y-76703743D01*
X56930211Y-76686573D01*
X57043412Y-76652234D01*
X57131638Y-76643545D01*
X57175750Y-76639200D01*
X57264250Y-76639200D01*
X57308362Y-76643545D01*
X57308362Y-76643545D01*
G37*
G36*
X54768362Y-76643545D02*
X54856588Y-76652234D01*
X54969789Y-76686573D01*
X55026390Y-76703743D01*
X55164980Y-76777822D01*
X55182879Y-76787389D01*
X55218609Y-76816712D01*
X55320044Y-76899956D01*
X55403288Y-77001391D01*
X55432611Y-77037121D01*
X55432612Y-77037123D01*
X55516257Y-77193610D01*
X55533427Y-77250211D01*
X55567766Y-77363412D01*
X55585158Y-77540000D01*
X55567766Y-77716588D01*
X55533427Y-77829789D01*
X55516257Y-77886390D01*
X55442178Y-78024980D01*
X55432611Y-78042879D01*
X55403288Y-78078609D01*
X55320044Y-78180044D01*
X55218609Y-78263288D01*
X55182879Y-78292611D01*
X55182877Y-78292612D01*
X55026390Y-78376257D01*
X54969789Y-78393427D01*
X54856588Y-78427766D01*
X54768362Y-78436455D01*
X54724250Y-78440800D01*
X54635750Y-78440800D01*
X54591638Y-78436455D01*
X54503412Y-78427766D01*
X54390211Y-78393427D01*
X54333610Y-78376257D01*
X54177123Y-78292612D01*
X54177121Y-78292611D01*
X54141391Y-78263288D01*
X54039956Y-78180044D01*
X53956712Y-78078609D01*
X53927389Y-78042879D01*
X53917822Y-78024980D01*
X53843743Y-77886390D01*
X53826573Y-77829789D01*
X53792234Y-77716588D01*
X53774842Y-77540000D01*
X53792234Y-77363412D01*
X53826573Y-77250211D01*
X53843743Y-77193610D01*
X53927388Y-77037123D01*
X53927389Y-77037121D01*
X53956712Y-77001391D01*
X54039956Y-76899956D01*
X54141391Y-76816712D01*
X54177121Y-76787389D01*
X54195020Y-76777822D01*
X54333610Y-76703743D01*
X54390211Y-76686573D01*
X54503412Y-76652234D01*
X54591638Y-76643545D01*
X54635750Y-76639200D01*
X54724250Y-76639200D01*
X54768362Y-76643545D01*
X54768362Y-76643545D01*
G37*
G36*
X52228362Y-76643545D02*
X52316588Y-76652234D01*
X52429789Y-76686573D01*
X52486390Y-76703743D01*
X52624980Y-76777822D01*
X52642879Y-76787389D01*
X52678609Y-76816712D01*
X52780044Y-76899956D01*
X52863288Y-77001391D01*
X52892611Y-77037121D01*
X52892612Y-77037123D01*
X52976257Y-77193610D01*
X52993427Y-77250211D01*
X53027766Y-77363412D01*
X53045158Y-77540000D01*
X53027766Y-77716588D01*
X52993427Y-77829789D01*
X52976257Y-77886390D01*
X52902178Y-78024980D01*
X52892611Y-78042879D01*
X52863288Y-78078609D01*
X52780044Y-78180044D01*
X52678609Y-78263288D01*
X52642879Y-78292611D01*
X52642877Y-78292612D01*
X52486390Y-78376257D01*
X52429789Y-78393427D01*
X52316588Y-78427766D01*
X52228362Y-78436455D01*
X52184250Y-78440800D01*
X52095750Y-78440800D01*
X52051638Y-78436455D01*
X51963412Y-78427766D01*
X51850211Y-78393427D01*
X51793610Y-78376257D01*
X51637123Y-78292612D01*
X51637121Y-78292611D01*
X51601391Y-78263288D01*
X51499956Y-78180044D01*
X51416712Y-78078609D01*
X51387389Y-78042879D01*
X51377822Y-78024980D01*
X51303743Y-77886390D01*
X51286573Y-77829789D01*
X51252234Y-77716588D01*
X51234842Y-77540000D01*
X51252234Y-77363412D01*
X51286573Y-77250211D01*
X51303743Y-77193610D01*
X51387388Y-77037123D01*
X51387389Y-77037121D01*
X51416712Y-77001391D01*
X51499956Y-76899956D01*
X51601391Y-76816712D01*
X51637121Y-76787389D01*
X51655020Y-76777822D01*
X51793610Y-76703743D01*
X51850211Y-76686573D01*
X51963412Y-76652234D01*
X52051638Y-76643545D01*
X52095750Y-76639200D01*
X52184250Y-76639200D01*
X52228362Y-76643545D01*
X52228362Y-76643545D01*
G37*
G36*
X49688362Y-76643545D02*
X49776588Y-76652234D01*
X49889789Y-76686573D01*
X49946390Y-76703743D01*
X50084980Y-76777822D01*
X50102879Y-76787389D01*
X50138609Y-76816712D01*
X50240044Y-76899956D01*
X50323288Y-77001391D01*
X50352611Y-77037121D01*
X50352612Y-77037123D01*
X50436257Y-77193610D01*
X50453427Y-77250211D01*
X50487766Y-77363412D01*
X50505158Y-77540000D01*
X50487766Y-77716588D01*
X50453427Y-77829789D01*
X50436257Y-77886390D01*
X50362178Y-78024980D01*
X50352611Y-78042879D01*
X50323288Y-78078609D01*
X50240044Y-78180044D01*
X50138609Y-78263288D01*
X50102879Y-78292611D01*
X50102877Y-78292612D01*
X49946390Y-78376257D01*
X49889789Y-78393427D01*
X49776588Y-78427766D01*
X49688362Y-78436455D01*
X49644250Y-78440800D01*
X49555750Y-78440800D01*
X49511638Y-78436455D01*
X49423412Y-78427766D01*
X49310211Y-78393427D01*
X49253610Y-78376257D01*
X49097123Y-78292612D01*
X49097121Y-78292611D01*
X49061391Y-78263288D01*
X48959956Y-78180044D01*
X48876712Y-78078609D01*
X48847389Y-78042879D01*
X48837822Y-78024980D01*
X48763743Y-77886390D01*
X48746573Y-77829789D01*
X48712234Y-77716588D01*
X48694842Y-77540000D01*
X48712234Y-77363412D01*
X48746573Y-77250211D01*
X48763743Y-77193610D01*
X48847388Y-77037123D01*
X48847389Y-77037121D01*
X48876712Y-77001391D01*
X48959956Y-76899956D01*
X49061391Y-76816712D01*
X49097121Y-76787389D01*
X49115020Y-76777822D01*
X49253610Y-76703743D01*
X49310211Y-76686573D01*
X49423412Y-76652234D01*
X49511638Y-76643545D01*
X49555750Y-76639200D01*
X49644250Y-76639200D01*
X49688362Y-76643545D01*
X49688362Y-76643545D01*
G37*
G36*
X47148362Y-76643545D02*
X47236588Y-76652234D01*
X47349789Y-76686573D01*
X47406390Y-76703743D01*
X47544980Y-76777822D01*
X47562879Y-76787389D01*
X47598609Y-76816712D01*
X47700044Y-76899956D01*
X47783288Y-77001391D01*
X47812611Y-77037121D01*
X47812612Y-77037123D01*
X47896257Y-77193610D01*
X47913427Y-77250211D01*
X47947766Y-77363412D01*
X47965158Y-77540000D01*
X47947766Y-77716588D01*
X47913427Y-77829789D01*
X47896257Y-77886390D01*
X47822178Y-78024980D01*
X47812611Y-78042879D01*
X47783288Y-78078609D01*
X47700044Y-78180044D01*
X47598609Y-78263288D01*
X47562879Y-78292611D01*
X47562877Y-78292612D01*
X47406390Y-78376257D01*
X47349789Y-78393427D01*
X47236588Y-78427766D01*
X47148362Y-78436455D01*
X47104250Y-78440800D01*
X47015750Y-78440800D01*
X46971638Y-78436455D01*
X46883412Y-78427766D01*
X46770211Y-78393427D01*
X46713610Y-78376257D01*
X46557123Y-78292612D01*
X46557121Y-78292611D01*
X46521391Y-78263288D01*
X46419956Y-78180044D01*
X46336712Y-78078609D01*
X46307389Y-78042879D01*
X46297822Y-78024980D01*
X46223743Y-77886390D01*
X46206573Y-77829789D01*
X46172234Y-77716588D01*
X46154842Y-77540000D01*
X46172234Y-77363412D01*
X46206573Y-77250211D01*
X46223743Y-77193610D01*
X46307388Y-77037123D01*
X46307389Y-77037121D01*
X46336712Y-77001391D01*
X46419956Y-76899956D01*
X46521391Y-76816712D01*
X46557121Y-76787389D01*
X46575020Y-76777822D01*
X46713610Y-76703743D01*
X46770211Y-76686573D01*
X46883412Y-76652234D01*
X46971638Y-76643545D01*
X47015750Y-76639200D01*
X47104250Y-76639200D01*
X47148362Y-76643545D01*
X47148362Y-76643545D01*
G37*
G36*
X42068362Y-76643545D02*
X42156588Y-76652234D01*
X42269789Y-76686573D01*
X42326390Y-76703743D01*
X42464980Y-76777822D01*
X42482879Y-76787389D01*
X42518609Y-76816712D01*
X42620044Y-76899956D01*
X42703288Y-77001391D01*
X42732611Y-77037121D01*
X42732612Y-77037123D01*
X42816257Y-77193610D01*
X42833427Y-77250211D01*
X42867766Y-77363412D01*
X42885158Y-77540000D01*
X42867766Y-77716588D01*
X42833427Y-77829789D01*
X42816257Y-77886390D01*
X42742178Y-78024980D01*
X42732611Y-78042879D01*
X42703288Y-78078609D01*
X42620044Y-78180044D01*
X42518609Y-78263288D01*
X42482879Y-78292611D01*
X42482877Y-78292612D01*
X42326390Y-78376257D01*
X42269789Y-78393427D01*
X42156588Y-78427766D01*
X42068362Y-78436455D01*
X42024250Y-78440800D01*
X41935750Y-78440800D01*
X41891638Y-78436455D01*
X41803412Y-78427766D01*
X41690211Y-78393427D01*
X41633610Y-78376257D01*
X41477123Y-78292612D01*
X41477121Y-78292611D01*
X41441391Y-78263288D01*
X41339956Y-78180044D01*
X41256712Y-78078609D01*
X41227389Y-78042879D01*
X41217822Y-78024980D01*
X41143743Y-77886390D01*
X41126573Y-77829789D01*
X41092234Y-77716588D01*
X41074842Y-77540000D01*
X41092234Y-77363412D01*
X41126573Y-77250211D01*
X41143743Y-77193610D01*
X41227388Y-77037123D01*
X41227389Y-77037121D01*
X41256712Y-77001391D01*
X41339956Y-76899956D01*
X41441391Y-76816712D01*
X41477121Y-76787389D01*
X41495020Y-76777822D01*
X41633610Y-76703743D01*
X41690211Y-76686573D01*
X41803412Y-76652234D01*
X41891638Y-76643545D01*
X41935750Y-76639200D01*
X42024250Y-76639200D01*
X42068362Y-76643545D01*
X42068362Y-76643545D01*
G37*
G36*
X70008362Y-76643545D02*
X70096588Y-76652234D01*
X70209789Y-76686573D01*
X70266390Y-76703743D01*
X70404980Y-76777822D01*
X70422879Y-76787389D01*
X70458609Y-76816712D01*
X70560044Y-76899956D01*
X70643288Y-77001391D01*
X70672611Y-77037121D01*
X70672612Y-77037123D01*
X70756257Y-77193610D01*
X70773427Y-77250211D01*
X70807766Y-77363412D01*
X70825158Y-77540000D01*
X70807766Y-77716588D01*
X70773427Y-77829789D01*
X70756257Y-77886390D01*
X70682178Y-78024980D01*
X70672611Y-78042879D01*
X70643288Y-78078609D01*
X70560044Y-78180044D01*
X70458609Y-78263288D01*
X70422879Y-78292611D01*
X70422877Y-78292612D01*
X70266390Y-78376257D01*
X70209789Y-78393427D01*
X70096588Y-78427766D01*
X70008362Y-78436455D01*
X69964250Y-78440800D01*
X69875750Y-78440800D01*
X69831638Y-78436455D01*
X69743412Y-78427766D01*
X69630211Y-78393427D01*
X69573610Y-78376257D01*
X69417123Y-78292612D01*
X69417121Y-78292611D01*
X69381391Y-78263288D01*
X69279956Y-78180044D01*
X69196712Y-78078609D01*
X69167389Y-78042879D01*
X69157822Y-78024980D01*
X69083743Y-77886390D01*
X69066573Y-77829789D01*
X69032234Y-77716588D01*
X69014842Y-77540000D01*
X69032234Y-77363412D01*
X69066573Y-77250211D01*
X69083743Y-77193610D01*
X69167388Y-77037123D01*
X69167389Y-77037121D01*
X69196712Y-77001391D01*
X69279956Y-76899956D01*
X69381391Y-76816712D01*
X69417121Y-76787389D01*
X69435020Y-76777822D01*
X69573610Y-76703743D01*
X69630211Y-76686573D01*
X69743412Y-76652234D01*
X69831638Y-76643545D01*
X69875750Y-76639200D01*
X69964250Y-76639200D01*
X70008362Y-76643545D01*
X70008362Y-76643545D01*
G37*
G36*
X44608362Y-76643545D02*
X44696588Y-76652234D01*
X44809789Y-76686573D01*
X44866390Y-76703743D01*
X45004980Y-76777822D01*
X45022879Y-76787389D01*
X45058609Y-76816712D01*
X45160044Y-76899956D01*
X45243288Y-77001391D01*
X45272611Y-77037121D01*
X45272612Y-77037123D01*
X45356257Y-77193610D01*
X45373427Y-77250211D01*
X45407766Y-77363412D01*
X45425158Y-77540000D01*
X45407766Y-77716588D01*
X45373427Y-77829789D01*
X45356257Y-77886390D01*
X45282178Y-78024980D01*
X45272611Y-78042879D01*
X45243288Y-78078609D01*
X45160044Y-78180044D01*
X45058609Y-78263288D01*
X45022879Y-78292611D01*
X45022877Y-78292612D01*
X44866390Y-78376257D01*
X44809789Y-78393427D01*
X44696588Y-78427766D01*
X44608362Y-78436455D01*
X44564250Y-78440800D01*
X44475750Y-78440800D01*
X44431638Y-78436455D01*
X44343412Y-78427766D01*
X44230211Y-78393427D01*
X44173610Y-78376257D01*
X44017123Y-78292612D01*
X44017121Y-78292611D01*
X43981391Y-78263288D01*
X43879956Y-78180044D01*
X43796712Y-78078609D01*
X43767389Y-78042879D01*
X43757822Y-78024980D01*
X43683743Y-77886390D01*
X43666573Y-77829789D01*
X43632234Y-77716588D01*
X43614842Y-77540000D01*
X43632234Y-77363412D01*
X43666573Y-77250211D01*
X43683743Y-77193610D01*
X43767388Y-77037123D01*
X43767389Y-77037121D01*
X43796712Y-77001391D01*
X43879956Y-76899956D01*
X43981391Y-76816712D01*
X44017121Y-76787389D01*
X44035020Y-76777822D01*
X44173610Y-76703743D01*
X44230211Y-76686573D01*
X44343412Y-76652234D01*
X44431638Y-76643545D01*
X44475750Y-76639200D01*
X44564250Y-76639200D01*
X44608362Y-76643545D01*
X44608362Y-76643545D01*
G37*
G36*
X75088362Y-76643545D02*
X75176588Y-76652234D01*
X75289789Y-76686573D01*
X75346390Y-76703743D01*
X75484980Y-76777822D01*
X75502879Y-76787389D01*
X75538609Y-76816712D01*
X75640044Y-76899956D01*
X75723288Y-77001391D01*
X75752611Y-77037121D01*
X75752612Y-77037123D01*
X75836257Y-77193610D01*
X75853427Y-77250211D01*
X75887766Y-77363412D01*
X75905158Y-77540000D01*
X75887766Y-77716588D01*
X75853427Y-77829789D01*
X75836257Y-77886390D01*
X75762178Y-78024980D01*
X75752611Y-78042879D01*
X75723288Y-78078609D01*
X75640044Y-78180044D01*
X75538609Y-78263288D01*
X75502879Y-78292611D01*
X75502877Y-78292612D01*
X75346390Y-78376257D01*
X75289789Y-78393427D01*
X75176588Y-78427766D01*
X75088362Y-78436455D01*
X75044250Y-78440800D01*
X74955750Y-78440800D01*
X74911638Y-78436455D01*
X74823412Y-78427766D01*
X74710211Y-78393427D01*
X74653610Y-78376257D01*
X74497123Y-78292612D01*
X74497121Y-78292611D01*
X74461391Y-78263288D01*
X74359956Y-78180044D01*
X74276712Y-78078609D01*
X74247389Y-78042879D01*
X74237822Y-78024980D01*
X74163743Y-77886390D01*
X74146573Y-77829789D01*
X74112234Y-77716588D01*
X74094842Y-77540000D01*
X74112234Y-77363412D01*
X74146573Y-77250211D01*
X74163743Y-77193610D01*
X74247388Y-77037123D01*
X74247389Y-77037121D01*
X74276712Y-77001391D01*
X74359956Y-76899956D01*
X74461391Y-76816712D01*
X74497121Y-76787389D01*
X74515020Y-76777822D01*
X74653610Y-76703743D01*
X74710211Y-76686573D01*
X74823412Y-76652234D01*
X74911638Y-76643545D01*
X74955750Y-76639200D01*
X75044250Y-76639200D01*
X75088362Y-76643545D01*
X75088362Y-76643545D01*
G37*
G36*
X26828362Y-76643545D02*
X26916588Y-76652234D01*
X27029789Y-76686573D01*
X27086390Y-76703743D01*
X27224980Y-76777822D01*
X27242879Y-76787389D01*
X27278609Y-76816712D01*
X27380044Y-76899956D01*
X27463288Y-77001391D01*
X27492611Y-77037121D01*
X27492612Y-77037123D01*
X27576257Y-77193610D01*
X27593427Y-77250211D01*
X27627766Y-77363412D01*
X27645158Y-77540000D01*
X27627766Y-77716588D01*
X27593427Y-77829789D01*
X27576257Y-77886390D01*
X27502178Y-78024980D01*
X27492611Y-78042879D01*
X27463288Y-78078609D01*
X27380044Y-78180044D01*
X27278609Y-78263288D01*
X27242879Y-78292611D01*
X27242877Y-78292612D01*
X27086390Y-78376257D01*
X27029789Y-78393427D01*
X26916588Y-78427766D01*
X26828362Y-78436455D01*
X26784250Y-78440800D01*
X26695750Y-78440800D01*
X26651638Y-78436455D01*
X26563412Y-78427766D01*
X26450211Y-78393427D01*
X26393610Y-78376257D01*
X26237123Y-78292612D01*
X26237121Y-78292611D01*
X26201391Y-78263288D01*
X26099956Y-78180044D01*
X26016712Y-78078609D01*
X25987389Y-78042879D01*
X25977822Y-78024980D01*
X25903743Y-77886390D01*
X25886573Y-77829789D01*
X25852234Y-77716588D01*
X25834842Y-77540000D01*
X25852234Y-77363412D01*
X25886573Y-77250211D01*
X25903743Y-77193610D01*
X25987388Y-77037123D01*
X25987389Y-77037121D01*
X26016712Y-77001391D01*
X26099956Y-76899956D01*
X26201391Y-76816712D01*
X26237121Y-76787389D01*
X26255020Y-76777822D01*
X26393610Y-76703743D01*
X26450211Y-76686573D01*
X26563412Y-76652234D01*
X26651638Y-76643545D01*
X26695750Y-76639200D01*
X26784250Y-76639200D01*
X26828362Y-76643545D01*
X26828362Y-76643545D01*
G37*
G36*
X29368362Y-76643545D02*
X29456588Y-76652234D01*
X29569789Y-76686573D01*
X29626390Y-76703743D01*
X29764980Y-76777822D01*
X29782879Y-76787389D01*
X29818609Y-76816712D01*
X29920044Y-76899956D01*
X30003288Y-77001391D01*
X30032611Y-77037121D01*
X30032612Y-77037123D01*
X30116257Y-77193610D01*
X30133427Y-77250211D01*
X30167766Y-77363412D01*
X30185158Y-77540000D01*
X30167766Y-77716588D01*
X30133427Y-77829789D01*
X30116257Y-77886390D01*
X30042178Y-78024980D01*
X30032611Y-78042879D01*
X30003288Y-78078609D01*
X29920044Y-78180044D01*
X29818609Y-78263288D01*
X29782879Y-78292611D01*
X29782877Y-78292612D01*
X29626390Y-78376257D01*
X29569789Y-78393427D01*
X29456588Y-78427766D01*
X29368362Y-78436455D01*
X29324250Y-78440800D01*
X29235750Y-78440800D01*
X29191638Y-78436455D01*
X29103412Y-78427766D01*
X28990211Y-78393427D01*
X28933610Y-78376257D01*
X28777123Y-78292612D01*
X28777121Y-78292611D01*
X28741391Y-78263288D01*
X28639956Y-78180044D01*
X28556712Y-78078609D01*
X28527389Y-78042879D01*
X28517822Y-78024980D01*
X28443743Y-77886390D01*
X28426573Y-77829789D01*
X28392234Y-77716588D01*
X28374842Y-77540000D01*
X28392234Y-77363412D01*
X28426573Y-77250211D01*
X28443743Y-77193610D01*
X28527388Y-77037123D01*
X28527389Y-77037121D01*
X28556712Y-77001391D01*
X28639956Y-76899956D01*
X28741391Y-76816712D01*
X28777121Y-76787389D01*
X28795020Y-76777822D01*
X28933610Y-76703743D01*
X28990211Y-76686573D01*
X29103412Y-76652234D01*
X29191638Y-76643545D01*
X29235750Y-76639200D01*
X29324250Y-76639200D01*
X29368362Y-76643545D01*
X29368362Y-76643545D01*
G37*
G36*
X31908362Y-76643545D02*
X31996588Y-76652234D01*
X32109789Y-76686573D01*
X32166390Y-76703743D01*
X32304980Y-76777822D01*
X32322879Y-76787389D01*
X32358609Y-76816712D01*
X32460044Y-76899956D01*
X32543288Y-77001391D01*
X32572611Y-77037121D01*
X32572612Y-77037123D01*
X32656257Y-77193610D01*
X32673427Y-77250211D01*
X32707766Y-77363412D01*
X32725158Y-77540000D01*
X32707766Y-77716588D01*
X32673427Y-77829789D01*
X32656257Y-77886390D01*
X32582178Y-78024980D01*
X32572611Y-78042879D01*
X32543288Y-78078609D01*
X32460044Y-78180044D01*
X32358609Y-78263288D01*
X32322879Y-78292611D01*
X32322877Y-78292612D01*
X32166390Y-78376257D01*
X32109789Y-78393427D01*
X31996588Y-78427766D01*
X31908362Y-78436455D01*
X31864250Y-78440800D01*
X31775750Y-78440800D01*
X31731638Y-78436455D01*
X31643412Y-78427766D01*
X31530211Y-78393427D01*
X31473610Y-78376257D01*
X31317123Y-78292612D01*
X31317121Y-78292611D01*
X31281391Y-78263288D01*
X31179956Y-78180044D01*
X31096712Y-78078609D01*
X31067389Y-78042879D01*
X31057822Y-78024980D01*
X30983743Y-77886390D01*
X30966573Y-77829789D01*
X30932234Y-77716588D01*
X30914842Y-77540000D01*
X30932234Y-77363412D01*
X30966573Y-77250211D01*
X30983743Y-77193610D01*
X31067388Y-77037123D01*
X31067389Y-77037121D01*
X31096712Y-77001391D01*
X31179956Y-76899956D01*
X31281391Y-76816712D01*
X31317121Y-76787389D01*
X31335020Y-76777822D01*
X31473610Y-76703743D01*
X31530211Y-76686573D01*
X31643412Y-76652234D01*
X31731638Y-76643545D01*
X31775750Y-76639200D01*
X31864250Y-76639200D01*
X31908362Y-76643545D01*
X31908362Y-76643545D01*
G37*
G36*
X34448362Y-76643545D02*
X34536588Y-76652234D01*
X34649789Y-76686573D01*
X34706390Y-76703743D01*
X34844980Y-76777822D01*
X34862879Y-76787389D01*
X34898609Y-76816712D01*
X35000044Y-76899956D01*
X35083288Y-77001391D01*
X35112611Y-77037121D01*
X35112612Y-77037123D01*
X35196257Y-77193610D01*
X35213427Y-77250211D01*
X35247766Y-77363412D01*
X35265158Y-77540000D01*
X35247766Y-77716588D01*
X35213427Y-77829789D01*
X35196257Y-77886390D01*
X35122178Y-78024980D01*
X35112611Y-78042879D01*
X35083288Y-78078609D01*
X35000044Y-78180044D01*
X34898609Y-78263288D01*
X34862879Y-78292611D01*
X34862877Y-78292612D01*
X34706390Y-78376257D01*
X34649789Y-78393427D01*
X34536588Y-78427766D01*
X34448362Y-78436455D01*
X34404250Y-78440800D01*
X34315750Y-78440800D01*
X34271638Y-78436455D01*
X34183412Y-78427766D01*
X34070211Y-78393427D01*
X34013610Y-78376257D01*
X33857123Y-78292612D01*
X33857121Y-78292611D01*
X33821391Y-78263288D01*
X33719956Y-78180044D01*
X33636712Y-78078609D01*
X33607389Y-78042879D01*
X33597822Y-78024980D01*
X33523743Y-77886390D01*
X33506573Y-77829789D01*
X33472234Y-77716588D01*
X33454842Y-77540000D01*
X33472234Y-77363412D01*
X33506573Y-77250211D01*
X33523743Y-77193610D01*
X33607388Y-77037123D01*
X33607389Y-77037121D01*
X33636712Y-77001391D01*
X33719956Y-76899956D01*
X33821391Y-76816712D01*
X33857121Y-76787389D01*
X33875020Y-76777822D01*
X34013610Y-76703743D01*
X34070211Y-76686573D01*
X34183412Y-76652234D01*
X34271638Y-76643545D01*
X34315750Y-76639200D01*
X34404250Y-76639200D01*
X34448362Y-76643545D01*
X34448362Y-76643545D01*
G37*
G36*
X36988362Y-76643545D02*
X37076588Y-76652234D01*
X37189789Y-76686573D01*
X37246390Y-76703743D01*
X37384980Y-76777822D01*
X37402879Y-76787389D01*
X37438609Y-76816712D01*
X37540044Y-76899956D01*
X37623288Y-77001391D01*
X37652611Y-77037121D01*
X37652612Y-77037123D01*
X37736257Y-77193610D01*
X37753427Y-77250211D01*
X37787766Y-77363412D01*
X37805158Y-77540000D01*
X37787766Y-77716588D01*
X37753427Y-77829789D01*
X37736257Y-77886390D01*
X37662178Y-78024980D01*
X37652611Y-78042879D01*
X37623288Y-78078609D01*
X37540044Y-78180044D01*
X37438609Y-78263288D01*
X37402879Y-78292611D01*
X37402877Y-78292612D01*
X37246390Y-78376257D01*
X37189789Y-78393427D01*
X37076588Y-78427766D01*
X36988362Y-78436455D01*
X36944250Y-78440800D01*
X36855750Y-78440800D01*
X36811638Y-78436455D01*
X36723412Y-78427766D01*
X36610211Y-78393427D01*
X36553610Y-78376257D01*
X36397123Y-78292612D01*
X36397121Y-78292611D01*
X36361391Y-78263288D01*
X36259956Y-78180044D01*
X36176712Y-78078609D01*
X36147389Y-78042879D01*
X36137822Y-78024980D01*
X36063743Y-77886390D01*
X36046573Y-77829789D01*
X36012234Y-77716588D01*
X35994842Y-77540000D01*
X36012234Y-77363412D01*
X36046573Y-77250211D01*
X36063743Y-77193610D01*
X36147388Y-77037123D01*
X36147389Y-77037121D01*
X36176712Y-77001391D01*
X36259956Y-76899956D01*
X36361391Y-76816712D01*
X36397121Y-76787389D01*
X36415020Y-76777822D01*
X36553610Y-76703743D01*
X36610211Y-76686573D01*
X36723412Y-76652234D01*
X36811638Y-76643545D01*
X36855750Y-76639200D01*
X36944250Y-76639200D01*
X36988362Y-76643545D01*
X36988362Y-76643545D01*
G37*
G36*
X39528362Y-76643545D02*
X39616588Y-76652234D01*
X39729789Y-76686573D01*
X39786390Y-76703743D01*
X39924980Y-76777822D01*
X39942879Y-76787389D01*
X39978609Y-76816712D01*
X40080044Y-76899956D01*
X40163288Y-77001391D01*
X40192611Y-77037121D01*
X40192612Y-77037123D01*
X40276257Y-77193610D01*
X40293427Y-77250211D01*
X40327766Y-77363412D01*
X40345158Y-77540000D01*
X40327766Y-77716588D01*
X40293427Y-77829789D01*
X40276257Y-77886390D01*
X40202178Y-78024980D01*
X40192611Y-78042879D01*
X40163288Y-78078609D01*
X40080044Y-78180044D01*
X39978609Y-78263288D01*
X39942879Y-78292611D01*
X39942877Y-78292612D01*
X39786390Y-78376257D01*
X39729789Y-78393427D01*
X39616588Y-78427766D01*
X39528362Y-78436455D01*
X39484250Y-78440800D01*
X39395750Y-78440800D01*
X39351638Y-78436455D01*
X39263412Y-78427766D01*
X39150211Y-78393427D01*
X39093610Y-78376257D01*
X38937123Y-78292612D01*
X38937121Y-78292611D01*
X38901391Y-78263288D01*
X38799956Y-78180044D01*
X38716712Y-78078609D01*
X38687389Y-78042879D01*
X38677822Y-78024980D01*
X38603743Y-77886390D01*
X38586573Y-77829789D01*
X38552234Y-77716588D01*
X38534842Y-77540000D01*
X38552234Y-77363412D01*
X38586573Y-77250211D01*
X38603743Y-77193610D01*
X38687388Y-77037123D01*
X38687389Y-77037121D01*
X38716712Y-77001391D01*
X38799956Y-76899956D01*
X38901391Y-76816712D01*
X38937121Y-76787389D01*
X38955020Y-76777822D01*
X39093610Y-76703743D01*
X39150211Y-76686573D01*
X39263412Y-76652234D01*
X39351638Y-76643545D01*
X39395750Y-76639200D01*
X39484250Y-76639200D01*
X39528362Y-76643545D01*
X39528362Y-76643545D01*
G37*
G36*
X26828362Y-74103545D02*
X26916588Y-74112234D01*
X27029789Y-74146573D01*
X27086390Y-74163743D01*
X27224980Y-74237822D01*
X27242879Y-74247389D01*
X27278609Y-74276712D01*
X27380044Y-74359956D01*
X27463288Y-74461391D01*
X27492611Y-74497121D01*
X27492612Y-74497123D01*
X27576257Y-74653610D01*
X27576257Y-74653611D01*
X27627766Y-74823412D01*
X27645158Y-75000000D01*
X27627766Y-75176588D01*
X27593427Y-75289789D01*
X27576257Y-75346390D01*
X27502178Y-75484980D01*
X27492611Y-75502879D01*
X27463288Y-75538609D01*
X27380044Y-75640044D01*
X27278609Y-75723288D01*
X27242879Y-75752611D01*
X27242877Y-75752612D01*
X27086390Y-75836257D01*
X27029789Y-75853427D01*
X26916588Y-75887766D01*
X26828362Y-75896455D01*
X26784250Y-75900800D01*
X26695750Y-75900800D01*
X26651638Y-75896455D01*
X26563412Y-75887766D01*
X26450211Y-75853427D01*
X26393610Y-75836257D01*
X26237123Y-75752612D01*
X26237121Y-75752611D01*
X26201391Y-75723288D01*
X26099956Y-75640044D01*
X26016712Y-75538609D01*
X25987389Y-75502879D01*
X25977822Y-75484980D01*
X25903743Y-75346390D01*
X25886573Y-75289789D01*
X25852234Y-75176588D01*
X25834842Y-75000000D01*
X25852234Y-74823412D01*
X25903743Y-74653611D01*
X25903743Y-74653610D01*
X25987388Y-74497123D01*
X25987389Y-74497121D01*
X26016712Y-74461391D01*
X26099956Y-74359956D01*
X26201391Y-74276712D01*
X26237121Y-74247389D01*
X26255020Y-74237822D01*
X26393610Y-74163743D01*
X26450211Y-74146573D01*
X26563412Y-74112234D01*
X26651638Y-74103545D01*
X26695750Y-74099200D01*
X26784250Y-74099200D01*
X26828362Y-74103545D01*
X26828362Y-74103545D01*
G37*
G36*
X29368362Y-74103545D02*
X29456588Y-74112234D01*
X29569789Y-74146573D01*
X29626390Y-74163743D01*
X29764980Y-74237822D01*
X29782879Y-74247389D01*
X29818609Y-74276712D01*
X29920044Y-74359956D01*
X30003288Y-74461391D01*
X30032611Y-74497121D01*
X30032612Y-74497123D01*
X30116257Y-74653610D01*
X30116257Y-74653611D01*
X30167766Y-74823412D01*
X30185158Y-75000000D01*
X30167766Y-75176588D01*
X30133427Y-75289789D01*
X30116257Y-75346390D01*
X30042178Y-75484980D01*
X30032611Y-75502879D01*
X30003288Y-75538609D01*
X29920044Y-75640044D01*
X29818609Y-75723288D01*
X29782879Y-75752611D01*
X29782877Y-75752612D01*
X29626390Y-75836257D01*
X29569789Y-75853427D01*
X29456588Y-75887766D01*
X29368362Y-75896455D01*
X29324250Y-75900800D01*
X29235750Y-75900800D01*
X29191638Y-75896455D01*
X29103412Y-75887766D01*
X28990211Y-75853427D01*
X28933610Y-75836257D01*
X28777123Y-75752612D01*
X28777121Y-75752611D01*
X28741391Y-75723288D01*
X28639956Y-75640044D01*
X28556712Y-75538609D01*
X28527389Y-75502879D01*
X28517822Y-75484980D01*
X28443743Y-75346390D01*
X28426573Y-75289789D01*
X28392234Y-75176588D01*
X28374842Y-75000000D01*
X28392234Y-74823412D01*
X28443743Y-74653611D01*
X28443743Y-74653610D01*
X28527388Y-74497123D01*
X28527389Y-74497121D01*
X28556712Y-74461391D01*
X28639956Y-74359956D01*
X28741391Y-74276712D01*
X28777121Y-74247389D01*
X28795020Y-74237822D01*
X28933610Y-74163743D01*
X28990211Y-74146573D01*
X29103412Y-74112234D01*
X29191638Y-74103545D01*
X29235750Y-74099200D01*
X29324250Y-74099200D01*
X29368362Y-74103545D01*
X29368362Y-74103545D01*
G37*
G36*
X31908362Y-74103545D02*
X31996588Y-74112234D01*
X32109789Y-74146573D01*
X32166390Y-74163743D01*
X32304980Y-74237822D01*
X32322879Y-74247389D01*
X32358609Y-74276712D01*
X32460044Y-74359956D01*
X32543288Y-74461391D01*
X32572611Y-74497121D01*
X32572612Y-74497123D01*
X32656257Y-74653610D01*
X32656257Y-74653611D01*
X32707766Y-74823412D01*
X32725158Y-75000000D01*
X32707766Y-75176588D01*
X32673427Y-75289789D01*
X32656257Y-75346390D01*
X32582178Y-75484980D01*
X32572611Y-75502879D01*
X32543288Y-75538609D01*
X32460044Y-75640044D01*
X32358609Y-75723288D01*
X32322879Y-75752611D01*
X32322877Y-75752612D01*
X32166390Y-75836257D01*
X32109789Y-75853427D01*
X31996588Y-75887766D01*
X31908362Y-75896455D01*
X31864250Y-75900800D01*
X31775750Y-75900800D01*
X31731638Y-75896455D01*
X31643412Y-75887766D01*
X31530211Y-75853427D01*
X31473610Y-75836257D01*
X31317123Y-75752612D01*
X31317121Y-75752611D01*
X31281391Y-75723288D01*
X31179956Y-75640044D01*
X31096712Y-75538609D01*
X31067389Y-75502879D01*
X31057822Y-75484980D01*
X30983743Y-75346390D01*
X30966573Y-75289789D01*
X30932234Y-75176588D01*
X30914842Y-75000000D01*
X30932234Y-74823412D01*
X30983743Y-74653611D01*
X30983743Y-74653610D01*
X31067388Y-74497123D01*
X31067389Y-74497121D01*
X31096712Y-74461391D01*
X31179956Y-74359956D01*
X31281391Y-74276712D01*
X31317121Y-74247389D01*
X31335020Y-74237822D01*
X31473610Y-74163743D01*
X31530211Y-74146573D01*
X31643412Y-74112234D01*
X31731638Y-74103545D01*
X31775750Y-74099200D01*
X31864250Y-74099200D01*
X31908362Y-74103545D01*
X31908362Y-74103545D01*
G37*
G36*
X34448362Y-74103545D02*
X34536588Y-74112234D01*
X34649789Y-74146573D01*
X34706390Y-74163743D01*
X34844980Y-74237822D01*
X34862879Y-74247389D01*
X34898609Y-74276712D01*
X35000044Y-74359956D01*
X35083288Y-74461391D01*
X35112611Y-74497121D01*
X35112612Y-74497123D01*
X35196257Y-74653610D01*
X35196257Y-74653611D01*
X35247766Y-74823412D01*
X35265158Y-75000000D01*
X35247766Y-75176588D01*
X35213427Y-75289789D01*
X35196257Y-75346390D01*
X35122178Y-75484980D01*
X35112611Y-75502879D01*
X35083288Y-75538609D01*
X35000044Y-75640044D01*
X34898609Y-75723288D01*
X34862879Y-75752611D01*
X34862877Y-75752612D01*
X34706390Y-75836257D01*
X34649789Y-75853427D01*
X34536588Y-75887766D01*
X34448362Y-75896455D01*
X34404250Y-75900800D01*
X34315750Y-75900800D01*
X34271638Y-75896455D01*
X34183412Y-75887766D01*
X34070211Y-75853427D01*
X34013610Y-75836257D01*
X33857123Y-75752612D01*
X33857121Y-75752611D01*
X33821391Y-75723288D01*
X33719956Y-75640044D01*
X33636712Y-75538609D01*
X33607389Y-75502879D01*
X33597822Y-75484980D01*
X33523743Y-75346390D01*
X33506573Y-75289789D01*
X33472234Y-75176588D01*
X33454842Y-75000000D01*
X33472234Y-74823412D01*
X33523743Y-74653611D01*
X33523743Y-74653610D01*
X33607388Y-74497123D01*
X33607389Y-74497121D01*
X33636712Y-74461391D01*
X33719956Y-74359956D01*
X33821391Y-74276712D01*
X33857121Y-74247389D01*
X33875020Y-74237822D01*
X34013610Y-74163743D01*
X34070211Y-74146573D01*
X34183412Y-74112234D01*
X34271638Y-74103545D01*
X34315750Y-74099200D01*
X34404250Y-74099200D01*
X34448362Y-74103545D01*
X34448362Y-74103545D01*
G37*
G36*
X36988362Y-74103545D02*
X37076588Y-74112234D01*
X37189789Y-74146573D01*
X37246390Y-74163743D01*
X37384980Y-74237822D01*
X37402879Y-74247389D01*
X37438609Y-74276712D01*
X37540044Y-74359956D01*
X37623288Y-74461391D01*
X37652611Y-74497121D01*
X37652612Y-74497123D01*
X37736257Y-74653610D01*
X37736257Y-74653611D01*
X37787766Y-74823412D01*
X37805158Y-75000000D01*
X37787766Y-75176588D01*
X37753427Y-75289789D01*
X37736257Y-75346390D01*
X37662178Y-75484980D01*
X37652611Y-75502879D01*
X37623288Y-75538609D01*
X37540044Y-75640044D01*
X37438609Y-75723288D01*
X37402879Y-75752611D01*
X37402877Y-75752612D01*
X37246390Y-75836257D01*
X37189789Y-75853427D01*
X37076588Y-75887766D01*
X36988362Y-75896455D01*
X36944250Y-75900800D01*
X36855750Y-75900800D01*
X36811638Y-75896455D01*
X36723412Y-75887766D01*
X36610211Y-75853427D01*
X36553610Y-75836257D01*
X36397123Y-75752612D01*
X36397121Y-75752611D01*
X36361391Y-75723288D01*
X36259956Y-75640044D01*
X36176712Y-75538609D01*
X36147389Y-75502879D01*
X36137822Y-75484980D01*
X36063743Y-75346390D01*
X36046573Y-75289789D01*
X36012234Y-75176588D01*
X35994842Y-75000000D01*
X36012234Y-74823412D01*
X36063743Y-74653611D01*
X36063743Y-74653610D01*
X36147388Y-74497123D01*
X36147389Y-74497121D01*
X36176712Y-74461391D01*
X36259956Y-74359956D01*
X36361391Y-74276712D01*
X36397121Y-74247389D01*
X36415020Y-74237822D01*
X36553610Y-74163743D01*
X36610211Y-74146573D01*
X36723412Y-74112234D01*
X36811638Y-74103545D01*
X36855750Y-74099200D01*
X36944250Y-74099200D01*
X36988362Y-74103545D01*
X36988362Y-74103545D01*
G37*
G36*
X42068362Y-74103545D02*
X42156588Y-74112234D01*
X42269789Y-74146573D01*
X42326390Y-74163743D01*
X42464980Y-74237822D01*
X42482879Y-74247389D01*
X42518609Y-74276712D01*
X42620044Y-74359956D01*
X42703288Y-74461391D01*
X42732611Y-74497121D01*
X42732612Y-74497123D01*
X42816257Y-74653610D01*
X42816257Y-74653611D01*
X42867766Y-74823412D01*
X42885158Y-75000000D01*
X42867766Y-75176588D01*
X42833427Y-75289789D01*
X42816257Y-75346390D01*
X42742178Y-75484980D01*
X42732611Y-75502879D01*
X42703288Y-75538609D01*
X42620044Y-75640044D01*
X42518609Y-75723288D01*
X42482879Y-75752611D01*
X42482877Y-75752612D01*
X42326390Y-75836257D01*
X42269789Y-75853427D01*
X42156588Y-75887766D01*
X42068362Y-75896455D01*
X42024250Y-75900800D01*
X41935750Y-75900800D01*
X41891638Y-75896455D01*
X41803412Y-75887766D01*
X41690211Y-75853427D01*
X41633610Y-75836257D01*
X41477123Y-75752612D01*
X41477121Y-75752611D01*
X41441391Y-75723288D01*
X41339956Y-75640044D01*
X41256712Y-75538609D01*
X41227389Y-75502879D01*
X41217822Y-75484980D01*
X41143743Y-75346390D01*
X41126573Y-75289789D01*
X41092234Y-75176588D01*
X41074842Y-75000000D01*
X41092234Y-74823412D01*
X41143743Y-74653611D01*
X41143743Y-74653610D01*
X41227388Y-74497123D01*
X41227389Y-74497121D01*
X41256712Y-74461391D01*
X41339956Y-74359956D01*
X41441391Y-74276712D01*
X41477121Y-74247389D01*
X41495020Y-74237822D01*
X41633610Y-74163743D01*
X41690211Y-74146573D01*
X41803412Y-74112234D01*
X41891638Y-74103545D01*
X41935750Y-74099200D01*
X42024250Y-74099200D01*
X42068362Y-74103545D01*
X42068362Y-74103545D01*
G37*
G36*
X59848362Y-74103545D02*
X59936588Y-74112234D01*
X60049789Y-74146573D01*
X60106390Y-74163743D01*
X60244980Y-74237822D01*
X60262879Y-74247389D01*
X60298609Y-74276712D01*
X60400044Y-74359956D01*
X60483288Y-74461391D01*
X60512611Y-74497121D01*
X60512612Y-74497123D01*
X60596257Y-74653610D01*
X60596257Y-74653611D01*
X60647766Y-74823412D01*
X60665158Y-75000000D01*
X60647766Y-75176588D01*
X60613427Y-75289789D01*
X60596257Y-75346390D01*
X60522178Y-75484980D01*
X60512611Y-75502879D01*
X60483288Y-75538609D01*
X60400044Y-75640044D01*
X60298609Y-75723288D01*
X60262879Y-75752611D01*
X60262877Y-75752612D01*
X60106390Y-75836257D01*
X60049789Y-75853427D01*
X59936588Y-75887766D01*
X59848362Y-75896455D01*
X59804250Y-75900800D01*
X59715750Y-75900800D01*
X59671638Y-75896455D01*
X59583412Y-75887766D01*
X59470211Y-75853427D01*
X59413610Y-75836257D01*
X59257123Y-75752612D01*
X59257121Y-75752611D01*
X59221391Y-75723288D01*
X59119956Y-75640044D01*
X59036712Y-75538609D01*
X59007389Y-75502879D01*
X58997822Y-75484980D01*
X58923743Y-75346390D01*
X58906573Y-75289789D01*
X58872234Y-75176588D01*
X58854842Y-75000000D01*
X58872234Y-74823412D01*
X58923743Y-74653611D01*
X58923743Y-74653610D01*
X59007388Y-74497123D01*
X59007389Y-74497121D01*
X59036712Y-74461391D01*
X59119956Y-74359956D01*
X59221391Y-74276712D01*
X59257121Y-74247389D01*
X59275020Y-74237822D01*
X59413610Y-74163743D01*
X59470211Y-74146573D01*
X59583412Y-74112234D01*
X59671638Y-74103545D01*
X59715750Y-74099200D01*
X59804250Y-74099200D01*
X59848362Y-74103545D01*
X59848362Y-74103545D01*
G37*
G36*
X62388362Y-74103545D02*
X62476588Y-74112234D01*
X62589789Y-74146573D01*
X62646390Y-74163743D01*
X62784980Y-74237822D01*
X62802879Y-74247389D01*
X62838609Y-74276712D01*
X62940044Y-74359956D01*
X63023288Y-74461391D01*
X63052611Y-74497121D01*
X63052612Y-74497123D01*
X63136257Y-74653610D01*
X63136257Y-74653611D01*
X63187766Y-74823412D01*
X63205158Y-75000000D01*
X63187766Y-75176588D01*
X63153427Y-75289789D01*
X63136257Y-75346390D01*
X63062178Y-75484980D01*
X63052611Y-75502879D01*
X63023288Y-75538609D01*
X62940044Y-75640044D01*
X62838609Y-75723288D01*
X62802879Y-75752611D01*
X62802877Y-75752612D01*
X62646390Y-75836257D01*
X62589789Y-75853427D01*
X62476588Y-75887766D01*
X62388362Y-75896455D01*
X62344250Y-75900800D01*
X62255750Y-75900800D01*
X62211638Y-75896455D01*
X62123412Y-75887766D01*
X62010211Y-75853427D01*
X61953610Y-75836257D01*
X61797123Y-75752612D01*
X61797121Y-75752611D01*
X61761391Y-75723288D01*
X61659956Y-75640044D01*
X61576712Y-75538609D01*
X61547389Y-75502879D01*
X61537822Y-75484980D01*
X61463743Y-75346390D01*
X61446573Y-75289789D01*
X61412234Y-75176588D01*
X61394842Y-75000000D01*
X61412234Y-74823412D01*
X61463743Y-74653611D01*
X61463743Y-74653610D01*
X61547388Y-74497123D01*
X61547389Y-74497121D01*
X61576712Y-74461391D01*
X61659956Y-74359956D01*
X61761391Y-74276712D01*
X61797121Y-74247389D01*
X61815020Y-74237822D01*
X61953610Y-74163743D01*
X62010211Y-74146573D01*
X62123412Y-74112234D01*
X62211638Y-74103545D01*
X62255750Y-74099200D01*
X62344250Y-74099200D01*
X62388362Y-74103545D01*
X62388362Y-74103545D01*
G37*
G36*
X57308362Y-74103545D02*
X57396588Y-74112234D01*
X57509789Y-74146573D01*
X57566390Y-74163743D01*
X57704980Y-74237822D01*
X57722879Y-74247389D01*
X57758609Y-74276712D01*
X57860044Y-74359956D01*
X57943288Y-74461391D01*
X57972611Y-74497121D01*
X57972612Y-74497123D01*
X58056257Y-74653610D01*
X58056257Y-74653611D01*
X58107766Y-74823412D01*
X58125158Y-75000000D01*
X58107766Y-75176588D01*
X58073427Y-75289789D01*
X58056257Y-75346390D01*
X57982178Y-75484980D01*
X57972611Y-75502879D01*
X57943288Y-75538609D01*
X57860044Y-75640044D01*
X57758609Y-75723288D01*
X57722879Y-75752611D01*
X57722877Y-75752612D01*
X57566390Y-75836257D01*
X57509789Y-75853427D01*
X57396588Y-75887766D01*
X57308362Y-75896455D01*
X57264250Y-75900800D01*
X57175750Y-75900800D01*
X57131638Y-75896455D01*
X57043412Y-75887766D01*
X56930211Y-75853427D01*
X56873610Y-75836257D01*
X56717123Y-75752612D01*
X56717121Y-75752611D01*
X56681391Y-75723288D01*
X56579956Y-75640044D01*
X56496712Y-75538609D01*
X56467389Y-75502879D01*
X56457822Y-75484980D01*
X56383743Y-75346390D01*
X56366573Y-75289789D01*
X56332234Y-75176588D01*
X56314842Y-75000000D01*
X56332234Y-74823412D01*
X56383743Y-74653611D01*
X56383743Y-74653610D01*
X56467388Y-74497123D01*
X56467389Y-74497121D01*
X56496712Y-74461391D01*
X56579956Y-74359956D01*
X56681391Y-74276712D01*
X56717121Y-74247389D01*
X56735020Y-74237822D01*
X56873610Y-74163743D01*
X56930211Y-74146573D01*
X57043412Y-74112234D01*
X57131638Y-74103545D01*
X57175750Y-74099200D01*
X57264250Y-74099200D01*
X57308362Y-74103545D01*
X57308362Y-74103545D01*
G37*
G36*
X39528362Y-74103545D02*
X39616588Y-74112234D01*
X39729789Y-74146573D01*
X39786390Y-74163743D01*
X39924980Y-74237822D01*
X39942879Y-74247389D01*
X39978609Y-74276712D01*
X40080044Y-74359956D01*
X40163288Y-74461391D01*
X40192611Y-74497121D01*
X40192612Y-74497123D01*
X40276257Y-74653610D01*
X40276257Y-74653611D01*
X40327766Y-74823412D01*
X40345158Y-75000000D01*
X40327766Y-75176588D01*
X40293427Y-75289789D01*
X40276257Y-75346390D01*
X40202178Y-75484980D01*
X40192611Y-75502879D01*
X40163288Y-75538609D01*
X40080044Y-75640044D01*
X39978609Y-75723288D01*
X39942879Y-75752611D01*
X39942877Y-75752612D01*
X39786390Y-75836257D01*
X39729789Y-75853427D01*
X39616588Y-75887766D01*
X39528362Y-75896455D01*
X39484250Y-75900800D01*
X39395750Y-75900800D01*
X39351638Y-75896455D01*
X39263412Y-75887766D01*
X39150211Y-75853427D01*
X39093610Y-75836257D01*
X38937123Y-75752612D01*
X38937121Y-75752611D01*
X38901391Y-75723288D01*
X38799956Y-75640044D01*
X38716712Y-75538609D01*
X38687389Y-75502879D01*
X38677822Y-75484980D01*
X38603743Y-75346390D01*
X38586573Y-75289789D01*
X38552234Y-75176588D01*
X38534842Y-75000000D01*
X38552234Y-74823412D01*
X38603743Y-74653611D01*
X38603743Y-74653610D01*
X38687388Y-74497123D01*
X38687389Y-74497121D01*
X38716712Y-74461391D01*
X38799956Y-74359956D01*
X38901391Y-74276712D01*
X38937121Y-74247389D01*
X38955020Y-74237822D01*
X39093610Y-74163743D01*
X39150211Y-74146573D01*
X39263412Y-74112234D01*
X39351638Y-74103545D01*
X39395750Y-74099200D01*
X39484250Y-74099200D01*
X39528362Y-74103545D01*
X39528362Y-74103545D01*
G37*
G36*
X54768362Y-74103545D02*
X54856588Y-74112234D01*
X54969789Y-74146573D01*
X55026390Y-74163743D01*
X55164980Y-74237822D01*
X55182879Y-74247389D01*
X55218609Y-74276712D01*
X55320044Y-74359956D01*
X55403288Y-74461391D01*
X55432611Y-74497121D01*
X55432612Y-74497123D01*
X55516257Y-74653610D01*
X55516257Y-74653611D01*
X55567766Y-74823412D01*
X55585158Y-75000000D01*
X55567766Y-75176588D01*
X55533427Y-75289789D01*
X55516257Y-75346390D01*
X55442178Y-75484980D01*
X55432611Y-75502879D01*
X55403288Y-75538609D01*
X55320044Y-75640044D01*
X55218609Y-75723288D01*
X55182879Y-75752611D01*
X55182877Y-75752612D01*
X55026390Y-75836257D01*
X54969789Y-75853427D01*
X54856588Y-75887766D01*
X54768362Y-75896455D01*
X54724250Y-75900800D01*
X54635750Y-75900800D01*
X54591638Y-75896455D01*
X54503412Y-75887766D01*
X54390211Y-75853427D01*
X54333610Y-75836257D01*
X54177123Y-75752612D01*
X54177121Y-75752611D01*
X54141391Y-75723288D01*
X54039956Y-75640044D01*
X53956712Y-75538609D01*
X53927389Y-75502879D01*
X53917822Y-75484980D01*
X53843743Y-75346390D01*
X53826573Y-75289789D01*
X53792234Y-75176588D01*
X53774842Y-75000000D01*
X53792234Y-74823412D01*
X53843743Y-74653611D01*
X53843743Y-74653610D01*
X53927388Y-74497123D01*
X53927389Y-74497121D01*
X53956712Y-74461391D01*
X54039956Y-74359956D01*
X54141391Y-74276712D01*
X54177121Y-74247389D01*
X54195020Y-74237822D01*
X54333610Y-74163743D01*
X54390211Y-74146573D01*
X54503412Y-74112234D01*
X54591638Y-74103545D01*
X54635750Y-74099200D01*
X54724250Y-74099200D01*
X54768362Y-74103545D01*
X54768362Y-74103545D01*
G37*
G36*
X52228362Y-74103545D02*
X52316588Y-74112234D01*
X52429789Y-74146573D01*
X52486390Y-74163743D01*
X52624980Y-74237822D01*
X52642879Y-74247389D01*
X52678609Y-74276712D01*
X52780044Y-74359956D01*
X52863288Y-74461391D01*
X52892611Y-74497121D01*
X52892612Y-74497123D01*
X52976257Y-74653610D01*
X52976257Y-74653611D01*
X53027766Y-74823412D01*
X53045158Y-75000000D01*
X53027766Y-75176588D01*
X52993427Y-75289789D01*
X52976257Y-75346390D01*
X52902178Y-75484980D01*
X52892611Y-75502879D01*
X52863288Y-75538609D01*
X52780044Y-75640044D01*
X52678609Y-75723288D01*
X52642879Y-75752611D01*
X52642877Y-75752612D01*
X52486390Y-75836257D01*
X52429789Y-75853427D01*
X52316588Y-75887766D01*
X52228362Y-75896455D01*
X52184250Y-75900800D01*
X52095750Y-75900800D01*
X52051638Y-75896455D01*
X51963412Y-75887766D01*
X51850211Y-75853427D01*
X51793610Y-75836257D01*
X51637123Y-75752612D01*
X51637121Y-75752611D01*
X51601391Y-75723288D01*
X51499956Y-75640044D01*
X51416712Y-75538609D01*
X51387389Y-75502879D01*
X51377822Y-75484980D01*
X51303743Y-75346390D01*
X51286573Y-75289789D01*
X51252234Y-75176588D01*
X51234842Y-75000000D01*
X51252234Y-74823412D01*
X51303743Y-74653611D01*
X51303743Y-74653610D01*
X51387388Y-74497123D01*
X51387389Y-74497121D01*
X51416712Y-74461391D01*
X51499956Y-74359956D01*
X51601391Y-74276712D01*
X51637121Y-74247389D01*
X51655020Y-74237822D01*
X51793610Y-74163743D01*
X51850211Y-74146573D01*
X51963412Y-74112234D01*
X52051638Y-74103545D01*
X52095750Y-74099200D01*
X52184250Y-74099200D01*
X52228362Y-74103545D01*
X52228362Y-74103545D01*
G37*
G36*
X64928362Y-74103545D02*
X65016588Y-74112234D01*
X65129789Y-74146573D01*
X65186390Y-74163743D01*
X65324980Y-74237822D01*
X65342879Y-74247389D01*
X65378609Y-74276712D01*
X65480044Y-74359956D01*
X65563288Y-74461391D01*
X65592611Y-74497121D01*
X65592612Y-74497123D01*
X65676257Y-74653610D01*
X65676257Y-74653611D01*
X65727766Y-74823412D01*
X65745158Y-75000000D01*
X65727766Y-75176588D01*
X65693427Y-75289789D01*
X65676257Y-75346390D01*
X65602178Y-75484980D01*
X65592611Y-75502879D01*
X65563288Y-75538609D01*
X65480044Y-75640044D01*
X65378609Y-75723288D01*
X65342879Y-75752611D01*
X65342877Y-75752612D01*
X65186390Y-75836257D01*
X65129789Y-75853427D01*
X65016588Y-75887766D01*
X64928362Y-75896455D01*
X64884250Y-75900800D01*
X64795750Y-75900800D01*
X64751638Y-75896455D01*
X64663412Y-75887766D01*
X64550211Y-75853427D01*
X64493610Y-75836257D01*
X64337123Y-75752612D01*
X64337121Y-75752611D01*
X64301391Y-75723288D01*
X64199956Y-75640044D01*
X64116712Y-75538609D01*
X64087389Y-75502879D01*
X64077822Y-75484980D01*
X64003743Y-75346390D01*
X63986573Y-75289789D01*
X63952234Y-75176588D01*
X63934842Y-75000000D01*
X63952234Y-74823412D01*
X64003743Y-74653611D01*
X64003743Y-74653610D01*
X64087388Y-74497123D01*
X64087389Y-74497121D01*
X64116712Y-74461391D01*
X64199956Y-74359956D01*
X64301391Y-74276712D01*
X64337121Y-74247389D01*
X64355020Y-74237822D01*
X64493610Y-74163743D01*
X64550211Y-74146573D01*
X64663412Y-74112234D01*
X64751638Y-74103545D01*
X64795750Y-74099200D01*
X64884250Y-74099200D01*
X64928362Y-74103545D01*
X64928362Y-74103545D01*
G37*
G36*
X49688362Y-74103545D02*
X49776588Y-74112234D01*
X49889789Y-74146573D01*
X49946390Y-74163743D01*
X50084980Y-74237822D01*
X50102879Y-74247389D01*
X50138609Y-74276712D01*
X50240044Y-74359956D01*
X50323288Y-74461391D01*
X50352611Y-74497121D01*
X50352612Y-74497123D01*
X50436257Y-74653610D01*
X50436257Y-74653611D01*
X50487766Y-74823412D01*
X50505158Y-75000000D01*
X50487766Y-75176588D01*
X50453427Y-75289789D01*
X50436257Y-75346390D01*
X50362178Y-75484980D01*
X50352611Y-75502879D01*
X50323288Y-75538609D01*
X50240044Y-75640044D01*
X50138609Y-75723288D01*
X50102879Y-75752611D01*
X50102877Y-75752612D01*
X49946390Y-75836257D01*
X49889789Y-75853427D01*
X49776588Y-75887766D01*
X49688362Y-75896455D01*
X49644250Y-75900800D01*
X49555750Y-75900800D01*
X49511638Y-75896455D01*
X49423412Y-75887766D01*
X49310211Y-75853427D01*
X49253610Y-75836257D01*
X49097123Y-75752612D01*
X49097121Y-75752611D01*
X49061391Y-75723288D01*
X48959956Y-75640044D01*
X48876712Y-75538609D01*
X48847389Y-75502879D01*
X48837822Y-75484980D01*
X48763743Y-75346390D01*
X48746573Y-75289789D01*
X48712234Y-75176588D01*
X48694842Y-75000000D01*
X48712234Y-74823412D01*
X48763743Y-74653611D01*
X48763743Y-74653610D01*
X48847388Y-74497123D01*
X48847389Y-74497121D01*
X48876712Y-74461391D01*
X48959956Y-74359956D01*
X49061391Y-74276712D01*
X49097121Y-74247389D01*
X49115020Y-74237822D01*
X49253610Y-74163743D01*
X49310211Y-74146573D01*
X49423412Y-74112234D01*
X49511638Y-74103545D01*
X49555750Y-74099200D01*
X49644250Y-74099200D01*
X49688362Y-74103545D01*
X49688362Y-74103545D01*
G37*
G36*
X67468362Y-74103545D02*
X67556588Y-74112234D01*
X67669789Y-74146573D01*
X67726390Y-74163743D01*
X67864980Y-74237822D01*
X67882879Y-74247389D01*
X67918609Y-74276712D01*
X68020044Y-74359956D01*
X68103288Y-74461391D01*
X68132611Y-74497121D01*
X68132612Y-74497123D01*
X68216257Y-74653610D01*
X68216257Y-74653611D01*
X68267766Y-74823412D01*
X68285158Y-75000000D01*
X68267766Y-75176588D01*
X68233427Y-75289789D01*
X68216257Y-75346390D01*
X68142178Y-75484980D01*
X68132611Y-75502879D01*
X68103288Y-75538609D01*
X68020044Y-75640044D01*
X67918609Y-75723288D01*
X67882879Y-75752611D01*
X67882877Y-75752612D01*
X67726390Y-75836257D01*
X67669789Y-75853427D01*
X67556588Y-75887766D01*
X67468362Y-75896455D01*
X67424250Y-75900800D01*
X67335750Y-75900800D01*
X67291638Y-75896455D01*
X67203412Y-75887766D01*
X67090211Y-75853427D01*
X67033610Y-75836257D01*
X66877123Y-75752612D01*
X66877121Y-75752611D01*
X66841391Y-75723288D01*
X66739956Y-75640044D01*
X66656712Y-75538609D01*
X66627389Y-75502879D01*
X66617822Y-75484980D01*
X66543743Y-75346390D01*
X66526573Y-75289789D01*
X66492234Y-75176588D01*
X66474842Y-75000000D01*
X66492234Y-74823412D01*
X66543743Y-74653611D01*
X66543743Y-74653610D01*
X66627388Y-74497123D01*
X66627389Y-74497121D01*
X66656712Y-74461391D01*
X66739956Y-74359956D01*
X66841391Y-74276712D01*
X66877121Y-74247389D01*
X66895020Y-74237822D01*
X67033610Y-74163743D01*
X67090211Y-74146573D01*
X67203412Y-74112234D01*
X67291638Y-74103545D01*
X67335750Y-74099200D01*
X67424250Y-74099200D01*
X67468362Y-74103545D01*
X67468362Y-74103545D01*
G37*
G36*
X47148362Y-74103545D02*
X47236588Y-74112234D01*
X47349789Y-74146573D01*
X47406390Y-74163743D01*
X47544980Y-74237822D01*
X47562879Y-74247389D01*
X47598609Y-74276712D01*
X47700044Y-74359956D01*
X47783288Y-74461391D01*
X47812611Y-74497121D01*
X47812612Y-74497123D01*
X47896257Y-74653610D01*
X47896257Y-74653611D01*
X47947766Y-74823412D01*
X47965158Y-75000000D01*
X47947766Y-75176588D01*
X47913427Y-75289789D01*
X47896257Y-75346390D01*
X47822178Y-75484980D01*
X47812611Y-75502879D01*
X47783288Y-75538609D01*
X47700044Y-75640044D01*
X47598609Y-75723288D01*
X47562879Y-75752611D01*
X47562877Y-75752612D01*
X47406390Y-75836257D01*
X47349789Y-75853427D01*
X47236588Y-75887766D01*
X47148362Y-75896455D01*
X47104250Y-75900800D01*
X47015750Y-75900800D01*
X46971638Y-75896455D01*
X46883412Y-75887766D01*
X46770211Y-75853427D01*
X46713610Y-75836257D01*
X46557123Y-75752612D01*
X46557121Y-75752611D01*
X46521391Y-75723288D01*
X46419956Y-75640044D01*
X46336712Y-75538609D01*
X46307389Y-75502879D01*
X46297822Y-75484980D01*
X46223743Y-75346390D01*
X46206573Y-75289789D01*
X46172234Y-75176588D01*
X46154842Y-75000000D01*
X46172234Y-74823412D01*
X46223743Y-74653611D01*
X46223743Y-74653610D01*
X46307388Y-74497123D01*
X46307389Y-74497121D01*
X46336712Y-74461391D01*
X46419956Y-74359956D01*
X46521391Y-74276712D01*
X46557121Y-74247389D01*
X46575020Y-74237822D01*
X46713610Y-74163743D01*
X46770211Y-74146573D01*
X46883412Y-74112234D01*
X46971638Y-74103545D01*
X47015750Y-74099200D01*
X47104250Y-74099200D01*
X47148362Y-74103545D01*
X47148362Y-74103545D01*
G37*
G36*
X70008362Y-74103545D02*
X70096588Y-74112234D01*
X70209789Y-74146573D01*
X70266390Y-74163743D01*
X70404980Y-74237822D01*
X70422879Y-74247389D01*
X70458609Y-74276712D01*
X70560044Y-74359956D01*
X70643288Y-74461391D01*
X70672611Y-74497121D01*
X70672612Y-74497123D01*
X70756257Y-74653610D01*
X70756257Y-74653611D01*
X70807766Y-74823412D01*
X70825158Y-75000000D01*
X70807766Y-75176588D01*
X70773427Y-75289789D01*
X70756257Y-75346390D01*
X70682178Y-75484980D01*
X70672611Y-75502879D01*
X70643288Y-75538609D01*
X70560044Y-75640044D01*
X70458609Y-75723288D01*
X70422879Y-75752611D01*
X70422877Y-75752612D01*
X70266390Y-75836257D01*
X70209789Y-75853427D01*
X70096588Y-75887766D01*
X70008362Y-75896455D01*
X69964250Y-75900800D01*
X69875750Y-75900800D01*
X69831638Y-75896455D01*
X69743412Y-75887766D01*
X69630211Y-75853427D01*
X69573610Y-75836257D01*
X69417123Y-75752612D01*
X69417121Y-75752611D01*
X69381391Y-75723288D01*
X69279956Y-75640044D01*
X69196712Y-75538609D01*
X69167389Y-75502879D01*
X69157822Y-75484980D01*
X69083743Y-75346390D01*
X69066573Y-75289789D01*
X69032234Y-75176588D01*
X69014842Y-75000000D01*
X69032234Y-74823412D01*
X69083743Y-74653611D01*
X69083743Y-74653610D01*
X69167388Y-74497123D01*
X69167389Y-74497121D01*
X69196712Y-74461391D01*
X69279956Y-74359956D01*
X69381391Y-74276712D01*
X69417121Y-74247389D01*
X69435020Y-74237822D01*
X69573610Y-74163743D01*
X69630211Y-74146573D01*
X69743412Y-74112234D01*
X69831638Y-74103545D01*
X69875750Y-74099200D01*
X69964250Y-74099200D01*
X70008362Y-74103545D01*
X70008362Y-74103545D01*
G37*
G36*
X72548362Y-74103545D02*
X72636588Y-74112234D01*
X72749789Y-74146573D01*
X72806390Y-74163743D01*
X72944980Y-74237822D01*
X72962879Y-74247389D01*
X72998609Y-74276712D01*
X73100044Y-74359956D01*
X73183288Y-74461391D01*
X73212611Y-74497121D01*
X73212612Y-74497123D01*
X73296257Y-74653610D01*
X73296257Y-74653611D01*
X73347766Y-74823412D01*
X73365158Y-75000000D01*
X73347766Y-75176588D01*
X73313427Y-75289789D01*
X73296257Y-75346390D01*
X73222178Y-75484980D01*
X73212611Y-75502879D01*
X73183288Y-75538609D01*
X73100044Y-75640044D01*
X72998609Y-75723288D01*
X72962879Y-75752611D01*
X72962877Y-75752612D01*
X72806390Y-75836257D01*
X72749789Y-75853427D01*
X72636588Y-75887766D01*
X72548362Y-75896455D01*
X72504250Y-75900800D01*
X72415750Y-75900800D01*
X72371638Y-75896455D01*
X72283412Y-75887766D01*
X72170211Y-75853427D01*
X72113610Y-75836257D01*
X71957123Y-75752612D01*
X71957121Y-75752611D01*
X71921391Y-75723288D01*
X71819956Y-75640044D01*
X71736712Y-75538609D01*
X71707389Y-75502879D01*
X71697822Y-75484980D01*
X71623743Y-75346390D01*
X71606573Y-75289789D01*
X71572234Y-75176588D01*
X71554842Y-75000000D01*
X71572234Y-74823412D01*
X71623743Y-74653611D01*
X71623743Y-74653610D01*
X71707388Y-74497123D01*
X71707389Y-74497121D01*
X71736712Y-74461391D01*
X71819956Y-74359956D01*
X71921391Y-74276712D01*
X71957121Y-74247389D01*
X71975020Y-74237822D01*
X72113610Y-74163743D01*
X72170211Y-74146573D01*
X72283412Y-74112234D01*
X72371638Y-74103545D01*
X72415750Y-74099200D01*
X72504250Y-74099200D01*
X72548362Y-74103545D01*
X72548362Y-74103545D01*
G37*
G36*
X44608362Y-74103545D02*
X44696588Y-74112234D01*
X44809789Y-74146573D01*
X44866390Y-74163743D01*
X45004980Y-74237822D01*
X45022879Y-74247389D01*
X45058609Y-74276712D01*
X45160044Y-74359956D01*
X45243288Y-74461391D01*
X45272611Y-74497121D01*
X45272612Y-74497123D01*
X45356257Y-74653610D01*
X45356257Y-74653611D01*
X45407766Y-74823412D01*
X45425158Y-75000000D01*
X45407766Y-75176588D01*
X45373427Y-75289789D01*
X45356257Y-75346390D01*
X45282178Y-75484980D01*
X45272611Y-75502879D01*
X45243288Y-75538609D01*
X45160044Y-75640044D01*
X45058609Y-75723288D01*
X45022879Y-75752611D01*
X45022877Y-75752612D01*
X44866390Y-75836257D01*
X44809789Y-75853427D01*
X44696588Y-75887766D01*
X44608362Y-75896455D01*
X44564250Y-75900800D01*
X44475750Y-75900800D01*
X44431638Y-75896455D01*
X44343412Y-75887766D01*
X44230211Y-75853427D01*
X44173610Y-75836257D01*
X44017123Y-75752612D01*
X44017121Y-75752611D01*
X43981391Y-75723288D01*
X43879956Y-75640044D01*
X43796712Y-75538609D01*
X43767389Y-75502879D01*
X43757822Y-75484980D01*
X43683743Y-75346390D01*
X43666573Y-75289789D01*
X43632234Y-75176588D01*
X43614842Y-75000000D01*
X43632234Y-74823412D01*
X43683743Y-74653611D01*
X43683743Y-74653610D01*
X43767388Y-74497123D01*
X43767389Y-74497121D01*
X43796712Y-74461391D01*
X43879956Y-74359956D01*
X43981391Y-74276712D01*
X44017121Y-74247389D01*
X44035020Y-74237822D01*
X44173610Y-74163743D01*
X44230211Y-74146573D01*
X44343412Y-74112234D01*
X44431638Y-74103545D01*
X44475750Y-74099200D01*
X44564250Y-74099200D01*
X44608362Y-74103545D01*
X44608362Y-74103545D01*
G37*
G36*
X75900800Y-75900800D02*
X74099200Y-75900800D01*
X74099200Y-74099200D01*
X75900800Y-74099200D01*
X75900800Y-75900800D01*
X75900800Y-75900800D01*
G37*
M02*
