G04 #@! TF.GenerationSoftware,KiCad,Pcbnew,(5.0.1)-4*
G04 #@! TF.CreationDate,2018-12-11T15:37:33+08:00*
G04 #@! TF.ProjectId,tomu-fpga,746F6D752D667067612E6B696361645F,rev?*
G04 #@! TF.SameCoordinates,Original*
G04 #@! TF.FileFunction,Copper,L3,Inr,Signal*
G04 #@! TF.FilePolarity,Positive*
%FSLAX46Y46*%
G04 Gerber Fmt 4.6, Leading zero omitted, Abs format (unit mm)*
G04 Created by KiCad (PCBNEW (5.0.1)-4) date 12/11/18 15:37:33*
%MOMM*%
%LPD*%
G01*
G04 APERTURE LIST*
G04 #@! TA.AperFunction,ViaPad*
%ADD10C,0.200000*%
G04 #@! TD*
G04 #@! TA.AperFunction,ViaPad*
%ADD11C,0.500000*%
G04 #@! TD*
G04 #@! TA.AperFunction,Conductor*
%ADD12C,0.200000*%
G04 #@! TD*
G04 #@! TA.AperFunction,Conductor*
%ADD13C,0.400000*%
G04 #@! TD*
G04 #@! TA.AperFunction,Conductor*
%ADD14C,0.100000*%
G04 #@! TD*
G04 #@! TA.AperFunction,Conductor*
%ADD15C,0.254000*%
G04 #@! TD*
G04 APERTURE END LIST*
D10*
G04 #@! TO.N,GND*
X20050000Y-25525000D03*
X19500000Y-24100000D03*
X19250000Y-24100000D03*
X19350000Y-23950000D03*
X19150000Y-23700000D03*
X19600000Y-20100000D03*
X19300000Y-20100000D03*
X19450000Y-20000000D03*
X19000000Y-19950000D03*
X19000000Y-19500000D03*
X19200000Y-19700000D03*
X20350000Y-20100000D03*
X20200000Y-19900000D03*
X19350000Y-18600000D03*
X19500000Y-18450000D03*
X19000000Y-18450000D03*
X19000000Y-18050000D03*
X18800000Y-18200000D03*
X17890000Y-17865000D03*
X17640000Y-17945000D03*
X17800000Y-20150000D03*
X26600000Y-18850000D03*
X26850000Y-19050000D03*
X26600000Y-19600000D03*
X26900000Y-19750000D03*
X26850000Y-20500000D03*
X22200000Y-23100000D03*
X22200000Y-20975000D03*
X21975000Y-21000000D03*
D11*
X21700000Y-23200000D03*
D10*
X24350000Y-17975000D03*
X24450000Y-17850000D03*
X26100000Y-24550000D03*
X26075000Y-24325000D03*
D11*
X26050000Y-18575000D03*
X24650000Y-18575000D03*
D10*
X19200000Y-18200000D03*
X22700000Y-23125000D03*
X18850000Y-19725000D03*
X24800000Y-22500000D03*
X25930000Y-23285000D03*
X24000000Y-21300000D03*
X22340000Y-26035000D03*
X21940000Y-26035000D03*
X21325000Y-26150000D03*
X21650000Y-26150000D03*
X26050000Y-23875000D03*
X22150000Y-25950000D03*
X23075000Y-26075000D03*
X22650000Y-26075000D03*
X25900000Y-23625000D03*
X22900000Y-20925000D03*
X22600000Y-20925000D03*
X18450000Y-20905000D03*
X21680000Y-20975000D03*
X17650000Y-19875000D03*
X20925000Y-26150000D03*
X20200000Y-26150000D03*
X20550000Y-26150000D03*
X20450000Y-25800000D03*
X26725000Y-23800000D03*
X20150000Y-25825000D03*
X24400000Y-22900000D03*
X22920000Y-19625000D03*
X22550000Y-19655000D03*
X22650000Y-20035000D03*
X23060000Y-20145000D03*
X26710000Y-20245000D03*
D11*
X22340000Y-18685000D03*
D10*
X22430000Y-20195000D03*
X20250000Y-24025000D03*
D11*
X20250000Y-23825000D03*
D10*
X20025000Y-23975000D03*
G04 #@! TO.N,+3V3*
X18450000Y-20000000D03*
X20400000Y-22600000D03*
X22200000Y-22300000D03*
X24000000Y-21700000D03*
X18650000Y-20050000D03*
X24800000Y-22100000D03*
X21030000Y-24050000D03*
X21280000Y-24050000D03*
X21100000Y-17800000D03*
X21120000Y-18205000D03*
D11*
X18400000Y-19625000D03*
X21100000Y-23900000D03*
X25150000Y-22150000D03*
D10*
X21400000Y-18185000D03*
D11*
X20225000Y-22775000D03*
D10*
X23630000Y-17745000D03*
D11*
X22450000Y-22475000D03*
X21800000Y-22450000D03*
D10*
X21575000Y-17875000D03*
D11*
X18425000Y-20275000D03*
X17450000Y-22225000D03*
D10*
X19450000Y-23325000D03*
X19450000Y-23475000D03*
X20200000Y-23125000D03*
X25225000Y-23900000D03*
D11*
X26025000Y-21700000D03*
D10*
X26025000Y-21500000D03*
X26275000Y-21625000D03*
D11*
X22000000Y-17925000D03*
X22880000Y-17895000D03*
X23650000Y-18095000D03*
D10*
X25025000Y-23925000D03*
X22750000Y-22425000D03*
X22600000Y-22275000D03*
X22050000Y-22425000D03*
X20450000Y-22475000D03*
X25100000Y-24100000D03*
D11*
X25575000Y-23975000D03*
X24400000Y-23900000D03*
D10*
X23840000Y-17875000D03*
D11*
X23550000Y-21250000D03*
D10*
X17700000Y-22400000D03*
D11*
X19800000Y-23300000D03*
D10*
G04 #@! TO.N,/SPI_MISO*
X26400000Y-17675000D03*
D11*
X20875000Y-25425000D03*
D10*
X23925000Y-24700000D03*
D11*
X23525000Y-25375000D03*
D10*
X20875000Y-22950000D03*
D11*
G04 #@! TO.N,/SPI_CS*
X26825000Y-18275000D03*
D10*
X23300000Y-22425000D03*
X23550000Y-24175000D03*
D11*
X26525000Y-25750000D03*
D10*
X25936706Y-25716706D03*
X25630000Y-18345000D03*
G04 #@! TO.N,/SPI_CLK*
X23253562Y-22053562D03*
X22250000Y-24900000D03*
X27400000Y-17825000D03*
G04 #@! TO.N,/SPI_IO2*
X24500000Y-24875000D03*
D11*
X25275000Y-24800000D03*
X23930000Y-19095000D03*
D10*
X23620000Y-19635000D03*
G04 #@! TO.N,/SPI_IO3*
X22450000Y-24550000D03*
X26900000Y-25350000D03*
X22625000Y-25775000D03*
X23300000Y-22825000D03*
G04 #@! TO.N,/CRESET*
X24400000Y-20900000D03*
X24100000Y-18665000D03*
X25240000Y-19475000D03*
X17700000Y-21775000D03*
G04 #@! TO.N,/CDONE*
X24400000Y-21700000D03*
X25100000Y-20585000D03*
G04 #@! TO.N,+5V*
X17900000Y-24950000D03*
X18175000Y-24750000D03*
X17300000Y-24975000D03*
X17300000Y-25425000D03*
X17400000Y-25875000D03*
X18360000Y-23375000D03*
D11*
X18200000Y-25725000D03*
X18600000Y-25725000D03*
X18600000Y-25325000D03*
D10*
X17250000Y-25875000D03*
X17300000Y-25175000D03*
X17350000Y-26175000D03*
X18200000Y-26125000D03*
X17300000Y-25625000D03*
D11*
X17800000Y-26025000D03*
D10*
X18550000Y-26150000D03*
X17450000Y-22950000D03*
X17475000Y-23500000D03*
X18500000Y-23100000D03*
X18350000Y-23200000D03*
G04 #@! TO.N,/SPI_MOSI*
X25250000Y-17815000D03*
X22250000Y-25250000D03*
D11*
X25650000Y-17775000D03*
X25075000Y-25625000D03*
D10*
G04 #@! TO.N,/PU_CTRL_USBP*
X19975000Y-22350000D03*
X23050000Y-23875000D03*
G04 #@! TO.N,/VCCPLL*
X24000000Y-22500000D03*
D11*
X24350000Y-22425000D03*
X21150000Y-24725000D03*
D10*
X20800000Y-24975000D03*
X20800000Y-24775000D03*
G04 #@! TO.N,+1V2*
X19400000Y-25625000D03*
X24000000Y-22100000D03*
X20075000Y-17825000D03*
X20425000Y-17775000D03*
X22000000Y-21400000D03*
X22200000Y-21400000D03*
X22700000Y-21400000D03*
X22900000Y-21400000D03*
D11*
X21725000Y-21500000D03*
X19875000Y-18100000D03*
D10*
X19360000Y-17835000D03*
X19530000Y-17915000D03*
X18460000Y-24085000D03*
D11*
X22400000Y-21575000D03*
X23000000Y-21575000D03*
X20300000Y-18100000D03*
D10*
X19550000Y-25475000D03*
D11*
X18350000Y-23850000D03*
G04 #@! TO.N,+2V5*
X25200000Y-21500000D03*
D10*
X20275000Y-19275000D03*
X26190000Y-19785000D03*
X26120000Y-19615000D03*
X24800000Y-21700000D03*
D11*
X21750000Y-19325000D03*
X26170000Y-19425000D03*
X26260000Y-20155000D03*
D10*
X26100000Y-19955000D03*
X20325000Y-19500000D03*
D11*
G04 #@! TO.N,/TOUCH_4*
X28450000Y-18275000D03*
D10*
X27975000Y-18350000D03*
G04 #@! TO.N,/TOUCH_1*
X24797506Y-21298753D03*
D11*
X29110000Y-25485000D03*
D10*
X28320000Y-25365000D03*
D11*
X26275000Y-22250000D03*
D10*
X27400000Y-24175000D03*
D11*
X27500000Y-23825000D03*
G04 #@! TO.N,/TOUCH_2*
X28900000Y-23625000D03*
D10*
X28500000Y-23625000D03*
D11*
G04 #@! TO.N,/TOUCH_3*
X27700000Y-20550000D03*
D10*
X28100000Y-20275000D03*
G04 #@! TO.N,/USB_P*
X20175000Y-21650000D03*
D11*
X19625000Y-21650000D03*
D10*
G04 #@! TO.N,/USB_N*
X19000000Y-21275000D03*
D11*
X19025000Y-21625000D03*
G04 #@! TD*
D12*
G04 #@! TO.N,GND*
X21925000Y-20950000D02*
X21975000Y-21000000D01*
X21500000Y-20950000D02*
X21925000Y-20950000D01*
D13*
X24400000Y-22985000D02*
X24400000Y-22975001D01*
D14*
X20000000Y-24025000D02*
X20000000Y-23925000D01*
X20250000Y-23825000D02*
X20000000Y-24025000D01*
G04 #@! TO.N,+3V3*
X18650000Y-20050000D02*
X18650000Y-20300000D01*
X18650000Y-20050000D02*
X18600000Y-20050000D01*
D13*
X21030000Y-24050000D02*
X21280000Y-24050000D01*
X21030000Y-23970000D02*
X21100000Y-23900000D01*
X21030000Y-24050000D02*
X21030000Y-23970000D01*
D12*
X25100000Y-22100000D02*
X25150000Y-22150000D01*
X24800000Y-22100000D02*
X25100000Y-22100000D01*
D13*
X18650000Y-20228553D02*
X18650000Y-20300000D01*
X18400000Y-19978553D02*
X18650000Y-20228553D01*
X18400000Y-19625000D02*
X18400000Y-19978553D01*
X18650000Y-20300000D02*
X18425000Y-20275000D01*
X26025000Y-21700000D02*
X26025000Y-21500000D01*
X26025000Y-21700000D02*
X26275000Y-21625000D01*
X26025000Y-21500000D02*
X26275000Y-21625000D01*
D12*
X23900001Y-21600001D02*
X24000000Y-21700000D01*
X23855999Y-21600001D02*
X23900001Y-21600001D01*
X23550000Y-21294002D02*
X23855999Y-21600001D01*
X23550000Y-21250000D02*
X23550000Y-21294002D01*
D14*
X17450000Y-22225000D02*
X17700000Y-22400000D01*
D12*
X19650000Y-23425000D02*
X19450000Y-23475000D01*
X19800000Y-23300000D02*
X19650000Y-23425000D01*
X19950000Y-23275000D02*
X19800000Y-23300000D01*
D14*
G04 #@! TO.N,/SPI_MISO*
X26225000Y-25100000D02*
X26150000Y-25100000D01*
X26600000Y-17575001D02*
X26499999Y-17575001D01*
X28807846Y-17574990D02*
X26600011Y-17574990D01*
X26600011Y-17574990D02*
X26600000Y-17575001D01*
X29050011Y-17817155D02*
X28807846Y-17574990D01*
X29050011Y-19392155D02*
X29050011Y-17817155D01*
X26225000Y-25100000D02*
X28402858Y-25100000D01*
X26499999Y-17575001D02*
X26400000Y-17675000D01*
X28402858Y-25100000D02*
X29500011Y-24002847D01*
X29500011Y-24002847D02*
X29500011Y-23707845D01*
X29500011Y-23707845D02*
X29747490Y-23460366D01*
X29747490Y-23460366D02*
X29747490Y-20089634D01*
X29747490Y-20089634D02*
X29050011Y-19392155D01*
X25917002Y-25100000D02*
X26225000Y-25100000D01*
X25817002Y-25200000D02*
X25917002Y-25100000D01*
X24283579Y-25200000D02*
X25817002Y-25200000D01*
X23925000Y-24841421D02*
X24283579Y-25200000D01*
X23925000Y-24700000D02*
X23925000Y-24841421D01*
X25486695Y-25530307D02*
X25917002Y-25100000D01*
X23525000Y-25375000D02*
X23774999Y-25624999D01*
X23525000Y-25375000D02*
X24175001Y-26025001D01*
X25486695Y-25805307D02*
X25486695Y-25530307D01*
X25267001Y-26025001D02*
X25486695Y-25805307D01*
X24175001Y-26025001D02*
X25267001Y-26025001D01*
X20550000Y-25100000D02*
X20875000Y-25425000D01*
X20550000Y-24475000D02*
X20550000Y-25100000D01*
X20679990Y-24345010D02*
X20550000Y-24475000D01*
X20679990Y-23728008D02*
X20679990Y-24345010D01*
X20875000Y-23532998D02*
X20679990Y-23728008D01*
X20875000Y-22950000D02*
X20875000Y-23532998D01*
G04 #@! TO.N,/SPI_CS*
X26825000Y-18275000D02*
X26775000Y-18275000D01*
X23342750Y-22497748D02*
X23300000Y-22425000D01*
X23550000Y-22704998D02*
X23342750Y-22497748D01*
X23550000Y-24175000D02*
X23550000Y-22704998D01*
X26525000Y-25750000D02*
X25970000Y-25750000D01*
X25970000Y-25750000D02*
X25936706Y-25716706D01*
X25729999Y-18245001D02*
X25630000Y-18345000D01*
X25800001Y-18174999D02*
X25729999Y-18245001D01*
X26371446Y-18174999D02*
X25800001Y-18174999D01*
X26471447Y-18275000D02*
X26371446Y-18174999D01*
X26825000Y-18275000D02*
X26471447Y-18275000D01*
G04 #@! TO.N,/SPI_CLK*
X29500000Y-20125000D02*
X29400000Y-20025000D01*
X23398563Y-22153561D02*
X23353561Y-22153561D01*
X23353561Y-22153561D02*
X23253562Y-22053562D01*
X23750010Y-22622152D02*
X23550001Y-22422143D01*
X23550001Y-22422143D02*
X23550001Y-22304999D01*
X23550001Y-22304999D02*
X23398563Y-22153561D01*
X23750010Y-23655008D02*
X23750010Y-23275000D01*
X23750010Y-23275000D02*
X23750010Y-22622152D01*
X23750010Y-23275000D02*
X23750010Y-23325010D01*
X29547482Y-20172482D02*
X29400000Y-20025000D01*
X29547482Y-23377518D02*
X29547482Y-20172482D01*
X29300001Y-23624999D02*
X29547482Y-23377518D01*
X29300001Y-23920001D02*
X29300001Y-23624999D01*
X28369994Y-24850008D02*
X29300001Y-23920001D01*
X25950000Y-24850008D02*
X28369994Y-24850008D01*
X28850001Y-17900001D02*
X28850001Y-19475001D01*
X28850001Y-19475001D02*
X29400000Y-20025000D01*
X28775000Y-17825000D02*
X28850001Y-17900001D01*
X27400000Y-17825000D02*
X28775000Y-17825000D01*
X23800001Y-24295001D02*
X23645003Y-24449999D01*
X23800001Y-24054999D02*
X23800001Y-24295001D01*
X23750010Y-23655008D02*
X23750010Y-24005008D01*
X23750010Y-24005008D02*
X23800001Y-24054999D01*
X23370012Y-24724990D02*
X23645003Y-24449999D01*
X22925010Y-24724990D02*
X23370012Y-24724990D01*
X22750000Y-24900000D02*
X22925010Y-24724990D01*
X22250000Y-24900000D02*
X22750000Y-24900000D01*
X25474992Y-24375000D02*
X25950000Y-24850008D01*
X24525000Y-24375000D02*
X25474992Y-24375000D01*
X24450001Y-24449999D02*
X24525000Y-24375000D01*
X23645003Y-24449999D02*
X24450001Y-24449999D01*
G04 #@! TO.N,/SPI_IO2*
X24575000Y-24800000D02*
X24500000Y-24875000D01*
X25275000Y-24800000D02*
X24575000Y-24800000D01*
X23620000Y-19405000D02*
X23930000Y-19095000D01*
X23620000Y-19635000D02*
X23620000Y-19405000D01*
G04 #@! TO.N,/SPI_IO3*
X25949858Y-25350000D02*
X26900000Y-25350000D01*
X22625000Y-25775000D02*
X23642144Y-25775000D01*
X23642144Y-25775000D02*
X24092154Y-26225010D01*
X25686705Y-25613153D02*
X25949858Y-25350000D01*
X25361695Y-26225010D02*
X25686705Y-25900000D01*
X24092154Y-26225010D02*
X25361695Y-26225010D01*
X25686705Y-25900000D02*
X25686705Y-25613153D01*
X22716421Y-24425000D02*
X23125000Y-24425000D01*
X23125000Y-24425000D02*
X23300000Y-24250000D01*
X23300000Y-24250000D02*
X23300000Y-22825000D01*
X22591421Y-24550000D02*
X22716421Y-24425000D01*
X22450000Y-24550000D02*
X22591421Y-24550000D01*
G04 #@! TO.N,/CRESET*
X25240000Y-20060000D02*
X25240000Y-19985000D01*
X24400000Y-20900000D02*
X25240000Y-20060000D01*
X25240000Y-19475000D02*
X25240000Y-19985000D01*
X24100000Y-17615000D02*
X24100000Y-18665000D01*
X17700000Y-21775000D02*
X17345000Y-21495000D01*
X17345000Y-21495000D02*
X17345000Y-17680001D01*
X17345000Y-17680001D02*
X17550000Y-17475001D01*
X17550000Y-17475001D02*
X23960001Y-17475001D01*
X23960001Y-17475001D02*
X24100000Y-17615000D01*
G04 #@! TO.N,/CDONE*
X24547505Y-21552495D02*
X24400000Y-21700000D01*
X24547505Y-21160351D02*
X24547505Y-21552495D01*
X25100000Y-20607856D02*
X24547505Y-21160351D01*
X25100000Y-20585000D02*
X25100000Y-20607856D01*
G04 #@! TO.N,+5V*
X18200000Y-25550000D02*
X18200000Y-25500000D01*
X18200000Y-25500000D02*
X18000000Y-25700000D01*
X18200000Y-25550000D02*
X18300000Y-25650000D01*
G04 #@! TO.N,/SPI_MOSI*
X22491420Y-25150001D02*
X22965711Y-25150001D01*
X22391421Y-25250000D02*
X22491420Y-25150001D01*
X22250000Y-25250000D02*
X22391421Y-25250000D01*
X25610000Y-17815000D02*
X25650000Y-17775000D01*
X25250000Y-17815000D02*
X25610000Y-17815000D01*
X23100000Y-25015712D02*
X23140713Y-24974999D01*
X22965711Y-25150001D02*
X23100000Y-25015712D01*
X23140713Y-24974999D02*
X22965711Y-25150001D01*
X25075000Y-25625000D02*
X24675000Y-25625000D01*
X23717001Y-24974999D02*
X23140713Y-24974999D01*
X24367002Y-25625000D02*
X23717001Y-24974999D01*
X25075000Y-25625000D02*
X24367002Y-25625000D01*
G04 #@! TO.N,/PU_CTRL_USBP*
X20324999Y-22000001D02*
X19975000Y-22350000D01*
X22850001Y-22000001D02*
X20324999Y-22000001D01*
X23050000Y-23875000D02*
X23049999Y-22199999D01*
X23049999Y-22199999D02*
X22850001Y-22000001D01*
D12*
G04 #@! TO.N,/VCCPLL*
X24275000Y-22500000D02*
X24350000Y-22425000D01*
X24000000Y-22500000D02*
X24275000Y-22500000D01*
X21050000Y-24725000D02*
X21150000Y-24725000D01*
X20800000Y-24975000D02*
X21050000Y-24725000D01*
X21050000Y-24625000D02*
X21150000Y-24725000D01*
X20800000Y-24775000D02*
X21050000Y-24625000D01*
D14*
G04 #@! TO.N,+1V2*
X21300000Y-21400000D02*
X21300000Y-21668544D01*
X21300000Y-21668544D02*
X21392136Y-21760680D01*
X21500000Y-21400000D02*
X21725000Y-21500000D01*
X20350000Y-18000000D02*
X19975000Y-18000000D01*
X19975000Y-18000000D02*
X19875000Y-18100000D01*
X22825000Y-21400000D02*
X23000000Y-21575000D01*
X22700000Y-21400000D02*
X22825000Y-21400000D01*
D12*
X19550000Y-25475000D02*
X19400000Y-25625000D01*
D13*
X19150001Y-25375001D02*
X19400000Y-25625000D01*
X19150001Y-25060999D02*
X19150001Y-25375001D01*
X18800001Y-24398554D02*
X18800001Y-24710999D01*
X18800001Y-24710999D02*
X19150001Y-25060999D01*
X18580000Y-24178553D02*
X18800001Y-24398554D01*
X18350000Y-23850000D02*
X18580000Y-24178553D01*
D14*
X18350000Y-23850000D02*
X18580000Y-23965000D01*
X18580000Y-23965000D02*
X18460000Y-24085000D01*
G04 #@! TO.N,+2V5*
X25950000Y-19350000D02*
X26190000Y-19785000D01*
D12*
X24800000Y-21700000D02*
X25000000Y-21700000D01*
X25000000Y-21700000D02*
X25200000Y-21500000D01*
D13*
X21275000Y-19275000D02*
X20275000Y-19275000D01*
X21750000Y-19325000D02*
X21275000Y-19275000D01*
D12*
X26170000Y-19425000D02*
X26190000Y-19785000D01*
D13*
X26260000Y-20155000D02*
X26170000Y-19425000D01*
D12*
X26100000Y-19955000D02*
X26260000Y-20155000D01*
X26170000Y-19425000D02*
X26100000Y-19955000D01*
D13*
X20525000Y-19325000D02*
X21750000Y-19325000D01*
X20325000Y-19500000D02*
X20525000Y-19325000D01*
D14*
G04 #@! TO.N,/TOUCH_4*
X28375000Y-18350000D02*
X28450000Y-18275000D01*
X27975000Y-18350000D02*
X28375000Y-18350000D01*
G04 #@! TO.N,/TOUCH_1*
X25392001Y-21099999D02*
X24996260Y-21099999D01*
X25600000Y-21307998D02*
X25392001Y-21099999D01*
X24996260Y-21099999D02*
X24797506Y-21298753D01*
X25600001Y-21307999D02*
X25392001Y-21099999D01*
X28990000Y-25365000D02*
X29110000Y-25485000D01*
X28320000Y-25365000D02*
X28990000Y-25365000D01*
X25600000Y-21550000D02*
X25600000Y-21375000D01*
X25600000Y-21375000D02*
X25600000Y-21307998D01*
X25600001Y-21375001D02*
X25600000Y-21375000D01*
X26275000Y-22250000D02*
X25875000Y-22250000D01*
X25875000Y-22250000D02*
X25600001Y-21975001D01*
X25600001Y-21975001D02*
X25600001Y-21375001D01*
X27500000Y-24075000D02*
X27400000Y-24175000D01*
X27500000Y-23825000D02*
X27500000Y-24075000D01*
G04 #@! TO.N,/TOUCH_2*
X28500000Y-23625000D02*
X28525000Y-23625000D01*
X28525000Y-23625000D02*
X28900000Y-23625000D01*
D12*
G04 #@! TO.N,/TOUCH_3*
X27975000Y-20275000D02*
X27700000Y-20550000D01*
X28100000Y-20275000D02*
X27975000Y-20275000D01*
D14*
G04 #@! TO.N,/USB_P*
X19625000Y-21650000D02*
X20175000Y-21650000D01*
G04 #@! TO.N,/USB_N*
X19025000Y-21300000D02*
X19000000Y-21275000D01*
X19025000Y-21625000D02*
X19025000Y-21300000D01*
G04 #@! TD*
D15*
G04 #@! TO.N,GND*
G36*
X25379801Y-17370619D02*
X25262420Y-17488000D01*
X25184956Y-17488000D01*
X25064770Y-17537783D01*
X24972783Y-17629770D01*
X24923000Y-17749956D01*
X24923000Y-17880044D01*
X24972783Y-18000230D01*
X25064770Y-18092217D01*
X25184956Y-18142000D01*
X25315044Y-18142000D01*
X25334402Y-18133982D01*
X25356487Y-18156067D01*
X25352783Y-18159770D01*
X25303000Y-18279956D01*
X25303000Y-18410044D01*
X25352783Y-18530230D01*
X25444770Y-18622217D01*
X25564956Y-18672000D01*
X25695044Y-18672000D01*
X25815230Y-18622217D01*
X25907217Y-18530230D01*
X25939622Y-18451999D01*
X26256570Y-18451999D01*
X26271742Y-18474705D01*
X26363367Y-18535928D01*
X26423262Y-18547842D01*
X26554801Y-18679381D01*
X26730119Y-18752000D01*
X26919881Y-18752000D01*
X27073000Y-18688576D01*
X27073000Y-21626329D01*
X27047458Y-21754737D01*
X27047458Y-21845261D01*
X27073000Y-21973670D01*
X27073000Y-23609408D01*
X27023000Y-23730119D01*
X27023000Y-23919881D01*
X27073000Y-24040591D01*
X27073000Y-24573008D01*
X26064737Y-24573008D01*
X26052000Y-24560271D01*
X26052000Y-23700000D01*
X26034721Y-23613131D01*
X25985513Y-23539487D01*
X25911869Y-23490279D01*
X25825000Y-23473000D01*
X24948219Y-23473000D01*
X24703882Y-23160249D01*
X24611869Y-23090279D01*
X24525000Y-23073000D01*
X24027010Y-23073000D01*
X24027010Y-22827000D01*
X24077420Y-22827000D01*
X24079801Y-22829381D01*
X24255119Y-22902000D01*
X24444881Y-22902000D01*
X24620199Y-22829381D01*
X24754381Y-22695199D01*
X24827000Y-22519881D01*
X24827000Y-22501580D01*
X24879801Y-22554381D01*
X25055119Y-22627000D01*
X25244881Y-22627000D01*
X25420199Y-22554381D01*
X25554381Y-22420199D01*
X25583401Y-22350138D01*
X25659843Y-22426580D01*
X25675295Y-22449705D01*
X25766920Y-22510928D01*
X25847721Y-22527000D01*
X25847725Y-22527000D01*
X25874999Y-22532425D01*
X25881543Y-22531123D01*
X26004801Y-22654381D01*
X26180119Y-22727000D01*
X26369881Y-22727000D01*
X26545199Y-22654381D01*
X26679381Y-22520199D01*
X26752000Y-22344881D01*
X26752000Y-22155119D01*
X26679381Y-21979801D01*
X26600988Y-21901408D01*
X26608334Y-21891942D01*
X26658327Y-21831406D01*
X26660294Y-21824991D01*
X26664401Y-21819700D01*
X26685112Y-21744072D01*
X26708136Y-21669002D01*
X26707499Y-21662325D01*
X26709269Y-21655862D01*
X26699458Y-21578035D01*
X26692004Y-21499899D01*
X26688861Y-21493976D01*
X26688023Y-21487326D01*
X26649173Y-21419174D01*
X26612387Y-21349841D01*
X26607216Y-21345571D01*
X26603897Y-21339748D01*
X26541922Y-21291649D01*
X26481407Y-21241674D01*
X26434178Y-21227189D01*
X26239943Y-21130072D01*
X26191607Y-21097775D01*
X26123154Y-21084159D01*
X26055862Y-21065731D01*
X26040344Y-21067687D01*
X26025000Y-21064635D01*
X25956559Y-21078249D01*
X25887326Y-21086976D01*
X25873735Y-21094723D01*
X25858394Y-21097775D01*
X25812961Y-21128132D01*
X25799705Y-21108293D01*
X25776580Y-21092841D01*
X25607159Y-20923421D01*
X25591706Y-20900294D01*
X25500081Y-20839071D01*
X25419280Y-20822999D01*
X25419276Y-20822999D01*
X25392001Y-20817574D01*
X25364726Y-20822999D01*
X25324448Y-20822999D01*
X25377217Y-20770230D01*
X25427000Y-20650044D01*
X25427000Y-20519956D01*
X25377217Y-20399770D01*
X25334592Y-20357145D01*
X25416581Y-20275156D01*
X25439705Y-20259705D01*
X25500928Y-20168080D01*
X25517000Y-20087279D01*
X25517000Y-20087275D01*
X25522425Y-20060001D01*
X25517000Y-20032727D01*
X25517000Y-19660447D01*
X25517217Y-19660230D01*
X25567000Y-19540044D01*
X25567000Y-19409956D01*
X25555178Y-19381415D01*
X25669327Y-19381415D01*
X25693000Y-19455876D01*
X25693000Y-19519881D01*
X25765619Y-19695199D01*
X25774129Y-19703709D01*
X25788237Y-19818140D01*
X25781444Y-19869570D01*
X25773000Y-19889956D01*
X25773000Y-19904407D01*
X25768633Y-19918182D01*
X25773000Y-19969013D01*
X25773000Y-20020044D01*
X25777205Y-20030196D01*
X25777919Y-20041157D01*
X25779468Y-20044302D01*
X25779768Y-20047792D01*
X25784403Y-20056731D01*
X25783000Y-20060119D01*
X25783000Y-20249881D01*
X25855619Y-20425199D01*
X25989801Y-20559381D01*
X26165119Y-20632000D01*
X26354881Y-20632000D01*
X26530199Y-20559381D01*
X26664381Y-20425199D01*
X26737000Y-20249881D01*
X26737000Y-20060119D01*
X26664381Y-19884801D01*
X26655871Y-19876291D01*
X26619974Y-19585127D01*
X26647000Y-19519881D01*
X26647000Y-19330119D01*
X26574381Y-19154801D01*
X26440199Y-19020619D01*
X26264881Y-18948000D01*
X26075119Y-18948000D01*
X25899801Y-19020619D01*
X25819634Y-19100786D01*
X25813567Y-19102715D01*
X25729320Y-19173749D01*
X25678670Y-19271616D01*
X25669327Y-19381415D01*
X25555178Y-19381415D01*
X25517217Y-19289770D01*
X25425230Y-19197783D01*
X25305044Y-19148000D01*
X25174956Y-19148000D01*
X25054770Y-19197783D01*
X24962783Y-19289770D01*
X24913000Y-19409956D01*
X24913000Y-19540044D01*
X24962783Y-19660230D01*
X24963000Y-19660447D01*
X24963001Y-19945262D01*
X24335264Y-20573000D01*
X24334956Y-20573000D01*
X24214770Y-20622783D01*
X24122783Y-20714770D01*
X24073000Y-20834956D01*
X24073000Y-20965044D01*
X24122783Y-21085230D01*
X24214770Y-21177217D01*
X24270505Y-21200303D01*
X24270505Y-21399697D01*
X24214770Y-21422783D01*
X24200000Y-21437553D01*
X24154000Y-21391553D01*
X24135755Y-21364247D01*
X24027590Y-21291974D01*
X24027000Y-21291857D01*
X24027000Y-21155119D01*
X23954381Y-20979801D01*
X23820199Y-20845619D01*
X23644881Y-20773000D01*
X23455119Y-20773000D01*
X23279801Y-20845619D01*
X23152420Y-20973000D01*
X21000000Y-20973000D01*
X20913131Y-20990279D01*
X20839487Y-21039487D01*
X20790279Y-21113131D01*
X20773000Y-21200000D01*
X20773000Y-21723001D01*
X20498704Y-21723001D01*
X20502000Y-21715044D01*
X20502000Y-21584956D01*
X20452217Y-21464770D01*
X20360230Y-21372783D01*
X20240044Y-21323000D01*
X20109956Y-21323000D01*
X20012817Y-21363237D01*
X19895199Y-21245619D01*
X19719881Y-21173000D01*
X19530119Y-21173000D01*
X19354801Y-21245619D01*
X19337500Y-21262920D01*
X19327000Y-21252420D01*
X19327000Y-21209956D01*
X19277217Y-21089770D01*
X19185230Y-20997783D01*
X19065044Y-20948000D01*
X18934956Y-20948000D01*
X18814770Y-20997783D01*
X18722783Y-21089770D01*
X18673000Y-21209956D01*
X18673000Y-21302420D01*
X18620619Y-21354801D01*
X18548000Y-21530119D01*
X18548000Y-21719881D01*
X18620619Y-21895199D01*
X18754801Y-22029381D01*
X18930119Y-22102000D01*
X19119881Y-22102000D01*
X19295199Y-22029381D01*
X19312500Y-22012080D01*
X19354801Y-22054381D01*
X19530119Y-22127000D01*
X19719881Y-22127000D01*
X19746635Y-22115918D01*
X19697783Y-22164770D01*
X19648000Y-22284956D01*
X19648000Y-22415044D01*
X19697783Y-22535230D01*
X19745119Y-22582566D01*
X19319655Y-23025049D01*
X19264770Y-23047783D01*
X19172783Y-23139770D01*
X19145112Y-23206573D01*
X19086371Y-23267664D01*
X19040279Y-23338131D01*
X19023000Y-23425000D01*
X19040279Y-23511869D01*
X19089487Y-23585513D01*
X19589487Y-24085513D01*
X19668030Y-24136684D01*
X19755278Y-24151939D01*
X19841722Y-24132644D01*
X19914202Y-24081738D01*
X20598001Y-23365378D01*
X20598001Y-23418261D01*
X20503412Y-23512850D01*
X20480285Y-23528303D01*
X20419062Y-23619929D01*
X20402990Y-23700730D01*
X20402990Y-23700733D01*
X20397565Y-23728008D01*
X20402990Y-23755283D01*
X20402991Y-24230273D01*
X20373422Y-24259842D01*
X20350295Y-24275295D01*
X20289072Y-24366921D01*
X20273000Y-24447722D01*
X20273000Y-24447725D01*
X20267575Y-24475000D01*
X20273000Y-24502275D01*
X20273001Y-25072720D01*
X20267575Y-25100000D01*
X20289072Y-25208079D01*
X20334602Y-25276217D01*
X20350296Y-25299705D01*
X20373420Y-25315157D01*
X20398000Y-25339736D01*
X20398000Y-25519881D01*
X20470619Y-25695199D01*
X20604801Y-25829381D01*
X20780119Y-25902000D01*
X20969881Y-25902000D01*
X21145199Y-25829381D01*
X21279381Y-25695199D01*
X21352000Y-25519881D01*
X21352000Y-25330119D01*
X21291016Y-25182890D01*
X21420199Y-25129381D01*
X21554381Y-24995199D01*
X21627000Y-24819881D01*
X21627000Y-24630119D01*
X21554381Y-24454801D01*
X21509669Y-24410089D01*
X21587850Y-24357850D01*
X21682225Y-24216607D01*
X21715365Y-24050000D01*
X21682225Y-23883393D01*
X21587850Y-23742150D01*
X21536784Y-23708029D01*
X21504381Y-23629801D01*
X21370199Y-23495619D01*
X21194881Y-23423000D01*
X21152000Y-23423000D01*
X21152000Y-23135447D01*
X21152217Y-23135230D01*
X21186692Y-23052000D01*
X22773000Y-23052000D01*
X22773001Y-23689552D01*
X22772783Y-23689770D01*
X22723000Y-23809956D01*
X22723000Y-23940044D01*
X22772783Y-24060230D01*
X22860553Y-24148000D01*
X22743696Y-24148000D01*
X22716421Y-24142575D01*
X22689146Y-24148000D01*
X22689142Y-24148000D01*
X22608341Y-24164072D01*
X22518196Y-24224306D01*
X22515044Y-24223000D01*
X22384956Y-24223000D01*
X22264770Y-24272783D01*
X22172783Y-24364770D01*
X22123000Y-24484956D01*
X22123000Y-24598663D01*
X22064770Y-24622783D01*
X21972783Y-24714770D01*
X21923000Y-24834956D01*
X21923000Y-24965044D01*
X21968546Y-25075000D01*
X21923000Y-25184956D01*
X21923000Y-25315044D01*
X21972783Y-25435230D01*
X22064770Y-25527217D01*
X22184956Y-25577000D01*
X22315044Y-25577000D01*
X22392733Y-25544820D01*
X22347783Y-25589770D01*
X22298000Y-25709956D01*
X22298000Y-25840044D01*
X22347783Y-25960230D01*
X22439770Y-26052217D01*
X22559956Y-26102000D01*
X22690044Y-26102000D01*
X22810230Y-26052217D01*
X22810447Y-26052000D01*
X23527408Y-26052000D01*
X23723407Y-26248000D01*
X19345272Y-26248000D01*
X19287328Y-26037953D01*
X19400000Y-26060365D01*
X19566607Y-26027224D01*
X19707849Y-25932849D01*
X19802224Y-25791607D01*
X19829411Y-25654934D01*
X19839784Y-25629892D01*
X19858027Y-25602589D01*
X19864433Y-25570382D01*
X19877000Y-25540044D01*
X19877000Y-25507206D01*
X19883406Y-25475001D01*
X19877000Y-25442796D01*
X19877000Y-25409956D01*
X19864433Y-25379616D01*
X19858027Y-25347412D01*
X19839784Y-25320110D01*
X19827217Y-25289770D01*
X19803995Y-25266548D01*
X19785753Y-25239247D01*
X19758451Y-25221004D01*
X19735230Y-25197783D01*
X19704890Y-25185216D01*
X19677588Y-25166973D01*
X19645384Y-25160567D01*
X19615044Y-25148000D01*
X19582204Y-25148000D01*
X19577001Y-25146965D01*
X19577001Y-25103053D01*
X19585366Y-25060999D01*
X19568797Y-24977698D01*
X19552226Y-24894392D01*
X19457851Y-24753149D01*
X19422197Y-24729326D01*
X19227001Y-24534131D01*
X19227001Y-24440606D01*
X19235366Y-24398553D01*
X19224745Y-24345160D01*
X19202226Y-24231947D01*
X19107851Y-24090704D01*
X19072194Y-24066879D01*
X18908369Y-23903054D01*
X18827000Y-23786819D01*
X18827000Y-23755119D01*
X18754381Y-23579801D01*
X18699766Y-23525186D01*
X18811365Y-23202790D01*
X18827000Y-23165044D01*
X18827000Y-23157622D01*
X18864512Y-23049254D01*
X18876856Y-22966928D01*
X18856499Y-22880729D01*
X18804704Y-22808881D01*
X18729357Y-22762323D01*
X18014369Y-22495537D01*
X18027000Y-22465044D01*
X18027000Y-22334956D01*
X17977217Y-22214770D01*
X17927000Y-22164553D01*
X17927000Y-22130119D01*
X17891949Y-22045498D01*
X17977217Y-21960230D01*
X18027000Y-21840044D01*
X18027000Y-21709956D01*
X17977217Y-21589770D01*
X17885230Y-21497783D01*
X17765044Y-21448000D01*
X17732700Y-21448000D01*
X17622000Y-21360688D01*
X17622000Y-19530119D01*
X17923000Y-19530119D01*
X17923000Y-19719881D01*
X17973000Y-19840592D01*
X17973000Y-19936500D01*
X17964635Y-19978553D01*
X17973000Y-20020606D01*
X17973000Y-20020607D01*
X17986325Y-20087594D01*
X17948000Y-20180119D01*
X17948000Y-20369881D01*
X18020619Y-20545199D01*
X18154801Y-20679381D01*
X18330119Y-20752000D01*
X18519881Y-20752000D01*
X18589226Y-20723276D01*
X18650000Y-20735365D01*
X18710112Y-20723408D01*
X18771170Y-20718163D01*
X18792756Y-20706969D01*
X18816607Y-20702225D01*
X18867566Y-20668175D01*
X18921971Y-20639963D01*
X18937630Y-20621360D01*
X18957850Y-20607850D01*
X18991899Y-20556891D01*
X19031366Y-20510006D01*
X19038715Y-20486826D01*
X19052225Y-20466606D01*
X19064181Y-20406498D01*
X19082702Y-20348078D01*
X19077000Y-20281702D01*
X19077000Y-20270605D01*
X19085365Y-20228552D01*
X19074750Y-20175186D01*
X19052225Y-20061946D01*
X18957850Y-19920703D01*
X18947529Y-19913807D01*
X18927217Y-19864770D01*
X18849271Y-19786824D01*
X18877000Y-19719881D01*
X18877000Y-19530119D01*
X18804381Y-19354801D01*
X18724580Y-19275000D01*
X19839635Y-19275000D01*
X19872775Y-19441607D01*
X19891128Y-19469074D01*
X19890599Y-19471040D01*
X19912584Y-19639482D01*
X19997355Y-19786689D01*
X20132007Y-19890251D01*
X20296040Y-19934401D01*
X20464482Y-19912416D01*
X20574532Y-19849043D01*
X20685438Y-19752000D01*
X21534408Y-19752000D01*
X21655119Y-19802000D01*
X21844881Y-19802000D01*
X22020199Y-19729381D01*
X22154381Y-19595199D01*
X22227000Y-19419881D01*
X22227000Y-19230119D01*
X22154381Y-19054801D01*
X22020199Y-18920619D01*
X21844881Y-18848000D01*
X21655119Y-18848000D01*
X21582635Y-18878024D01*
X21339136Y-18852392D01*
X21317054Y-18848000D01*
X21297409Y-18848000D01*
X21277877Y-18845944D01*
X21255463Y-18848000D01*
X20232946Y-18848000D01*
X20108393Y-18872775D01*
X19967150Y-18967150D01*
X19872775Y-19108393D01*
X19839635Y-19275000D01*
X18724580Y-19275000D01*
X18670199Y-19220619D01*
X18494881Y-19148000D01*
X18305119Y-19148000D01*
X18129801Y-19220619D01*
X17995619Y-19354801D01*
X17923000Y-19530119D01*
X17622000Y-19530119D01*
X17622000Y-17794737D01*
X17664737Y-17752001D01*
X18873000Y-17752001D01*
X18873000Y-18100000D01*
X18908489Y-18221871D01*
X18969705Y-18285882D01*
X19050757Y-18321594D01*
X19275757Y-18371594D01*
X19292326Y-18374636D01*
X19506159Y-18405739D01*
X19604801Y-18504381D01*
X19780119Y-18577000D01*
X19969881Y-18577000D01*
X20087500Y-18528281D01*
X20205119Y-18577000D01*
X20394881Y-18577000D01*
X20469912Y-18545921D01*
X20613932Y-18566870D01*
X20648131Y-18589721D01*
X20735000Y-18607000D01*
X23773000Y-18607000D01*
X23773000Y-18643730D01*
X23659801Y-18690619D01*
X23525619Y-18824801D01*
X23453000Y-19000119D01*
X23453000Y-19180264D01*
X23443420Y-19189843D01*
X23420296Y-19205295D01*
X23404844Y-19228420D01*
X23404843Y-19228421D01*
X23359072Y-19296921D01*
X23352469Y-19330119D01*
X23343000Y-19377721D01*
X23343000Y-19377725D01*
X23337575Y-19405000D01*
X23343000Y-19432275D01*
X23343000Y-19449553D01*
X23342783Y-19449770D01*
X23293000Y-19569956D01*
X23293000Y-19700044D01*
X23342783Y-19820230D01*
X23434770Y-19912217D01*
X23554956Y-19962000D01*
X23685044Y-19962000D01*
X23805230Y-19912217D01*
X23897217Y-19820230D01*
X23947000Y-19700044D01*
X23947000Y-19572000D01*
X24024881Y-19572000D01*
X24200199Y-19499381D01*
X24334381Y-19365199D01*
X24407000Y-19189881D01*
X24407000Y-19000119D01*
X24354375Y-18873072D01*
X24377217Y-18850230D01*
X24427000Y-18730044D01*
X24427000Y-18599956D01*
X24377217Y-18479770D01*
X24377000Y-18479553D01*
X24377000Y-17642273D01*
X24382425Y-17614999D01*
X24377000Y-17587725D01*
X24377000Y-17587721D01*
X24360928Y-17506920D01*
X24299705Y-17415295D01*
X24276578Y-17399842D01*
X24228736Y-17352000D01*
X25424751Y-17352000D01*
X25379801Y-17370619D01*
X25379801Y-17370619D01*
G37*
X25379801Y-17370619D02*
X25262420Y-17488000D01*
X25184956Y-17488000D01*
X25064770Y-17537783D01*
X24972783Y-17629770D01*
X24923000Y-17749956D01*
X24923000Y-17880044D01*
X24972783Y-18000230D01*
X25064770Y-18092217D01*
X25184956Y-18142000D01*
X25315044Y-18142000D01*
X25334402Y-18133982D01*
X25356487Y-18156067D01*
X25352783Y-18159770D01*
X25303000Y-18279956D01*
X25303000Y-18410044D01*
X25352783Y-18530230D01*
X25444770Y-18622217D01*
X25564956Y-18672000D01*
X25695044Y-18672000D01*
X25815230Y-18622217D01*
X25907217Y-18530230D01*
X25939622Y-18451999D01*
X26256570Y-18451999D01*
X26271742Y-18474705D01*
X26363367Y-18535928D01*
X26423262Y-18547842D01*
X26554801Y-18679381D01*
X26730119Y-18752000D01*
X26919881Y-18752000D01*
X27073000Y-18688576D01*
X27073000Y-21626329D01*
X27047458Y-21754737D01*
X27047458Y-21845261D01*
X27073000Y-21973670D01*
X27073000Y-23609408D01*
X27023000Y-23730119D01*
X27023000Y-23919881D01*
X27073000Y-24040591D01*
X27073000Y-24573008D01*
X26064737Y-24573008D01*
X26052000Y-24560271D01*
X26052000Y-23700000D01*
X26034721Y-23613131D01*
X25985513Y-23539487D01*
X25911869Y-23490279D01*
X25825000Y-23473000D01*
X24948219Y-23473000D01*
X24703882Y-23160249D01*
X24611869Y-23090279D01*
X24525000Y-23073000D01*
X24027010Y-23073000D01*
X24027010Y-22827000D01*
X24077420Y-22827000D01*
X24079801Y-22829381D01*
X24255119Y-22902000D01*
X24444881Y-22902000D01*
X24620199Y-22829381D01*
X24754381Y-22695199D01*
X24827000Y-22519881D01*
X24827000Y-22501580D01*
X24879801Y-22554381D01*
X25055119Y-22627000D01*
X25244881Y-22627000D01*
X25420199Y-22554381D01*
X25554381Y-22420199D01*
X25583401Y-22350138D01*
X25659843Y-22426580D01*
X25675295Y-22449705D01*
X25766920Y-22510928D01*
X25847721Y-22527000D01*
X25847725Y-22527000D01*
X25874999Y-22532425D01*
X25881543Y-22531123D01*
X26004801Y-22654381D01*
X26180119Y-22727000D01*
X26369881Y-22727000D01*
X26545199Y-22654381D01*
X26679381Y-22520199D01*
X26752000Y-22344881D01*
X26752000Y-22155119D01*
X26679381Y-21979801D01*
X26600988Y-21901408D01*
X26608334Y-21891942D01*
X26658327Y-21831406D01*
X26660294Y-21824991D01*
X26664401Y-21819700D01*
X26685112Y-21744072D01*
X26708136Y-21669002D01*
X26707499Y-21662325D01*
X26709269Y-21655862D01*
X26699458Y-21578035D01*
X26692004Y-21499899D01*
X26688861Y-21493976D01*
X26688023Y-21487326D01*
X26649173Y-21419174D01*
X26612387Y-21349841D01*
X26607216Y-21345571D01*
X26603897Y-21339748D01*
X26541922Y-21291649D01*
X26481407Y-21241674D01*
X26434178Y-21227189D01*
X26239943Y-21130072D01*
X26191607Y-21097775D01*
X26123154Y-21084159D01*
X26055862Y-21065731D01*
X26040344Y-21067687D01*
X26025000Y-21064635D01*
X25956559Y-21078249D01*
X25887326Y-21086976D01*
X25873735Y-21094723D01*
X25858394Y-21097775D01*
X25812961Y-21128132D01*
X25799705Y-21108293D01*
X25776580Y-21092841D01*
X25607159Y-20923421D01*
X25591706Y-20900294D01*
X25500081Y-20839071D01*
X25419280Y-20822999D01*
X25419276Y-20822999D01*
X25392001Y-20817574D01*
X25364726Y-20822999D01*
X25324448Y-20822999D01*
X25377217Y-20770230D01*
X25427000Y-20650044D01*
X25427000Y-20519956D01*
X25377217Y-20399770D01*
X25334592Y-20357145D01*
X25416581Y-20275156D01*
X25439705Y-20259705D01*
X25500928Y-20168080D01*
X25517000Y-20087279D01*
X25517000Y-20087275D01*
X25522425Y-20060001D01*
X25517000Y-20032727D01*
X25517000Y-19660447D01*
X25517217Y-19660230D01*
X25567000Y-19540044D01*
X25567000Y-19409956D01*
X25555178Y-19381415D01*
X25669327Y-19381415D01*
X25693000Y-19455876D01*
X25693000Y-19519881D01*
X25765619Y-19695199D01*
X25774129Y-19703709D01*
X25788237Y-19818140D01*
X25781444Y-19869570D01*
X25773000Y-19889956D01*
X25773000Y-19904407D01*
X25768633Y-19918182D01*
X25773000Y-19969013D01*
X25773000Y-20020044D01*
X25777205Y-20030196D01*
X25777919Y-20041157D01*
X25779468Y-20044302D01*
X25779768Y-20047792D01*
X25784403Y-20056731D01*
X25783000Y-20060119D01*
X25783000Y-20249881D01*
X25855619Y-20425199D01*
X25989801Y-20559381D01*
X26165119Y-20632000D01*
X26354881Y-20632000D01*
X26530199Y-20559381D01*
X26664381Y-20425199D01*
X26737000Y-20249881D01*
X26737000Y-20060119D01*
X26664381Y-19884801D01*
X26655871Y-19876291D01*
X26619974Y-19585127D01*
X26647000Y-19519881D01*
X26647000Y-19330119D01*
X26574381Y-19154801D01*
X26440199Y-19020619D01*
X26264881Y-18948000D01*
X26075119Y-18948000D01*
X25899801Y-19020619D01*
X25819634Y-19100786D01*
X25813567Y-19102715D01*
X25729320Y-19173749D01*
X25678670Y-19271616D01*
X25669327Y-19381415D01*
X25555178Y-19381415D01*
X25517217Y-19289770D01*
X25425230Y-19197783D01*
X25305044Y-19148000D01*
X25174956Y-19148000D01*
X25054770Y-19197783D01*
X24962783Y-19289770D01*
X24913000Y-19409956D01*
X24913000Y-19540044D01*
X24962783Y-19660230D01*
X24963000Y-19660447D01*
X24963001Y-19945262D01*
X24335264Y-20573000D01*
X24334956Y-20573000D01*
X24214770Y-20622783D01*
X24122783Y-20714770D01*
X24073000Y-20834956D01*
X24073000Y-20965044D01*
X24122783Y-21085230D01*
X24214770Y-21177217D01*
X24270505Y-21200303D01*
X24270505Y-21399697D01*
X24214770Y-21422783D01*
X24200000Y-21437553D01*
X24154000Y-21391553D01*
X24135755Y-21364247D01*
X24027590Y-21291974D01*
X24027000Y-21291857D01*
X24027000Y-21155119D01*
X23954381Y-20979801D01*
X23820199Y-20845619D01*
X23644881Y-20773000D01*
X23455119Y-20773000D01*
X23279801Y-20845619D01*
X23152420Y-20973000D01*
X21000000Y-20973000D01*
X20913131Y-20990279D01*
X20839487Y-21039487D01*
X20790279Y-21113131D01*
X20773000Y-21200000D01*
X20773000Y-21723001D01*
X20498704Y-21723001D01*
X20502000Y-21715044D01*
X20502000Y-21584956D01*
X20452217Y-21464770D01*
X20360230Y-21372783D01*
X20240044Y-21323000D01*
X20109956Y-21323000D01*
X20012817Y-21363237D01*
X19895199Y-21245619D01*
X19719881Y-21173000D01*
X19530119Y-21173000D01*
X19354801Y-21245619D01*
X19337500Y-21262920D01*
X19327000Y-21252420D01*
X19327000Y-21209956D01*
X19277217Y-21089770D01*
X19185230Y-20997783D01*
X19065044Y-20948000D01*
X18934956Y-20948000D01*
X18814770Y-20997783D01*
X18722783Y-21089770D01*
X18673000Y-21209956D01*
X18673000Y-21302420D01*
X18620619Y-21354801D01*
X18548000Y-21530119D01*
X18548000Y-21719881D01*
X18620619Y-21895199D01*
X18754801Y-22029381D01*
X18930119Y-22102000D01*
X19119881Y-22102000D01*
X19295199Y-22029381D01*
X19312500Y-22012080D01*
X19354801Y-22054381D01*
X19530119Y-22127000D01*
X19719881Y-22127000D01*
X19746635Y-22115918D01*
X19697783Y-22164770D01*
X19648000Y-22284956D01*
X19648000Y-22415044D01*
X19697783Y-22535230D01*
X19745119Y-22582566D01*
X19319655Y-23025049D01*
X19264770Y-23047783D01*
X19172783Y-23139770D01*
X19145112Y-23206573D01*
X19086371Y-23267664D01*
X19040279Y-23338131D01*
X19023000Y-23425000D01*
X19040279Y-23511869D01*
X19089487Y-23585513D01*
X19589487Y-24085513D01*
X19668030Y-24136684D01*
X19755278Y-24151939D01*
X19841722Y-24132644D01*
X19914202Y-24081738D01*
X20598001Y-23365378D01*
X20598001Y-23418261D01*
X20503412Y-23512850D01*
X20480285Y-23528303D01*
X20419062Y-23619929D01*
X20402990Y-23700730D01*
X20402990Y-23700733D01*
X20397565Y-23728008D01*
X20402990Y-23755283D01*
X20402991Y-24230273D01*
X20373422Y-24259842D01*
X20350295Y-24275295D01*
X20289072Y-24366921D01*
X20273000Y-24447722D01*
X20273000Y-24447725D01*
X20267575Y-24475000D01*
X20273000Y-24502275D01*
X20273001Y-25072720D01*
X20267575Y-25100000D01*
X20289072Y-25208079D01*
X20334602Y-25276217D01*
X20350296Y-25299705D01*
X20373420Y-25315157D01*
X20398000Y-25339736D01*
X20398000Y-25519881D01*
X20470619Y-25695199D01*
X20604801Y-25829381D01*
X20780119Y-25902000D01*
X20969881Y-25902000D01*
X21145199Y-25829381D01*
X21279381Y-25695199D01*
X21352000Y-25519881D01*
X21352000Y-25330119D01*
X21291016Y-25182890D01*
X21420199Y-25129381D01*
X21554381Y-24995199D01*
X21627000Y-24819881D01*
X21627000Y-24630119D01*
X21554381Y-24454801D01*
X21509669Y-24410089D01*
X21587850Y-24357850D01*
X21682225Y-24216607D01*
X21715365Y-24050000D01*
X21682225Y-23883393D01*
X21587850Y-23742150D01*
X21536784Y-23708029D01*
X21504381Y-23629801D01*
X21370199Y-23495619D01*
X21194881Y-23423000D01*
X21152000Y-23423000D01*
X21152000Y-23135447D01*
X21152217Y-23135230D01*
X21186692Y-23052000D01*
X22773000Y-23052000D01*
X22773001Y-23689552D01*
X22772783Y-23689770D01*
X22723000Y-23809956D01*
X22723000Y-23940044D01*
X22772783Y-24060230D01*
X22860553Y-24148000D01*
X22743696Y-24148000D01*
X22716421Y-24142575D01*
X22689146Y-24148000D01*
X22689142Y-24148000D01*
X22608341Y-24164072D01*
X22518196Y-24224306D01*
X22515044Y-24223000D01*
X22384956Y-24223000D01*
X22264770Y-24272783D01*
X22172783Y-24364770D01*
X22123000Y-24484956D01*
X22123000Y-24598663D01*
X22064770Y-24622783D01*
X21972783Y-24714770D01*
X21923000Y-24834956D01*
X21923000Y-24965044D01*
X21968546Y-25075000D01*
X21923000Y-25184956D01*
X21923000Y-25315044D01*
X21972783Y-25435230D01*
X22064770Y-25527217D01*
X22184956Y-25577000D01*
X22315044Y-25577000D01*
X22392733Y-25544820D01*
X22347783Y-25589770D01*
X22298000Y-25709956D01*
X22298000Y-25840044D01*
X22347783Y-25960230D01*
X22439770Y-26052217D01*
X22559956Y-26102000D01*
X22690044Y-26102000D01*
X22810230Y-26052217D01*
X22810447Y-26052000D01*
X23527408Y-26052000D01*
X23723407Y-26248000D01*
X19345272Y-26248000D01*
X19287328Y-26037953D01*
X19400000Y-26060365D01*
X19566607Y-26027224D01*
X19707849Y-25932849D01*
X19802224Y-25791607D01*
X19829411Y-25654934D01*
X19839784Y-25629892D01*
X19858027Y-25602589D01*
X19864433Y-25570382D01*
X19877000Y-25540044D01*
X19877000Y-25507206D01*
X19883406Y-25475001D01*
X19877000Y-25442796D01*
X19877000Y-25409956D01*
X19864433Y-25379616D01*
X19858027Y-25347412D01*
X19839784Y-25320110D01*
X19827217Y-25289770D01*
X19803995Y-25266548D01*
X19785753Y-25239247D01*
X19758451Y-25221004D01*
X19735230Y-25197783D01*
X19704890Y-25185216D01*
X19677588Y-25166973D01*
X19645384Y-25160567D01*
X19615044Y-25148000D01*
X19582204Y-25148000D01*
X19577001Y-25146965D01*
X19577001Y-25103053D01*
X19585366Y-25060999D01*
X19568797Y-24977698D01*
X19552226Y-24894392D01*
X19457851Y-24753149D01*
X19422197Y-24729326D01*
X19227001Y-24534131D01*
X19227001Y-24440606D01*
X19235366Y-24398553D01*
X19224745Y-24345160D01*
X19202226Y-24231947D01*
X19107851Y-24090704D01*
X19072194Y-24066879D01*
X18908369Y-23903054D01*
X18827000Y-23786819D01*
X18827000Y-23755119D01*
X18754381Y-23579801D01*
X18699766Y-23525186D01*
X18811365Y-23202790D01*
X18827000Y-23165044D01*
X18827000Y-23157622D01*
X18864512Y-23049254D01*
X18876856Y-22966928D01*
X18856499Y-22880729D01*
X18804704Y-22808881D01*
X18729357Y-22762323D01*
X18014369Y-22495537D01*
X18027000Y-22465044D01*
X18027000Y-22334956D01*
X17977217Y-22214770D01*
X17927000Y-22164553D01*
X17927000Y-22130119D01*
X17891949Y-22045498D01*
X17977217Y-21960230D01*
X18027000Y-21840044D01*
X18027000Y-21709956D01*
X17977217Y-21589770D01*
X17885230Y-21497783D01*
X17765044Y-21448000D01*
X17732700Y-21448000D01*
X17622000Y-21360688D01*
X17622000Y-19530119D01*
X17923000Y-19530119D01*
X17923000Y-19719881D01*
X17973000Y-19840592D01*
X17973000Y-19936500D01*
X17964635Y-19978553D01*
X17973000Y-20020606D01*
X17973000Y-20020607D01*
X17986325Y-20087594D01*
X17948000Y-20180119D01*
X17948000Y-20369881D01*
X18020619Y-20545199D01*
X18154801Y-20679381D01*
X18330119Y-20752000D01*
X18519881Y-20752000D01*
X18589226Y-20723276D01*
X18650000Y-20735365D01*
X18710112Y-20723408D01*
X18771170Y-20718163D01*
X18792756Y-20706969D01*
X18816607Y-20702225D01*
X18867566Y-20668175D01*
X18921971Y-20639963D01*
X18937630Y-20621360D01*
X18957850Y-20607850D01*
X18991899Y-20556891D01*
X19031366Y-20510006D01*
X19038715Y-20486826D01*
X19052225Y-20466606D01*
X19064181Y-20406498D01*
X19082702Y-20348078D01*
X19077000Y-20281702D01*
X19077000Y-20270605D01*
X19085365Y-20228552D01*
X19074750Y-20175186D01*
X19052225Y-20061946D01*
X18957850Y-19920703D01*
X18947529Y-19913807D01*
X18927217Y-19864770D01*
X18849271Y-19786824D01*
X18877000Y-19719881D01*
X18877000Y-19530119D01*
X18804381Y-19354801D01*
X18724580Y-19275000D01*
X19839635Y-19275000D01*
X19872775Y-19441607D01*
X19891128Y-19469074D01*
X19890599Y-19471040D01*
X19912584Y-19639482D01*
X19997355Y-19786689D01*
X20132007Y-19890251D01*
X20296040Y-19934401D01*
X20464482Y-19912416D01*
X20574532Y-19849043D01*
X20685438Y-19752000D01*
X21534408Y-19752000D01*
X21655119Y-19802000D01*
X21844881Y-19802000D01*
X22020199Y-19729381D01*
X22154381Y-19595199D01*
X22227000Y-19419881D01*
X22227000Y-19230119D01*
X22154381Y-19054801D01*
X22020199Y-18920619D01*
X21844881Y-18848000D01*
X21655119Y-18848000D01*
X21582635Y-18878024D01*
X21339136Y-18852392D01*
X21317054Y-18848000D01*
X21297409Y-18848000D01*
X21277877Y-18845944D01*
X21255463Y-18848000D01*
X20232946Y-18848000D01*
X20108393Y-18872775D01*
X19967150Y-18967150D01*
X19872775Y-19108393D01*
X19839635Y-19275000D01*
X18724580Y-19275000D01*
X18670199Y-19220619D01*
X18494881Y-19148000D01*
X18305119Y-19148000D01*
X18129801Y-19220619D01*
X17995619Y-19354801D01*
X17923000Y-19530119D01*
X17622000Y-19530119D01*
X17622000Y-17794737D01*
X17664737Y-17752001D01*
X18873000Y-17752001D01*
X18873000Y-18100000D01*
X18908489Y-18221871D01*
X18969705Y-18285882D01*
X19050757Y-18321594D01*
X19275757Y-18371594D01*
X19292326Y-18374636D01*
X19506159Y-18405739D01*
X19604801Y-18504381D01*
X19780119Y-18577000D01*
X19969881Y-18577000D01*
X20087500Y-18528281D01*
X20205119Y-18577000D01*
X20394881Y-18577000D01*
X20469912Y-18545921D01*
X20613932Y-18566870D01*
X20648131Y-18589721D01*
X20735000Y-18607000D01*
X23773000Y-18607000D01*
X23773000Y-18643730D01*
X23659801Y-18690619D01*
X23525619Y-18824801D01*
X23453000Y-19000119D01*
X23453000Y-19180264D01*
X23443420Y-19189843D01*
X23420296Y-19205295D01*
X23404844Y-19228420D01*
X23404843Y-19228421D01*
X23359072Y-19296921D01*
X23352469Y-19330119D01*
X23343000Y-19377721D01*
X23343000Y-19377725D01*
X23337575Y-19405000D01*
X23343000Y-19432275D01*
X23343000Y-19449553D01*
X23342783Y-19449770D01*
X23293000Y-19569956D01*
X23293000Y-19700044D01*
X23342783Y-19820230D01*
X23434770Y-19912217D01*
X23554956Y-19962000D01*
X23685044Y-19962000D01*
X23805230Y-19912217D01*
X23897217Y-19820230D01*
X23947000Y-19700044D01*
X23947000Y-19572000D01*
X24024881Y-19572000D01*
X24200199Y-19499381D01*
X24334381Y-19365199D01*
X24407000Y-19189881D01*
X24407000Y-19000119D01*
X24354375Y-18873072D01*
X24377217Y-18850230D01*
X24427000Y-18730044D01*
X24427000Y-18599956D01*
X24377217Y-18479770D01*
X24377000Y-18479553D01*
X24377000Y-17642273D01*
X24382425Y-17614999D01*
X24377000Y-17587725D01*
X24377000Y-17587721D01*
X24360928Y-17506920D01*
X24299705Y-17415295D01*
X24276578Y-17399842D01*
X24228736Y-17352000D01*
X25424751Y-17352000D01*
X25379801Y-17370619D01*
G04 #@! TO.N,+3V3*
G36*
X23823001Y-18253000D02*
X22543521Y-18253000D01*
X22434881Y-18208000D01*
X22245119Y-18208000D01*
X22136479Y-18253000D01*
X20864636Y-18253000D01*
X20874417Y-17777000D01*
X23823000Y-17777000D01*
X23823001Y-18253000D01*
X23823001Y-18253000D01*
G37*
X23823001Y-18253000D02*
X22543521Y-18253000D01*
X22434881Y-18208000D01*
X22245119Y-18208000D01*
X22136479Y-18253000D01*
X20864636Y-18253000D01*
X20874417Y-17777000D01*
X23823000Y-17777000D01*
X23823001Y-18253000D01*
G04 #@! TO.N,+1V2*
G36*
X21975000Y-21333406D02*
X22007205Y-21327000D01*
X23073000Y-21327000D01*
X23073000Y-21344881D01*
X23145619Y-21520199D01*
X23279801Y-21654381D01*
X23455119Y-21727000D01*
X23520550Y-21727000D01*
X23602001Y-21808451D01*
X23620245Y-21835755D01*
X23705370Y-21892633D01*
X23728410Y-21908028D01*
X23728425Y-21908031D01*
X23810197Y-21989803D01*
X23851399Y-22017333D01*
X23900000Y-22027000D01*
X23967795Y-22027000D01*
X24000000Y-22033406D01*
X24032205Y-22027000D01*
X24073000Y-22027000D01*
X24073000Y-22027420D01*
X23945619Y-22154801D01*
X23938081Y-22173000D01*
X23794946Y-22173000D01*
X23776183Y-22144920D01*
X23749706Y-22105294D01*
X23726578Y-22089840D01*
X23613722Y-21976984D01*
X23598268Y-21953856D01*
X23553934Y-21924232D01*
X23530779Y-21868332D01*
X23438792Y-21776345D01*
X23318606Y-21726562D01*
X23188518Y-21726562D01*
X23076407Y-21773000D01*
X23008856Y-21773000D01*
X22958081Y-21739073D01*
X22877280Y-21723001D01*
X22877276Y-21723001D01*
X22850001Y-21717576D01*
X22822726Y-21723001D01*
X21127000Y-21723001D01*
X21127000Y-21327000D01*
X21942795Y-21327000D01*
X21975000Y-21333406D01*
X21975000Y-21333406D01*
G37*
X21975000Y-21333406D02*
X22007205Y-21327000D01*
X23073000Y-21327000D01*
X23073000Y-21344881D01*
X23145619Y-21520199D01*
X23279801Y-21654381D01*
X23455119Y-21727000D01*
X23520550Y-21727000D01*
X23602001Y-21808451D01*
X23620245Y-21835755D01*
X23705370Y-21892633D01*
X23728410Y-21908028D01*
X23728425Y-21908031D01*
X23810197Y-21989803D01*
X23851399Y-22017333D01*
X23900000Y-22027000D01*
X23967795Y-22027000D01*
X24000000Y-22033406D01*
X24032205Y-22027000D01*
X24073000Y-22027000D01*
X24073000Y-22027420D01*
X23945619Y-22154801D01*
X23938081Y-22173000D01*
X23794946Y-22173000D01*
X23776183Y-22144920D01*
X23749706Y-22105294D01*
X23726578Y-22089840D01*
X23613722Y-21976984D01*
X23598268Y-21953856D01*
X23553934Y-21924232D01*
X23530779Y-21868332D01*
X23438792Y-21776345D01*
X23318606Y-21726562D01*
X23188518Y-21726562D01*
X23076407Y-21773000D01*
X23008856Y-21773000D01*
X22958081Y-21739073D01*
X22877280Y-21723001D01*
X22877276Y-21723001D01*
X22850001Y-21717576D01*
X22822726Y-21723001D01*
X21127000Y-21723001D01*
X21127000Y-21327000D01*
X21942795Y-21327000D01*
X21975000Y-21333406D01*
G04 #@! TO.N,+3V3*
G36*
X22772999Y-22314736D02*
X22773000Y-22698000D01*
X21085447Y-22698000D01*
X21060230Y-22672783D01*
X20940044Y-22623000D01*
X20809956Y-22623000D01*
X20689770Y-22672783D01*
X20597783Y-22764770D01*
X20548000Y-22884956D01*
X20548000Y-22905069D01*
X20105639Y-23368495D01*
X19979801Y-23420619D01*
X19845619Y-23554801D01*
X19782619Y-23706898D01*
X19747888Y-23743282D01*
X19427862Y-23423256D01*
X20530031Y-22277001D01*
X22735265Y-22277001D01*
X22772999Y-22314736D01*
X22772999Y-22314736D01*
G37*
X22772999Y-22314736D02*
X22773000Y-22698000D01*
X21085447Y-22698000D01*
X21060230Y-22672783D01*
X20940044Y-22623000D01*
X20809956Y-22623000D01*
X20689770Y-22672783D01*
X20597783Y-22764770D01*
X20548000Y-22884956D01*
X20548000Y-22905069D01*
X20105639Y-23368495D01*
X19979801Y-23420619D01*
X19845619Y-23554801D01*
X19782619Y-23706898D01*
X19747888Y-23743282D01*
X19427862Y-23423256D01*
X20530031Y-22277001D01*
X22735265Y-22277001D01*
X22772999Y-22314736D01*
G04 #@! TO.N,+5V*
G36*
X17179801Y-22629381D02*
X17355119Y-22702000D01*
X17544881Y-22702000D01*
X17549713Y-22699999D01*
X18489425Y-23050637D01*
X18377838Y-23373000D01*
X18255119Y-23373000D01*
X18079801Y-23445619D01*
X17945619Y-23579801D01*
X17873000Y-23755119D01*
X17873000Y-23944881D01*
X17945619Y-24120199D01*
X18079801Y-24254381D01*
X18124944Y-24273080D01*
X18227545Y-24419645D01*
X18248329Y-24450750D01*
X18251633Y-24454054D01*
X18254312Y-24457881D01*
X18281333Y-24483754D01*
X18373001Y-24575422D01*
X18373001Y-24668946D01*
X18364636Y-24710999D01*
X18373001Y-24753052D01*
X18373001Y-24753053D01*
X18397777Y-24877606D01*
X18492152Y-25018849D01*
X18527806Y-25042672D01*
X18690398Y-25205265D01*
X18723001Y-25323449D01*
X18723001Y-25332948D01*
X18714636Y-25375001D01*
X18723001Y-25417054D01*
X18723001Y-25417055D01*
X18747777Y-25541608D01*
X18808079Y-25631857D01*
X19005636Y-26348000D01*
X17539969Y-26348000D01*
X17392966Y-26318760D01*
X17281033Y-26243967D01*
X17206240Y-26132034D01*
X17177000Y-25985031D01*
X17177000Y-22626580D01*
X17179801Y-22629381D01*
X17179801Y-22629381D01*
G37*
X17179801Y-22629381D02*
X17355119Y-22702000D01*
X17544881Y-22702000D01*
X17549713Y-22699999D01*
X18489425Y-23050637D01*
X18377838Y-23373000D01*
X18255119Y-23373000D01*
X18079801Y-23445619D01*
X17945619Y-23579801D01*
X17873000Y-23755119D01*
X17873000Y-23944881D01*
X17945619Y-24120199D01*
X18079801Y-24254381D01*
X18124944Y-24273080D01*
X18227545Y-24419645D01*
X18248329Y-24450750D01*
X18251633Y-24454054D01*
X18254312Y-24457881D01*
X18281333Y-24483754D01*
X18373001Y-24575422D01*
X18373001Y-24668946D01*
X18364636Y-24710999D01*
X18373001Y-24753052D01*
X18373001Y-24753053D01*
X18397777Y-24877606D01*
X18492152Y-25018849D01*
X18527806Y-25042672D01*
X18690398Y-25205265D01*
X18723001Y-25323449D01*
X18723001Y-25332948D01*
X18714636Y-25375001D01*
X18723001Y-25417054D01*
X18723001Y-25417055D01*
X18747777Y-25541608D01*
X18808079Y-25631857D01*
X19005636Y-26348000D01*
X17539969Y-26348000D01*
X17392966Y-26318760D01*
X17281033Y-26243967D01*
X17206240Y-26132034D01*
X17177000Y-25985031D01*
X17177000Y-22626580D01*
X17179801Y-22629381D01*
G04 #@! TO.N,+1V2*
G36*
X20511768Y-18194285D02*
X19490015Y-18045666D01*
X19477217Y-18014770D01*
X19385230Y-17922783D01*
X19283853Y-17880791D01*
X19277217Y-17864770D01*
X19227000Y-17814553D01*
X19227000Y-17752001D01*
X20520856Y-17752001D01*
X20511768Y-18194285D01*
X20511768Y-18194285D01*
G37*
X20511768Y-18194285D02*
X19490015Y-18045666D01*
X19477217Y-18014770D01*
X19385230Y-17922783D01*
X19283853Y-17880791D01*
X19277217Y-17864770D01*
X19227000Y-17814553D01*
X19227000Y-17752001D01*
X20520856Y-17752001D01*
X20511768Y-18194285D01*
G04 #@! TO.N,+3V3*
G36*
X24737421Y-23778187D02*
X24774960Y-23810534D01*
X24837500Y-23827000D01*
X25639553Y-23827000D01*
X25698000Y-23885447D01*
X25698000Y-24206272D01*
X25690151Y-24198423D01*
X25674697Y-24175295D01*
X25583072Y-24114072D01*
X25502271Y-24098000D01*
X25502267Y-24098000D01*
X25474992Y-24092575D01*
X25447717Y-24098000D01*
X24552275Y-24098000D01*
X24525000Y-24092575D01*
X24497725Y-24098000D01*
X24497721Y-24098000D01*
X24416920Y-24114072D01*
X24395489Y-24128392D01*
X24348421Y-24159842D01*
X24348420Y-24159843D01*
X24328731Y-24172999D01*
X24077001Y-24172999D01*
X24077001Y-24082274D01*
X24082426Y-24054999D01*
X24077001Y-24027724D01*
X24077001Y-24027720D01*
X24060929Y-23946919D01*
X24027010Y-23896157D01*
X24027010Y-23427000D01*
X24463056Y-23427000D01*
X24737421Y-23778187D01*
X24737421Y-23778187D01*
G37*
X24737421Y-23778187D02*
X24774960Y-23810534D01*
X24837500Y-23827000D01*
X25639553Y-23827000D01*
X25698000Y-23885447D01*
X25698000Y-24206272D01*
X25690151Y-24198423D01*
X25674697Y-24175295D01*
X25583072Y-24114072D01*
X25502271Y-24098000D01*
X25502267Y-24098000D01*
X25474992Y-24092575D01*
X25447717Y-24098000D01*
X24552275Y-24098000D01*
X24525000Y-24092575D01*
X24497725Y-24098000D01*
X24497721Y-24098000D01*
X24416920Y-24114072D01*
X24395489Y-24128392D01*
X24348421Y-24159842D01*
X24348420Y-24159843D01*
X24328731Y-24172999D01*
X24077001Y-24172999D01*
X24077001Y-24082274D01*
X24082426Y-24054999D01*
X24077001Y-24027724D01*
X24077001Y-24027720D01*
X24060929Y-23946919D01*
X24027010Y-23896157D01*
X24027010Y-23427000D01*
X24463056Y-23427000D01*
X24737421Y-23778187D01*
G04 #@! TD*
M02*
