M48
;DRILL file {KiCad (5.0.1)-4} date 12/11/18 15:37:36
;FORMAT={-:-/ absolute / inch / decimal}
FMAT,2
INCH,TZ
T1C0.0039
%
G90
G05
M72
T1
X0.685Y-0.9813
X0.685Y-0.997
X0.7008Y-0.9813
X0.7008Y-0.997
X0.7008Y-1.0128
X0.7165Y-0.9813
X0.7165Y-0.997
X0.7165Y-1.0266
X0.7323Y-1.0266
X0.7559Y-0.872
X0.7667Y-0.8337
X0.8504Y-0.7323
X0.8514Y-0.7234
X0.8602Y-0.7323
X0.8868Y-0.7283
X0.8917Y-0.7333
X0.8996Y-0.7313
X0.9085Y-0.7303
X0.9183Y-0.7303
X0.9307Y-0.7352
X0.9478Y-0.7323
X0.9567Y-0.7313
X0.9882Y-0.7293
X0.9951Y-0.7323
X1.0906Y-0.7904
X1.1043Y-0.7264
X1.1476Y-0.9242
X1.1614Y-0.9813
T0
M30
