M48
;DRILL file {KiCad (5.0.1)-4} date 12/11/18 15:37:36
;FORMAT={-:-/ absolute / inch / decimal}
FMAT,2
INCH,TZ
T1C0.0039
%
G90
G05
M72
T1
X0.6791Y-1.0187
X0.6811Y-0.9833
X0.6811Y-0.9911
X0.6811Y-1.001
X0.6811Y-1.0089
X0.6831Y-1.0305
X0.685Y-1.0187
X0.687Y-0.9035
X0.688Y-0.9252
X0.6945Y-0.7065
X0.6949Y-0.7825
X0.6969Y-0.8573
X0.6969Y-0.8819
X0.7008Y-0.7933
X0.7043Y-0.7033
X0.7047Y-0.9823
X0.7156Y-0.9744
X0.7165Y-1.0285
X0.7224Y-0.9134
X0.7228Y-0.9203
X0.7264Y-0.7874
X0.7264Y-0.823
X0.7268Y-0.9482
X0.7283Y-0.9094
X0.7303Y-1.0295
X0.7343Y-0.7894
X0.7402Y-0.7165
X0.7421Y-0.7766
X0.748Y-0.7106
X0.748Y-0.7264
X0.748Y-0.7677
X0.748Y-0.7854
X0.748Y-0.8376
X0.7539Y-0.9331
X0.7559Y-0.7165
X0.7559Y-0.7756
X0.7579Y-0.9488
X0.7598Y-0.7913
X0.7618Y-0.7323
X0.7618Y-0.9429
X0.7622Y-0.7022
X0.7638Y-1.0089
X0.7657Y-0.7874
X0.7657Y-0.9183
X0.7657Y-0.9242
X0.7677Y-0.7264
X0.7677Y-0.9488
X0.7689Y-0.7053
X0.7697Y-1.003
X0.7717Y-0.7913
X0.7864Y-0.8799
X0.7884Y-0.9439
X0.7894Y-1.0049
X0.7904Y-0.7018
X0.7933Y-1.0167
X0.7943Y-0.8524
X0.7953Y-0.7835
X0.7953Y-0.9104
X0.7953Y-1.0295
X0.7972Y-0.9459
X0.7982Y-0.7589
X0.8002Y-0.7677
X0.8012Y-0.7913
X0.8031Y-0.8898
X0.8041Y-0.6998
X0.8051Y-0.8848
X0.8051Y-1.0157
X0.8091Y-1.0295
X0.8189Y-0.9754
X0.8189Y-0.9833
X0.8219Y-0.9035
X0.8238Y-1.0295
X0.828Y-0.9469
X0.8307Y-0.7008
X0.8315Y-0.7167
X0.8378Y-0.9469
X0.8396Y-1.0295
X0.8425Y-0.7159
X0.8494Y-0.7037
X0.8524Y-1.0295
X0.8535Y-0.8258
X0.8638Y-1.025
X0.8652Y-0.8268
X0.8661Y-0.8425
X0.8681Y-0.8829
X0.872Y-1.0217
X0.874Y-0.8258
X0.874Y-0.8425
X0.874Y-0.878
X0.874Y-0.9094
X0.876Y-0.9803
X0.876Y-0.9941
X0.8795Y-1.025
X0.8831Y-0.7951
X0.8839Y-0.9665
X0.8878Y-0.7738
X0.8898Y-0.8238
X0.8898Y-0.877
X0.8907Y-1.0148
X0.8917Y-0.7888
X0.8917Y-1.0266
X0.8937Y-0.8425
X0.8937Y-0.9104
X0.8957Y-0.8829
X0.9016Y-0.8238
X0.9016Y-0.8425
X0.9024Y-0.7726
X0.9075Y-0.94
X0.9079Y-0.7931
X0.9085Y-1.0266
X0.9155Y-0.8683
X0.9173Y-0.8829
X0.9173Y-0.8986
X0.9272Y-0.9518
X0.9299Y-0.773
X0.9303Y-0.6986
X0.9386Y-0.7037
X0.9419Y-0.9724
X0.9449Y-0.8386
X0.9449Y-0.8543
X0.9449Y-0.8701
X0.9449Y-0.8858
X0.9488Y-0.7348
X0.9587Y-0.7077
X0.9606Y-0.8228
X0.9606Y-0.8543
X0.9606Y-0.9016
X0.9626Y-0.7028
X0.9646Y-0.9793
X0.9763Y-0.8385
X0.9764Y-0.8543
X0.9764Y-0.8701
X0.9764Y-0.8858
X0.9852Y-0.9419
X0.9882Y-0.8104
X0.9882Y-0.9488
X0.9931Y-0.9409
X0.9937Y-0.7667
X0.9941Y-0.7014
X1.0091Y-0.7222
X1.0197Y-0.9301
X1.0209Y-0.9167
X1.0211Y-1.0125
X1.0246Y-0.8465
X1.0256Y-0.94
X1.0266Y-0.9577
X1.0276Y-0.7856
X1.0276Y-0.9665
X1.0283Y-0.7722
X1.0311Y-0.7789
X1.0344Y-0.8514
X1.0394Y-0.6959
X1.0472Y-0.7421
X1.0472Y-0.7717
X1.0516Y-0.797
X1.0522Y-0.937
X1.0571Y-0.75
X1.0571Y-0.8071
X1.0591Y-0.7776
X1.0591Y-0.998
X1.0787Y-0.7018
X1.0787Y-0.9518
X1.1014Y-0.7224
X1.1063Y-0.7982
X1.115Y-0.9986
X1.122Y-0.9301
T0
M30
