G04 #@! TF.GenerationSoftware,KiCad,Pcbnew,(5.0.1)-3*
G04 #@! TF.CreationDate,2019-03-22T12:18:07+08:00*
G04 #@! TF.ProjectId,tomu-fpga,746F6D752D667067612E6B696361645F,rev?*
G04 #@! TF.SameCoordinates,Original*
G04 #@! TF.FileFunction,Other,Fab,Bot*
%FSLAX45Y45*%
G04 Gerber Fmt 4.5, Leading zero omitted, Abs format (unit mm)*
G04 Created by KiCad (PCBNEW (5.0.1)-3) date 03/22/19 12:18:07*
%MOMM*%
%LPD*%
G01*
G04 APERTURE LIST*
%ADD10C,0.050000*%
%ADD11C,0.100000*%
%ADD12C,0.025000*%
%ADD13C,0.125000*%
%ADD14C,0.062500*%
%ADD15C,0.031750*%
%ADD16C,0.040000*%
%ADD17C,0.150000*%
G04 APERTURE END LIST*
D10*
G04 #@! TO.C,U7*
X2322500Y-1744000D02*
X2087500Y-1744000D01*
X2322500Y-2029000D02*
X2322500Y-1744000D01*
X2087500Y-2029000D02*
X2322500Y-2029000D01*
X2087500Y-1746500D02*
X2087500Y-2029000D01*
G04 #@! TO.C,U10*
X2699500Y-2240500D02*
X2699500Y-2135500D01*
X2699500Y-2135500D02*
X2594500Y-2135500D01*
X2594500Y-2135500D02*
X2594500Y-2240500D01*
X2594500Y-2240500D02*
X2699500Y-2240500D01*
G04 #@! TO.C,U5*
X2340000Y-2305000D02*
X2540000Y-2305000D01*
X2540000Y-2305000D02*
X2540000Y-2070000D01*
X2540000Y-2070000D02*
X2340000Y-2070000D01*
X2340000Y-2070000D02*
X2340000Y-2305000D01*
D11*
G04 #@! TO.C,C22*
X2005000Y-2496000D02*
X2005000Y-2596000D01*
X2055000Y-2496000D02*
X2005000Y-2496000D01*
X2055000Y-2596000D02*
X2055000Y-2496000D01*
X2005000Y-2596000D02*
X2055000Y-2596000D01*
G04 #@! TO.C,C23*
X1860000Y-2545000D02*
X1890000Y-2545000D01*
X1890000Y-2545000D02*
X1890000Y-2485000D01*
X1890000Y-2485000D02*
X1860000Y-2485000D01*
X1860000Y-2485000D02*
X1860000Y-2545000D01*
G04 #@! TO.C,R10*
X1930000Y-2545500D02*
X1960000Y-2545500D01*
X1960000Y-2545500D02*
X1960000Y-2485500D01*
X1960000Y-2485500D02*
X1930000Y-2485500D01*
X1930000Y-2485500D02*
X1930000Y-2545500D01*
D10*
G04 #@! TO.C,D5*
X1877500Y-2625000D02*
X1932500Y-2625000D01*
X1932500Y-2625000D02*
X1932500Y-2600000D01*
X1932500Y-2600000D02*
X1877500Y-2600000D01*
X1877500Y-2600000D02*
X1877500Y-2625000D01*
G04 #@! TO.C,U4*
X2442500Y-2592500D02*
X2442500Y-2392500D01*
X2142500Y-2592500D02*
X2442500Y-2592500D01*
X2142500Y-2392500D02*
X2142500Y-2592500D01*
X2442500Y-2392500D02*
X2142500Y-2392500D01*
D11*
G04 #@! TO.C,D6*
X2061500Y-2169000D02*
X2061500Y-2201000D01*
X2123500Y-2169000D02*
X2061500Y-2169000D01*
X2123500Y-2201000D02*
X2123500Y-2169000D01*
X2061500Y-2201000D02*
X2123500Y-2201000D01*
G04 #@! TO.C,D7*
X1903500Y-2113500D02*
X1903500Y-2081500D01*
X1841500Y-2113500D02*
X1903500Y-2113500D01*
X1841500Y-2081500D02*
X1841500Y-2113500D01*
X1903500Y-2081500D02*
X1841500Y-2081500D01*
G04 #@! TO.C,D1*
X2728500Y-2451000D02*
X2728500Y-2419000D01*
X2666500Y-2451000D02*
X2728500Y-2451000D01*
X2666500Y-2419000D02*
X2666500Y-2451000D01*
X2728500Y-2419000D02*
X2666500Y-2419000D01*
G04 #@! TO.C,D2*
X2706000Y-2286500D02*
X2674000Y-2286500D01*
X2706000Y-2348500D02*
X2706000Y-2286500D01*
X2674000Y-2348500D02*
X2706000Y-2348500D01*
X2674000Y-2286500D02*
X2674000Y-2348500D01*
G04 #@! TO.C,D3*
X2591500Y-1876500D02*
X2591500Y-1908500D01*
X2653500Y-1876500D02*
X2591500Y-1876500D01*
X2653500Y-1908500D02*
X2653500Y-1876500D01*
X2591500Y-1908500D02*
X2653500Y-1908500D01*
G04 #@! TO.C,D4*
X2716500Y-2066000D02*
X2748500Y-2066000D01*
X2716500Y-2004000D02*
X2716500Y-2066000D01*
X2748500Y-2004000D02*
X2716500Y-2004000D01*
X2748500Y-2066000D02*
X2748500Y-2004000D01*
G04 #@! TO.C,U3*
X1850000Y-1920000D02*
X1850000Y-2020000D01*
X1925000Y-1920000D02*
X1850000Y-1920000D01*
X1950000Y-1945000D02*
X1925000Y-1920000D01*
X1950000Y-2020000D02*
X1950000Y-1945000D01*
X1850000Y-2020000D02*
X1950000Y-2020000D01*
G04 #@! TO.C,C28*
X2580000Y-2435000D02*
X2580000Y-2405000D01*
X2580000Y-2405000D02*
X2520000Y-2405000D01*
X2520000Y-2405000D02*
X2520000Y-2435000D01*
X2520000Y-2435000D02*
X2580000Y-2435000D01*
G04 #@! TO.C,U2*
X1840000Y-2320000D02*
X1840000Y-2420000D01*
X1915000Y-2320000D02*
X1840000Y-2320000D01*
X1940000Y-2345000D02*
X1915000Y-2320000D01*
X1940000Y-2420000D02*
X1940000Y-2345000D01*
X1840000Y-2420000D02*
X1940000Y-2420000D01*
G04 #@! TO.C,C1*
X1759000Y-1848500D02*
X1789000Y-1848500D01*
X1789000Y-1848500D02*
X1789000Y-1788500D01*
X1789000Y-1788500D02*
X1759000Y-1788500D01*
X1759000Y-1788500D02*
X1759000Y-1848500D01*
G04 #@! TO.C,C11*
X2441000Y-1789500D02*
X2441000Y-1759500D01*
X2441000Y-1759500D02*
X2381000Y-1759500D01*
X2381000Y-1759500D02*
X2381000Y-1789500D01*
X2381000Y-1789500D02*
X2441000Y-1789500D01*
G04 #@! TO.C,C17*
X2195000Y-2152500D02*
X2225000Y-2152500D01*
X2225000Y-2152500D02*
X2225000Y-2092500D01*
X2225000Y-2092500D02*
X2195000Y-2092500D01*
X2195000Y-2092500D02*
X2195000Y-2152500D01*
G04 #@! TO.C,C20*
X2265000Y-2152500D02*
X2295000Y-2152500D01*
X2295000Y-2152500D02*
X2295000Y-2092500D01*
X2295000Y-2092500D02*
X2265000Y-2092500D01*
X2265000Y-2092500D02*
X2265000Y-2152500D01*
G04 #@! TO.C,C21*
X2600000Y-2017500D02*
X2600000Y-2047500D01*
X2600000Y-2047500D02*
X2660000Y-2047500D01*
X2660000Y-2047500D02*
X2660000Y-2017500D01*
X2660000Y-2017500D02*
X2600000Y-2017500D01*
G04 #@! TO.C,C24*
X2580000Y-2505000D02*
X2580000Y-2475000D01*
X2580000Y-2475000D02*
X2520000Y-2475000D01*
X2520000Y-2475000D02*
X2520000Y-2505000D01*
X2520000Y-2505000D02*
X2580000Y-2505000D01*
G04 #@! TO.C,C25*
X2600000Y-1947500D02*
X2600000Y-1977500D01*
X2600000Y-1977500D02*
X2660000Y-1977500D01*
X2660000Y-1977500D02*
X2660000Y-1947500D01*
X2660000Y-1947500D02*
X2600000Y-1947500D01*
G04 #@! TO.C,C2*
X1820000Y-2485000D02*
X1790000Y-2485000D01*
X1790000Y-2485000D02*
X1790000Y-2545000D01*
X1790000Y-2545000D02*
X1820000Y-2545000D01*
X1820000Y-2545000D02*
X1820000Y-2485000D01*
G04 #@! TO.C,C3*
X1789000Y-1939500D02*
X1759000Y-1939500D01*
X1759000Y-1939500D02*
X1759000Y-1999500D01*
X1759000Y-1999500D02*
X1789000Y-1999500D01*
X1789000Y-1999500D02*
X1789000Y-1939500D01*
G04 #@! TO.C,C4*
X2065000Y-2239500D02*
X2065000Y-2269500D01*
X2065000Y-2269500D02*
X2125000Y-2269500D01*
X2125000Y-2269500D02*
X2125000Y-2239500D01*
X2125000Y-2239500D02*
X2065000Y-2239500D01*
G04 #@! TO.C,C5*
X2225000Y-2232500D02*
X2195000Y-2232500D01*
X2195000Y-2232500D02*
X2195000Y-2292500D01*
X2195000Y-2292500D02*
X2225000Y-2292500D01*
X2225000Y-2292500D02*
X2225000Y-2232500D01*
G04 #@! TO.C,C7*
X2295000Y-2232500D02*
X2265000Y-2232500D01*
X2265000Y-2232500D02*
X2265000Y-2292500D01*
X2265000Y-2292500D02*
X2295000Y-2292500D01*
X2295000Y-2292500D02*
X2295000Y-2232500D01*
G04 #@! TO.C,C8*
X2041000Y-1790500D02*
X2011000Y-1790500D01*
X2011000Y-1790500D02*
X2011000Y-1850500D01*
X2011000Y-1850500D02*
X2041000Y-1850500D01*
X2041000Y-1850500D02*
X2041000Y-1790500D01*
G04 #@! TO.C,C9*
X2030000Y-2329500D02*
X2000000Y-2329500D01*
X2000000Y-2329500D02*
X2000000Y-2389500D01*
X2000000Y-2389500D02*
X2030000Y-2389500D01*
X2030000Y-2389500D02*
X2030000Y-2329500D01*
G04 #@! TO.C,C10*
X2041000Y-1938000D02*
X2011000Y-1938000D01*
X2011000Y-1938000D02*
X2011000Y-1998000D01*
X2011000Y-1998000D02*
X2041000Y-1998000D01*
X2041000Y-1998000D02*
X2041000Y-1938000D01*
G04 #@! TO.C,R11*
X1835000Y-2250000D02*
X1865000Y-2250000D01*
X1865000Y-2250000D02*
X1865000Y-2190000D01*
X1865000Y-2190000D02*
X1835000Y-2190000D01*
X1835000Y-2190000D02*
X1835000Y-2250000D01*
G04 #@! TO.C,R1*
X1795000Y-2190000D02*
X1765000Y-2190000D01*
X1765000Y-2190000D02*
X1765000Y-2250000D01*
X1765000Y-2250000D02*
X1795000Y-2250000D01*
X1795000Y-2250000D02*
X1795000Y-2190000D01*
G04 #@! TO.C,R5*
X2580000Y-2575000D02*
X2580000Y-2545000D01*
X2580000Y-2545000D02*
X2520000Y-2545000D01*
X2520000Y-2545000D02*
X2520000Y-2575000D01*
X2520000Y-2575000D02*
X2580000Y-2575000D01*
G04 #@! TO.C,R12*
X1905000Y-2250000D02*
X1935000Y-2250000D01*
X1935000Y-2250000D02*
X1935000Y-2190000D01*
X1935000Y-2190000D02*
X1905000Y-2190000D01*
X1905000Y-2190000D02*
X1905000Y-2250000D01*
G04 #@! TO.C,R9*
X1975000Y-2250000D02*
X2005000Y-2250000D01*
X2005000Y-2250000D02*
X2005000Y-2190000D01*
X2005000Y-2190000D02*
X1975000Y-2190000D01*
X1975000Y-2190000D02*
X1975000Y-2250000D01*
G04 #@! TO.C,U1*
X1850000Y-1770000D02*
X1850000Y-1870000D01*
X1925000Y-1770000D02*
X1850000Y-1770000D01*
X1950000Y-1795000D02*
X1925000Y-1770000D01*
X1950000Y-1870000D02*
X1950000Y-1795000D01*
X1850000Y-1870000D02*
X1950000Y-1870000D01*
G04 #@! TD*
G04 #@! TO.C,U7*
D12*
X2346071Y-1826143D02*
X2346548Y-1825667D01*
X2347024Y-1824238D01*
X2347024Y-1823286D01*
X2346548Y-1821857D01*
X2345595Y-1820905D01*
X2344643Y-1820428D01*
X2342738Y-1819952D01*
X2341310Y-1819952D01*
X2339405Y-1820428D01*
X2338452Y-1820905D01*
X2337500Y-1821857D01*
X2337024Y-1823286D01*
X2337024Y-1824238D01*
X2337500Y-1825667D01*
X2337976Y-1826143D01*
X2347024Y-1830428D02*
X2340357Y-1830428D01*
X2342262Y-1830428D02*
X2341310Y-1830905D01*
X2340833Y-1831381D01*
X2340357Y-1832333D01*
X2340357Y-1833286D01*
X2340357Y-1835667D02*
X2347024Y-1838048D01*
X2340357Y-1840428D02*
X2347024Y-1838048D01*
X2349405Y-1837095D01*
X2349881Y-1836619D01*
X2350357Y-1835667D01*
X2346548Y-1843762D02*
X2347024Y-1844714D01*
X2347024Y-1846619D01*
X2346548Y-1847571D01*
X2345595Y-1848048D01*
X2345119Y-1848048D01*
X2344167Y-1847571D01*
X2343690Y-1846619D01*
X2343690Y-1845190D01*
X2343214Y-1844238D01*
X2342262Y-1843762D01*
X2341786Y-1843762D01*
X2340833Y-1844238D01*
X2340357Y-1845190D01*
X2340357Y-1846619D01*
X2340833Y-1847571D01*
X2340357Y-1850905D02*
X2340357Y-1854714D01*
X2337024Y-1852333D02*
X2345595Y-1852333D01*
X2346548Y-1852809D01*
X2347024Y-1853762D01*
X2347024Y-1854714D01*
X2347024Y-1862333D02*
X2341786Y-1862333D01*
X2340833Y-1861857D01*
X2340357Y-1860905D01*
X2340357Y-1859000D01*
X2340833Y-1858048D01*
X2346548Y-1862333D02*
X2347024Y-1861381D01*
X2347024Y-1859000D01*
X2346548Y-1858048D01*
X2345595Y-1857571D01*
X2344643Y-1857571D01*
X2343690Y-1858048D01*
X2343214Y-1859000D01*
X2343214Y-1861381D01*
X2342738Y-1862333D01*
X2347024Y-1868524D02*
X2346548Y-1867571D01*
X2345595Y-1867095D01*
X2337024Y-1867095D01*
X2337024Y-1881857D02*
X2337024Y-1883762D01*
X2337500Y-1884714D01*
X2338452Y-1885667D01*
X2340357Y-1886143D01*
X2343690Y-1886143D01*
X2345595Y-1885667D01*
X2346548Y-1884714D01*
X2347024Y-1883762D01*
X2347024Y-1881857D01*
X2346548Y-1880905D01*
X2345595Y-1879952D01*
X2343690Y-1879476D01*
X2340357Y-1879476D01*
X2338452Y-1879952D01*
X2337500Y-1880905D01*
X2337024Y-1881857D01*
X2346548Y-1889952D02*
X2347024Y-1890905D01*
X2347024Y-1892809D01*
X2346548Y-1893762D01*
X2345595Y-1894238D01*
X2345119Y-1894238D01*
X2344167Y-1893762D01*
X2343690Y-1892809D01*
X2343690Y-1891381D01*
X2343214Y-1890428D01*
X2342262Y-1889952D01*
X2341786Y-1889952D01*
X2340833Y-1890428D01*
X2340357Y-1891381D01*
X2340357Y-1892809D01*
X2340833Y-1893762D01*
X2346548Y-1902809D02*
X2347024Y-1901857D01*
X2347024Y-1899952D01*
X2346548Y-1899000D01*
X2346071Y-1898524D01*
X2345119Y-1898048D01*
X2342262Y-1898048D01*
X2341310Y-1898524D01*
X2340833Y-1899000D01*
X2340357Y-1899952D01*
X2340357Y-1901857D01*
X2340833Y-1902809D01*
X2347024Y-1907095D02*
X2340357Y-1907095D01*
X2337024Y-1907095D02*
X2337500Y-1906619D01*
X2337976Y-1907095D01*
X2337500Y-1907571D01*
X2337024Y-1907095D01*
X2337976Y-1907095D01*
X2347024Y-1913286D02*
X2346548Y-1912333D01*
X2345595Y-1911857D01*
X2337024Y-1911857D01*
X2347024Y-1918524D02*
X2346548Y-1917571D01*
X2345595Y-1917095D01*
X2337024Y-1917095D01*
X2347024Y-1926619D02*
X2341786Y-1926619D01*
X2340833Y-1926143D01*
X2340357Y-1925190D01*
X2340357Y-1923286D01*
X2340833Y-1922333D01*
X2346548Y-1926619D02*
X2347024Y-1925667D01*
X2347024Y-1923286D01*
X2346548Y-1922333D01*
X2345595Y-1921857D01*
X2344643Y-1921857D01*
X2343690Y-1922333D01*
X2343214Y-1923286D01*
X2343214Y-1925667D01*
X2342738Y-1926619D01*
X2340357Y-1929952D02*
X2340357Y-1933762D01*
X2337024Y-1931381D02*
X2345595Y-1931381D01*
X2346548Y-1931857D01*
X2347024Y-1932809D01*
X2347024Y-1933762D01*
X2347024Y-1938524D02*
X2346548Y-1937571D01*
X2346071Y-1937095D01*
X2345119Y-1936619D01*
X2342262Y-1936619D01*
X2341310Y-1937095D01*
X2340833Y-1937571D01*
X2340357Y-1938524D01*
X2340357Y-1939952D01*
X2340833Y-1940905D01*
X2341310Y-1941381D01*
X2342262Y-1941857D01*
X2345119Y-1941857D01*
X2346071Y-1941381D01*
X2346548Y-1940905D01*
X2347024Y-1939952D01*
X2347024Y-1938524D01*
X2347024Y-1946143D02*
X2340357Y-1946143D01*
X2342262Y-1946143D02*
X2341310Y-1946619D01*
X2340833Y-1947095D01*
X2340357Y-1948048D01*
X2340357Y-1949000D01*
D13*
X2185119Y-1850905D02*
X2225595Y-1850905D01*
X2230357Y-1853286D01*
X2232738Y-1855667D01*
X2235119Y-1860428D01*
X2235119Y-1869952D01*
X2232738Y-1874714D01*
X2230357Y-1877095D01*
X2225595Y-1879476D01*
X2185119Y-1879476D01*
X2185119Y-1898524D02*
X2185119Y-1931857D01*
X2235119Y-1910428D01*
G04 #@! TO.C,U10*
D12*
X2721524Y-2151333D02*
X2716762Y-2148000D01*
X2721524Y-2145619D02*
X2711524Y-2145619D01*
X2711524Y-2149429D01*
X2712000Y-2150381D01*
X2712476Y-2150857D01*
X2713429Y-2151333D01*
X2714857Y-2151333D01*
X2715810Y-2150857D01*
X2716286Y-2150381D01*
X2716762Y-2149429D01*
X2716762Y-2145619D01*
X2712000Y-2160857D02*
X2711524Y-2159905D01*
X2711524Y-2158476D01*
X2712000Y-2157048D01*
X2712952Y-2156095D01*
X2713905Y-2155619D01*
X2715810Y-2155143D01*
X2717238Y-2155143D01*
X2719143Y-2155619D01*
X2720095Y-2156095D01*
X2721048Y-2157048D01*
X2721524Y-2158476D01*
X2721524Y-2159429D01*
X2721048Y-2160857D01*
X2720571Y-2161333D01*
X2717238Y-2161333D01*
X2717238Y-2159429D01*
X2716286Y-2168952D02*
X2716762Y-2170381D01*
X2717238Y-2170857D01*
X2718190Y-2171333D01*
X2719619Y-2171333D01*
X2720571Y-2170857D01*
X2721048Y-2170381D01*
X2721524Y-2169429D01*
X2721524Y-2165619D01*
X2711524Y-2165619D01*
X2711524Y-2168952D01*
X2712000Y-2169905D01*
X2712476Y-2170381D01*
X2713429Y-2170857D01*
X2714381Y-2170857D01*
X2715333Y-2170381D01*
X2715810Y-2169905D01*
X2716286Y-2168952D01*
X2716286Y-2165619D01*
X2717714Y-2175619D02*
X2717714Y-2183238D01*
X2721524Y-2192762D02*
X2721524Y-2188000D01*
X2711524Y-2188000D01*
X2716286Y-2196095D02*
X2716286Y-2199429D01*
X2721524Y-2200857D02*
X2721524Y-2196095D01*
X2711524Y-2196095D01*
X2711524Y-2200857D01*
X2721524Y-2205143D02*
X2711524Y-2205143D01*
X2711524Y-2207524D01*
X2712000Y-2208952D01*
X2712952Y-2209905D01*
X2713905Y-2210381D01*
X2715810Y-2210857D01*
X2717238Y-2210857D01*
X2719143Y-2210381D01*
X2720095Y-2209905D01*
X2721048Y-2208952D01*
X2721524Y-2207524D01*
X2721524Y-2205143D01*
D14*
X2633310Y-2157048D02*
X2653548Y-2157048D01*
X2655929Y-2158238D01*
X2657119Y-2159429D01*
X2658310Y-2161810D01*
X2658310Y-2166571D01*
X2657119Y-2168952D01*
X2655929Y-2170143D01*
X2653548Y-2171333D01*
X2633310Y-2171333D01*
X2658310Y-2196333D02*
X2658310Y-2182048D01*
X2658310Y-2189190D02*
X2633310Y-2189190D01*
X2636881Y-2186810D01*
X2639262Y-2184429D01*
X2640452Y-2182048D01*
X2633310Y-2211810D02*
X2633310Y-2214190D01*
X2634500Y-2216571D01*
X2635690Y-2217762D01*
X2638071Y-2218952D01*
X2642833Y-2220143D01*
X2648786Y-2220143D01*
X2653548Y-2218952D01*
X2655929Y-2217762D01*
X2657119Y-2216571D01*
X2658310Y-2214190D01*
X2658310Y-2211810D01*
X2657119Y-2209429D01*
X2655929Y-2208238D01*
X2653548Y-2207048D01*
X2648786Y-2205857D01*
X2642833Y-2205857D01*
X2638071Y-2207048D01*
X2635690Y-2208238D01*
X2634500Y-2209429D01*
X2633310Y-2211810D01*
G04 #@! TO.C,U5*
D15*
X2449676Y-2033045D02*
X2449676Y-2043326D01*
X2449071Y-2044536D01*
X2448467Y-2045140D01*
X2447257Y-2045745D01*
X2444838Y-2045745D01*
X2443629Y-2045140D01*
X2443024Y-2044536D01*
X2442419Y-2043326D01*
X2442419Y-2033045D01*
X2430324Y-2033045D02*
X2436371Y-2033045D01*
X2436976Y-2039093D01*
X2436371Y-2038488D01*
X2435162Y-2037883D01*
X2432138Y-2037883D01*
X2430929Y-2038488D01*
X2430324Y-2039093D01*
X2429719Y-2040302D01*
X2429719Y-2043326D01*
X2430324Y-2044536D01*
X2430929Y-2045140D01*
X2432138Y-2045745D01*
X2435162Y-2045745D01*
X2436371Y-2045140D01*
X2436976Y-2044536D01*
D12*
X2510714Y-2344524D02*
X2510714Y-2334524D01*
X2500238Y-2343571D02*
X2500714Y-2344048D01*
X2502143Y-2344524D01*
X2503095Y-2344524D01*
X2504524Y-2344048D01*
X2505476Y-2343095D01*
X2505952Y-2342143D01*
X2506429Y-2340238D01*
X2506429Y-2338810D01*
X2505952Y-2336905D01*
X2505476Y-2335952D01*
X2504524Y-2335000D01*
X2503095Y-2334524D01*
X2502143Y-2334524D01*
X2500714Y-2335000D01*
X2500238Y-2335476D01*
X2495952Y-2339286D02*
X2492619Y-2339286D01*
X2491190Y-2344524D02*
X2495952Y-2344524D01*
X2495952Y-2334524D01*
X2491190Y-2334524D01*
X2482619Y-2337857D02*
X2482619Y-2344524D01*
X2485000Y-2334048D02*
X2487381Y-2341190D01*
X2481190Y-2341190D01*
X2475476Y-2334524D02*
X2474524Y-2334524D01*
X2473571Y-2335000D01*
X2473095Y-2335476D01*
X2472619Y-2336429D01*
X2472143Y-2338333D01*
X2472143Y-2340714D01*
X2472619Y-2342619D01*
X2473095Y-2343571D01*
X2473571Y-2344048D01*
X2474524Y-2344524D01*
X2475476Y-2344524D01*
X2476429Y-2344048D01*
X2476905Y-2343571D01*
X2477381Y-2342619D01*
X2477857Y-2340714D01*
X2477857Y-2338333D01*
X2477381Y-2336429D01*
X2476905Y-2335476D01*
X2476429Y-2335000D01*
X2475476Y-2334524D01*
X2467857Y-2334524D02*
X2467857Y-2342619D01*
X2467381Y-2343571D01*
X2466905Y-2344048D01*
X2465952Y-2344524D01*
X2464048Y-2344524D01*
X2463095Y-2344048D01*
X2462619Y-2343571D01*
X2462143Y-2342619D01*
X2462143Y-2334524D01*
X2457381Y-2344524D02*
X2457381Y-2334524D01*
X2453571Y-2334524D01*
X2452619Y-2335000D01*
X2452143Y-2335476D01*
X2451667Y-2336429D01*
X2451667Y-2337857D01*
X2452143Y-2338810D01*
X2452619Y-2339286D01*
X2453571Y-2339762D01*
X2457381Y-2339762D01*
X2442619Y-2334524D02*
X2447381Y-2334524D01*
X2447857Y-2339286D01*
X2447381Y-2338810D01*
X2446429Y-2338333D01*
X2444048Y-2338333D01*
X2443095Y-2338810D01*
X2442619Y-2339286D01*
X2442143Y-2340238D01*
X2442143Y-2342619D01*
X2442619Y-2343571D01*
X2443095Y-2344048D01*
X2444048Y-2344524D01*
X2446429Y-2344524D01*
X2447381Y-2344048D01*
X2447857Y-2343571D01*
X2437857Y-2344524D02*
X2437857Y-2334524D01*
X2432143Y-2344524D02*
X2436429Y-2338810D01*
X2432143Y-2334524D02*
X2437857Y-2340238D01*
X2427857Y-2340714D02*
X2420238Y-2340714D01*
X2415476Y-2334524D02*
X2415476Y-2342619D01*
X2415000Y-2343571D01*
X2414524Y-2344048D01*
X2413571Y-2344524D01*
X2411667Y-2344524D01*
X2410714Y-2344048D01*
X2410238Y-2343571D01*
X2409762Y-2342619D01*
X2409762Y-2334524D01*
X2405952Y-2334524D02*
X2403571Y-2344524D01*
X2401667Y-2337381D01*
X2399762Y-2344524D01*
X2397381Y-2334524D01*
X2388333Y-2335000D02*
X2389286Y-2334524D01*
X2390714Y-2334524D01*
X2392143Y-2335000D01*
X2393095Y-2335952D01*
X2393571Y-2336905D01*
X2394048Y-2338810D01*
X2394048Y-2340238D01*
X2393571Y-2342143D01*
X2393095Y-2343095D01*
X2392143Y-2344048D01*
X2390714Y-2344524D01*
X2389762Y-2344524D01*
X2388333Y-2344048D01*
X2387857Y-2343571D01*
X2387857Y-2340238D01*
X2389762Y-2340238D01*
X2384524Y-2334524D02*
X2378333Y-2334524D01*
X2381667Y-2338333D01*
X2380238Y-2338333D01*
X2379286Y-2338810D01*
X2378810Y-2339286D01*
X2378333Y-2340238D01*
X2378333Y-2342619D01*
X2378810Y-2343571D01*
X2379286Y-2344048D01*
X2380238Y-2344524D01*
X2383095Y-2344524D01*
X2384048Y-2344048D01*
X2384524Y-2343571D01*
X2372143Y-2334524D02*
X2371190Y-2334524D01*
X2370238Y-2335000D01*
X2369762Y-2335476D01*
X2369286Y-2336429D01*
X2368810Y-2338333D01*
X2368810Y-2340714D01*
X2369286Y-2342619D01*
X2369762Y-2343571D01*
X2370238Y-2344048D01*
X2371190Y-2344524D01*
X2372143Y-2344524D01*
X2373095Y-2344048D01*
X2373571Y-2343571D01*
X2374048Y-2342619D01*
X2374524Y-2340714D01*
X2374524Y-2338333D01*
X2374048Y-2336429D01*
X2373571Y-2335476D01*
X2373095Y-2335000D01*
X2372143Y-2334524D01*
D13*
X2478095Y-2162619D02*
X2478095Y-2203095D01*
X2475714Y-2207857D01*
X2473333Y-2210238D01*
X2468571Y-2212619D01*
X2459048Y-2212619D01*
X2454286Y-2210238D01*
X2451905Y-2207857D01*
X2449524Y-2203095D01*
X2449524Y-2162619D01*
X2401905Y-2162619D02*
X2425714Y-2162619D01*
X2428095Y-2186429D01*
X2425714Y-2184048D01*
X2420952Y-2181667D01*
X2409048Y-2181667D01*
X2404286Y-2184048D01*
X2401905Y-2186429D01*
X2399524Y-2191190D01*
X2399524Y-2203095D01*
X2401905Y-2207857D01*
X2404286Y-2210238D01*
X2409048Y-2212619D01*
X2420952Y-2212619D01*
X2425714Y-2210238D01*
X2428095Y-2207857D01*
G04 #@! TO.C,C22*
D12*
X2062024Y-2443690D02*
X2062024Y-2444643D01*
X2062500Y-2445595D01*
X2062976Y-2446071D01*
X2063928Y-2446548D01*
X2065833Y-2447024D01*
X2068214Y-2447024D01*
X2070119Y-2446548D01*
X2071071Y-2446071D01*
X2071548Y-2445595D01*
X2072024Y-2444643D01*
X2072024Y-2443690D01*
X2071548Y-2442738D01*
X2071071Y-2442262D01*
X2070119Y-2441786D01*
X2068214Y-2441310D01*
X2065833Y-2441310D01*
X2063928Y-2441786D01*
X2062976Y-2442262D01*
X2062500Y-2442738D01*
X2062024Y-2443690D01*
X2065357Y-2455595D02*
X2072024Y-2455595D01*
X2061548Y-2453214D02*
X2068690Y-2450833D01*
X2068690Y-2457024D01*
X2062024Y-2462738D02*
X2062024Y-2463690D01*
X2062500Y-2464643D01*
X2062976Y-2465119D01*
X2063928Y-2465595D01*
X2065833Y-2466071D01*
X2068214Y-2466071D01*
X2070119Y-2465595D01*
X2071071Y-2465119D01*
X2071548Y-2464643D01*
X2072024Y-2463690D01*
X2072024Y-2462738D01*
X2071548Y-2461786D01*
X2071071Y-2461310D01*
X2070119Y-2460833D01*
X2068214Y-2460357D01*
X2065833Y-2460357D01*
X2063928Y-2460833D01*
X2062976Y-2461310D01*
X2062500Y-2461786D01*
X2062024Y-2462738D01*
X2062976Y-2469881D02*
X2062500Y-2470357D01*
X2062024Y-2471310D01*
X2062024Y-2473690D01*
X2062500Y-2474643D01*
X2062976Y-2475119D01*
X2063928Y-2475595D01*
X2064881Y-2475595D01*
X2066309Y-2475119D01*
X2072024Y-2469405D01*
X2072024Y-2475595D01*
X2071548Y-2480357D02*
X2072024Y-2480357D01*
X2072976Y-2479881D01*
X2073452Y-2479405D01*
X2072024Y-2497500D02*
X2072024Y-2491786D01*
X2072024Y-2494643D02*
X2062024Y-2494643D01*
X2063452Y-2493690D01*
X2064405Y-2492738D01*
X2064881Y-2491786D01*
X2062024Y-2503690D02*
X2062024Y-2504643D01*
X2062500Y-2505595D01*
X2062976Y-2506071D01*
X2063928Y-2506548D01*
X2065833Y-2507024D01*
X2068214Y-2507024D01*
X2070119Y-2506548D01*
X2071071Y-2506071D01*
X2071548Y-2505595D01*
X2072024Y-2504643D01*
X2072024Y-2503690D01*
X2071548Y-2502738D01*
X2071071Y-2502262D01*
X2070119Y-2501786D01*
X2068214Y-2501310D01*
X2065833Y-2501310D01*
X2063928Y-2501786D01*
X2062976Y-2502262D01*
X2062500Y-2502738D01*
X2062024Y-2503690D01*
X2065357Y-2515595D02*
X2072024Y-2515595D01*
X2065357Y-2511310D02*
X2070595Y-2511310D01*
X2071548Y-2511786D01*
X2072024Y-2512738D01*
X2072024Y-2514167D01*
X2071548Y-2515119D01*
X2071071Y-2515595D01*
X2066786Y-2523690D02*
X2066786Y-2520357D01*
X2072024Y-2520357D02*
X2062024Y-2520357D01*
X2062024Y-2525119D01*
X2071548Y-2529405D02*
X2072024Y-2529405D01*
X2072976Y-2528929D01*
X2073452Y-2528452D01*
X2062024Y-2545595D02*
X2062024Y-2543690D01*
X2062500Y-2542738D01*
X2062976Y-2542262D01*
X2064405Y-2541310D01*
X2066309Y-2540833D01*
X2070119Y-2540833D01*
X2071071Y-2541310D01*
X2071548Y-2541786D01*
X2072024Y-2542738D01*
X2072024Y-2544643D01*
X2071548Y-2545595D01*
X2071071Y-2546071D01*
X2070119Y-2546548D01*
X2067738Y-2546548D01*
X2066786Y-2546071D01*
X2066309Y-2545595D01*
X2065833Y-2544643D01*
X2065833Y-2542738D01*
X2066309Y-2541786D01*
X2066786Y-2541310D01*
X2067738Y-2540833D01*
X2071071Y-2550833D02*
X2071548Y-2551310D01*
X2072024Y-2550833D01*
X2071548Y-2550357D01*
X2071071Y-2550833D01*
X2072024Y-2550833D01*
X2062024Y-2554643D02*
X2062024Y-2560833D01*
X2065833Y-2557500D01*
X2065833Y-2558929D01*
X2066309Y-2559881D01*
X2066786Y-2560357D01*
X2067738Y-2560833D01*
X2070119Y-2560833D01*
X2071071Y-2560357D01*
X2071548Y-2559881D01*
X2072024Y-2558929D01*
X2072024Y-2556071D01*
X2071548Y-2555119D01*
X2071071Y-2554643D01*
X2062024Y-2563690D02*
X2072024Y-2567024D01*
X2062024Y-2570357D01*
X2071548Y-2574167D02*
X2072024Y-2574167D01*
X2072976Y-2573690D01*
X2073452Y-2573214D01*
X2062024Y-2585119D02*
X2072024Y-2591786D01*
X2062024Y-2591786D02*
X2072024Y-2585119D01*
X2062024Y-2600357D02*
X2062024Y-2595595D01*
X2066786Y-2595119D01*
X2066309Y-2595595D01*
X2065833Y-2596548D01*
X2065833Y-2598929D01*
X2066309Y-2599881D01*
X2066786Y-2600357D01*
X2067738Y-2600833D01*
X2070119Y-2600833D01*
X2071071Y-2600357D01*
X2071548Y-2599881D01*
X2072024Y-2598929D01*
X2072024Y-2596548D01*
X2071548Y-2595595D01*
X2071071Y-2595119D01*
X2072024Y-2610833D02*
X2067262Y-2607500D01*
X2072024Y-2605119D02*
X2062024Y-2605119D01*
X2062024Y-2608929D01*
X2062500Y-2609881D01*
X2062976Y-2610357D01*
X2063928Y-2610833D01*
X2065357Y-2610833D01*
X2066309Y-2610357D01*
X2066786Y-2609881D01*
X2067262Y-2608929D01*
X2067262Y-2605119D01*
X2071548Y-2615595D02*
X2072024Y-2615595D01*
X2072976Y-2615119D01*
X2073452Y-2614643D01*
X2062976Y-2627024D02*
X2062500Y-2627500D01*
X2062024Y-2628452D01*
X2062024Y-2630833D01*
X2062500Y-2631786D01*
X2062976Y-2632262D01*
X2063928Y-2632738D01*
X2064881Y-2632738D01*
X2066309Y-2632262D01*
X2072024Y-2626548D01*
X2072024Y-2632738D01*
X2062024Y-2638929D02*
X2062024Y-2639881D01*
X2062500Y-2640833D01*
X2062976Y-2641310D01*
X2063928Y-2641786D01*
X2065833Y-2642262D01*
X2068214Y-2642262D01*
X2070119Y-2641786D01*
X2071071Y-2641310D01*
X2071548Y-2640833D01*
X2072024Y-2639881D01*
X2072024Y-2638929D01*
X2071548Y-2637976D01*
X2071071Y-2637500D01*
X2070119Y-2637024D01*
X2068214Y-2636548D01*
X2065833Y-2636548D01*
X2063928Y-2637024D01*
X2062976Y-2637500D01*
X2062500Y-2637976D01*
X2062024Y-2638929D01*
X2072024Y-2646071D02*
X2062024Y-2653690D01*
X2062024Y-2647500D02*
X2062500Y-2648452D01*
X2063452Y-2648929D01*
X2064405Y-2648452D01*
X2064881Y-2647500D01*
X2064405Y-2646548D01*
X2063452Y-2646071D01*
X2062500Y-2646548D01*
X2062024Y-2647500D01*
X2071548Y-2653214D02*
X2070595Y-2653690D01*
X2069643Y-2653214D01*
X2069167Y-2652262D01*
X2069643Y-2651310D01*
X2070595Y-2650833D01*
X2071548Y-2651310D01*
X2072024Y-2652262D01*
X2071548Y-2653214D01*
D16*
X2038928Y-2529929D02*
X2040119Y-2528738D01*
X2041309Y-2525167D01*
X2041309Y-2522786D01*
X2040119Y-2519214D01*
X2037738Y-2516833D01*
X2035357Y-2515643D01*
X2030595Y-2514452D01*
X2027024Y-2514452D01*
X2022262Y-2515643D01*
X2019881Y-2516833D01*
X2017500Y-2519214D01*
X2016309Y-2522786D01*
X2016309Y-2525167D01*
X2017500Y-2528738D01*
X2018690Y-2529929D01*
X2018690Y-2539452D02*
X2017500Y-2540643D01*
X2016309Y-2543024D01*
X2016309Y-2548976D01*
X2017500Y-2551357D01*
X2018690Y-2552548D01*
X2021071Y-2553738D01*
X2023452Y-2553738D01*
X2027024Y-2552548D01*
X2041309Y-2538262D01*
X2041309Y-2553738D01*
X2018690Y-2563262D02*
X2017500Y-2564452D01*
X2016309Y-2566833D01*
X2016309Y-2572786D01*
X2017500Y-2575167D01*
X2018690Y-2576357D01*
X2021071Y-2577548D01*
X2023452Y-2577548D01*
X2027024Y-2576357D01*
X2041309Y-2562071D01*
X2041309Y-2577548D01*
G04 #@! TO.C,C23*
D12*
X1894524Y-2408810D02*
X1894524Y-2409762D01*
X1895000Y-2410714D01*
X1895476Y-2411190D01*
X1896428Y-2411667D01*
X1898333Y-2412143D01*
X1900714Y-2412143D01*
X1902619Y-2411667D01*
X1903571Y-2411190D01*
X1904048Y-2410714D01*
X1904524Y-2409762D01*
X1904524Y-2408810D01*
X1904048Y-2407857D01*
X1903571Y-2407381D01*
X1902619Y-2406905D01*
X1900714Y-2406429D01*
X1898333Y-2406429D01*
X1896428Y-2406905D01*
X1895476Y-2407381D01*
X1895000Y-2407857D01*
X1894524Y-2408810D01*
X1895476Y-2415952D02*
X1895000Y-2416429D01*
X1894524Y-2417381D01*
X1894524Y-2419762D01*
X1895000Y-2420714D01*
X1895476Y-2421190D01*
X1896428Y-2421667D01*
X1897381Y-2421667D01*
X1898809Y-2421190D01*
X1904524Y-2415476D01*
X1904524Y-2421667D01*
X1894524Y-2427857D02*
X1894524Y-2428810D01*
X1895000Y-2429762D01*
X1895476Y-2430238D01*
X1896428Y-2430714D01*
X1898333Y-2431190D01*
X1900714Y-2431190D01*
X1902619Y-2430714D01*
X1903571Y-2430238D01*
X1904048Y-2429762D01*
X1904524Y-2428810D01*
X1904524Y-2427857D01*
X1904048Y-2426905D01*
X1903571Y-2426429D01*
X1902619Y-2425952D01*
X1900714Y-2425476D01*
X1898333Y-2425476D01*
X1896428Y-2425952D01*
X1895476Y-2426429D01*
X1895000Y-2426905D01*
X1894524Y-2427857D01*
X1904524Y-2440714D02*
X1904524Y-2435000D01*
X1904524Y-2437857D02*
X1894524Y-2437857D01*
X1895952Y-2436905D01*
X1896905Y-2435952D01*
X1897381Y-2435000D01*
X1904048Y-2445476D02*
X1904524Y-2445476D01*
X1905476Y-2445000D01*
X1905952Y-2444524D01*
X1904524Y-2462619D02*
X1904524Y-2456905D01*
X1904524Y-2459762D02*
X1894524Y-2459762D01*
X1895952Y-2458810D01*
X1896905Y-2457857D01*
X1897381Y-2456905D01*
X1894524Y-2468810D02*
X1894524Y-2469762D01*
X1895000Y-2470714D01*
X1895476Y-2471190D01*
X1896428Y-2471667D01*
X1898333Y-2472143D01*
X1900714Y-2472143D01*
X1902619Y-2471667D01*
X1903571Y-2471190D01*
X1904048Y-2470714D01*
X1904524Y-2469762D01*
X1904524Y-2468810D01*
X1904048Y-2467857D01*
X1903571Y-2467381D01*
X1902619Y-2466905D01*
X1900714Y-2466429D01*
X1898333Y-2466429D01*
X1896428Y-2466905D01*
X1895476Y-2467381D01*
X1895000Y-2467857D01*
X1894524Y-2468810D01*
X1894524Y-2478333D02*
X1894524Y-2479286D01*
X1895000Y-2480238D01*
X1895476Y-2480714D01*
X1896428Y-2481190D01*
X1898333Y-2481667D01*
X1900714Y-2481667D01*
X1902619Y-2481190D01*
X1903571Y-2480714D01*
X1904048Y-2480238D01*
X1904524Y-2479286D01*
X1904524Y-2478333D01*
X1904048Y-2477381D01*
X1903571Y-2476905D01*
X1902619Y-2476429D01*
X1900714Y-2475952D01*
X1898333Y-2475952D01*
X1896428Y-2476429D01*
X1895476Y-2476905D01*
X1895000Y-2477381D01*
X1894524Y-2478333D01*
X1897857Y-2485952D02*
X1904524Y-2485952D01*
X1898809Y-2485952D02*
X1898333Y-2486429D01*
X1897857Y-2487381D01*
X1897857Y-2488810D01*
X1898333Y-2489762D01*
X1899286Y-2490238D01*
X1904524Y-2490238D01*
X1899286Y-2498333D02*
X1899286Y-2495000D01*
X1904524Y-2495000D02*
X1894524Y-2495000D01*
X1894524Y-2499762D01*
X1904048Y-2504048D02*
X1904524Y-2504048D01*
X1905476Y-2503571D01*
X1905952Y-2503095D01*
X1904524Y-2521190D02*
X1904524Y-2515476D01*
X1904524Y-2518333D02*
X1894524Y-2518333D01*
X1895952Y-2517381D01*
X1896905Y-2516429D01*
X1897381Y-2515476D01*
X1894524Y-2527381D02*
X1894524Y-2528333D01*
X1895000Y-2529286D01*
X1895476Y-2529762D01*
X1896428Y-2530238D01*
X1898333Y-2530714D01*
X1900714Y-2530714D01*
X1902619Y-2530238D01*
X1903571Y-2529762D01*
X1904048Y-2529286D01*
X1904524Y-2528333D01*
X1904524Y-2527381D01*
X1904048Y-2526429D01*
X1903571Y-2525952D01*
X1902619Y-2525476D01*
X1900714Y-2525000D01*
X1898333Y-2525000D01*
X1896428Y-2525476D01*
X1895476Y-2525952D01*
X1895000Y-2526429D01*
X1894524Y-2527381D01*
X1894524Y-2533571D02*
X1904524Y-2536905D01*
X1894524Y-2540238D01*
X1904048Y-2544048D02*
X1904524Y-2544048D01*
X1905476Y-2543571D01*
X1905952Y-2543095D01*
X1894524Y-2555000D02*
X1904524Y-2561667D01*
X1894524Y-2561667D02*
X1904524Y-2555000D01*
X1894524Y-2570238D02*
X1894524Y-2565476D01*
X1899286Y-2565000D01*
X1898809Y-2565476D01*
X1898333Y-2566429D01*
X1898333Y-2568810D01*
X1898809Y-2569762D01*
X1899286Y-2570238D01*
X1900238Y-2570714D01*
X1902619Y-2570714D01*
X1903571Y-2570238D01*
X1904048Y-2569762D01*
X1904524Y-2568810D01*
X1904524Y-2566429D01*
X1904048Y-2565476D01*
X1903571Y-2565000D01*
X1904524Y-2580714D02*
X1899762Y-2577381D01*
X1904524Y-2575000D02*
X1894524Y-2575000D01*
X1894524Y-2578810D01*
X1895000Y-2579762D01*
X1895476Y-2580238D01*
X1896428Y-2580714D01*
X1897857Y-2580714D01*
X1898809Y-2580238D01*
X1899286Y-2579762D01*
X1899762Y-2578810D01*
X1899762Y-2575000D01*
X1904048Y-2585476D02*
X1904524Y-2585476D01*
X1905476Y-2585000D01*
X1905952Y-2584524D01*
X1895476Y-2596905D02*
X1895000Y-2597381D01*
X1894524Y-2598333D01*
X1894524Y-2600714D01*
X1895000Y-2601667D01*
X1895476Y-2602143D01*
X1896428Y-2602619D01*
X1897381Y-2602619D01*
X1898809Y-2602143D01*
X1904524Y-2596429D01*
X1904524Y-2602619D01*
X1894524Y-2608810D02*
X1894524Y-2609762D01*
X1895000Y-2610714D01*
X1895476Y-2611190D01*
X1896428Y-2611667D01*
X1898333Y-2612143D01*
X1900714Y-2612143D01*
X1902619Y-2611667D01*
X1903571Y-2611190D01*
X1904048Y-2610714D01*
X1904524Y-2609762D01*
X1904524Y-2608810D01*
X1904048Y-2607857D01*
X1903571Y-2607381D01*
X1902619Y-2606905D01*
X1900714Y-2606429D01*
X1898333Y-2606429D01*
X1896428Y-2606905D01*
X1895476Y-2607381D01*
X1895000Y-2607857D01*
X1894524Y-2608810D01*
X1904524Y-2615952D02*
X1894524Y-2623571D01*
X1894524Y-2617381D02*
X1895000Y-2618333D01*
X1895952Y-2618810D01*
X1896905Y-2618333D01*
X1897381Y-2617381D01*
X1896905Y-2616429D01*
X1895952Y-2615952D01*
X1895000Y-2616429D01*
X1894524Y-2617381D01*
X1904048Y-2623095D02*
X1903095Y-2623571D01*
X1902143Y-2623095D01*
X1901667Y-2622143D01*
X1902143Y-2621190D01*
X1903095Y-2620714D01*
X1904048Y-2621190D01*
X1904524Y-2622143D01*
X1904048Y-2623095D01*
X1878571Y-2508571D02*
X1879048Y-2508095D01*
X1879524Y-2506667D01*
X1879524Y-2505714D01*
X1879048Y-2504286D01*
X1878095Y-2503333D01*
X1877143Y-2502857D01*
X1875238Y-2502381D01*
X1873809Y-2502381D01*
X1871905Y-2502857D01*
X1870952Y-2503333D01*
X1870000Y-2504286D01*
X1869524Y-2505714D01*
X1869524Y-2506667D01*
X1870000Y-2508095D01*
X1870476Y-2508571D01*
X1870476Y-2512381D02*
X1870000Y-2512857D01*
X1869524Y-2513810D01*
X1869524Y-2516190D01*
X1870000Y-2517143D01*
X1870476Y-2517619D01*
X1871428Y-2518095D01*
X1872381Y-2518095D01*
X1873809Y-2517619D01*
X1879524Y-2511905D01*
X1879524Y-2518095D01*
X1869524Y-2521429D02*
X1869524Y-2527619D01*
X1873333Y-2524286D01*
X1873333Y-2525714D01*
X1873809Y-2526667D01*
X1874286Y-2527143D01*
X1875238Y-2527619D01*
X1877619Y-2527619D01*
X1878571Y-2527143D01*
X1879048Y-2526667D01*
X1879524Y-2525714D01*
X1879524Y-2522857D01*
X1879048Y-2521905D01*
X1878571Y-2521429D01*
G04 #@! TO.C,R10*
X1967024Y-2416452D02*
X1967024Y-2417405D01*
X1967500Y-2418357D01*
X1967976Y-2418833D01*
X1968928Y-2419310D01*
X1970833Y-2419786D01*
X1973214Y-2419786D01*
X1975119Y-2419310D01*
X1976071Y-2418833D01*
X1976548Y-2418357D01*
X1977024Y-2417405D01*
X1977024Y-2416452D01*
X1976548Y-2415500D01*
X1976071Y-2415024D01*
X1975119Y-2414548D01*
X1973214Y-2414071D01*
X1970833Y-2414071D01*
X1968928Y-2414548D01*
X1967976Y-2415024D01*
X1967500Y-2415500D01*
X1967024Y-2416452D01*
X1967976Y-2423595D02*
X1967500Y-2424071D01*
X1967024Y-2425024D01*
X1967024Y-2427405D01*
X1967500Y-2428357D01*
X1967976Y-2428833D01*
X1968928Y-2429310D01*
X1969881Y-2429310D01*
X1971309Y-2428833D01*
X1977024Y-2423119D01*
X1977024Y-2429310D01*
X1967024Y-2435500D02*
X1967024Y-2436452D01*
X1967500Y-2437405D01*
X1967976Y-2437881D01*
X1968928Y-2438357D01*
X1970833Y-2438833D01*
X1973214Y-2438833D01*
X1975119Y-2438357D01*
X1976071Y-2437881D01*
X1976548Y-2437405D01*
X1977024Y-2436452D01*
X1977024Y-2435500D01*
X1976548Y-2434548D01*
X1976071Y-2434071D01*
X1975119Y-2433595D01*
X1973214Y-2433119D01*
X1970833Y-2433119D01*
X1968928Y-2433595D01*
X1967976Y-2434071D01*
X1967500Y-2434548D01*
X1967024Y-2435500D01*
X1977024Y-2448357D02*
X1977024Y-2442643D01*
X1977024Y-2445500D02*
X1967024Y-2445500D01*
X1968452Y-2444548D01*
X1969405Y-2443595D01*
X1969881Y-2442643D01*
X1976548Y-2453119D02*
X1977024Y-2453119D01*
X1977976Y-2452643D01*
X1978452Y-2452167D01*
X1977024Y-2470262D02*
X1977024Y-2464548D01*
X1977024Y-2467405D02*
X1967024Y-2467405D01*
X1968452Y-2466452D01*
X1969405Y-2465500D01*
X1969881Y-2464548D01*
X1967024Y-2476452D02*
X1967024Y-2477405D01*
X1967500Y-2478357D01*
X1967976Y-2478833D01*
X1968928Y-2479310D01*
X1970833Y-2479786D01*
X1973214Y-2479786D01*
X1975119Y-2479310D01*
X1976071Y-2478833D01*
X1976548Y-2478357D01*
X1977024Y-2477405D01*
X1977024Y-2476452D01*
X1976548Y-2475500D01*
X1976071Y-2475024D01*
X1975119Y-2474548D01*
X1973214Y-2474071D01*
X1970833Y-2474071D01*
X1968928Y-2474548D01*
X1967976Y-2475024D01*
X1967500Y-2475500D01*
X1967024Y-2476452D01*
X1967024Y-2485976D02*
X1967024Y-2486929D01*
X1967500Y-2487881D01*
X1967976Y-2488357D01*
X1968928Y-2488833D01*
X1970833Y-2489310D01*
X1973214Y-2489310D01*
X1975119Y-2488833D01*
X1976071Y-2488357D01*
X1976548Y-2487881D01*
X1977024Y-2486929D01*
X1977024Y-2485976D01*
X1976548Y-2485024D01*
X1976071Y-2484548D01*
X1975119Y-2484071D01*
X1973214Y-2483595D01*
X1970833Y-2483595D01*
X1968928Y-2484071D01*
X1967976Y-2484548D01*
X1967500Y-2485024D01*
X1967024Y-2485976D01*
X1977024Y-2495024D02*
X1976548Y-2494071D01*
X1976071Y-2493595D01*
X1975119Y-2493119D01*
X1972262Y-2493119D01*
X1971309Y-2493595D01*
X1970833Y-2494071D01*
X1970357Y-2495024D01*
X1970357Y-2496452D01*
X1970833Y-2497405D01*
X1971309Y-2497881D01*
X1972262Y-2498357D01*
X1975119Y-2498357D01*
X1976071Y-2497881D01*
X1976548Y-2497405D01*
X1977024Y-2496452D01*
X1977024Y-2495024D01*
X1977024Y-2502643D02*
X1967024Y-2502643D01*
X1977024Y-2506929D02*
X1971786Y-2506929D01*
X1970833Y-2506452D01*
X1970357Y-2505500D01*
X1970357Y-2504071D01*
X1970833Y-2503119D01*
X1971309Y-2502643D01*
X1977024Y-2511690D02*
X1970357Y-2511690D01*
X1971309Y-2511690D02*
X1970833Y-2512167D01*
X1970357Y-2513119D01*
X1970357Y-2514548D01*
X1970833Y-2515500D01*
X1971786Y-2515976D01*
X1977024Y-2515976D01*
X1971786Y-2515976D02*
X1970833Y-2516452D01*
X1970357Y-2517405D01*
X1970357Y-2518833D01*
X1970833Y-2519786D01*
X1971786Y-2520262D01*
X1977024Y-2520262D01*
X1976548Y-2525500D02*
X1977024Y-2525500D01*
X1977976Y-2525024D01*
X1978452Y-2524548D01*
X1977024Y-2542643D02*
X1977024Y-2536929D01*
X1977024Y-2539786D02*
X1967024Y-2539786D01*
X1968452Y-2538833D01*
X1969405Y-2537881D01*
X1969881Y-2536929D01*
X1966548Y-2554071D02*
X1979405Y-2545500D01*
X1977024Y-2562643D02*
X1977024Y-2556929D01*
X1977024Y-2559786D02*
X1967024Y-2559786D01*
X1968452Y-2558833D01*
X1969405Y-2557881D01*
X1969881Y-2556929D01*
X1967024Y-2571214D02*
X1967024Y-2569310D01*
X1967500Y-2568357D01*
X1967976Y-2567881D01*
X1969405Y-2566929D01*
X1971309Y-2566452D01*
X1975119Y-2566452D01*
X1976071Y-2566929D01*
X1976548Y-2567405D01*
X1977024Y-2568357D01*
X1977024Y-2570262D01*
X1976548Y-2571214D01*
X1976071Y-2571690D01*
X1975119Y-2572167D01*
X1972738Y-2572167D01*
X1971786Y-2571690D01*
X1971309Y-2571214D01*
X1970833Y-2570262D01*
X1970833Y-2568357D01*
X1971309Y-2567405D01*
X1971786Y-2566929D01*
X1972738Y-2566452D01*
X1967024Y-2575500D02*
X1977024Y-2577881D01*
X1969881Y-2579786D01*
X1977024Y-2581690D01*
X1967024Y-2584071D01*
X1976548Y-2588357D02*
X1977024Y-2588357D01*
X1977976Y-2587881D01*
X1978452Y-2587405D01*
X1977024Y-2605500D02*
X1977024Y-2599786D01*
X1977024Y-2602643D02*
X1967024Y-2602643D01*
X1968452Y-2601690D01*
X1969405Y-2600738D01*
X1969881Y-2599786D01*
X1977024Y-2609310D02*
X1967024Y-2616929D01*
X1967024Y-2610738D02*
X1967500Y-2611690D01*
X1968452Y-2612167D01*
X1969405Y-2611690D01*
X1969881Y-2610738D01*
X1969405Y-2609786D01*
X1968452Y-2609310D01*
X1967500Y-2609786D01*
X1967024Y-2610738D01*
X1976548Y-2616452D02*
X1975595Y-2616929D01*
X1974643Y-2616452D01*
X1974167Y-2615500D01*
X1974643Y-2614548D01*
X1975595Y-2614071D01*
X1976548Y-2614548D01*
X1977024Y-2615500D01*
X1976548Y-2616452D01*
X1949524Y-2509071D02*
X1944762Y-2505738D01*
X1949524Y-2503357D02*
X1939524Y-2503357D01*
X1939524Y-2507167D01*
X1940000Y-2508119D01*
X1940476Y-2508595D01*
X1941428Y-2509071D01*
X1942857Y-2509071D01*
X1943809Y-2508595D01*
X1944286Y-2508119D01*
X1944762Y-2507167D01*
X1944762Y-2503357D01*
X1949524Y-2518595D02*
X1949524Y-2512881D01*
X1949524Y-2515738D02*
X1939524Y-2515738D01*
X1940952Y-2514786D01*
X1941905Y-2513833D01*
X1942381Y-2512881D01*
X1939524Y-2524786D02*
X1939524Y-2525738D01*
X1940000Y-2526690D01*
X1940476Y-2527167D01*
X1941428Y-2527643D01*
X1943333Y-2528119D01*
X1945714Y-2528119D01*
X1947619Y-2527643D01*
X1948571Y-2527167D01*
X1949048Y-2526690D01*
X1949524Y-2525738D01*
X1949524Y-2524786D01*
X1949048Y-2523833D01*
X1948571Y-2523357D01*
X1947619Y-2522881D01*
X1945714Y-2522405D01*
X1943333Y-2522405D01*
X1941428Y-2522881D01*
X1940476Y-2523357D01*
X1940000Y-2523833D01*
X1939524Y-2524786D01*
G04 #@! TO.C,D5*
D15*
X1972269Y-2635545D02*
X1968036Y-2648245D01*
X1963802Y-2635545D01*
X1952312Y-2647036D02*
X1952917Y-2647640D01*
X1954731Y-2648245D01*
X1955940Y-2648245D01*
X1957755Y-2647640D01*
X1958964Y-2646431D01*
X1959569Y-2645221D01*
X1960174Y-2642802D01*
X1960174Y-2640988D01*
X1959569Y-2638569D01*
X1958964Y-2637360D01*
X1957755Y-2636150D01*
X1955940Y-2635545D01*
X1954731Y-2635545D01*
X1952917Y-2636150D01*
X1952312Y-2636755D01*
X1946869Y-2635545D02*
X1946869Y-2645826D01*
X1946264Y-2647036D01*
X1945659Y-2647640D01*
X1944450Y-2648245D01*
X1942031Y-2648245D01*
X1940821Y-2647640D01*
X1940217Y-2647036D01*
X1939612Y-2645826D01*
X1939612Y-2635545D01*
X1935378Y-2635545D02*
X1928121Y-2635545D01*
X1931750Y-2648245D02*
X1931750Y-2635545D01*
X1921469Y-2635545D02*
X1920259Y-2635545D01*
X1919050Y-2636150D01*
X1918445Y-2636755D01*
X1917840Y-2637964D01*
X1917236Y-2640383D01*
X1917236Y-2643407D01*
X1917840Y-2645826D01*
X1918445Y-2647036D01*
X1919050Y-2647640D01*
X1920259Y-2648245D01*
X1921469Y-2648245D01*
X1922678Y-2647640D01*
X1923283Y-2647036D01*
X1923888Y-2645826D01*
X1924493Y-2643407D01*
X1924493Y-2640383D01*
X1923888Y-2637964D01*
X1923283Y-2636755D01*
X1922678Y-2636150D01*
X1921469Y-2635545D01*
X1905745Y-2635545D02*
X1911793Y-2635545D01*
X1912398Y-2641593D01*
X1911793Y-2640988D01*
X1910583Y-2640383D01*
X1907559Y-2640383D01*
X1906350Y-2640988D01*
X1905745Y-2641593D01*
X1905140Y-2642802D01*
X1905140Y-2645826D01*
X1905745Y-2647036D01*
X1906350Y-2647640D01*
X1907559Y-2648245D01*
X1910583Y-2648245D01*
X1911793Y-2647640D01*
X1912398Y-2647036D01*
X1899698Y-2641593D02*
X1895464Y-2641593D01*
X1893650Y-2648245D02*
X1899698Y-2648245D01*
X1899698Y-2635545D01*
X1893650Y-2635545D01*
X1881555Y-2648245D02*
X1888812Y-2648245D01*
X1885183Y-2648245D02*
X1885183Y-2635545D01*
X1886393Y-2637360D01*
X1887602Y-2638569D01*
X1888812Y-2639174D01*
X1876112Y-2643407D02*
X1866436Y-2643407D01*
X1860993Y-2647640D02*
X1859178Y-2648245D01*
X1856155Y-2648245D01*
X1854945Y-2647640D01*
X1854340Y-2647036D01*
X1853736Y-2645826D01*
X1853736Y-2644617D01*
X1854340Y-2643407D01*
X1854945Y-2642802D01*
X1856155Y-2642198D01*
X1858574Y-2641593D01*
X1859783Y-2640988D01*
X1860388Y-2640383D01*
X1860993Y-2639174D01*
X1860993Y-2637964D01*
X1860388Y-2636755D01*
X1859783Y-2636150D01*
X1858574Y-2635545D01*
X1855550Y-2635545D01*
X1853736Y-2636150D01*
X1848293Y-2648245D02*
X1848293Y-2635545D01*
X1845269Y-2635545D01*
X1843455Y-2636150D01*
X1842245Y-2637360D01*
X1841640Y-2638569D01*
X1841036Y-2640988D01*
X1841036Y-2642802D01*
X1841640Y-2645221D01*
X1842245Y-2646431D01*
X1843455Y-2647640D01*
X1845269Y-2648245D01*
X1848293Y-2648245D01*
X1833174Y-2635545D02*
X1831964Y-2635545D01*
X1830755Y-2636150D01*
X1830150Y-2636755D01*
X1829545Y-2637964D01*
X1828940Y-2640383D01*
X1828940Y-2643407D01*
X1829545Y-2645826D01*
X1830150Y-2647036D01*
X1830755Y-2647640D01*
X1831964Y-2648245D01*
X1833174Y-2648245D01*
X1834383Y-2647640D01*
X1834988Y-2647036D01*
X1835593Y-2645826D01*
X1836198Y-2643407D01*
X1836198Y-2640383D01*
X1835593Y-2637964D01*
X1834988Y-2636755D01*
X1834383Y-2636150D01*
X1833174Y-2635545D01*
D12*
X1912381Y-2617024D02*
X1912381Y-2607024D01*
X1910000Y-2607024D01*
X1908571Y-2607500D01*
X1907619Y-2608452D01*
X1907143Y-2609405D01*
X1906667Y-2611310D01*
X1906667Y-2612738D01*
X1907143Y-2614643D01*
X1907619Y-2615595D01*
X1908571Y-2616548D01*
X1910000Y-2617024D01*
X1912381Y-2617024D01*
X1897619Y-2607024D02*
X1902381Y-2607024D01*
X1902857Y-2611786D01*
X1902381Y-2611310D01*
X1901428Y-2610833D01*
X1899048Y-2610833D01*
X1898095Y-2611310D01*
X1897619Y-2611786D01*
X1897143Y-2612738D01*
X1897143Y-2615119D01*
X1897619Y-2616071D01*
X1898095Y-2616548D01*
X1899048Y-2617024D01*
X1901428Y-2617024D01*
X1902381Y-2616548D01*
X1902857Y-2616071D01*
G04 #@! TO.C,U4*
D17*
X2373690Y-2440238D02*
X2373690Y-2521190D01*
X2368929Y-2530714D01*
X2364167Y-2535476D01*
X2354643Y-2540238D01*
X2335595Y-2540238D01*
X2326071Y-2535476D01*
X2321310Y-2530714D01*
X2316548Y-2521190D01*
X2316548Y-2440238D01*
X2226071Y-2473571D02*
X2226071Y-2540238D01*
X2249881Y-2435476D02*
X2273690Y-2506905D01*
X2211786Y-2506905D01*
G04 #@! TO.C,D6*
D12*
X2142762Y-2162024D02*
X2142762Y-2152024D01*
X2140381Y-2152024D01*
X2138952Y-2152500D01*
X2138000Y-2153452D01*
X2137524Y-2154405D01*
X2137048Y-2156310D01*
X2137048Y-2157738D01*
X2137524Y-2159643D01*
X2138000Y-2160595D01*
X2138952Y-2161548D01*
X2140381Y-2162024D01*
X2142762Y-2162024D01*
X2128000Y-2152024D02*
X2132762Y-2152024D01*
X2133238Y-2156786D01*
X2132762Y-2156310D01*
X2131810Y-2155833D01*
X2129429Y-2155833D01*
X2128476Y-2156310D01*
X2128000Y-2156786D01*
X2127524Y-2157738D01*
X2127524Y-2160119D01*
X2128000Y-2161071D01*
X2128476Y-2161548D01*
X2129429Y-2162024D01*
X2131810Y-2162024D01*
X2132762Y-2161548D01*
X2133238Y-2161071D01*
X2124667Y-2152024D02*
X2121333Y-2162024D01*
X2118000Y-2152024D01*
X2112762Y-2152024D02*
X2111810Y-2152024D01*
X2110857Y-2152500D01*
X2110381Y-2152976D01*
X2109905Y-2153929D01*
X2109429Y-2155833D01*
X2109429Y-2158214D01*
X2109905Y-2160119D01*
X2110381Y-2161071D01*
X2110857Y-2161548D01*
X2111810Y-2162024D01*
X2112762Y-2162024D01*
X2113714Y-2161548D01*
X2114190Y-2161071D01*
X2114667Y-2160119D01*
X2115143Y-2158214D01*
X2115143Y-2155833D01*
X2114667Y-2153929D01*
X2114190Y-2152976D01*
X2113714Y-2152500D01*
X2112762Y-2152024D01*
X2100381Y-2162024D02*
X2105143Y-2162024D01*
X2105143Y-2152024D01*
X2091809Y-2162024D02*
X2097524Y-2162024D01*
X2094667Y-2162024D02*
X2094667Y-2152024D01*
X2095619Y-2153452D01*
X2096571Y-2154405D01*
X2097524Y-2154881D01*
X2084190Y-2156786D02*
X2082762Y-2157262D01*
X2082286Y-2157738D01*
X2081809Y-2158690D01*
X2081809Y-2160119D01*
X2082286Y-2161071D01*
X2082762Y-2161548D01*
X2083714Y-2162024D01*
X2087524Y-2162024D01*
X2087524Y-2152024D01*
X2084190Y-2152024D01*
X2083238Y-2152500D01*
X2082762Y-2152976D01*
X2082286Y-2153929D01*
X2082286Y-2154881D01*
X2082762Y-2155833D01*
X2083238Y-2156310D01*
X2084190Y-2156786D01*
X2087524Y-2156786D01*
X2078000Y-2152976D02*
X2077524Y-2152500D01*
X2076571Y-2152024D01*
X2074190Y-2152024D01*
X2073238Y-2152500D01*
X2072762Y-2152976D01*
X2072286Y-2153929D01*
X2072286Y-2154881D01*
X2072762Y-2156310D01*
X2078476Y-2162024D01*
X2072286Y-2162024D01*
X2063238Y-2162024D02*
X2068000Y-2162024D01*
X2068000Y-2152024D01*
X2059905Y-2162024D02*
X2059905Y-2152024D01*
X2056095Y-2152024D01*
X2055143Y-2152500D01*
X2054667Y-2152976D01*
X2054190Y-2153929D01*
X2054190Y-2155357D01*
X2054667Y-2156310D01*
X2055143Y-2156786D01*
X2056095Y-2157262D01*
X2059905Y-2157262D01*
X2050857Y-2152024D02*
X2044667Y-2152024D01*
X2048000Y-2155833D01*
X2046571Y-2155833D01*
X2045619Y-2156310D01*
X2045143Y-2156786D01*
X2044667Y-2157738D01*
X2044667Y-2160119D01*
X2045143Y-2161071D01*
X2045619Y-2161548D01*
X2046571Y-2162024D01*
X2049428Y-2162024D01*
X2050381Y-2161548D01*
X2050857Y-2161071D01*
X2040381Y-2158214D02*
X2032762Y-2158214D01*
X2028952Y-2152024D02*
X2022286Y-2152024D01*
X2026571Y-2162024D01*
X2103571Y-2191786D02*
X2103571Y-2176786D01*
X2100000Y-2176786D01*
X2097857Y-2177500D01*
X2096428Y-2178929D01*
X2095714Y-2180357D01*
X2095000Y-2183214D01*
X2095000Y-2185357D01*
X2095714Y-2188214D01*
X2096428Y-2189643D01*
X2097857Y-2191071D01*
X2100000Y-2191786D01*
X2103571Y-2191786D01*
X2082143Y-2176786D02*
X2085000Y-2176786D01*
X2086428Y-2177500D01*
X2087143Y-2178214D01*
X2088571Y-2180357D01*
X2089286Y-2183214D01*
X2089286Y-2188929D01*
X2088571Y-2190357D01*
X2087857Y-2191071D01*
X2086428Y-2191786D01*
X2083571Y-2191786D01*
X2082143Y-2191071D01*
X2081428Y-2190357D01*
X2080714Y-2188929D01*
X2080714Y-2185357D01*
X2081428Y-2183929D01*
X2082143Y-2183214D01*
X2083571Y-2182500D01*
X2086428Y-2182500D01*
X2087857Y-2183214D01*
X2088571Y-2183929D01*
X2089286Y-2185357D01*
G04 #@! TO.C,D7*
X1932762Y-2074524D02*
X1932762Y-2064524D01*
X1930381Y-2064524D01*
X1928952Y-2065000D01*
X1928000Y-2065952D01*
X1927524Y-2066905D01*
X1927048Y-2068809D01*
X1927048Y-2070238D01*
X1927524Y-2072143D01*
X1928000Y-2073095D01*
X1928952Y-2074048D01*
X1930381Y-2074524D01*
X1932762Y-2074524D01*
X1918000Y-2064524D02*
X1922762Y-2064524D01*
X1923238Y-2069286D01*
X1922762Y-2068809D01*
X1921809Y-2068333D01*
X1919428Y-2068333D01*
X1918476Y-2068809D01*
X1918000Y-2069286D01*
X1917524Y-2070238D01*
X1917524Y-2072619D01*
X1918000Y-2073571D01*
X1918476Y-2074048D01*
X1919428Y-2074524D01*
X1921809Y-2074524D01*
X1922762Y-2074048D01*
X1923238Y-2073571D01*
X1914667Y-2064524D02*
X1911333Y-2074524D01*
X1908000Y-2064524D01*
X1902762Y-2064524D02*
X1901809Y-2064524D01*
X1900857Y-2065000D01*
X1900381Y-2065476D01*
X1899905Y-2066428D01*
X1899428Y-2068333D01*
X1899428Y-2070714D01*
X1899905Y-2072619D01*
X1900381Y-2073571D01*
X1900857Y-2074048D01*
X1901809Y-2074524D01*
X1902762Y-2074524D01*
X1903714Y-2074048D01*
X1904190Y-2073571D01*
X1904667Y-2072619D01*
X1905143Y-2070714D01*
X1905143Y-2068333D01*
X1904667Y-2066428D01*
X1904190Y-2065476D01*
X1903714Y-2065000D01*
X1902762Y-2064524D01*
X1890381Y-2074524D02*
X1895143Y-2074524D01*
X1895143Y-2064524D01*
X1881809Y-2074524D02*
X1887524Y-2074524D01*
X1884667Y-2074524D02*
X1884667Y-2064524D01*
X1885619Y-2065952D01*
X1886571Y-2066905D01*
X1887524Y-2067381D01*
X1874190Y-2069286D02*
X1872762Y-2069762D01*
X1872286Y-2070238D01*
X1871809Y-2071190D01*
X1871809Y-2072619D01*
X1872286Y-2073571D01*
X1872762Y-2074048D01*
X1873714Y-2074524D01*
X1877524Y-2074524D01*
X1877524Y-2064524D01*
X1874190Y-2064524D01*
X1873238Y-2065000D01*
X1872762Y-2065476D01*
X1872286Y-2066428D01*
X1872286Y-2067381D01*
X1872762Y-2068333D01*
X1873238Y-2068809D01*
X1874190Y-2069286D01*
X1877524Y-2069286D01*
X1868000Y-2065476D02*
X1867524Y-2065000D01*
X1866571Y-2064524D01*
X1864190Y-2064524D01*
X1863238Y-2065000D01*
X1862762Y-2065476D01*
X1862286Y-2066428D01*
X1862286Y-2067381D01*
X1862762Y-2068809D01*
X1868476Y-2074524D01*
X1862286Y-2074524D01*
X1853238Y-2074524D02*
X1858000Y-2074524D01*
X1858000Y-2064524D01*
X1849905Y-2074524D02*
X1849905Y-2064524D01*
X1846095Y-2064524D01*
X1845143Y-2065000D01*
X1844667Y-2065476D01*
X1844190Y-2066428D01*
X1844190Y-2067857D01*
X1844667Y-2068809D01*
X1845143Y-2069286D01*
X1846095Y-2069762D01*
X1849905Y-2069762D01*
X1840857Y-2064524D02*
X1834667Y-2064524D01*
X1838000Y-2068333D01*
X1836571Y-2068333D01*
X1835619Y-2068809D01*
X1835143Y-2069286D01*
X1834667Y-2070238D01*
X1834667Y-2072619D01*
X1835143Y-2073571D01*
X1835619Y-2074048D01*
X1836571Y-2074524D01*
X1839428Y-2074524D01*
X1840381Y-2074048D01*
X1840857Y-2073571D01*
X1830381Y-2070714D02*
X1822762Y-2070714D01*
X1818952Y-2064524D02*
X1812286Y-2064524D01*
X1816571Y-2074524D01*
X1883571Y-2104286D02*
X1883571Y-2089286D01*
X1880000Y-2089286D01*
X1877857Y-2090000D01*
X1876428Y-2091428D01*
X1875714Y-2092857D01*
X1875000Y-2095714D01*
X1875000Y-2097857D01*
X1875714Y-2100714D01*
X1876428Y-2102143D01*
X1877857Y-2103571D01*
X1880000Y-2104286D01*
X1883571Y-2104286D01*
X1870000Y-2089286D02*
X1860000Y-2089286D01*
X1866428Y-2104286D01*
G04 #@! TO.C,D1*
X2781262Y-2475524D02*
X2781262Y-2465524D01*
X2778881Y-2465524D01*
X2777452Y-2466000D01*
X2776500Y-2466952D01*
X2776024Y-2467905D01*
X2775548Y-2469810D01*
X2775548Y-2471238D01*
X2776024Y-2473143D01*
X2776500Y-2474095D01*
X2777452Y-2475048D01*
X2778881Y-2475524D01*
X2781262Y-2475524D01*
X2766500Y-2465524D02*
X2771262Y-2465524D01*
X2771738Y-2470286D01*
X2771262Y-2469810D01*
X2770310Y-2469333D01*
X2767929Y-2469333D01*
X2766976Y-2469810D01*
X2766500Y-2470286D01*
X2766024Y-2471238D01*
X2766024Y-2473619D01*
X2766500Y-2474571D01*
X2766976Y-2475048D01*
X2767929Y-2475524D01*
X2770310Y-2475524D01*
X2771262Y-2475048D01*
X2771738Y-2474571D01*
X2763167Y-2465524D02*
X2759833Y-2475524D01*
X2756500Y-2465524D01*
X2751262Y-2465524D02*
X2750310Y-2465524D01*
X2749357Y-2466000D01*
X2748881Y-2466476D01*
X2748405Y-2467429D01*
X2747929Y-2469333D01*
X2747929Y-2471714D01*
X2748405Y-2473619D01*
X2748881Y-2474571D01*
X2749357Y-2475048D01*
X2750310Y-2475524D01*
X2751262Y-2475524D01*
X2752214Y-2475048D01*
X2752690Y-2474571D01*
X2753167Y-2473619D01*
X2753643Y-2471714D01*
X2753643Y-2469333D01*
X2753167Y-2467429D01*
X2752690Y-2466476D01*
X2752214Y-2466000D01*
X2751262Y-2465524D01*
X2738881Y-2475524D02*
X2743643Y-2475524D01*
X2743643Y-2465524D01*
X2730310Y-2475524D02*
X2736024Y-2475524D01*
X2733167Y-2475524D02*
X2733167Y-2465524D01*
X2734119Y-2466952D01*
X2735071Y-2467905D01*
X2736024Y-2468381D01*
X2722690Y-2470286D02*
X2721262Y-2470762D01*
X2720786Y-2471238D01*
X2720310Y-2472190D01*
X2720310Y-2473619D01*
X2720786Y-2474571D01*
X2721262Y-2475048D01*
X2722214Y-2475524D01*
X2726024Y-2475524D01*
X2726024Y-2465524D01*
X2722690Y-2465524D01*
X2721738Y-2466000D01*
X2721262Y-2466476D01*
X2720786Y-2467429D01*
X2720786Y-2468381D01*
X2721262Y-2469333D01*
X2721738Y-2469810D01*
X2722690Y-2470286D01*
X2726024Y-2470286D01*
X2716500Y-2466476D02*
X2716024Y-2466000D01*
X2715071Y-2465524D01*
X2712690Y-2465524D01*
X2711738Y-2466000D01*
X2711262Y-2466476D01*
X2710786Y-2467429D01*
X2710786Y-2468381D01*
X2711262Y-2469810D01*
X2716976Y-2475524D01*
X2710786Y-2475524D01*
X2701738Y-2475524D02*
X2706500Y-2475524D01*
X2706500Y-2465524D01*
X2698405Y-2475524D02*
X2698405Y-2465524D01*
X2694595Y-2465524D01*
X2693643Y-2466000D01*
X2693167Y-2466476D01*
X2692690Y-2467429D01*
X2692690Y-2468857D01*
X2693167Y-2469810D01*
X2693643Y-2470286D01*
X2694595Y-2470762D01*
X2698405Y-2470762D01*
X2689357Y-2465524D02*
X2683167Y-2465524D01*
X2686500Y-2469333D01*
X2685071Y-2469333D01*
X2684119Y-2469810D01*
X2683643Y-2470286D01*
X2683167Y-2471238D01*
X2683167Y-2473619D01*
X2683643Y-2474571D01*
X2684119Y-2475048D01*
X2685071Y-2475524D01*
X2687929Y-2475524D01*
X2688881Y-2475048D01*
X2689357Y-2474571D01*
X2678881Y-2471714D02*
X2671262Y-2471714D01*
X2667452Y-2465524D02*
X2660786Y-2465524D01*
X2665071Y-2475524D01*
X2708571Y-2441786D02*
X2708571Y-2426786D01*
X2705000Y-2426786D01*
X2702857Y-2427500D01*
X2701429Y-2428929D01*
X2700714Y-2430357D01*
X2700000Y-2433214D01*
X2700000Y-2435357D01*
X2700714Y-2438214D01*
X2701429Y-2439643D01*
X2702857Y-2441071D01*
X2705000Y-2441786D01*
X2708571Y-2441786D01*
X2685714Y-2441786D02*
X2694286Y-2441786D01*
X2690000Y-2441786D02*
X2690000Y-2426786D01*
X2691429Y-2428929D01*
X2692857Y-2430357D01*
X2694286Y-2431071D01*
G04 #@! TO.C,D2*
X2729524Y-2257738D02*
X2719524Y-2257738D01*
X2719524Y-2260119D01*
X2720000Y-2261548D01*
X2720952Y-2262500D01*
X2721905Y-2262976D01*
X2723810Y-2263452D01*
X2725238Y-2263452D01*
X2727143Y-2262976D01*
X2728095Y-2262500D01*
X2729048Y-2261548D01*
X2729524Y-2260119D01*
X2729524Y-2257738D01*
X2719524Y-2272500D02*
X2719524Y-2267738D01*
X2724286Y-2267262D01*
X2723810Y-2267738D01*
X2723333Y-2268690D01*
X2723333Y-2271071D01*
X2723810Y-2272024D01*
X2724286Y-2272500D01*
X2725238Y-2272976D01*
X2727619Y-2272976D01*
X2728571Y-2272500D01*
X2729048Y-2272024D01*
X2729524Y-2271071D01*
X2729524Y-2268690D01*
X2729048Y-2267738D01*
X2728571Y-2267262D01*
X2719524Y-2275833D02*
X2729524Y-2279167D01*
X2719524Y-2282500D01*
X2719524Y-2287738D02*
X2719524Y-2288690D01*
X2720000Y-2289643D01*
X2720476Y-2290119D01*
X2721429Y-2290595D01*
X2723333Y-2291071D01*
X2725714Y-2291071D01*
X2727619Y-2290595D01*
X2728571Y-2290119D01*
X2729048Y-2289643D01*
X2729524Y-2288690D01*
X2729524Y-2287738D01*
X2729048Y-2286786D01*
X2728571Y-2286310D01*
X2727619Y-2285833D01*
X2725714Y-2285357D01*
X2723333Y-2285357D01*
X2721429Y-2285833D01*
X2720476Y-2286310D01*
X2720000Y-2286786D01*
X2719524Y-2287738D01*
X2729524Y-2300119D02*
X2729524Y-2295357D01*
X2719524Y-2295357D01*
X2729524Y-2308690D02*
X2729524Y-2302976D01*
X2729524Y-2305833D02*
X2719524Y-2305833D01*
X2720952Y-2304881D01*
X2721905Y-2303929D01*
X2722381Y-2302976D01*
X2724286Y-2316310D02*
X2724762Y-2317738D01*
X2725238Y-2318214D01*
X2726190Y-2318690D01*
X2727619Y-2318690D01*
X2728571Y-2318214D01*
X2729048Y-2317738D01*
X2729524Y-2316786D01*
X2729524Y-2312976D01*
X2719524Y-2312976D01*
X2719524Y-2316310D01*
X2720000Y-2317262D01*
X2720476Y-2317738D01*
X2721429Y-2318214D01*
X2722381Y-2318214D01*
X2723333Y-2317738D01*
X2723810Y-2317262D01*
X2724286Y-2316310D01*
X2724286Y-2312976D01*
X2720476Y-2322500D02*
X2720000Y-2322976D01*
X2719524Y-2323929D01*
X2719524Y-2326310D01*
X2720000Y-2327262D01*
X2720476Y-2327738D01*
X2721429Y-2328214D01*
X2722381Y-2328214D01*
X2723810Y-2327738D01*
X2729524Y-2322024D01*
X2729524Y-2328214D01*
X2729524Y-2337262D02*
X2729524Y-2332500D01*
X2719524Y-2332500D01*
X2729524Y-2340595D02*
X2719524Y-2340595D01*
X2719524Y-2344405D01*
X2720000Y-2345357D01*
X2720476Y-2345833D01*
X2721429Y-2346310D01*
X2722857Y-2346310D01*
X2723810Y-2345833D01*
X2724286Y-2345357D01*
X2724762Y-2344405D01*
X2724762Y-2340595D01*
X2719524Y-2349643D02*
X2719524Y-2355833D01*
X2723333Y-2352500D01*
X2723333Y-2353929D01*
X2723810Y-2354881D01*
X2724286Y-2355357D01*
X2725238Y-2355833D01*
X2727619Y-2355833D01*
X2728571Y-2355357D01*
X2729048Y-2354881D01*
X2729524Y-2353929D01*
X2729524Y-2351071D01*
X2729048Y-2350119D01*
X2728571Y-2349643D01*
X2725714Y-2360119D02*
X2725714Y-2367738D01*
X2719524Y-2371548D02*
X2719524Y-2378214D01*
X2729524Y-2373929D01*
X2696786Y-2306429D02*
X2681786Y-2306429D01*
X2681786Y-2310000D01*
X2682500Y-2312143D01*
X2683929Y-2313571D01*
X2685357Y-2314286D01*
X2688214Y-2315000D01*
X2690357Y-2315000D01*
X2693214Y-2314286D01*
X2694643Y-2313571D01*
X2696071Y-2312143D01*
X2696786Y-2310000D01*
X2696786Y-2306429D01*
X2683214Y-2320714D02*
X2682500Y-2321429D01*
X2681786Y-2322857D01*
X2681786Y-2326429D01*
X2682500Y-2327857D01*
X2683214Y-2328571D01*
X2684643Y-2329286D01*
X2686071Y-2329286D01*
X2688214Y-2328571D01*
X2696786Y-2320000D01*
X2696786Y-2329286D01*
G04 #@! TO.C,D3*
X2684762Y-1922024D02*
X2684762Y-1912024D01*
X2682381Y-1912024D01*
X2680952Y-1912500D01*
X2680000Y-1913452D01*
X2679524Y-1914405D01*
X2679048Y-1916309D01*
X2679048Y-1917738D01*
X2679524Y-1919643D01*
X2680000Y-1920595D01*
X2680952Y-1921548D01*
X2682381Y-1922024D01*
X2684762Y-1922024D01*
X2670000Y-1912024D02*
X2674762Y-1912024D01*
X2675238Y-1916786D01*
X2674762Y-1916309D01*
X2673810Y-1915833D01*
X2671429Y-1915833D01*
X2670476Y-1916309D01*
X2670000Y-1916786D01*
X2669524Y-1917738D01*
X2669524Y-1920119D01*
X2670000Y-1921071D01*
X2670476Y-1921548D01*
X2671429Y-1922024D01*
X2673810Y-1922024D01*
X2674762Y-1921548D01*
X2675238Y-1921071D01*
X2666667Y-1912024D02*
X2663333Y-1922024D01*
X2660000Y-1912024D01*
X2654762Y-1912024D02*
X2653810Y-1912024D01*
X2652857Y-1912500D01*
X2652381Y-1912976D01*
X2651905Y-1913928D01*
X2651429Y-1915833D01*
X2651429Y-1918214D01*
X2651905Y-1920119D01*
X2652381Y-1921071D01*
X2652857Y-1921548D01*
X2653810Y-1922024D01*
X2654762Y-1922024D01*
X2655714Y-1921548D01*
X2656190Y-1921071D01*
X2656667Y-1920119D01*
X2657143Y-1918214D01*
X2657143Y-1915833D01*
X2656667Y-1913928D01*
X2656190Y-1912976D01*
X2655714Y-1912500D01*
X2654762Y-1912024D01*
X2642381Y-1922024D02*
X2647143Y-1922024D01*
X2647143Y-1912024D01*
X2633810Y-1922024D02*
X2639524Y-1922024D01*
X2636667Y-1922024D02*
X2636667Y-1912024D01*
X2637619Y-1913452D01*
X2638571Y-1914405D01*
X2639524Y-1914881D01*
X2626190Y-1916786D02*
X2624762Y-1917262D01*
X2624286Y-1917738D01*
X2623810Y-1918690D01*
X2623810Y-1920119D01*
X2624286Y-1921071D01*
X2624762Y-1921548D01*
X2625714Y-1922024D01*
X2629524Y-1922024D01*
X2629524Y-1912024D01*
X2626190Y-1912024D01*
X2625238Y-1912500D01*
X2624762Y-1912976D01*
X2624286Y-1913928D01*
X2624286Y-1914881D01*
X2624762Y-1915833D01*
X2625238Y-1916309D01*
X2626190Y-1916786D01*
X2629524Y-1916786D01*
X2620000Y-1912976D02*
X2619524Y-1912500D01*
X2618571Y-1912024D01*
X2616190Y-1912024D01*
X2615238Y-1912500D01*
X2614762Y-1912976D01*
X2614286Y-1913928D01*
X2614286Y-1914881D01*
X2614762Y-1916309D01*
X2620476Y-1922024D01*
X2614286Y-1922024D01*
X2605238Y-1922024D02*
X2610000Y-1922024D01*
X2610000Y-1912024D01*
X2601905Y-1922024D02*
X2601905Y-1912024D01*
X2598095Y-1912024D01*
X2597143Y-1912500D01*
X2596667Y-1912976D01*
X2596190Y-1913928D01*
X2596190Y-1915357D01*
X2596667Y-1916309D01*
X2597143Y-1916786D01*
X2598095Y-1917262D01*
X2601905Y-1917262D01*
X2592857Y-1912024D02*
X2586667Y-1912024D01*
X2590000Y-1915833D01*
X2588571Y-1915833D01*
X2587619Y-1916309D01*
X2587143Y-1916786D01*
X2586667Y-1917738D01*
X2586667Y-1920119D01*
X2587143Y-1921071D01*
X2587619Y-1921548D01*
X2588571Y-1922024D01*
X2591429Y-1922024D01*
X2592381Y-1921548D01*
X2592857Y-1921071D01*
X2582381Y-1918214D02*
X2574762Y-1918214D01*
X2570952Y-1912024D02*
X2564286Y-1912024D01*
X2568571Y-1922024D01*
X2633571Y-1899286D02*
X2633571Y-1884286D01*
X2630000Y-1884286D01*
X2627857Y-1885000D01*
X2626429Y-1886428D01*
X2625714Y-1887857D01*
X2625000Y-1890714D01*
X2625000Y-1892857D01*
X2625714Y-1895714D01*
X2626429Y-1897143D01*
X2627857Y-1898571D01*
X2630000Y-1899286D01*
X2633571Y-1899286D01*
X2620000Y-1884286D02*
X2610714Y-1884286D01*
X2615714Y-1890000D01*
X2613571Y-1890000D01*
X2612143Y-1890714D01*
X2611429Y-1891428D01*
X2610714Y-1892857D01*
X2610714Y-1896428D01*
X2611429Y-1897857D01*
X2612143Y-1898571D01*
X2613571Y-1899286D01*
X2617857Y-1899286D01*
X2619286Y-1898571D01*
X2620000Y-1897857D01*
G04 #@! TO.C,D4*
X2772024Y-1976738D02*
X2762024Y-1976738D01*
X2762024Y-1979119D01*
X2762500Y-1980548D01*
X2763452Y-1981500D01*
X2764405Y-1981976D01*
X2766310Y-1982452D01*
X2767738Y-1982452D01*
X2769643Y-1981976D01*
X2770595Y-1981500D01*
X2771548Y-1980548D01*
X2772024Y-1979119D01*
X2772024Y-1976738D01*
X2762024Y-1991500D02*
X2762024Y-1986738D01*
X2766786Y-1986262D01*
X2766310Y-1986738D01*
X2765833Y-1987690D01*
X2765833Y-1990071D01*
X2766310Y-1991024D01*
X2766786Y-1991500D01*
X2767738Y-1991976D01*
X2770119Y-1991976D01*
X2771071Y-1991500D01*
X2771548Y-1991024D01*
X2772024Y-1990071D01*
X2772024Y-1987690D01*
X2771548Y-1986738D01*
X2771071Y-1986262D01*
X2762024Y-1994833D02*
X2772024Y-1998167D01*
X2762024Y-2001500D01*
X2762024Y-2006738D02*
X2762024Y-2007690D01*
X2762500Y-2008643D01*
X2762976Y-2009119D01*
X2763929Y-2009595D01*
X2765833Y-2010071D01*
X2768214Y-2010071D01*
X2770119Y-2009595D01*
X2771071Y-2009119D01*
X2771548Y-2008643D01*
X2772024Y-2007690D01*
X2772024Y-2006738D01*
X2771548Y-2005786D01*
X2771071Y-2005309D01*
X2770119Y-2004833D01*
X2768214Y-2004357D01*
X2765833Y-2004357D01*
X2763929Y-2004833D01*
X2762976Y-2005309D01*
X2762500Y-2005786D01*
X2762024Y-2006738D01*
X2772024Y-2019119D02*
X2772024Y-2014357D01*
X2762024Y-2014357D01*
X2772024Y-2027690D02*
X2772024Y-2021976D01*
X2772024Y-2024833D02*
X2762024Y-2024833D01*
X2763452Y-2023881D01*
X2764405Y-2022928D01*
X2764881Y-2021976D01*
X2766786Y-2035309D02*
X2767262Y-2036738D01*
X2767738Y-2037214D01*
X2768690Y-2037690D01*
X2770119Y-2037690D01*
X2771071Y-2037214D01*
X2771548Y-2036738D01*
X2772024Y-2035786D01*
X2772024Y-2031976D01*
X2762024Y-2031976D01*
X2762024Y-2035309D01*
X2762500Y-2036262D01*
X2762976Y-2036738D01*
X2763929Y-2037214D01*
X2764881Y-2037214D01*
X2765833Y-2036738D01*
X2766310Y-2036262D01*
X2766786Y-2035309D01*
X2766786Y-2031976D01*
X2762976Y-2041500D02*
X2762500Y-2041976D01*
X2762024Y-2042928D01*
X2762024Y-2045309D01*
X2762500Y-2046262D01*
X2762976Y-2046738D01*
X2763929Y-2047214D01*
X2764881Y-2047214D01*
X2766310Y-2046738D01*
X2772024Y-2041024D01*
X2772024Y-2047214D01*
X2772024Y-2056262D02*
X2772024Y-2051500D01*
X2762024Y-2051500D01*
X2772024Y-2059595D02*
X2762024Y-2059595D01*
X2762024Y-2063405D01*
X2762500Y-2064357D01*
X2762976Y-2064833D01*
X2763929Y-2065309D01*
X2765357Y-2065309D01*
X2766310Y-2064833D01*
X2766786Y-2064357D01*
X2767262Y-2063405D01*
X2767262Y-2059595D01*
X2762024Y-2068643D02*
X2762024Y-2074833D01*
X2765833Y-2071500D01*
X2765833Y-2072928D01*
X2766310Y-2073881D01*
X2766786Y-2074357D01*
X2767738Y-2074833D01*
X2770119Y-2074833D01*
X2771071Y-2074357D01*
X2771548Y-2073881D01*
X2772024Y-2072928D01*
X2772024Y-2070071D01*
X2771548Y-2069119D01*
X2771071Y-2068643D01*
X2768214Y-2079119D02*
X2768214Y-2086738D01*
X2762024Y-2090548D02*
X2762024Y-2097214D01*
X2772024Y-2092928D01*
X2725714Y-2046071D02*
X2740714Y-2046071D01*
X2740714Y-2042500D01*
X2740000Y-2040357D01*
X2738571Y-2038928D01*
X2737143Y-2038214D01*
X2734286Y-2037500D01*
X2732143Y-2037500D01*
X2729286Y-2038214D01*
X2727857Y-2038928D01*
X2726429Y-2040357D01*
X2725714Y-2042500D01*
X2725714Y-2046071D01*
X2735714Y-2024643D02*
X2725714Y-2024643D01*
X2741429Y-2028214D02*
X2730714Y-2031786D01*
X2730714Y-2022500D01*
G04 #@! TO.C,U3*
X1960476Y-2039524D02*
X1965238Y-2039524D01*
X1965238Y-2029524D01*
X1957143Y-2039524D02*
X1957143Y-2029524D01*
X1954762Y-2029524D01*
X1953333Y-2030000D01*
X1952381Y-2030952D01*
X1951905Y-2031905D01*
X1951428Y-2033809D01*
X1951428Y-2035238D01*
X1951905Y-2037143D01*
X1952381Y-2038095D01*
X1953333Y-2039048D01*
X1954762Y-2039524D01*
X1957143Y-2039524D01*
X1945238Y-2029524D02*
X1943333Y-2029524D01*
X1942381Y-2030000D01*
X1941428Y-2030952D01*
X1940952Y-2032857D01*
X1940952Y-2036190D01*
X1941428Y-2038095D01*
X1942381Y-2039048D01*
X1943333Y-2039524D01*
X1945238Y-2039524D01*
X1946190Y-2039048D01*
X1947143Y-2038095D01*
X1947619Y-2036190D01*
X1947619Y-2032857D01*
X1947143Y-2030952D01*
X1946190Y-2030000D01*
X1945238Y-2029524D01*
X1936667Y-2035714D02*
X1929048Y-2035714D01*
X1925238Y-2029524D02*
X1918571Y-2039524D01*
X1918571Y-2029524D02*
X1925238Y-2039524D01*
X1915238Y-2030476D02*
X1914762Y-2030000D01*
X1913809Y-2029524D01*
X1911428Y-2029524D01*
X1910476Y-2030000D01*
X1910000Y-2030476D01*
X1909524Y-2031428D01*
X1909524Y-2032381D01*
X1910000Y-2033809D01*
X1915714Y-2039524D01*
X1909524Y-2039524D01*
X1905714Y-2039048D02*
X1904286Y-2039524D01*
X1901905Y-2039524D01*
X1900952Y-2039048D01*
X1900476Y-2038571D01*
X1900000Y-2037619D01*
X1900000Y-2036667D01*
X1900476Y-2035714D01*
X1900952Y-2035238D01*
X1901905Y-2034762D01*
X1903809Y-2034286D01*
X1904762Y-2033809D01*
X1905238Y-2033333D01*
X1905714Y-2032381D01*
X1905714Y-2031428D01*
X1905238Y-2030476D01*
X1904762Y-2030000D01*
X1903809Y-2029524D01*
X1901428Y-2029524D01*
X1900000Y-2030000D01*
X1893809Y-2029524D02*
X1891905Y-2029524D01*
X1890952Y-2030000D01*
X1890000Y-2030952D01*
X1889524Y-2032857D01*
X1889524Y-2036190D01*
X1890000Y-2038095D01*
X1890952Y-2039048D01*
X1891905Y-2039524D01*
X1893809Y-2039524D01*
X1894762Y-2039048D01*
X1895714Y-2038095D01*
X1896190Y-2036190D01*
X1896190Y-2032857D01*
X1895714Y-2030952D01*
X1894762Y-2030000D01*
X1893809Y-2029524D01*
X1885238Y-2039524D02*
X1885238Y-2029524D01*
X1879524Y-2039524D01*
X1879524Y-2029524D01*
X1874762Y-2035714D02*
X1867143Y-2035714D01*
X1862857Y-2030476D02*
X1862381Y-2030000D01*
X1861428Y-2029524D01*
X1859048Y-2029524D01*
X1858095Y-2030000D01*
X1857619Y-2030476D01*
X1857143Y-2031428D01*
X1857143Y-2032381D01*
X1857619Y-2033809D01*
X1863333Y-2039524D01*
X1857143Y-2039524D01*
X1852857Y-2038571D02*
X1852381Y-2039048D01*
X1852857Y-2039524D01*
X1853333Y-2039048D01*
X1852857Y-2038571D01*
X1852857Y-2039524D01*
X1843333Y-2029524D02*
X1848095Y-2029524D01*
X1848571Y-2034286D01*
X1848095Y-2033809D01*
X1847143Y-2033333D01*
X1844762Y-2033333D01*
X1843809Y-2033809D01*
X1843333Y-2034286D01*
X1842857Y-2035238D01*
X1842857Y-2037619D01*
X1843333Y-2038571D01*
X1843809Y-2039048D01*
X1844762Y-2039524D01*
X1847143Y-2039524D01*
X1848095Y-2039048D01*
X1848571Y-2038571D01*
X1840000Y-2029524D02*
X1836667Y-2039524D01*
X1833333Y-2029524D01*
D16*
X1915238Y-1959048D02*
X1915238Y-1975238D01*
X1914286Y-1977143D01*
X1913333Y-1978095D01*
X1911428Y-1979048D01*
X1907619Y-1979048D01*
X1905714Y-1978095D01*
X1904762Y-1977143D01*
X1903809Y-1975238D01*
X1903809Y-1959048D01*
X1896190Y-1959048D02*
X1883809Y-1959048D01*
X1890476Y-1966667D01*
X1887619Y-1966667D01*
X1885714Y-1967619D01*
X1884762Y-1968571D01*
X1883809Y-1970476D01*
X1883809Y-1975238D01*
X1884762Y-1977143D01*
X1885714Y-1978095D01*
X1887619Y-1979048D01*
X1893333Y-1979048D01*
X1895238Y-1978095D01*
X1896190Y-1977143D01*
G04 #@! TO.C,C28*
D12*
X2648690Y-2444524D02*
X2647738Y-2444524D01*
X2646786Y-2445000D01*
X2646310Y-2445476D01*
X2645833Y-2446429D01*
X2645357Y-2448333D01*
X2645357Y-2450714D01*
X2645833Y-2452619D01*
X2646310Y-2453571D01*
X2646786Y-2454048D01*
X2647738Y-2454524D01*
X2648690Y-2454524D01*
X2649643Y-2454048D01*
X2650119Y-2453571D01*
X2650595Y-2452619D01*
X2651071Y-2450714D01*
X2651071Y-2448333D01*
X2650595Y-2446429D01*
X2650119Y-2445476D01*
X2649643Y-2445000D01*
X2648690Y-2444524D01*
X2641548Y-2445476D02*
X2641071Y-2445000D01*
X2640119Y-2444524D01*
X2637738Y-2444524D01*
X2636786Y-2445000D01*
X2636310Y-2445476D01*
X2635833Y-2446429D01*
X2635833Y-2447381D01*
X2636310Y-2448810D01*
X2642024Y-2454524D01*
X2635833Y-2454524D01*
X2629643Y-2444524D02*
X2628690Y-2444524D01*
X2627738Y-2445000D01*
X2627262Y-2445476D01*
X2626786Y-2446429D01*
X2626310Y-2448333D01*
X2626310Y-2450714D01*
X2626786Y-2452619D01*
X2627262Y-2453571D01*
X2627738Y-2454048D01*
X2628690Y-2454524D01*
X2629643Y-2454524D01*
X2630595Y-2454048D01*
X2631071Y-2453571D01*
X2631548Y-2452619D01*
X2632024Y-2450714D01*
X2632024Y-2448333D01*
X2631548Y-2446429D01*
X2631071Y-2445476D01*
X2630595Y-2445000D01*
X2629643Y-2444524D01*
X2616786Y-2454524D02*
X2622500Y-2454524D01*
X2619643Y-2454524D02*
X2619643Y-2444524D01*
X2620595Y-2445952D01*
X2621548Y-2446905D01*
X2622500Y-2447381D01*
X2612024Y-2454048D02*
X2612024Y-2454524D01*
X2612500Y-2455476D01*
X2612976Y-2455952D01*
X2594881Y-2454524D02*
X2600595Y-2454524D01*
X2597738Y-2454524D02*
X2597738Y-2444524D01*
X2598690Y-2445952D01*
X2599643Y-2446905D01*
X2600595Y-2447381D01*
X2588690Y-2444524D02*
X2587738Y-2444524D01*
X2586786Y-2445000D01*
X2586310Y-2445476D01*
X2585833Y-2446429D01*
X2585357Y-2448333D01*
X2585357Y-2450714D01*
X2585833Y-2452619D01*
X2586310Y-2453571D01*
X2586786Y-2454048D01*
X2587738Y-2454524D01*
X2588690Y-2454524D01*
X2589643Y-2454048D01*
X2590119Y-2453571D01*
X2590595Y-2452619D01*
X2591071Y-2450714D01*
X2591071Y-2448333D01*
X2590595Y-2446429D01*
X2590119Y-2445476D01*
X2589643Y-2445000D01*
X2588690Y-2444524D01*
X2579167Y-2444524D02*
X2578214Y-2444524D01*
X2577262Y-2445000D01*
X2576786Y-2445476D01*
X2576310Y-2446429D01*
X2575833Y-2448333D01*
X2575833Y-2450714D01*
X2576310Y-2452619D01*
X2576786Y-2453571D01*
X2577262Y-2454048D01*
X2578214Y-2454524D01*
X2579167Y-2454524D01*
X2580119Y-2454048D01*
X2580595Y-2453571D01*
X2581071Y-2452619D01*
X2581548Y-2450714D01*
X2581548Y-2448333D01*
X2581071Y-2446429D01*
X2580595Y-2445476D01*
X2580119Y-2445000D01*
X2579167Y-2444524D01*
X2571548Y-2447857D02*
X2571548Y-2454524D01*
X2571548Y-2448810D02*
X2571071Y-2448333D01*
X2570119Y-2447857D01*
X2568690Y-2447857D01*
X2567738Y-2448333D01*
X2567262Y-2449286D01*
X2567262Y-2454524D01*
X2559167Y-2449286D02*
X2562500Y-2449286D01*
X2562500Y-2454524D02*
X2562500Y-2444524D01*
X2557738Y-2444524D01*
X2553452Y-2454048D02*
X2553452Y-2454524D01*
X2553929Y-2455476D01*
X2554405Y-2455952D01*
X2536310Y-2454524D02*
X2542024Y-2454524D01*
X2539167Y-2454524D02*
X2539167Y-2444524D01*
X2540119Y-2445952D01*
X2541071Y-2446905D01*
X2542024Y-2447381D01*
X2530119Y-2444524D02*
X2529167Y-2444524D01*
X2528214Y-2445000D01*
X2527738Y-2445476D01*
X2527262Y-2446429D01*
X2526786Y-2448333D01*
X2526786Y-2450714D01*
X2527262Y-2452619D01*
X2527738Y-2453571D01*
X2528214Y-2454048D01*
X2529167Y-2454524D01*
X2530119Y-2454524D01*
X2531071Y-2454048D01*
X2531548Y-2453571D01*
X2532024Y-2452619D01*
X2532500Y-2450714D01*
X2532500Y-2448333D01*
X2532024Y-2446429D01*
X2531548Y-2445476D01*
X2531071Y-2445000D01*
X2530119Y-2444524D01*
X2523929Y-2444524D02*
X2520595Y-2454524D01*
X2517262Y-2444524D01*
X2513452Y-2454048D02*
X2513452Y-2454524D01*
X2513929Y-2455476D01*
X2514405Y-2455952D01*
X2502500Y-2444524D02*
X2495833Y-2454524D01*
X2495833Y-2444524D02*
X2502500Y-2454524D01*
X2487262Y-2444524D02*
X2492024Y-2444524D01*
X2492500Y-2449286D01*
X2492024Y-2448810D01*
X2491071Y-2448333D01*
X2488690Y-2448333D01*
X2487738Y-2448810D01*
X2487262Y-2449286D01*
X2486786Y-2450238D01*
X2486786Y-2452619D01*
X2487262Y-2453571D01*
X2487738Y-2454048D01*
X2488690Y-2454524D01*
X2491071Y-2454524D01*
X2492024Y-2454048D01*
X2492500Y-2453571D01*
X2476786Y-2454524D02*
X2480119Y-2449762D01*
X2482500Y-2454524D02*
X2482500Y-2444524D01*
X2478690Y-2444524D01*
X2477738Y-2445000D01*
X2477262Y-2445476D01*
X2476786Y-2446429D01*
X2476786Y-2447857D01*
X2477262Y-2448810D01*
X2477738Y-2449286D01*
X2478690Y-2449762D01*
X2482500Y-2449762D01*
X2472024Y-2454048D02*
X2472024Y-2454524D01*
X2472500Y-2455476D01*
X2472976Y-2455952D01*
X2460595Y-2445476D02*
X2460119Y-2445000D01*
X2459167Y-2444524D01*
X2456786Y-2444524D01*
X2455833Y-2445000D01*
X2455357Y-2445476D01*
X2454881Y-2446429D01*
X2454881Y-2447381D01*
X2455357Y-2448810D01*
X2461071Y-2454524D01*
X2454881Y-2454524D01*
X2448690Y-2444524D02*
X2447738Y-2444524D01*
X2446786Y-2445000D01*
X2446310Y-2445476D01*
X2445833Y-2446429D01*
X2445357Y-2448333D01*
X2445357Y-2450714D01*
X2445833Y-2452619D01*
X2446310Y-2453571D01*
X2446786Y-2454048D01*
X2447738Y-2454524D01*
X2448690Y-2454524D01*
X2449643Y-2454048D01*
X2450119Y-2453571D01*
X2450595Y-2452619D01*
X2451071Y-2450714D01*
X2451071Y-2448333D01*
X2450595Y-2446429D01*
X2450119Y-2445476D01*
X2449643Y-2445000D01*
X2448690Y-2444524D01*
X2441548Y-2454524D02*
X2433929Y-2444524D01*
X2440119Y-2444524D02*
X2439167Y-2445000D01*
X2438690Y-2445952D01*
X2439167Y-2446905D01*
X2440119Y-2447381D01*
X2441071Y-2446905D01*
X2441548Y-2445952D01*
X2441071Y-2445000D01*
X2440119Y-2444524D01*
X2434405Y-2454048D02*
X2433929Y-2453095D01*
X2434405Y-2452143D01*
X2435357Y-2451667D01*
X2436310Y-2452143D01*
X2436786Y-2453095D01*
X2436310Y-2454048D01*
X2435357Y-2454524D01*
X2434405Y-2454048D01*
X2556429Y-2423571D02*
X2556905Y-2424048D01*
X2558333Y-2424524D01*
X2559286Y-2424524D01*
X2560714Y-2424048D01*
X2561667Y-2423095D01*
X2562143Y-2422143D01*
X2562619Y-2420238D01*
X2562619Y-2418810D01*
X2562143Y-2416905D01*
X2561667Y-2415952D01*
X2560714Y-2415000D01*
X2559286Y-2414524D01*
X2558333Y-2414524D01*
X2556905Y-2415000D01*
X2556429Y-2415476D01*
X2552619Y-2415476D02*
X2552143Y-2415000D01*
X2551190Y-2414524D01*
X2548810Y-2414524D01*
X2547857Y-2415000D01*
X2547381Y-2415476D01*
X2546905Y-2416429D01*
X2546905Y-2417381D01*
X2547381Y-2418810D01*
X2553095Y-2424524D01*
X2546905Y-2424524D01*
X2541190Y-2418810D02*
X2542143Y-2418333D01*
X2542619Y-2417857D01*
X2543095Y-2416905D01*
X2543095Y-2416429D01*
X2542619Y-2415476D01*
X2542143Y-2415000D01*
X2541190Y-2414524D01*
X2539286Y-2414524D01*
X2538333Y-2415000D01*
X2537857Y-2415476D01*
X2537381Y-2416429D01*
X2537381Y-2416905D01*
X2537857Y-2417857D01*
X2538333Y-2418333D01*
X2539286Y-2418810D01*
X2541190Y-2418810D01*
X2542143Y-2419286D01*
X2542619Y-2419762D01*
X2543095Y-2420714D01*
X2543095Y-2422619D01*
X2542619Y-2423571D01*
X2542143Y-2424048D01*
X2541190Y-2424524D01*
X2539286Y-2424524D01*
X2538333Y-2424048D01*
X2537857Y-2423571D01*
X2537381Y-2422619D01*
X2537381Y-2420714D01*
X2537857Y-2419762D01*
X2538333Y-2419286D01*
X2539286Y-2418810D01*
G04 #@! TO.C,U2*
X1957976Y-2439524D02*
X1962738Y-2439524D01*
X1962738Y-2429524D01*
X1954643Y-2439524D02*
X1954643Y-2429524D01*
X1952262Y-2429524D01*
X1950833Y-2430000D01*
X1949881Y-2430952D01*
X1949405Y-2431905D01*
X1948928Y-2433810D01*
X1948928Y-2435238D01*
X1949405Y-2437143D01*
X1949881Y-2438095D01*
X1950833Y-2439048D01*
X1952262Y-2439524D01*
X1954643Y-2439524D01*
X1942738Y-2429524D02*
X1940833Y-2429524D01*
X1939881Y-2430000D01*
X1938928Y-2430952D01*
X1938452Y-2432857D01*
X1938452Y-2436190D01*
X1938928Y-2438095D01*
X1939881Y-2439048D01*
X1940833Y-2439524D01*
X1942738Y-2439524D01*
X1943690Y-2439048D01*
X1944643Y-2438095D01*
X1945119Y-2436190D01*
X1945119Y-2432857D01*
X1944643Y-2430952D01*
X1943690Y-2430000D01*
X1942738Y-2429524D01*
X1934167Y-2435714D02*
X1926548Y-2435714D01*
X1922738Y-2429524D02*
X1916071Y-2439524D01*
X1916071Y-2429524D02*
X1922738Y-2439524D01*
X1912738Y-2430476D02*
X1912262Y-2430000D01*
X1911309Y-2429524D01*
X1908928Y-2429524D01*
X1907976Y-2430000D01*
X1907500Y-2430476D01*
X1907024Y-2431429D01*
X1907024Y-2432381D01*
X1907500Y-2433810D01*
X1913214Y-2439524D01*
X1907024Y-2439524D01*
X1903214Y-2439048D02*
X1901786Y-2439524D01*
X1899405Y-2439524D01*
X1898452Y-2439048D01*
X1897976Y-2438571D01*
X1897500Y-2437619D01*
X1897500Y-2436667D01*
X1897976Y-2435714D01*
X1898452Y-2435238D01*
X1899405Y-2434762D01*
X1901309Y-2434286D01*
X1902262Y-2433810D01*
X1902738Y-2433333D01*
X1903214Y-2432381D01*
X1903214Y-2431429D01*
X1902738Y-2430476D01*
X1902262Y-2430000D01*
X1901309Y-2429524D01*
X1898928Y-2429524D01*
X1897500Y-2430000D01*
X1891309Y-2429524D02*
X1889405Y-2429524D01*
X1888452Y-2430000D01*
X1887500Y-2430952D01*
X1887024Y-2432857D01*
X1887024Y-2436190D01*
X1887500Y-2438095D01*
X1888452Y-2439048D01*
X1889405Y-2439524D01*
X1891309Y-2439524D01*
X1892262Y-2439048D01*
X1893214Y-2438095D01*
X1893690Y-2436190D01*
X1893690Y-2432857D01*
X1893214Y-2430952D01*
X1892262Y-2430000D01*
X1891309Y-2429524D01*
X1882738Y-2439524D02*
X1882738Y-2429524D01*
X1877024Y-2439524D01*
X1877024Y-2429524D01*
X1872262Y-2435714D02*
X1864643Y-2435714D01*
X1860833Y-2429524D02*
X1854643Y-2429524D01*
X1857976Y-2433333D01*
X1856548Y-2433333D01*
X1855595Y-2433810D01*
X1855119Y-2434286D01*
X1854643Y-2435238D01*
X1854643Y-2437619D01*
X1855119Y-2438571D01*
X1855595Y-2439048D01*
X1856548Y-2439524D01*
X1859405Y-2439524D01*
X1860357Y-2439048D01*
X1860833Y-2438571D01*
X1850357Y-2438571D02*
X1849881Y-2439048D01*
X1850357Y-2439524D01*
X1850833Y-2439048D01*
X1850357Y-2438571D01*
X1850357Y-2439524D01*
X1846548Y-2429524D02*
X1840357Y-2429524D01*
X1843690Y-2433333D01*
X1842262Y-2433333D01*
X1841309Y-2433810D01*
X1840833Y-2434286D01*
X1840357Y-2435238D01*
X1840357Y-2437619D01*
X1840833Y-2438571D01*
X1841309Y-2439048D01*
X1842262Y-2439524D01*
X1845119Y-2439524D01*
X1846071Y-2439048D01*
X1846548Y-2438571D01*
X1837500Y-2429524D02*
X1834167Y-2439524D01*
X1830833Y-2429524D01*
D16*
X1905238Y-2359048D02*
X1905238Y-2375238D01*
X1904286Y-2377143D01*
X1903333Y-2378095D01*
X1901428Y-2379048D01*
X1897619Y-2379048D01*
X1895714Y-2378095D01*
X1894762Y-2377143D01*
X1893809Y-2375238D01*
X1893809Y-2359048D01*
X1885238Y-2360952D02*
X1884286Y-2360000D01*
X1882381Y-2359048D01*
X1877619Y-2359048D01*
X1875714Y-2360000D01*
X1874762Y-2360952D01*
X1873809Y-2362857D01*
X1873809Y-2364762D01*
X1874762Y-2367619D01*
X1886190Y-2379048D01*
X1873809Y-2379048D01*
G04 #@! TO.C,C1*
D12*
X1742024Y-1730833D02*
X1742024Y-1731786D01*
X1742500Y-1732738D01*
X1742976Y-1733214D01*
X1743928Y-1733690D01*
X1745833Y-1734167D01*
X1748214Y-1734167D01*
X1750119Y-1733690D01*
X1751071Y-1733214D01*
X1751548Y-1732738D01*
X1752024Y-1731786D01*
X1752024Y-1730833D01*
X1751548Y-1729881D01*
X1751071Y-1729405D01*
X1750119Y-1728928D01*
X1748214Y-1728452D01*
X1745833Y-1728452D01*
X1743928Y-1728928D01*
X1742976Y-1729405D01*
X1742500Y-1729881D01*
X1742024Y-1730833D01*
X1742976Y-1737976D02*
X1742500Y-1738452D01*
X1742024Y-1739405D01*
X1742024Y-1741786D01*
X1742500Y-1742738D01*
X1742976Y-1743214D01*
X1743928Y-1743690D01*
X1744881Y-1743690D01*
X1746309Y-1743214D01*
X1752024Y-1737500D01*
X1752024Y-1743690D01*
X1742024Y-1749881D02*
X1742024Y-1750833D01*
X1742500Y-1751786D01*
X1742976Y-1752262D01*
X1743928Y-1752738D01*
X1745833Y-1753214D01*
X1748214Y-1753214D01*
X1750119Y-1752738D01*
X1751071Y-1752262D01*
X1751548Y-1751786D01*
X1752024Y-1750833D01*
X1752024Y-1749881D01*
X1751548Y-1748928D01*
X1751071Y-1748452D01*
X1750119Y-1747976D01*
X1748214Y-1747500D01*
X1745833Y-1747500D01*
X1743928Y-1747976D01*
X1742976Y-1748452D01*
X1742500Y-1748928D01*
X1742024Y-1749881D01*
X1752024Y-1762738D02*
X1752024Y-1757024D01*
X1752024Y-1759881D02*
X1742024Y-1759881D01*
X1743452Y-1758928D01*
X1744405Y-1757976D01*
X1744881Y-1757024D01*
X1751548Y-1767500D02*
X1752024Y-1767500D01*
X1752976Y-1767024D01*
X1753452Y-1766548D01*
X1752024Y-1784643D02*
X1752024Y-1778928D01*
X1752024Y-1781786D02*
X1742024Y-1781786D01*
X1743452Y-1780833D01*
X1744405Y-1779881D01*
X1744881Y-1778928D01*
X1745357Y-1793214D02*
X1752024Y-1793214D01*
X1745357Y-1788928D02*
X1750595Y-1788928D01*
X1751548Y-1789405D01*
X1752024Y-1790357D01*
X1752024Y-1791786D01*
X1751548Y-1792738D01*
X1751071Y-1793214D01*
X1746786Y-1801309D02*
X1746786Y-1797976D01*
X1752024Y-1797976D02*
X1742024Y-1797976D01*
X1742024Y-1802738D01*
X1751548Y-1807024D02*
X1752024Y-1807024D01*
X1752976Y-1806548D01*
X1753452Y-1806071D01*
X1752024Y-1824167D02*
X1752024Y-1818452D01*
X1752024Y-1821309D02*
X1742024Y-1821309D01*
X1743452Y-1820357D01*
X1744405Y-1819405D01*
X1744881Y-1818452D01*
X1742024Y-1830357D02*
X1742024Y-1831309D01*
X1742500Y-1832262D01*
X1742976Y-1832738D01*
X1743928Y-1833214D01*
X1745833Y-1833690D01*
X1748214Y-1833690D01*
X1750119Y-1833214D01*
X1751071Y-1832738D01*
X1751548Y-1832262D01*
X1752024Y-1831309D01*
X1752024Y-1830357D01*
X1751548Y-1829405D01*
X1751071Y-1828928D01*
X1750119Y-1828452D01*
X1748214Y-1827976D01*
X1745833Y-1827976D01*
X1743928Y-1828452D01*
X1742976Y-1828928D01*
X1742500Y-1829405D01*
X1742024Y-1830357D01*
X1742024Y-1836548D02*
X1752024Y-1839881D01*
X1742024Y-1843214D01*
X1751548Y-1847024D02*
X1752024Y-1847024D01*
X1752976Y-1846548D01*
X1753452Y-1846071D01*
X1742024Y-1857976D02*
X1752024Y-1864643D01*
X1742024Y-1864643D02*
X1752024Y-1857976D01*
X1742024Y-1873214D02*
X1742024Y-1868452D01*
X1746786Y-1867976D01*
X1746309Y-1868452D01*
X1745833Y-1869405D01*
X1745833Y-1871786D01*
X1746309Y-1872738D01*
X1746786Y-1873214D01*
X1747738Y-1873690D01*
X1750119Y-1873690D01*
X1751071Y-1873214D01*
X1751548Y-1872738D01*
X1752024Y-1871786D01*
X1752024Y-1869405D01*
X1751548Y-1868452D01*
X1751071Y-1867976D01*
X1752024Y-1883690D02*
X1747262Y-1880357D01*
X1752024Y-1877976D02*
X1742024Y-1877976D01*
X1742024Y-1881786D01*
X1742500Y-1882738D01*
X1742976Y-1883214D01*
X1743928Y-1883690D01*
X1745357Y-1883690D01*
X1746309Y-1883214D01*
X1746786Y-1882738D01*
X1747262Y-1881786D01*
X1747262Y-1877976D01*
X1751548Y-1888452D02*
X1752024Y-1888452D01*
X1752976Y-1887976D01*
X1753452Y-1887500D01*
X1742976Y-1899881D02*
X1742500Y-1900357D01*
X1742024Y-1901309D01*
X1742024Y-1903690D01*
X1742500Y-1904643D01*
X1742976Y-1905119D01*
X1743928Y-1905595D01*
X1744881Y-1905595D01*
X1746309Y-1905119D01*
X1752024Y-1899405D01*
X1752024Y-1905595D01*
X1742024Y-1911786D02*
X1742024Y-1912738D01*
X1742500Y-1913690D01*
X1742976Y-1914167D01*
X1743928Y-1914643D01*
X1745833Y-1915119D01*
X1748214Y-1915119D01*
X1750119Y-1914643D01*
X1751071Y-1914167D01*
X1751548Y-1913690D01*
X1752024Y-1912738D01*
X1752024Y-1911786D01*
X1751548Y-1910833D01*
X1751071Y-1910357D01*
X1750119Y-1909881D01*
X1748214Y-1909405D01*
X1745833Y-1909405D01*
X1743928Y-1909881D01*
X1742976Y-1910357D01*
X1742500Y-1910833D01*
X1742024Y-1911786D01*
X1752024Y-1918928D02*
X1742024Y-1926548D01*
X1742024Y-1920357D02*
X1742500Y-1921309D01*
X1743452Y-1921786D01*
X1744405Y-1921309D01*
X1744881Y-1920357D01*
X1744405Y-1919405D01*
X1743452Y-1918928D01*
X1742500Y-1919405D01*
X1742024Y-1920357D01*
X1751548Y-1926071D02*
X1750595Y-1926548D01*
X1749643Y-1926071D01*
X1749167Y-1925119D01*
X1749643Y-1924167D01*
X1750595Y-1923690D01*
X1751548Y-1924167D01*
X1752024Y-1925119D01*
X1751548Y-1926071D01*
X1777571Y-1816833D02*
X1778048Y-1816357D01*
X1778524Y-1814928D01*
X1778524Y-1813976D01*
X1778048Y-1812548D01*
X1777095Y-1811595D01*
X1776143Y-1811119D01*
X1774238Y-1810643D01*
X1772809Y-1810643D01*
X1770905Y-1811119D01*
X1769952Y-1811595D01*
X1769000Y-1812548D01*
X1768524Y-1813976D01*
X1768524Y-1814928D01*
X1769000Y-1816357D01*
X1769476Y-1816833D01*
X1778524Y-1826357D02*
X1778524Y-1820643D01*
X1778524Y-1823500D02*
X1768524Y-1823500D01*
X1769952Y-1822548D01*
X1770905Y-1821595D01*
X1771381Y-1820643D01*
G04 #@! TO.C,C11*
X2516190Y-1797024D02*
X2515238Y-1797024D01*
X2514286Y-1797500D01*
X2513810Y-1797976D01*
X2513333Y-1798928D01*
X2512857Y-1800833D01*
X2512857Y-1803214D01*
X2513333Y-1805119D01*
X2513810Y-1806071D01*
X2514286Y-1806548D01*
X2515238Y-1807024D01*
X2516190Y-1807024D01*
X2517143Y-1806548D01*
X2517619Y-1806071D01*
X2518095Y-1805119D01*
X2518571Y-1803214D01*
X2518571Y-1800833D01*
X2518095Y-1798928D01*
X2517619Y-1797976D01*
X2517143Y-1797500D01*
X2516190Y-1797024D01*
X2509048Y-1797976D02*
X2508571Y-1797500D01*
X2507619Y-1797024D01*
X2505238Y-1797024D01*
X2504286Y-1797500D01*
X2503810Y-1797976D01*
X2503333Y-1798928D01*
X2503333Y-1799881D01*
X2503810Y-1801309D01*
X2509524Y-1807024D01*
X2503333Y-1807024D01*
X2497143Y-1797024D02*
X2496190Y-1797024D01*
X2495238Y-1797500D01*
X2494762Y-1797976D01*
X2494286Y-1798928D01*
X2493810Y-1800833D01*
X2493810Y-1803214D01*
X2494286Y-1805119D01*
X2494762Y-1806071D01*
X2495238Y-1806548D01*
X2496190Y-1807024D01*
X2497143Y-1807024D01*
X2498095Y-1806548D01*
X2498571Y-1806071D01*
X2499048Y-1805119D01*
X2499524Y-1803214D01*
X2499524Y-1800833D01*
X2499048Y-1798928D01*
X2498571Y-1797976D01*
X2498095Y-1797500D01*
X2497143Y-1797024D01*
X2484286Y-1807024D02*
X2490000Y-1807024D01*
X2487143Y-1807024D02*
X2487143Y-1797024D01*
X2488095Y-1798452D01*
X2489048Y-1799405D01*
X2490000Y-1799881D01*
X2479524Y-1806548D02*
X2479524Y-1807024D01*
X2480000Y-1807976D01*
X2480476Y-1808452D01*
X2462381Y-1807024D02*
X2468095Y-1807024D01*
X2465238Y-1807024D02*
X2465238Y-1797024D01*
X2466190Y-1798452D01*
X2467143Y-1799405D01*
X2468095Y-1799881D01*
X2456190Y-1797024D02*
X2455238Y-1797024D01*
X2454286Y-1797500D01*
X2453810Y-1797976D01*
X2453333Y-1798928D01*
X2452857Y-1800833D01*
X2452857Y-1803214D01*
X2453333Y-1805119D01*
X2453810Y-1806071D01*
X2454286Y-1806548D01*
X2455238Y-1807024D01*
X2456190Y-1807024D01*
X2457143Y-1806548D01*
X2457619Y-1806071D01*
X2458095Y-1805119D01*
X2458571Y-1803214D01*
X2458571Y-1800833D01*
X2458095Y-1798928D01*
X2457619Y-1797976D01*
X2457143Y-1797500D01*
X2456190Y-1797024D01*
X2446667Y-1797024D02*
X2445714Y-1797024D01*
X2444762Y-1797500D01*
X2444286Y-1797976D01*
X2443810Y-1798928D01*
X2443333Y-1800833D01*
X2443333Y-1803214D01*
X2443810Y-1805119D01*
X2444286Y-1806071D01*
X2444762Y-1806548D01*
X2445714Y-1807024D01*
X2446667Y-1807024D01*
X2447619Y-1806548D01*
X2448095Y-1806071D01*
X2448571Y-1805119D01*
X2449048Y-1803214D01*
X2449048Y-1800833D01*
X2448571Y-1798928D01*
X2448095Y-1797976D01*
X2447619Y-1797500D01*
X2446667Y-1797024D01*
X2439048Y-1800357D02*
X2439048Y-1807024D01*
X2439048Y-1801309D02*
X2438571Y-1800833D01*
X2437619Y-1800357D01*
X2436190Y-1800357D01*
X2435238Y-1800833D01*
X2434762Y-1801786D01*
X2434762Y-1807024D01*
X2426667Y-1801786D02*
X2430000Y-1801786D01*
X2430000Y-1807024D02*
X2430000Y-1797024D01*
X2425238Y-1797024D01*
X2420952Y-1806548D02*
X2420952Y-1807024D01*
X2421429Y-1807976D01*
X2421905Y-1808452D01*
X2403810Y-1807024D02*
X2409524Y-1807024D01*
X2406667Y-1807024D02*
X2406667Y-1797024D01*
X2407619Y-1798452D01*
X2408571Y-1799405D01*
X2409524Y-1799881D01*
X2397619Y-1797024D02*
X2396667Y-1797024D01*
X2395714Y-1797500D01*
X2395238Y-1797976D01*
X2394762Y-1798928D01*
X2394286Y-1800833D01*
X2394286Y-1803214D01*
X2394762Y-1805119D01*
X2395238Y-1806071D01*
X2395714Y-1806548D01*
X2396667Y-1807024D01*
X2397619Y-1807024D01*
X2398571Y-1806548D01*
X2399048Y-1806071D01*
X2399524Y-1805119D01*
X2400000Y-1803214D01*
X2400000Y-1800833D01*
X2399524Y-1798928D01*
X2399048Y-1797976D01*
X2398571Y-1797500D01*
X2397619Y-1797024D01*
X2391429Y-1797024D02*
X2388095Y-1807024D01*
X2384762Y-1797024D01*
X2380952Y-1806548D02*
X2380952Y-1807024D01*
X2381429Y-1807976D01*
X2381905Y-1808452D01*
X2370000Y-1797024D02*
X2363333Y-1807024D01*
X2363333Y-1797024D02*
X2370000Y-1807024D01*
X2354762Y-1797024D02*
X2359524Y-1797024D01*
X2360000Y-1801786D01*
X2359524Y-1801309D01*
X2358571Y-1800833D01*
X2356190Y-1800833D01*
X2355238Y-1801309D01*
X2354762Y-1801786D01*
X2354286Y-1802738D01*
X2354286Y-1805119D01*
X2354762Y-1806071D01*
X2355238Y-1806548D01*
X2356190Y-1807024D01*
X2358571Y-1807024D01*
X2359524Y-1806548D01*
X2360000Y-1806071D01*
X2344286Y-1807024D02*
X2347619Y-1802262D01*
X2350000Y-1807024D02*
X2350000Y-1797024D01*
X2346190Y-1797024D01*
X2345238Y-1797500D01*
X2344762Y-1797976D01*
X2344286Y-1798928D01*
X2344286Y-1800357D01*
X2344762Y-1801309D01*
X2345238Y-1801786D01*
X2346190Y-1802262D01*
X2350000Y-1802262D01*
X2339524Y-1806548D02*
X2339524Y-1807024D01*
X2340000Y-1807976D01*
X2340476Y-1808452D01*
X2328095Y-1797976D02*
X2327619Y-1797500D01*
X2326667Y-1797024D01*
X2324286Y-1797024D01*
X2323333Y-1797500D01*
X2322857Y-1797976D01*
X2322381Y-1798928D01*
X2322381Y-1799881D01*
X2322857Y-1801309D01*
X2328571Y-1807024D01*
X2322381Y-1807024D01*
X2316190Y-1797024D02*
X2315238Y-1797024D01*
X2314286Y-1797500D01*
X2313810Y-1797976D01*
X2313333Y-1798928D01*
X2312857Y-1800833D01*
X2312857Y-1803214D01*
X2313333Y-1805119D01*
X2313810Y-1806071D01*
X2314286Y-1806548D01*
X2315238Y-1807024D01*
X2316190Y-1807024D01*
X2317143Y-1806548D01*
X2317619Y-1806071D01*
X2318095Y-1805119D01*
X2318571Y-1803214D01*
X2318571Y-1800833D01*
X2318095Y-1798928D01*
X2317619Y-1797976D01*
X2317143Y-1797500D01*
X2316190Y-1797024D01*
X2309048Y-1807024D02*
X2301429Y-1797024D01*
X2307619Y-1797024D02*
X2306667Y-1797500D01*
X2306190Y-1798452D01*
X2306667Y-1799405D01*
X2307619Y-1799881D01*
X2308571Y-1799405D01*
X2309048Y-1798452D01*
X2308571Y-1797500D01*
X2307619Y-1797024D01*
X2301905Y-1806548D02*
X2301429Y-1805595D01*
X2301905Y-1804643D01*
X2302857Y-1804167D01*
X2303810Y-1804643D01*
X2304286Y-1805595D01*
X2303810Y-1806548D01*
X2302857Y-1807024D01*
X2301905Y-1806548D01*
X2417429Y-1778071D02*
X2417905Y-1778548D01*
X2419333Y-1779024D01*
X2420286Y-1779024D01*
X2421714Y-1778548D01*
X2422667Y-1777595D01*
X2423143Y-1776643D01*
X2423619Y-1774738D01*
X2423619Y-1773309D01*
X2423143Y-1771405D01*
X2422667Y-1770452D01*
X2421714Y-1769500D01*
X2420286Y-1769024D01*
X2419333Y-1769024D01*
X2417905Y-1769500D01*
X2417429Y-1769976D01*
X2407905Y-1779024D02*
X2413619Y-1779024D01*
X2410762Y-1779024D02*
X2410762Y-1769024D01*
X2411714Y-1770452D01*
X2412667Y-1771405D01*
X2413619Y-1771881D01*
X2398381Y-1779024D02*
X2404095Y-1779024D01*
X2401238Y-1779024D02*
X2401238Y-1769024D01*
X2402190Y-1770452D01*
X2403143Y-1771405D01*
X2404095Y-1771881D01*
G04 #@! TO.C,C17*
X2162024Y-2025833D02*
X2162024Y-2026786D01*
X2162500Y-2027738D01*
X2162976Y-2028214D01*
X2163929Y-2028690D01*
X2165833Y-2029167D01*
X2168214Y-2029167D01*
X2170119Y-2028690D01*
X2171071Y-2028214D01*
X2171548Y-2027738D01*
X2172024Y-2026786D01*
X2172024Y-2025833D01*
X2171548Y-2024881D01*
X2171071Y-2024405D01*
X2170119Y-2023928D01*
X2168214Y-2023452D01*
X2165833Y-2023452D01*
X2163929Y-2023928D01*
X2162976Y-2024405D01*
X2162500Y-2024881D01*
X2162024Y-2025833D01*
X2162976Y-2032976D02*
X2162500Y-2033452D01*
X2162024Y-2034405D01*
X2162024Y-2036786D01*
X2162500Y-2037738D01*
X2162976Y-2038214D01*
X2163929Y-2038690D01*
X2164881Y-2038690D01*
X2166310Y-2038214D01*
X2172024Y-2032500D01*
X2172024Y-2038690D01*
X2162024Y-2044881D02*
X2162024Y-2045833D01*
X2162500Y-2046786D01*
X2162976Y-2047262D01*
X2163929Y-2047738D01*
X2165833Y-2048214D01*
X2168214Y-2048214D01*
X2170119Y-2047738D01*
X2171071Y-2047262D01*
X2171548Y-2046786D01*
X2172024Y-2045833D01*
X2172024Y-2044881D01*
X2171548Y-2043928D01*
X2171071Y-2043452D01*
X2170119Y-2042976D01*
X2168214Y-2042500D01*
X2165833Y-2042500D01*
X2163929Y-2042976D01*
X2162976Y-2043452D01*
X2162500Y-2043928D01*
X2162024Y-2044881D01*
X2172024Y-2057738D02*
X2172024Y-2052024D01*
X2172024Y-2054881D02*
X2162024Y-2054881D01*
X2163452Y-2053928D01*
X2164405Y-2052976D01*
X2164881Y-2052024D01*
X2171548Y-2062500D02*
X2172024Y-2062500D01*
X2172976Y-2062024D01*
X2173452Y-2061548D01*
X2172024Y-2079643D02*
X2172024Y-2073928D01*
X2172024Y-2076786D02*
X2162024Y-2076786D01*
X2163452Y-2075833D01*
X2164405Y-2074881D01*
X2164881Y-2073928D01*
X2165357Y-2088214D02*
X2172024Y-2088214D01*
X2165357Y-2083928D02*
X2170595Y-2083928D01*
X2171548Y-2084405D01*
X2172024Y-2085357D01*
X2172024Y-2086786D01*
X2171548Y-2087738D01*
X2171071Y-2088214D01*
X2166786Y-2096309D02*
X2166786Y-2092976D01*
X2172024Y-2092976D02*
X2162024Y-2092976D01*
X2162024Y-2097738D01*
X2171548Y-2102024D02*
X2172024Y-2102024D01*
X2172976Y-2101548D01*
X2173452Y-2101071D01*
X2172024Y-2119167D02*
X2172024Y-2113452D01*
X2172024Y-2116310D02*
X2162024Y-2116310D01*
X2163452Y-2115357D01*
X2164405Y-2114405D01*
X2164881Y-2113452D01*
X2162024Y-2125357D02*
X2162024Y-2126310D01*
X2162500Y-2127262D01*
X2162976Y-2127738D01*
X2163929Y-2128214D01*
X2165833Y-2128690D01*
X2168214Y-2128690D01*
X2170119Y-2128214D01*
X2171071Y-2127738D01*
X2171548Y-2127262D01*
X2172024Y-2126310D01*
X2172024Y-2125357D01*
X2171548Y-2124405D01*
X2171071Y-2123929D01*
X2170119Y-2123452D01*
X2168214Y-2122976D01*
X2165833Y-2122976D01*
X2163929Y-2123452D01*
X2162976Y-2123929D01*
X2162500Y-2124405D01*
X2162024Y-2125357D01*
X2162024Y-2131548D02*
X2172024Y-2134881D01*
X2162024Y-2138214D01*
X2171548Y-2142024D02*
X2172024Y-2142024D01*
X2172976Y-2141548D01*
X2173452Y-2141071D01*
X2162024Y-2152976D02*
X2172024Y-2159643D01*
X2162024Y-2159643D02*
X2172024Y-2152976D01*
X2162024Y-2168214D02*
X2162024Y-2163452D01*
X2166786Y-2162976D01*
X2166310Y-2163452D01*
X2165833Y-2164405D01*
X2165833Y-2166786D01*
X2166310Y-2167738D01*
X2166786Y-2168214D01*
X2167738Y-2168690D01*
X2170119Y-2168690D01*
X2171071Y-2168214D01*
X2171548Y-2167738D01*
X2172024Y-2166786D01*
X2172024Y-2164405D01*
X2171548Y-2163452D01*
X2171071Y-2162976D01*
X2172024Y-2178690D02*
X2167262Y-2175357D01*
X2172024Y-2172976D02*
X2162024Y-2172976D01*
X2162024Y-2176786D01*
X2162500Y-2177738D01*
X2162976Y-2178214D01*
X2163929Y-2178690D01*
X2165357Y-2178690D01*
X2166310Y-2178214D01*
X2166786Y-2177738D01*
X2167262Y-2176786D01*
X2167262Y-2172976D01*
X2171548Y-2183452D02*
X2172024Y-2183452D01*
X2172976Y-2182976D01*
X2173452Y-2182500D01*
X2162976Y-2194881D02*
X2162500Y-2195357D01*
X2162024Y-2196310D01*
X2162024Y-2198690D01*
X2162500Y-2199643D01*
X2162976Y-2200119D01*
X2163929Y-2200595D01*
X2164881Y-2200595D01*
X2166310Y-2200119D01*
X2172024Y-2194405D01*
X2172024Y-2200595D01*
X2162024Y-2206786D02*
X2162024Y-2207738D01*
X2162500Y-2208690D01*
X2162976Y-2209167D01*
X2163929Y-2209643D01*
X2165833Y-2210119D01*
X2168214Y-2210119D01*
X2170119Y-2209643D01*
X2171071Y-2209167D01*
X2171548Y-2208690D01*
X2172024Y-2207738D01*
X2172024Y-2206786D01*
X2171548Y-2205833D01*
X2171071Y-2205357D01*
X2170119Y-2204881D01*
X2168214Y-2204405D01*
X2165833Y-2204405D01*
X2163929Y-2204881D01*
X2162976Y-2205357D01*
X2162500Y-2205833D01*
X2162024Y-2206786D01*
X2172024Y-2213929D02*
X2162024Y-2221548D01*
X2162024Y-2215357D02*
X2162500Y-2216310D01*
X2163452Y-2216786D01*
X2164405Y-2216310D01*
X2164881Y-2215357D01*
X2164405Y-2214405D01*
X2163452Y-2213929D01*
X2162500Y-2214405D01*
X2162024Y-2215357D01*
X2171548Y-2221071D02*
X2170595Y-2221548D01*
X2169643Y-2221071D01*
X2169167Y-2220119D01*
X2169643Y-2219167D01*
X2170595Y-2218690D01*
X2171548Y-2219167D01*
X2172024Y-2220119D01*
X2171548Y-2221071D01*
X2213571Y-2116071D02*
X2214048Y-2115595D01*
X2214524Y-2114167D01*
X2214524Y-2113214D01*
X2214048Y-2111786D01*
X2213095Y-2110833D01*
X2212143Y-2110357D01*
X2210238Y-2109881D01*
X2208810Y-2109881D01*
X2206905Y-2110357D01*
X2205952Y-2110833D01*
X2205000Y-2111786D01*
X2204524Y-2113214D01*
X2204524Y-2114167D01*
X2205000Y-2115595D01*
X2205476Y-2116071D01*
X2214524Y-2125595D02*
X2214524Y-2119881D01*
X2214524Y-2122738D02*
X2204524Y-2122738D01*
X2205952Y-2121786D01*
X2206905Y-2120833D01*
X2207381Y-2119881D01*
X2204524Y-2128929D02*
X2204524Y-2135595D01*
X2214524Y-2131310D01*
G04 #@! TO.C,C20*
X2302024Y-2006309D02*
X2302024Y-2007262D01*
X2302500Y-2008214D01*
X2302976Y-2008690D01*
X2303929Y-2009167D01*
X2305833Y-2009643D01*
X2308214Y-2009643D01*
X2310119Y-2009167D01*
X2311071Y-2008690D01*
X2311548Y-2008214D01*
X2312024Y-2007262D01*
X2312024Y-2006309D01*
X2311548Y-2005357D01*
X2311071Y-2004881D01*
X2310119Y-2004405D01*
X2308214Y-2003928D01*
X2305833Y-2003928D01*
X2303929Y-2004405D01*
X2302976Y-2004881D01*
X2302500Y-2005357D01*
X2302024Y-2006309D01*
X2302976Y-2013452D02*
X2302500Y-2013928D01*
X2302024Y-2014881D01*
X2302024Y-2017262D01*
X2302500Y-2018214D01*
X2302976Y-2018690D01*
X2303929Y-2019167D01*
X2304881Y-2019167D01*
X2306310Y-2018690D01*
X2312024Y-2012976D01*
X2312024Y-2019167D01*
X2302024Y-2025357D02*
X2302024Y-2026309D01*
X2302500Y-2027262D01*
X2302976Y-2027738D01*
X2303929Y-2028214D01*
X2305833Y-2028690D01*
X2308214Y-2028690D01*
X2310119Y-2028214D01*
X2311071Y-2027738D01*
X2311548Y-2027262D01*
X2312024Y-2026309D01*
X2312024Y-2025357D01*
X2311548Y-2024405D01*
X2311071Y-2023928D01*
X2310119Y-2023452D01*
X2308214Y-2022976D01*
X2305833Y-2022976D01*
X2303929Y-2023452D01*
X2302976Y-2023928D01*
X2302500Y-2024405D01*
X2302024Y-2025357D01*
X2312024Y-2038214D02*
X2312024Y-2032500D01*
X2312024Y-2035357D02*
X2302024Y-2035357D01*
X2303452Y-2034405D01*
X2304405Y-2033452D01*
X2304881Y-2032500D01*
X2311548Y-2042976D02*
X2312024Y-2042976D01*
X2312976Y-2042500D01*
X2313452Y-2042024D01*
X2312024Y-2060119D02*
X2312024Y-2054405D01*
X2312024Y-2057262D02*
X2302024Y-2057262D01*
X2303452Y-2056309D01*
X2304405Y-2055357D01*
X2304881Y-2054405D01*
X2302024Y-2066309D02*
X2302024Y-2067262D01*
X2302500Y-2068214D01*
X2302976Y-2068690D01*
X2303929Y-2069167D01*
X2305833Y-2069643D01*
X2308214Y-2069643D01*
X2310119Y-2069167D01*
X2311071Y-2068690D01*
X2311548Y-2068214D01*
X2312024Y-2067262D01*
X2312024Y-2066309D01*
X2311548Y-2065357D01*
X2311071Y-2064881D01*
X2310119Y-2064405D01*
X2308214Y-2063928D01*
X2305833Y-2063928D01*
X2303929Y-2064405D01*
X2302976Y-2064881D01*
X2302500Y-2065357D01*
X2302024Y-2066309D01*
X2302024Y-2075833D02*
X2302024Y-2076786D01*
X2302500Y-2077738D01*
X2302976Y-2078214D01*
X2303929Y-2078690D01*
X2305833Y-2079167D01*
X2308214Y-2079167D01*
X2310119Y-2078690D01*
X2311071Y-2078214D01*
X2311548Y-2077738D01*
X2312024Y-2076786D01*
X2312024Y-2075833D01*
X2311548Y-2074881D01*
X2311071Y-2074405D01*
X2310119Y-2073928D01*
X2308214Y-2073452D01*
X2305833Y-2073452D01*
X2303929Y-2073928D01*
X2302976Y-2074405D01*
X2302500Y-2074881D01*
X2302024Y-2075833D01*
X2305357Y-2083452D02*
X2312024Y-2083452D01*
X2306310Y-2083452D02*
X2305833Y-2083928D01*
X2305357Y-2084881D01*
X2305357Y-2086309D01*
X2305833Y-2087262D01*
X2306786Y-2087738D01*
X2312024Y-2087738D01*
X2306786Y-2095833D02*
X2306786Y-2092500D01*
X2312024Y-2092500D02*
X2302024Y-2092500D01*
X2302024Y-2097262D01*
X2311548Y-2101548D02*
X2312024Y-2101548D01*
X2312976Y-2101071D01*
X2313452Y-2100595D01*
X2312024Y-2118690D02*
X2312024Y-2112976D01*
X2312024Y-2115833D02*
X2302024Y-2115833D01*
X2303452Y-2114881D01*
X2304405Y-2113929D01*
X2304881Y-2112976D01*
X2302024Y-2124881D02*
X2302024Y-2125833D01*
X2302500Y-2126786D01*
X2302976Y-2127262D01*
X2303929Y-2127738D01*
X2305833Y-2128214D01*
X2308214Y-2128214D01*
X2310119Y-2127738D01*
X2311071Y-2127262D01*
X2311548Y-2126786D01*
X2312024Y-2125833D01*
X2312024Y-2124881D01*
X2311548Y-2123929D01*
X2311071Y-2123452D01*
X2310119Y-2122976D01*
X2308214Y-2122500D01*
X2305833Y-2122500D01*
X2303929Y-2122976D01*
X2302976Y-2123452D01*
X2302500Y-2123929D01*
X2302024Y-2124881D01*
X2302024Y-2131071D02*
X2312024Y-2134405D01*
X2302024Y-2137738D01*
X2311548Y-2141548D02*
X2312024Y-2141548D01*
X2312976Y-2141071D01*
X2313452Y-2140595D01*
X2302024Y-2152500D02*
X2312024Y-2159167D01*
X2302024Y-2159167D02*
X2312024Y-2152500D01*
X2302024Y-2167738D02*
X2302024Y-2162976D01*
X2306786Y-2162500D01*
X2306310Y-2162976D01*
X2305833Y-2163929D01*
X2305833Y-2166310D01*
X2306310Y-2167262D01*
X2306786Y-2167738D01*
X2307738Y-2168214D01*
X2310119Y-2168214D01*
X2311071Y-2167738D01*
X2311548Y-2167262D01*
X2312024Y-2166310D01*
X2312024Y-2163929D01*
X2311548Y-2162976D01*
X2311071Y-2162500D01*
X2312024Y-2178214D02*
X2307262Y-2174881D01*
X2312024Y-2172500D02*
X2302024Y-2172500D01*
X2302024Y-2176310D01*
X2302500Y-2177262D01*
X2302976Y-2177738D01*
X2303929Y-2178214D01*
X2305357Y-2178214D01*
X2306310Y-2177738D01*
X2306786Y-2177262D01*
X2307262Y-2176310D01*
X2307262Y-2172500D01*
X2311548Y-2182976D02*
X2312024Y-2182976D01*
X2312976Y-2182500D01*
X2313452Y-2182024D01*
X2302976Y-2194405D02*
X2302500Y-2194881D01*
X2302024Y-2195833D01*
X2302024Y-2198214D01*
X2302500Y-2199167D01*
X2302976Y-2199643D01*
X2303929Y-2200119D01*
X2304881Y-2200119D01*
X2306310Y-2199643D01*
X2312024Y-2193929D01*
X2312024Y-2200119D01*
X2302024Y-2206310D02*
X2302024Y-2207262D01*
X2302500Y-2208214D01*
X2302976Y-2208690D01*
X2303929Y-2209167D01*
X2305833Y-2209643D01*
X2308214Y-2209643D01*
X2310119Y-2209167D01*
X2311071Y-2208690D01*
X2311548Y-2208214D01*
X2312024Y-2207262D01*
X2312024Y-2206310D01*
X2311548Y-2205357D01*
X2311071Y-2204881D01*
X2310119Y-2204405D01*
X2308214Y-2203929D01*
X2305833Y-2203929D01*
X2303929Y-2204405D01*
X2302976Y-2204881D01*
X2302500Y-2205357D01*
X2302024Y-2206310D01*
X2312024Y-2213452D02*
X2302024Y-2221071D01*
X2302024Y-2214881D02*
X2302500Y-2215833D01*
X2303452Y-2216310D01*
X2304405Y-2215833D01*
X2304881Y-2214881D01*
X2304405Y-2213929D01*
X2303452Y-2213452D01*
X2302500Y-2213929D01*
X2302024Y-2214881D01*
X2311548Y-2220595D02*
X2310595Y-2221071D01*
X2309643Y-2220595D01*
X2309167Y-2219643D01*
X2309643Y-2218690D01*
X2310595Y-2218214D01*
X2311548Y-2218690D01*
X2312024Y-2219643D01*
X2311548Y-2220595D01*
X2283571Y-2116071D02*
X2284048Y-2115595D01*
X2284524Y-2114167D01*
X2284524Y-2113214D01*
X2284048Y-2111786D01*
X2283095Y-2110833D01*
X2282143Y-2110357D01*
X2280238Y-2109881D01*
X2278810Y-2109881D01*
X2276905Y-2110357D01*
X2275952Y-2110833D01*
X2275000Y-2111786D01*
X2274524Y-2113214D01*
X2274524Y-2114167D01*
X2275000Y-2115595D01*
X2275476Y-2116071D01*
X2275476Y-2119881D02*
X2275000Y-2120357D01*
X2274524Y-2121310D01*
X2274524Y-2123690D01*
X2275000Y-2124643D01*
X2275476Y-2125119D01*
X2276429Y-2125595D01*
X2277381Y-2125595D01*
X2278810Y-2125119D01*
X2284524Y-2119405D01*
X2284524Y-2125595D01*
X2274524Y-2131786D02*
X2274524Y-2132738D01*
X2275000Y-2133690D01*
X2275476Y-2134167D01*
X2276429Y-2134643D01*
X2278333Y-2135119D01*
X2280714Y-2135119D01*
X2282619Y-2134643D01*
X2283571Y-2134167D01*
X2284048Y-2133690D01*
X2284524Y-2132738D01*
X2284524Y-2131786D01*
X2284048Y-2130833D01*
X2283571Y-2130357D01*
X2282619Y-2129881D01*
X2280714Y-2129405D01*
X2278333Y-2129405D01*
X2276429Y-2129881D01*
X2275476Y-2130357D01*
X2275000Y-2130833D01*
X2274524Y-2131786D01*
G04 #@! TO.C,C21*
X2708690Y-2059524D02*
X2707738Y-2059524D01*
X2706786Y-2060000D01*
X2706310Y-2060476D01*
X2705833Y-2061428D01*
X2705357Y-2063333D01*
X2705357Y-2065714D01*
X2705833Y-2067619D01*
X2706310Y-2068571D01*
X2706786Y-2069048D01*
X2707738Y-2069524D01*
X2708690Y-2069524D01*
X2709643Y-2069048D01*
X2710119Y-2068571D01*
X2710595Y-2067619D01*
X2711071Y-2065714D01*
X2711071Y-2063333D01*
X2710595Y-2061428D01*
X2710119Y-2060476D01*
X2709643Y-2060000D01*
X2708690Y-2059524D01*
X2701548Y-2060476D02*
X2701071Y-2060000D01*
X2700119Y-2059524D01*
X2697738Y-2059524D01*
X2696786Y-2060000D01*
X2696310Y-2060476D01*
X2695833Y-2061428D01*
X2695833Y-2062381D01*
X2696310Y-2063809D01*
X2702024Y-2069524D01*
X2695833Y-2069524D01*
X2689643Y-2059524D02*
X2688690Y-2059524D01*
X2687738Y-2060000D01*
X2687262Y-2060476D01*
X2686786Y-2061428D01*
X2686310Y-2063333D01*
X2686310Y-2065714D01*
X2686786Y-2067619D01*
X2687262Y-2068571D01*
X2687738Y-2069048D01*
X2688690Y-2069524D01*
X2689643Y-2069524D01*
X2690595Y-2069048D01*
X2691071Y-2068571D01*
X2691548Y-2067619D01*
X2692024Y-2065714D01*
X2692024Y-2063333D01*
X2691548Y-2061428D01*
X2691071Y-2060476D01*
X2690595Y-2060000D01*
X2689643Y-2059524D01*
X2676786Y-2069524D02*
X2682500Y-2069524D01*
X2679643Y-2069524D02*
X2679643Y-2059524D01*
X2680595Y-2060952D01*
X2681548Y-2061905D01*
X2682500Y-2062381D01*
X2672024Y-2069048D02*
X2672024Y-2069524D01*
X2672500Y-2070476D01*
X2672976Y-2070952D01*
X2654881Y-2069524D02*
X2660595Y-2069524D01*
X2657738Y-2069524D02*
X2657738Y-2059524D01*
X2658690Y-2060952D01*
X2659643Y-2061905D01*
X2660595Y-2062381D01*
X2648690Y-2059524D02*
X2647738Y-2059524D01*
X2646786Y-2060000D01*
X2646310Y-2060476D01*
X2645833Y-2061428D01*
X2645357Y-2063333D01*
X2645357Y-2065714D01*
X2645833Y-2067619D01*
X2646310Y-2068571D01*
X2646786Y-2069048D01*
X2647738Y-2069524D01*
X2648690Y-2069524D01*
X2649643Y-2069048D01*
X2650119Y-2068571D01*
X2650595Y-2067619D01*
X2651071Y-2065714D01*
X2651071Y-2063333D01*
X2650595Y-2061428D01*
X2650119Y-2060476D01*
X2649643Y-2060000D01*
X2648690Y-2059524D01*
X2639167Y-2059524D02*
X2638214Y-2059524D01*
X2637262Y-2060000D01*
X2636786Y-2060476D01*
X2636310Y-2061428D01*
X2635833Y-2063333D01*
X2635833Y-2065714D01*
X2636310Y-2067619D01*
X2636786Y-2068571D01*
X2637262Y-2069048D01*
X2638214Y-2069524D01*
X2639167Y-2069524D01*
X2640119Y-2069048D01*
X2640595Y-2068571D01*
X2641071Y-2067619D01*
X2641548Y-2065714D01*
X2641548Y-2063333D01*
X2641071Y-2061428D01*
X2640595Y-2060476D01*
X2640119Y-2060000D01*
X2639167Y-2059524D01*
X2631548Y-2062857D02*
X2631548Y-2069524D01*
X2631548Y-2063809D02*
X2631071Y-2063333D01*
X2630119Y-2062857D01*
X2628690Y-2062857D01*
X2627738Y-2063333D01*
X2627262Y-2064286D01*
X2627262Y-2069524D01*
X2619167Y-2064286D02*
X2622500Y-2064286D01*
X2622500Y-2069524D02*
X2622500Y-2059524D01*
X2617738Y-2059524D01*
X2613452Y-2069048D02*
X2613452Y-2069524D01*
X2613929Y-2070476D01*
X2614405Y-2070952D01*
X2596310Y-2069524D02*
X2602024Y-2069524D01*
X2599167Y-2069524D02*
X2599167Y-2059524D01*
X2600119Y-2060952D01*
X2601071Y-2061905D01*
X2602024Y-2062381D01*
X2590119Y-2059524D02*
X2589167Y-2059524D01*
X2588214Y-2060000D01*
X2587738Y-2060476D01*
X2587262Y-2061428D01*
X2586786Y-2063333D01*
X2586786Y-2065714D01*
X2587262Y-2067619D01*
X2587738Y-2068571D01*
X2588214Y-2069048D01*
X2589167Y-2069524D01*
X2590119Y-2069524D01*
X2591071Y-2069048D01*
X2591548Y-2068571D01*
X2592024Y-2067619D01*
X2592500Y-2065714D01*
X2592500Y-2063333D01*
X2592024Y-2061428D01*
X2591548Y-2060476D01*
X2591071Y-2060000D01*
X2590119Y-2059524D01*
X2583929Y-2059524D02*
X2580595Y-2069524D01*
X2577262Y-2059524D01*
X2573452Y-2069048D02*
X2573452Y-2069524D01*
X2573929Y-2070476D01*
X2574405Y-2070952D01*
X2562500Y-2059524D02*
X2555833Y-2069524D01*
X2555833Y-2059524D02*
X2562500Y-2069524D01*
X2547262Y-2059524D02*
X2552024Y-2059524D01*
X2552500Y-2064286D01*
X2552024Y-2063809D01*
X2551071Y-2063333D01*
X2548690Y-2063333D01*
X2547738Y-2063809D01*
X2547262Y-2064286D01*
X2546786Y-2065238D01*
X2546786Y-2067619D01*
X2547262Y-2068571D01*
X2547738Y-2069048D01*
X2548690Y-2069524D01*
X2551071Y-2069524D01*
X2552024Y-2069048D01*
X2552500Y-2068571D01*
X2536786Y-2069524D02*
X2540119Y-2064762D01*
X2542500Y-2069524D02*
X2542500Y-2059524D01*
X2538690Y-2059524D01*
X2537738Y-2060000D01*
X2537262Y-2060476D01*
X2536786Y-2061428D01*
X2536786Y-2062857D01*
X2537262Y-2063809D01*
X2537738Y-2064286D01*
X2538690Y-2064762D01*
X2542500Y-2064762D01*
X2532024Y-2069048D02*
X2532024Y-2069524D01*
X2532500Y-2070476D01*
X2532976Y-2070952D01*
X2520595Y-2060476D02*
X2520119Y-2060000D01*
X2519167Y-2059524D01*
X2516786Y-2059524D01*
X2515833Y-2060000D01*
X2515357Y-2060476D01*
X2514881Y-2061428D01*
X2514881Y-2062381D01*
X2515357Y-2063809D01*
X2521071Y-2069524D01*
X2514881Y-2069524D01*
X2508690Y-2059524D02*
X2507738Y-2059524D01*
X2506786Y-2060000D01*
X2506310Y-2060476D01*
X2505833Y-2061428D01*
X2505357Y-2063333D01*
X2505357Y-2065714D01*
X2505833Y-2067619D01*
X2506310Y-2068571D01*
X2506786Y-2069048D01*
X2507738Y-2069524D01*
X2508690Y-2069524D01*
X2509643Y-2069048D01*
X2510119Y-2068571D01*
X2510595Y-2067619D01*
X2511071Y-2065714D01*
X2511071Y-2063333D01*
X2510595Y-2061428D01*
X2510119Y-2060476D01*
X2509643Y-2060000D01*
X2508690Y-2059524D01*
X2501548Y-2069524D02*
X2493929Y-2059524D01*
X2500119Y-2059524D02*
X2499167Y-2060000D01*
X2498690Y-2060952D01*
X2499167Y-2061905D01*
X2500119Y-2062381D01*
X2501071Y-2061905D01*
X2501548Y-2060952D01*
X2501071Y-2060000D01*
X2500119Y-2059524D01*
X2494405Y-2069048D02*
X2493929Y-2068095D01*
X2494405Y-2067143D01*
X2495357Y-2066667D01*
X2496310Y-2067143D01*
X2496786Y-2068095D01*
X2496310Y-2069048D01*
X2495357Y-2069524D01*
X2494405Y-2069048D01*
X2636429Y-2036071D02*
X2636905Y-2036548D01*
X2638333Y-2037024D01*
X2639286Y-2037024D01*
X2640714Y-2036548D01*
X2641667Y-2035595D01*
X2642143Y-2034643D01*
X2642619Y-2032738D01*
X2642619Y-2031309D01*
X2642143Y-2029405D01*
X2641667Y-2028452D01*
X2640714Y-2027500D01*
X2639286Y-2027024D01*
X2638333Y-2027024D01*
X2636905Y-2027500D01*
X2636429Y-2027976D01*
X2632619Y-2027976D02*
X2632143Y-2027500D01*
X2631190Y-2027024D01*
X2628810Y-2027024D01*
X2627857Y-2027500D01*
X2627381Y-2027976D01*
X2626905Y-2028928D01*
X2626905Y-2029881D01*
X2627381Y-2031309D01*
X2633095Y-2037024D01*
X2626905Y-2037024D01*
X2617381Y-2037024D02*
X2623095Y-2037024D01*
X2620238Y-2037024D02*
X2620238Y-2027024D01*
X2621190Y-2028452D01*
X2622143Y-2029405D01*
X2623095Y-2029881D01*
G04 #@! TO.C,C24*
X2646667Y-2457024D02*
X2645714Y-2457024D01*
X2644762Y-2457500D01*
X2644286Y-2457976D01*
X2643810Y-2458929D01*
X2643333Y-2460833D01*
X2643333Y-2463214D01*
X2643810Y-2465119D01*
X2644286Y-2466071D01*
X2644762Y-2466548D01*
X2645714Y-2467024D01*
X2646667Y-2467024D01*
X2647619Y-2466548D01*
X2648095Y-2466071D01*
X2648571Y-2465119D01*
X2649048Y-2463214D01*
X2649048Y-2460833D01*
X2648571Y-2458929D01*
X2648095Y-2457976D01*
X2647619Y-2457500D01*
X2646667Y-2457024D01*
X2639524Y-2457976D02*
X2639048Y-2457500D01*
X2638095Y-2457024D01*
X2635714Y-2457024D01*
X2634762Y-2457500D01*
X2634286Y-2457976D01*
X2633810Y-2458929D01*
X2633810Y-2459881D01*
X2634286Y-2461310D01*
X2640000Y-2467024D01*
X2633810Y-2467024D01*
X2627619Y-2457024D02*
X2626667Y-2457024D01*
X2625714Y-2457500D01*
X2625238Y-2457976D01*
X2624762Y-2458929D01*
X2624286Y-2460833D01*
X2624286Y-2463214D01*
X2624762Y-2465119D01*
X2625238Y-2466071D01*
X2625714Y-2466548D01*
X2626667Y-2467024D01*
X2627619Y-2467024D01*
X2628571Y-2466548D01*
X2629048Y-2466071D01*
X2629524Y-2465119D01*
X2630000Y-2463214D01*
X2630000Y-2460833D01*
X2629524Y-2458929D01*
X2629048Y-2457976D01*
X2628571Y-2457500D01*
X2627619Y-2457024D01*
X2614762Y-2467024D02*
X2620476Y-2467024D01*
X2617619Y-2467024D02*
X2617619Y-2457024D01*
X2618571Y-2458452D01*
X2619524Y-2459405D01*
X2620476Y-2459881D01*
X2610000Y-2466548D02*
X2610000Y-2467024D01*
X2610476Y-2467976D01*
X2610952Y-2468452D01*
X2592857Y-2467024D02*
X2598571Y-2467024D01*
X2595714Y-2467024D02*
X2595714Y-2457024D01*
X2596667Y-2458452D01*
X2597619Y-2459405D01*
X2598571Y-2459881D01*
X2584286Y-2460357D02*
X2584286Y-2467024D01*
X2588571Y-2460357D02*
X2588571Y-2465595D01*
X2588095Y-2466548D01*
X2587143Y-2467024D01*
X2585714Y-2467024D01*
X2584762Y-2466548D01*
X2584286Y-2466071D01*
X2576190Y-2461786D02*
X2579524Y-2461786D01*
X2579524Y-2467024D02*
X2579524Y-2457024D01*
X2574762Y-2457024D01*
X2570476Y-2466548D02*
X2570476Y-2467024D01*
X2570952Y-2467976D01*
X2571429Y-2468452D01*
X2553333Y-2467024D02*
X2559048Y-2467024D01*
X2556190Y-2467024D02*
X2556190Y-2457024D01*
X2557143Y-2458452D01*
X2558095Y-2459405D01*
X2559048Y-2459881D01*
X2547143Y-2457024D02*
X2546190Y-2457024D01*
X2545238Y-2457500D01*
X2544762Y-2457976D01*
X2544286Y-2458929D01*
X2543810Y-2460833D01*
X2543810Y-2463214D01*
X2544286Y-2465119D01*
X2544762Y-2466071D01*
X2545238Y-2466548D01*
X2546190Y-2467024D01*
X2547143Y-2467024D01*
X2548095Y-2466548D01*
X2548571Y-2466071D01*
X2549048Y-2465119D01*
X2549524Y-2463214D01*
X2549524Y-2460833D01*
X2549048Y-2458929D01*
X2548571Y-2457976D01*
X2548095Y-2457500D01*
X2547143Y-2457024D01*
X2540952Y-2457024D02*
X2537619Y-2467024D01*
X2534286Y-2457024D01*
X2530476Y-2466548D02*
X2530476Y-2467024D01*
X2530952Y-2467976D01*
X2531429Y-2468452D01*
X2519524Y-2457024D02*
X2512857Y-2467024D01*
X2512857Y-2457024D02*
X2519524Y-2467024D01*
X2504286Y-2457024D02*
X2509048Y-2457024D01*
X2509524Y-2461786D01*
X2509048Y-2461310D01*
X2508095Y-2460833D01*
X2505714Y-2460833D01*
X2504762Y-2461310D01*
X2504286Y-2461786D01*
X2503810Y-2462738D01*
X2503810Y-2465119D01*
X2504286Y-2466071D01*
X2504762Y-2466548D01*
X2505714Y-2467024D01*
X2508095Y-2467024D01*
X2509048Y-2466548D01*
X2509524Y-2466071D01*
X2493810Y-2467024D02*
X2497143Y-2462262D01*
X2499524Y-2467024D02*
X2499524Y-2457024D01*
X2495714Y-2457024D01*
X2494762Y-2457500D01*
X2494286Y-2457976D01*
X2493810Y-2458929D01*
X2493810Y-2460357D01*
X2494286Y-2461310D01*
X2494762Y-2461786D01*
X2495714Y-2462262D01*
X2499524Y-2462262D01*
X2489048Y-2466548D02*
X2489048Y-2467024D01*
X2489524Y-2467976D01*
X2490000Y-2468452D01*
X2477619Y-2457976D02*
X2477143Y-2457500D01*
X2476190Y-2457024D01*
X2473810Y-2457024D01*
X2472857Y-2457500D01*
X2472381Y-2457976D01*
X2471905Y-2458929D01*
X2471905Y-2459881D01*
X2472381Y-2461310D01*
X2478095Y-2467024D01*
X2471905Y-2467024D01*
X2465714Y-2457024D02*
X2464762Y-2457024D01*
X2463810Y-2457500D01*
X2463333Y-2457976D01*
X2462857Y-2458929D01*
X2462381Y-2460833D01*
X2462381Y-2463214D01*
X2462857Y-2465119D01*
X2463333Y-2466071D01*
X2463810Y-2466548D01*
X2464762Y-2467024D01*
X2465714Y-2467024D01*
X2466667Y-2466548D01*
X2467143Y-2466071D01*
X2467619Y-2465119D01*
X2468095Y-2463214D01*
X2468095Y-2460833D01*
X2467619Y-2458929D01*
X2467143Y-2457976D01*
X2466667Y-2457500D01*
X2465714Y-2457024D01*
X2458571Y-2467024D02*
X2450952Y-2457024D01*
X2457143Y-2457024D02*
X2456190Y-2457500D01*
X2455714Y-2458452D01*
X2456190Y-2459405D01*
X2457143Y-2459881D01*
X2458095Y-2459405D01*
X2458571Y-2458452D01*
X2458095Y-2457500D01*
X2457143Y-2457024D01*
X2451429Y-2466548D02*
X2450952Y-2465595D01*
X2451429Y-2464643D01*
X2452381Y-2464167D01*
X2453333Y-2464643D01*
X2453810Y-2465595D01*
X2453333Y-2466548D01*
X2452381Y-2467024D01*
X2451429Y-2466548D01*
X2556429Y-2493571D02*
X2556905Y-2494048D01*
X2558333Y-2494524D01*
X2559286Y-2494524D01*
X2560714Y-2494048D01*
X2561667Y-2493095D01*
X2562143Y-2492143D01*
X2562619Y-2490238D01*
X2562619Y-2488810D01*
X2562143Y-2486905D01*
X2561667Y-2485952D01*
X2560714Y-2485000D01*
X2559286Y-2484524D01*
X2558333Y-2484524D01*
X2556905Y-2485000D01*
X2556429Y-2485476D01*
X2552619Y-2485476D02*
X2552143Y-2485000D01*
X2551190Y-2484524D01*
X2548810Y-2484524D01*
X2547857Y-2485000D01*
X2547381Y-2485476D01*
X2546905Y-2486429D01*
X2546905Y-2487381D01*
X2547381Y-2488810D01*
X2553095Y-2494524D01*
X2546905Y-2494524D01*
X2538333Y-2487857D02*
X2538333Y-2494524D01*
X2540714Y-2484048D02*
X2543095Y-2491190D01*
X2536905Y-2491190D01*
G04 #@! TO.C,C25*
X2714167Y-1987024D02*
X2713214Y-1987024D01*
X2712262Y-1987500D01*
X2711786Y-1987976D01*
X2711310Y-1988928D01*
X2710833Y-1990833D01*
X2710833Y-1993214D01*
X2711310Y-1995119D01*
X2711786Y-1996071D01*
X2712262Y-1996548D01*
X2713214Y-1997024D01*
X2714167Y-1997024D01*
X2715119Y-1996548D01*
X2715595Y-1996071D01*
X2716071Y-1995119D01*
X2716548Y-1993214D01*
X2716548Y-1990833D01*
X2716071Y-1988928D01*
X2715595Y-1987976D01*
X2715119Y-1987500D01*
X2714167Y-1987024D01*
X2707024Y-1987976D02*
X2706548Y-1987500D01*
X2705595Y-1987024D01*
X2703214Y-1987024D01*
X2702262Y-1987500D01*
X2701786Y-1987976D01*
X2701310Y-1988928D01*
X2701310Y-1989881D01*
X2701786Y-1991309D01*
X2707500Y-1997024D01*
X2701310Y-1997024D01*
X2695119Y-1987024D02*
X2694167Y-1987024D01*
X2693214Y-1987500D01*
X2692738Y-1987976D01*
X2692262Y-1988928D01*
X2691786Y-1990833D01*
X2691786Y-1993214D01*
X2692262Y-1995119D01*
X2692738Y-1996071D01*
X2693214Y-1996548D01*
X2694167Y-1997024D01*
X2695119Y-1997024D01*
X2696071Y-1996548D01*
X2696548Y-1996071D01*
X2697024Y-1995119D01*
X2697500Y-1993214D01*
X2697500Y-1990833D01*
X2697024Y-1988928D01*
X2696548Y-1987976D01*
X2696071Y-1987500D01*
X2695119Y-1987024D01*
X2682262Y-1997024D02*
X2687976Y-1997024D01*
X2685119Y-1997024D02*
X2685119Y-1987024D01*
X2686071Y-1988452D01*
X2687024Y-1989405D01*
X2687976Y-1989881D01*
X2677500Y-1996548D02*
X2677500Y-1997024D01*
X2677976Y-1997976D01*
X2678452Y-1998452D01*
X2660357Y-1997024D02*
X2666071Y-1997024D01*
X2663214Y-1997024D02*
X2663214Y-1987024D01*
X2664167Y-1988452D01*
X2665119Y-1989405D01*
X2666071Y-1989881D01*
X2651786Y-1990357D02*
X2651786Y-1997024D01*
X2656071Y-1990357D02*
X2656071Y-1995595D01*
X2655595Y-1996548D01*
X2654643Y-1997024D01*
X2653214Y-1997024D01*
X2652262Y-1996548D01*
X2651786Y-1996071D01*
X2643690Y-1991786D02*
X2647024Y-1991786D01*
X2647024Y-1997024D02*
X2647024Y-1987024D01*
X2642262Y-1987024D01*
X2637976Y-1996548D02*
X2637976Y-1997024D01*
X2638452Y-1997976D01*
X2638929Y-1998452D01*
X2620833Y-1997024D02*
X2626548Y-1997024D01*
X2623690Y-1997024D02*
X2623690Y-1987024D01*
X2624643Y-1988452D01*
X2625595Y-1989405D01*
X2626548Y-1989881D01*
X2614643Y-1987024D02*
X2613690Y-1987024D01*
X2612738Y-1987500D01*
X2612262Y-1987976D01*
X2611786Y-1988928D01*
X2611310Y-1990833D01*
X2611310Y-1993214D01*
X2611786Y-1995119D01*
X2612262Y-1996071D01*
X2612738Y-1996548D01*
X2613690Y-1997024D01*
X2614643Y-1997024D01*
X2615595Y-1996548D01*
X2616071Y-1996071D01*
X2616548Y-1995119D01*
X2617024Y-1993214D01*
X2617024Y-1990833D01*
X2616548Y-1988928D01*
X2616071Y-1987976D01*
X2615595Y-1987500D01*
X2614643Y-1987024D01*
X2608452Y-1987024D02*
X2605119Y-1997024D01*
X2601786Y-1987024D01*
X2597976Y-1996548D02*
X2597976Y-1997024D01*
X2598452Y-1997976D01*
X2598929Y-1998452D01*
X2587024Y-1987024D02*
X2580357Y-1997024D01*
X2580357Y-1987024D02*
X2587024Y-1997024D01*
X2571786Y-1987024D02*
X2576548Y-1987024D01*
X2577024Y-1991786D01*
X2576548Y-1991309D01*
X2575595Y-1990833D01*
X2573214Y-1990833D01*
X2572262Y-1991309D01*
X2571786Y-1991786D01*
X2571310Y-1992738D01*
X2571310Y-1995119D01*
X2571786Y-1996071D01*
X2572262Y-1996548D01*
X2573214Y-1997024D01*
X2575595Y-1997024D01*
X2576548Y-1996548D01*
X2577024Y-1996071D01*
X2561310Y-1997024D02*
X2564643Y-1992262D01*
X2567024Y-1997024D02*
X2567024Y-1987024D01*
X2563214Y-1987024D01*
X2562262Y-1987500D01*
X2561786Y-1987976D01*
X2561310Y-1988928D01*
X2561310Y-1990357D01*
X2561786Y-1991309D01*
X2562262Y-1991786D01*
X2563214Y-1992262D01*
X2567024Y-1992262D01*
X2556548Y-1996548D02*
X2556548Y-1997024D01*
X2557024Y-1997976D01*
X2557500Y-1998452D01*
X2545119Y-1987976D02*
X2544643Y-1987500D01*
X2543690Y-1987024D01*
X2541310Y-1987024D01*
X2540357Y-1987500D01*
X2539881Y-1987976D01*
X2539405Y-1988928D01*
X2539405Y-1989881D01*
X2539881Y-1991309D01*
X2545595Y-1997024D01*
X2539405Y-1997024D01*
X2533214Y-1987024D02*
X2532262Y-1987024D01*
X2531310Y-1987500D01*
X2530833Y-1987976D01*
X2530357Y-1988928D01*
X2529881Y-1990833D01*
X2529881Y-1993214D01*
X2530357Y-1995119D01*
X2530833Y-1996071D01*
X2531310Y-1996548D01*
X2532262Y-1997024D01*
X2533214Y-1997024D01*
X2534167Y-1996548D01*
X2534643Y-1996071D01*
X2535119Y-1995119D01*
X2535595Y-1993214D01*
X2535595Y-1990833D01*
X2535119Y-1988928D01*
X2534643Y-1987976D01*
X2534167Y-1987500D01*
X2533214Y-1987024D01*
X2526071Y-1997024D02*
X2518452Y-1987024D01*
X2524643Y-1987024D02*
X2523690Y-1987500D01*
X2523214Y-1988452D01*
X2523690Y-1989405D01*
X2524643Y-1989881D01*
X2525595Y-1989405D01*
X2526071Y-1988452D01*
X2525595Y-1987500D01*
X2524643Y-1987024D01*
X2518929Y-1996548D02*
X2518452Y-1995595D01*
X2518929Y-1994643D01*
X2519881Y-1994167D01*
X2520833Y-1994643D01*
X2521310Y-1995595D01*
X2520833Y-1996548D01*
X2519881Y-1997024D01*
X2518929Y-1996548D01*
X2636429Y-1966071D02*
X2636905Y-1966548D01*
X2638333Y-1967024D01*
X2639286Y-1967024D01*
X2640714Y-1966548D01*
X2641667Y-1965595D01*
X2642143Y-1964643D01*
X2642619Y-1962738D01*
X2642619Y-1961309D01*
X2642143Y-1959405D01*
X2641667Y-1958452D01*
X2640714Y-1957500D01*
X2639286Y-1957024D01*
X2638333Y-1957024D01*
X2636905Y-1957500D01*
X2636429Y-1957976D01*
X2632619Y-1957976D02*
X2632143Y-1957500D01*
X2631190Y-1957024D01*
X2628810Y-1957024D01*
X2627857Y-1957500D01*
X2627381Y-1957976D01*
X2626905Y-1958928D01*
X2626905Y-1959881D01*
X2627381Y-1961309D01*
X2633095Y-1967024D01*
X2626905Y-1967024D01*
X2617857Y-1957024D02*
X2622619Y-1957024D01*
X2623095Y-1961786D01*
X2622619Y-1961309D01*
X2621667Y-1960833D01*
X2619286Y-1960833D01*
X2618333Y-1961309D01*
X2617857Y-1961786D01*
X2617381Y-1962738D01*
X2617381Y-1965119D01*
X2617857Y-1966071D01*
X2618333Y-1966548D01*
X2619286Y-1967024D01*
X2621667Y-1967024D01*
X2622619Y-1966548D01*
X2623095Y-1966071D01*
G04 #@! TO.C,C2*
X1824524Y-2438333D02*
X1824524Y-2439286D01*
X1825000Y-2440238D01*
X1825476Y-2440714D01*
X1826428Y-2441190D01*
X1828333Y-2441667D01*
X1830714Y-2441667D01*
X1832619Y-2441190D01*
X1833571Y-2440714D01*
X1834048Y-2440238D01*
X1834524Y-2439286D01*
X1834524Y-2438333D01*
X1834048Y-2437381D01*
X1833571Y-2436905D01*
X1832619Y-2436429D01*
X1830714Y-2435952D01*
X1828333Y-2435952D01*
X1826428Y-2436429D01*
X1825476Y-2436905D01*
X1825000Y-2437381D01*
X1824524Y-2438333D01*
X1825476Y-2445476D02*
X1825000Y-2445952D01*
X1824524Y-2446905D01*
X1824524Y-2449286D01*
X1825000Y-2450238D01*
X1825476Y-2450714D01*
X1826428Y-2451190D01*
X1827381Y-2451190D01*
X1828809Y-2450714D01*
X1834524Y-2445000D01*
X1834524Y-2451190D01*
X1824524Y-2457381D02*
X1824524Y-2458333D01*
X1825000Y-2459286D01*
X1825476Y-2459762D01*
X1826428Y-2460238D01*
X1828333Y-2460714D01*
X1830714Y-2460714D01*
X1832619Y-2460238D01*
X1833571Y-2459762D01*
X1834048Y-2459286D01*
X1834524Y-2458333D01*
X1834524Y-2457381D01*
X1834048Y-2456429D01*
X1833571Y-2455952D01*
X1832619Y-2455476D01*
X1830714Y-2455000D01*
X1828333Y-2455000D01*
X1826428Y-2455476D01*
X1825476Y-2455952D01*
X1825000Y-2456429D01*
X1824524Y-2457381D01*
X1834524Y-2470238D02*
X1834524Y-2464524D01*
X1834524Y-2467381D02*
X1824524Y-2467381D01*
X1825952Y-2466429D01*
X1826905Y-2465476D01*
X1827381Y-2464524D01*
X1834048Y-2475000D02*
X1834524Y-2475000D01*
X1835476Y-2474524D01*
X1835952Y-2474048D01*
X1834524Y-2492143D02*
X1834524Y-2486429D01*
X1834524Y-2489286D02*
X1824524Y-2489286D01*
X1825952Y-2488333D01*
X1826905Y-2487381D01*
X1827381Y-2486429D01*
X1827857Y-2500714D02*
X1834524Y-2500714D01*
X1827857Y-2496429D02*
X1833095Y-2496429D01*
X1834048Y-2496905D01*
X1834524Y-2497857D01*
X1834524Y-2499286D01*
X1834048Y-2500238D01*
X1833571Y-2500714D01*
X1829286Y-2508810D02*
X1829286Y-2505476D01*
X1834524Y-2505476D02*
X1824524Y-2505476D01*
X1824524Y-2510238D01*
X1834048Y-2514524D02*
X1834524Y-2514524D01*
X1835476Y-2514048D01*
X1835952Y-2513571D01*
X1834524Y-2531667D02*
X1834524Y-2525952D01*
X1834524Y-2528810D02*
X1824524Y-2528810D01*
X1825952Y-2527857D01*
X1826905Y-2526905D01*
X1827381Y-2525952D01*
X1824524Y-2537857D02*
X1824524Y-2538810D01*
X1825000Y-2539762D01*
X1825476Y-2540238D01*
X1826428Y-2540714D01*
X1828333Y-2541190D01*
X1830714Y-2541190D01*
X1832619Y-2540714D01*
X1833571Y-2540238D01*
X1834048Y-2539762D01*
X1834524Y-2538810D01*
X1834524Y-2537857D01*
X1834048Y-2536905D01*
X1833571Y-2536429D01*
X1832619Y-2535952D01*
X1830714Y-2535476D01*
X1828333Y-2535476D01*
X1826428Y-2535952D01*
X1825476Y-2536429D01*
X1825000Y-2536905D01*
X1824524Y-2537857D01*
X1824524Y-2544048D02*
X1834524Y-2547381D01*
X1824524Y-2550714D01*
X1834048Y-2554524D02*
X1834524Y-2554524D01*
X1835476Y-2554048D01*
X1835952Y-2553571D01*
X1824524Y-2565476D02*
X1834524Y-2572143D01*
X1824524Y-2572143D02*
X1834524Y-2565476D01*
X1824524Y-2580714D02*
X1824524Y-2575952D01*
X1829286Y-2575476D01*
X1828809Y-2575952D01*
X1828333Y-2576905D01*
X1828333Y-2579286D01*
X1828809Y-2580238D01*
X1829286Y-2580714D01*
X1830238Y-2581190D01*
X1832619Y-2581190D01*
X1833571Y-2580714D01*
X1834048Y-2580238D01*
X1834524Y-2579286D01*
X1834524Y-2576905D01*
X1834048Y-2575952D01*
X1833571Y-2575476D01*
X1834524Y-2591190D02*
X1829762Y-2587857D01*
X1834524Y-2585476D02*
X1824524Y-2585476D01*
X1824524Y-2589286D01*
X1825000Y-2590238D01*
X1825476Y-2590714D01*
X1826428Y-2591190D01*
X1827857Y-2591190D01*
X1828809Y-2590714D01*
X1829286Y-2590238D01*
X1829762Y-2589286D01*
X1829762Y-2585476D01*
X1834048Y-2595952D02*
X1834524Y-2595952D01*
X1835476Y-2595476D01*
X1835952Y-2595000D01*
X1825476Y-2607381D02*
X1825000Y-2607857D01*
X1824524Y-2608810D01*
X1824524Y-2611190D01*
X1825000Y-2612143D01*
X1825476Y-2612619D01*
X1826428Y-2613095D01*
X1827381Y-2613095D01*
X1828809Y-2612619D01*
X1834524Y-2606905D01*
X1834524Y-2613095D01*
X1824524Y-2619286D02*
X1824524Y-2620238D01*
X1825000Y-2621190D01*
X1825476Y-2621667D01*
X1826428Y-2622143D01*
X1828333Y-2622619D01*
X1830714Y-2622619D01*
X1832619Y-2622143D01*
X1833571Y-2621667D01*
X1834048Y-2621190D01*
X1834524Y-2620238D01*
X1834524Y-2619286D01*
X1834048Y-2618333D01*
X1833571Y-2617857D01*
X1832619Y-2617381D01*
X1830714Y-2616905D01*
X1828333Y-2616905D01*
X1826428Y-2617381D01*
X1825476Y-2617857D01*
X1825000Y-2618333D01*
X1824524Y-2619286D01*
X1834524Y-2626429D02*
X1824524Y-2634048D01*
X1824524Y-2627857D02*
X1825000Y-2628810D01*
X1825952Y-2629286D01*
X1826905Y-2628810D01*
X1827381Y-2627857D01*
X1826905Y-2626905D01*
X1825952Y-2626429D01*
X1825000Y-2626905D01*
X1824524Y-2627857D01*
X1834048Y-2633571D02*
X1833095Y-2634048D01*
X1832143Y-2633571D01*
X1831667Y-2632619D01*
X1832143Y-2631667D01*
X1833095Y-2631190D01*
X1834048Y-2631667D01*
X1834524Y-2632619D01*
X1834048Y-2633571D01*
X1808571Y-2513333D02*
X1809048Y-2512857D01*
X1809524Y-2511429D01*
X1809524Y-2510476D01*
X1809048Y-2509048D01*
X1808095Y-2508095D01*
X1807143Y-2507619D01*
X1805238Y-2507143D01*
X1803809Y-2507143D01*
X1801905Y-2507619D01*
X1800952Y-2508095D01*
X1800000Y-2509048D01*
X1799524Y-2510476D01*
X1799524Y-2511429D01*
X1800000Y-2512857D01*
X1800476Y-2513333D01*
X1800476Y-2517143D02*
X1800000Y-2517619D01*
X1799524Y-2518571D01*
X1799524Y-2520952D01*
X1800000Y-2521905D01*
X1800476Y-2522381D01*
X1801428Y-2522857D01*
X1802381Y-2522857D01*
X1803809Y-2522381D01*
X1809524Y-2516667D01*
X1809524Y-2522857D01*
G04 #@! TO.C,C3*
X1802024Y-1873333D02*
X1802024Y-1874286D01*
X1802500Y-1875238D01*
X1802976Y-1875714D01*
X1803928Y-1876190D01*
X1805833Y-1876667D01*
X1808214Y-1876667D01*
X1810119Y-1876190D01*
X1811071Y-1875714D01*
X1811548Y-1875238D01*
X1812024Y-1874286D01*
X1812024Y-1873333D01*
X1811548Y-1872381D01*
X1811071Y-1871905D01*
X1810119Y-1871428D01*
X1808214Y-1870952D01*
X1805833Y-1870952D01*
X1803928Y-1871428D01*
X1802976Y-1871905D01*
X1802500Y-1872381D01*
X1802024Y-1873333D01*
X1802976Y-1880476D02*
X1802500Y-1880952D01*
X1802024Y-1881905D01*
X1802024Y-1884286D01*
X1802500Y-1885238D01*
X1802976Y-1885714D01*
X1803928Y-1886190D01*
X1804881Y-1886190D01*
X1806309Y-1885714D01*
X1812024Y-1880000D01*
X1812024Y-1886190D01*
X1802024Y-1892381D02*
X1802024Y-1893333D01*
X1802500Y-1894286D01*
X1802976Y-1894762D01*
X1803928Y-1895238D01*
X1805833Y-1895714D01*
X1808214Y-1895714D01*
X1810119Y-1895238D01*
X1811071Y-1894762D01*
X1811548Y-1894286D01*
X1812024Y-1893333D01*
X1812024Y-1892381D01*
X1811548Y-1891428D01*
X1811071Y-1890952D01*
X1810119Y-1890476D01*
X1808214Y-1890000D01*
X1805833Y-1890000D01*
X1803928Y-1890476D01*
X1802976Y-1890952D01*
X1802500Y-1891428D01*
X1802024Y-1892381D01*
X1812024Y-1905238D02*
X1812024Y-1899524D01*
X1812024Y-1902381D02*
X1802024Y-1902381D01*
X1803452Y-1901428D01*
X1804405Y-1900476D01*
X1804881Y-1899524D01*
X1811548Y-1910000D02*
X1812024Y-1910000D01*
X1812976Y-1909524D01*
X1813452Y-1909048D01*
X1812024Y-1927143D02*
X1812024Y-1921428D01*
X1812024Y-1924286D02*
X1802024Y-1924286D01*
X1803452Y-1923333D01*
X1804405Y-1922381D01*
X1804881Y-1921428D01*
X1805357Y-1935714D02*
X1812024Y-1935714D01*
X1805357Y-1931428D02*
X1810595Y-1931428D01*
X1811548Y-1931905D01*
X1812024Y-1932857D01*
X1812024Y-1934286D01*
X1811548Y-1935238D01*
X1811071Y-1935714D01*
X1806786Y-1943809D02*
X1806786Y-1940476D01*
X1812024Y-1940476D02*
X1802024Y-1940476D01*
X1802024Y-1945238D01*
X1811548Y-1949524D02*
X1812024Y-1949524D01*
X1812976Y-1949048D01*
X1813452Y-1948571D01*
X1812024Y-1966667D02*
X1812024Y-1960952D01*
X1812024Y-1963809D02*
X1802024Y-1963809D01*
X1803452Y-1962857D01*
X1804405Y-1961905D01*
X1804881Y-1960952D01*
X1802024Y-1972857D02*
X1802024Y-1973809D01*
X1802500Y-1974762D01*
X1802976Y-1975238D01*
X1803928Y-1975714D01*
X1805833Y-1976190D01*
X1808214Y-1976190D01*
X1810119Y-1975714D01*
X1811071Y-1975238D01*
X1811548Y-1974762D01*
X1812024Y-1973809D01*
X1812024Y-1972857D01*
X1811548Y-1971905D01*
X1811071Y-1971428D01*
X1810119Y-1970952D01*
X1808214Y-1970476D01*
X1805833Y-1970476D01*
X1803928Y-1970952D01*
X1802976Y-1971428D01*
X1802500Y-1971905D01*
X1802024Y-1972857D01*
X1802024Y-1979048D02*
X1812024Y-1982381D01*
X1802024Y-1985714D01*
X1811548Y-1989524D02*
X1812024Y-1989524D01*
X1812976Y-1989048D01*
X1813452Y-1988571D01*
X1802024Y-2000476D02*
X1812024Y-2007143D01*
X1802024Y-2007143D02*
X1812024Y-2000476D01*
X1802024Y-2015714D02*
X1802024Y-2010952D01*
X1806786Y-2010476D01*
X1806309Y-2010952D01*
X1805833Y-2011905D01*
X1805833Y-2014286D01*
X1806309Y-2015238D01*
X1806786Y-2015714D01*
X1807738Y-2016190D01*
X1810119Y-2016190D01*
X1811071Y-2015714D01*
X1811548Y-2015238D01*
X1812024Y-2014286D01*
X1812024Y-2011905D01*
X1811548Y-2010952D01*
X1811071Y-2010476D01*
X1812024Y-2026190D02*
X1807262Y-2022857D01*
X1812024Y-2020476D02*
X1802024Y-2020476D01*
X1802024Y-2024286D01*
X1802500Y-2025238D01*
X1802976Y-2025714D01*
X1803928Y-2026190D01*
X1805357Y-2026190D01*
X1806309Y-2025714D01*
X1806786Y-2025238D01*
X1807262Y-2024286D01*
X1807262Y-2020476D01*
X1811548Y-2030952D02*
X1812024Y-2030952D01*
X1812976Y-2030476D01*
X1813452Y-2030000D01*
X1802976Y-2042381D02*
X1802500Y-2042857D01*
X1802024Y-2043809D01*
X1802024Y-2046190D01*
X1802500Y-2047143D01*
X1802976Y-2047619D01*
X1803928Y-2048095D01*
X1804881Y-2048095D01*
X1806309Y-2047619D01*
X1812024Y-2041905D01*
X1812024Y-2048095D01*
X1802024Y-2054286D02*
X1802024Y-2055238D01*
X1802500Y-2056190D01*
X1802976Y-2056667D01*
X1803928Y-2057143D01*
X1805833Y-2057619D01*
X1808214Y-2057619D01*
X1810119Y-2057143D01*
X1811071Y-2056667D01*
X1811548Y-2056190D01*
X1812024Y-2055238D01*
X1812024Y-2054286D01*
X1811548Y-2053333D01*
X1811071Y-2052857D01*
X1810119Y-2052381D01*
X1808214Y-2051905D01*
X1805833Y-2051905D01*
X1803928Y-2052381D01*
X1802976Y-2052857D01*
X1802500Y-2053333D01*
X1802024Y-2054286D01*
X1812024Y-2061428D02*
X1802024Y-2069048D01*
X1802024Y-2062857D02*
X1802500Y-2063809D01*
X1803452Y-2064286D01*
X1804405Y-2063809D01*
X1804881Y-2062857D01*
X1804405Y-2061905D01*
X1803452Y-2061428D01*
X1802500Y-2061905D01*
X1802024Y-2062857D01*
X1811548Y-2068571D02*
X1810595Y-2069048D01*
X1809643Y-2068571D01*
X1809167Y-2067619D01*
X1809643Y-2066667D01*
X1810595Y-2066190D01*
X1811548Y-2066667D01*
X1812024Y-2067619D01*
X1811548Y-2068571D01*
X1777571Y-1967833D02*
X1778048Y-1967357D01*
X1778524Y-1965928D01*
X1778524Y-1964976D01*
X1778048Y-1963548D01*
X1777095Y-1962595D01*
X1776143Y-1962119D01*
X1774238Y-1961643D01*
X1772809Y-1961643D01*
X1770905Y-1962119D01*
X1769952Y-1962595D01*
X1769000Y-1963548D01*
X1768524Y-1964976D01*
X1768524Y-1965928D01*
X1769000Y-1967357D01*
X1769476Y-1967833D01*
X1768524Y-1971167D02*
X1768524Y-1977357D01*
X1772333Y-1974024D01*
X1772333Y-1975452D01*
X1772809Y-1976405D01*
X1773286Y-1976881D01*
X1774238Y-1977357D01*
X1776619Y-1977357D01*
X1777571Y-1976881D01*
X1778048Y-1976405D01*
X1778524Y-1975452D01*
X1778524Y-1972595D01*
X1778048Y-1971643D01*
X1777571Y-1971167D01*
G04 #@! TO.C,C4*
X2188690Y-2279524D02*
X2187738Y-2279524D01*
X2186786Y-2280000D01*
X2186310Y-2280476D01*
X2185833Y-2281429D01*
X2185357Y-2283333D01*
X2185357Y-2285714D01*
X2185833Y-2287619D01*
X2186310Y-2288571D01*
X2186786Y-2289048D01*
X2187738Y-2289524D01*
X2188690Y-2289524D01*
X2189643Y-2289048D01*
X2190119Y-2288571D01*
X2190595Y-2287619D01*
X2191071Y-2285714D01*
X2191071Y-2283333D01*
X2190595Y-2281429D01*
X2190119Y-2280476D01*
X2189643Y-2280000D01*
X2188690Y-2279524D01*
X2181548Y-2280476D02*
X2181071Y-2280000D01*
X2180119Y-2279524D01*
X2177738Y-2279524D01*
X2176786Y-2280000D01*
X2176310Y-2280476D01*
X2175833Y-2281429D01*
X2175833Y-2282381D01*
X2176310Y-2283810D01*
X2182024Y-2289524D01*
X2175833Y-2289524D01*
X2169643Y-2279524D02*
X2168690Y-2279524D01*
X2167738Y-2280000D01*
X2167262Y-2280476D01*
X2166786Y-2281429D01*
X2166310Y-2283333D01*
X2166310Y-2285714D01*
X2166786Y-2287619D01*
X2167262Y-2288571D01*
X2167738Y-2289048D01*
X2168690Y-2289524D01*
X2169643Y-2289524D01*
X2170595Y-2289048D01*
X2171071Y-2288571D01*
X2171548Y-2287619D01*
X2172024Y-2285714D01*
X2172024Y-2283333D01*
X2171548Y-2281429D01*
X2171071Y-2280476D01*
X2170595Y-2280000D01*
X2169643Y-2279524D01*
X2156786Y-2289524D02*
X2162500Y-2289524D01*
X2159643Y-2289524D02*
X2159643Y-2279524D01*
X2160595Y-2280952D01*
X2161548Y-2281905D01*
X2162500Y-2282381D01*
X2152024Y-2289048D02*
X2152024Y-2289524D01*
X2152500Y-2290476D01*
X2152976Y-2290952D01*
X2134881Y-2289524D02*
X2140595Y-2289524D01*
X2137738Y-2289524D02*
X2137738Y-2279524D01*
X2138690Y-2280952D01*
X2139643Y-2281905D01*
X2140595Y-2282381D01*
X2128690Y-2279524D02*
X2127738Y-2279524D01*
X2126786Y-2280000D01*
X2126310Y-2280476D01*
X2125833Y-2281429D01*
X2125357Y-2283333D01*
X2125357Y-2285714D01*
X2125833Y-2287619D01*
X2126310Y-2288571D01*
X2126786Y-2289048D01*
X2127738Y-2289524D01*
X2128690Y-2289524D01*
X2129643Y-2289048D01*
X2130119Y-2288571D01*
X2130595Y-2287619D01*
X2131071Y-2285714D01*
X2131071Y-2283333D01*
X2130595Y-2281429D01*
X2130119Y-2280476D01*
X2129643Y-2280000D01*
X2128690Y-2279524D01*
X2119167Y-2279524D02*
X2118214Y-2279524D01*
X2117262Y-2280000D01*
X2116786Y-2280476D01*
X2116310Y-2281429D01*
X2115833Y-2283333D01*
X2115833Y-2285714D01*
X2116310Y-2287619D01*
X2116786Y-2288571D01*
X2117262Y-2289048D01*
X2118214Y-2289524D01*
X2119167Y-2289524D01*
X2120119Y-2289048D01*
X2120595Y-2288571D01*
X2121071Y-2287619D01*
X2121548Y-2285714D01*
X2121548Y-2283333D01*
X2121071Y-2281429D01*
X2120595Y-2280476D01*
X2120119Y-2280000D01*
X2119167Y-2279524D01*
X2111548Y-2282857D02*
X2111548Y-2289524D01*
X2111548Y-2283810D02*
X2111071Y-2283333D01*
X2110119Y-2282857D01*
X2108690Y-2282857D01*
X2107738Y-2283333D01*
X2107262Y-2284286D01*
X2107262Y-2289524D01*
X2099167Y-2284286D02*
X2102500Y-2284286D01*
X2102500Y-2289524D02*
X2102500Y-2279524D01*
X2097738Y-2279524D01*
X2093452Y-2289048D02*
X2093452Y-2289524D01*
X2093928Y-2290476D01*
X2094405Y-2290952D01*
X2076309Y-2289524D02*
X2082024Y-2289524D01*
X2079167Y-2289524D02*
X2079167Y-2279524D01*
X2080119Y-2280952D01*
X2081071Y-2281905D01*
X2082024Y-2282381D01*
X2070119Y-2279524D02*
X2069167Y-2279524D01*
X2068214Y-2280000D01*
X2067738Y-2280476D01*
X2067262Y-2281429D01*
X2066786Y-2283333D01*
X2066786Y-2285714D01*
X2067262Y-2287619D01*
X2067738Y-2288571D01*
X2068214Y-2289048D01*
X2069167Y-2289524D01*
X2070119Y-2289524D01*
X2071071Y-2289048D01*
X2071548Y-2288571D01*
X2072024Y-2287619D01*
X2072500Y-2285714D01*
X2072500Y-2283333D01*
X2072024Y-2281429D01*
X2071548Y-2280476D01*
X2071071Y-2280000D01*
X2070119Y-2279524D01*
X2063928Y-2279524D02*
X2060595Y-2289524D01*
X2057262Y-2279524D01*
X2053452Y-2289048D02*
X2053452Y-2289524D01*
X2053928Y-2290476D01*
X2054405Y-2290952D01*
X2042500Y-2279524D02*
X2035833Y-2289524D01*
X2035833Y-2279524D02*
X2042500Y-2289524D01*
X2027262Y-2279524D02*
X2032024Y-2279524D01*
X2032500Y-2284286D01*
X2032024Y-2283810D01*
X2031071Y-2283333D01*
X2028690Y-2283333D01*
X2027738Y-2283810D01*
X2027262Y-2284286D01*
X2026786Y-2285238D01*
X2026786Y-2287619D01*
X2027262Y-2288571D01*
X2027738Y-2289048D01*
X2028690Y-2289524D01*
X2031071Y-2289524D01*
X2032024Y-2289048D01*
X2032500Y-2288571D01*
X2016786Y-2289524D02*
X2020119Y-2284762D01*
X2022500Y-2289524D02*
X2022500Y-2279524D01*
X2018690Y-2279524D01*
X2017738Y-2280000D01*
X2017262Y-2280476D01*
X2016786Y-2281429D01*
X2016786Y-2282857D01*
X2017262Y-2283810D01*
X2017738Y-2284286D01*
X2018690Y-2284762D01*
X2022500Y-2284762D01*
X2012024Y-2289048D02*
X2012024Y-2289524D01*
X2012500Y-2290476D01*
X2012976Y-2290952D01*
X2000595Y-2280476D02*
X2000119Y-2280000D01*
X1999167Y-2279524D01*
X1996786Y-2279524D01*
X1995833Y-2280000D01*
X1995357Y-2280476D01*
X1994881Y-2281429D01*
X1994881Y-2282381D01*
X1995357Y-2283810D01*
X2001071Y-2289524D01*
X1994881Y-2289524D01*
X1988690Y-2279524D02*
X1987738Y-2279524D01*
X1986786Y-2280000D01*
X1986309Y-2280476D01*
X1985833Y-2281429D01*
X1985357Y-2283333D01*
X1985357Y-2285714D01*
X1985833Y-2287619D01*
X1986309Y-2288571D01*
X1986786Y-2289048D01*
X1987738Y-2289524D01*
X1988690Y-2289524D01*
X1989643Y-2289048D01*
X1990119Y-2288571D01*
X1990595Y-2287619D01*
X1991071Y-2285714D01*
X1991071Y-2283333D01*
X1990595Y-2281429D01*
X1990119Y-2280476D01*
X1989643Y-2280000D01*
X1988690Y-2279524D01*
X1981548Y-2289524D02*
X1973928Y-2279524D01*
X1980119Y-2279524D02*
X1979167Y-2280000D01*
X1978690Y-2280952D01*
X1979167Y-2281905D01*
X1980119Y-2282381D01*
X1981071Y-2281905D01*
X1981548Y-2280952D01*
X1981071Y-2280000D01*
X1980119Y-2279524D01*
X1974405Y-2289048D02*
X1973928Y-2288095D01*
X1974405Y-2287143D01*
X1975357Y-2286667D01*
X1976309Y-2287143D01*
X1976786Y-2288095D01*
X1976309Y-2289048D01*
X1975357Y-2289524D01*
X1974405Y-2289048D01*
X2096667Y-2258071D02*
X2097143Y-2258548D01*
X2098571Y-2259024D01*
X2099524Y-2259024D01*
X2100952Y-2258548D01*
X2101905Y-2257595D01*
X2102381Y-2256643D01*
X2102857Y-2254738D01*
X2102857Y-2253310D01*
X2102381Y-2251405D01*
X2101905Y-2250452D01*
X2100952Y-2249500D01*
X2099524Y-2249024D01*
X2098571Y-2249024D01*
X2097143Y-2249500D01*
X2096667Y-2249976D01*
X2088095Y-2252357D02*
X2088095Y-2259024D01*
X2090476Y-2248548D02*
X2092857Y-2255690D01*
X2086667Y-2255690D01*
G04 #@! TO.C,C5*
X2174524Y-2168333D02*
X2174524Y-2169286D01*
X2175000Y-2170238D01*
X2175476Y-2170714D01*
X2176429Y-2171190D01*
X2178333Y-2171667D01*
X2180714Y-2171667D01*
X2182619Y-2171190D01*
X2183571Y-2170714D01*
X2184048Y-2170238D01*
X2184524Y-2169286D01*
X2184524Y-2168333D01*
X2184048Y-2167381D01*
X2183571Y-2166905D01*
X2182619Y-2166429D01*
X2180714Y-2165952D01*
X2178333Y-2165952D01*
X2176429Y-2166429D01*
X2175476Y-2166905D01*
X2175000Y-2167381D01*
X2174524Y-2168333D01*
X2175476Y-2175476D02*
X2175000Y-2175952D01*
X2174524Y-2176905D01*
X2174524Y-2179286D01*
X2175000Y-2180238D01*
X2175476Y-2180714D01*
X2176429Y-2181190D01*
X2177381Y-2181190D01*
X2178810Y-2180714D01*
X2184524Y-2175000D01*
X2184524Y-2181190D01*
X2174524Y-2187381D02*
X2174524Y-2188333D01*
X2175000Y-2189286D01*
X2175476Y-2189762D01*
X2176429Y-2190238D01*
X2178333Y-2190714D01*
X2180714Y-2190714D01*
X2182619Y-2190238D01*
X2183571Y-2189762D01*
X2184048Y-2189286D01*
X2184524Y-2188333D01*
X2184524Y-2187381D01*
X2184048Y-2186429D01*
X2183571Y-2185952D01*
X2182619Y-2185476D01*
X2180714Y-2185000D01*
X2178333Y-2185000D01*
X2176429Y-2185476D01*
X2175476Y-2185952D01*
X2175000Y-2186429D01*
X2174524Y-2187381D01*
X2184524Y-2200238D02*
X2184524Y-2194524D01*
X2184524Y-2197381D02*
X2174524Y-2197381D01*
X2175952Y-2196429D01*
X2176905Y-2195476D01*
X2177381Y-2194524D01*
X2184048Y-2205000D02*
X2184524Y-2205000D01*
X2185476Y-2204524D01*
X2185952Y-2204048D01*
X2184524Y-2222143D02*
X2184524Y-2216429D01*
X2184524Y-2219286D02*
X2174524Y-2219286D01*
X2175952Y-2218333D01*
X2176905Y-2217381D01*
X2177381Y-2216429D01*
X2177857Y-2230714D02*
X2184524Y-2230714D01*
X2177857Y-2226429D02*
X2183095Y-2226429D01*
X2184048Y-2226905D01*
X2184524Y-2227857D01*
X2184524Y-2229286D01*
X2184048Y-2230238D01*
X2183571Y-2230714D01*
X2179286Y-2238810D02*
X2179286Y-2235476D01*
X2184524Y-2235476D02*
X2174524Y-2235476D01*
X2174524Y-2240238D01*
X2184048Y-2244524D02*
X2184524Y-2244524D01*
X2185476Y-2244048D01*
X2185952Y-2243571D01*
X2184524Y-2261667D02*
X2184524Y-2255952D01*
X2184524Y-2258810D02*
X2174524Y-2258810D01*
X2175952Y-2257857D01*
X2176905Y-2256905D01*
X2177381Y-2255952D01*
X2174524Y-2267857D02*
X2174524Y-2268810D01*
X2175000Y-2269762D01*
X2175476Y-2270238D01*
X2176429Y-2270714D01*
X2178333Y-2271190D01*
X2180714Y-2271190D01*
X2182619Y-2270714D01*
X2183571Y-2270238D01*
X2184048Y-2269762D01*
X2184524Y-2268810D01*
X2184524Y-2267857D01*
X2184048Y-2266905D01*
X2183571Y-2266429D01*
X2182619Y-2265952D01*
X2180714Y-2265476D01*
X2178333Y-2265476D01*
X2176429Y-2265952D01*
X2175476Y-2266429D01*
X2175000Y-2266905D01*
X2174524Y-2267857D01*
X2174524Y-2274048D02*
X2184524Y-2277381D01*
X2174524Y-2280714D01*
X2184048Y-2284524D02*
X2184524Y-2284524D01*
X2185476Y-2284048D01*
X2185952Y-2283571D01*
X2174524Y-2295476D02*
X2184524Y-2302143D01*
X2174524Y-2302143D02*
X2184524Y-2295476D01*
X2174524Y-2310714D02*
X2174524Y-2305952D01*
X2179286Y-2305476D01*
X2178810Y-2305952D01*
X2178333Y-2306905D01*
X2178333Y-2309286D01*
X2178810Y-2310238D01*
X2179286Y-2310714D01*
X2180238Y-2311190D01*
X2182619Y-2311190D01*
X2183571Y-2310714D01*
X2184048Y-2310238D01*
X2184524Y-2309286D01*
X2184524Y-2306905D01*
X2184048Y-2305952D01*
X2183571Y-2305476D01*
X2184524Y-2321190D02*
X2179762Y-2317857D01*
X2184524Y-2315476D02*
X2174524Y-2315476D01*
X2174524Y-2319286D01*
X2175000Y-2320238D01*
X2175476Y-2320714D01*
X2176429Y-2321190D01*
X2177857Y-2321190D01*
X2178810Y-2320714D01*
X2179286Y-2320238D01*
X2179762Y-2319286D01*
X2179762Y-2315476D01*
X2184048Y-2325952D02*
X2184524Y-2325952D01*
X2185476Y-2325476D01*
X2185952Y-2325000D01*
X2175476Y-2337381D02*
X2175000Y-2337857D01*
X2174524Y-2338810D01*
X2174524Y-2341190D01*
X2175000Y-2342143D01*
X2175476Y-2342619D01*
X2176429Y-2343095D01*
X2177381Y-2343095D01*
X2178810Y-2342619D01*
X2184524Y-2336905D01*
X2184524Y-2343095D01*
X2174524Y-2349286D02*
X2174524Y-2350238D01*
X2175000Y-2351190D01*
X2175476Y-2351667D01*
X2176429Y-2352143D01*
X2178333Y-2352619D01*
X2180714Y-2352619D01*
X2182619Y-2352143D01*
X2183571Y-2351667D01*
X2184048Y-2351190D01*
X2184524Y-2350238D01*
X2184524Y-2349286D01*
X2184048Y-2348333D01*
X2183571Y-2347857D01*
X2182619Y-2347381D01*
X2180714Y-2346905D01*
X2178333Y-2346905D01*
X2176429Y-2347381D01*
X2175476Y-2347857D01*
X2175000Y-2348333D01*
X2174524Y-2349286D01*
X2184524Y-2356429D02*
X2174524Y-2364048D01*
X2174524Y-2357857D02*
X2175000Y-2358810D01*
X2175952Y-2359286D01*
X2176905Y-2358810D01*
X2177381Y-2357857D01*
X2176905Y-2356905D01*
X2175952Y-2356429D01*
X2175000Y-2356905D01*
X2174524Y-2357857D01*
X2184048Y-2363571D02*
X2183095Y-2364048D01*
X2182143Y-2363571D01*
X2181667Y-2362619D01*
X2182143Y-2361667D01*
X2183095Y-2361190D01*
X2184048Y-2361667D01*
X2184524Y-2362619D01*
X2184048Y-2363571D01*
X2213571Y-2260833D02*
X2214048Y-2260357D01*
X2214524Y-2258929D01*
X2214524Y-2257976D01*
X2214048Y-2256548D01*
X2213095Y-2255595D01*
X2212143Y-2255119D01*
X2210238Y-2254643D01*
X2208810Y-2254643D01*
X2206905Y-2255119D01*
X2205952Y-2255595D01*
X2205000Y-2256548D01*
X2204524Y-2257976D01*
X2204524Y-2258929D01*
X2205000Y-2260357D01*
X2205476Y-2260833D01*
X2204524Y-2269881D02*
X2204524Y-2265119D01*
X2209286Y-2264643D01*
X2208810Y-2265119D01*
X2208333Y-2266071D01*
X2208333Y-2268452D01*
X2208810Y-2269405D01*
X2209286Y-2269881D01*
X2210238Y-2270357D01*
X2212619Y-2270357D01*
X2213571Y-2269881D01*
X2214048Y-2269405D01*
X2214524Y-2268452D01*
X2214524Y-2266071D01*
X2214048Y-2265119D01*
X2213571Y-2264643D01*
G04 #@! TO.C,C7*
X2249524Y-2153810D02*
X2249524Y-2154762D01*
X2250000Y-2155714D01*
X2250476Y-2156190D01*
X2251429Y-2156667D01*
X2253333Y-2157143D01*
X2255714Y-2157143D01*
X2257619Y-2156667D01*
X2258571Y-2156190D01*
X2259048Y-2155714D01*
X2259524Y-2154762D01*
X2259524Y-2153810D01*
X2259048Y-2152857D01*
X2258571Y-2152381D01*
X2257619Y-2151905D01*
X2255714Y-2151429D01*
X2253333Y-2151429D01*
X2251429Y-2151905D01*
X2250476Y-2152381D01*
X2250000Y-2152857D01*
X2249524Y-2153810D01*
X2250476Y-2160952D02*
X2250000Y-2161429D01*
X2249524Y-2162381D01*
X2249524Y-2164762D01*
X2250000Y-2165714D01*
X2250476Y-2166190D01*
X2251429Y-2166667D01*
X2252381Y-2166667D01*
X2253810Y-2166190D01*
X2259524Y-2160476D01*
X2259524Y-2166667D01*
X2249524Y-2172857D02*
X2249524Y-2173810D01*
X2250000Y-2174762D01*
X2250476Y-2175238D01*
X2251429Y-2175714D01*
X2253333Y-2176190D01*
X2255714Y-2176190D01*
X2257619Y-2175714D01*
X2258571Y-2175238D01*
X2259048Y-2174762D01*
X2259524Y-2173810D01*
X2259524Y-2172857D01*
X2259048Y-2171905D01*
X2258571Y-2171429D01*
X2257619Y-2170952D01*
X2255714Y-2170476D01*
X2253333Y-2170476D01*
X2251429Y-2170952D01*
X2250476Y-2171429D01*
X2250000Y-2171905D01*
X2249524Y-2172857D01*
X2259524Y-2185714D02*
X2259524Y-2180000D01*
X2259524Y-2182857D02*
X2249524Y-2182857D01*
X2250952Y-2181905D01*
X2251905Y-2180952D01*
X2252381Y-2180000D01*
X2259048Y-2190476D02*
X2259524Y-2190476D01*
X2260476Y-2190000D01*
X2260952Y-2189524D01*
X2259524Y-2207619D02*
X2259524Y-2201905D01*
X2259524Y-2204762D02*
X2249524Y-2204762D01*
X2250952Y-2203810D01*
X2251905Y-2202857D01*
X2252381Y-2201905D01*
X2249524Y-2213810D02*
X2249524Y-2214762D01*
X2250000Y-2215714D01*
X2250476Y-2216190D01*
X2251429Y-2216667D01*
X2253333Y-2217143D01*
X2255714Y-2217143D01*
X2257619Y-2216667D01*
X2258571Y-2216190D01*
X2259048Y-2215714D01*
X2259524Y-2214762D01*
X2259524Y-2213810D01*
X2259048Y-2212857D01*
X2258571Y-2212381D01*
X2257619Y-2211905D01*
X2255714Y-2211429D01*
X2253333Y-2211429D01*
X2251429Y-2211905D01*
X2250476Y-2212381D01*
X2250000Y-2212857D01*
X2249524Y-2213810D01*
X2249524Y-2223333D02*
X2249524Y-2224286D01*
X2250000Y-2225238D01*
X2250476Y-2225714D01*
X2251429Y-2226190D01*
X2253333Y-2226667D01*
X2255714Y-2226667D01*
X2257619Y-2226190D01*
X2258571Y-2225714D01*
X2259048Y-2225238D01*
X2259524Y-2224286D01*
X2259524Y-2223333D01*
X2259048Y-2222381D01*
X2258571Y-2221905D01*
X2257619Y-2221429D01*
X2255714Y-2220952D01*
X2253333Y-2220952D01*
X2251429Y-2221429D01*
X2250476Y-2221905D01*
X2250000Y-2222381D01*
X2249524Y-2223333D01*
X2252857Y-2230952D02*
X2259524Y-2230952D01*
X2253810Y-2230952D02*
X2253333Y-2231429D01*
X2252857Y-2232381D01*
X2252857Y-2233810D01*
X2253333Y-2234762D01*
X2254286Y-2235238D01*
X2259524Y-2235238D01*
X2254286Y-2243333D02*
X2254286Y-2240000D01*
X2259524Y-2240000D02*
X2249524Y-2240000D01*
X2249524Y-2244762D01*
X2259048Y-2249048D02*
X2259524Y-2249048D01*
X2260476Y-2248571D01*
X2260952Y-2248095D01*
X2259524Y-2266190D02*
X2259524Y-2260476D01*
X2259524Y-2263333D02*
X2249524Y-2263333D01*
X2250952Y-2262381D01*
X2251905Y-2261429D01*
X2252381Y-2260476D01*
X2249524Y-2272381D02*
X2249524Y-2273333D01*
X2250000Y-2274286D01*
X2250476Y-2274762D01*
X2251429Y-2275238D01*
X2253333Y-2275714D01*
X2255714Y-2275714D01*
X2257619Y-2275238D01*
X2258571Y-2274762D01*
X2259048Y-2274286D01*
X2259524Y-2273333D01*
X2259524Y-2272381D01*
X2259048Y-2271429D01*
X2258571Y-2270952D01*
X2257619Y-2270476D01*
X2255714Y-2270000D01*
X2253333Y-2270000D01*
X2251429Y-2270476D01*
X2250476Y-2270952D01*
X2250000Y-2271429D01*
X2249524Y-2272381D01*
X2249524Y-2278571D02*
X2259524Y-2281905D01*
X2249524Y-2285238D01*
X2259048Y-2289048D02*
X2259524Y-2289048D01*
X2260476Y-2288571D01*
X2260952Y-2288095D01*
X2249524Y-2300000D02*
X2259524Y-2306667D01*
X2249524Y-2306667D02*
X2259524Y-2300000D01*
X2249524Y-2315238D02*
X2249524Y-2310476D01*
X2254286Y-2310000D01*
X2253810Y-2310476D01*
X2253333Y-2311429D01*
X2253333Y-2313810D01*
X2253810Y-2314762D01*
X2254286Y-2315238D01*
X2255238Y-2315714D01*
X2257619Y-2315714D01*
X2258571Y-2315238D01*
X2259048Y-2314762D01*
X2259524Y-2313810D01*
X2259524Y-2311429D01*
X2259048Y-2310476D01*
X2258571Y-2310000D01*
X2259524Y-2325714D02*
X2254762Y-2322381D01*
X2259524Y-2320000D02*
X2249524Y-2320000D01*
X2249524Y-2323810D01*
X2250000Y-2324762D01*
X2250476Y-2325238D01*
X2251429Y-2325714D01*
X2252857Y-2325714D01*
X2253810Y-2325238D01*
X2254286Y-2324762D01*
X2254762Y-2323810D01*
X2254762Y-2320000D01*
X2259048Y-2330476D02*
X2259524Y-2330476D01*
X2260476Y-2330000D01*
X2260952Y-2329524D01*
X2250476Y-2341905D02*
X2250000Y-2342381D01*
X2249524Y-2343333D01*
X2249524Y-2345714D01*
X2250000Y-2346667D01*
X2250476Y-2347143D01*
X2251429Y-2347619D01*
X2252381Y-2347619D01*
X2253810Y-2347143D01*
X2259524Y-2341429D01*
X2259524Y-2347619D01*
X2249524Y-2353810D02*
X2249524Y-2354762D01*
X2250000Y-2355714D01*
X2250476Y-2356190D01*
X2251429Y-2356667D01*
X2253333Y-2357143D01*
X2255714Y-2357143D01*
X2257619Y-2356667D01*
X2258571Y-2356190D01*
X2259048Y-2355714D01*
X2259524Y-2354762D01*
X2259524Y-2353810D01*
X2259048Y-2352857D01*
X2258571Y-2352381D01*
X2257619Y-2351905D01*
X2255714Y-2351429D01*
X2253333Y-2351429D01*
X2251429Y-2351905D01*
X2250476Y-2352381D01*
X2250000Y-2352857D01*
X2249524Y-2353810D01*
X2259524Y-2360952D02*
X2249524Y-2368571D01*
X2249524Y-2362381D02*
X2250000Y-2363333D01*
X2250952Y-2363810D01*
X2251905Y-2363333D01*
X2252381Y-2362381D01*
X2251905Y-2361429D01*
X2250952Y-2360952D01*
X2250000Y-2361429D01*
X2249524Y-2362381D01*
X2259048Y-2368095D02*
X2258095Y-2368571D01*
X2257143Y-2368095D01*
X2256667Y-2367143D01*
X2257143Y-2366190D01*
X2258095Y-2365714D01*
X2259048Y-2366190D01*
X2259524Y-2367143D01*
X2259048Y-2368095D01*
X2283571Y-2260833D02*
X2284048Y-2260357D01*
X2284524Y-2258929D01*
X2284524Y-2257976D01*
X2284048Y-2256548D01*
X2283095Y-2255595D01*
X2282143Y-2255119D01*
X2280238Y-2254643D01*
X2278810Y-2254643D01*
X2276905Y-2255119D01*
X2275952Y-2255595D01*
X2275000Y-2256548D01*
X2274524Y-2257976D01*
X2274524Y-2258929D01*
X2275000Y-2260357D01*
X2275476Y-2260833D01*
X2274524Y-2264167D02*
X2274524Y-2270833D01*
X2284524Y-2266548D01*
G04 #@! TO.C,C8*
X2047024Y-1723333D02*
X2047024Y-1724286D01*
X2047500Y-1725238D01*
X2047976Y-1725714D01*
X2048928Y-1726190D01*
X2050833Y-1726667D01*
X2053214Y-1726667D01*
X2055119Y-1726190D01*
X2056071Y-1725714D01*
X2056548Y-1725238D01*
X2057024Y-1724286D01*
X2057024Y-1723333D01*
X2056548Y-1722381D01*
X2056071Y-1721905D01*
X2055119Y-1721428D01*
X2053214Y-1720952D01*
X2050833Y-1720952D01*
X2048928Y-1721428D01*
X2047976Y-1721905D01*
X2047500Y-1722381D01*
X2047024Y-1723333D01*
X2047976Y-1730476D02*
X2047500Y-1730952D01*
X2047024Y-1731905D01*
X2047024Y-1734286D01*
X2047500Y-1735238D01*
X2047976Y-1735714D01*
X2048928Y-1736190D01*
X2049881Y-1736190D01*
X2051309Y-1735714D01*
X2057024Y-1730000D01*
X2057024Y-1736190D01*
X2047024Y-1742381D02*
X2047024Y-1743333D01*
X2047500Y-1744286D01*
X2047976Y-1744762D01*
X2048928Y-1745238D01*
X2050833Y-1745714D01*
X2053214Y-1745714D01*
X2055119Y-1745238D01*
X2056071Y-1744762D01*
X2056548Y-1744286D01*
X2057024Y-1743333D01*
X2057024Y-1742381D01*
X2056548Y-1741428D01*
X2056071Y-1740952D01*
X2055119Y-1740476D01*
X2053214Y-1740000D01*
X2050833Y-1740000D01*
X2048928Y-1740476D01*
X2047976Y-1740952D01*
X2047500Y-1741428D01*
X2047024Y-1742381D01*
X2057024Y-1755238D02*
X2057024Y-1749524D01*
X2057024Y-1752381D02*
X2047024Y-1752381D01*
X2048452Y-1751428D01*
X2049405Y-1750476D01*
X2049881Y-1749524D01*
X2056548Y-1760000D02*
X2057024Y-1760000D01*
X2057976Y-1759524D01*
X2058452Y-1759048D01*
X2057024Y-1777143D02*
X2057024Y-1771428D01*
X2057024Y-1774286D02*
X2047024Y-1774286D01*
X2048452Y-1773333D01*
X2049405Y-1772381D01*
X2049881Y-1771428D01*
X2050357Y-1785714D02*
X2057024Y-1785714D01*
X2050357Y-1781428D02*
X2055595Y-1781428D01*
X2056548Y-1781905D01*
X2057024Y-1782857D01*
X2057024Y-1784286D01*
X2056548Y-1785238D01*
X2056071Y-1785714D01*
X2051786Y-1793809D02*
X2051786Y-1790476D01*
X2057024Y-1790476D02*
X2047024Y-1790476D01*
X2047024Y-1795238D01*
X2056548Y-1799524D02*
X2057024Y-1799524D01*
X2057976Y-1799048D01*
X2058452Y-1798571D01*
X2057024Y-1816667D02*
X2057024Y-1810952D01*
X2057024Y-1813809D02*
X2047024Y-1813809D01*
X2048452Y-1812857D01*
X2049405Y-1811905D01*
X2049881Y-1810952D01*
X2047024Y-1822857D02*
X2047024Y-1823809D01*
X2047500Y-1824762D01*
X2047976Y-1825238D01*
X2048928Y-1825714D01*
X2050833Y-1826190D01*
X2053214Y-1826190D01*
X2055119Y-1825714D01*
X2056071Y-1825238D01*
X2056548Y-1824762D01*
X2057024Y-1823809D01*
X2057024Y-1822857D01*
X2056548Y-1821905D01*
X2056071Y-1821428D01*
X2055119Y-1820952D01*
X2053214Y-1820476D01*
X2050833Y-1820476D01*
X2048928Y-1820952D01*
X2047976Y-1821428D01*
X2047500Y-1821905D01*
X2047024Y-1822857D01*
X2047024Y-1829048D02*
X2057024Y-1832381D01*
X2047024Y-1835714D01*
X2056548Y-1839524D02*
X2057024Y-1839524D01*
X2057976Y-1839048D01*
X2058452Y-1838571D01*
X2047024Y-1850476D02*
X2057024Y-1857143D01*
X2047024Y-1857143D02*
X2057024Y-1850476D01*
X2047024Y-1865714D02*
X2047024Y-1860952D01*
X2051786Y-1860476D01*
X2051309Y-1860952D01*
X2050833Y-1861905D01*
X2050833Y-1864286D01*
X2051309Y-1865238D01*
X2051786Y-1865714D01*
X2052738Y-1866190D01*
X2055119Y-1866190D01*
X2056071Y-1865714D01*
X2056548Y-1865238D01*
X2057024Y-1864286D01*
X2057024Y-1861905D01*
X2056548Y-1860952D01*
X2056071Y-1860476D01*
X2057024Y-1876190D02*
X2052262Y-1872857D01*
X2057024Y-1870476D02*
X2047024Y-1870476D01*
X2047024Y-1874286D01*
X2047500Y-1875238D01*
X2047976Y-1875714D01*
X2048928Y-1876190D01*
X2050357Y-1876190D01*
X2051309Y-1875714D01*
X2051786Y-1875238D01*
X2052262Y-1874286D01*
X2052262Y-1870476D01*
X2056548Y-1880952D02*
X2057024Y-1880952D01*
X2057976Y-1880476D01*
X2058452Y-1880000D01*
X2047976Y-1892381D02*
X2047500Y-1892857D01*
X2047024Y-1893809D01*
X2047024Y-1896190D01*
X2047500Y-1897143D01*
X2047976Y-1897619D01*
X2048928Y-1898095D01*
X2049881Y-1898095D01*
X2051309Y-1897619D01*
X2057024Y-1891905D01*
X2057024Y-1898095D01*
X2047024Y-1904286D02*
X2047024Y-1905238D01*
X2047500Y-1906190D01*
X2047976Y-1906667D01*
X2048928Y-1907143D01*
X2050833Y-1907619D01*
X2053214Y-1907619D01*
X2055119Y-1907143D01*
X2056071Y-1906667D01*
X2056548Y-1906190D01*
X2057024Y-1905238D01*
X2057024Y-1904286D01*
X2056548Y-1903333D01*
X2056071Y-1902857D01*
X2055119Y-1902381D01*
X2053214Y-1901905D01*
X2050833Y-1901905D01*
X2048928Y-1902381D01*
X2047976Y-1902857D01*
X2047500Y-1903333D01*
X2047024Y-1904286D01*
X2057024Y-1911428D02*
X2047024Y-1919048D01*
X2047024Y-1912857D02*
X2047500Y-1913809D01*
X2048452Y-1914286D01*
X2049405Y-1913809D01*
X2049881Y-1912857D01*
X2049405Y-1911905D01*
X2048452Y-1911428D01*
X2047500Y-1911905D01*
X2047024Y-1912857D01*
X2056548Y-1918571D02*
X2055595Y-1919048D01*
X2054643Y-1918571D01*
X2054167Y-1917619D01*
X2054643Y-1916667D01*
X2055595Y-1916190D01*
X2056548Y-1916667D01*
X2057024Y-1917619D01*
X2056548Y-1918571D01*
X2029571Y-1818833D02*
X2030048Y-1818357D01*
X2030524Y-1816928D01*
X2030524Y-1815976D01*
X2030048Y-1814548D01*
X2029095Y-1813595D01*
X2028143Y-1813119D01*
X2026238Y-1812643D01*
X2024809Y-1812643D01*
X2022905Y-1813119D01*
X2021952Y-1813595D01*
X2021000Y-1814548D01*
X2020524Y-1815976D01*
X2020524Y-1816928D01*
X2021000Y-1818357D01*
X2021476Y-1818833D01*
X2024809Y-1824548D02*
X2024333Y-1823595D01*
X2023857Y-1823119D01*
X2022905Y-1822643D01*
X2022428Y-1822643D01*
X2021476Y-1823119D01*
X2021000Y-1823595D01*
X2020524Y-1824548D01*
X2020524Y-1826452D01*
X2021000Y-1827405D01*
X2021476Y-1827881D01*
X2022428Y-1828357D01*
X2022905Y-1828357D01*
X2023857Y-1827881D01*
X2024333Y-1827405D01*
X2024809Y-1826452D01*
X2024809Y-1824548D01*
X2025286Y-1823595D01*
X2025762Y-1823119D01*
X2026714Y-1822643D01*
X2028619Y-1822643D01*
X2029571Y-1823119D01*
X2030048Y-1823595D01*
X2030524Y-1824548D01*
X2030524Y-1826452D01*
X2030048Y-1827405D01*
X2029571Y-1827881D01*
X2028619Y-1828357D01*
X2026714Y-1828357D01*
X2025762Y-1827881D01*
X2025286Y-1827405D01*
X2024809Y-1826452D01*
G04 #@! TO.C,C9*
X2039524Y-2270833D02*
X2039524Y-2271786D01*
X2040000Y-2272738D01*
X2040476Y-2273214D01*
X2041428Y-2273690D01*
X2043333Y-2274167D01*
X2045714Y-2274167D01*
X2047619Y-2273690D01*
X2048571Y-2273214D01*
X2049048Y-2272738D01*
X2049524Y-2271786D01*
X2049524Y-2270833D01*
X2049048Y-2269881D01*
X2048571Y-2269405D01*
X2047619Y-2268929D01*
X2045714Y-2268452D01*
X2043333Y-2268452D01*
X2041428Y-2268929D01*
X2040476Y-2269405D01*
X2040000Y-2269881D01*
X2039524Y-2270833D01*
X2040476Y-2277976D02*
X2040000Y-2278452D01*
X2039524Y-2279405D01*
X2039524Y-2281786D01*
X2040000Y-2282738D01*
X2040476Y-2283214D01*
X2041428Y-2283690D01*
X2042381Y-2283690D01*
X2043809Y-2283214D01*
X2049524Y-2277500D01*
X2049524Y-2283690D01*
X2039524Y-2289881D02*
X2039524Y-2290833D01*
X2040000Y-2291786D01*
X2040476Y-2292262D01*
X2041428Y-2292738D01*
X2043333Y-2293214D01*
X2045714Y-2293214D01*
X2047619Y-2292738D01*
X2048571Y-2292262D01*
X2049048Y-2291786D01*
X2049524Y-2290833D01*
X2049524Y-2289881D01*
X2049048Y-2288929D01*
X2048571Y-2288452D01*
X2047619Y-2287976D01*
X2045714Y-2287500D01*
X2043333Y-2287500D01*
X2041428Y-2287976D01*
X2040476Y-2288452D01*
X2040000Y-2288929D01*
X2039524Y-2289881D01*
X2049524Y-2302738D02*
X2049524Y-2297024D01*
X2049524Y-2299881D02*
X2039524Y-2299881D01*
X2040952Y-2298929D01*
X2041905Y-2297976D01*
X2042381Y-2297024D01*
X2049048Y-2307500D02*
X2049524Y-2307500D01*
X2050476Y-2307024D01*
X2050952Y-2306548D01*
X2049524Y-2324643D02*
X2049524Y-2318929D01*
X2049524Y-2321786D02*
X2039524Y-2321786D01*
X2040952Y-2320833D01*
X2041905Y-2319881D01*
X2042381Y-2318929D01*
X2042857Y-2333214D02*
X2049524Y-2333214D01*
X2042857Y-2328929D02*
X2048095Y-2328929D01*
X2049048Y-2329405D01*
X2049524Y-2330357D01*
X2049524Y-2331786D01*
X2049048Y-2332738D01*
X2048571Y-2333214D01*
X2044286Y-2341310D02*
X2044286Y-2337976D01*
X2049524Y-2337976D02*
X2039524Y-2337976D01*
X2039524Y-2342738D01*
X2049048Y-2347024D02*
X2049524Y-2347024D01*
X2050476Y-2346548D01*
X2050952Y-2346071D01*
X2049524Y-2364167D02*
X2049524Y-2358452D01*
X2049524Y-2361310D02*
X2039524Y-2361310D01*
X2040952Y-2360357D01*
X2041905Y-2359405D01*
X2042381Y-2358452D01*
X2039524Y-2370357D02*
X2039524Y-2371310D01*
X2040000Y-2372262D01*
X2040476Y-2372738D01*
X2041428Y-2373214D01*
X2043333Y-2373690D01*
X2045714Y-2373690D01*
X2047619Y-2373214D01*
X2048571Y-2372738D01*
X2049048Y-2372262D01*
X2049524Y-2371310D01*
X2049524Y-2370357D01*
X2049048Y-2369405D01*
X2048571Y-2368929D01*
X2047619Y-2368452D01*
X2045714Y-2367976D01*
X2043333Y-2367976D01*
X2041428Y-2368452D01*
X2040476Y-2368929D01*
X2040000Y-2369405D01*
X2039524Y-2370357D01*
X2039524Y-2376548D02*
X2049524Y-2379881D01*
X2039524Y-2383214D01*
X2049048Y-2387024D02*
X2049524Y-2387024D01*
X2050476Y-2386548D01*
X2050952Y-2386071D01*
X2039524Y-2397976D02*
X2049524Y-2404643D01*
X2039524Y-2404643D02*
X2049524Y-2397976D01*
X2039524Y-2413214D02*
X2039524Y-2408452D01*
X2044286Y-2407976D01*
X2043809Y-2408452D01*
X2043333Y-2409405D01*
X2043333Y-2411786D01*
X2043809Y-2412738D01*
X2044286Y-2413214D01*
X2045238Y-2413690D01*
X2047619Y-2413690D01*
X2048571Y-2413214D01*
X2049048Y-2412738D01*
X2049524Y-2411786D01*
X2049524Y-2409405D01*
X2049048Y-2408452D01*
X2048571Y-2407976D01*
X2049524Y-2423690D02*
X2044762Y-2420357D01*
X2049524Y-2417976D02*
X2039524Y-2417976D01*
X2039524Y-2421786D01*
X2040000Y-2422738D01*
X2040476Y-2423214D01*
X2041428Y-2423690D01*
X2042857Y-2423690D01*
X2043809Y-2423214D01*
X2044286Y-2422738D01*
X2044762Y-2421786D01*
X2044762Y-2417976D01*
X2049048Y-2428452D02*
X2049524Y-2428452D01*
X2050476Y-2427976D01*
X2050952Y-2427500D01*
X2040476Y-2439881D02*
X2040000Y-2440357D01*
X2039524Y-2441310D01*
X2039524Y-2443690D01*
X2040000Y-2444643D01*
X2040476Y-2445119D01*
X2041428Y-2445595D01*
X2042381Y-2445595D01*
X2043809Y-2445119D01*
X2049524Y-2439405D01*
X2049524Y-2445595D01*
X2039524Y-2451786D02*
X2039524Y-2452738D01*
X2040000Y-2453690D01*
X2040476Y-2454167D01*
X2041428Y-2454643D01*
X2043333Y-2455119D01*
X2045714Y-2455119D01*
X2047619Y-2454643D01*
X2048571Y-2454167D01*
X2049048Y-2453690D01*
X2049524Y-2452738D01*
X2049524Y-2451786D01*
X2049048Y-2450833D01*
X2048571Y-2450357D01*
X2047619Y-2449881D01*
X2045714Y-2449405D01*
X2043333Y-2449405D01*
X2041428Y-2449881D01*
X2040476Y-2450357D01*
X2040000Y-2450833D01*
X2039524Y-2451786D01*
X2049524Y-2458929D02*
X2039524Y-2466548D01*
X2039524Y-2460357D02*
X2040000Y-2461310D01*
X2040952Y-2461786D01*
X2041905Y-2461310D01*
X2042381Y-2460357D01*
X2041905Y-2459405D01*
X2040952Y-2458929D01*
X2040000Y-2459405D01*
X2039524Y-2460357D01*
X2049048Y-2466071D02*
X2048095Y-2466548D01*
X2047143Y-2466071D01*
X2046667Y-2465119D01*
X2047143Y-2464167D01*
X2048095Y-2463690D01*
X2049048Y-2464167D01*
X2049524Y-2465119D01*
X2049048Y-2466071D01*
X2018571Y-2357833D02*
X2019048Y-2357357D01*
X2019524Y-2355929D01*
X2019524Y-2354976D01*
X2019048Y-2353548D01*
X2018095Y-2352595D01*
X2017143Y-2352119D01*
X2015238Y-2351643D01*
X2013809Y-2351643D01*
X2011905Y-2352119D01*
X2010952Y-2352595D01*
X2010000Y-2353548D01*
X2009524Y-2354976D01*
X2009524Y-2355929D01*
X2010000Y-2357357D01*
X2010476Y-2357833D01*
X2019524Y-2362595D02*
X2019524Y-2364500D01*
X2019048Y-2365452D01*
X2018571Y-2365929D01*
X2017143Y-2366881D01*
X2015238Y-2367357D01*
X2011428Y-2367357D01*
X2010476Y-2366881D01*
X2010000Y-2366405D01*
X2009524Y-2365452D01*
X2009524Y-2363548D01*
X2010000Y-2362595D01*
X2010476Y-2362119D01*
X2011428Y-2361643D01*
X2013809Y-2361643D01*
X2014762Y-2362119D01*
X2015238Y-2362595D01*
X2015714Y-2363548D01*
X2015714Y-2365452D01*
X2015238Y-2366405D01*
X2014762Y-2366881D01*
X2013809Y-2367357D01*
G04 #@! TO.C,C10*
X1997024Y-1878333D02*
X1997024Y-1879286D01*
X1997500Y-1880238D01*
X1997976Y-1880714D01*
X1998928Y-1881190D01*
X2000833Y-1881667D01*
X2003214Y-1881667D01*
X2005119Y-1881190D01*
X2006071Y-1880714D01*
X2006548Y-1880238D01*
X2007024Y-1879286D01*
X2007024Y-1878333D01*
X2006548Y-1877381D01*
X2006071Y-1876905D01*
X2005119Y-1876428D01*
X2003214Y-1875952D01*
X2000833Y-1875952D01*
X1998928Y-1876428D01*
X1997976Y-1876905D01*
X1997500Y-1877381D01*
X1997024Y-1878333D01*
X1997976Y-1885476D02*
X1997500Y-1885952D01*
X1997024Y-1886905D01*
X1997024Y-1889286D01*
X1997500Y-1890238D01*
X1997976Y-1890714D01*
X1998928Y-1891190D01*
X1999881Y-1891190D01*
X2001309Y-1890714D01*
X2007024Y-1885000D01*
X2007024Y-1891190D01*
X1997024Y-1897381D02*
X1997024Y-1898333D01*
X1997500Y-1899286D01*
X1997976Y-1899762D01*
X1998928Y-1900238D01*
X2000833Y-1900714D01*
X2003214Y-1900714D01*
X2005119Y-1900238D01*
X2006071Y-1899762D01*
X2006548Y-1899286D01*
X2007024Y-1898333D01*
X2007024Y-1897381D01*
X2006548Y-1896428D01*
X2006071Y-1895952D01*
X2005119Y-1895476D01*
X2003214Y-1895000D01*
X2000833Y-1895000D01*
X1998928Y-1895476D01*
X1997976Y-1895952D01*
X1997500Y-1896428D01*
X1997024Y-1897381D01*
X2007024Y-1910238D02*
X2007024Y-1904524D01*
X2007024Y-1907381D02*
X1997024Y-1907381D01*
X1998452Y-1906428D01*
X1999405Y-1905476D01*
X1999881Y-1904524D01*
X2006548Y-1915000D02*
X2007024Y-1915000D01*
X2007976Y-1914524D01*
X2008452Y-1914048D01*
X2007024Y-1932143D02*
X2007024Y-1926428D01*
X2007024Y-1929286D02*
X1997024Y-1929286D01*
X1998452Y-1928333D01*
X1999405Y-1927381D01*
X1999881Y-1926428D01*
X2000357Y-1940714D02*
X2007024Y-1940714D01*
X2000357Y-1936428D02*
X2005595Y-1936428D01*
X2006548Y-1936905D01*
X2007024Y-1937857D01*
X2007024Y-1939286D01*
X2006548Y-1940238D01*
X2006071Y-1940714D01*
X2001786Y-1948809D02*
X2001786Y-1945476D01*
X2007024Y-1945476D02*
X1997024Y-1945476D01*
X1997024Y-1950238D01*
X2006548Y-1954524D02*
X2007024Y-1954524D01*
X2007976Y-1954048D01*
X2008452Y-1953571D01*
X2007024Y-1971667D02*
X2007024Y-1965952D01*
X2007024Y-1968809D02*
X1997024Y-1968809D01*
X1998452Y-1967857D01*
X1999405Y-1966905D01*
X1999881Y-1965952D01*
X1997024Y-1977857D02*
X1997024Y-1978809D01*
X1997500Y-1979762D01*
X1997976Y-1980238D01*
X1998928Y-1980714D01*
X2000833Y-1981190D01*
X2003214Y-1981190D01*
X2005119Y-1980714D01*
X2006071Y-1980238D01*
X2006548Y-1979762D01*
X2007024Y-1978809D01*
X2007024Y-1977857D01*
X2006548Y-1976905D01*
X2006071Y-1976428D01*
X2005119Y-1975952D01*
X2003214Y-1975476D01*
X2000833Y-1975476D01*
X1998928Y-1975952D01*
X1997976Y-1976428D01*
X1997500Y-1976905D01*
X1997024Y-1977857D01*
X1997024Y-1984048D02*
X2007024Y-1987381D01*
X1997024Y-1990714D01*
X2006548Y-1994524D02*
X2007024Y-1994524D01*
X2007976Y-1994048D01*
X2008452Y-1993571D01*
X1997024Y-2005476D02*
X2007024Y-2012143D01*
X1997024Y-2012143D02*
X2007024Y-2005476D01*
X1997024Y-2020714D02*
X1997024Y-2015952D01*
X2001786Y-2015476D01*
X2001309Y-2015952D01*
X2000833Y-2016905D01*
X2000833Y-2019286D01*
X2001309Y-2020238D01*
X2001786Y-2020714D01*
X2002738Y-2021190D01*
X2005119Y-2021190D01*
X2006071Y-2020714D01*
X2006548Y-2020238D01*
X2007024Y-2019286D01*
X2007024Y-2016905D01*
X2006548Y-2015952D01*
X2006071Y-2015476D01*
X2007024Y-2031190D02*
X2002262Y-2027857D01*
X2007024Y-2025476D02*
X1997024Y-2025476D01*
X1997024Y-2029286D01*
X1997500Y-2030238D01*
X1997976Y-2030714D01*
X1998928Y-2031190D01*
X2000357Y-2031190D01*
X2001309Y-2030714D01*
X2001786Y-2030238D01*
X2002262Y-2029286D01*
X2002262Y-2025476D01*
X2006548Y-2035952D02*
X2007024Y-2035952D01*
X2007976Y-2035476D01*
X2008452Y-2035000D01*
X1997976Y-2047381D02*
X1997500Y-2047857D01*
X1997024Y-2048809D01*
X1997024Y-2051190D01*
X1997500Y-2052143D01*
X1997976Y-2052619D01*
X1998928Y-2053095D01*
X1999881Y-2053095D01*
X2001309Y-2052619D01*
X2007024Y-2046905D01*
X2007024Y-2053095D01*
X1997024Y-2059286D02*
X1997024Y-2060238D01*
X1997500Y-2061190D01*
X1997976Y-2061667D01*
X1998928Y-2062143D01*
X2000833Y-2062619D01*
X2003214Y-2062619D01*
X2005119Y-2062143D01*
X2006071Y-2061667D01*
X2006548Y-2061190D01*
X2007024Y-2060238D01*
X2007024Y-2059286D01*
X2006548Y-2058333D01*
X2006071Y-2057857D01*
X2005119Y-2057381D01*
X2003214Y-2056905D01*
X2000833Y-2056905D01*
X1998928Y-2057381D01*
X1997976Y-2057857D01*
X1997500Y-2058333D01*
X1997024Y-2059286D01*
X2007024Y-2066428D02*
X1997024Y-2074048D01*
X1997024Y-2067857D02*
X1997500Y-2068809D01*
X1998452Y-2069286D01*
X1999405Y-2068809D01*
X1999881Y-2067857D01*
X1999405Y-2066905D01*
X1998452Y-2066428D01*
X1997500Y-2066905D01*
X1997024Y-2067857D01*
X2006548Y-2073571D02*
X2005595Y-2074048D01*
X2004643Y-2073571D01*
X2004167Y-2072619D01*
X2004643Y-2071667D01*
X2005595Y-2071190D01*
X2006548Y-2071667D01*
X2007024Y-2072619D01*
X2006548Y-2073571D01*
X2029571Y-1961571D02*
X2030048Y-1961095D01*
X2030524Y-1959667D01*
X2030524Y-1958714D01*
X2030048Y-1957286D01*
X2029095Y-1956333D01*
X2028143Y-1955857D01*
X2026238Y-1955381D01*
X2024809Y-1955381D01*
X2022905Y-1955857D01*
X2021952Y-1956333D01*
X2021000Y-1957286D01*
X2020524Y-1958714D01*
X2020524Y-1959667D01*
X2021000Y-1961095D01*
X2021476Y-1961571D01*
X2030524Y-1971095D02*
X2030524Y-1965381D01*
X2030524Y-1968238D02*
X2020524Y-1968238D01*
X2021952Y-1967286D01*
X2022905Y-1966333D01*
X2023381Y-1965381D01*
X2020524Y-1977286D02*
X2020524Y-1978238D01*
X2021000Y-1979190D01*
X2021476Y-1979667D01*
X2022428Y-1980143D01*
X2024333Y-1980619D01*
X2026714Y-1980619D01*
X2028619Y-1980143D01*
X2029571Y-1979667D01*
X2030048Y-1979190D01*
X2030524Y-1978238D01*
X2030524Y-1977286D01*
X2030048Y-1976333D01*
X2029571Y-1975857D01*
X2028619Y-1975381D01*
X2026714Y-1974905D01*
X2024333Y-1974905D01*
X2022428Y-1975381D01*
X2021476Y-1975857D01*
X2021000Y-1976333D01*
X2020524Y-1977286D01*
G04 #@! TO.C,R11*
X1819524Y-2125714D02*
X1819524Y-2126667D01*
X1820000Y-2127619D01*
X1820476Y-2128095D01*
X1821428Y-2128571D01*
X1823333Y-2129048D01*
X1825714Y-2129048D01*
X1827619Y-2128571D01*
X1828571Y-2128095D01*
X1829048Y-2127619D01*
X1829524Y-2126667D01*
X1829524Y-2125714D01*
X1829048Y-2124762D01*
X1828571Y-2124286D01*
X1827619Y-2123810D01*
X1825714Y-2123333D01*
X1823333Y-2123333D01*
X1821428Y-2123810D01*
X1820476Y-2124286D01*
X1820000Y-2124762D01*
X1819524Y-2125714D01*
X1820476Y-2132857D02*
X1820000Y-2133333D01*
X1819524Y-2134286D01*
X1819524Y-2136667D01*
X1820000Y-2137619D01*
X1820476Y-2138095D01*
X1821428Y-2138571D01*
X1822381Y-2138571D01*
X1823809Y-2138095D01*
X1829524Y-2132381D01*
X1829524Y-2138571D01*
X1819524Y-2144762D02*
X1819524Y-2145714D01*
X1820000Y-2146667D01*
X1820476Y-2147143D01*
X1821428Y-2147619D01*
X1823333Y-2148095D01*
X1825714Y-2148095D01*
X1827619Y-2147619D01*
X1828571Y-2147143D01*
X1829048Y-2146667D01*
X1829524Y-2145714D01*
X1829524Y-2144762D01*
X1829048Y-2143810D01*
X1828571Y-2143333D01*
X1827619Y-2142857D01*
X1825714Y-2142381D01*
X1823333Y-2142381D01*
X1821428Y-2142857D01*
X1820476Y-2143333D01*
X1820000Y-2143810D01*
X1819524Y-2144762D01*
X1829524Y-2157619D02*
X1829524Y-2151905D01*
X1829524Y-2154762D02*
X1819524Y-2154762D01*
X1820952Y-2153810D01*
X1821905Y-2152857D01*
X1822381Y-2151905D01*
X1829048Y-2162381D02*
X1829524Y-2162381D01*
X1830476Y-2161905D01*
X1830952Y-2161429D01*
X1820476Y-2173810D02*
X1820000Y-2174286D01*
X1819524Y-2175238D01*
X1819524Y-2177619D01*
X1820000Y-2178571D01*
X1820476Y-2179048D01*
X1821428Y-2179524D01*
X1822381Y-2179524D01*
X1823809Y-2179048D01*
X1829524Y-2173333D01*
X1829524Y-2179524D01*
X1820476Y-2183333D02*
X1820000Y-2183810D01*
X1819524Y-2184762D01*
X1819524Y-2187143D01*
X1820000Y-2188095D01*
X1820476Y-2188571D01*
X1821428Y-2189048D01*
X1822381Y-2189048D01*
X1823809Y-2188571D01*
X1829524Y-2182857D01*
X1829524Y-2189048D01*
X1829524Y-2194762D02*
X1829048Y-2193810D01*
X1828571Y-2193333D01*
X1827619Y-2192857D01*
X1824762Y-2192857D01*
X1823809Y-2193333D01*
X1823333Y-2193810D01*
X1822857Y-2194762D01*
X1822857Y-2196190D01*
X1823333Y-2197143D01*
X1823809Y-2197619D01*
X1824762Y-2198095D01*
X1827619Y-2198095D01*
X1828571Y-2197619D01*
X1829048Y-2197143D01*
X1829524Y-2196190D01*
X1829524Y-2194762D01*
X1829524Y-2202381D02*
X1819524Y-2202381D01*
X1829524Y-2206667D02*
X1824286Y-2206667D01*
X1823333Y-2206190D01*
X1822857Y-2205238D01*
X1822857Y-2203810D01*
X1823333Y-2202857D01*
X1823809Y-2202381D01*
X1829524Y-2211429D02*
X1822857Y-2211429D01*
X1823809Y-2211429D02*
X1823333Y-2211905D01*
X1822857Y-2212857D01*
X1822857Y-2214286D01*
X1823333Y-2215238D01*
X1824286Y-2215714D01*
X1829524Y-2215714D01*
X1824286Y-2215714D02*
X1823333Y-2216190D01*
X1822857Y-2217143D01*
X1822857Y-2218571D01*
X1823333Y-2219524D01*
X1824286Y-2220000D01*
X1829524Y-2220000D01*
X1829048Y-2225238D02*
X1829524Y-2225238D01*
X1830476Y-2224762D01*
X1830952Y-2224286D01*
X1829524Y-2242381D02*
X1829524Y-2236667D01*
X1829524Y-2239524D02*
X1819524Y-2239524D01*
X1820952Y-2238571D01*
X1821905Y-2237619D01*
X1822381Y-2236667D01*
X1819048Y-2253810D02*
X1831905Y-2245238D01*
X1829524Y-2262381D02*
X1829524Y-2256667D01*
X1829524Y-2259524D02*
X1819524Y-2259524D01*
X1820952Y-2258571D01*
X1821905Y-2257619D01*
X1822381Y-2256667D01*
X1819524Y-2270952D02*
X1819524Y-2269048D01*
X1820000Y-2268095D01*
X1820476Y-2267619D01*
X1821905Y-2266667D01*
X1823809Y-2266190D01*
X1827619Y-2266190D01*
X1828571Y-2266667D01*
X1829048Y-2267143D01*
X1829524Y-2268095D01*
X1829524Y-2270000D01*
X1829048Y-2270952D01*
X1828571Y-2271429D01*
X1827619Y-2271905D01*
X1825238Y-2271905D01*
X1824286Y-2271429D01*
X1823809Y-2270952D01*
X1823333Y-2270000D01*
X1823333Y-2268095D01*
X1823809Y-2267143D01*
X1824286Y-2266667D01*
X1825238Y-2266190D01*
X1819524Y-2275238D02*
X1829524Y-2277619D01*
X1822381Y-2279524D01*
X1829524Y-2281429D01*
X1819524Y-2283810D01*
X1829048Y-2288095D02*
X1829524Y-2288095D01*
X1830476Y-2287619D01*
X1830952Y-2287143D01*
X1829524Y-2305238D02*
X1829524Y-2299524D01*
X1829524Y-2302381D02*
X1819524Y-2302381D01*
X1820952Y-2301429D01*
X1821905Y-2300476D01*
X1822381Y-2299524D01*
X1829524Y-2309048D02*
X1819524Y-2316667D01*
X1819524Y-2310476D02*
X1820000Y-2311429D01*
X1820952Y-2311905D01*
X1821905Y-2311429D01*
X1822381Y-2310476D01*
X1821905Y-2309524D01*
X1820952Y-2309048D01*
X1820000Y-2309524D01*
X1819524Y-2310476D01*
X1829048Y-2316190D02*
X1828095Y-2316667D01*
X1827143Y-2316190D01*
X1826667Y-2315238D01*
X1827143Y-2314286D01*
X1828095Y-2313810D01*
X1829048Y-2314286D01*
X1829524Y-2315238D01*
X1829048Y-2316190D01*
X1854524Y-2213571D02*
X1849762Y-2210238D01*
X1854524Y-2207857D02*
X1844524Y-2207857D01*
X1844524Y-2211667D01*
X1845000Y-2212619D01*
X1845476Y-2213095D01*
X1846428Y-2213571D01*
X1847857Y-2213571D01*
X1848809Y-2213095D01*
X1849286Y-2212619D01*
X1849762Y-2211667D01*
X1849762Y-2207857D01*
X1854524Y-2223095D02*
X1854524Y-2217381D01*
X1854524Y-2220238D02*
X1844524Y-2220238D01*
X1845952Y-2219286D01*
X1846905Y-2218333D01*
X1847381Y-2217381D01*
X1854524Y-2232619D02*
X1854524Y-2226905D01*
X1854524Y-2229762D02*
X1844524Y-2229762D01*
X1845952Y-2228810D01*
X1846905Y-2227857D01*
X1847381Y-2226905D01*
G04 #@! TO.C,R1*
X1739524Y-2154048D02*
X1739524Y-2155000D01*
X1740000Y-2155952D01*
X1740476Y-2156429D01*
X1741428Y-2156905D01*
X1743333Y-2157381D01*
X1745714Y-2157381D01*
X1747619Y-2156905D01*
X1748571Y-2156429D01*
X1749048Y-2155952D01*
X1749524Y-2155000D01*
X1749524Y-2154048D01*
X1749048Y-2153095D01*
X1748571Y-2152619D01*
X1747619Y-2152143D01*
X1745714Y-2151667D01*
X1743333Y-2151667D01*
X1741428Y-2152143D01*
X1740476Y-2152619D01*
X1740000Y-2153095D01*
X1739524Y-2154048D01*
X1740476Y-2161190D02*
X1740000Y-2161667D01*
X1739524Y-2162619D01*
X1739524Y-2165000D01*
X1740000Y-2165952D01*
X1740476Y-2166429D01*
X1741428Y-2166905D01*
X1742381Y-2166905D01*
X1743809Y-2166429D01*
X1749524Y-2160714D01*
X1749524Y-2166905D01*
X1739524Y-2173095D02*
X1739524Y-2174048D01*
X1740000Y-2175000D01*
X1740476Y-2175476D01*
X1741428Y-2175952D01*
X1743333Y-2176429D01*
X1745714Y-2176429D01*
X1747619Y-2175952D01*
X1748571Y-2175476D01*
X1749048Y-2175000D01*
X1749524Y-2174048D01*
X1749524Y-2173095D01*
X1749048Y-2172143D01*
X1748571Y-2171667D01*
X1747619Y-2171190D01*
X1745714Y-2170714D01*
X1743333Y-2170714D01*
X1741428Y-2171190D01*
X1740476Y-2171667D01*
X1740000Y-2172143D01*
X1739524Y-2173095D01*
X1749524Y-2185952D02*
X1749524Y-2180238D01*
X1749524Y-2183095D02*
X1739524Y-2183095D01*
X1740952Y-2182143D01*
X1741905Y-2181190D01*
X1742381Y-2180238D01*
X1749048Y-2190714D02*
X1749524Y-2190714D01*
X1750476Y-2190238D01*
X1750952Y-2189762D01*
X1749524Y-2207857D02*
X1749524Y-2202143D01*
X1749524Y-2205000D02*
X1739524Y-2205000D01*
X1740952Y-2204048D01*
X1741905Y-2203095D01*
X1742381Y-2202143D01*
X1739524Y-2214048D02*
X1739524Y-2215000D01*
X1740000Y-2215952D01*
X1740476Y-2216429D01*
X1741428Y-2216905D01*
X1743333Y-2217381D01*
X1745714Y-2217381D01*
X1747619Y-2216905D01*
X1748571Y-2216429D01*
X1749048Y-2215952D01*
X1749524Y-2215000D01*
X1749524Y-2214048D01*
X1749048Y-2213095D01*
X1748571Y-2212619D01*
X1747619Y-2212143D01*
X1745714Y-2211667D01*
X1743333Y-2211667D01*
X1741428Y-2212143D01*
X1740476Y-2212619D01*
X1740000Y-2213095D01*
X1739524Y-2214048D01*
X1749524Y-2221667D02*
X1739524Y-2221667D01*
X1745714Y-2222619D02*
X1749524Y-2225476D01*
X1742857Y-2225476D02*
X1746667Y-2221667D01*
X1749048Y-2230238D02*
X1749524Y-2230238D01*
X1750476Y-2229762D01*
X1750952Y-2229286D01*
X1749524Y-2247381D02*
X1749524Y-2241667D01*
X1749524Y-2244524D02*
X1739524Y-2244524D01*
X1740952Y-2243571D01*
X1741905Y-2242619D01*
X1742381Y-2241667D01*
X1739048Y-2258810D02*
X1751905Y-2250238D01*
X1749524Y-2267381D02*
X1749524Y-2261667D01*
X1749524Y-2264524D02*
X1739524Y-2264524D01*
X1740952Y-2263571D01*
X1741905Y-2262619D01*
X1742381Y-2261667D01*
X1739524Y-2275952D02*
X1739524Y-2274048D01*
X1740000Y-2273095D01*
X1740476Y-2272619D01*
X1741905Y-2271667D01*
X1743809Y-2271190D01*
X1747619Y-2271190D01*
X1748571Y-2271667D01*
X1749048Y-2272143D01*
X1749524Y-2273095D01*
X1749524Y-2275000D01*
X1749048Y-2275952D01*
X1748571Y-2276429D01*
X1747619Y-2276905D01*
X1745238Y-2276905D01*
X1744286Y-2276429D01*
X1743809Y-2275952D01*
X1743333Y-2275000D01*
X1743333Y-2273095D01*
X1743809Y-2272143D01*
X1744286Y-2271667D01*
X1745238Y-2271190D01*
X1739524Y-2280238D02*
X1749524Y-2282619D01*
X1742381Y-2284524D01*
X1749524Y-2286429D01*
X1739524Y-2288810D01*
X1784524Y-2218333D02*
X1779762Y-2215000D01*
X1784524Y-2212619D02*
X1774524Y-2212619D01*
X1774524Y-2216429D01*
X1775000Y-2217381D01*
X1775476Y-2217857D01*
X1776428Y-2218333D01*
X1777857Y-2218333D01*
X1778809Y-2217857D01*
X1779286Y-2217381D01*
X1779762Y-2216429D01*
X1779762Y-2212619D01*
X1784524Y-2227857D02*
X1784524Y-2222143D01*
X1784524Y-2225000D02*
X1774524Y-2225000D01*
X1775952Y-2224048D01*
X1776905Y-2223095D01*
X1777381Y-2222143D01*
G04 #@! TO.C,R5*
X2615952Y-2582024D02*
X2615000Y-2582024D01*
X2614048Y-2582500D01*
X2613571Y-2582976D01*
X2613095Y-2583929D01*
X2612619Y-2585833D01*
X2612619Y-2588214D01*
X2613095Y-2590119D01*
X2613571Y-2591071D01*
X2614048Y-2591548D01*
X2615000Y-2592024D01*
X2615952Y-2592024D01*
X2616905Y-2591548D01*
X2617381Y-2591071D01*
X2617857Y-2590119D01*
X2618333Y-2588214D01*
X2618333Y-2585833D01*
X2617857Y-2583929D01*
X2617381Y-2582976D01*
X2616905Y-2582500D01*
X2615952Y-2582024D01*
X2608810Y-2582976D02*
X2608333Y-2582500D01*
X2607381Y-2582024D01*
X2605000Y-2582024D01*
X2604048Y-2582500D01*
X2603571Y-2582976D01*
X2603095Y-2583929D01*
X2603095Y-2584881D01*
X2603571Y-2586310D01*
X2609286Y-2592024D01*
X2603095Y-2592024D01*
X2596905Y-2582024D02*
X2595952Y-2582024D01*
X2595000Y-2582500D01*
X2594524Y-2582976D01*
X2594048Y-2583929D01*
X2593571Y-2585833D01*
X2593571Y-2588214D01*
X2594048Y-2590119D01*
X2594524Y-2591071D01*
X2595000Y-2591548D01*
X2595952Y-2592024D01*
X2596905Y-2592024D01*
X2597857Y-2591548D01*
X2598333Y-2591071D01*
X2598810Y-2590119D01*
X2599286Y-2588214D01*
X2599286Y-2585833D01*
X2598810Y-2583929D01*
X2598333Y-2582976D01*
X2597857Y-2582500D01*
X2596905Y-2582024D01*
X2584048Y-2592024D02*
X2589762Y-2592024D01*
X2586905Y-2592024D02*
X2586905Y-2582024D01*
X2587857Y-2583452D01*
X2588810Y-2584405D01*
X2589762Y-2584881D01*
X2579286Y-2591548D02*
X2579286Y-2592024D01*
X2579762Y-2592976D01*
X2580238Y-2593452D01*
X2562143Y-2592024D02*
X2567857Y-2592024D01*
X2565000Y-2592024D02*
X2565000Y-2582024D01*
X2565952Y-2583452D01*
X2566905Y-2584405D01*
X2567857Y-2584881D01*
X2555952Y-2582024D02*
X2555000Y-2582024D01*
X2554048Y-2582500D01*
X2553571Y-2582976D01*
X2553095Y-2583929D01*
X2552619Y-2585833D01*
X2552619Y-2588214D01*
X2553095Y-2590119D01*
X2553571Y-2591071D01*
X2554048Y-2591548D01*
X2555000Y-2592024D01*
X2555952Y-2592024D01*
X2556905Y-2591548D01*
X2557381Y-2591071D01*
X2557857Y-2590119D01*
X2558333Y-2588214D01*
X2558333Y-2585833D01*
X2557857Y-2583929D01*
X2557381Y-2582976D01*
X2556905Y-2582500D01*
X2555952Y-2582024D01*
X2548333Y-2592024D02*
X2548333Y-2582024D01*
X2547381Y-2588214D02*
X2544524Y-2592024D01*
X2544524Y-2585357D02*
X2548333Y-2589167D01*
X2539762Y-2591548D02*
X2539762Y-2592024D01*
X2540238Y-2592976D01*
X2540714Y-2593452D01*
X2522619Y-2592024D02*
X2528333Y-2592024D01*
X2525476Y-2592024D02*
X2525476Y-2582024D01*
X2526429Y-2583452D01*
X2527381Y-2584405D01*
X2528333Y-2584881D01*
X2511190Y-2581548D02*
X2519762Y-2594405D01*
X2502619Y-2592024D02*
X2508333Y-2592024D01*
X2505476Y-2592024D02*
X2505476Y-2582024D01*
X2506429Y-2583452D01*
X2507381Y-2584405D01*
X2508333Y-2584881D01*
X2494048Y-2582024D02*
X2495952Y-2582024D01*
X2496905Y-2582500D01*
X2497381Y-2582976D01*
X2498333Y-2584405D01*
X2498810Y-2586310D01*
X2498810Y-2590119D01*
X2498333Y-2591071D01*
X2497857Y-2591548D01*
X2496905Y-2592024D01*
X2495000Y-2592024D01*
X2494048Y-2591548D01*
X2493571Y-2591071D01*
X2493095Y-2590119D01*
X2493095Y-2587738D01*
X2493571Y-2586786D01*
X2494048Y-2586310D01*
X2495000Y-2585833D01*
X2496905Y-2585833D01*
X2497857Y-2586310D01*
X2498333Y-2586786D01*
X2498810Y-2587738D01*
X2489762Y-2582024D02*
X2487381Y-2592024D01*
X2485476Y-2584881D01*
X2483571Y-2592024D01*
X2481190Y-2582024D01*
X2551667Y-2564524D02*
X2555000Y-2559762D01*
X2557381Y-2564524D02*
X2557381Y-2554524D01*
X2553571Y-2554524D01*
X2552619Y-2555000D01*
X2552143Y-2555476D01*
X2551667Y-2556429D01*
X2551667Y-2557857D01*
X2552143Y-2558810D01*
X2552619Y-2559286D01*
X2553571Y-2559762D01*
X2557381Y-2559762D01*
X2542619Y-2554524D02*
X2547381Y-2554524D01*
X2547857Y-2559286D01*
X2547381Y-2558810D01*
X2546429Y-2558333D01*
X2544048Y-2558333D01*
X2543095Y-2558810D01*
X2542619Y-2559286D01*
X2542143Y-2560238D01*
X2542143Y-2562619D01*
X2542619Y-2563571D01*
X2543095Y-2564048D01*
X2544048Y-2564524D01*
X2546429Y-2564524D01*
X2547381Y-2564048D01*
X2547857Y-2563571D01*
G04 #@! TO.C,R12*
X1884524Y-2125714D02*
X1884524Y-2126667D01*
X1885000Y-2127619D01*
X1885476Y-2128095D01*
X1886428Y-2128571D01*
X1888333Y-2129048D01*
X1890714Y-2129048D01*
X1892619Y-2128571D01*
X1893571Y-2128095D01*
X1894048Y-2127619D01*
X1894524Y-2126667D01*
X1894524Y-2125714D01*
X1894048Y-2124762D01*
X1893571Y-2124286D01*
X1892619Y-2123810D01*
X1890714Y-2123333D01*
X1888333Y-2123333D01*
X1886428Y-2123810D01*
X1885476Y-2124286D01*
X1885000Y-2124762D01*
X1884524Y-2125714D01*
X1885476Y-2132857D02*
X1885000Y-2133333D01*
X1884524Y-2134286D01*
X1884524Y-2136667D01*
X1885000Y-2137619D01*
X1885476Y-2138095D01*
X1886428Y-2138571D01*
X1887381Y-2138571D01*
X1888809Y-2138095D01*
X1894524Y-2132381D01*
X1894524Y-2138571D01*
X1884524Y-2144762D02*
X1884524Y-2145714D01*
X1885000Y-2146667D01*
X1885476Y-2147143D01*
X1886428Y-2147619D01*
X1888333Y-2148095D01*
X1890714Y-2148095D01*
X1892619Y-2147619D01*
X1893571Y-2147143D01*
X1894048Y-2146667D01*
X1894524Y-2145714D01*
X1894524Y-2144762D01*
X1894048Y-2143810D01*
X1893571Y-2143333D01*
X1892619Y-2142857D01*
X1890714Y-2142381D01*
X1888333Y-2142381D01*
X1886428Y-2142857D01*
X1885476Y-2143333D01*
X1885000Y-2143810D01*
X1884524Y-2144762D01*
X1894524Y-2157619D02*
X1894524Y-2151905D01*
X1894524Y-2154762D02*
X1884524Y-2154762D01*
X1885952Y-2153810D01*
X1886905Y-2152857D01*
X1887381Y-2151905D01*
X1894048Y-2162381D02*
X1894524Y-2162381D01*
X1895476Y-2161905D01*
X1895952Y-2161429D01*
X1885476Y-2173810D02*
X1885000Y-2174286D01*
X1884524Y-2175238D01*
X1884524Y-2177619D01*
X1885000Y-2178571D01*
X1885476Y-2179048D01*
X1886428Y-2179524D01*
X1887381Y-2179524D01*
X1888809Y-2179048D01*
X1894524Y-2173333D01*
X1894524Y-2179524D01*
X1885476Y-2183333D02*
X1885000Y-2183810D01*
X1884524Y-2184762D01*
X1884524Y-2187143D01*
X1885000Y-2188095D01*
X1885476Y-2188571D01*
X1886428Y-2189048D01*
X1887381Y-2189048D01*
X1888809Y-2188571D01*
X1894524Y-2182857D01*
X1894524Y-2189048D01*
X1894524Y-2194762D02*
X1894048Y-2193810D01*
X1893571Y-2193333D01*
X1892619Y-2192857D01*
X1889762Y-2192857D01*
X1888809Y-2193333D01*
X1888333Y-2193810D01*
X1887857Y-2194762D01*
X1887857Y-2196190D01*
X1888333Y-2197143D01*
X1888809Y-2197619D01*
X1889762Y-2198095D01*
X1892619Y-2198095D01*
X1893571Y-2197619D01*
X1894048Y-2197143D01*
X1894524Y-2196190D01*
X1894524Y-2194762D01*
X1894524Y-2202381D02*
X1884524Y-2202381D01*
X1894524Y-2206667D02*
X1889286Y-2206667D01*
X1888333Y-2206190D01*
X1887857Y-2205238D01*
X1887857Y-2203810D01*
X1888333Y-2202857D01*
X1888809Y-2202381D01*
X1894524Y-2211429D02*
X1887857Y-2211429D01*
X1888809Y-2211429D02*
X1888333Y-2211905D01*
X1887857Y-2212857D01*
X1887857Y-2214286D01*
X1888333Y-2215238D01*
X1889286Y-2215714D01*
X1894524Y-2215714D01*
X1889286Y-2215714D02*
X1888333Y-2216190D01*
X1887857Y-2217143D01*
X1887857Y-2218571D01*
X1888333Y-2219524D01*
X1889286Y-2220000D01*
X1894524Y-2220000D01*
X1894048Y-2225238D02*
X1894524Y-2225238D01*
X1895476Y-2224762D01*
X1895952Y-2224286D01*
X1894524Y-2242381D02*
X1894524Y-2236667D01*
X1894524Y-2239524D02*
X1884524Y-2239524D01*
X1885952Y-2238571D01*
X1886905Y-2237619D01*
X1887381Y-2236667D01*
X1884048Y-2253810D02*
X1896905Y-2245238D01*
X1894524Y-2262381D02*
X1894524Y-2256667D01*
X1894524Y-2259524D02*
X1884524Y-2259524D01*
X1885952Y-2258571D01*
X1886905Y-2257619D01*
X1887381Y-2256667D01*
X1884524Y-2270952D02*
X1884524Y-2269048D01*
X1885000Y-2268095D01*
X1885476Y-2267619D01*
X1886905Y-2266667D01*
X1888809Y-2266190D01*
X1892619Y-2266190D01*
X1893571Y-2266667D01*
X1894048Y-2267143D01*
X1894524Y-2268095D01*
X1894524Y-2270000D01*
X1894048Y-2270952D01*
X1893571Y-2271429D01*
X1892619Y-2271905D01*
X1890238Y-2271905D01*
X1889286Y-2271429D01*
X1888809Y-2270952D01*
X1888333Y-2270000D01*
X1888333Y-2268095D01*
X1888809Y-2267143D01*
X1889286Y-2266667D01*
X1890238Y-2266190D01*
X1884524Y-2275238D02*
X1894524Y-2277619D01*
X1887381Y-2279524D01*
X1894524Y-2281429D01*
X1884524Y-2283810D01*
X1894048Y-2288095D02*
X1894524Y-2288095D01*
X1895476Y-2287619D01*
X1895952Y-2287143D01*
X1894524Y-2305238D02*
X1894524Y-2299524D01*
X1894524Y-2302381D02*
X1884524Y-2302381D01*
X1885952Y-2301429D01*
X1886905Y-2300476D01*
X1887381Y-2299524D01*
X1894524Y-2309048D02*
X1884524Y-2316667D01*
X1884524Y-2310476D02*
X1885000Y-2311429D01*
X1885952Y-2311905D01*
X1886905Y-2311429D01*
X1887381Y-2310476D01*
X1886905Y-2309524D01*
X1885952Y-2309048D01*
X1885000Y-2309524D01*
X1884524Y-2310476D01*
X1894048Y-2316190D02*
X1893095Y-2316667D01*
X1892143Y-2316190D01*
X1891667Y-2315238D01*
X1892143Y-2314286D01*
X1893095Y-2313810D01*
X1894048Y-2314286D01*
X1894524Y-2315238D01*
X1894048Y-2316190D01*
X1924524Y-2213571D02*
X1919762Y-2210238D01*
X1924524Y-2207857D02*
X1914524Y-2207857D01*
X1914524Y-2211667D01*
X1915000Y-2212619D01*
X1915476Y-2213095D01*
X1916428Y-2213571D01*
X1917857Y-2213571D01*
X1918809Y-2213095D01*
X1919286Y-2212619D01*
X1919762Y-2211667D01*
X1919762Y-2207857D01*
X1924524Y-2223095D02*
X1924524Y-2217381D01*
X1924524Y-2220238D02*
X1914524Y-2220238D01*
X1915952Y-2219286D01*
X1916905Y-2218333D01*
X1917381Y-2217381D01*
X1915476Y-2226905D02*
X1915000Y-2227381D01*
X1914524Y-2228333D01*
X1914524Y-2230714D01*
X1915000Y-2231667D01*
X1915476Y-2232143D01*
X1916428Y-2232619D01*
X1917381Y-2232619D01*
X1918809Y-2232143D01*
X1924524Y-2226429D01*
X1924524Y-2232619D01*
G04 #@! TO.C,R9*
X1957024Y-2135000D02*
X1957024Y-2135952D01*
X1957500Y-2136905D01*
X1957976Y-2137381D01*
X1958928Y-2137857D01*
X1960833Y-2138333D01*
X1963214Y-2138333D01*
X1965119Y-2137857D01*
X1966071Y-2137381D01*
X1966548Y-2136905D01*
X1967024Y-2135952D01*
X1967024Y-2135000D01*
X1966548Y-2134048D01*
X1966071Y-2133571D01*
X1965119Y-2133095D01*
X1963214Y-2132619D01*
X1960833Y-2132619D01*
X1958928Y-2133095D01*
X1957976Y-2133571D01*
X1957500Y-2134048D01*
X1957024Y-2135000D01*
X1957976Y-2142143D02*
X1957500Y-2142619D01*
X1957024Y-2143571D01*
X1957024Y-2145952D01*
X1957500Y-2146905D01*
X1957976Y-2147381D01*
X1958928Y-2147857D01*
X1959881Y-2147857D01*
X1961309Y-2147381D01*
X1967024Y-2141667D01*
X1967024Y-2147857D01*
X1957024Y-2154048D02*
X1957024Y-2155000D01*
X1957500Y-2155952D01*
X1957976Y-2156429D01*
X1958928Y-2156905D01*
X1960833Y-2157381D01*
X1963214Y-2157381D01*
X1965119Y-2156905D01*
X1966071Y-2156429D01*
X1966548Y-2155952D01*
X1967024Y-2155000D01*
X1967024Y-2154048D01*
X1966548Y-2153095D01*
X1966071Y-2152619D01*
X1965119Y-2152143D01*
X1963214Y-2151667D01*
X1960833Y-2151667D01*
X1958928Y-2152143D01*
X1957976Y-2152619D01*
X1957500Y-2153095D01*
X1957024Y-2154048D01*
X1967024Y-2166905D02*
X1967024Y-2161190D01*
X1967024Y-2164048D02*
X1957024Y-2164048D01*
X1958452Y-2163095D01*
X1959405Y-2162143D01*
X1959881Y-2161190D01*
X1966548Y-2171667D02*
X1967024Y-2171667D01*
X1967976Y-2171190D01*
X1968452Y-2170714D01*
X1967024Y-2188810D02*
X1967024Y-2183095D01*
X1967024Y-2185952D02*
X1957024Y-2185952D01*
X1958452Y-2185000D01*
X1959405Y-2184048D01*
X1959881Y-2183095D01*
X1966071Y-2193095D02*
X1966548Y-2193571D01*
X1967024Y-2193095D01*
X1966548Y-2192619D01*
X1966071Y-2193095D01*
X1967024Y-2193095D01*
X1957024Y-2202619D02*
X1957024Y-2197857D01*
X1961786Y-2197381D01*
X1961309Y-2197857D01*
X1960833Y-2198810D01*
X1960833Y-2201190D01*
X1961309Y-2202143D01*
X1961786Y-2202619D01*
X1962738Y-2203095D01*
X1965119Y-2203095D01*
X1966071Y-2202619D01*
X1966548Y-2202143D01*
X1967024Y-2201190D01*
X1967024Y-2198810D01*
X1966548Y-2197857D01*
X1966071Y-2197381D01*
X1967024Y-2207381D02*
X1957024Y-2207381D01*
X1963214Y-2208333D02*
X1967024Y-2211190D01*
X1960357Y-2211190D02*
X1964167Y-2207381D01*
X1966548Y-2215952D02*
X1967024Y-2215952D01*
X1967976Y-2215476D01*
X1968452Y-2215000D01*
X1967024Y-2233095D02*
X1967024Y-2227381D01*
X1967024Y-2230238D02*
X1957024Y-2230238D01*
X1958452Y-2229286D01*
X1959405Y-2228333D01*
X1959881Y-2227381D01*
X1956548Y-2244524D02*
X1969405Y-2235952D01*
X1967024Y-2253095D02*
X1967024Y-2247381D01*
X1967024Y-2250238D02*
X1957024Y-2250238D01*
X1958452Y-2249286D01*
X1959405Y-2248333D01*
X1959881Y-2247381D01*
X1957024Y-2261667D02*
X1957024Y-2259762D01*
X1957500Y-2258810D01*
X1957976Y-2258333D01*
X1959405Y-2257381D01*
X1961309Y-2256905D01*
X1965119Y-2256905D01*
X1966071Y-2257381D01*
X1966548Y-2257857D01*
X1967024Y-2258810D01*
X1967024Y-2260714D01*
X1966548Y-2261667D01*
X1966071Y-2262143D01*
X1965119Y-2262619D01*
X1962738Y-2262619D01*
X1961786Y-2262143D01*
X1961309Y-2261667D01*
X1960833Y-2260714D01*
X1960833Y-2258810D01*
X1961309Y-2257857D01*
X1961786Y-2257381D01*
X1962738Y-2256905D01*
X1957024Y-2265952D02*
X1967024Y-2268333D01*
X1959881Y-2270238D01*
X1967024Y-2272143D01*
X1957024Y-2274524D01*
X1966548Y-2278810D02*
X1967024Y-2278810D01*
X1967976Y-2278333D01*
X1968452Y-2277857D01*
X1967024Y-2295952D02*
X1967024Y-2290238D01*
X1967024Y-2293095D02*
X1957024Y-2293095D01*
X1958452Y-2292143D01*
X1959405Y-2291190D01*
X1959881Y-2290238D01*
X1967024Y-2299762D02*
X1957024Y-2307381D01*
X1957024Y-2301190D02*
X1957500Y-2302143D01*
X1958452Y-2302619D01*
X1959405Y-2302143D01*
X1959881Y-2301190D01*
X1959405Y-2300238D01*
X1958452Y-2299762D01*
X1957500Y-2300238D01*
X1957024Y-2301190D01*
X1966548Y-2306905D02*
X1965595Y-2307381D01*
X1964643Y-2306905D01*
X1964167Y-2305952D01*
X1964643Y-2305000D01*
X1965595Y-2304524D01*
X1966548Y-2305000D01*
X1967024Y-2305952D01*
X1966548Y-2306905D01*
X1994524Y-2218333D02*
X1989762Y-2215000D01*
X1994524Y-2212619D02*
X1984524Y-2212619D01*
X1984524Y-2216429D01*
X1985000Y-2217381D01*
X1985476Y-2217857D01*
X1986428Y-2218333D01*
X1987857Y-2218333D01*
X1988809Y-2217857D01*
X1989286Y-2217381D01*
X1989762Y-2216429D01*
X1989762Y-2212619D01*
X1994524Y-2223095D02*
X1994524Y-2225000D01*
X1994048Y-2225952D01*
X1993571Y-2226429D01*
X1992143Y-2227381D01*
X1990238Y-2227857D01*
X1986428Y-2227857D01*
X1985476Y-2227381D01*
X1985000Y-2226905D01*
X1984524Y-2225952D01*
X1984524Y-2224048D01*
X1985000Y-2223095D01*
X1985476Y-2222619D01*
X1986428Y-2222143D01*
X1988809Y-2222143D01*
X1989762Y-2222619D01*
X1990238Y-2223095D01*
X1990714Y-2224048D01*
X1990714Y-2225952D01*
X1990238Y-2226905D01*
X1989762Y-2227381D01*
X1988809Y-2227857D01*
G04 #@! TO.C,U1*
X1962976Y-1892024D02*
X1967738Y-1892024D01*
X1967738Y-1882024D01*
X1959643Y-1892024D02*
X1959643Y-1882024D01*
X1957262Y-1882024D01*
X1955833Y-1882500D01*
X1954881Y-1883452D01*
X1954405Y-1884405D01*
X1953928Y-1886309D01*
X1953928Y-1887738D01*
X1954405Y-1889643D01*
X1954881Y-1890595D01*
X1955833Y-1891548D01*
X1957262Y-1892024D01*
X1959643Y-1892024D01*
X1947738Y-1882024D02*
X1945833Y-1882024D01*
X1944881Y-1882500D01*
X1943928Y-1883452D01*
X1943452Y-1885357D01*
X1943452Y-1888690D01*
X1943928Y-1890595D01*
X1944881Y-1891548D01*
X1945833Y-1892024D01*
X1947738Y-1892024D01*
X1948690Y-1891548D01*
X1949643Y-1890595D01*
X1950119Y-1888690D01*
X1950119Y-1885357D01*
X1949643Y-1883452D01*
X1948690Y-1882500D01*
X1947738Y-1882024D01*
X1939167Y-1888214D02*
X1931548Y-1888214D01*
X1927738Y-1882024D02*
X1921071Y-1892024D01*
X1921071Y-1882024D02*
X1927738Y-1892024D01*
X1917738Y-1882976D02*
X1917262Y-1882500D01*
X1916309Y-1882024D01*
X1913928Y-1882024D01*
X1912976Y-1882500D01*
X1912500Y-1882976D01*
X1912024Y-1883928D01*
X1912024Y-1884881D01*
X1912500Y-1886309D01*
X1918214Y-1892024D01*
X1912024Y-1892024D01*
X1908214Y-1891548D02*
X1906786Y-1892024D01*
X1904405Y-1892024D01*
X1903452Y-1891548D01*
X1902976Y-1891071D01*
X1902500Y-1890119D01*
X1902500Y-1889167D01*
X1902976Y-1888214D01*
X1903452Y-1887738D01*
X1904405Y-1887262D01*
X1906309Y-1886786D01*
X1907262Y-1886309D01*
X1907738Y-1885833D01*
X1908214Y-1884881D01*
X1908214Y-1883928D01*
X1907738Y-1882976D01*
X1907262Y-1882500D01*
X1906309Y-1882024D01*
X1903928Y-1882024D01*
X1902500Y-1882500D01*
X1896309Y-1882024D02*
X1894405Y-1882024D01*
X1893452Y-1882500D01*
X1892500Y-1883452D01*
X1892024Y-1885357D01*
X1892024Y-1888690D01*
X1892500Y-1890595D01*
X1893452Y-1891548D01*
X1894405Y-1892024D01*
X1896309Y-1892024D01*
X1897262Y-1891548D01*
X1898214Y-1890595D01*
X1898690Y-1888690D01*
X1898690Y-1885357D01*
X1898214Y-1883452D01*
X1897262Y-1882500D01*
X1896309Y-1882024D01*
X1887738Y-1892024D02*
X1887738Y-1882024D01*
X1882024Y-1892024D01*
X1882024Y-1882024D01*
X1877262Y-1888214D02*
X1869643Y-1888214D01*
X1859643Y-1892024D02*
X1865357Y-1892024D01*
X1862500Y-1892024D02*
X1862500Y-1882024D01*
X1863452Y-1883452D01*
X1864405Y-1884405D01*
X1865357Y-1884881D01*
X1855357Y-1891071D02*
X1854881Y-1891548D01*
X1855357Y-1892024D01*
X1855833Y-1891548D01*
X1855357Y-1891071D01*
X1855357Y-1892024D01*
X1851071Y-1882976D02*
X1850595Y-1882500D01*
X1849643Y-1882024D01*
X1847262Y-1882024D01*
X1846309Y-1882500D01*
X1845833Y-1882976D01*
X1845357Y-1883928D01*
X1845357Y-1884881D01*
X1845833Y-1886309D01*
X1851548Y-1892024D01*
X1845357Y-1892024D01*
X1842500Y-1882024D02*
X1839167Y-1892024D01*
X1835833Y-1882024D01*
D16*
X1915238Y-1809048D02*
X1915238Y-1825238D01*
X1914286Y-1827143D01*
X1913333Y-1828095D01*
X1911428Y-1829048D01*
X1907619Y-1829048D01*
X1905714Y-1828095D01*
X1904762Y-1827143D01*
X1903809Y-1825238D01*
X1903809Y-1809048D01*
X1883809Y-1829048D02*
X1895238Y-1829048D01*
X1889524Y-1829048D02*
X1889524Y-1809048D01*
X1891428Y-1811905D01*
X1893333Y-1813809D01*
X1895238Y-1814762D01*
G04 #@! TD*
M02*
