G04 #@! TF.GenerationSoftware,KiCad,Pcbnew,(5.0.1)-3*
G04 #@! TF.CreationDate,2019-04-09T12:58:51+08:00*
G04 #@! TF.ProjectId,tomu-fpga,746F6D752D667067612E6B696361645F,rev?*
G04 #@! TF.SameCoordinates,Original*
G04 #@! TF.FileFunction,Other,ECO1*
%FSLAX45Y45*%
G04 Gerber Fmt 4.5, Leading zero omitted, Abs format (unit mm)*
G04 Created by KiCad (PCBNEW (5.0.1)-3) date 04/09/19 12:58:51*
%MOMM*%
%LPD*%
G01*
G04 APERTURE LIST*
%ADD10C,0.300000*%
G04 APERTURE END LIST*
D10*
X1734024Y-3250595D02*
X1734024Y-3000595D01*
X1829262Y-3000595D01*
X1853071Y-3012500D01*
X1864976Y-3024405D01*
X1876881Y-3048214D01*
X1876881Y-3083928D01*
X1864976Y-3107738D01*
X1853071Y-3119643D01*
X1829262Y-3131548D01*
X1734024Y-3131548D01*
X2126881Y-3226786D02*
X2114976Y-3238690D01*
X2079262Y-3250595D01*
X2055452Y-3250595D01*
X2019738Y-3238690D01*
X1995928Y-3214881D01*
X1984024Y-3191071D01*
X1972119Y-3143452D01*
X1972119Y-3107738D01*
X1984024Y-3060119D01*
X1995928Y-3036309D01*
X2019738Y-3012500D01*
X2055452Y-3000595D01*
X2079262Y-3000595D01*
X2114976Y-3012500D01*
X2126881Y-3024405D01*
X2317357Y-3119643D02*
X2353071Y-3131548D01*
X2364976Y-3143452D01*
X2376881Y-3167262D01*
X2376881Y-3202976D01*
X2364976Y-3226786D01*
X2353071Y-3238690D01*
X2329262Y-3250595D01*
X2234024Y-3250595D01*
X2234024Y-3000595D01*
X2317357Y-3000595D01*
X2341167Y-3012500D01*
X2353071Y-3024405D01*
X2364976Y-3048214D01*
X2364976Y-3072024D01*
X2353071Y-3095833D01*
X2341167Y-3107738D01*
X2317357Y-3119643D01*
X2234024Y-3119643D01*
X2662595Y-3238690D02*
X2698310Y-3250595D01*
X2757833Y-3250595D01*
X2781643Y-3238690D01*
X2793548Y-3226786D01*
X2805452Y-3202976D01*
X2805452Y-3179167D01*
X2793548Y-3155357D01*
X2781643Y-3143452D01*
X2757833Y-3131548D01*
X2710214Y-3119643D01*
X2686405Y-3107738D01*
X2674500Y-3095833D01*
X2662595Y-3072024D01*
X2662595Y-3048214D01*
X2674500Y-3024405D01*
X2686405Y-3012500D01*
X2710214Y-3000595D01*
X2769738Y-3000595D01*
X2805452Y-3012500D01*
X2948309Y-3250595D02*
X2924500Y-3238690D01*
X2912595Y-3226786D01*
X2900690Y-3202976D01*
X2900690Y-3131548D01*
X2912595Y-3107738D01*
X2924500Y-3095833D01*
X2948309Y-3083928D01*
X2984024Y-3083928D01*
X3007833Y-3095833D01*
X3019738Y-3107738D01*
X3031643Y-3131548D01*
X3031643Y-3202976D01*
X3019738Y-3226786D01*
X3007833Y-3238690D01*
X2984024Y-3250595D01*
X2948309Y-3250595D01*
X3174500Y-3250595D02*
X3150690Y-3238690D01*
X3138786Y-3214881D01*
X3138786Y-3000595D01*
X3376881Y-3250595D02*
X3376881Y-3000595D01*
X3376881Y-3238690D02*
X3353071Y-3250595D01*
X3305452Y-3250595D01*
X3281643Y-3238690D01*
X3269738Y-3226786D01*
X3257833Y-3202976D01*
X3257833Y-3131548D01*
X3269738Y-3107738D01*
X3281643Y-3095833D01*
X3305452Y-3083928D01*
X3353071Y-3083928D01*
X3376881Y-3095833D01*
X3591167Y-3238690D02*
X3567357Y-3250595D01*
X3519738Y-3250595D01*
X3495928Y-3238690D01*
X3484024Y-3214881D01*
X3484024Y-3119643D01*
X3495928Y-3095833D01*
X3519738Y-3083928D01*
X3567357Y-3083928D01*
X3591167Y-3095833D01*
X3603071Y-3119643D01*
X3603071Y-3143452D01*
X3484024Y-3167262D01*
X3710214Y-3250595D02*
X3710214Y-3083928D01*
X3710214Y-3131548D02*
X3722119Y-3107738D01*
X3734024Y-3095833D01*
X3757833Y-3083928D01*
X3781643Y-3083928D01*
X3864976Y-3250595D02*
X3864976Y-3083928D01*
X3864976Y-3107738D02*
X3876881Y-3095833D01*
X3900690Y-3083928D01*
X3936405Y-3083928D01*
X3960214Y-3095833D01*
X3972119Y-3119643D01*
X3972119Y-3250595D01*
X3972119Y-3119643D02*
X3984024Y-3095833D01*
X4007833Y-3083928D01*
X4043548Y-3083928D01*
X4067357Y-3095833D01*
X4079262Y-3119643D01*
X4079262Y-3250595D01*
X4305452Y-3250595D02*
X4305452Y-3119643D01*
X4293548Y-3095833D01*
X4269738Y-3083928D01*
X4222119Y-3083928D01*
X4198310Y-3095833D01*
X4305452Y-3238690D02*
X4281643Y-3250595D01*
X4222119Y-3250595D01*
X4198310Y-3238690D01*
X4186405Y-3214881D01*
X4186405Y-3191071D01*
X4198310Y-3167262D01*
X4222119Y-3155357D01*
X4281643Y-3155357D01*
X4305452Y-3143452D01*
X4412595Y-3238690D02*
X4436405Y-3250595D01*
X4484024Y-3250595D01*
X4507833Y-3238690D01*
X4519738Y-3214881D01*
X4519738Y-3202976D01*
X4507833Y-3179167D01*
X4484024Y-3167262D01*
X4448310Y-3167262D01*
X4424500Y-3155357D01*
X4412595Y-3131548D01*
X4412595Y-3119643D01*
X4424500Y-3095833D01*
X4448310Y-3083928D01*
X4484024Y-3083928D01*
X4507833Y-3095833D01*
X4626881Y-3250595D02*
X4626881Y-3000595D01*
X4650690Y-3155357D02*
X4722119Y-3250595D01*
X4722119Y-3083928D02*
X4626881Y-3179167D01*
X4829262Y-3226786D02*
X4841167Y-3238690D01*
X4829262Y-3250595D01*
X4817357Y-3238690D01*
X4829262Y-3226786D01*
X4829262Y-3250595D01*
X4829262Y-3095833D02*
X4841167Y-3107738D01*
X4829262Y-3119643D01*
X4817357Y-3107738D01*
X4829262Y-3095833D01*
X4829262Y-3119643D01*
X5138786Y-3250595D02*
X5138786Y-3000595D01*
X5198310Y-3000595D01*
X5234024Y-3012500D01*
X5257833Y-3036309D01*
X5269738Y-3060119D01*
X5281643Y-3107738D01*
X5281643Y-3143452D01*
X5269738Y-3191071D01*
X5257833Y-3214881D01*
X5234024Y-3238690D01*
X5198310Y-3250595D01*
X5138786Y-3250595D01*
X5495929Y-3250595D02*
X5495929Y-3119643D01*
X5484024Y-3095833D01*
X5460214Y-3083928D01*
X5412595Y-3083928D01*
X5388786Y-3095833D01*
X5495929Y-3238690D02*
X5472119Y-3250595D01*
X5412595Y-3250595D01*
X5388786Y-3238690D01*
X5376881Y-3214881D01*
X5376881Y-3191071D01*
X5388786Y-3167262D01*
X5412595Y-3155357D01*
X5472119Y-3155357D01*
X5495929Y-3143452D01*
X5614976Y-3250595D02*
X5614976Y-3083928D01*
X5614976Y-3131548D02*
X5626881Y-3107738D01*
X5638786Y-3095833D01*
X5662595Y-3083928D01*
X5686405Y-3083928D01*
X5769738Y-3250595D02*
X5769738Y-3000595D01*
X5793548Y-3155357D02*
X5864976Y-3250595D01*
X5864976Y-3083928D02*
X5769738Y-3179167D01*
X6245928Y-3119643D02*
X6281643Y-3131548D01*
X6293548Y-3143452D01*
X6305452Y-3167262D01*
X6305452Y-3202976D01*
X6293548Y-3226786D01*
X6281643Y-3238690D01*
X6257833Y-3250595D01*
X6162595Y-3250595D01*
X6162595Y-3000595D01*
X6245928Y-3000595D01*
X6269738Y-3012500D01*
X6281643Y-3024405D01*
X6293548Y-3048214D01*
X6293548Y-3072024D01*
X6281643Y-3095833D01*
X6269738Y-3107738D01*
X6245928Y-3119643D01*
X6162595Y-3119643D01*
X6448309Y-3250595D02*
X6424500Y-3238690D01*
X6412595Y-3214881D01*
X6412595Y-3000595D01*
X6650690Y-3083928D02*
X6650690Y-3250595D01*
X6543548Y-3083928D02*
X6543548Y-3214881D01*
X6555452Y-3238690D01*
X6579262Y-3250595D01*
X6614976Y-3250595D01*
X6638786Y-3238690D01*
X6650690Y-3226786D01*
X6864976Y-3238690D02*
X6841167Y-3250595D01*
X6793548Y-3250595D01*
X6769738Y-3238690D01*
X6757833Y-3214881D01*
X6757833Y-3119643D01*
X6769738Y-3095833D01*
X6793548Y-3083928D01*
X6841167Y-3083928D01*
X6864976Y-3095833D01*
X6876881Y-3119643D01*
X6876881Y-3143452D01*
X6757833Y-3167262D01*
X1734024Y-3655595D02*
X1734024Y-3405595D01*
X1829262Y-3405595D01*
X1853071Y-3417500D01*
X1864976Y-3429405D01*
X1876881Y-3453214D01*
X1876881Y-3488928D01*
X1864976Y-3512738D01*
X1853071Y-3524643D01*
X1829262Y-3536548D01*
X1734024Y-3536548D01*
X2126881Y-3631786D02*
X2114976Y-3643690D01*
X2079262Y-3655595D01*
X2055452Y-3655595D01*
X2019738Y-3643690D01*
X1995928Y-3619881D01*
X1984024Y-3596071D01*
X1972119Y-3548452D01*
X1972119Y-3512738D01*
X1984024Y-3465119D01*
X1995928Y-3441309D01*
X2019738Y-3417500D01*
X2055452Y-3405595D01*
X2079262Y-3405595D01*
X2114976Y-3417500D01*
X2126881Y-3429405D01*
X2317357Y-3524643D02*
X2353071Y-3536548D01*
X2364976Y-3548452D01*
X2376881Y-3572262D01*
X2376881Y-3607976D01*
X2364976Y-3631786D01*
X2353071Y-3643690D01*
X2329262Y-3655595D01*
X2234024Y-3655595D01*
X2234024Y-3405595D01*
X2317357Y-3405595D01*
X2341167Y-3417500D01*
X2353071Y-3429405D01*
X2364976Y-3453214D01*
X2364976Y-3477024D01*
X2353071Y-3500833D01*
X2341167Y-3512738D01*
X2317357Y-3524643D01*
X2234024Y-3524643D01*
X2638786Y-3405595D02*
X2781643Y-3405595D01*
X2710214Y-3655595D02*
X2710214Y-3405595D01*
X2864976Y-3655595D02*
X2864976Y-3405595D01*
X2972119Y-3655595D02*
X2972119Y-3524643D01*
X2960214Y-3500833D01*
X2936405Y-3488928D01*
X2900690Y-3488928D01*
X2876881Y-3500833D01*
X2864976Y-3512738D01*
X3091167Y-3655595D02*
X3091167Y-3488928D01*
X3091167Y-3405595D02*
X3079262Y-3417500D01*
X3091167Y-3429405D01*
X3103071Y-3417500D01*
X3091167Y-3405595D01*
X3091167Y-3429405D01*
X3317357Y-3643690D02*
X3293548Y-3655595D01*
X3245928Y-3655595D01*
X3222119Y-3643690D01*
X3210214Y-3631786D01*
X3198309Y-3607976D01*
X3198309Y-3536548D01*
X3210214Y-3512738D01*
X3222119Y-3500833D01*
X3245928Y-3488928D01*
X3293548Y-3488928D01*
X3317357Y-3500833D01*
X3424500Y-3655595D02*
X3424500Y-3405595D01*
X3448309Y-3560357D02*
X3519738Y-3655595D01*
X3519738Y-3488928D02*
X3424500Y-3584167D01*
X3626881Y-3488928D02*
X3626881Y-3655595D01*
X3626881Y-3512738D02*
X3638786Y-3500833D01*
X3662595Y-3488928D01*
X3698309Y-3488928D01*
X3722119Y-3500833D01*
X3734024Y-3524643D01*
X3734024Y-3655595D01*
X3948309Y-3643690D02*
X3924500Y-3655595D01*
X3876881Y-3655595D01*
X3853071Y-3643690D01*
X3841167Y-3619881D01*
X3841167Y-3524643D01*
X3853071Y-3500833D01*
X3876881Y-3488928D01*
X3924500Y-3488928D01*
X3948309Y-3500833D01*
X3960214Y-3524643D01*
X3960214Y-3548452D01*
X3841167Y-3572262D01*
X4055452Y-3643690D02*
X4079262Y-3655595D01*
X4126881Y-3655595D01*
X4150690Y-3643690D01*
X4162595Y-3619881D01*
X4162595Y-3607976D01*
X4150690Y-3584167D01*
X4126881Y-3572262D01*
X4091167Y-3572262D01*
X4067357Y-3560357D01*
X4055452Y-3536548D01*
X4055452Y-3524643D01*
X4067357Y-3500833D01*
X4091167Y-3488928D01*
X4126881Y-3488928D01*
X4150690Y-3500833D01*
X4257833Y-3643690D02*
X4281643Y-3655595D01*
X4329262Y-3655595D01*
X4353071Y-3643690D01*
X4364976Y-3619881D01*
X4364976Y-3607976D01*
X4353071Y-3584167D01*
X4329262Y-3572262D01*
X4293548Y-3572262D01*
X4269738Y-3560357D01*
X4257833Y-3536548D01*
X4257833Y-3524643D01*
X4269738Y-3500833D01*
X4293548Y-3488928D01*
X4329262Y-3488928D01*
X4353071Y-3500833D01*
X4472119Y-3631786D02*
X4484024Y-3643690D01*
X4472119Y-3655595D01*
X4460214Y-3643690D01*
X4472119Y-3631786D01*
X4472119Y-3655595D01*
X4472119Y-3500833D02*
X4484024Y-3512738D01*
X4472119Y-3524643D01*
X4460214Y-3512738D01*
X4472119Y-3500833D01*
X4472119Y-3524643D01*
X4829262Y-3405595D02*
X4853071Y-3405595D01*
X4876881Y-3417500D01*
X4888786Y-3429405D01*
X4900690Y-3453214D01*
X4912595Y-3500833D01*
X4912595Y-3560357D01*
X4900690Y-3607976D01*
X4888786Y-3631786D01*
X4876881Y-3643690D01*
X4853071Y-3655595D01*
X4829262Y-3655595D01*
X4805452Y-3643690D01*
X4793548Y-3631786D01*
X4781643Y-3607976D01*
X4769738Y-3560357D01*
X4769738Y-3500833D01*
X4781643Y-3453214D01*
X4793548Y-3429405D01*
X4805452Y-3417500D01*
X4829262Y-3405595D01*
X5019738Y-3631786D02*
X5031643Y-3643690D01*
X5019738Y-3655595D01*
X5007833Y-3643690D01*
X5019738Y-3631786D01*
X5019738Y-3655595D01*
X5245929Y-3405595D02*
X5198310Y-3405595D01*
X5174500Y-3417500D01*
X5162595Y-3429405D01*
X5138786Y-3465119D01*
X5126881Y-3512738D01*
X5126881Y-3607976D01*
X5138786Y-3631786D01*
X5150690Y-3643690D01*
X5174500Y-3655595D01*
X5222119Y-3655595D01*
X5245929Y-3643690D01*
X5257833Y-3631786D01*
X5269738Y-3607976D01*
X5269738Y-3548452D01*
X5257833Y-3524643D01*
X5245929Y-3512738D01*
X5222119Y-3500833D01*
X5174500Y-3500833D01*
X5150690Y-3512738D01*
X5138786Y-3524643D01*
X5126881Y-3548452D01*
X5376881Y-3655595D02*
X5376881Y-3488928D01*
X5376881Y-3512738D02*
X5388786Y-3500833D01*
X5412595Y-3488928D01*
X5448310Y-3488928D01*
X5472119Y-3500833D01*
X5484024Y-3524643D01*
X5484024Y-3655595D01*
X5484024Y-3524643D02*
X5495929Y-3500833D01*
X5519738Y-3488928D01*
X5555452Y-3488928D01*
X5579262Y-3500833D01*
X5591167Y-3524643D01*
X5591167Y-3655595D01*
X5710214Y-3655595D02*
X5710214Y-3488928D01*
X5710214Y-3512738D02*
X5722119Y-3500833D01*
X5745928Y-3488928D01*
X5781643Y-3488928D01*
X5805452Y-3500833D01*
X5817357Y-3524643D01*
X5817357Y-3655595D01*
X5817357Y-3524643D02*
X5829262Y-3500833D01*
X5853071Y-3488928D01*
X5888786Y-3488928D01*
X5912595Y-3500833D01*
X5924500Y-3524643D01*
X5924500Y-3655595D01*
X1734024Y-4060595D02*
X1734024Y-3810595D01*
X1734024Y-3929643D02*
X1876881Y-3929643D01*
X1876881Y-4060595D02*
X1876881Y-3810595D01*
X2103071Y-4060595D02*
X2103071Y-3929643D01*
X2091167Y-3905833D01*
X2067357Y-3893928D01*
X2019738Y-3893928D01*
X1995928Y-3905833D01*
X2103071Y-4048690D02*
X2079262Y-4060595D01*
X2019738Y-4060595D01*
X1995928Y-4048690D01*
X1984024Y-4024881D01*
X1984024Y-4001071D01*
X1995928Y-3977262D01*
X2019738Y-3965357D01*
X2079262Y-3965357D01*
X2103071Y-3953452D01*
X2222119Y-4060595D02*
X2222119Y-3893928D01*
X2222119Y-3941548D02*
X2234024Y-3917738D01*
X2245929Y-3905833D01*
X2269738Y-3893928D01*
X2293548Y-3893928D01*
X2484024Y-4060595D02*
X2484024Y-3810595D01*
X2484024Y-4048690D02*
X2460214Y-4060595D01*
X2412595Y-4060595D01*
X2388786Y-4048690D01*
X2376881Y-4036786D01*
X2364976Y-4012976D01*
X2364976Y-3941548D01*
X2376881Y-3917738D01*
X2388786Y-3905833D01*
X2412595Y-3893928D01*
X2460214Y-3893928D01*
X2484024Y-3905833D01*
X2900690Y-3893928D02*
X2900690Y-4096309D01*
X2888786Y-4120119D01*
X2876881Y-4132024D01*
X2853071Y-4143928D01*
X2817357Y-4143928D01*
X2793548Y-4132024D01*
X2900690Y-4048690D02*
X2876881Y-4060595D01*
X2829262Y-4060595D01*
X2805452Y-4048690D01*
X2793548Y-4036786D01*
X2781643Y-4012976D01*
X2781643Y-3941548D01*
X2793548Y-3917738D01*
X2805452Y-3905833D01*
X2829262Y-3893928D01*
X2876881Y-3893928D01*
X2900690Y-3905833D01*
X3055452Y-4060595D02*
X3031643Y-4048690D01*
X3019738Y-4036786D01*
X3007833Y-4012976D01*
X3007833Y-3941548D01*
X3019738Y-3917738D01*
X3031643Y-3905833D01*
X3055452Y-3893928D01*
X3091167Y-3893928D01*
X3114976Y-3905833D01*
X3126881Y-3917738D01*
X3138786Y-3941548D01*
X3138786Y-4012976D01*
X3126881Y-4036786D01*
X3114976Y-4048690D01*
X3091167Y-4060595D01*
X3055452Y-4060595D01*
X3281643Y-4060595D02*
X3257833Y-4048690D01*
X3245928Y-4024881D01*
X3245928Y-3810595D01*
X3484024Y-4060595D02*
X3484024Y-3810595D01*
X3484024Y-4048690D02*
X3460214Y-4060595D01*
X3412595Y-4060595D01*
X3388786Y-4048690D01*
X3376881Y-4036786D01*
X3364976Y-4012976D01*
X3364976Y-3941548D01*
X3376881Y-3917738D01*
X3388786Y-3905833D01*
X3412595Y-3893928D01*
X3460214Y-3893928D01*
X3484024Y-3905833D01*
X3793548Y-3893928D02*
X3793548Y-4143928D01*
X3793548Y-3905833D02*
X3817357Y-3893928D01*
X3864976Y-3893928D01*
X3888786Y-3905833D01*
X3900690Y-3917738D01*
X3912595Y-3941548D01*
X3912595Y-4012976D01*
X3900690Y-4036786D01*
X3888786Y-4048690D01*
X3864976Y-4060595D01*
X3817357Y-4060595D01*
X3793548Y-4048690D01*
X4055452Y-4060595D02*
X4031643Y-4048690D01*
X4019738Y-4024881D01*
X4019738Y-3810595D01*
X4257833Y-4060595D02*
X4257833Y-3929643D01*
X4245929Y-3905833D01*
X4222119Y-3893928D01*
X4174500Y-3893928D01*
X4150690Y-3905833D01*
X4257833Y-4048690D02*
X4234024Y-4060595D01*
X4174500Y-4060595D01*
X4150690Y-4048690D01*
X4138786Y-4024881D01*
X4138786Y-4001071D01*
X4150690Y-3977262D01*
X4174500Y-3965357D01*
X4234024Y-3965357D01*
X4257833Y-3953452D01*
X4341167Y-3893928D02*
X4436405Y-3893928D01*
X4376881Y-3810595D02*
X4376881Y-4024881D01*
X4388786Y-4048690D01*
X4412595Y-4060595D01*
X4436405Y-4060595D01*
X4519738Y-4060595D02*
X4519738Y-3893928D01*
X4519738Y-3810595D02*
X4507833Y-3822500D01*
X4519738Y-3834405D01*
X4531643Y-3822500D01*
X4519738Y-3810595D01*
X4519738Y-3834405D01*
X4638786Y-3893928D02*
X4638786Y-4060595D01*
X4638786Y-3917738D02*
X4650690Y-3905833D01*
X4674500Y-3893928D01*
X4710214Y-3893928D01*
X4734024Y-3905833D01*
X4745929Y-3929643D01*
X4745929Y-4060595D01*
X4972119Y-3893928D02*
X4972119Y-4096309D01*
X4960214Y-4120119D01*
X4948310Y-4132024D01*
X4924500Y-4143928D01*
X4888786Y-4143928D01*
X4864976Y-4132024D01*
X4972119Y-4048690D02*
X4948310Y-4060595D01*
X4900690Y-4060595D01*
X4876881Y-4048690D01*
X4864976Y-4036786D01*
X4853071Y-4012976D01*
X4853071Y-3941548D01*
X4864976Y-3917738D01*
X4876881Y-3905833D01*
X4900690Y-3893928D01*
X4948310Y-3893928D01*
X4972119Y-3905833D01*
X5317357Y-4060595D02*
X5293548Y-4048690D01*
X5281643Y-4036786D01*
X5269738Y-4012976D01*
X5269738Y-3941548D01*
X5281643Y-3917738D01*
X5293548Y-3905833D01*
X5317357Y-3893928D01*
X5353071Y-3893928D01*
X5376881Y-3905833D01*
X5388786Y-3917738D01*
X5400690Y-3941548D01*
X5400690Y-4012976D01*
X5388786Y-4036786D01*
X5376881Y-4048690D01*
X5353071Y-4060595D01*
X5317357Y-4060595D01*
X5507833Y-3893928D02*
X5507833Y-4060595D01*
X5507833Y-3917738D02*
X5519738Y-3905833D01*
X5543548Y-3893928D01*
X5579262Y-3893928D01*
X5603071Y-3905833D01*
X5614976Y-3929643D01*
X5614976Y-4060595D01*
X5888786Y-3893928D02*
X5984024Y-3893928D01*
X5924500Y-4060595D02*
X5924500Y-3846309D01*
X5936405Y-3822500D01*
X5960214Y-3810595D01*
X5984024Y-3810595D01*
X6067357Y-4060595D02*
X6067357Y-3893928D01*
X6067357Y-3810595D02*
X6055452Y-3822500D01*
X6067357Y-3834405D01*
X6079262Y-3822500D01*
X6067357Y-3810595D01*
X6067357Y-3834405D01*
X6186405Y-3893928D02*
X6186405Y-4060595D01*
X6186405Y-3917738D02*
X6198309Y-3905833D01*
X6222119Y-3893928D01*
X6257833Y-3893928D01*
X6281643Y-3905833D01*
X6293548Y-3929643D01*
X6293548Y-4060595D01*
X6519738Y-3893928D02*
X6519738Y-4096309D01*
X6507833Y-4120119D01*
X6495928Y-4132024D01*
X6472119Y-4143928D01*
X6436405Y-4143928D01*
X6412595Y-4132024D01*
X6519738Y-4048690D02*
X6495928Y-4060595D01*
X6448309Y-4060595D01*
X6424500Y-4048690D01*
X6412595Y-4036786D01*
X6400690Y-4012976D01*
X6400690Y-3941548D01*
X6412595Y-3917738D01*
X6424500Y-3905833D01*
X6448309Y-3893928D01*
X6495928Y-3893928D01*
X6519738Y-3905833D01*
X6734024Y-4048690D02*
X6710214Y-4060595D01*
X6662595Y-4060595D01*
X6638786Y-4048690D01*
X6626881Y-4024881D01*
X6626881Y-3929643D01*
X6638786Y-3905833D01*
X6662595Y-3893928D01*
X6710214Y-3893928D01*
X6734024Y-3905833D01*
X6745928Y-3929643D01*
X6745928Y-3953452D01*
X6626881Y-3977262D01*
X6853071Y-4060595D02*
X6853071Y-3893928D01*
X6853071Y-3941548D02*
X6864976Y-3917738D01*
X6876881Y-3905833D01*
X6900690Y-3893928D01*
X6924500Y-3893928D01*
X6995928Y-4048690D02*
X7019738Y-4060595D01*
X7067357Y-4060595D01*
X7091167Y-4048690D01*
X7103071Y-4024881D01*
X7103071Y-4012976D01*
X7091167Y-3989167D01*
X7067357Y-3977262D01*
X7031643Y-3977262D01*
X7007833Y-3965357D01*
X6995928Y-3941548D01*
X6995928Y-3929643D01*
X7007833Y-3905833D01*
X7031643Y-3893928D01*
X7067357Y-3893928D01*
X7091167Y-3905833D01*
X7222119Y-4048690D02*
X7222119Y-4060595D01*
X7210214Y-4084405D01*
X7198309Y-4096309D01*
X7507833Y-4048690D02*
X7531643Y-4060595D01*
X7579262Y-4060595D01*
X7603071Y-4048690D01*
X7614976Y-4024881D01*
X7614976Y-4012976D01*
X7603071Y-3989167D01*
X7579262Y-3977262D01*
X7543548Y-3977262D01*
X7519738Y-3965357D01*
X7507833Y-3941548D01*
X7507833Y-3929643D01*
X7519738Y-3905833D01*
X7543548Y-3893928D01*
X7579262Y-3893928D01*
X7603071Y-3905833D01*
X7722119Y-4060595D02*
X7722119Y-3893928D01*
X7722119Y-3810595D02*
X7710214Y-3822500D01*
X7722119Y-3834405D01*
X7734024Y-3822500D01*
X7722119Y-3810595D01*
X7722119Y-3834405D01*
X7948309Y-4060595D02*
X7948309Y-3810595D01*
X7948309Y-4048690D02*
X7924500Y-4060595D01*
X7876881Y-4060595D01*
X7853071Y-4048690D01*
X7841167Y-4036786D01*
X7829262Y-4012976D01*
X7829262Y-3941548D01*
X7841167Y-3917738D01*
X7853071Y-3905833D01*
X7876881Y-3893928D01*
X7924500Y-3893928D01*
X7948309Y-3905833D01*
X8162595Y-4048690D02*
X8138786Y-4060595D01*
X8091167Y-4060595D01*
X8067357Y-4048690D01*
X8055452Y-4024881D01*
X8055452Y-3929643D01*
X8067357Y-3905833D01*
X8091167Y-3893928D01*
X8138786Y-3893928D01*
X8162595Y-3905833D01*
X8174500Y-3929643D01*
X8174500Y-3953452D01*
X8055452Y-3977262D01*
X1734024Y-4334643D02*
X1817357Y-4334643D01*
X1853071Y-4465595D02*
X1734024Y-4465595D01*
X1734024Y-4215595D01*
X1853071Y-4215595D01*
X1960214Y-4465595D02*
X1960214Y-4215595D01*
X2103071Y-4465595D01*
X2103071Y-4215595D01*
X2222119Y-4465595D02*
X2222119Y-4215595D01*
X2472119Y-4227500D02*
X2448310Y-4215595D01*
X2412595Y-4215595D01*
X2376881Y-4227500D01*
X2353071Y-4251310D01*
X2341167Y-4275119D01*
X2329262Y-4322738D01*
X2329262Y-4358452D01*
X2341167Y-4406071D01*
X2353071Y-4429881D01*
X2376881Y-4453690D01*
X2412595Y-4465595D01*
X2436405Y-4465595D01*
X2472119Y-4453690D01*
X2484024Y-4441786D01*
X2484024Y-4358452D01*
X2436405Y-4358452D01*
X2817357Y-4465595D02*
X2793548Y-4453690D01*
X2781643Y-4441786D01*
X2769738Y-4417976D01*
X2769738Y-4346548D01*
X2781643Y-4322738D01*
X2793548Y-4310833D01*
X2817357Y-4298929D01*
X2853071Y-4298929D01*
X2876881Y-4310833D01*
X2888786Y-4322738D01*
X2900690Y-4346548D01*
X2900690Y-4417976D01*
X2888786Y-4441786D01*
X2876881Y-4453690D01*
X2853071Y-4465595D01*
X2817357Y-4465595D01*
X3007833Y-4298929D02*
X3007833Y-4465595D01*
X3007833Y-4322738D02*
X3019738Y-4310833D01*
X3043548Y-4298929D01*
X3079262Y-4298929D01*
X3103071Y-4310833D01*
X3114976Y-4334643D01*
X3114976Y-4465595D01*
X3460214Y-4465595D02*
X3436405Y-4453690D01*
X3424500Y-4441786D01*
X3412595Y-4417976D01*
X3412595Y-4346548D01*
X3424500Y-4322738D01*
X3436405Y-4310833D01*
X3460214Y-4298929D01*
X3495928Y-4298929D01*
X3519738Y-4310833D01*
X3531643Y-4322738D01*
X3543548Y-4346548D01*
X3543548Y-4417976D01*
X3531643Y-4441786D01*
X3519738Y-4453690D01*
X3495928Y-4465595D01*
X3460214Y-4465595D01*
X3614976Y-4298929D02*
X3710214Y-4298929D01*
X3650690Y-4215595D02*
X3650690Y-4429881D01*
X3662595Y-4453690D01*
X3686405Y-4465595D01*
X3710214Y-4465595D01*
X3793548Y-4465595D02*
X3793548Y-4215595D01*
X3900690Y-4465595D02*
X3900690Y-4334643D01*
X3888786Y-4310833D01*
X3864976Y-4298929D01*
X3829262Y-4298929D01*
X3805452Y-4310833D01*
X3793548Y-4322738D01*
X4114976Y-4453690D02*
X4091167Y-4465595D01*
X4043548Y-4465595D01*
X4019738Y-4453690D01*
X4007833Y-4429881D01*
X4007833Y-4334643D01*
X4019738Y-4310833D01*
X4043548Y-4298929D01*
X4091167Y-4298929D01*
X4114976Y-4310833D01*
X4126881Y-4334643D01*
X4126881Y-4358452D01*
X4007833Y-4382262D01*
X4234024Y-4465595D02*
X4234024Y-4298929D01*
X4234024Y-4346548D02*
X4245929Y-4322738D01*
X4257833Y-4310833D01*
X4281643Y-4298929D01*
X4305452Y-4298929D01*
X4567357Y-4453690D02*
X4591167Y-4465595D01*
X4638786Y-4465595D01*
X4662595Y-4453690D01*
X4674500Y-4429881D01*
X4674500Y-4417976D01*
X4662595Y-4394167D01*
X4638786Y-4382262D01*
X4603071Y-4382262D01*
X4579262Y-4370357D01*
X4567357Y-4346548D01*
X4567357Y-4334643D01*
X4579262Y-4310833D01*
X4603071Y-4298929D01*
X4638786Y-4298929D01*
X4662595Y-4310833D01*
X4888786Y-4298929D02*
X4888786Y-4465595D01*
X4781643Y-4298929D02*
X4781643Y-4429881D01*
X4793548Y-4453690D01*
X4817357Y-4465595D01*
X4853071Y-4465595D01*
X4876881Y-4453690D01*
X4888786Y-4441786D01*
X5007833Y-4465595D02*
X5007833Y-4298929D01*
X5007833Y-4346548D02*
X5019738Y-4322738D01*
X5031643Y-4310833D01*
X5055452Y-4298929D01*
X5079262Y-4298929D01*
X5126881Y-4298929D02*
X5222119Y-4298929D01*
X5162595Y-4465595D02*
X5162595Y-4251310D01*
X5174500Y-4227500D01*
X5198310Y-4215595D01*
X5222119Y-4215595D01*
X5412595Y-4465595D02*
X5412595Y-4334643D01*
X5400690Y-4310833D01*
X5376881Y-4298929D01*
X5329262Y-4298929D01*
X5305452Y-4310833D01*
X5412595Y-4453690D02*
X5388786Y-4465595D01*
X5329262Y-4465595D01*
X5305452Y-4453690D01*
X5293548Y-4429881D01*
X5293548Y-4406071D01*
X5305452Y-4382262D01*
X5329262Y-4370357D01*
X5388786Y-4370357D01*
X5412595Y-4358452D01*
X5638786Y-4453690D02*
X5614976Y-4465595D01*
X5567357Y-4465595D01*
X5543548Y-4453690D01*
X5531643Y-4441786D01*
X5519738Y-4417976D01*
X5519738Y-4346548D01*
X5531643Y-4322738D01*
X5543548Y-4310833D01*
X5567357Y-4298929D01*
X5614976Y-4298929D01*
X5638786Y-4310833D01*
X5841167Y-4453690D02*
X5817357Y-4465595D01*
X5769738Y-4465595D01*
X5745928Y-4453690D01*
X5734024Y-4429881D01*
X5734024Y-4334643D01*
X5745928Y-4310833D01*
X5769738Y-4298929D01*
X5817357Y-4298929D01*
X5841167Y-4310833D01*
X5853071Y-4334643D01*
X5853071Y-4358452D01*
X5734024Y-4382262D01*
X5948309Y-4453690D02*
X5972119Y-4465595D01*
X6019738Y-4465595D01*
X6043548Y-4453690D01*
X6055452Y-4429881D01*
X6055452Y-4417976D01*
X6043548Y-4394167D01*
X6019738Y-4382262D01*
X5984024Y-4382262D01*
X5960214Y-4370357D01*
X5948309Y-4346548D01*
X5948309Y-4334643D01*
X5960214Y-4310833D01*
X5984024Y-4298929D01*
X6019738Y-4298929D01*
X6043548Y-4310833D01*
M02*
