G04 #@! TF.GenerationSoftware,KiCad,Pcbnew,(5.0.1)-3*
G04 #@! TF.CreationDate,2019-04-09T12:46:13+08:00*
G04 #@! TF.ProjectId,tomu-fpga,746F6D752D667067612E6B696361645F,rev?*
G04 #@! TF.SameCoordinates,Original*
G04 #@! TF.FileFunction,Copper,L3,Inr,Signal*
G04 #@! TF.FilePolarity,Positive*
%FSLAX45Y45*%
G04 Gerber Fmt 4.5, Leading zero omitted, Abs format (unit mm)*
G04 Created by KiCad (PCBNEW (5.0.1)-3) date 04/09/19 12:46:13*
%MOMM*%
%LPD*%
G01*
G04 APERTURE LIST*
G04 #@! TA.AperFunction,ViaPad*
%ADD10C,0.200000*%
G04 #@! TD*
G04 #@! TA.AperFunction,ViaPad*
%ADD11C,0.500000*%
G04 #@! TD*
G04 #@! TA.AperFunction,Conductor*
%ADD12C,0.200000*%
G04 #@! TD*
G04 #@! TA.AperFunction,Conductor*
%ADD13C,0.100000*%
G04 #@! TD*
G04 #@! TA.AperFunction,Conductor*
%ADD14C,0.400000*%
G04 #@! TD*
G04 #@! TA.AperFunction,Conductor*
%ADD15C,0.254000*%
G04 #@! TD*
G04 APERTURE END LIST*
D10*
G04 #@! TO.N,GND*
X2005000Y-2552500D03*
X1950000Y-2410000D03*
X1925000Y-2410000D03*
X1935000Y-2395000D03*
X1915000Y-2370000D03*
X1960000Y-2010000D03*
X1930000Y-2010000D03*
X1945000Y-2000000D03*
X1900000Y-1995000D03*
X1900000Y-1950000D03*
X1920000Y-1970000D03*
X2035000Y-2010000D03*
X2020000Y-1990000D03*
X1935000Y-1860000D03*
X1950000Y-1845000D03*
X1900000Y-1845000D03*
X1900000Y-1805000D03*
X1880000Y-1820000D03*
X1789000Y-1786500D03*
X1764000Y-1794500D03*
X1780000Y-2015000D03*
X2660000Y-1885000D03*
X2685000Y-1905000D03*
X2660000Y-1960000D03*
X2690000Y-1975000D03*
X2685000Y-2050000D03*
X2220000Y-2310000D03*
X2220000Y-2097500D03*
X2197500Y-2100000D03*
D11*
X2170000Y-2320000D03*
D10*
X2610000Y-2455000D03*
X2607500Y-2432500D03*
D11*
X2605000Y-1857500D03*
D10*
X1920000Y-1820000D03*
X2270000Y-2312500D03*
X1885000Y-1972500D03*
X2480000Y-2250000D03*
X2593000Y-2328500D03*
X2400000Y-2130000D03*
X2234000Y-2603500D03*
X2194000Y-2603500D03*
X2132500Y-2615000D03*
X2165000Y-2615000D03*
X2605000Y-2387500D03*
X2215000Y-2595000D03*
X2307500Y-2607500D03*
X2265000Y-2607500D03*
X2590000Y-2362500D03*
X2290000Y-2092500D03*
X2260000Y-2092500D03*
X1845000Y-2090500D03*
X2168000Y-2097500D03*
X1765000Y-1987500D03*
X2092500Y-2615000D03*
X2020000Y-2615000D03*
X2055000Y-2615000D03*
X2045000Y-2580000D03*
X2672500Y-2380000D03*
X2015000Y-2582500D03*
X2292000Y-1962500D03*
X2255000Y-1965500D03*
X2265000Y-2003500D03*
X2306000Y-2014500D03*
X2671000Y-2024500D03*
D11*
X2234000Y-1868500D03*
D10*
X2243000Y-2019500D03*
X2025000Y-2402500D03*
D11*
X2025000Y-2382500D03*
D10*
X2002500Y-2397500D03*
D11*
X2480000Y-1834500D03*
D10*
X2471000Y-1780500D03*
X2460000Y-1799500D03*
G04 #@! TO.N,+3V3*
X2440000Y-2290000D03*
X1845000Y-2000000D03*
X2040000Y-2260000D03*
X2220000Y-2230000D03*
X2400000Y-2170000D03*
X1865000Y-2005000D03*
X2480000Y-2210000D03*
X2103000Y-2405000D03*
X2128000Y-2405000D03*
X2110000Y-1780000D03*
X2112000Y-1820500D03*
D11*
X1840000Y-1962500D03*
X2110000Y-2390000D03*
X2515000Y-2215000D03*
D10*
X2140000Y-1818500D03*
D11*
X2022500Y-2277500D03*
X2245000Y-2247500D03*
X2180000Y-2245000D03*
D10*
X2157500Y-1787500D03*
D11*
X1842500Y-2027500D03*
X1745000Y-2222500D03*
D10*
X1945000Y-2332500D03*
X1945000Y-2347500D03*
X2020000Y-2312500D03*
X2522500Y-2390000D03*
D11*
X2602500Y-2170000D03*
D10*
X2602500Y-2150000D03*
X2627500Y-2162500D03*
D11*
X2200000Y-1792500D03*
X2288000Y-1789500D03*
D10*
X2502500Y-2392500D03*
X2275000Y-2242500D03*
X2260000Y-2227500D03*
X2205000Y-2242500D03*
X2045000Y-2247500D03*
X2510000Y-2410000D03*
D11*
X2557500Y-2397500D03*
X2440000Y-2390000D03*
X2355000Y-2125000D03*
D10*
X1770000Y-2240000D03*
D11*
X1980000Y-2330000D03*
D10*
X2385000Y-1774500D03*
X2360000Y-1773500D03*
D11*
X2369000Y-1795500D03*
G04 #@! TO.N,/SPI_MISO*
X2087500Y-2542500D03*
D10*
X2392500Y-2470000D03*
D11*
X2352500Y-2537500D03*
D10*
X2087500Y-2295000D03*
X2660000Y-1757500D03*
G04 #@! TO.N,/SPI_CS*
X2330000Y-2242500D03*
X2355000Y-2417500D03*
D11*
X2652500Y-2575000D03*
D10*
X2593671Y-2571671D03*
D11*
X2570000Y-1797500D03*
D10*
X2545000Y-1837500D03*
G04 #@! TO.N,/SPI_CLK*
X2325356Y-2205356D03*
X2225000Y-2490000D03*
X2770000Y-1782500D03*
G04 #@! TO.N,/SPI_IO2*
X2450000Y-2487500D03*
D11*
X2527500Y-2480000D03*
X2393000Y-1909500D03*
D10*
X2362000Y-1963500D03*
G04 #@! TO.N,/SPI_IO3*
X2245000Y-2455000D03*
X2690000Y-2535000D03*
X2262500Y-2577500D03*
X2330000Y-2282500D03*
G04 #@! TO.N,/CRESET*
X2440000Y-2090000D03*
X2524000Y-1947500D03*
X1770000Y-2177500D03*
X2408000Y-1843500D03*
G04 #@! TO.N,/CDONE*
X2440000Y-2170000D03*
X2510000Y-2058500D03*
G04 #@! TO.N,+5V*
X1790000Y-2495000D03*
X1817500Y-2475000D03*
X1730000Y-2497500D03*
X1730000Y-2542500D03*
X1740000Y-2587500D03*
X1836000Y-2337500D03*
D11*
X1820000Y-2572500D03*
X1860000Y-2572500D03*
X1860000Y-2532500D03*
D10*
X1725000Y-2587500D03*
X1730000Y-2517500D03*
X1735000Y-2617500D03*
X1820000Y-2612500D03*
X1730000Y-2562500D03*
D11*
X1780000Y-2602500D03*
D10*
X1855000Y-2615000D03*
X1745000Y-2295000D03*
X1747500Y-2350000D03*
X1850000Y-2310000D03*
X1835000Y-2320000D03*
G04 #@! TO.N,/SPI_MOSI*
X2225000Y-2525000D03*
D11*
X2507500Y-2562500D03*
D10*
X2309000Y-1910500D03*
D11*
X2710000Y-1797500D03*
D10*
X2500000Y-1752500D03*
G04 #@! TO.N,/PU_CTRL_USBP*
X1997500Y-2235000D03*
X2305000Y-2387500D03*
G04 #@! TO.N,/VCCPLL*
X2400000Y-2250000D03*
D11*
X2435000Y-2242500D03*
X2115000Y-2472500D03*
D10*
X2080000Y-2497500D03*
X2080000Y-2477500D03*
G04 #@! TO.N,+1V2*
X1940000Y-2562500D03*
X2400000Y-2210000D03*
X2007500Y-1782500D03*
X2042500Y-1777500D03*
X2200000Y-2140000D03*
X2220000Y-2140000D03*
X2270000Y-2140000D03*
X2290000Y-2140000D03*
D11*
X2172500Y-2150000D03*
X1987500Y-1810000D03*
D10*
X1936000Y-1783500D03*
X1953000Y-1791500D03*
X1846000Y-2408500D03*
D11*
X2240000Y-2157500D03*
X2300000Y-2157500D03*
X2030000Y-1810000D03*
D10*
X1955000Y-2547500D03*
D11*
X1835000Y-2385000D03*
G04 #@! TO.N,+2V5*
X2520000Y-2150000D03*
D10*
X2027500Y-1927500D03*
X2619000Y-1978500D03*
X2612000Y-1961500D03*
X2480000Y-2170000D03*
D11*
X2175000Y-1932500D03*
X2617000Y-1942500D03*
X2626000Y-2015500D03*
D10*
X2610000Y-1995500D03*
X2032500Y-1950000D03*
D11*
G04 #@! TO.N,/TOUCH_4*
X2845000Y-1827500D03*
D10*
X2797500Y-1835000D03*
G04 #@! TO.N,/TOUCH_1*
X2479751Y-2129875D03*
D11*
X2911000Y-2548500D03*
D10*
X2832000Y-2536500D03*
X2740000Y-2417500D03*
D11*
X2750000Y-2382500D03*
X2627500Y-2225000D03*
G04 #@! TO.N,/TOUCH_2*
X2890000Y-2362500D03*
D10*
X2850000Y-2362500D03*
D11*
G04 #@! TO.N,/TOUCH_3*
X2770000Y-2055000D03*
D10*
X2810000Y-2027500D03*
D11*
G04 #@! TO.N,/USB_P*
X1962500Y-2165000D03*
D10*
X2017500Y-2180000D03*
D11*
G04 #@! TO.N,/USB_N*
X1902500Y-2162500D03*
D10*
X1905000Y-2117500D03*
G04 #@! TD*
D12*
G04 #@! TO.N,GND*
X2192500Y-2095000D02*
X2197500Y-2100000D01*
X2150000Y-2095000D02*
X2192500Y-2095000D01*
D13*
X2000000Y-2402500D02*
X2000000Y-2392500D01*
X2025000Y-2382500D02*
X2000000Y-2402500D01*
D14*
G04 #@! TO.N,+3V3*
X2440000Y-2298500D02*
X2440000Y-2297500D01*
D13*
X1865000Y-2005000D02*
X1865000Y-2030000D01*
X1865000Y-2005000D02*
X1860000Y-2005000D01*
D14*
X2103000Y-2405000D02*
X2128000Y-2405000D01*
X2103000Y-2397000D02*
X2110000Y-2390000D01*
X2103000Y-2405000D02*
X2103000Y-2397000D01*
D12*
X2510000Y-2210000D02*
X2515000Y-2215000D01*
X2480000Y-2210000D02*
X2510000Y-2210000D01*
D14*
X1865000Y-2022855D02*
X1865000Y-2030000D01*
X1840000Y-1997855D02*
X1865000Y-2022855D01*
X1840000Y-1962500D02*
X1840000Y-1997855D01*
X1865000Y-2030000D02*
X1842500Y-2027500D01*
X2602500Y-2170000D02*
X2602500Y-2150000D01*
X2602500Y-2170000D02*
X2627500Y-2162500D01*
X2602500Y-2150000D02*
X2627500Y-2162500D01*
D12*
X2390000Y-2160000D02*
X2400000Y-2170000D01*
X2385600Y-2160000D02*
X2390000Y-2160000D01*
X2355000Y-2129400D02*
X2385600Y-2160000D01*
X2355000Y-2125000D02*
X2355000Y-2129400D01*
D13*
X1745000Y-2222500D02*
X1770000Y-2240000D01*
D12*
X1965000Y-2342500D02*
X1945000Y-2347500D01*
X1980000Y-2330000D02*
X1965000Y-2342500D01*
X1995000Y-2327500D02*
X1980000Y-2330000D01*
D13*
G04 #@! TO.N,/SPI_MISO*
X2622500Y-2510000D02*
X2615000Y-2510000D01*
X2622500Y-2510000D02*
X2840286Y-2510000D01*
X2840286Y-2510000D02*
X2950001Y-2400285D01*
X2950001Y-2400285D02*
X2950001Y-2370785D01*
X2950001Y-2370785D02*
X2974749Y-2346037D01*
X2581700Y-2520000D02*
X2591700Y-2510000D01*
X2428358Y-2520000D02*
X2581700Y-2520000D01*
X2392500Y-2484142D02*
X2428358Y-2520000D01*
X2392500Y-2470000D02*
X2392500Y-2484142D01*
X2548670Y-2553031D02*
X2591700Y-2510000D01*
X2352500Y-2537500D02*
X2377500Y-2562500D01*
X2352500Y-2537500D02*
X2417500Y-2602500D01*
X2548670Y-2580531D02*
X2548670Y-2553031D01*
X2526700Y-2602500D02*
X2548670Y-2580531D01*
X2417500Y-2602500D02*
X2526700Y-2602500D01*
X2055000Y-2510000D02*
X2087500Y-2542500D01*
X2055000Y-2447500D02*
X2055000Y-2510000D01*
X2067999Y-2434501D02*
X2055000Y-2447500D01*
X2067999Y-2372801D02*
X2067999Y-2434501D01*
X2087500Y-2353300D02*
X2067999Y-2372801D01*
X2087500Y-2295000D02*
X2087500Y-2353300D01*
X2591700Y-2510000D02*
X2622500Y-2510000D01*
X2974749Y-2030500D02*
X2974749Y-2042249D01*
X2974749Y-2040500D02*
X2974926Y-2040500D01*
X2974749Y-2040500D02*
X2974749Y-2030500D01*
X2974749Y-2346037D02*
X2974749Y-2040500D01*
X2974749Y-2008963D02*
X2974749Y-2030500D01*
X2674142Y-1757500D02*
X2674143Y-1757499D01*
X2660000Y-1757500D02*
X2674142Y-1757500D01*
X2674143Y-1757499D02*
X2880785Y-1757499D01*
X2880785Y-1757499D02*
X2905001Y-1781715D01*
X2905001Y-1781715D02*
X2905001Y-1939215D01*
X2905001Y-1939215D02*
X2974749Y-2008963D01*
G04 #@! TO.N,/SPI_CS*
X2652500Y-2575000D02*
X2597000Y-2575000D01*
X2597000Y-2575000D02*
X2593671Y-2571671D01*
X2355000Y-2287500D02*
X2355000Y-2417500D01*
X2355000Y-2267500D02*
X2355000Y-2287500D01*
X2330000Y-2242500D02*
X2355000Y-2267500D01*
X2570000Y-1797500D02*
X2570000Y-1812500D01*
X2570000Y-1812500D02*
X2545000Y-1837500D01*
G04 #@! TO.N,/SPI_CLK*
X2950000Y-2012500D02*
X2940000Y-2002500D01*
X2954748Y-2017248D02*
X2940000Y-2002500D01*
X2954748Y-2337752D02*
X2954748Y-2017248D01*
X2930000Y-2362500D02*
X2954748Y-2337752D01*
X2930000Y-2392000D02*
X2930000Y-2362500D01*
X2836999Y-2485001D02*
X2930000Y-2392000D01*
X2595000Y-2485001D02*
X2836999Y-2485001D01*
X2380000Y-2429500D02*
X2364500Y-2445000D01*
X2292501Y-2472499D02*
X2337001Y-2472499D01*
X2275000Y-2490000D02*
X2292501Y-2472499D01*
X2225000Y-2490000D02*
X2275000Y-2490000D01*
X2547499Y-2437500D02*
X2595000Y-2485001D01*
X2452500Y-2437500D02*
X2547499Y-2437500D01*
X2445000Y-2445000D02*
X2452500Y-2437500D01*
X2364500Y-2445000D02*
X2445000Y-2445000D01*
X2380000Y-2429500D02*
X2356000Y-2453500D01*
X2375001Y-2400501D02*
X2380000Y-2405500D01*
X2339856Y-2215356D02*
X2375001Y-2250501D01*
X2335356Y-2215356D02*
X2339856Y-2215356D01*
X2325356Y-2205356D02*
X2335356Y-2215356D01*
X2356000Y-2453500D02*
X2364500Y-2445000D01*
X2337001Y-2472499D02*
X2356000Y-2453500D01*
X2380000Y-2405500D02*
X2380000Y-2429500D01*
X2375001Y-2250501D02*
X2375001Y-2400501D01*
X2885000Y-1947500D02*
X2940000Y-2002500D01*
X2885000Y-1790000D02*
X2885000Y-1947500D01*
X2877500Y-1782500D02*
X2885000Y-1790000D01*
X2770000Y-1782500D02*
X2877500Y-1782500D01*
G04 #@! TO.N,/SPI_IO2*
X2457500Y-2480000D02*
X2450000Y-2487500D01*
X2527500Y-2480000D02*
X2457500Y-2480000D01*
X2362000Y-1940500D02*
X2393000Y-1909500D01*
X2362000Y-1963500D02*
X2362000Y-1940500D01*
G04 #@! TO.N,/SPI_IO3*
X2594986Y-2535000D02*
X2690000Y-2535000D01*
X2262500Y-2577500D02*
X2364214Y-2577500D01*
X2364214Y-2577500D02*
X2409215Y-2622501D01*
X2568671Y-2561315D02*
X2594986Y-2535000D01*
X2536170Y-2622501D02*
X2568671Y-2590000D01*
X2409215Y-2622501D02*
X2536170Y-2622501D01*
X2568671Y-2590000D02*
X2568671Y-2561315D01*
X2271642Y-2442500D02*
X2312500Y-2442500D01*
X2312500Y-2442500D02*
X2330000Y-2425000D01*
X2330000Y-2425000D02*
X2330000Y-2282500D01*
X2259142Y-2455000D02*
X2271642Y-2442500D01*
X2245000Y-2455000D02*
X2259142Y-2455000D01*
G04 #@! TO.N,/CRESET*
X2524000Y-2006000D02*
X2524000Y-1998500D01*
X2440000Y-2090000D02*
X2524000Y-2006000D01*
X2524000Y-1947500D02*
X2524000Y-1998500D01*
X1755000Y-1747500D02*
X1734500Y-1768000D01*
X2384000Y-1747500D02*
X2395000Y-1747500D01*
X1734500Y-1768000D02*
X1734500Y-2149500D01*
X1734500Y-2149500D02*
X1770000Y-2177500D01*
X2395000Y-1747500D02*
X2368000Y-1747500D01*
X2410000Y-1762500D02*
X2395000Y-1747500D01*
X2410000Y-1827358D02*
X2410000Y-1762500D01*
X2408000Y-1843500D02*
X2408000Y-1829358D01*
X2384000Y-1747500D02*
X2368000Y-1747500D01*
X2408000Y-1829358D02*
X2410000Y-1827358D01*
X2368000Y-1747500D02*
X1755000Y-1747500D01*
G04 #@! TO.N,/CDONE*
X2454751Y-2155250D02*
X2440000Y-2170000D01*
X2454751Y-2116035D02*
X2454751Y-2155250D01*
X2510000Y-2060786D02*
X2454751Y-2116035D01*
X2510000Y-2058500D02*
X2510000Y-2060786D01*
G04 #@! TO.N,+5V*
X1820000Y-2555000D02*
X1820000Y-2550000D01*
X1820000Y-2550000D02*
X1800000Y-2570000D01*
X1820000Y-2555000D02*
X1830000Y-2565000D01*
G04 #@! TO.N,/SPI_MOSI*
X2249142Y-2515000D02*
X2296571Y-2515000D01*
X2239142Y-2525000D02*
X2249142Y-2515000D01*
X2225000Y-2525000D02*
X2239142Y-2525000D01*
X2310000Y-2501571D02*
X2314071Y-2497500D01*
X2296571Y-2515000D02*
X2310000Y-2501571D01*
X2314071Y-2497500D02*
X2296571Y-2515000D01*
X2507500Y-2562500D02*
X2467500Y-2562500D01*
X2371700Y-2497500D02*
X2314071Y-2497500D01*
X2436700Y-2562500D02*
X2371700Y-2497500D01*
X2507500Y-2562500D02*
X2436700Y-2562500D01*
X2309000Y-1910500D02*
X2350000Y-1869500D01*
X2396000Y-1869500D02*
X2403000Y-1869500D01*
X2350000Y-1869500D02*
X2396000Y-1869500D01*
X2614200Y-1752500D02*
X2659200Y-1797500D01*
X2500000Y-1752500D02*
X2510000Y-1752500D01*
X2659200Y-1797500D02*
X2710000Y-1797500D01*
X2510000Y-1752500D02*
X2614200Y-1752500D01*
X2462000Y-1752500D02*
X2614200Y-1752500D01*
X2435000Y-1779500D02*
X2462000Y-1752500D01*
X2435000Y-1853500D02*
X2435000Y-1779500D01*
X2419000Y-1869500D02*
X2435000Y-1853500D01*
X2396000Y-1869500D02*
X2419000Y-1869500D01*
G04 #@! TO.N,/PU_CTRL_USBP*
X2032500Y-2200000D02*
X1997500Y-2235000D01*
X2285000Y-2200000D02*
X2032500Y-2200000D01*
X2305000Y-2387500D02*
X2305000Y-2220000D01*
X2305000Y-2220000D02*
X2285000Y-2200000D01*
D12*
G04 #@! TO.N,/VCCPLL*
X2427500Y-2250000D02*
X2435000Y-2242500D01*
X2400000Y-2250000D02*
X2427500Y-2250000D01*
X2105000Y-2472500D02*
X2115000Y-2472500D01*
X2080000Y-2497500D02*
X2105000Y-2472500D01*
X2105000Y-2462500D02*
X2115000Y-2472500D01*
X2080000Y-2477500D02*
X2105000Y-2462500D01*
D13*
G04 #@! TO.N,+1V2*
X2130000Y-2140000D02*
X2130000Y-2166854D01*
X2130000Y-2166854D02*
X2139214Y-2176068D01*
X2150000Y-2140000D02*
X2172500Y-2150000D01*
X2035000Y-1800000D02*
X1997500Y-1800000D01*
X1997500Y-1800000D02*
X1987500Y-1810000D01*
X2282500Y-2140000D02*
X2300000Y-2157500D01*
X2270000Y-2140000D02*
X2282500Y-2140000D01*
D12*
X1955000Y-2547500D02*
X1940000Y-2562500D01*
D14*
X1915000Y-2537500D02*
X1940000Y-2562500D01*
X1915000Y-2506100D02*
X1915000Y-2537500D01*
X1880000Y-2439855D02*
X1880000Y-2471100D01*
X1880000Y-2471100D02*
X1915000Y-2506100D01*
X1858000Y-2417855D02*
X1880000Y-2439855D01*
X1835000Y-2385000D02*
X1858000Y-2417855D01*
D13*
X1835000Y-2385000D02*
X1858000Y-2396500D01*
X1858000Y-2396500D02*
X1846000Y-2408500D01*
D12*
G04 #@! TO.N,+2V5*
X2480000Y-2170000D02*
X2500000Y-2170000D01*
X2500000Y-2170000D02*
X2520000Y-2150000D01*
D14*
X2127500Y-1927500D02*
X2027500Y-1927500D01*
X2175000Y-1932500D02*
X2127500Y-1927500D01*
D12*
X2617000Y-1942500D02*
X2619000Y-1978500D01*
D14*
X2626000Y-2015500D02*
X2617000Y-1942500D01*
D12*
X2610000Y-1995500D02*
X2626000Y-2015500D01*
X2617000Y-1942500D02*
X2610000Y-1995500D01*
D14*
X2052500Y-1932500D02*
X2175000Y-1932500D01*
X2032500Y-1950000D02*
X2052500Y-1932500D01*
D13*
G04 #@! TO.N,/TOUCH_4*
X2837500Y-1835000D02*
X2845000Y-1827500D01*
X2797500Y-1835000D02*
X2837500Y-1835000D01*
G04 #@! TO.N,/TOUCH_1*
X2539200Y-2110000D02*
X2499626Y-2110000D01*
X2560000Y-2130800D02*
X2539200Y-2110000D01*
X2499626Y-2110000D02*
X2479751Y-2129875D01*
X2560000Y-2130800D02*
X2539200Y-2110000D01*
X2899000Y-2536500D02*
X2911000Y-2548500D01*
X2832000Y-2536500D02*
X2899000Y-2536500D01*
X2560000Y-2155000D02*
X2560000Y-2137500D01*
X2560000Y-2137500D02*
X2560000Y-2130800D01*
X2750000Y-2407500D02*
X2740000Y-2417500D01*
X2750000Y-2382500D02*
X2750000Y-2407500D01*
X2560000Y-2137500D02*
X2560000Y-2137500D01*
X2560000Y-2197500D02*
X2560000Y-2137500D01*
X2587500Y-2225000D02*
X2560000Y-2197500D01*
X2627500Y-2225000D02*
X2587500Y-2225000D01*
G04 #@! TO.N,/TOUCH_2*
X2850000Y-2362500D02*
X2852500Y-2362500D01*
X2852500Y-2362500D02*
X2890000Y-2362500D01*
D12*
G04 #@! TO.N,/TOUCH_3*
X2797500Y-2027500D02*
X2770000Y-2055000D01*
X2810000Y-2027500D02*
X2797500Y-2027500D01*
D13*
G04 #@! TO.N,/USB_P*
X1977500Y-2180000D02*
X1962500Y-2165000D01*
X2017500Y-2180000D02*
X1977500Y-2180000D01*
G04 #@! TO.N,/USB_N*
X1905000Y-2160000D02*
X1902500Y-2162500D01*
X1905000Y-2117500D02*
X1905000Y-2160000D01*
G04 #@! TD*
D15*
G04 #@! TO.N,GND*
G36*
X1887300Y-1810000D02*
X1890849Y-1822187D01*
X1896970Y-1828588D01*
X1905076Y-1832159D01*
X1927576Y-1837159D01*
X1929233Y-1837464D01*
X1950616Y-1840574D01*
X1960480Y-1850438D01*
X1978012Y-1857700D01*
X1996988Y-1857700D01*
X2008750Y-1852828D01*
X2020512Y-1857700D01*
X2039488Y-1857700D01*
X2046991Y-1854592D01*
X2061393Y-1856687D01*
X2064813Y-1858972D01*
X2073500Y-1860700D01*
X2319626Y-1860700D01*
X2302526Y-1877800D01*
X2302496Y-1877800D01*
X2290477Y-1882778D01*
X2281278Y-1891977D01*
X2276300Y-1903996D01*
X2276300Y-1917004D01*
X2281278Y-1929023D01*
X2290477Y-1938222D01*
X2302496Y-1943200D01*
X2315504Y-1943200D01*
X2327523Y-1938222D01*
X2335871Y-1929874D01*
X2335247Y-1933012D01*
X2334300Y-1937772D01*
X2334300Y-1937772D01*
X2333758Y-1940500D01*
X2334300Y-1943227D01*
X2334300Y-1944955D01*
X2334278Y-1944977D01*
X2329300Y-1956996D01*
X2329300Y-1970004D01*
X2334278Y-1982023D01*
X2343477Y-1991222D01*
X2355496Y-1996200D01*
X2368504Y-1996200D01*
X2380523Y-1991222D01*
X2389722Y-1982023D01*
X2394700Y-1970004D01*
X2394700Y-1957200D01*
X2402488Y-1957200D01*
X2420020Y-1949938D01*
X2433438Y-1936520D01*
X2440700Y-1918988D01*
X2440700Y-1900012D01*
X2436905Y-1890851D01*
X2438971Y-1889470D01*
X2440516Y-1887158D01*
X2452658Y-1875016D01*
X2454971Y-1873471D01*
X2461093Y-1864308D01*
X2462700Y-1856228D01*
X2462700Y-1856228D01*
X2463243Y-1853500D01*
X2462700Y-1850773D01*
X2462700Y-1790973D01*
X2473473Y-1780200D01*
X2481455Y-1780200D01*
X2481477Y-1780222D01*
X2493496Y-1785200D01*
X2506504Y-1785200D01*
X2518523Y-1780222D01*
X2518545Y-1780200D01*
X2525536Y-1780200D01*
X2522300Y-1788012D01*
X2522300Y-1806988D01*
X2524341Y-1811915D01*
X2517278Y-1818977D01*
X2512300Y-1830996D01*
X2512300Y-1844004D01*
X2517278Y-1856023D01*
X2526477Y-1865222D01*
X2538496Y-1870200D01*
X2551504Y-1870200D01*
X2563523Y-1865222D01*
X2572722Y-1856023D01*
X2577205Y-1845200D01*
X2579488Y-1845200D01*
X2597020Y-1837938D01*
X2610438Y-1824520D01*
X2617700Y-1806988D01*
X2617700Y-1795173D01*
X2637685Y-1815158D01*
X2639230Y-1817470D01*
X2648392Y-1823593D01*
X2656472Y-1825200D01*
X2656473Y-1825200D01*
X2659200Y-1825742D01*
X2661928Y-1825200D01*
X2670242Y-1825200D01*
X2682980Y-1837938D01*
X2700512Y-1845200D01*
X2707300Y-1845200D01*
X2707300Y-2162633D01*
X2704746Y-2175474D01*
X2704746Y-2184526D01*
X2707300Y-2197367D01*
X2707300Y-2360941D01*
X2702300Y-2373012D01*
X2702300Y-2391988D01*
X2707300Y-2404059D01*
X2707300Y-2457301D01*
X2606474Y-2457301D01*
X2605200Y-2456027D01*
X2605200Y-2370000D01*
X2603472Y-2361313D01*
X2598551Y-2353949D01*
X2591187Y-2349028D01*
X2582500Y-2347300D01*
X2500566Y-2347300D01*
X2476267Y-2267519D01*
X2482700Y-2251988D01*
X2482700Y-2250158D01*
X2487980Y-2255438D01*
X2505512Y-2262700D01*
X2524488Y-2262700D01*
X2542020Y-2255438D01*
X2555438Y-2242020D01*
X2558340Y-2235014D01*
X2565984Y-2242658D01*
X2567530Y-2244971D01*
X2576692Y-2251093D01*
X2584772Y-2252700D01*
X2584773Y-2252700D01*
X2587500Y-2253243D01*
X2588154Y-2253112D01*
X2600480Y-2265438D01*
X2618012Y-2272700D01*
X2636988Y-2272700D01*
X2654520Y-2265438D01*
X2667938Y-2252020D01*
X2675200Y-2234488D01*
X2675200Y-2215512D01*
X2667938Y-2197980D01*
X2660099Y-2190141D01*
X2660833Y-2189194D01*
X2665833Y-2183141D01*
X2666029Y-2182499D01*
X2666440Y-2181970D01*
X2668511Y-2174407D01*
X2670814Y-2166900D01*
X2670750Y-2166233D01*
X2670927Y-2165586D01*
X2669946Y-2157804D01*
X2669200Y-2149990D01*
X2668886Y-2149398D01*
X2668802Y-2148733D01*
X2664917Y-2141917D01*
X2661239Y-2134984D01*
X2660722Y-2134557D01*
X2660390Y-2133975D01*
X2654192Y-2129165D01*
X2648141Y-2124167D01*
X2643418Y-2122719D01*
X2623994Y-2113007D01*
X2619161Y-2109778D01*
X2612315Y-2108416D01*
X2605586Y-2106573D01*
X2604034Y-2106769D01*
X2602500Y-2106464D01*
X2595656Y-2107825D01*
X2588733Y-2108698D01*
X2587374Y-2109472D01*
X2585839Y-2109778D01*
X2581296Y-2112813D01*
X2579971Y-2110829D01*
X2577658Y-2109284D01*
X2560716Y-2092342D01*
X2559171Y-2090029D01*
X2550008Y-2083907D01*
X2541928Y-2082300D01*
X2541928Y-2082300D01*
X2539200Y-2081757D01*
X2536473Y-2082300D01*
X2532445Y-2082300D01*
X2537722Y-2077023D01*
X2542700Y-2065004D01*
X2542700Y-2051996D01*
X2537722Y-2039977D01*
X2533459Y-2035714D01*
X2541658Y-2027516D01*
X2543971Y-2025970D01*
X2550093Y-2016808D01*
X2551700Y-2008728D01*
X2551700Y-2008727D01*
X2552243Y-2006000D01*
X2551700Y-2003273D01*
X2551700Y-1966045D01*
X2551722Y-1966023D01*
X2556700Y-1954004D01*
X2556700Y-1940996D01*
X2553393Y-1933012D01*
X2569300Y-1933012D01*
X2569300Y-1951988D01*
X2576562Y-1969520D01*
X2577413Y-1970371D01*
X2578824Y-1981814D01*
X2578144Y-1986957D01*
X2577300Y-1988996D01*
X2577300Y-1990441D01*
X2576863Y-1991818D01*
X2577300Y-1996901D01*
X2577300Y-2002004D01*
X2577721Y-2003020D01*
X2577792Y-2004116D01*
X2577947Y-2004430D01*
X2577977Y-2004779D01*
X2578440Y-2005673D01*
X2578300Y-2006012D01*
X2578300Y-2024988D01*
X2585562Y-2042520D01*
X2598980Y-2055938D01*
X2616512Y-2063200D01*
X2635488Y-2063200D01*
X2653020Y-2055938D01*
X2666438Y-2042520D01*
X2673700Y-2024988D01*
X2673700Y-2006012D01*
X2666438Y-1988480D01*
X2665587Y-1987629D01*
X2661997Y-1958513D01*
X2664700Y-1951988D01*
X2664700Y-1933012D01*
X2657438Y-1915480D01*
X2644020Y-1902062D01*
X2626488Y-1894800D01*
X2607512Y-1894800D01*
X2589980Y-1902062D01*
X2576562Y-1915480D01*
X2569300Y-1933012D01*
X2553393Y-1933012D01*
X2551722Y-1928977D01*
X2542523Y-1919778D01*
X2530504Y-1914800D01*
X2517496Y-1914800D01*
X2505477Y-1919778D01*
X2496278Y-1928977D01*
X2491300Y-1940996D01*
X2491300Y-1954004D01*
X2496278Y-1966023D01*
X2496300Y-1966045D01*
X2496300Y-1994526D01*
X2433526Y-2057300D01*
X2433496Y-2057300D01*
X2421477Y-2062278D01*
X2412278Y-2071477D01*
X2407300Y-2083496D01*
X2407300Y-2096504D01*
X2412278Y-2108523D01*
X2421477Y-2117722D01*
X2427051Y-2120030D01*
X2427051Y-2139970D01*
X2421477Y-2142278D01*
X2420000Y-2143755D01*
X2415400Y-2139155D01*
X2413576Y-2136425D01*
X2402759Y-2129197D01*
X2402700Y-2129186D01*
X2402700Y-2115512D01*
X2395438Y-2097980D01*
X2382020Y-2084562D01*
X2364488Y-2077300D01*
X2345512Y-2077300D01*
X2327980Y-2084562D01*
X2315242Y-2097300D01*
X2100000Y-2097300D01*
X2091313Y-2099028D01*
X2083949Y-2103949D01*
X2079028Y-2111313D01*
X2077300Y-2120000D01*
X2077300Y-2172300D01*
X2049705Y-2172300D01*
X2045222Y-2161477D01*
X2036023Y-2152278D01*
X2024004Y-2147300D01*
X2010996Y-2147300D01*
X2007413Y-2148784D01*
X2002938Y-2137980D01*
X1989520Y-2124562D01*
X1971988Y-2117300D01*
X1953012Y-2117300D01*
X1937700Y-2123642D01*
X1937700Y-2110996D01*
X1932722Y-2098977D01*
X1923523Y-2089778D01*
X1911504Y-2084800D01*
X1898496Y-2084800D01*
X1886477Y-2089778D01*
X1877278Y-2098977D01*
X1872300Y-2110996D01*
X1872300Y-2124004D01*
X1872662Y-2124880D01*
X1862062Y-2135480D01*
X1854800Y-2153012D01*
X1854800Y-2171988D01*
X1862062Y-2189520D01*
X1875480Y-2202938D01*
X1893012Y-2210200D01*
X1911988Y-2210200D01*
X1929520Y-2202938D01*
X1931250Y-2201208D01*
X1935480Y-2205438D01*
X1953012Y-2212700D01*
X1971988Y-2212700D01*
X1974663Y-2211592D01*
X1969778Y-2216477D01*
X1964800Y-2228496D01*
X1964800Y-2241504D01*
X1969778Y-2253523D01*
X1974512Y-2258257D01*
X1931965Y-2302505D01*
X1926477Y-2304778D01*
X1917278Y-2313977D01*
X1914511Y-2320657D01*
X1908637Y-2326766D01*
X1904028Y-2333813D01*
X1902300Y-2342500D01*
X1904028Y-2351187D01*
X1908949Y-2358551D01*
X1958949Y-2408551D01*
X1966803Y-2413668D01*
X1975528Y-2415194D01*
X1984172Y-2413264D01*
X1991420Y-2408174D01*
X2059800Y-2336538D01*
X2059800Y-2341826D01*
X2050341Y-2351285D01*
X2048028Y-2352830D01*
X2041906Y-2361993D01*
X2040299Y-2370073D01*
X2040299Y-2370073D01*
X2039756Y-2372801D01*
X2040299Y-2375528D01*
X2040299Y-2423027D01*
X2037342Y-2425984D01*
X2035029Y-2427530D01*
X2028907Y-2436692D01*
X2027300Y-2444772D01*
X2027300Y-2444773D01*
X2026757Y-2447500D01*
X2027300Y-2450228D01*
X2027300Y-2507272D01*
X2026757Y-2510000D01*
X2028907Y-2520808D01*
X2033460Y-2527622D01*
X2035030Y-2529971D01*
X2037342Y-2531516D01*
X2039800Y-2533974D01*
X2039800Y-2551988D01*
X2047062Y-2569520D01*
X2060480Y-2582938D01*
X2078012Y-2590200D01*
X2096988Y-2590200D01*
X2114520Y-2582938D01*
X2127938Y-2569520D01*
X2135200Y-2551988D01*
X2135200Y-2533012D01*
X2129102Y-2518289D01*
X2142020Y-2512938D01*
X2155438Y-2499520D01*
X2162700Y-2481988D01*
X2162700Y-2463012D01*
X2155438Y-2445480D01*
X2150967Y-2441009D01*
X2158785Y-2435785D01*
X2168223Y-2421661D01*
X2171537Y-2405000D01*
X2168223Y-2388339D01*
X2158785Y-2374215D01*
X2153678Y-2370803D01*
X2150438Y-2362980D01*
X2137020Y-2349562D01*
X2119488Y-2342300D01*
X2115200Y-2342300D01*
X2115200Y-2313545D01*
X2115222Y-2313523D01*
X2118669Y-2305200D01*
X2277300Y-2305200D01*
X2277300Y-2368955D01*
X2277278Y-2368977D01*
X2272300Y-2380996D01*
X2272300Y-2394004D01*
X2277278Y-2406023D01*
X2286055Y-2414800D01*
X2274370Y-2414800D01*
X2271642Y-2414258D01*
X2268915Y-2414800D01*
X2268914Y-2414800D01*
X2260834Y-2416407D01*
X2251820Y-2422431D01*
X2251504Y-2422300D01*
X2238496Y-2422300D01*
X2226477Y-2427278D01*
X2217278Y-2436477D01*
X2212300Y-2448496D01*
X2212300Y-2459866D01*
X2206477Y-2462278D01*
X2197278Y-2471477D01*
X2192300Y-2483496D01*
X2192300Y-2496504D01*
X2196855Y-2507500D01*
X2192300Y-2518496D01*
X2192300Y-2531504D01*
X2197278Y-2543523D01*
X2206477Y-2552722D01*
X2218496Y-2557700D01*
X2231504Y-2557700D01*
X2239273Y-2554482D01*
X2234778Y-2558977D01*
X2229800Y-2570996D01*
X2229800Y-2584004D01*
X2234778Y-2596023D01*
X2243977Y-2605222D01*
X2255996Y-2610200D01*
X2269004Y-2610200D01*
X2281023Y-2605222D01*
X2281045Y-2605200D01*
X2352741Y-2605200D01*
X2372341Y-2624800D01*
X1934527Y-2624800D01*
X1928733Y-2603795D01*
X1940000Y-2606037D01*
X1956661Y-2602722D01*
X1970785Y-2593285D01*
X1980222Y-2579161D01*
X1982941Y-2565493D01*
X1983978Y-2562989D01*
X1985803Y-2560259D01*
X1986443Y-2557038D01*
X1987700Y-2554004D01*
X1987700Y-2550721D01*
X1988341Y-2547500D01*
X1987700Y-2544280D01*
X1987700Y-2540996D01*
X1986443Y-2537962D01*
X1985803Y-2534741D01*
X1983978Y-2532011D01*
X1982722Y-2528977D01*
X1980399Y-2526655D01*
X1978575Y-2523925D01*
X1975845Y-2522100D01*
X1973523Y-2519778D01*
X1970489Y-2518522D01*
X1967759Y-2516697D01*
X1964538Y-2516057D01*
X1961504Y-2514800D01*
X1958220Y-2514800D01*
X1957700Y-2514697D01*
X1957700Y-2510305D01*
X1958537Y-2506100D01*
X1956880Y-2497770D01*
X1955223Y-2489439D01*
X1945785Y-2475315D01*
X1942220Y-2472933D01*
X1922700Y-2453413D01*
X1922700Y-2444061D01*
X1923537Y-2439855D01*
X1922474Y-2434516D01*
X1920223Y-2423195D01*
X1910785Y-2409070D01*
X1907219Y-2406688D01*
X1890837Y-2390305D01*
X1882700Y-2378682D01*
X1882700Y-2375512D01*
X1875438Y-2357980D01*
X1869977Y-2352519D01*
X1881136Y-2320279D01*
X1882700Y-2316504D01*
X1882700Y-2315762D01*
X1886451Y-2304925D01*
X1887686Y-2296693D01*
X1885650Y-2288073D01*
X1880470Y-2280888D01*
X1872936Y-2276232D01*
X1801437Y-2249554D01*
X1802700Y-2246504D01*
X1802700Y-2233496D01*
X1797722Y-2221477D01*
X1792700Y-2216455D01*
X1792700Y-2213012D01*
X1789195Y-2204550D01*
X1797722Y-2196023D01*
X1802700Y-2184004D01*
X1802700Y-2170996D01*
X1797722Y-2158977D01*
X1788523Y-2149778D01*
X1776504Y-2144800D01*
X1773270Y-2144800D01*
X1762200Y-2136069D01*
X1762200Y-1953012D01*
X1792300Y-1953012D01*
X1792300Y-1971988D01*
X1797300Y-1984059D01*
X1797300Y-1993650D01*
X1796463Y-1997855D01*
X1797300Y-2002061D01*
X1797300Y-2002061D01*
X1798632Y-2008759D01*
X1794800Y-2018012D01*
X1794800Y-2036988D01*
X1802062Y-2054520D01*
X1815480Y-2067938D01*
X1833012Y-2075200D01*
X1851988Y-2075200D01*
X1858923Y-2072328D01*
X1865000Y-2073536D01*
X1871011Y-2072341D01*
X1877117Y-2071816D01*
X1879276Y-2070697D01*
X1881661Y-2070222D01*
X1886757Y-2066817D01*
X1892197Y-2063996D01*
X1893763Y-2062136D01*
X1895785Y-2060785D01*
X1899190Y-2055689D01*
X1903137Y-2051001D01*
X1903871Y-2048683D01*
X1905222Y-2046661D01*
X1906418Y-2040650D01*
X1908270Y-2034808D01*
X1907700Y-2028170D01*
X1907700Y-2027060D01*
X1908536Y-2022855D01*
X1907475Y-2017519D01*
X1905222Y-2006195D01*
X1895785Y-1992070D01*
X1894753Y-1991381D01*
X1892722Y-1986477D01*
X1884927Y-1978682D01*
X1887700Y-1971988D01*
X1887700Y-1953012D01*
X1880438Y-1935480D01*
X1872458Y-1927500D01*
X1983963Y-1927500D01*
X1987277Y-1944161D01*
X1989113Y-1946907D01*
X1989060Y-1947104D01*
X1991258Y-1963948D01*
X1999735Y-1978669D01*
X2013201Y-1989025D01*
X2029604Y-1993440D01*
X2046448Y-1991242D01*
X2057453Y-1984904D01*
X2068544Y-1975200D01*
X2153441Y-1975200D01*
X2165512Y-1980200D01*
X2184488Y-1980200D01*
X2202020Y-1972938D01*
X2215438Y-1959520D01*
X2222700Y-1941988D01*
X2222700Y-1923012D01*
X2215438Y-1905480D01*
X2202020Y-1892062D01*
X2184488Y-1884800D01*
X2165512Y-1884800D01*
X2158264Y-1887802D01*
X2133914Y-1885239D01*
X2131705Y-1884800D01*
X2129741Y-1884800D01*
X2127788Y-1884594D01*
X2125546Y-1884800D01*
X2023295Y-1884800D01*
X2010839Y-1887277D01*
X1996715Y-1896715D01*
X1987277Y-1910839D01*
X1983963Y-1927500D01*
X1872458Y-1927500D01*
X1867020Y-1922062D01*
X1849488Y-1914800D01*
X1830512Y-1914800D01*
X1812980Y-1922062D01*
X1799562Y-1935480D01*
X1792300Y-1953012D01*
X1762200Y-1953012D01*
X1762200Y-1779474D01*
X1766474Y-1775200D01*
X1887300Y-1775200D01*
X1887300Y-1810000D01*
X1887300Y-1810000D01*
G37*
X1887300Y-1810000D02*
X1890849Y-1822187D01*
X1896970Y-1828588D01*
X1905076Y-1832159D01*
X1927576Y-1837159D01*
X1929233Y-1837464D01*
X1950616Y-1840574D01*
X1960480Y-1850438D01*
X1978012Y-1857700D01*
X1996988Y-1857700D01*
X2008750Y-1852828D01*
X2020512Y-1857700D01*
X2039488Y-1857700D01*
X2046991Y-1854592D01*
X2061393Y-1856687D01*
X2064813Y-1858972D01*
X2073500Y-1860700D01*
X2319626Y-1860700D01*
X2302526Y-1877800D01*
X2302496Y-1877800D01*
X2290477Y-1882778D01*
X2281278Y-1891977D01*
X2276300Y-1903996D01*
X2276300Y-1917004D01*
X2281278Y-1929023D01*
X2290477Y-1938222D01*
X2302496Y-1943200D01*
X2315504Y-1943200D01*
X2327523Y-1938222D01*
X2335871Y-1929874D01*
X2335247Y-1933012D01*
X2334300Y-1937772D01*
X2334300Y-1937772D01*
X2333758Y-1940500D01*
X2334300Y-1943227D01*
X2334300Y-1944955D01*
X2334278Y-1944977D01*
X2329300Y-1956996D01*
X2329300Y-1970004D01*
X2334278Y-1982023D01*
X2343477Y-1991222D01*
X2355496Y-1996200D01*
X2368504Y-1996200D01*
X2380523Y-1991222D01*
X2389722Y-1982023D01*
X2394700Y-1970004D01*
X2394700Y-1957200D01*
X2402488Y-1957200D01*
X2420020Y-1949938D01*
X2433438Y-1936520D01*
X2440700Y-1918988D01*
X2440700Y-1900012D01*
X2436905Y-1890851D01*
X2438971Y-1889470D01*
X2440516Y-1887158D01*
X2452658Y-1875016D01*
X2454971Y-1873471D01*
X2461093Y-1864308D01*
X2462700Y-1856228D01*
X2462700Y-1856228D01*
X2463243Y-1853500D01*
X2462700Y-1850773D01*
X2462700Y-1790973D01*
X2473473Y-1780200D01*
X2481455Y-1780200D01*
X2481477Y-1780222D01*
X2493496Y-1785200D01*
X2506504Y-1785200D01*
X2518523Y-1780222D01*
X2518545Y-1780200D01*
X2525536Y-1780200D01*
X2522300Y-1788012D01*
X2522300Y-1806988D01*
X2524341Y-1811915D01*
X2517278Y-1818977D01*
X2512300Y-1830996D01*
X2512300Y-1844004D01*
X2517278Y-1856023D01*
X2526477Y-1865222D01*
X2538496Y-1870200D01*
X2551504Y-1870200D01*
X2563523Y-1865222D01*
X2572722Y-1856023D01*
X2577205Y-1845200D01*
X2579488Y-1845200D01*
X2597020Y-1837938D01*
X2610438Y-1824520D01*
X2617700Y-1806988D01*
X2617700Y-1795173D01*
X2637685Y-1815158D01*
X2639230Y-1817470D01*
X2648392Y-1823593D01*
X2656472Y-1825200D01*
X2656473Y-1825200D01*
X2659200Y-1825742D01*
X2661928Y-1825200D01*
X2670242Y-1825200D01*
X2682980Y-1837938D01*
X2700512Y-1845200D01*
X2707300Y-1845200D01*
X2707300Y-2162633D01*
X2704746Y-2175474D01*
X2704746Y-2184526D01*
X2707300Y-2197367D01*
X2707300Y-2360941D01*
X2702300Y-2373012D01*
X2702300Y-2391988D01*
X2707300Y-2404059D01*
X2707300Y-2457301D01*
X2606474Y-2457301D01*
X2605200Y-2456027D01*
X2605200Y-2370000D01*
X2603472Y-2361313D01*
X2598551Y-2353949D01*
X2591187Y-2349028D01*
X2582500Y-2347300D01*
X2500566Y-2347300D01*
X2476267Y-2267519D01*
X2482700Y-2251988D01*
X2482700Y-2250158D01*
X2487980Y-2255438D01*
X2505512Y-2262700D01*
X2524488Y-2262700D01*
X2542020Y-2255438D01*
X2555438Y-2242020D01*
X2558340Y-2235014D01*
X2565984Y-2242658D01*
X2567530Y-2244971D01*
X2576692Y-2251093D01*
X2584772Y-2252700D01*
X2584773Y-2252700D01*
X2587500Y-2253243D01*
X2588154Y-2253112D01*
X2600480Y-2265438D01*
X2618012Y-2272700D01*
X2636988Y-2272700D01*
X2654520Y-2265438D01*
X2667938Y-2252020D01*
X2675200Y-2234488D01*
X2675200Y-2215512D01*
X2667938Y-2197980D01*
X2660099Y-2190141D01*
X2660833Y-2189194D01*
X2665833Y-2183141D01*
X2666029Y-2182499D01*
X2666440Y-2181970D01*
X2668511Y-2174407D01*
X2670814Y-2166900D01*
X2670750Y-2166233D01*
X2670927Y-2165586D01*
X2669946Y-2157804D01*
X2669200Y-2149990D01*
X2668886Y-2149398D01*
X2668802Y-2148733D01*
X2664917Y-2141917D01*
X2661239Y-2134984D01*
X2660722Y-2134557D01*
X2660390Y-2133975D01*
X2654192Y-2129165D01*
X2648141Y-2124167D01*
X2643418Y-2122719D01*
X2623994Y-2113007D01*
X2619161Y-2109778D01*
X2612315Y-2108416D01*
X2605586Y-2106573D01*
X2604034Y-2106769D01*
X2602500Y-2106464D01*
X2595656Y-2107825D01*
X2588733Y-2108698D01*
X2587374Y-2109472D01*
X2585839Y-2109778D01*
X2581296Y-2112813D01*
X2579971Y-2110829D01*
X2577658Y-2109284D01*
X2560716Y-2092342D01*
X2559171Y-2090029D01*
X2550008Y-2083907D01*
X2541928Y-2082300D01*
X2541928Y-2082300D01*
X2539200Y-2081757D01*
X2536473Y-2082300D01*
X2532445Y-2082300D01*
X2537722Y-2077023D01*
X2542700Y-2065004D01*
X2542700Y-2051996D01*
X2537722Y-2039977D01*
X2533459Y-2035714D01*
X2541658Y-2027516D01*
X2543971Y-2025970D01*
X2550093Y-2016808D01*
X2551700Y-2008728D01*
X2551700Y-2008727D01*
X2552243Y-2006000D01*
X2551700Y-2003273D01*
X2551700Y-1966045D01*
X2551722Y-1966023D01*
X2556700Y-1954004D01*
X2556700Y-1940996D01*
X2553393Y-1933012D01*
X2569300Y-1933012D01*
X2569300Y-1951988D01*
X2576562Y-1969520D01*
X2577413Y-1970371D01*
X2578824Y-1981814D01*
X2578144Y-1986957D01*
X2577300Y-1988996D01*
X2577300Y-1990441D01*
X2576863Y-1991818D01*
X2577300Y-1996901D01*
X2577300Y-2002004D01*
X2577721Y-2003020D01*
X2577792Y-2004116D01*
X2577947Y-2004430D01*
X2577977Y-2004779D01*
X2578440Y-2005673D01*
X2578300Y-2006012D01*
X2578300Y-2024988D01*
X2585562Y-2042520D01*
X2598980Y-2055938D01*
X2616512Y-2063200D01*
X2635488Y-2063200D01*
X2653020Y-2055938D01*
X2666438Y-2042520D01*
X2673700Y-2024988D01*
X2673700Y-2006012D01*
X2666438Y-1988480D01*
X2665587Y-1987629D01*
X2661997Y-1958513D01*
X2664700Y-1951988D01*
X2664700Y-1933012D01*
X2657438Y-1915480D01*
X2644020Y-1902062D01*
X2626488Y-1894800D01*
X2607512Y-1894800D01*
X2589980Y-1902062D01*
X2576562Y-1915480D01*
X2569300Y-1933012D01*
X2553393Y-1933012D01*
X2551722Y-1928977D01*
X2542523Y-1919778D01*
X2530504Y-1914800D01*
X2517496Y-1914800D01*
X2505477Y-1919778D01*
X2496278Y-1928977D01*
X2491300Y-1940996D01*
X2491300Y-1954004D01*
X2496278Y-1966023D01*
X2496300Y-1966045D01*
X2496300Y-1994526D01*
X2433526Y-2057300D01*
X2433496Y-2057300D01*
X2421477Y-2062278D01*
X2412278Y-2071477D01*
X2407300Y-2083496D01*
X2407300Y-2096504D01*
X2412278Y-2108523D01*
X2421477Y-2117722D01*
X2427051Y-2120030D01*
X2427051Y-2139970D01*
X2421477Y-2142278D01*
X2420000Y-2143755D01*
X2415400Y-2139155D01*
X2413576Y-2136425D01*
X2402759Y-2129197D01*
X2402700Y-2129186D01*
X2402700Y-2115512D01*
X2395438Y-2097980D01*
X2382020Y-2084562D01*
X2364488Y-2077300D01*
X2345512Y-2077300D01*
X2327980Y-2084562D01*
X2315242Y-2097300D01*
X2100000Y-2097300D01*
X2091313Y-2099028D01*
X2083949Y-2103949D01*
X2079028Y-2111313D01*
X2077300Y-2120000D01*
X2077300Y-2172300D01*
X2049705Y-2172300D01*
X2045222Y-2161477D01*
X2036023Y-2152278D01*
X2024004Y-2147300D01*
X2010996Y-2147300D01*
X2007413Y-2148784D01*
X2002938Y-2137980D01*
X1989520Y-2124562D01*
X1971988Y-2117300D01*
X1953012Y-2117300D01*
X1937700Y-2123642D01*
X1937700Y-2110996D01*
X1932722Y-2098977D01*
X1923523Y-2089778D01*
X1911504Y-2084800D01*
X1898496Y-2084800D01*
X1886477Y-2089778D01*
X1877278Y-2098977D01*
X1872300Y-2110996D01*
X1872300Y-2124004D01*
X1872662Y-2124880D01*
X1862062Y-2135480D01*
X1854800Y-2153012D01*
X1854800Y-2171988D01*
X1862062Y-2189520D01*
X1875480Y-2202938D01*
X1893012Y-2210200D01*
X1911988Y-2210200D01*
X1929520Y-2202938D01*
X1931250Y-2201208D01*
X1935480Y-2205438D01*
X1953012Y-2212700D01*
X1971988Y-2212700D01*
X1974663Y-2211592D01*
X1969778Y-2216477D01*
X1964800Y-2228496D01*
X1964800Y-2241504D01*
X1969778Y-2253523D01*
X1974512Y-2258257D01*
X1931965Y-2302505D01*
X1926477Y-2304778D01*
X1917278Y-2313977D01*
X1914511Y-2320657D01*
X1908637Y-2326766D01*
X1904028Y-2333813D01*
X1902300Y-2342500D01*
X1904028Y-2351187D01*
X1908949Y-2358551D01*
X1958949Y-2408551D01*
X1966803Y-2413668D01*
X1975528Y-2415194D01*
X1984172Y-2413264D01*
X1991420Y-2408174D01*
X2059800Y-2336538D01*
X2059800Y-2341826D01*
X2050341Y-2351285D01*
X2048028Y-2352830D01*
X2041906Y-2361993D01*
X2040299Y-2370073D01*
X2040299Y-2370073D01*
X2039756Y-2372801D01*
X2040299Y-2375528D01*
X2040299Y-2423027D01*
X2037342Y-2425984D01*
X2035029Y-2427530D01*
X2028907Y-2436692D01*
X2027300Y-2444772D01*
X2027300Y-2444773D01*
X2026757Y-2447500D01*
X2027300Y-2450228D01*
X2027300Y-2507272D01*
X2026757Y-2510000D01*
X2028907Y-2520808D01*
X2033460Y-2527622D01*
X2035030Y-2529971D01*
X2037342Y-2531516D01*
X2039800Y-2533974D01*
X2039800Y-2551988D01*
X2047062Y-2569520D01*
X2060480Y-2582938D01*
X2078012Y-2590200D01*
X2096988Y-2590200D01*
X2114520Y-2582938D01*
X2127938Y-2569520D01*
X2135200Y-2551988D01*
X2135200Y-2533012D01*
X2129102Y-2518289D01*
X2142020Y-2512938D01*
X2155438Y-2499520D01*
X2162700Y-2481988D01*
X2162700Y-2463012D01*
X2155438Y-2445480D01*
X2150967Y-2441009D01*
X2158785Y-2435785D01*
X2168223Y-2421661D01*
X2171537Y-2405000D01*
X2168223Y-2388339D01*
X2158785Y-2374215D01*
X2153678Y-2370803D01*
X2150438Y-2362980D01*
X2137020Y-2349562D01*
X2119488Y-2342300D01*
X2115200Y-2342300D01*
X2115200Y-2313545D01*
X2115222Y-2313523D01*
X2118669Y-2305200D01*
X2277300Y-2305200D01*
X2277300Y-2368955D01*
X2277278Y-2368977D01*
X2272300Y-2380996D01*
X2272300Y-2394004D01*
X2277278Y-2406023D01*
X2286055Y-2414800D01*
X2274370Y-2414800D01*
X2271642Y-2414258D01*
X2268915Y-2414800D01*
X2268914Y-2414800D01*
X2260834Y-2416407D01*
X2251820Y-2422431D01*
X2251504Y-2422300D01*
X2238496Y-2422300D01*
X2226477Y-2427278D01*
X2217278Y-2436477D01*
X2212300Y-2448496D01*
X2212300Y-2459866D01*
X2206477Y-2462278D01*
X2197278Y-2471477D01*
X2192300Y-2483496D01*
X2192300Y-2496504D01*
X2196855Y-2507500D01*
X2192300Y-2518496D01*
X2192300Y-2531504D01*
X2197278Y-2543523D01*
X2206477Y-2552722D01*
X2218496Y-2557700D01*
X2231504Y-2557700D01*
X2239273Y-2554482D01*
X2234778Y-2558977D01*
X2229800Y-2570996D01*
X2229800Y-2584004D01*
X2234778Y-2596023D01*
X2243977Y-2605222D01*
X2255996Y-2610200D01*
X2269004Y-2610200D01*
X2281023Y-2605222D01*
X2281045Y-2605200D01*
X2352741Y-2605200D01*
X2372341Y-2624800D01*
X1934527Y-2624800D01*
X1928733Y-2603795D01*
X1940000Y-2606037D01*
X1956661Y-2602722D01*
X1970785Y-2593285D01*
X1980222Y-2579161D01*
X1982941Y-2565493D01*
X1983978Y-2562989D01*
X1985803Y-2560259D01*
X1986443Y-2557038D01*
X1987700Y-2554004D01*
X1987700Y-2550721D01*
X1988341Y-2547500D01*
X1987700Y-2544280D01*
X1987700Y-2540996D01*
X1986443Y-2537962D01*
X1985803Y-2534741D01*
X1983978Y-2532011D01*
X1982722Y-2528977D01*
X1980399Y-2526655D01*
X1978575Y-2523925D01*
X1975845Y-2522100D01*
X1973523Y-2519778D01*
X1970489Y-2518522D01*
X1967759Y-2516697D01*
X1964538Y-2516057D01*
X1961504Y-2514800D01*
X1958220Y-2514800D01*
X1957700Y-2514697D01*
X1957700Y-2510305D01*
X1958537Y-2506100D01*
X1956880Y-2497770D01*
X1955223Y-2489439D01*
X1945785Y-2475315D01*
X1942220Y-2472933D01*
X1922700Y-2453413D01*
X1922700Y-2444061D01*
X1923537Y-2439855D01*
X1922474Y-2434516D01*
X1920223Y-2423195D01*
X1910785Y-2409070D01*
X1907219Y-2406688D01*
X1890837Y-2390305D01*
X1882700Y-2378682D01*
X1882700Y-2375512D01*
X1875438Y-2357980D01*
X1869977Y-2352519D01*
X1881136Y-2320279D01*
X1882700Y-2316504D01*
X1882700Y-2315762D01*
X1886451Y-2304925D01*
X1887686Y-2296693D01*
X1885650Y-2288073D01*
X1880470Y-2280888D01*
X1872936Y-2276232D01*
X1801437Y-2249554D01*
X1802700Y-2246504D01*
X1802700Y-2233496D01*
X1797722Y-2221477D01*
X1792700Y-2216455D01*
X1792700Y-2213012D01*
X1789195Y-2204550D01*
X1797722Y-2196023D01*
X1802700Y-2184004D01*
X1802700Y-2170996D01*
X1797722Y-2158977D01*
X1788523Y-2149778D01*
X1776504Y-2144800D01*
X1773270Y-2144800D01*
X1762200Y-2136069D01*
X1762200Y-1953012D01*
X1792300Y-1953012D01*
X1792300Y-1971988D01*
X1797300Y-1984059D01*
X1797300Y-1993650D01*
X1796463Y-1997855D01*
X1797300Y-2002061D01*
X1797300Y-2002061D01*
X1798632Y-2008759D01*
X1794800Y-2018012D01*
X1794800Y-2036988D01*
X1802062Y-2054520D01*
X1815480Y-2067938D01*
X1833012Y-2075200D01*
X1851988Y-2075200D01*
X1858923Y-2072328D01*
X1865000Y-2073536D01*
X1871011Y-2072341D01*
X1877117Y-2071816D01*
X1879276Y-2070697D01*
X1881661Y-2070222D01*
X1886757Y-2066817D01*
X1892197Y-2063996D01*
X1893763Y-2062136D01*
X1895785Y-2060785D01*
X1899190Y-2055689D01*
X1903137Y-2051001D01*
X1903871Y-2048683D01*
X1905222Y-2046661D01*
X1906418Y-2040650D01*
X1908270Y-2034808D01*
X1907700Y-2028170D01*
X1907700Y-2027060D01*
X1908536Y-2022855D01*
X1907475Y-2017519D01*
X1905222Y-2006195D01*
X1895785Y-1992070D01*
X1894753Y-1991381D01*
X1892722Y-1986477D01*
X1884927Y-1978682D01*
X1887700Y-1971988D01*
X1887700Y-1953012D01*
X1880438Y-1935480D01*
X1872458Y-1927500D01*
X1983963Y-1927500D01*
X1987277Y-1944161D01*
X1989113Y-1946907D01*
X1989060Y-1947104D01*
X1991258Y-1963948D01*
X1999735Y-1978669D01*
X2013201Y-1989025D01*
X2029604Y-1993440D01*
X2046448Y-1991242D01*
X2057453Y-1984904D01*
X2068544Y-1975200D01*
X2153441Y-1975200D01*
X2165512Y-1980200D01*
X2184488Y-1980200D01*
X2202020Y-1972938D01*
X2215438Y-1959520D01*
X2222700Y-1941988D01*
X2222700Y-1923012D01*
X2215438Y-1905480D01*
X2202020Y-1892062D01*
X2184488Y-1884800D01*
X2165512Y-1884800D01*
X2158264Y-1887802D01*
X2133914Y-1885239D01*
X2131705Y-1884800D01*
X2129741Y-1884800D01*
X2127788Y-1884594D01*
X2125546Y-1884800D01*
X2023295Y-1884800D01*
X2010839Y-1887277D01*
X1996715Y-1896715D01*
X1987277Y-1910839D01*
X1983963Y-1927500D01*
X1872458Y-1927500D01*
X1867020Y-1922062D01*
X1849488Y-1914800D01*
X1830512Y-1914800D01*
X1812980Y-1922062D01*
X1799562Y-1935480D01*
X1792300Y-1953012D01*
X1762200Y-1953012D01*
X1762200Y-1779474D01*
X1766474Y-1775200D01*
X1887300Y-1775200D01*
X1887300Y-1810000D01*
G04 #@! TO.N,+3V3*
G36*
X2382300Y-1817962D02*
X2381907Y-1818550D01*
X2381412Y-1821038D01*
X2380716Y-1824539D01*
X2380278Y-1824977D01*
X2380145Y-1825300D01*
X2254352Y-1825300D01*
X2243488Y-1820800D01*
X2224512Y-1820800D01*
X2213648Y-1825300D01*
X2086464Y-1825300D01*
X2087442Y-1777700D01*
X2382300Y-1777700D01*
X2382300Y-1817962D01*
X2382300Y-1817962D01*
G37*
X2382300Y-1817962D02*
X2381907Y-1818550D01*
X2381412Y-1821038D01*
X2380716Y-1824539D01*
X2380278Y-1824977D01*
X2380145Y-1825300D01*
X2254352Y-1825300D01*
X2243488Y-1820800D01*
X2224512Y-1820800D01*
X2213648Y-1825300D01*
X2086464Y-1825300D01*
X2087442Y-1777700D01*
X2382300Y-1777700D01*
X2382300Y-1817962D01*
G04 #@! TO.N,+1V2*
G36*
X2197500Y-2133341D02*
X2200721Y-2132700D01*
X2307300Y-2132700D01*
X2307300Y-2134488D01*
X2314562Y-2152020D01*
X2327980Y-2165438D01*
X2345512Y-2172700D01*
X2352055Y-2172700D01*
X2360200Y-2180845D01*
X2362025Y-2183576D01*
X2370537Y-2189263D01*
X2372841Y-2190803D01*
X2372843Y-2190803D01*
X2381020Y-2198980D01*
X2385140Y-2201733D01*
X2390000Y-2202700D01*
X2396780Y-2202700D01*
X2400000Y-2203341D01*
X2403221Y-2202700D01*
X2407300Y-2202700D01*
X2407300Y-2202742D01*
X2394562Y-2215480D01*
X2393808Y-2217300D01*
X2380974Y-2217300D01*
X2361372Y-2197698D01*
X2359827Y-2195386D01*
X2355393Y-2192423D01*
X2353078Y-2186833D01*
X2343879Y-2177635D01*
X2331861Y-2172656D01*
X2318852Y-2172656D01*
X2307641Y-2177300D01*
X2300886Y-2177300D01*
X2295808Y-2173907D01*
X2287728Y-2172300D01*
X2287728Y-2172300D01*
X2285000Y-2171758D01*
X2282273Y-2172300D01*
X2112700Y-2172300D01*
X2112700Y-2132700D01*
X2194280Y-2132700D01*
X2197500Y-2133341D01*
X2197500Y-2133341D01*
G37*
X2197500Y-2133341D02*
X2200721Y-2132700D01*
X2307300Y-2132700D01*
X2307300Y-2134488D01*
X2314562Y-2152020D01*
X2327980Y-2165438D01*
X2345512Y-2172700D01*
X2352055Y-2172700D01*
X2360200Y-2180845D01*
X2362025Y-2183576D01*
X2370537Y-2189263D01*
X2372841Y-2190803D01*
X2372843Y-2190803D01*
X2381020Y-2198980D01*
X2385140Y-2201733D01*
X2390000Y-2202700D01*
X2396780Y-2202700D01*
X2400000Y-2203341D01*
X2403221Y-2202700D01*
X2407300Y-2202700D01*
X2407300Y-2202742D01*
X2394562Y-2215480D01*
X2393808Y-2217300D01*
X2380974Y-2217300D01*
X2361372Y-2197698D01*
X2359827Y-2195386D01*
X2355393Y-2192423D01*
X2353078Y-2186833D01*
X2343879Y-2177635D01*
X2331861Y-2172656D01*
X2318852Y-2172656D01*
X2307641Y-2177300D01*
X2300886Y-2177300D01*
X2295808Y-2173907D01*
X2287728Y-2172300D01*
X2287728Y-2172300D01*
X2285000Y-2171758D01*
X2282273Y-2172300D01*
X2112700Y-2172300D01*
X2112700Y-2132700D01*
X2194280Y-2132700D01*
X2197500Y-2133341D01*
G04 #@! TO.N,+3V3*
G36*
X2277300Y-2231474D02*
X2277300Y-2269800D01*
X2108545Y-2269800D01*
X2106023Y-2267278D01*
X2094004Y-2262300D01*
X2080996Y-2262300D01*
X2068977Y-2267278D01*
X2059778Y-2276477D01*
X2054800Y-2288496D01*
X2054800Y-2290507D01*
X2010564Y-2336850D01*
X1997980Y-2342062D01*
X1984562Y-2355480D01*
X1978262Y-2370690D01*
X1974789Y-2374328D01*
X1942786Y-2342326D01*
X2053003Y-2227700D01*
X2273527Y-2227700D01*
X2277300Y-2231474D01*
X2277300Y-2231474D01*
G37*
X2277300Y-2231474D02*
X2277300Y-2269800D01*
X2108545Y-2269800D01*
X2106023Y-2267278D01*
X2094004Y-2262300D01*
X2080996Y-2262300D01*
X2068977Y-2267278D01*
X2059778Y-2276477D01*
X2054800Y-2288496D01*
X2054800Y-2290507D01*
X2010564Y-2336850D01*
X1997980Y-2342062D01*
X1984562Y-2355480D01*
X1978262Y-2370690D01*
X1974789Y-2374328D01*
X1942786Y-2342326D01*
X2053003Y-2227700D01*
X2273527Y-2227700D01*
X2277300Y-2231474D01*
G04 #@! TO.N,+5V*
G36*
X1717980Y-2262938D02*
X1735512Y-2270200D01*
X1754488Y-2270200D01*
X1754971Y-2270000D01*
X1848942Y-2305064D01*
X1837784Y-2337300D01*
X1825512Y-2337300D01*
X1807980Y-2344562D01*
X1794562Y-2357980D01*
X1787300Y-2375512D01*
X1787300Y-2394488D01*
X1794562Y-2412020D01*
X1807980Y-2425438D01*
X1812494Y-2427308D01*
X1822754Y-2441965D01*
X1824833Y-2445075D01*
X1825163Y-2445405D01*
X1825431Y-2445788D01*
X1828133Y-2448375D01*
X1837300Y-2457542D01*
X1837300Y-2466895D01*
X1836464Y-2471100D01*
X1837300Y-2475305D01*
X1837300Y-2475305D01*
X1839778Y-2487761D01*
X1849215Y-2501885D01*
X1852781Y-2504267D01*
X1869040Y-2520527D01*
X1872300Y-2532345D01*
X1872300Y-2533295D01*
X1871464Y-2537500D01*
X1872300Y-2541705D01*
X1872300Y-2541706D01*
X1874778Y-2554161D01*
X1880808Y-2563186D01*
X1900564Y-2634800D01*
X1753997Y-2634800D01*
X1739297Y-2631876D01*
X1728103Y-2624397D01*
X1720624Y-2613203D01*
X1717700Y-2598503D01*
X1717700Y-2262658D01*
X1717980Y-2262938D01*
X1717980Y-2262938D01*
G37*
X1717980Y-2262938D02*
X1735512Y-2270200D01*
X1754488Y-2270200D01*
X1754971Y-2270000D01*
X1848942Y-2305064D01*
X1837784Y-2337300D01*
X1825512Y-2337300D01*
X1807980Y-2344562D01*
X1794562Y-2357980D01*
X1787300Y-2375512D01*
X1787300Y-2394488D01*
X1794562Y-2412020D01*
X1807980Y-2425438D01*
X1812494Y-2427308D01*
X1822754Y-2441965D01*
X1824833Y-2445075D01*
X1825163Y-2445405D01*
X1825431Y-2445788D01*
X1828133Y-2448375D01*
X1837300Y-2457542D01*
X1837300Y-2466895D01*
X1836464Y-2471100D01*
X1837300Y-2475305D01*
X1837300Y-2475305D01*
X1839778Y-2487761D01*
X1849215Y-2501885D01*
X1852781Y-2504267D01*
X1869040Y-2520527D01*
X1872300Y-2532345D01*
X1872300Y-2533295D01*
X1871464Y-2537500D01*
X1872300Y-2541705D01*
X1872300Y-2541706D01*
X1874778Y-2554161D01*
X1880808Y-2563186D01*
X1900564Y-2634800D01*
X1753997Y-2634800D01*
X1739297Y-2631876D01*
X1728103Y-2624397D01*
X1720624Y-2613203D01*
X1717700Y-2598503D01*
X1717700Y-2262658D01*
X1717980Y-2262938D01*
G04 #@! TO.N,+1V2*
G36*
X2051177Y-1819428D02*
X1949001Y-1804567D01*
X1947722Y-1801477D01*
X1938523Y-1792278D01*
X1928385Y-1788079D01*
X1927722Y-1786477D01*
X1922700Y-1781455D01*
X1922700Y-1775200D01*
X2052086Y-1775200D01*
X2051177Y-1819428D01*
X2051177Y-1819428D01*
G37*
X2051177Y-1819428D02*
X1949001Y-1804567D01*
X1947722Y-1801477D01*
X1938523Y-1792278D01*
X1928385Y-1788079D01*
X1927722Y-1786477D01*
X1922700Y-1781455D01*
X1922700Y-1775200D01*
X2052086Y-1775200D01*
X2051177Y-1819428D01*
G04 #@! TO.N,+3V3*
G36*
X2425512Y-2290200D02*
X2444488Y-2290200D01*
X2445981Y-2289582D01*
X2471601Y-2373700D01*
X2473942Y-2378068D01*
X2477776Y-2381207D01*
X2483750Y-2382700D01*
X2563955Y-2382700D01*
X2569800Y-2388545D01*
X2569800Y-2420627D01*
X2569015Y-2419842D01*
X2567470Y-2417530D01*
X2558307Y-2411407D01*
X2550227Y-2409800D01*
X2550227Y-2409800D01*
X2547499Y-2409258D01*
X2544772Y-2409800D01*
X2455228Y-2409800D01*
X2452500Y-2409258D01*
X2449773Y-2409800D01*
X2449772Y-2409800D01*
X2441692Y-2411407D01*
X2439549Y-2412839D01*
X2434842Y-2415984D01*
X2434842Y-2415984D01*
X2432873Y-2417300D01*
X2407700Y-2417300D01*
X2407700Y-2408227D01*
X2408243Y-2405500D01*
X2407700Y-2402772D01*
X2407700Y-2402772D01*
X2406093Y-2394692D01*
X2402701Y-2389616D01*
X2402701Y-2284200D01*
X2411027Y-2284200D01*
X2425512Y-2290200D01*
X2425512Y-2290200D01*
G37*
X2425512Y-2290200D02*
X2444488Y-2290200D01*
X2445981Y-2289582D01*
X2471601Y-2373700D01*
X2473942Y-2378068D01*
X2477776Y-2381207D01*
X2483750Y-2382700D01*
X2563955Y-2382700D01*
X2569800Y-2388545D01*
X2569800Y-2420627D01*
X2569015Y-2419842D01*
X2567470Y-2417530D01*
X2558307Y-2411407D01*
X2550227Y-2409800D01*
X2550227Y-2409800D01*
X2547499Y-2409258D01*
X2544772Y-2409800D01*
X2455228Y-2409800D01*
X2452500Y-2409258D01*
X2449773Y-2409800D01*
X2449772Y-2409800D01*
X2441692Y-2411407D01*
X2439549Y-2412839D01*
X2434842Y-2415984D01*
X2434842Y-2415984D01*
X2432873Y-2417300D01*
X2407700Y-2417300D01*
X2407700Y-2408227D01*
X2408243Y-2405500D01*
X2407700Y-2402772D01*
X2407700Y-2402772D01*
X2406093Y-2394692D01*
X2402701Y-2389616D01*
X2402701Y-2284200D01*
X2411027Y-2284200D01*
X2425512Y-2290200D01*
G04 #@! TD*
M02*
