G04 #@! TF.GenerationSoftware,KiCad,Pcbnew,(5.0.1)-3*
G04 #@! TF.CreationDate,2019-04-09T12:46:13+08:00*
G04 #@! TF.ProjectId,tomu-fpga,746F6D752D667067612E6B696361645F,rev?*
G04 #@! TF.SameCoordinates,Original*
G04 #@! TF.FileFunction,Soldermask,Bot*
G04 #@! TF.FilePolarity,Negative*
%FSLAX45Y45*%
G04 Gerber Fmt 4.5, Leading zero omitted, Abs format (unit mm)*
G04 Created by KiCad (PCBNEW (5.0.1)-3) date 04/09/19 12:46:13*
%MOMM*%
%LPD*%
G01*
G04 APERTURE LIST*
%ADD10C,0.100000*%
G04 APERTURE END LIST*
D10*
G36*
X3012500Y-2667500D02*
X2827500Y-2667500D01*
X2827500Y-2232500D01*
X3012500Y-2232500D01*
X3012500Y-2667500D01*
X3012500Y-2667500D01*
G37*
G36*
X1933175Y-2595603D02*
X1934063Y-2595873D01*
X1934882Y-2596310D01*
X1935600Y-2596900D01*
X1936190Y-2597618D01*
X1936627Y-2598437D01*
X1936897Y-2599325D01*
X1937000Y-2600373D01*
X1937000Y-2624627D01*
X1936897Y-2625675D01*
X1936627Y-2626563D01*
X1936190Y-2627382D01*
X1935600Y-2628100D01*
X1934882Y-2628690D01*
X1934063Y-2629127D01*
X1933175Y-2629397D01*
X1932127Y-2629500D01*
X1917873Y-2629500D01*
X1916825Y-2629397D01*
X1915937Y-2629127D01*
X1915118Y-2628690D01*
X1914400Y-2628100D01*
X1913810Y-2627382D01*
X1913373Y-2626563D01*
X1913103Y-2625675D01*
X1913000Y-2624627D01*
X1913000Y-2600373D01*
X1913103Y-2599325D01*
X1913373Y-2598437D01*
X1913810Y-2597618D01*
X1914400Y-2596900D01*
X1915118Y-2596310D01*
X1915937Y-2595873D01*
X1916825Y-2595603D01*
X1917873Y-2595500D01*
X1932127Y-2595500D01*
X1933175Y-2595603D01*
X1933175Y-2595603D01*
G37*
G36*
X1893175Y-2595603D02*
X1894063Y-2595873D01*
X1894882Y-2596310D01*
X1895600Y-2596900D01*
X1896190Y-2597618D01*
X1896627Y-2598437D01*
X1896897Y-2599325D01*
X1897000Y-2600373D01*
X1897000Y-2624627D01*
X1896897Y-2625675D01*
X1896627Y-2626563D01*
X1896190Y-2627382D01*
X1895600Y-2628100D01*
X1894882Y-2628690D01*
X1894063Y-2629127D01*
X1893175Y-2629397D01*
X1892127Y-2629500D01*
X1877873Y-2629500D01*
X1876825Y-2629397D01*
X1875937Y-2629127D01*
X1875118Y-2628690D01*
X1874400Y-2628100D01*
X1873810Y-2627382D01*
X1873373Y-2626563D01*
X1873103Y-2625675D01*
X1873000Y-2624627D01*
X1873000Y-2600373D01*
X1873103Y-2599325D01*
X1873373Y-2598437D01*
X1873810Y-2597618D01*
X1874400Y-2596900D01*
X1875118Y-2596310D01*
X1875937Y-2595873D01*
X1876825Y-2595603D01*
X1877873Y-2595500D01*
X1892127Y-2595500D01*
X1893175Y-2595603D01*
X1893175Y-2595603D01*
G37*
G36*
X2054119Y-2560319D02*
X2057118Y-2561229D01*
X2059882Y-2562706D01*
X2062305Y-2564695D01*
X2064294Y-2567118D01*
X2065771Y-2569882D01*
X2066681Y-2572881D01*
X2067000Y-2576123D01*
X2067000Y-2612877D01*
X2066681Y-2616119D01*
X2065771Y-2619119D01*
X2064294Y-2621882D01*
X2062305Y-2624305D01*
X2059882Y-2626294D01*
X2057118Y-2627771D01*
X2054119Y-2628681D01*
X2050877Y-2629000D01*
X2009123Y-2629000D01*
X2005881Y-2628681D01*
X2002881Y-2627771D01*
X2000118Y-2626294D01*
X1997695Y-2624305D01*
X1995706Y-2621882D01*
X1994229Y-2619119D01*
X1993319Y-2616119D01*
X1993000Y-2612877D01*
X1993000Y-2576123D01*
X1993319Y-2572881D01*
X1994229Y-2569882D01*
X1995706Y-2567118D01*
X1997695Y-2564695D01*
X2000118Y-2562706D01*
X2002881Y-2561229D01*
X2005881Y-2560319D01*
X2009123Y-2560000D01*
X2050877Y-2560000D01*
X2054119Y-2560319D01*
X2054119Y-2560319D01*
G37*
G36*
X2432500Y-2585000D02*
X2392500Y-2585000D01*
X2392500Y-2550000D01*
X2432500Y-2550000D01*
X2432500Y-2585000D01*
X2432500Y-2585000D01*
G37*
G36*
X2600943Y-2535228D02*
X2603051Y-2535868D01*
X2604994Y-2536906D01*
X2606696Y-2538304D01*
X2608094Y-2540007D01*
X2609133Y-2541950D01*
X2609772Y-2544057D01*
X2610000Y-2546373D01*
X2610000Y-2573627D01*
X2609772Y-2575943D01*
X2609133Y-2578051D01*
X2608094Y-2579994D01*
X2606696Y-2581696D01*
X2604994Y-2583094D01*
X2603051Y-2584133D01*
X2600943Y-2584772D01*
X2598627Y-2585000D01*
X2565373Y-2585000D01*
X2563057Y-2584772D01*
X2560950Y-2584133D01*
X2559007Y-2583094D01*
X2557304Y-2581696D01*
X2555906Y-2579994D01*
X2554868Y-2578051D01*
X2554228Y-2575943D01*
X2554000Y-2573627D01*
X2554000Y-2546373D01*
X2554228Y-2544057D01*
X2554868Y-2541950D01*
X2555906Y-2540007D01*
X2557304Y-2538304D01*
X2559007Y-2536906D01*
X2560950Y-2535868D01*
X2563057Y-2535228D01*
X2565373Y-2535000D01*
X2598627Y-2535000D01*
X2600943Y-2535228D01*
X2600943Y-2535228D01*
G37*
G36*
X2536943Y-2535228D02*
X2539051Y-2535868D01*
X2540994Y-2536906D01*
X2542696Y-2538304D01*
X2544094Y-2540007D01*
X2545133Y-2541950D01*
X2545772Y-2544057D01*
X2546000Y-2546373D01*
X2546000Y-2573627D01*
X2545772Y-2575943D01*
X2545133Y-2578051D01*
X2544094Y-2579994D01*
X2542696Y-2581696D01*
X2540994Y-2583094D01*
X2539051Y-2584133D01*
X2536943Y-2584772D01*
X2534627Y-2585000D01*
X2501373Y-2585000D01*
X2499057Y-2584772D01*
X2496950Y-2584133D01*
X2495007Y-2583094D01*
X2493304Y-2581696D01*
X2491906Y-2579994D01*
X2490868Y-2578051D01*
X2490228Y-2575943D01*
X2490000Y-2573627D01*
X2490000Y-2546373D01*
X2490228Y-2544057D01*
X2490868Y-2541950D01*
X2491906Y-2540007D01*
X2493304Y-2538304D01*
X2495007Y-2536906D01*
X2496950Y-2535868D01*
X2499057Y-2535228D01*
X2501373Y-2535000D01*
X2534627Y-2535000D01*
X2536943Y-2535228D01*
X2536943Y-2535228D01*
G37*
G36*
X2192500Y-2585000D02*
X2152500Y-2585000D01*
X2152500Y-2550000D01*
X2192500Y-2550000D01*
X2192500Y-2585000D01*
X2192500Y-2585000D01*
G37*
G36*
X2307500Y-2577500D02*
X2277500Y-2577500D01*
X2277500Y-2407500D01*
X2307500Y-2407500D01*
X2307500Y-2577500D01*
X2307500Y-2577500D01*
G37*
G36*
X1960943Y-2519728D02*
X1963050Y-2520368D01*
X1964993Y-2521406D01*
X1966696Y-2522804D01*
X1968094Y-2524507D01*
X1969132Y-2526450D01*
X1969772Y-2528557D01*
X1970000Y-2530873D01*
X1970000Y-2564127D01*
X1969772Y-2566443D01*
X1969132Y-2568551D01*
X1968094Y-2570494D01*
X1966696Y-2572196D01*
X1964993Y-2573594D01*
X1963050Y-2574633D01*
X1960943Y-2575272D01*
X1958627Y-2575500D01*
X1931373Y-2575500D01*
X1929057Y-2575272D01*
X1926949Y-2574633D01*
X1925006Y-2573594D01*
X1923304Y-2572196D01*
X1921906Y-2570494D01*
X1920867Y-2568551D01*
X1920228Y-2566443D01*
X1920000Y-2564127D01*
X1920000Y-2530873D01*
X1920228Y-2528557D01*
X1920867Y-2526450D01*
X1921906Y-2524507D01*
X1923304Y-2522804D01*
X1925006Y-2521406D01*
X1926949Y-2520368D01*
X1929057Y-2519728D01*
X1931373Y-2519500D01*
X1958627Y-2519500D01*
X1960943Y-2519728D01*
X1960943Y-2519728D01*
G37*
G36*
X1890943Y-2519228D02*
X1893050Y-2519868D01*
X1894993Y-2520906D01*
X1896696Y-2522304D01*
X1898094Y-2524007D01*
X1899132Y-2525950D01*
X1899772Y-2528057D01*
X1900000Y-2530373D01*
X1900000Y-2563627D01*
X1899772Y-2565943D01*
X1899132Y-2568051D01*
X1898094Y-2569994D01*
X1896696Y-2571696D01*
X1894993Y-2573094D01*
X1893050Y-2574133D01*
X1890943Y-2574772D01*
X1888627Y-2575000D01*
X1861373Y-2575000D01*
X1859057Y-2574772D01*
X1856949Y-2574133D01*
X1855006Y-2573094D01*
X1853304Y-2571696D01*
X1851906Y-2569994D01*
X1850867Y-2568051D01*
X1850228Y-2565943D01*
X1850000Y-2563627D01*
X1850000Y-2530373D01*
X1850228Y-2528057D01*
X1850867Y-2525950D01*
X1851906Y-2524007D01*
X1853304Y-2522304D01*
X1855006Y-2520906D01*
X1856949Y-2519868D01*
X1859057Y-2519228D01*
X1861373Y-2519000D01*
X1888627Y-2519000D01*
X1890943Y-2519228D01*
X1890943Y-2519228D01*
G37*
G36*
X1820943Y-2519228D02*
X1823050Y-2519868D01*
X1824993Y-2520906D01*
X1826696Y-2522304D01*
X1828094Y-2524007D01*
X1829132Y-2525950D01*
X1829772Y-2528057D01*
X1830000Y-2530373D01*
X1830000Y-2563627D01*
X1829772Y-2565943D01*
X1829132Y-2568051D01*
X1828094Y-2569994D01*
X1826696Y-2571696D01*
X1824993Y-2573094D01*
X1823050Y-2574133D01*
X1820943Y-2574772D01*
X1818627Y-2575000D01*
X1791373Y-2575000D01*
X1789057Y-2574772D01*
X1786949Y-2574133D01*
X1785006Y-2573094D01*
X1783304Y-2571696D01*
X1781906Y-2569994D01*
X1780867Y-2568051D01*
X1780228Y-2565943D01*
X1780000Y-2563627D01*
X1780000Y-2530373D01*
X1780228Y-2528057D01*
X1780867Y-2525950D01*
X1781906Y-2524007D01*
X1783304Y-2522304D01*
X1785006Y-2520906D01*
X1786949Y-2519868D01*
X1789057Y-2519228D01*
X1791373Y-2519000D01*
X1818627Y-2519000D01*
X1820943Y-2519228D01*
X1820943Y-2519228D01*
G37*
G36*
X2704168Y-2481537D02*
X2711447Y-2484553D01*
X2717999Y-2488930D01*
X2723570Y-2494502D01*
X2727948Y-2501053D01*
X2730963Y-2508332D01*
X2732500Y-2516060D01*
X2732500Y-2523940D01*
X2730963Y-2531668D01*
X2727948Y-2538947D01*
X2723570Y-2545499D01*
X2717999Y-2551070D01*
X2711447Y-2555448D01*
X2704168Y-2558463D01*
X2696440Y-2560000D01*
X2688560Y-2560000D01*
X2680832Y-2558463D01*
X2673553Y-2555448D01*
X2667002Y-2551070D01*
X2661430Y-2545499D01*
X2657053Y-2538947D01*
X2654037Y-2531668D01*
X2652500Y-2523940D01*
X2652500Y-2516060D01*
X2654037Y-2508332D01*
X2657053Y-2501053D01*
X2661430Y-2494502D01*
X2667002Y-2488930D01*
X2673553Y-2484553D01*
X2680832Y-2481537D01*
X2688560Y-2480000D01*
X2696440Y-2480000D01*
X2704168Y-2481537D01*
X2704168Y-2481537D01*
G37*
G36*
X2192500Y-2535000D02*
X2152500Y-2535000D01*
X2152500Y-2500000D01*
X2192500Y-2500000D01*
X2192500Y-2535000D01*
X2192500Y-2535000D01*
G37*
G36*
X2432500Y-2535000D02*
X2392500Y-2535000D01*
X2392500Y-2500000D01*
X2432500Y-2500000D01*
X2432500Y-2535000D01*
X2432500Y-2535000D01*
G37*
G36*
X2054119Y-2463319D02*
X2057118Y-2464229D01*
X2059882Y-2465706D01*
X2062305Y-2467695D01*
X2064294Y-2470118D01*
X2065771Y-2472882D01*
X2066681Y-2475881D01*
X2067000Y-2479123D01*
X2067000Y-2515877D01*
X2066681Y-2519119D01*
X2065771Y-2522119D01*
X2064294Y-2524882D01*
X2062305Y-2527305D01*
X2059882Y-2529294D01*
X2057118Y-2530771D01*
X2054119Y-2531681D01*
X2050877Y-2532000D01*
X2009123Y-2532000D01*
X2005881Y-2531681D01*
X2002881Y-2530771D01*
X2000118Y-2529294D01*
X1997695Y-2527305D01*
X1995706Y-2524882D01*
X1994229Y-2522119D01*
X1993319Y-2519119D01*
X1993000Y-2515877D01*
X1993000Y-2479123D01*
X1993319Y-2475881D01*
X1994229Y-2472882D01*
X1995706Y-2470118D01*
X1997695Y-2467695D01*
X2000118Y-2465706D01*
X2002881Y-2464229D01*
X2005881Y-2463319D01*
X2009123Y-2463000D01*
X2050877Y-2463000D01*
X2054119Y-2463319D01*
X2054119Y-2463319D01*
G37*
G36*
X2536943Y-2465228D02*
X2539051Y-2465868D01*
X2540994Y-2466906D01*
X2542696Y-2468304D01*
X2544094Y-2470007D01*
X2545133Y-2471950D01*
X2545772Y-2474057D01*
X2546000Y-2476373D01*
X2546000Y-2503627D01*
X2545772Y-2505943D01*
X2545133Y-2508051D01*
X2544094Y-2509994D01*
X2542696Y-2511696D01*
X2540994Y-2513094D01*
X2539051Y-2514133D01*
X2536943Y-2514772D01*
X2534627Y-2515000D01*
X2501373Y-2515000D01*
X2499057Y-2514772D01*
X2496950Y-2514133D01*
X2495007Y-2513094D01*
X2493304Y-2511696D01*
X2491906Y-2509994D01*
X2490868Y-2508051D01*
X2490228Y-2505943D01*
X2490000Y-2503627D01*
X2490000Y-2476373D01*
X2490228Y-2474057D01*
X2490868Y-2471950D01*
X2491906Y-2470007D01*
X2493304Y-2468304D01*
X2495007Y-2466906D01*
X2496950Y-2465868D01*
X2499057Y-2465228D01*
X2501373Y-2465000D01*
X2534627Y-2465000D01*
X2536943Y-2465228D01*
X2536943Y-2465228D01*
G37*
G36*
X2600943Y-2465228D02*
X2603051Y-2465868D01*
X2604994Y-2466906D01*
X2606696Y-2468304D01*
X2608094Y-2470007D01*
X2609133Y-2471950D01*
X2609772Y-2474057D01*
X2610000Y-2476373D01*
X2610000Y-2503627D01*
X2609772Y-2505943D01*
X2609133Y-2508051D01*
X2608094Y-2509994D01*
X2606696Y-2511696D01*
X2604994Y-2513094D01*
X2603051Y-2514133D01*
X2600943Y-2514772D01*
X2598627Y-2515000D01*
X2565373Y-2515000D01*
X2563057Y-2514772D01*
X2560950Y-2514133D01*
X2559007Y-2513094D01*
X2557304Y-2511696D01*
X2555906Y-2509994D01*
X2554868Y-2508051D01*
X2554228Y-2505943D01*
X2554000Y-2503627D01*
X2554000Y-2476373D01*
X2554228Y-2474057D01*
X2554868Y-2471950D01*
X2555906Y-2470007D01*
X2557304Y-2468304D01*
X2559007Y-2466906D01*
X2560950Y-2465868D01*
X2563057Y-2465228D01*
X2565373Y-2465000D01*
X2598627Y-2465000D01*
X2600943Y-2465228D01*
X2600943Y-2465228D01*
G37*
G36*
X1960943Y-2455728D02*
X1963050Y-2456368D01*
X1964993Y-2457406D01*
X1966696Y-2458804D01*
X1968094Y-2460507D01*
X1969132Y-2462450D01*
X1969772Y-2464557D01*
X1970000Y-2466873D01*
X1970000Y-2500127D01*
X1969772Y-2502443D01*
X1969132Y-2504551D01*
X1968094Y-2506494D01*
X1966696Y-2508196D01*
X1964993Y-2509594D01*
X1963050Y-2510633D01*
X1960943Y-2511272D01*
X1958627Y-2511500D01*
X1931373Y-2511500D01*
X1929057Y-2511272D01*
X1926949Y-2510633D01*
X1925006Y-2509594D01*
X1923304Y-2508196D01*
X1921906Y-2506494D01*
X1920867Y-2504551D01*
X1920228Y-2502443D01*
X1920000Y-2500127D01*
X1920000Y-2466873D01*
X1920228Y-2464557D01*
X1920867Y-2462450D01*
X1921906Y-2460507D01*
X1923304Y-2458804D01*
X1925006Y-2457406D01*
X1926949Y-2456368D01*
X1929057Y-2455728D01*
X1931373Y-2455500D01*
X1958627Y-2455500D01*
X1960943Y-2455728D01*
X1960943Y-2455728D01*
G37*
G36*
X1890943Y-2455228D02*
X1893050Y-2455868D01*
X1894993Y-2456906D01*
X1896696Y-2458304D01*
X1898094Y-2460007D01*
X1899132Y-2461950D01*
X1899772Y-2464057D01*
X1900000Y-2466373D01*
X1900000Y-2499627D01*
X1899772Y-2501943D01*
X1899132Y-2504051D01*
X1898094Y-2505994D01*
X1896696Y-2507696D01*
X1894993Y-2509094D01*
X1893050Y-2510133D01*
X1890943Y-2510772D01*
X1888627Y-2511000D01*
X1861373Y-2511000D01*
X1859057Y-2510772D01*
X1856949Y-2510133D01*
X1855006Y-2509094D01*
X1853304Y-2507696D01*
X1851906Y-2505994D01*
X1850867Y-2504051D01*
X1850228Y-2501943D01*
X1850000Y-2499627D01*
X1850000Y-2466373D01*
X1850228Y-2464057D01*
X1850867Y-2461950D01*
X1851906Y-2460007D01*
X1853304Y-2458304D01*
X1855006Y-2456906D01*
X1856949Y-2455868D01*
X1859057Y-2455228D01*
X1861373Y-2455000D01*
X1888627Y-2455000D01*
X1890943Y-2455228D01*
X1890943Y-2455228D01*
G37*
G36*
X1820943Y-2455228D02*
X1823050Y-2455868D01*
X1824993Y-2456906D01*
X1826696Y-2458304D01*
X1828094Y-2460007D01*
X1829132Y-2461950D01*
X1829772Y-2464057D01*
X1830000Y-2466373D01*
X1830000Y-2499627D01*
X1829772Y-2501943D01*
X1829132Y-2504051D01*
X1828094Y-2505994D01*
X1826696Y-2507696D01*
X1824993Y-2509094D01*
X1823050Y-2510133D01*
X1820943Y-2510772D01*
X1818627Y-2511000D01*
X1791373Y-2511000D01*
X1789057Y-2510772D01*
X1786949Y-2510133D01*
X1785006Y-2509094D01*
X1783304Y-2507696D01*
X1781906Y-2505994D01*
X1780867Y-2504051D01*
X1780228Y-2501943D01*
X1780000Y-2499627D01*
X1780000Y-2466373D01*
X1780228Y-2464057D01*
X1780867Y-2461950D01*
X1781906Y-2460007D01*
X1783304Y-2458304D01*
X1785006Y-2456906D01*
X1786949Y-2455868D01*
X1789057Y-2455228D01*
X1791373Y-2455000D01*
X1818627Y-2455000D01*
X1820943Y-2455228D01*
X1820943Y-2455228D01*
G37*
G36*
X2192500Y-2485000D02*
X2152500Y-2485000D01*
X2152500Y-2450000D01*
X2192500Y-2450000D01*
X2192500Y-2485000D01*
X2192500Y-2485000D01*
G37*
G36*
X2432500Y-2485000D02*
X2392500Y-2485000D01*
X2392500Y-2450000D01*
X2432500Y-2450000D01*
X2432500Y-2485000D01*
X2432500Y-2485000D01*
G37*
G36*
X2689364Y-2415146D02*
X2690674Y-2415544D01*
X2691882Y-2416190D01*
X2692941Y-2417059D01*
X2693810Y-2418118D01*
X2694456Y-2419326D01*
X2694854Y-2420636D01*
X2695012Y-2422245D01*
X2695108Y-2422726D01*
X2695295Y-2423178D01*
X2695567Y-2423586D01*
X2695914Y-2423933D01*
X2696322Y-2424205D01*
X2696774Y-2424392D01*
X2697255Y-2424488D01*
X2697745Y-2424488D01*
X2698226Y-2424392D01*
X2698678Y-2424205D01*
X2699086Y-2423933D01*
X2699433Y-2423586D01*
X2699705Y-2423179D01*
X2699892Y-2422726D01*
X2699988Y-2422245D01*
X2700146Y-2420636D01*
X2700544Y-2419326D01*
X2701190Y-2418118D01*
X2702059Y-2417059D01*
X2703118Y-2416190D01*
X2704326Y-2415544D01*
X2705636Y-2415146D01*
X2707123Y-2415000D01*
X2725877Y-2415000D01*
X2727364Y-2415146D01*
X2728674Y-2415544D01*
X2729882Y-2416190D01*
X2730941Y-2417059D01*
X2731810Y-2418118D01*
X2732456Y-2419326D01*
X2732854Y-2420636D01*
X2733000Y-2422123D01*
X2733000Y-2447877D01*
X2732854Y-2449364D01*
X2732456Y-2450674D01*
X2731810Y-2451882D01*
X2730941Y-2452941D01*
X2729882Y-2453810D01*
X2728674Y-2454456D01*
X2727364Y-2454854D01*
X2725877Y-2455000D01*
X2707123Y-2455000D01*
X2705636Y-2454854D01*
X2704326Y-2454456D01*
X2703118Y-2453810D01*
X2702059Y-2452941D01*
X2701190Y-2451882D01*
X2700544Y-2450674D01*
X2700146Y-2449364D01*
X2699988Y-2447755D01*
X2699892Y-2447274D01*
X2699705Y-2446822D01*
X2699433Y-2446414D01*
X2699086Y-2446068D01*
X2698679Y-2445795D01*
X2698226Y-2445608D01*
X2697745Y-2445512D01*
X2697255Y-2445512D01*
X2696774Y-2445608D01*
X2696322Y-2445795D01*
X2695914Y-2446067D01*
X2695568Y-2446414D01*
X2695295Y-2446822D01*
X2695108Y-2447274D01*
X2695012Y-2447755D01*
X2694854Y-2449364D01*
X2694456Y-2450674D01*
X2693810Y-2451882D01*
X2692941Y-2452941D01*
X2691882Y-2453810D01*
X2690674Y-2454456D01*
X2689364Y-2454854D01*
X2687877Y-2455000D01*
X2669123Y-2455000D01*
X2667636Y-2454854D01*
X2666326Y-2454456D01*
X2665118Y-2453810D01*
X2664059Y-2452941D01*
X2663190Y-2451882D01*
X2662544Y-2450674D01*
X2662146Y-2449364D01*
X2662000Y-2447877D01*
X2662000Y-2422123D01*
X2662146Y-2420636D01*
X2662544Y-2419326D01*
X2663190Y-2418118D01*
X2664059Y-2417059D01*
X2665118Y-2416190D01*
X2666326Y-2415544D01*
X2667636Y-2415146D01*
X2669123Y-2415000D01*
X2687877Y-2415000D01*
X2689364Y-2415146D01*
X2689364Y-2415146D01*
G37*
G36*
X2600943Y-2395228D02*
X2603051Y-2395868D01*
X2604994Y-2396906D01*
X2606696Y-2398304D01*
X2608094Y-2400007D01*
X2609133Y-2401950D01*
X2609772Y-2404057D01*
X2610000Y-2406373D01*
X2610000Y-2433627D01*
X2609772Y-2435943D01*
X2609133Y-2438051D01*
X2608094Y-2439994D01*
X2606696Y-2441696D01*
X2604994Y-2443094D01*
X2603051Y-2444133D01*
X2600943Y-2444772D01*
X2598627Y-2445000D01*
X2565373Y-2445000D01*
X2563057Y-2444772D01*
X2560950Y-2444133D01*
X2559007Y-2443094D01*
X2557304Y-2441696D01*
X2555906Y-2439994D01*
X2554868Y-2438051D01*
X2554228Y-2435943D01*
X2554000Y-2433627D01*
X2554000Y-2406373D01*
X2554228Y-2404057D01*
X2554868Y-2401950D01*
X2555906Y-2400007D01*
X2557304Y-2398304D01*
X2559007Y-2396906D01*
X2560950Y-2395868D01*
X2563057Y-2395228D01*
X2565373Y-2395000D01*
X2598627Y-2395000D01*
X2600943Y-2395228D01*
X2600943Y-2395228D01*
G37*
G36*
X2536943Y-2395228D02*
X2539051Y-2395868D01*
X2540994Y-2396906D01*
X2542696Y-2398304D01*
X2544094Y-2400007D01*
X2545133Y-2401950D01*
X2545772Y-2404057D01*
X2546000Y-2406373D01*
X2546000Y-2433627D01*
X2545772Y-2435943D01*
X2545133Y-2438051D01*
X2544094Y-2439994D01*
X2542696Y-2441696D01*
X2540994Y-2443094D01*
X2539051Y-2444133D01*
X2536943Y-2444772D01*
X2534627Y-2445000D01*
X2501373Y-2445000D01*
X2499057Y-2444772D01*
X2496950Y-2444133D01*
X2495007Y-2443094D01*
X2493304Y-2441696D01*
X2491906Y-2439994D01*
X2490868Y-2438051D01*
X2490228Y-2435943D01*
X2490000Y-2433627D01*
X2490000Y-2406373D01*
X2490228Y-2404057D01*
X2490868Y-2401950D01*
X2491906Y-2400007D01*
X2493304Y-2398304D01*
X2495007Y-2396906D01*
X2496950Y-2395868D01*
X2499057Y-2395228D01*
X2501373Y-2395000D01*
X2534627Y-2395000D01*
X2536943Y-2395228D01*
X2536943Y-2395228D01*
G37*
G36*
X2192500Y-2435000D02*
X2152500Y-2435000D01*
X2152500Y-2400000D01*
X2192500Y-2400000D01*
X2192500Y-2435000D01*
X2192500Y-2435000D01*
G37*
G36*
X2432500Y-2435000D02*
X2392500Y-2435000D01*
X2392500Y-2400000D01*
X2432500Y-2400000D01*
X2432500Y-2435000D01*
X2432500Y-2435000D01*
G37*
G36*
X2030943Y-2363728D02*
X2033050Y-2364368D01*
X2034993Y-2365406D01*
X2036696Y-2366804D01*
X2038094Y-2368507D01*
X2039132Y-2370450D01*
X2039772Y-2372557D01*
X2040000Y-2374873D01*
X2040000Y-2408127D01*
X2039772Y-2410443D01*
X2039132Y-2412551D01*
X2038094Y-2414494D01*
X2036696Y-2416196D01*
X2034993Y-2417594D01*
X2033050Y-2418633D01*
X2030943Y-2419272D01*
X2028627Y-2419500D01*
X2001373Y-2419500D01*
X1999057Y-2419272D01*
X1996949Y-2418633D01*
X1995006Y-2417594D01*
X1993304Y-2416196D01*
X1991906Y-2414494D01*
X1990867Y-2412551D01*
X1990228Y-2410443D01*
X1990000Y-2408127D01*
X1990000Y-2374873D01*
X1990228Y-2372557D01*
X1990867Y-2370450D01*
X1991906Y-2368507D01*
X1993304Y-2366804D01*
X1995006Y-2365406D01*
X1996949Y-2364368D01*
X1999057Y-2363728D01*
X2001373Y-2363500D01*
X2028627Y-2363500D01*
X2030943Y-2363728D01*
X2030943Y-2363728D01*
G37*
G36*
X1951000Y-2392000D02*
X1951000Y-2392000D01*
X1951000Y-2392000D01*
X1951000Y-2392000D01*
X1951012Y-2392122D01*
X1951012Y-2412878D01*
X1951000Y-2413000D01*
X1951000Y-2413000D01*
X1951000Y-2413000D01*
X1951000Y-2413000D01*
X1951000Y-2413000D01*
X1950878Y-2413012D01*
X1915122Y-2413012D01*
X1915000Y-2413000D01*
X1915000Y-2413000D01*
X1915000Y-2413000D01*
X1915000Y-2413000D01*
X1915000Y-2413000D01*
X1914988Y-2412878D01*
X1914988Y-2410122D01*
X1915000Y-2410000D01*
X1915000Y-2410000D01*
X1915000Y-2410000D01*
X1915078Y-2409905D01*
X1932905Y-2392078D01*
X1932999Y-2392001D01*
X1933000Y-2392000D01*
X1933000Y-2392000D01*
X1933000Y-2392000D01*
X1933122Y-2391988D01*
X1950878Y-2391988D01*
X1951000Y-2392000D01*
X1951000Y-2392000D01*
G37*
G36*
X1847000Y-2392000D02*
X1847000Y-2392000D01*
X1847000Y-2392000D01*
X1847000Y-2392001D01*
X1847095Y-2392078D01*
X1864922Y-2409905D01*
X1864999Y-2410000D01*
X1865000Y-2410000D01*
X1865000Y-2410000D01*
X1865012Y-2410122D01*
X1865012Y-2412878D01*
X1865000Y-2413000D01*
X1865000Y-2413000D01*
X1865000Y-2413000D01*
X1865000Y-2413000D01*
X1865000Y-2413000D01*
X1864878Y-2413012D01*
X1829122Y-2413012D01*
X1829000Y-2413000D01*
X1829000Y-2413000D01*
X1829000Y-2413000D01*
X1829000Y-2413000D01*
X1829000Y-2413000D01*
X1828988Y-2412878D01*
X1828988Y-2392122D01*
X1829000Y-2392000D01*
X1829000Y-2392000D01*
X1829000Y-2392000D01*
X1829000Y-2392000D01*
X1829122Y-2391988D01*
X1846878Y-2391988D01*
X1847000Y-2392000D01*
X1847000Y-2392000D01*
G37*
G36*
X1923941Y-2370000D02*
X1890000Y-2403941D01*
X1856059Y-2370000D01*
X1890000Y-2336059D01*
X1923941Y-2370000D01*
X1923941Y-2370000D01*
G37*
G36*
X2621668Y-2291537D02*
X2628947Y-2294553D01*
X2635499Y-2298930D01*
X2641070Y-2304502D01*
X2645448Y-2311053D01*
X2648463Y-2318332D01*
X2650000Y-2326060D01*
X2650000Y-2333940D01*
X2648463Y-2341668D01*
X2645448Y-2348947D01*
X2641070Y-2355499D01*
X2635499Y-2361070D01*
X2628947Y-2365448D01*
X2621668Y-2368463D01*
X2613940Y-2370000D01*
X2606060Y-2370000D01*
X2598332Y-2368463D01*
X2591053Y-2365448D01*
X2584502Y-2361070D01*
X2578930Y-2355499D01*
X2574553Y-2348947D01*
X2571537Y-2341668D01*
X2570000Y-2333940D01*
X2570000Y-2326060D01*
X2571537Y-2318332D01*
X2574553Y-2311053D01*
X2578930Y-2304502D01*
X2584502Y-2298930D01*
X2591053Y-2294553D01*
X2598332Y-2291537D01*
X2606060Y-2290000D01*
X2613940Y-2290000D01*
X2621668Y-2291537D01*
X2621668Y-2291537D01*
G37*
G36*
X2030943Y-2299728D02*
X2033050Y-2300368D01*
X2034993Y-2301406D01*
X2036696Y-2302804D01*
X2038094Y-2304507D01*
X2039132Y-2306450D01*
X2039772Y-2308557D01*
X2040000Y-2310873D01*
X2040000Y-2344127D01*
X2039772Y-2346443D01*
X2039132Y-2348551D01*
X2038094Y-2350494D01*
X2036696Y-2352196D01*
X2034993Y-2353594D01*
X2033050Y-2354633D01*
X2030943Y-2355272D01*
X2028627Y-2355500D01*
X2001373Y-2355500D01*
X1999057Y-2355272D01*
X1996949Y-2354633D01*
X1995006Y-2353594D01*
X1993304Y-2352196D01*
X1991906Y-2350494D01*
X1990867Y-2348551D01*
X1990228Y-2346443D01*
X1990000Y-2344127D01*
X1990000Y-2310873D01*
X1990228Y-2308557D01*
X1990867Y-2306450D01*
X1991906Y-2304507D01*
X1993304Y-2302804D01*
X1995006Y-2301406D01*
X1996949Y-2300368D01*
X1999057Y-2299728D01*
X2001373Y-2299500D01*
X2028627Y-2299500D01*
X2030943Y-2299728D01*
X2030943Y-2299728D01*
G37*
G36*
X2704364Y-2282146D02*
X2705674Y-2282544D01*
X2706882Y-2283190D01*
X2707941Y-2284059D01*
X2708810Y-2285118D01*
X2709456Y-2286326D01*
X2709854Y-2287636D01*
X2710000Y-2289123D01*
X2710000Y-2307877D01*
X2709854Y-2309364D01*
X2709456Y-2310674D01*
X2708810Y-2311882D01*
X2707941Y-2312941D01*
X2706882Y-2313810D01*
X2705674Y-2314456D01*
X2704364Y-2314854D01*
X2702755Y-2315012D01*
X2702274Y-2315108D01*
X2701822Y-2315295D01*
X2701414Y-2315567D01*
X2701068Y-2315914D01*
X2700795Y-2316322D01*
X2700608Y-2316774D01*
X2700512Y-2317255D01*
X2700512Y-2317745D01*
X2700608Y-2318226D01*
X2700795Y-2318678D01*
X2701067Y-2319086D01*
X2701414Y-2319433D01*
X2701822Y-2319705D01*
X2702274Y-2319892D01*
X2702755Y-2319988D01*
X2704364Y-2320146D01*
X2705674Y-2320544D01*
X2706882Y-2321190D01*
X2707941Y-2322059D01*
X2708810Y-2323118D01*
X2709456Y-2324326D01*
X2709854Y-2325636D01*
X2710000Y-2327123D01*
X2710000Y-2345877D01*
X2709854Y-2347364D01*
X2709456Y-2348674D01*
X2708810Y-2349882D01*
X2707941Y-2350941D01*
X2706882Y-2351810D01*
X2705674Y-2352456D01*
X2704364Y-2352854D01*
X2702877Y-2353000D01*
X2677123Y-2353000D01*
X2675636Y-2352854D01*
X2674326Y-2352456D01*
X2673118Y-2351810D01*
X2672059Y-2350941D01*
X2671190Y-2349882D01*
X2670544Y-2348674D01*
X2670146Y-2347364D01*
X2670000Y-2345877D01*
X2670000Y-2327123D01*
X2670146Y-2325636D01*
X2670544Y-2324326D01*
X2671190Y-2323118D01*
X2672059Y-2322059D01*
X2673118Y-2321190D01*
X2674326Y-2320544D01*
X2675636Y-2320146D01*
X2677245Y-2319988D01*
X2677726Y-2319892D01*
X2678178Y-2319705D01*
X2678586Y-2319433D01*
X2678933Y-2319086D01*
X2679205Y-2318679D01*
X2679392Y-2318226D01*
X2679488Y-2317745D01*
X2679488Y-2317255D01*
X2679392Y-2316774D01*
X2679205Y-2316322D01*
X2678933Y-2315914D01*
X2678586Y-2315568D01*
X2678179Y-2315295D01*
X2677726Y-2315108D01*
X2677245Y-2315012D01*
X2675636Y-2314854D01*
X2674326Y-2314456D01*
X2673118Y-2313810D01*
X2672059Y-2312941D01*
X2671190Y-2311882D01*
X2670544Y-2310674D01*
X2670146Y-2309364D01*
X2670000Y-2307877D01*
X2670000Y-2289123D01*
X2670146Y-2287636D01*
X2670544Y-2286326D01*
X2671190Y-2285118D01*
X2672059Y-2284059D01*
X2673118Y-2283190D01*
X2674326Y-2282544D01*
X2675636Y-2282146D01*
X2677123Y-2282000D01*
X2702877Y-2282000D01*
X2704364Y-2282146D01*
X2704364Y-2282146D01*
G37*
G36*
X1865000Y-2327000D02*
X1865000Y-2327000D01*
X1865000Y-2327000D01*
X1865000Y-2327000D01*
X1865012Y-2327122D01*
X1865012Y-2329878D01*
X1865000Y-2330000D01*
X1865000Y-2330000D01*
X1865000Y-2330000D01*
X1864999Y-2330001D01*
X1864922Y-2330095D01*
X1847095Y-2347922D01*
X1847000Y-2348000D01*
X1847000Y-2348000D01*
X1847000Y-2348000D01*
X1847000Y-2348000D01*
X1846878Y-2348012D01*
X1829122Y-2348012D01*
X1829000Y-2348000D01*
X1829000Y-2348000D01*
X1829000Y-2348000D01*
X1829000Y-2348000D01*
X1829000Y-2348000D01*
X1828988Y-2347878D01*
X1828988Y-2327122D01*
X1829000Y-2327000D01*
X1829000Y-2327000D01*
X1829000Y-2327000D01*
X1829000Y-2327000D01*
X1829122Y-2326988D01*
X1864878Y-2326988D01*
X1865000Y-2327000D01*
X1865000Y-2327000D01*
G37*
G36*
X1951000Y-2327000D02*
X1951000Y-2327000D01*
X1951000Y-2327000D01*
X1951000Y-2327000D01*
X1951012Y-2327122D01*
X1951012Y-2347878D01*
X1951000Y-2348000D01*
X1951000Y-2348000D01*
X1951000Y-2348000D01*
X1951000Y-2348000D01*
X1951000Y-2348000D01*
X1950878Y-2348012D01*
X1933122Y-2348012D01*
X1933000Y-2348000D01*
X1933000Y-2348000D01*
X1933000Y-2348000D01*
X1932999Y-2348000D01*
X1932905Y-2347922D01*
X1915078Y-2330095D01*
X1915000Y-2330001D01*
X1915000Y-2330000D01*
X1915000Y-2330000D01*
X1915000Y-2330000D01*
X1914988Y-2329878D01*
X1914988Y-2327122D01*
X1915000Y-2327000D01*
X1915000Y-2327000D01*
X1915000Y-2327000D01*
X1915000Y-2327000D01*
X1915122Y-2326988D01*
X1950878Y-2326988D01*
X1951000Y-2327000D01*
X1951000Y-2327000D01*
G37*
G36*
X2225943Y-2266728D02*
X2228051Y-2267368D01*
X2229994Y-2268406D01*
X2231696Y-2269804D01*
X2233094Y-2271507D01*
X2234133Y-2273450D01*
X2234772Y-2275557D01*
X2235000Y-2277873D01*
X2235000Y-2311127D01*
X2234772Y-2313443D01*
X2234133Y-2315551D01*
X2233094Y-2317494D01*
X2231696Y-2319196D01*
X2229994Y-2320594D01*
X2228051Y-2321633D01*
X2225943Y-2322272D01*
X2223627Y-2322500D01*
X2196373Y-2322500D01*
X2194057Y-2322272D01*
X2191950Y-2321633D01*
X2190007Y-2320594D01*
X2188304Y-2319196D01*
X2186906Y-2317494D01*
X2185868Y-2315551D01*
X2185228Y-2313443D01*
X2185000Y-2311127D01*
X2185000Y-2277873D01*
X2185228Y-2275557D01*
X2185868Y-2273450D01*
X2186906Y-2271507D01*
X2188304Y-2269804D01*
X2190007Y-2268406D01*
X2191950Y-2267368D01*
X2194057Y-2266728D01*
X2196373Y-2266500D01*
X2223627Y-2266500D01*
X2225943Y-2266728D01*
X2225943Y-2266728D01*
G37*
G36*
X2295943Y-2266728D02*
X2298051Y-2267368D01*
X2299994Y-2268406D01*
X2301696Y-2269804D01*
X2303094Y-2271507D01*
X2304133Y-2273450D01*
X2304772Y-2275557D01*
X2305000Y-2277873D01*
X2305000Y-2311127D01*
X2304772Y-2313443D01*
X2304133Y-2315551D01*
X2303094Y-2317494D01*
X2301696Y-2319196D01*
X2299994Y-2320594D01*
X2298051Y-2321633D01*
X2295943Y-2322272D01*
X2293627Y-2322500D01*
X2266373Y-2322500D01*
X2264057Y-2322272D01*
X2261950Y-2321633D01*
X2260007Y-2320594D01*
X2258304Y-2319196D01*
X2256906Y-2317494D01*
X2255868Y-2315551D01*
X2255228Y-2313443D01*
X2255000Y-2311127D01*
X2255000Y-2277873D01*
X2255228Y-2275557D01*
X2255868Y-2273450D01*
X2256906Y-2271507D01*
X2258304Y-2269804D01*
X2260007Y-2268406D01*
X2261950Y-2267368D01*
X2264057Y-2266728D01*
X2266373Y-2266500D01*
X2293627Y-2266500D01*
X2295943Y-2266728D01*
X2295943Y-2266728D01*
G37*
G36*
X2444813Y-2274134D02*
X2446572Y-2274863D01*
X2447816Y-2275378D01*
X2448506Y-2275839D01*
X2450518Y-2277184D01*
X2452816Y-2279482D01*
X2452817Y-2279482D01*
X2454622Y-2282184D01*
X2454622Y-2282184D01*
X2455866Y-2285187D01*
X2456500Y-2288375D01*
X2456500Y-2291625D01*
X2455866Y-2294813D01*
X2455137Y-2296572D01*
X2454622Y-2297816D01*
X2453497Y-2299500D01*
X2452816Y-2300518D01*
X2450518Y-2302816D01*
X2450002Y-2303161D01*
X2447816Y-2304622D01*
X2446903Y-2305000D01*
X2444813Y-2305866D01*
X2441625Y-2306500D01*
X2438375Y-2306500D01*
X2435187Y-2305866D01*
X2433097Y-2305000D01*
X2432184Y-2304622D01*
X2429998Y-2303161D01*
X2429482Y-2302816D01*
X2427184Y-2300518D01*
X2426503Y-2299500D01*
X2425378Y-2297816D01*
X2424863Y-2296572D01*
X2424134Y-2294813D01*
X2423500Y-2291625D01*
X2423500Y-2288375D01*
X2424134Y-2285187D01*
X2425378Y-2282184D01*
X2425378Y-2282184D01*
X2427184Y-2279482D01*
X2427184Y-2279482D01*
X2429482Y-2277184D01*
X2431495Y-2275839D01*
X2432184Y-2275378D01*
X2433428Y-2274863D01*
X2435187Y-2274134D01*
X2438375Y-2273500D01*
X2441625Y-2273500D01*
X2444813Y-2274134D01*
X2444813Y-2274134D01*
G37*
G36*
X2524375Y-2275576D02*
X2527105Y-2276707D01*
X2529562Y-2278349D01*
X2531651Y-2280438D01*
X2533293Y-2282895D01*
X2534424Y-2285625D01*
X2535000Y-2288523D01*
X2535000Y-2291477D01*
X2534424Y-2294375D01*
X2533293Y-2297105D01*
X2531651Y-2299562D01*
X2529562Y-2301651D01*
X2527105Y-2303293D01*
X2524375Y-2304424D01*
X2521477Y-2305000D01*
X2518523Y-2305000D01*
X2515625Y-2304424D01*
X2512895Y-2303293D01*
X2510438Y-2301651D01*
X2508349Y-2299562D01*
X2506707Y-2297105D01*
X2505576Y-2294375D01*
X2505000Y-2291477D01*
X2505000Y-2288523D01*
X2505576Y-2285625D01*
X2506707Y-2282895D01*
X2508349Y-2280438D01*
X2510438Y-2278349D01*
X2512895Y-2276707D01*
X2515625Y-2275576D01*
X2518523Y-2275000D01*
X2521477Y-2275000D01*
X2524375Y-2275576D01*
X2524375Y-2275576D01*
G37*
G36*
X2484375Y-2275576D02*
X2487105Y-2276707D01*
X2489562Y-2278349D01*
X2491651Y-2280438D01*
X2493293Y-2282895D01*
X2494424Y-2285625D01*
X2495000Y-2288523D01*
X2495000Y-2291477D01*
X2494424Y-2294375D01*
X2493293Y-2297105D01*
X2491651Y-2299562D01*
X2489562Y-2301651D01*
X2487105Y-2303293D01*
X2484375Y-2304424D01*
X2481477Y-2305000D01*
X2478523Y-2305000D01*
X2475625Y-2304424D01*
X2472895Y-2303293D01*
X2470438Y-2301651D01*
X2468349Y-2299562D01*
X2466707Y-2297105D01*
X2465576Y-2294375D01*
X2465000Y-2291477D01*
X2465000Y-2288523D01*
X2465576Y-2285625D01*
X2466707Y-2282895D01*
X2468349Y-2280438D01*
X2470438Y-2278349D01*
X2472895Y-2276707D01*
X2475625Y-2275576D01*
X2478523Y-2275000D01*
X2481477Y-2275000D01*
X2484375Y-2275576D01*
X2484375Y-2275576D01*
G37*
G36*
X2404375Y-2275576D02*
X2407105Y-2276707D01*
X2409562Y-2278349D01*
X2411651Y-2280438D01*
X2413293Y-2282895D01*
X2414424Y-2285625D01*
X2415000Y-2288523D01*
X2415000Y-2291477D01*
X2414424Y-2294375D01*
X2413293Y-2297105D01*
X2411651Y-2299562D01*
X2409562Y-2301651D01*
X2407105Y-2303293D01*
X2404375Y-2304424D01*
X2401477Y-2305000D01*
X2398523Y-2305000D01*
X2395625Y-2304424D01*
X2392895Y-2303293D01*
X2390438Y-2301651D01*
X2388349Y-2299562D01*
X2386707Y-2297105D01*
X2385576Y-2294375D01*
X2385000Y-2291477D01*
X2385000Y-2288523D01*
X2385576Y-2285625D01*
X2386707Y-2282895D01*
X2388349Y-2280438D01*
X2390438Y-2278349D01*
X2392895Y-2276707D01*
X2395625Y-2275576D01*
X2398523Y-2275000D01*
X2401477Y-2275000D01*
X2404375Y-2275576D01*
X2404375Y-2275576D01*
G37*
G36*
X2364375Y-2275576D02*
X2367105Y-2276707D01*
X2369562Y-2278349D01*
X2371651Y-2280438D01*
X2373293Y-2282895D01*
X2374424Y-2285625D01*
X2375000Y-2288523D01*
X2375000Y-2291477D01*
X2374424Y-2294375D01*
X2373293Y-2297105D01*
X2371651Y-2299562D01*
X2369562Y-2301651D01*
X2367105Y-2303293D01*
X2364375Y-2304424D01*
X2361477Y-2305000D01*
X2358523Y-2305000D01*
X2355625Y-2304424D01*
X2352895Y-2303293D01*
X2350438Y-2301651D01*
X2348349Y-2299562D01*
X2346707Y-2297105D01*
X2345576Y-2294375D01*
X2345000Y-2291477D01*
X2345000Y-2288523D01*
X2345576Y-2285625D01*
X2346707Y-2282895D01*
X2348349Y-2280438D01*
X2350438Y-2278349D01*
X2352895Y-2276707D01*
X2355625Y-2275576D01*
X2358523Y-2275000D01*
X2361477Y-2275000D01*
X2364375Y-2275576D01*
X2364375Y-2275576D01*
G37*
G36*
X1865943Y-2224228D02*
X1868050Y-2224868D01*
X1869993Y-2225906D01*
X1871696Y-2227304D01*
X1873094Y-2229007D01*
X1874132Y-2230950D01*
X1874772Y-2233057D01*
X1875000Y-2235373D01*
X1875000Y-2268627D01*
X1874772Y-2270943D01*
X1874132Y-2273051D01*
X1873094Y-2274994D01*
X1871696Y-2276696D01*
X1869993Y-2278094D01*
X1868050Y-2279133D01*
X1865943Y-2279772D01*
X1863627Y-2280000D01*
X1836373Y-2280000D01*
X1834057Y-2279772D01*
X1831949Y-2279133D01*
X1830006Y-2278094D01*
X1828304Y-2276696D01*
X1826906Y-2274994D01*
X1825867Y-2273051D01*
X1825228Y-2270943D01*
X1825000Y-2268627D01*
X1825000Y-2235373D01*
X1825228Y-2233057D01*
X1825867Y-2230950D01*
X1826906Y-2229007D01*
X1828304Y-2227304D01*
X1830006Y-2225906D01*
X1831949Y-2224868D01*
X1834057Y-2224228D01*
X1836373Y-2224000D01*
X1863627Y-2224000D01*
X1865943Y-2224228D01*
X1865943Y-2224228D01*
G37*
G36*
X1795943Y-2224228D02*
X1798050Y-2224868D01*
X1799993Y-2225906D01*
X1801696Y-2227304D01*
X1803094Y-2229007D01*
X1804132Y-2230950D01*
X1804772Y-2233057D01*
X1805000Y-2235373D01*
X1805000Y-2268627D01*
X1804772Y-2270943D01*
X1804132Y-2273051D01*
X1803094Y-2274994D01*
X1801696Y-2276696D01*
X1799993Y-2278094D01*
X1798050Y-2279133D01*
X1795943Y-2279772D01*
X1793627Y-2280000D01*
X1766373Y-2280000D01*
X1764057Y-2279772D01*
X1761949Y-2279133D01*
X1760006Y-2278094D01*
X1758304Y-2276696D01*
X1756906Y-2274994D01*
X1755867Y-2273051D01*
X1755228Y-2270943D01*
X1755000Y-2268627D01*
X1755000Y-2235373D01*
X1755228Y-2233057D01*
X1755867Y-2230950D01*
X1756906Y-2229007D01*
X1758304Y-2227304D01*
X1760006Y-2225906D01*
X1761949Y-2224868D01*
X1764057Y-2224228D01*
X1766373Y-2224000D01*
X1793627Y-2224000D01*
X1795943Y-2224228D01*
X1795943Y-2224228D01*
G37*
G36*
X2005943Y-2224228D02*
X2008050Y-2224868D01*
X2009993Y-2225906D01*
X2011696Y-2227304D01*
X2013094Y-2229007D01*
X2014132Y-2230950D01*
X2014772Y-2233057D01*
X2015000Y-2235373D01*
X2015000Y-2268627D01*
X2014772Y-2270943D01*
X2014132Y-2273051D01*
X2013094Y-2274994D01*
X2011696Y-2276696D01*
X2009993Y-2278094D01*
X2008050Y-2279133D01*
X2005943Y-2279772D01*
X2003627Y-2280000D01*
X1976373Y-2280000D01*
X1974057Y-2279772D01*
X1971949Y-2279133D01*
X1970006Y-2278094D01*
X1968304Y-2276696D01*
X1966906Y-2274994D01*
X1965867Y-2273051D01*
X1965228Y-2270943D01*
X1965000Y-2268627D01*
X1965000Y-2235373D01*
X1965228Y-2233057D01*
X1965867Y-2230950D01*
X1966906Y-2229007D01*
X1968304Y-2227304D01*
X1970006Y-2225906D01*
X1971949Y-2224868D01*
X1974057Y-2224228D01*
X1976373Y-2224000D01*
X2003627Y-2224000D01*
X2005943Y-2224228D01*
X2005943Y-2224228D01*
G37*
G36*
X1935943Y-2224228D02*
X1938050Y-2224868D01*
X1939993Y-2225906D01*
X1941696Y-2227304D01*
X1943094Y-2229007D01*
X1944132Y-2230950D01*
X1944772Y-2233057D01*
X1945000Y-2235373D01*
X1945000Y-2268627D01*
X1944772Y-2270943D01*
X1944132Y-2273051D01*
X1943094Y-2274994D01*
X1941696Y-2276696D01*
X1939993Y-2278094D01*
X1938050Y-2279133D01*
X1935943Y-2279772D01*
X1933627Y-2280000D01*
X1906373Y-2280000D01*
X1904057Y-2279772D01*
X1901949Y-2279133D01*
X1900006Y-2278094D01*
X1898304Y-2276696D01*
X1896906Y-2274994D01*
X1895867Y-2273051D01*
X1895228Y-2270943D01*
X1895000Y-2268627D01*
X1895000Y-2235373D01*
X1895228Y-2233057D01*
X1895867Y-2230950D01*
X1896906Y-2229007D01*
X1898304Y-2227304D01*
X1900006Y-2225906D01*
X1901949Y-2224868D01*
X1904057Y-2224228D01*
X1906373Y-2224000D01*
X1933627Y-2224000D01*
X1935943Y-2224228D01*
X1935943Y-2224228D01*
G37*
G36*
X2081943Y-2229728D02*
X2084050Y-2230368D01*
X2085993Y-2231406D01*
X2087696Y-2232804D01*
X2089094Y-2234507D01*
X2090132Y-2236450D01*
X2090772Y-2238557D01*
X2091000Y-2240873D01*
X2091000Y-2268127D01*
X2090772Y-2270443D01*
X2090132Y-2272551D01*
X2089094Y-2274494D01*
X2087696Y-2276196D01*
X2085993Y-2277594D01*
X2084050Y-2278633D01*
X2081943Y-2279272D01*
X2079627Y-2279500D01*
X2046373Y-2279500D01*
X2044057Y-2279272D01*
X2041949Y-2278633D01*
X2040006Y-2277594D01*
X2038304Y-2276196D01*
X2036906Y-2274494D01*
X2035867Y-2272551D01*
X2035228Y-2270443D01*
X2035000Y-2268127D01*
X2035000Y-2240873D01*
X2035228Y-2238557D01*
X2035867Y-2236450D01*
X2036906Y-2234507D01*
X2038304Y-2232804D01*
X2040006Y-2231406D01*
X2041949Y-2230368D01*
X2044057Y-2229728D01*
X2046373Y-2229500D01*
X2079627Y-2229500D01*
X2081943Y-2229728D01*
X2081943Y-2229728D01*
G37*
G36*
X2145943Y-2229728D02*
X2148051Y-2230368D01*
X2149994Y-2231406D01*
X2151696Y-2232804D01*
X2153094Y-2234507D01*
X2154133Y-2236450D01*
X2154772Y-2238557D01*
X2155000Y-2240873D01*
X2155000Y-2268127D01*
X2154772Y-2270443D01*
X2154133Y-2272551D01*
X2153094Y-2274494D01*
X2151696Y-2276196D01*
X2149994Y-2277594D01*
X2148051Y-2278633D01*
X2145943Y-2279272D01*
X2143627Y-2279500D01*
X2110373Y-2279500D01*
X2108057Y-2279272D01*
X2105950Y-2278633D01*
X2104007Y-2277594D01*
X2102304Y-2276196D01*
X2100906Y-2274494D01*
X2099868Y-2272551D01*
X2099228Y-2270443D01*
X2099000Y-2268127D01*
X2099000Y-2240873D01*
X2099228Y-2238557D01*
X2099868Y-2236450D01*
X2100906Y-2234507D01*
X2102304Y-2232804D01*
X2104007Y-2231406D01*
X2105950Y-2230368D01*
X2108057Y-2229728D01*
X2110373Y-2229500D01*
X2143627Y-2229500D01*
X2145943Y-2229728D01*
X2145943Y-2229728D01*
G37*
G36*
X2404813Y-2234134D02*
X2406572Y-2234863D01*
X2407816Y-2235378D01*
X2409420Y-2236450D01*
X2410518Y-2237184D01*
X2412816Y-2239482D01*
X2412817Y-2239482D01*
X2414622Y-2242184D01*
X2414622Y-2242184D01*
X2415866Y-2245187D01*
X2416500Y-2248375D01*
X2416500Y-2251625D01*
X2415866Y-2254813D01*
X2415707Y-2255196D01*
X2414622Y-2257816D01*
X2414325Y-2258260D01*
X2412816Y-2260518D01*
X2410518Y-2262816D01*
X2409805Y-2263293D01*
X2407816Y-2264622D01*
X2406903Y-2265000D01*
X2404813Y-2265866D01*
X2401625Y-2266500D01*
X2398375Y-2266500D01*
X2395187Y-2265866D01*
X2393097Y-2265000D01*
X2392184Y-2264622D01*
X2390195Y-2263293D01*
X2389482Y-2262816D01*
X2387184Y-2260518D01*
X2385675Y-2258260D01*
X2385378Y-2257816D01*
X2384293Y-2255196D01*
X2384134Y-2254813D01*
X2383500Y-2251625D01*
X2383500Y-2248375D01*
X2384134Y-2245187D01*
X2385378Y-2242184D01*
X2385378Y-2242184D01*
X2387184Y-2239482D01*
X2387184Y-2239482D01*
X2389482Y-2237184D01*
X2390581Y-2236450D01*
X2392184Y-2235378D01*
X2393428Y-2234863D01*
X2395187Y-2234134D01*
X2398375Y-2233500D01*
X2401625Y-2233500D01*
X2404813Y-2234134D01*
X2404813Y-2234134D01*
G37*
G36*
X2484813Y-2234134D02*
X2486572Y-2234863D01*
X2487816Y-2235378D01*
X2489420Y-2236450D01*
X2490518Y-2237184D01*
X2492816Y-2239482D01*
X2492817Y-2239482D01*
X2494622Y-2242184D01*
X2494622Y-2242184D01*
X2495866Y-2245187D01*
X2496500Y-2248375D01*
X2496500Y-2251625D01*
X2495866Y-2254813D01*
X2495707Y-2255196D01*
X2494622Y-2257816D01*
X2494325Y-2258260D01*
X2492816Y-2260518D01*
X2490518Y-2262816D01*
X2489805Y-2263293D01*
X2487816Y-2264622D01*
X2486903Y-2265000D01*
X2484813Y-2265866D01*
X2481625Y-2266500D01*
X2478375Y-2266500D01*
X2475187Y-2265866D01*
X2473097Y-2265000D01*
X2472184Y-2264622D01*
X2470195Y-2263293D01*
X2469482Y-2262816D01*
X2467184Y-2260518D01*
X2465675Y-2258260D01*
X2465378Y-2257816D01*
X2464293Y-2255196D01*
X2464134Y-2254813D01*
X2463500Y-2251625D01*
X2463500Y-2248375D01*
X2464134Y-2245187D01*
X2465378Y-2242184D01*
X2465378Y-2242184D01*
X2467184Y-2239482D01*
X2467184Y-2239482D01*
X2469482Y-2237184D01*
X2470581Y-2236450D01*
X2472184Y-2235378D01*
X2473428Y-2234863D01*
X2475187Y-2234134D01*
X2478375Y-2233500D01*
X2481625Y-2233500D01*
X2484813Y-2234134D01*
X2484813Y-2234134D01*
G37*
G36*
X2524375Y-2235576D02*
X2527105Y-2236707D01*
X2529562Y-2238349D01*
X2531651Y-2240438D01*
X2533293Y-2242895D01*
X2534424Y-2245625D01*
X2535000Y-2248523D01*
X2535000Y-2251477D01*
X2534424Y-2254375D01*
X2533293Y-2257105D01*
X2531651Y-2259562D01*
X2529562Y-2261651D01*
X2527105Y-2263293D01*
X2524375Y-2264424D01*
X2521477Y-2265000D01*
X2518523Y-2265000D01*
X2515625Y-2264424D01*
X2512895Y-2263293D01*
X2510438Y-2261651D01*
X2508349Y-2259562D01*
X2506707Y-2257105D01*
X2505576Y-2254375D01*
X2505000Y-2251477D01*
X2505000Y-2248523D01*
X2505576Y-2245625D01*
X2506707Y-2242895D01*
X2508349Y-2240438D01*
X2510438Y-2238349D01*
X2512895Y-2236707D01*
X2515625Y-2235576D01*
X2518523Y-2235000D01*
X2521477Y-2235000D01*
X2524375Y-2235576D01*
X2524375Y-2235576D01*
G37*
G36*
X2444375Y-2235576D02*
X2447105Y-2236707D01*
X2449562Y-2238349D01*
X2451651Y-2240438D01*
X2453293Y-2242895D01*
X2454424Y-2245625D01*
X2455000Y-2248523D01*
X2455000Y-2251477D01*
X2454424Y-2254375D01*
X2453293Y-2257105D01*
X2451651Y-2259562D01*
X2449562Y-2261651D01*
X2447105Y-2263293D01*
X2444375Y-2264424D01*
X2441477Y-2265000D01*
X2438523Y-2265000D01*
X2435625Y-2264424D01*
X2432895Y-2263293D01*
X2430438Y-2261651D01*
X2428349Y-2259562D01*
X2426707Y-2257105D01*
X2425576Y-2254375D01*
X2425000Y-2251477D01*
X2425000Y-2248523D01*
X2425576Y-2245625D01*
X2426707Y-2242895D01*
X2428349Y-2240438D01*
X2430438Y-2238349D01*
X2432895Y-2236707D01*
X2435625Y-2235576D01*
X2438523Y-2235000D01*
X2441477Y-2235000D01*
X2444375Y-2235576D01*
X2444375Y-2235576D01*
G37*
G36*
X2364375Y-2235576D02*
X2367105Y-2236707D01*
X2369562Y-2238349D01*
X2371651Y-2240438D01*
X2373293Y-2242895D01*
X2374424Y-2245625D01*
X2375000Y-2248523D01*
X2375000Y-2251477D01*
X2374424Y-2254375D01*
X2373293Y-2257105D01*
X2371651Y-2259562D01*
X2369562Y-2261651D01*
X2367105Y-2263293D01*
X2364375Y-2264424D01*
X2361477Y-2265000D01*
X2358523Y-2265000D01*
X2355625Y-2264424D01*
X2352895Y-2263293D01*
X2350438Y-2261651D01*
X2348349Y-2259562D01*
X2346707Y-2257105D01*
X2345576Y-2254375D01*
X2345000Y-2251477D01*
X2345000Y-2248523D01*
X2345576Y-2245625D01*
X2346707Y-2242895D01*
X2348349Y-2240438D01*
X2350438Y-2238349D01*
X2352895Y-2236707D01*
X2355625Y-2235576D01*
X2358523Y-2235000D01*
X2361477Y-2235000D01*
X2364375Y-2235576D01*
X2364375Y-2235576D01*
G37*
G36*
X2295943Y-2202728D02*
X2298051Y-2203368D01*
X2299994Y-2204406D01*
X2301696Y-2205804D01*
X2303094Y-2207507D01*
X2304133Y-2209450D01*
X2304772Y-2211557D01*
X2305000Y-2213873D01*
X2305000Y-2247127D01*
X2304772Y-2249443D01*
X2304133Y-2251551D01*
X2303094Y-2253494D01*
X2301696Y-2255196D01*
X2299994Y-2256594D01*
X2298051Y-2257633D01*
X2295943Y-2258272D01*
X2293627Y-2258500D01*
X2266373Y-2258500D01*
X2264057Y-2258272D01*
X2261950Y-2257633D01*
X2260007Y-2256594D01*
X2258304Y-2255196D01*
X2256906Y-2253494D01*
X2255868Y-2251551D01*
X2255228Y-2249443D01*
X2255000Y-2247127D01*
X2255000Y-2213873D01*
X2255228Y-2211557D01*
X2255868Y-2209450D01*
X2256906Y-2207507D01*
X2258304Y-2205804D01*
X2260007Y-2204406D01*
X2261950Y-2203368D01*
X2264057Y-2202728D01*
X2266373Y-2202500D01*
X2293627Y-2202500D01*
X2295943Y-2202728D01*
X2295943Y-2202728D01*
G37*
G36*
X2225943Y-2202728D02*
X2228051Y-2203368D01*
X2229994Y-2204406D01*
X2231696Y-2205804D01*
X2233094Y-2207507D01*
X2234133Y-2209450D01*
X2234772Y-2211557D01*
X2235000Y-2213873D01*
X2235000Y-2247127D01*
X2234772Y-2249443D01*
X2234133Y-2251551D01*
X2233094Y-2253494D01*
X2231696Y-2255196D01*
X2229994Y-2256594D01*
X2228051Y-2257633D01*
X2225943Y-2258272D01*
X2223627Y-2258500D01*
X2196373Y-2258500D01*
X2194057Y-2258272D01*
X2191950Y-2257633D01*
X2190007Y-2256594D01*
X2188304Y-2255196D01*
X2186906Y-2253494D01*
X2185868Y-2251551D01*
X2185228Y-2249443D01*
X2185000Y-2247127D01*
X2185000Y-2213873D01*
X2185228Y-2211557D01*
X2185868Y-2209450D01*
X2186906Y-2207507D01*
X2188304Y-2205804D01*
X2190007Y-2204406D01*
X2191950Y-2203368D01*
X2194057Y-2202728D01*
X2196373Y-2202500D01*
X2223627Y-2202500D01*
X2225943Y-2202728D01*
X2225943Y-2202728D01*
G37*
G36*
X2637000Y-2243000D02*
X2587000Y-2243000D01*
X2587000Y-2193000D01*
X2637000Y-2193000D01*
X2637000Y-2243000D01*
X2637000Y-2243000D01*
G37*
G36*
X2697000Y-2243000D02*
X2647000Y-2243000D01*
X2647000Y-2193000D01*
X2697000Y-2193000D01*
X2697000Y-2243000D01*
X2697000Y-2243000D01*
G37*
G36*
X2444813Y-2194134D02*
X2446572Y-2194863D01*
X2447816Y-2195378D01*
X2448848Y-2196067D01*
X2450518Y-2197184D01*
X2452816Y-2199482D01*
X2452817Y-2199482D01*
X2454622Y-2202184D01*
X2454852Y-2202740D01*
X2455866Y-2205187D01*
X2456500Y-2208375D01*
X2456500Y-2211625D01*
X2455866Y-2214813D01*
X2455374Y-2216000D01*
X2454622Y-2217816D01*
X2453455Y-2219562D01*
X2452816Y-2220518D01*
X2450518Y-2222816D01*
X2449805Y-2223293D01*
X2447816Y-2224622D01*
X2447223Y-2224868D01*
X2444813Y-2225866D01*
X2441625Y-2226500D01*
X2438375Y-2226500D01*
X2435187Y-2225866D01*
X2432777Y-2224868D01*
X2432184Y-2224622D01*
X2430195Y-2223293D01*
X2429482Y-2222816D01*
X2427184Y-2220518D01*
X2426545Y-2219562D01*
X2425378Y-2217816D01*
X2424626Y-2216000D01*
X2424134Y-2214813D01*
X2423500Y-2211625D01*
X2423500Y-2208375D01*
X2424134Y-2205187D01*
X2425148Y-2202740D01*
X2425378Y-2202184D01*
X2427184Y-2199482D01*
X2427184Y-2199482D01*
X2429482Y-2197184D01*
X2431152Y-2196067D01*
X2432184Y-2195378D01*
X2433428Y-2194863D01*
X2435187Y-2194134D01*
X2438375Y-2193500D01*
X2441625Y-2193500D01*
X2444813Y-2194134D01*
X2444813Y-2194134D01*
G37*
G36*
X2484813Y-2194134D02*
X2486572Y-2194863D01*
X2487816Y-2195378D01*
X2488848Y-2196067D01*
X2490518Y-2197184D01*
X2492816Y-2199482D01*
X2492817Y-2199482D01*
X2494622Y-2202184D01*
X2494852Y-2202740D01*
X2495866Y-2205187D01*
X2496500Y-2208375D01*
X2496500Y-2211625D01*
X2495866Y-2214813D01*
X2495374Y-2216000D01*
X2494622Y-2217816D01*
X2493455Y-2219562D01*
X2492816Y-2220518D01*
X2490518Y-2222816D01*
X2489805Y-2223293D01*
X2487816Y-2224622D01*
X2487223Y-2224868D01*
X2484813Y-2225866D01*
X2481625Y-2226500D01*
X2478375Y-2226500D01*
X2475187Y-2225866D01*
X2472777Y-2224868D01*
X2472184Y-2224622D01*
X2470195Y-2223293D01*
X2469482Y-2222816D01*
X2467184Y-2220518D01*
X2466545Y-2219562D01*
X2465378Y-2217816D01*
X2464626Y-2216000D01*
X2464134Y-2214813D01*
X2463500Y-2211625D01*
X2463500Y-2208375D01*
X2464134Y-2205187D01*
X2465148Y-2202740D01*
X2465378Y-2202184D01*
X2467184Y-2199482D01*
X2467184Y-2199482D01*
X2469482Y-2197184D01*
X2471152Y-2196067D01*
X2472184Y-2195378D01*
X2473428Y-2194863D01*
X2475187Y-2194134D01*
X2478375Y-2193500D01*
X2481625Y-2193500D01*
X2484813Y-2194134D01*
X2484813Y-2194134D01*
G37*
G36*
X2404813Y-2194134D02*
X2406572Y-2194863D01*
X2407816Y-2195378D01*
X2408848Y-2196067D01*
X2410518Y-2197184D01*
X2412816Y-2199482D01*
X2412817Y-2199482D01*
X2414622Y-2202184D01*
X2414852Y-2202740D01*
X2415866Y-2205187D01*
X2416500Y-2208375D01*
X2416500Y-2211625D01*
X2415866Y-2214813D01*
X2415374Y-2216000D01*
X2414622Y-2217816D01*
X2413455Y-2219562D01*
X2412816Y-2220518D01*
X2410518Y-2222816D01*
X2409805Y-2223293D01*
X2407816Y-2224622D01*
X2407223Y-2224868D01*
X2404813Y-2225866D01*
X2401625Y-2226500D01*
X2398375Y-2226500D01*
X2395187Y-2225866D01*
X2392777Y-2224868D01*
X2392184Y-2224622D01*
X2390195Y-2223293D01*
X2389482Y-2222816D01*
X2387184Y-2220518D01*
X2386545Y-2219562D01*
X2385378Y-2217816D01*
X2384626Y-2216000D01*
X2384134Y-2214813D01*
X2383500Y-2211625D01*
X2383500Y-2208375D01*
X2384134Y-2205187D01*
X2385148Y-2202740D01*
X2385378Y-2202184D01*
X2387184Y-2199482D01*
X2387184Y-2199482D01*
X2389482Y-2197184D01*
X2391152Y-2196067D01*
X2392184Y-2195378D01*
X2393428Y-2194863D01*
X2395187Y-2194134D01*
X2398375Y-2193500D01*
X2401625Y-2193500D01*
X2404813Y-2194134D01*
X2404813Y-2194134D01*
G37*
G36*
X2524375Y-2195576D02*
X2527105Y-2196707D01*
X2529562Y-2198349D01*
X2531651Y-2200438D01*
X2533293Y-2202895D01*
X2534424Y-2205625D01*
X2535000Y-2208523D01*
X2535000Y-2211477D01*
X2534424Y-2214375D01*
X2533293Y-2217105D01*
X2531651Y-2219562D01*
X2529562Y-2221651D01*
X2527105Y-2223293D01*
X2524375Y-2224424D01*
X2521477Y-2225000D01*
X2518523Y-2225000D01*
X2515625Y-2224424D01*
X2512895Y-2223293D01*
X2510438Y-2221651D01*
X2508349Y-2219562D01*
X2506707Y-2217105D01*
X2505576Y-2214375D01*
X2505000Y-2211477D01*
X2505000Y-2208523D01*
X2505576Y-2205625D01*
X2506707Y-2202895D01*
X2508349Y-2200438D01*
X2510438Y-2198349D01*
X2512895Y-2196707D01*
X2515625Y-2195576D01*
X2518523Y-2195000D01*
X2521477Y-2195000D01*
X2524375Y-2195576D01*
X2524375Y-2195576D01*
G37*
G36*
X2364375Y-2195576D02*
X2367105Y-2196707D01*
X2369562Y-2198349D01*
X2371651Y-2200438D01*
X2373293Y-2202895D01*
X2374424Y-2205625D01*
X2375000Y-2208523D01*
X2375000Y-2211477D01*
X2374424Y-2214375D01*
X2373293Y-2217105D01*
X2371651Y-2219562D01*
X2369562Y-2221651D01*
X2367105Y-2223293D01*
X2364375Y-2224424D01*
X2361477Y-2225000D01*
X2358523Y-2225000D01*
X2355625Y-2224424D01*
X2352895Y-2223293D01*
X2350438Y-2221651D01*
X2348349Y-2219562D01*
X2346707Y-2217105D01*
X2345576Y-2214375D01*
X2345000Y-2211477D01*
X2345000Y-2208523D01*
X2345576Y-2205625D01*
X2346707Y-2202895D01*
X2348349Y-2200438D01*
X2350438Y-2198349D01*
X2352895Y-2196707D01*
X2355625Y-2195576D01*
X2358523Y-2195000D01*
X2361477Y-2195000D01*
X2364375Y-2195576D01*
X2364375Y-2195576D01*
G37*
G36*
X1795943Y-2160228D02*
X1798050Y-2160868D01*
X1799993Y-2161906D01*
X1801696Y-2163304D01*
X1803094Y-2165007D01*
X1804132Y-2166950D01*
X1804772Y-2169057D01*
X1805000Y-2171373D01*
X1805000Y-2204627D01*
X1804772Y-2206943D01*
X1804132Y-2209051D01*
X1803094Y-2210994D01*
X1801696Y-2212696D01*
X1799993Y-2214094D01*
X1798050Y-2215133D01*
X1795943Y-2215772D01*
X1793627Y-2216000D01*
X1766373Y-2216000D01*
X1764057Y-2215772D01*
X1761949Y-2215133D01*
X1760006Y-2214094D01*
X1758304Y-2212696D01*
X1756906Y-2210994D01*
X1755867Y-2209051D01*
X1755228Y-2206943D01*
X1755000Y-2204627D01*
X1755000Y-2171373D01*
X1755228Y-2169057D01*
X1755867Y-2166950D01*
X1756906Y-2165007D01*
X1758304Y-2163304D01*
X1760006Y-2161906D01*
X1761949Y-2160868D01*
X1764057Y-2160228D01*
X1766373Y-2160000D01*
X1793627Y-2160000D01*
X1795943Y-2160228D01*
X1795943Y-2160228D01*
G37*
G36*
X1865943Y-2160228D02*
X1868050Y-2160868D01*
X1869993Y-2161906D01*
X1871696Y-2163304D01*
X1873094Y-2165007D01*
X1874132Y-2166950D01*
X1874772Y-2169057D01*
X1875000Y-2171373D01*
X1875000Y-2204627D01*
X1874772Y-2206943D01*
X1874132Y-2209051D01*
X1873094Y-2210994D01*
X1871696Y-2212696D01*
X1869993Y-2214094D01*
X1868050Y-2215133D01*
X1865943Y-2215772D01*
X1863627Y-2216000D01*
X1836373Y-2216000D01*
X1834057Y-2215772D01*
X1831949Y-2215133D01*
X1830006Y-2214094D01*
X1828304Y-2212696D01*
X1826906Y-2210994D01*
X1825867Y-2209051D01*
X1825228Y-2206943D01*
X1825000Y-2204627D01*
X1825000Y-2171373D01*
X1825228Y-2169057D01*
X1825867Y-2166950D01*
X1826906Y-2165007D01*
X1828304Y-2163304D01*
X1830006Y-2161906D01*
X1831949Y-2160868D01*
X1834057Y-2160228D01*
X1836373Y-2160000D01*
X1863627Y-2160000D01*
X1865943Y-2160228D01*
X1865943Y-2160228D01*
G37*
G36*
X1935943Y-2160228D02*
X1938050Y-2160868D01*
X1939993Y-2161906D01*
X1941696Y-2163304D01*
X1943094Y-2165007D01*
X1944132Y-2166950D01*
X1944772Y-2169057D01*
X1945000Y-2171373D01*
X1945000Y-2204627D01*
X1944772Y-2206943D01*
X1944132Y-2209051D01*
X1943094Y-2210994D01*
X1941696Y-2212696D01*
X1939993Y-2214094D01*
X1938050Y-2215133D01*
X1935943Y-2215772D01*
X1933627Y-2216000D01*
X1906373Y-2216000D01*
X1904057Y-2215772D01*
X1901949Y-2215133D01*
X1900006Y-2214094D01*
X1898304Y-2212696D01*
X1896906Y-2210994D01*
X1895867Y-2209051D01*
X1895228Y-2206943D01*
X1895000Y-2204627D01*
X1895000Y-2171373D01*
X1895228Y-2169057D01*
X1895867Y-2166950D01*
X1896906Y-2165007D01*
X1898304Y-2163304D01*
X1900006Y-2161906D01*
X1901949Y-2160868D01*
X1904057Y-2160228D01*
X1906373Y-2160000D01*
X1933627Y-2160000D01*
X1935943Y-2160228D01*
X1935943Y-2160228D01*
G37*
G36*
X2005943Y-2160228D02*
X2008050Y-2160868D01*
X2009993Y-2161906D01*
X2011696Y-2163304D01*
X2013094Y-2165007D01*
X2014132Y-2166950D01*
X2014772Y-2169057D01*
X2015000Y-2171373D01*
X2015000Y-2204627D01*
X2014772Y-2206943D01*
X2014132Y-2209051D01*
X2013094Y-2210994D01*
X2011696Y-2212696D01*
X2009993Y-2214094D01*
X2008050Y-2215133D01*
X2005943Y-2215772D01*
X2003627Y-2216000D01*
X1976373Y-2216000D01*
X1974057Y-2215772D01*
X1971949Y-2215133D01*
X1970006Y-2214094D01*
X1968304Y-2212696D01*
X1966906Y-2210994D01*
X1965867Y-2209051D01*
X1965228Y-2206943D01*
X1965000Y-2204627D01*
X1965000Y-2171373D01*
X1965228Y-2169057D01*
X1965867Y-2166950D01*
X1966906Y-2165007D01*
X1968304Y-2163304D01*
X1970006Y-2161906D01*
X1971949Y-2160868D01*
X1974057Y-2160228D01*
X1976373Y-2160000D01*
X2003627Y-2160000D01*
X2005943Y-2160228D01*
X2005943Y-2160228D01*
G37*
G36*
X2084364Y-2165146D02*
X2085674Y-2165544D01*
X2086882Y-2166190D01*
X2087941Y-2167059D01*
X2088810Y-2168118D01*
X2089456Y-2169326D01*
X2089854Y-2170636D01*
X2090012Y-2172245D01*
X2090108Y-2172726D01*
X2090295Y-2173178D01*
X2090567Y-2173586D01*
X2090914Y-2173933D01*
X2091321Y-2174205D01*
X2091774Y-2174392D01*
X2092255Y-2174488D01*
X2092745Y-2174488D01*
X2093226Y-2174392D01*
X2093678Y-2174205D01*
X2094086Y-2173933D01*
X2094432Y-2173586D01*
X2094705Y-2173179D01*
X2094892Y-2172726D01*
X2094988Y-2172245D01*
X2095146Y-2170636D01*
X2095544Y-2169326D01*
X2096190Y-2168118D01*
X2097059Y-2167059D01*
X2098118Y-2166190D01*
X2099326Y-2165544D01*
X2100636Y-2165146D01*
X2102123Y-2165000D01*
X2120877Y-2165000D01*
X2122364Y-2165146D01*
X2123674Y-2165544D01*
X2124882Y-2166190D01*
X2125941Y-2167059D01*
X2126810Y-2168118D01*
X2127456Y-2169326D01*
X2127854Y-2170636D01*
X2128000Y-2172123D01*
X2128000Y-2197877D01*
X2127854Y-2199364D01*
X2127456Y-2200674D01*
X2126810Y-2201882D01*
X2125941Y-2202941D01*
X2124882Y-2203810D01*
X2123674Y-2204456D01*
X2122364Y-2204854D01*
X2120877Y-2205000D01*
X2102123Y-2205000D01*
X2100636Y-2204854D01*
X2099326Y-2204456D01*
X2098118Y-2203810D01*
X2097059Y-2202941D01*
X2096190Y-2201882D01*
X2095544Y-2200674D01*
X2095146Y-2199364D01*
X2094988Y-2197755D01*
X2094892Y-2197274D01*
X2094705Y-2196822D01*
X2094433Y-2196414D01*
X2094086Y-2196068D01*
X2093678Y-2195795D01*
X2093226Y-2195608D01*
X2092745Y-2195512D01*
X2092255Y-2195512D01*
X2091774Y-2195608D01*
X2091322Y-2195795D01*
X2090914Y-2196067D01*
X2090567Y-2196414D01*
X2090295Y-2196822D01*
X2090108Y-2197274D01*
X2090012Y-2197755D01*
X2089854Y-2199364D01*
X2089456Y-2200674D01*
X2088810Y-2201882D01*
X2087941Y-2202941D01*
X2086882Y-2203810D01*
X2085674Y-2204456D01*
X2084364Y-2204854D01*
X2082877Y-2205000D01*
X2064123Y-2205000D01*
X2062636Y-2204854D01*
X2061326Y-2204456D01*
X2060118Y-2203810D01*
X2059059Y-2202941D01*
X2058190Y-2201882D01*
X2057544Y-2200674D01*
X2057146Y-2199364D01*
X2057000Y-2197877D01*
X2057000Y-2172123D01*
X2057146Y-2170636D01*
X2057544Y-2169326D01*
X2058190Y-2168118D01*
X2059059Y-2167059D01*
X2060118Y-2166190D01*
X2061326Y-2165544D01*
X2062636Y-2165146D01*
X2064123Y-2165000D01*
X2082877Y-2165000D01*
X2084364Y-2165146D01*
X2084364Y-2165146D01*
G37*
G36*
X2484813Y-2154134D02*
X2486572Y-2154863D01*
X2487816Y-2155378D01*
X2489613Y-2156579D01*
X2490518Y-2157184D01*
X2492816Y-2159482D01*
X2492817Y-2159482D01*
X2494622Y-2162184D01*
X2494622Y-2162184D01*
X2495866Y-2165187D01*
X2496500Y-2168375D01*
X2496500Y-2171625D01*
X2495866Y-2174813D01*
X2495137Y-2176572D01*
X2494622Y-2177816D01*
X2493455Y-2179562D01*
X2492816Y-2180518D01*
X2490518Y-2182816D01*
X2490243Y-2183000D01*
X2487816Y-2184622D01*
X2486903Y-2185000D01*
X2484813Y-2185866D01*
X2481625Y-2186500D01*
X2478375Y-2186500D01*
X2475187Y-2185866D01*
X2473097Y-2185000D01*
X2472184Y-2184622D01*
X2469757Y-2183000D01*
X2469482Y-2182816D01*
X2467184Y-2180518D01*
X2466545Y-2179562D01*
X2465378Y-2177816D01*
X2464863Y-2176572D01*
X2464134Y-2174813D01*
X2463500Y-2171625D01*
X2463500Y-2168375D01*
X2464134Y-2165187D01*
X2465378Y-2162184D01*
X2465378Y-2162184D01*
X2467184Y-2159482D01*
X2467184Y-2159482D01*
X2469482Y-2157184D01*
X2470387Y-2156579D01*
X2472184Y-2155378D01*
X2473428Y-2154863D01*
X2475187Y-2154134D01*
X2478375Y-2153500D01*
X2481625Y-2153500D01*
X2484813Y-2154134D01*
X2484813Y-2154134D01*
G37*
G36*
X2444813Y-2154134D02*
X2446572Y-2154863D01*
X2447816Y-2155378D01*
X2449613Y-2156579D01*
X2450518Y-2157184D01*
X2452816Y-2159482D01*
X2452817Y-2159482D01*
X2454622Y-2162184D01*
X2454622Y-2162184D01*
X2455866Y-2165187D01*
X2456500Y-2168375D01*
X2456500Y-2171625D01*
X2455866Y-2174813D01*
X2455137Y-2176572D01*
X2454622Y-2177816D01*
X2453455Y-2179562D01*
X2452816Y-2180518D01*
X2450518Y-2182816D01*
X2450243Y-2183000D01*
X2447816Y-2184622D01*
X2446903Y-2185000D01*
X2444813Y-2185866D01*
X2441625Y-2186500D01*
X2438375Y-2186500D01*
X2435187Y-2185866D01*
X2433097Y-2185000D01*
X2432184Y-2184622D01*
X2429757Y-2183000D01*
X2429482Y-2182816D01*
X2427184Y-2180518D01*
X2426545Y-2179562D01*
X2425378Y-2177816D01*
X2424863Y-2176572D01*
X2424134Y-2174813D01*
X2423500Y-2171625D01*
X2423500Y-2168375D01*
X2424134Y-2165187D01*
X2425378Y-2162184D01*
X2425378Y-2162184D01*
X2427184Y-2159482D01*
X2427184Y-2159482D01*
X2429482Y-2157184D01*
X2430387Y-2156579D01*
X2432184Y-2155378D01*
X2433428Y-2154863D01*
X2435187Y-2154134D01*
X2438375Y-2153500D01*
X2441625Y-2153500D01*
X2444813Y-2154134D01*
X2444813Y-2154134D01*
G37*
G36*
X2404813Y-2154134D02*
X2406572Y-2154863D01*
X2407816Y-2155378D01*
X2409613Y-2156579D01*
X2410518Y-2157184D01*
X2412816Y-2159482D01*
X2412817Y-2159482D01*
X2414622Y-2162184D01*
X2414622Y-2162184D01*
X2415866Y-2165187D01*
X2416500Y-2168375D01*
X2416500Y-2171625D01*
X2415866Y-2174813D01*
X2415137Y-2176572D01*
X2414622Y-2177816D01*
X2413455Y-2179562D01*
X2412816Y-2180518D01*
X2410518Y-2182816D01*
X2410243Y-2183000D01*
X2407816Y-2184622D01*
X2406903Y-2185000D01*
X2404813Y-2185866D01*
X2401625Y-2186500D01*
X2398375Y-2186500D01*
X2395187Y-2185866D01*
X2393097Y-2185000D01*
X2392184Y-2184622D01*
X2389757Y-2183000D01*
X2389482Y-2182816D01*
X2387184Y-2180518D01*
X2386545Y-2179562D01*
X2385378Y-2177816D01*
X2384863Y-2176572D01*
X2384134Y-2174813D01*
X2383500Y-2171625D01*
X2383500Y-2168375D01*
X2384134Y-2165187D01*
X2385378Y-2162184D01*
X2385378Y-2162184D01*
X2387184Y-2159482D01*
X2387184Y-2159482D01*
X2389482Y-2157184D01*
X2390387Y-2156579D01*
X2392184Y-2155378D01*
X2393428Y-2154863D01*
X2395187Y-2154134D01*
X2398375Y-2153500D01*
X2401625Y-2153500D01*
X2404813Y-2154134D01*
X2404813Y-2154134D01*
G37*
G36*
X2524375Y-2155576D02*
X2527105Y-2156707D01*
X2529562Y-2158349D01*
X2531651Y-2160438D01*
X2533293Y-2162895D01*
X2534424Y-2165625D01*
X2535000Y-2168523D01*
X2535000Y-2171477D01*
X2534424Y-2174375D01*
X2533293Y-2177105D01*
X2531651Y-2179562D01*
X2529562Y-2181651D01*
X2527105Y-2183293D01*
X2524375Y-2184424D01*
X2521477Y-2185000D01*
X2518523Y-2185000D01*
X2515625Y-2184424D01*
X2512895Y-2183293D01*
X2510438Y-2181651D01*
X2508349Y-2179562D01*
X2506707Y-2177105D01*
X2505576Y-2174375D01*
X2505000Y-2171477D01*
X2505000Y-2168523D01*
X2505576Y-2165625D01*
X2506707Y-2162895D01*
X2508349Y-2160438D01*
X2510438Y-2158349D01*
X2512895Y-2156707D01*
X2515625Y-2155576D01*
X2518523Y-2155000D01*
X2521477Y-2155000D01*
X2524375Y-2155576D01*
X2524375Y-2155576D01*
G37*
G36*
X2364375Y-2155576D02*
X2367105Y-2156707D01*
X2369562Y-2158349D01*
X2371651Y-2160438D01*
X2373293Y-2162895D01*
X2374424Y-2165625D01*
X2375000Y-2168523D01*
X2375000Y-2171477D01*
X2374424Y-2174375D01*
X2373293Y-2177105D01*
X2371651Y-2179562D01*
X2369562Y-2181651D01*
X2367105Y-2183293D01*
X2364375Y-2184424D01*
X2361477Y-2185000D01*
X2358523Y-2185000D01*
X2355625Y-2184424D01*
X2352895Y-2183293D01*
X2350438Y-2181651D01*
X2348349Y-2179562D01*
X2346707Y-2177105D01*
X2345576Y-2174375D01*
X2345000Y-2171477D01*
X2345000Y-2168523D01*
X2345576Y-2165625D01*
X2346707Y-2162895D01*
X2348349Y-2160438D01*
X2350438Y-2158349D01*
X2352895Y-2156707D01*
X2355625Y-2155576D01*
X2358523Y-2155000D01*
X2361477Y-2155000D01*
X2364375Y-2155576D01*
X2364375Y-2155576D01*
G37*
G36*
X2697000Y-2183000D02*
X2647000Y-2183000D01*
X2647000Y-2133000D01*
X2697000Y-2133000D01*
X2697000Y-2183000D01*
X2697000Y-2183000D01*
G37*
G36*
X2637000Y-2183000D02*
X2587000Y-2183000D01*
X2587000Y-2133000D01*
X2637000Y-2133000D01*
X2637000Y-2183000D01*
X2637000Y-2183000D01*
G37*
G36*
X2295943Y-2126728D02*
X2298051Y-2127368D01*
X2299994Y-2128406D01*
X2301696Y-2129804D01*
X2303094Y-2131507D01*
X2304133Y-2133450D01*
X2304772Y-2135557D01*
X2305000Y-2137873D01*
X2305000Y-2171127D01*
X2304772Y-2173443D01*
X2304133Y-2175551D01*
X2303094Y-2177494D01*
X2301696Y-2179196D01*
X2299994Y-2180594D01*
X2298051Y-2181633D01*
X2295943Y-2182272D01*
X2293627Y-2182500D01*
X2266373Y-2182500D01*
X2264057Y-2182272D01*
X2261950Y-2181633D01*
X2260007Y-2180594D01*
X2258304Y-2179196D01*
X2256906Y-2177494D01*
X2255868Y-2175551D01*
X2255228Y-2173443D01*
X2255000Y-2171127D01*
X2255000Y-2137873D01*
X2255228Y-2135557D01*
X2255868Y-2133450D01*
X2256906Y-2131507D01*
X2258304Y-2129804D01*
X2260007Y-2128406D01*
X2261950Y-2127368D01*
X2264057Y-2126728D01*
X2266373Y-2126500D01*
X2293627Y-2126500D01*
X2295943Y-2126728D01*
X2295943Y-2126728D01*
G37*
G36*
X2225943Y-2126728D02*
X2228051Y-2127368D01*
X2229994Y-2128406D01*
X2231696Y-2129804D01*
X2233094Y-2131507D01*
X2234133Y-2133450D01*
X2234772Y-2135557D01*
X2235000Y-2137873D01*
X2235000Y-2171127D01*
X2234772Y-2173443D01*
X2234133Y-2175551D01*
X2233094Y-2177494D01*
X2231696Y-2179196D01*
X2229994Y-2180594D01*
X2228051Y-2181633D01*
X2225943Y-2182272D01*
X2223627Y-2182500D01*
X2196373Y-2182500D01*
X2194057Y-2182272D01*
X2191950Y-2181633D01*
X2190007Y-2180594D01*
X2188304Y-2179196D01*
X2186906Y-2177494D01*
X2185868Y-2175551D01*
X2185228Y-2173443D01*
X2185000Y-2171127D01*
X2185000Y-2137873D01*
X2185228Y-2135557D01*
X2185868Y-2133450D01*
X2186906Y-2131507D01*
X2188304Y-2129804D01*
X2190007Y-2128406D01*
X2191950Y-2127368D01*
X2194057Y-2126728D01*
X2196373Y-2126500D01*
X2223627Y-2126500D01*
X2225943Y-2126728D01*
X2225943Y-2126728D01*
G37*
G36*
X2484813Y-2114134D02*
X2486514Y-2114839D01*
X2487816Y-2115378D01*
X2488911Y-2116110D01*
X2490518Y-2117184D01*
X2492816Y-2119482D01*
X2492817Y-2119482D01*
X2494622Y-2122184D01*
X2494622Y-2122184D01*
X2495866Y-2125187D01*
X2496500Y-2128375D01*
X2496500Y-2131625D01*
X2495866Y-2134813D01*
X2495390Y-2135963D01*
X2494622Y-2137816D01*
X2493831Y-2139000D01*
X2492816Y-2140518D01*
X2490518Y-2142816D01*
X2489805Y-2143293D01*
X2487816Y-2144622D01*
X2486903Y-2145000D01*
X2484813Y-2145866D01*
X2481625Y-2146500D01*
X2478375Y-2146500D01*
X2475187Y-2145866D01*
X2473097Y-2145000D01*
X2472184Y-2144622D01*
X2470195Y-2143293D01*
X2469482Y-2142816D01*
X2467184Y-2140518D01*
X2466169Y-2139000D01*
X2465378Y-2137816D01*
X2464610Y-2135963D01*
X2464134Y-2134813D01*
X2463500Y-2131625D01*
X2463500Y-2128375D01*
X2464134Y-2125187D01*
X2465378Y-2122184D01*
X2465378Y-2122184D01*
X2467184Y-2119482D01*
X2467184Y-2119482D01*
X2469482Y-2117184D01*
X2471089Y-2116110D01*
X2472184Y-2115378D01*
X2473486Y-2114839D01*
X2475187Y-2114134D01*
X2478375Y-2113500D01*
X2481625Y-2113500D01*
X2484813Y-2114134D01*
X2484813Y-2114134D01*
G37*
G36*
X2404813Y-2114134D02*
X2406514Y-2114839D01*
X2407816Y-2115378D01*
X2408911Y-2116110D01*
X2410518Y-2117184D01*
X2412816Y-2119482D01*
X2412817Y-2119482D01*
X2414622Y-2122184D01*
X2414622Y-2122184D01*
X2415866Y-2125187D01*
X2416500Y-2128375D01*
X2416500Y-2131625D01*
X2415866Y-2134813D01*
X2415390Y-2135963D01*
X2414622Y-2137816D01*
X2413831Y-2139000D01*
X2412816Y-2140518D01*
X2410518Y-2142816D01*
X2409805Y-2143293D01*
X2407816Y-2144622D01*
X2406903Y-2145000D01*
X2404813Y-2145866D01*
X2401625Y-2146500D01*
X2398375Y-2146500D01*
X2395187Y-2145866D01*
X2393097Y-2145000D01*
X2392184Y-2144622D01*
X2390195Y-2143293D01*
X2389482Y-2142816D01*
X2387184Y-2140518D01*
X2386169Y-2139000D01*
X2385378Y-2137816D01*
X2384610Y-2135963D01*
X2384134Y-2134813D01*
X2383500Y-2131625D01*
X2383500Y-2128375D01*
X2384134Y-2125187D01*
X2385378Y-2122184D01*
X2385378Y-2122184D01*
X2387184Y-2119482D01*
X2387184Y-2119482D01*
X2389482Y-2117184D01*
X2391089Y-2116110D01*
X2392184Y-2115378D01*
X2393486Y-2114839D01*
X2395187Y-2114134D01*
X2398375Y-2113500D01*
X2401625Y-2113500D01*
X2404813Y-2114134D01*
X2404813Y-2114134D01*
G37*
G36*
X2364375Y-2115576D02*
X2367105Y-2116707D01*
X2369562Y-2118349D01*
X2371651Y-2120438D01*
X2373293Y-2122895D01*
X2374424Y-2125625D01*
X2375000Y-2128523D01*
X2375000Y-2131477D01*
X2374424Y-2134375D01*
X2373293Y-2137105D01*
X2371651Y-2139562D01*
X2369562Y-2141651D01*
X2367105Y-2143293D01*
X2364375Y-2144424D01*
X2361477Y-2145000D01*
X2358523Y-2145000D01*
X2355625Y-2144424D01*
X2352895Y-2143293D01*
X2350438Y-2141651D01*
X2348349Y-2139562D01*
X2346707Y-2137105D01*
X2345576Y-2134375D01*
X2345000Y-2131477D01*
X2345000Y-2128523D01*
X2345576Y-2125625D01*
X2346707Y-2122895D01*
X2348349Y-2120438D01*
X2350438Y-2118349D01*
X2352895Y-2116707D01*
X2355625Y-2115576D01*
X2358523Y-2115000D01*
X2361477Y-2115000D01*
X2364375Y-2115576D01*
X2364375Y-2115576D01*
G37*
G36*
X2444375Y-2115576D02*
X2447105Y-2116707D01*
X2449562Y-2118349D01*
X2451651Y-2120438D01*
X2453293Y-2122895D01*
X2454424Y-2125625D01*
X2455000Y-2128523D01*
X2455000Y-2131477D01*
X2454424Y-2134375D01*
X2453293Y-2137105D01*
X2451651Y-2139562D01*
X2449562Y-2141651D01*
X2447105Y-2143293D01*
X2444375Y-2144424D01*
X2441477Y-2145000D01*
X2438523Y-2145000D01*
X2435625Y-2144424D01*
X2432895Y-2143293D01*
X2430438Y-2141651D01*
X2428349Y-2139562D01*
X2426707Y-2137105D01*
X2425576Y-2134375D01*
X2425000Y-2131477D01*
X2425000Y-2128523D01*
X2425576Y-2125625D01*
X2426707Y-2122895D01*
X2428349Y-2120438D01*
X2430438Y-2118349D01*
X2432895Y-2116707D01*
X2435625Y-2115576D01*
X2438523Y-2115000D01*
X2441477Y-2115000D01*
X2444375Y-2115576D01*
X2444375Y-2115576D01*
G37*
G36*
X2524375Y-2115576D02*
X2527105Y-2116707D01*
X2529562Y-2118349D01*
X2531651Y-2120438D01*
X2533293Y-2122895D01*
X2534424Y-2125625D01*
X2535000Y-2128523D01*
X2535000Y-2131477D01*
X2534424Y-2134375D01*
X2533293Y-2137105D01*
X2531651Y-2139562D01*
X2529562Y-2141651D01*
X2527105Y-2143293D01*
X2524375Y-2144424D01*
X2521477Y-2145000D01*
X2518523Y-2145000D01*
X2515625Y-2144424D01*
X2512895Y-2143293D01*
X2510438Y-2141651D01*
X2508349Y-2139562D01*
X2506707Y-2137105D01*
X2505576Y-2134375D01*
X2505000Y-2131477D01*
X2505000Y-2128523D01*
X2505576Y-2125625D01*
X2506707Y-2122895D01*
X2508349Y-2120438D01*
X2510438Y-2118349D01*
X2512895Y-2116707D01*
X2515625Y-2115576D01*
X2518523Y-2115000D01*
X2521477Y-2115000D01*
X2524375Y-2115576D01*
X2524375Y-2115576D01*
G37*
G36*
X2116668Y-2064037D02*
X2123947Y-2067052D01*
X2130499Y-2071430D01*
X2136070Y-2077001D01*
X2140448Y-2083553D01*
X2143463Y-2090832D01*
X2145000Y-2098560D01*
X2145000Y-2106440D01*
X2143463Y-2114168D01*
X2140448Y-2121447D01*
X2136070Y-2127999D01*
X2130499Y-2133570D01*
X2123947Y-2137948D01*
X2116668Y-2140963D01*
X2108940Y-2142500D01*
X2101060Y-2142500D01*
X2093332Y-2140963D01*
X2086053Y-2137948D01*
X2079501Y-2133570D01*
X2073930Y-2127999D01*
X2069552Y-2121447D01*
X2066537Y-2114168D01*
X2065000Y-2106440D01*
X2065000Y-2098560D01*
X2066537Y-2090832D01*
X2069552Y-2083553D01*
X2073930Y-2077001D01*
X2079501Y-2071430D01*
X2086053Y-2067052D01*
X2093332Y-2064037D01*
X2101060Y-2062500D01*
X2108940Y-2062500D01*
X2116668Y-2064037D01*
X2116668Y-2064037D01*
G37*
G36*
X1989168Y-2059037D02*
X1996447Y-2062052D01*
X2002998Y-2066430D01*
X2008570Y-2072001D01*
X2012947Y-2078553D01*
X2015963Y-2085832D01*
X2017500Y-2093560D01*
X2017500Y-2101440D01*
X2015963Y-2109168D01*
X2012947Y-2116447D01*
X2008570Y-2122999D01*
X2002998Y-2128570D01*
X1996447Y-2132948D01*
X1989168Y-2135963D01*
X1981440Y-2137500D01*
X1973560Y-2137500D01*
X1965832Y-2135963D01*
X1958553Y-2132948D01*
X1952001Y-2128570D01*
X1946430Y-2122999D01*
X1942052Y-2116447D01*
X1939037Y-2109168D01*
X1937500Y-2101440D01*
X1937500Y-2093560D01*
X1939037Y-2085832D01*
X1942052Y-2078553D01*
X1946430Y-2072001D01*
X1952001Y-2066430D01*
X1958553Y-2062052D01*
X1965832Y-2059037D01*
X1973560Y-2057500D01*
X1981440Y-2057500D01*
X1989168Y-2059037D01*
X1989168Y-2059037D01*
G37*
G36*
X1771668Y-2056537D02*
X1778947Y-2059552D01*
X1785498Y-2063930D01*
X1791070Y-2069501D01*
X1795447Y-2076053D01*
X1798463Y-2083332D01*
X1800000Y-2091060D01*
X1800000Y-2098940D01*
X1798463Y-2106668D01*
X1795447Y-2113947D01*
X1791070Y-2120499D01*
X1785498Y-2126070D01*
X1778947Y-2130448D01*
X1771668Y-2133463D01*
X1763940Y-2135000D01*
X1756060Y-2135000D01*
X1748332Y-2133463D01*
X1741053Y-2130448D01*
X1734501Y-2126070D01*
X1728930Y-2120499D01*
X1724552Y-2113947D01*
X1721537Y-2106668D01*
X1720000Y-2098940D01*
X1720000Y-2091060D01*
X1721537Y-2083332D01*
X1724552Y-2076053D01*
X1728930Y-2069501D01*
X1734501Y-2063930D01*
X1741053Y-2059552D01*
X1748332Y-2056537D01*
X1756060Y-2055000D01*
X1763940Y-2055000D01*
X1771668Y-2056537D01*
X1771668Y-2056537D01*
G37*
G36*
X2295943Y-2062728D02*
X2298051Y-2063367D01*
X2299994Y-2064406D01*
X2301696Y-2065804D01*
X2303094Y-2067506D01*
X2304133Y-2069449D01*
X2304772Y-2071557D01*
X2305000Y-2073873D01*
X2305000Y-2107127D01*
X2304772Y-2109443D01*
X2304133Y-2111551D01*
X2303094Y-2113494D01*
X2301696Y-2115196D01*
X2299994Y-2116594D01*
X2298051Y-2117633D01*
X2295943Y-2118272D01*
X2293627Y-2118500D01*
X2266373Y-2118500D01*
X2264057Y-2118272D01*
X2261950Y-2117633D01*
X2260007Y-2116594D01*
X2258304Y-2115196D01*
X2256906Y-2113494D01*
X2255868Y-2111551D01*
X2255228Y-2109443D01*
X2255000Y-2107127D01*
X2255000Y-2073873D01*
X2255228Y-2071557D01*
X2255868Y-2069449D01*
X2256906Y-2067506D01*
X2258304Y-2065804D01*
X2260007Y-2064406D01*
X2261950Y-2063367D01*
X2264057Y-2062728D01*
X2266373Y-2062500D01*
X2293627Y-2062500D01*
X2295943Y-2062728D01*
X2295943Y-2062728D01*
G37*
G36*
X2225943Y-2062728D02*
X2228051Y-2063367D01*
X2229994Y-2064406D01*
X2231696Y-2065804D01*
X2233094Y-2067506D01*
X2234133Y-2069449D01*
X2234772Y-2071557D01*
X2235000Y-2073873D01*
X2235000Y-2107127D01*
X2234772Y-2109443D01*
X2234133Y-2111551D01*
X2233094Y-2113494D01*
X2231696Y-2115196D01*
X2229994Y-2116594D01*
X2228051Y-2117633D01*
X2225943Y-2118272D01*
X2223627Y-2118500D01*
X2196373Y-2118500D01*
X2194057Y-2118272D01*
X2191950Y-2117633D01*
X2190007Y-2116594D01*
X2188304Y-2115196D01*
X2186906Y-2113494D01*
X2185868Y-2111551D01*
X2185228Y-2109443D01*
X2185000Y-2107127D01*
X2185000Y-2073873D01*
X2185228Y-2071557D01*
X2185868Y-2069449D01*
X2186906Y-2067506D01*
X2188304Y-2065804D01*
X2190007Y-2064406D01*
X2191950Y-2063367D01*
X2194057Y-2062728D01*
X2196373Y-2062500D01*
X2223627Y-2062500D01*
X2225943Y-2062728D01*
X2225943Y-2062728D01*
G37*
G36*
X1864364Y-2077646D02*
X1865674Y-2078044D01*
X1866882Y-2078690D01*
X1867941Y-2079559D01*
X1868810Y-2080618D01*
X1869456Y-2081826D01*
X1869854Y-2083136D01*
X1870012Y-2084745D01*
X1870108Y-2085226D01*
X1870295Y-2085678D01*
X1870567Y-2086086D01*
X1870914Y-2086432D01*
X1871321Y-2086705D01*
X1871774Y-2086892D01*
X1872255Y-2086988D01*
X1872745Y-2086988D01*
X1873226Y-2086892D01*
X1873678Y-2086705D01*
X1874086Y-2086433D01*
X1874432Y-2086086D01*
X1874705Y-2085678D01*
X1874892Y-2085226D01*
X1874988Y-2084745D01*
X1875146Y-2083136D01*
X1875544Y-2081826D01*
X1876190Y-2080618D01*
X1877059Y-2079559D01*
X1878118Y-2078690D01*
X1879326Y-2078044D01*
X1880636Y-2077646D01*
X1882123Y-2077500D01*
X1900877Y-2077500D01*
X1902364Y-2077646D01*
X1903674Y-2078044D01*
X1904882Y-2078690D01*
X1905941Y-2079559D01*
X1906810Y-2080618D01*
X1907456Y-2081826D01*
X1907854Y-2083136D01*
X1908000Y-2084623D01*
X1908000Y-2110377D01*
X1907854Y-2111864D01*
X1907456Y-2113174D01*
X1906810Y-2114382D01*
X1905941Y-2115441D01*
X1904882Y-2116310D01*
X1903674Y-2116956D01*
X1902364Y-2117354D01*
X1900877Y-2117500D01*
X1882123Y-2117500D01*
X1880636Y-2117354D01*
X1879326Y-2116956D01*
X1878118Y-2116310D01*
X1877059Y-2115441D01*
X1876190Y-2114382D01*
X1875544Y-2113174D01*
X1875146Y-2111864D01*
X1874988Y-2110255D01*
X1874892Y-2109774D01*
X1874705Y-2109322D01*
X1874433Y-2108914D01*
X1874086Y-2108568D01*
X1873678Y-2108295D01*
X1873226Y-2108108D01*
X1872745Y-2108012D01*
X1872255Y-2108012D01*
X1871774Y-2108108D01*
X1871322Y-2108295D01*
X1870914Y-2108567D01*
X1870567Y-2108914D01*
X1870295Y-2109322D01*
X1870108Y-2109774D01*
X1870012Y-2110255D01*
X1869854Y-2111864D01*
X1869456Y-2113174D01*
X1868810Y-2114382D01*
X1867941Y-2115441D01*
X1866882Y-2116310D01*
X1865674Y-2116956D01*
X1864364Y-2117354D01*
X1862877Y-2117500D01*
X1844123Y-2117500D01*
X1842636Y-2117354D01*
X1841326Y-2116956D01*
X1840118Y-2116310D01*
X1839059Y-2115441D01*
X1838190Y-2114382D01*
X1837544Y-2113174D01*
X1837146Y-2111864D01*
X1837000Y-2110377D01*
X1837000Y-2084623D01*
X1837146Y-2083136D01*
X1837544Y-2081826D01*
X1838190Y-2080618D01*
X1839059Y-2079559D01*
X1840118Y-2078690D01*
X1841326Y-2078044D01*
X1842636Y-2077646D01*
X1844123Y-2077500D01*
X1862877Y-2077500D01*
X1864364Y-2077646D01*
X1864364Y-2077646D01*
G37*
G36*
X3012500Y-2107500D02*
X2827500Y-2107500D01*
X2827500Y-1672500D01*
X3012500Y-1672500D01*
X3012500Y-2107500D01*
X3012500Y-2107500D01*
G37*
G36*
X2444813Y-2074134D02*
X2446572Y-2074863D01*
X2447816Y-2075378D01*
X2448826Y-2076053D01*
X2450518Y-2077184D01*
X2452816Y-2079482D01*
X2452817Y-2079482D01*
X2454622Y-2082184D01*
X2454916Y-2082895D01*
X2455866Y-2085187D01*
X2456500Y-2088375D01*
X2456500Y-2091625D01*
X2455866Y-2094813D01*
X2455137Y-2096572D01*
X2454622Y-2097816D01*
X2453871Y-2098940D01*
X2452816Y-2100518D01*
X2450518Y-2102816D01*
X2449805Y-2103293D01*
X2447816Y-2104622D01*
X2446903Y-2105000D01*
X2444813Y-2105866D01*
X2441625Y-2106500D01*
X2438375Y-2106500D01*
X2435187Y-2105866D01*
X2433097Y-2105000D01*
X2432184Y-2104622D01*
X2430195Y-2103293D01*
X2429482Y-2102816D01*
X2427184Y-2100518D01*
X2426129Y-2098940D01*
X2425378Y-2097816D01*
X2424863Y-2096572D01*
X2424134Y-2094813D01*
X2423500Y-2091625D01*
X2423500Y-2088375D01*
X2424134Y-2085187D01*
X2425084Y-2082895D01*
X2425378Y-2082184D01*
X2427184Y-2079482D01*
X2427184Y-2079482D01*
X2429482Y-2077184D01*
X2431174Y-2076053D01*
X2432184Y-2075378D01*
X2433428Y-2074863D01*
X2435187Y-2074134D01*
X2438375Y-2073500D01*
X2441625Y-2073500D01*
X2444813Y-2074134D01*
X2444813Y-2074134D01*
G37*
G36*
X2524375Y-2075576D02*
X2527105Y-2076707D01*
X2529562Y-2078349D01*
X2531651Y-2080438D01*
X2533293Y-2082895D01*
X2534424Y-2085625D01*
X2535000Y-2088523D01*
X2535000Y-2091477D01*
X2534424Y-2094375D01*
X2533293Y-2097105D01*
X2531651Y-2099562D01*
X2529562Y-2101651D01*
X2527105Y-2103293D01*
X2524375Y-2104424D01*
X2521477Y-2105000D01*
X2518523Y-2105000D01*
X2515625Y-2104424D01*
X2512895Y-2103293D01*
X2510438Y-2101651D01*
X2508349Y-2099562D01*
X2506707Y-2097105D01*
X2505576Y-2094375D01*
X2505000Y-2091477D01*
X2505000Y-2088523D01*
X2505576Y-2085625D01*
X2506707Y-2082895D01*
X2508349Y-2080438D01*
X2510438Y-2078349D01*
X2512895Y-2076707D01*
X2515625Y-2075576D01*
X2518523Y-2075000D01*
X2521477Y-2075000D01*
X2524375Y-2075576D01*
X2524375Y-2075576D01*
G37*
G36*
X2484375Y-2075576D02*
X2487105Y-2076707D01*
X2489562Y-2078349D01*
X2491651Y-2080438D01*
X2493293Y-2082895D01*
X2494424Y-2085625D01*
X2495000Y-2088523D01*
X2495000Y-2091477D01*
X2494424Y-2094375D01*
X2493293Y-2097105D01*
X2491651Y-2099562D01*
X2489562Y-2101651D01*
X2487105Y-2103293D01*
X2484375Y-2104424D01*
X2481477Y-2105000D01*
X2478523Y-2105000D01*
X2475625Y-2104424D01*
X2472895Y-2103293D01*
X2470438Y-2101651D01*
X2468349Y-2099562D01*
X2466707Y-2097105D01*
X2465576Y-2094375D01*
X2465000Y-2091477D01*
X2465000Y-2088523D01*
X2465576Y-2085625D01*
X2466707Y-2082895D01*
X2468349Y-2080438D01*
X2470438Y-2078349D01*
X2472895Y-2076707D01*
X2475625Y-2075576D01*
X2478523Y-2075000D01*
X2481477Y-2075000D01*
X2484375Y-2075576D01*
X2484375Y-2075576D01*
G37*
G36*
X2404375Y-2075576D02*
X2407105Y-2076707D01*
X2409562Y-2078349D01*
X2411651Y-2080438D01*
X2413293Y-2082895D01*
X2414424Y-2085625D01*
X2415000Y-2088523D01*
X2415000Y-2091477D01*
X2414424Y-2094375D01*
X2413293Y-2097105D01*
X2411651Y-2099562D01*
X2409562Y-2101651D01*
X2407105Y-2103293D01*
X2404375Y-2104424D01*
X2401477Y-2105000D01*
X2398523Y-2105000D01*
X2395625Y-2104424D01*
X2392895Y-2103293D01*
X2390438Y-2101651D01*
X2388349Y-2099562D01*
X2386707Y-2097105D01*
X2385576Y-2094375D01*
X2385000Y-2091477D01*
X2385000Y-2088523D01*
X2385576Y-2085625D01*
X2386707Y-2082895D01*
X2388349Y-2080438D01*
X2390438Y-2078349D01*
X2392895Y-2076707D01*
X2395625Y-2075576D01*
X2398523Y-2075000D01*
X2401477Y-2075000D01*
X2404375Y-2075576D01*
X2404375Y-2075576D01*
G37*
G36*
X2364375Y-2075576D02*
X2367105Y-2076707D01*
X2369562Y-2078349D01*
X2371651Y-2080438D01*
X2373293Y-2082895D01*
X2374424Y-2085625D01*
X2375000Y-2088523D01*
X2375000Y-2091477D01*
X2374424Y-2094375D01*
X2373293Y-2097105D01*
X2371651Y-2099562D01*
X2369562Y-2101651D01*
X2367105Y-2103293D01*
X2364375Y-2104424D01*
X2361477Y-2105000D01*
X2358523Y-2105000D01*
X2355625Y-2104424D01*
X2352895Y-2103293D01*
X2350438Y-2101651D01*
X2348349Y-2099562D01*
X2346707Y-2097105D01*
X2345576Y-2094375D01*
X2345000Y-2091477D01*
X2345000Y-2088523D01*
X2345576Y-2085625D01*
X2346707Y-2082895D01*
X2348349Y-2080438D01*
X2350438Y-2078349D01*
X2352895Y-2076707D01*
X2355625Y-2075576D01*
X2358523Y-2075000D01*
X2361477Y-2075000D01*
X2364375Y-2075576D01*
X2364375Y-2075576D01*
G37*
G36*
X2746864Y-1999646D02*
X2748174Y-2000044D01*
X2749382Y-2000690D01*
X2750441Y-2001559D01*
X2751310Y-2002618D01*
X2751956Y-2003826D01*
X2752354Y-2005136D01*
X2752500Y-2006623D01*
X2752500Y-2025377D01*
X2752354Y-2026864D01*
X2751956Y-2028174D01*
X2751310Y-2029382D01*
X2750441Y-2030441D01*
X2749382Y-2031310D01*
X2748174Y-2031956D01*
X2746864Y-2032354D01*
X2745255Y-2032512D01*
X2744774Y-2032608D01*
X2744322Y-2032795D01*
X2743914Y-2033067D01*
X2743568Y-2033414D01*
X2743295Y-2033821D01*
X2743108Y-2034274D01*
X2743012Y-2034755D01*
X2743012Y-2035245D01*
X2743108Y-2035726D01*
X2743295Y-2036178D01*
X2743567Y-2036586D01*
X2743914Y-2036932D01*
X2744322Y-2037205D01*
X2744774Y-2037392D01*
X2745255Y-2037488D01*
X2746864Y-2037646D01*
X2748174Y-2038044D01*
X2749382Y-2038690D01*
X2750441Y-2039559D01*
X2751310Y-2040618D01*
X2751956Y-2041826D01*
X2752354Y-2043136D01*
X2752500Y-2044623D01*
X2752500Y-2063377D01*
X2752354Y-2064864D01*
X2751956Y-2066174D01*
X2751310Y-2067382D01*
X2750441Y-2068441D01*
X2749382Y-2069310D01*
X2748174Y-2069956D01*
X2746864Y-2070354D01*
X2745377Y-2070500D01*
X2719623Y-2070500D01*
X2718136Y-2070354D01*
X2716826Y-2069956D01*
X2715618Y-2069310D01*
X2714559Y-2068441D01*
X2713690Y-2067382D01*
X2713044Y-2066174D01*
X2712646Y-2064864D01*
X2712500Y-2063377D01*
X2712500Y-2044623D01*
X2712646Y-2043136D01*
X2713044Y-2041826D01*
X2713690Y-2040618D01*
X2714559Y-2039559D01*
X2715618Y-2038690D01*
X2716826Y-2038044D01*
X2718136Y-2037646D01*
X2719745Y-2037488D01*
X2720226Y-2037392D01*
X2720678Y-2037205D01*
X2721086Y-2036933D01*
X2721433Y-2036586D01*
X2721705Y-2036178D01*
X2721892Y-2035726D01*
X2721988Y-2035245D01*
X2721988Y-2034755D01*
X2721892Y-2034274D01*
X2721705Y-2033822D01*
X2721433Y-2033414D01*
X2721086Y-2033067D01*
X2720679Y-2032795D01*
X2720226Y-2032608D01*
X2719745Y-2032512D01*
X2718136Y-2032354D01*
X2716826Y-2031956D01*
X2715618Y-2031310D01*
X2714559Y-2030441D01*
X2713690Y-2029382D01*
X2713044Y-2028174D01*
X2712646Y-2026864D01*
X2712500Y-2025377D01*
X2712500Y-2006623D01*
X2712646Y-2005136D01*
X2713044Y-2003826D01*
X2713690Y-2002618D01*
X2714559Y-2001559D01*
X2715618Y-2000690D01*
X2716826Y-2000044D01*
X2718136Y-1999646D01*
X2719623Y-1999500D01*
X2745377Y-1999500D01*
X2746864Y-1999646D01*
X2746864Y-1999646D01*
G37*
G36*
X2680943Y-2007728D02*
X2683051Y-2008367D01*
X2684994Y-2009406D01*
X2686696Y-2010804D01*
X2688094Y-2012506D01*
X2689133Y-2014449D01*
X2689772Y-2016557D01*
X2690000Y-2018873D01*
X2690000Y-2046127D01*
X2689772Y-2048443D01*
X2689133Y-2050550D01*
X2688094Y-2052493D01*
X2686696Y-2054196D01*
X2684994Y-2055594D01*
X2683051Y-2056632D01*
X2680943Y-2057272D01*
X2678627Y-2057500D01*
X2645373Y-2057500D01*
X2643057Y-2057272D01*
X2640950Y-2056632D01*
X2639007Y-2055594D01*
X2637304Y-2054196D01*
X2635906Y-2052493D01*
X2634868Y-2050550D01*
X2634228Y-2048443D01*
X2634000Y-2046127D01*
X2634000Y-2018873D01*
X2634228Y-2016557D01*
X2634868Y-2014449D01*
X2635906Y-2012506D01*
X2637304Y-2010804D01*
X2639007Y-2009406D01*
X2640950Y-2008367D01*
X2643057Y-2007728D01*
X2645373Y-2007500D01*
X2678627Y-2007500D01*
X2680943Y-2007728D01*
X2680943Y-2007728D01*
G37*
G36*
X2616943Y-2007728D02*
X2619051Y-2008367D01*
X2620994Y-2009406D01*
X2622696Y-2010804D01*
X2624094Y-2012506D01*
X2625133Y-2014449D01*
X2625772Y-2016557D01*
X2626000Y-2018873D01*
X2626000Y-2046127D01*
X2625772Y-2048443D01*
X2625133Y-2050550D01*
X2624094Y-2052493D01*
X2622696Y-2054196D01*
X2620994Y-2055594D01*
X2619051Y-2056632D01*
X2616943Y-2057272D01*
X2614627Y-2057500D01*
X2581373Y-2057500D01*
X2579057Y-2057272D01*
X2576950Y-2056632D01*
X2575007Y-2055594D01*
X2573304Y-2054196D01*
X2571906Y-2052493D01*
X2570868Y-2050550D01*
X2570228Y-2048443D01*
X2570000Y-2046127D01*
X2570000Y-2018873D01*
X2570228Y-2016557D01*
X2570868Y-2014449D01*
X2571906Y-2012506D01*
X2573304Y-2010804D01*
X2575007Y-2009406D01*
X2576950Y-2008367D01*
X2579057Y-2007728D01*
X2581373Y-2007500D01*
X2614627Y-2007500D01*
X2616943Y-2007728D01*
X2616943Y-2007728D01*
G37*
G36*
X2516668Y-1961537D02*
X2523947Y-1964552D01*
X2530499Y-1968930D01*
X2536070Y-1974501D01*
X2540448Y-1981053D01*
X2543463Y-1988332D01*
X2545000Y-1996060D01*
X2545000Y-2003940D01*
X2543463Y-2011668D01*
X2540448Y-2018947D01*
X2536070Y-2025498D01*
X2530499Y-2031070D01*
X2523947Y-2035447D01*
X2516668Y-2038463D01*
X2508940Y-2040000D01*
X2501060Y-2040000D01*
X2493332Y-2038463D01*
X2486053Y-2035447D01*
X2479502Y-2031070D01*
X2473930Y-2025498D01*
X2469553Y-2018947D01*
X2466537Y-2011668D01*
X2465000Y-2003940D01*
X2465000Y-1996060D01*
X2466537Y-1988332D01*
X2469553Y-1981053D01*
X2473930Y-1974501D01*
X2479502Y-1968930D01*
X2486053Y-1964552D01*
X2493332Y-1961537D01*
X2501060Y-1960000D01*
X2508940Y-1960000D01*
X2516668Y-1961537D01*
X2516668Y-1961537D01*
G37*
G36*
X2406668Y-1961537D02*
X2413947Y-1964552D01*
X2420499Y-1968930D01*
X2426070Y-1974501D01*
X2430448Y-1981053D01*
X2433463Y-1988332D01*
X2435000Y-1996060D01*
X2435000Y-2003940D01*
X2433463Y-2011668D01*
X2430448Y-2018947D01*
X2426070Y-2025498D01*
X2420499Y-2031070D01*
X2413947Y-2035447D01*
X2406668Y-2038463D01*
X2398940Y-2040000D01*
X2391060Y-2040000D01*
X2383332Y-2038463D01*
X2376053Y-2035447D01*
X2369502Y-2031070D01*
X2363930Y-2025498D01*
X2359553Y-2018947D01*
X2356537Y-2011668D01*
X2355000Y-2003940D01*
X2355000Y-1996060D01*
X2356537Y-1988332D01*
X2359553Y-1981053D01*
X2363930Y-1974501D01*
X2369502Y-1968930D01*
X2376053Y-1964552D01*
X2383332Y-1961537D01*
X2391060Y-1960000D01*
X2398940Y-1960000D01*
X2406668Y-1961537D01*
X2406668Y-1961537D01*
G37*
G36*
X1789943Y-1973728D02*
X1792050Y-1974367D01*
X1793993Y-1975406D01*
X1795696Y-1976804D01*
X1797094Y-1978506D01*
X1798132Y-1980449D01*
X1798772Y-1982557D01*
X1799000Y-1984873D01*
X1799000Y-2018127D01*
X1798772Y-2020443D01*
X1798132Y-2022550D01*
X1797094Y-2024493D01*
X1795696Y-2026196D01*
X1793993Y-2027594D01*
X1792050Y-2028632D01*
X1789943Y-2029272D01*
X1787627Y-2029500D01*
X1760373Y-2029500D01*
X1758057Y-2029272D01*
X1755949Y-2028632D01*
X1754006Y-2027594D01*
X1752304Y-2026196D01*
X1750906Y-2024493D01*
X1749867Y-2022550D01*
X1749228Y-2020443D01*
X1749000Y-2018127D01*
X1749000Y-1984873D01*
X1749228Y-1982557D01*
X1749867Y-1980449D01*
X1750906Y-1978506D01*
X1752304Y-1976804D01*
X1754006Y-1975406D01*
X1755949Y-1974367D01*
X1758057Y-1973728D01*
X1760373Y-1973500D01*
X1787627Y-1973500D01*
X1789943Y-1973728D01*
X1789943Y-1973728D01*
G37*
G36*
X2177500Y-2029000D02*
X2087500Y-2029000D01*
X2087500Y-1929000D01*
X2177500Y-1929000D01*
X2177500Y-2029000D01*
X2177500Y-2029000D01*
G37*
G36*
X2322500Y-2029000D02*
X2232500Y-2029000D01*
X2232500Y-1929000D01*
X2322500Y-1929000D01*
X2322500Y-2029000D01*
X2322500Y-2029000D01*
G37*
G36*
X2041943Y-1972228D02*
X2044050Y-1972867D01*
X2045993Y-1973906D01*
X2047696Y-1975304D01*
X2049094Y-1977006D01*
X2050132Y-1978949D01*
X2050772Y-1981057D01*
X2051000Y-1983373D01*
X2051000Y-2016627D01*
X2050772Y-2018943D01*
X2050132Y-2021050D01*
X2049094Y-2022993D01*
X2047696Y-2024696D01*
X2045993Y-2026094D01*
X2044050Y-2027132D01*
X2041943Y-2027772D01*
X2039627Y-2028000D01*
X2012373Y-2028000D01*
X2010057Y-2027772D01*
X2007949Y-2027132D01*
X2006006Y-2026094D01*
X2004304Y-2024696D01*
X2002906Y-2022993D01*
X2001867Y-2021050D01*
X2001228Y-2018943D01*
X2001000Y-2016627D01*
X2001000Y-1983373D01*
X2001228Y-1981057D01*
X2001867Y-1978949D01*
X2002906Y-1977006D01*
X2004304Y-1975304D01*
X2006006Y-1973906D01*
X2007949Y-1972867D01*
X2010057Y-1972228D01*
X2012373Y-1972000D01*
X2039627Y-1972000D01*
X2041943Y-1972228D01*
X2041943Y-1972228D01*
G37*
G36*
X1961000Y-1992000D02*
X1961000Y-1992000D01*
X1961000Y-1992000D01*
X1961000Y-1992000D01*
X1961012Y-1992122D01*
X1961012Y-2012878D01*
X1961000Y-2013000D01*
X1961000Y-2013000D01*
X1961000Y-2013000D01*
X1961000Y-2013000D01*
X1961000Y-2013000D01*
X1960878Y-2013012D01*
X1925122Y-2013012D01*
X1925000Y-2013000D01*
X1925000Y-2013000D01*
X1925000Y-2013000D01*
X1925000Y-2013000D01*
X1925000Y-2013000D01*
X1924988Y-2012878D01*
X1924988Y-2010122D01*
X1925000Y-2010000D01*
X1925000Y-2010000D01*
X1925000Y-2009999D01*
X1925078Y-2009905D01*
X1942905Y-1992078D01*
X1942999Y-1992000D01*
X1943000Y-1992000D01*
X1943000Y-1992000D01*
X1943000Y-1992000D01*
X1943122Y-1991988D01*
X1960878Y-1991988D01*
X1961000Y-1992000D01*
X1961000Y-1992000D01*
G37*
G36*
X1857000Y-1992000D02*
X1857000Y-1992000D01*
X1857000Y-1992000D01*
X1857000Y-1992000D01*
X1857095Y-1992078D01*
X1874922Y-2009905D01*
X1874999Y-2009999D01*
X1875000Y-2010000D01*
X1875000Y-2010000D01*
X1875012Y-2010122D01*
X1875012Y-2012878D01*
X1875000Y-2013000D01*
X1875000Y-2013000D01*
X1875000Y-2013000D01*
X1875000Y-2013000D01*
X1875000Y-2013000D01*
X1874878Y-2013012D01*
X1839122Y-2013012D01*
X1839000Y-2013000D01*
X1839000Y-2013000D01*
X1839000Y-2013000D01*
X1839000Y-2013000D01*
X1839000Y-2013000D01*
X1838988Y-2012878D01*
X1838988Y-1992122D01*
X1839000Y-1992000D01*
X1839000Y-1992000D01*
X1839000Y-1992000D01*
X1839000Y-1992000D01*
X1839122Y-1991988D01*
X1856878Y-1991988D01*
X1857000Y-1992000D01*
X1857000Y-1992000D01*
G37*
G36*
X1933941Y-1970000D02*
X1900000Y-2003941D01*
X1866059Y-1970000D01*
X1900000Y-1936059D01*
X1933941Y-1970000D01*
X1933941Y-1970000D01*
G37*
G36*
X2680943Y-1937728D02*
X2683051Y-1938367D01*
X2684994Y-1939406D01*
X2686696Y-1940804D01*
X2688094Y-1942506D01*
X2689133Y-1944449D01*
X2689772Y-1946557D01*
X2690000Y-1948873D01*
X2690000Y-1976127D01*
X2689772Y-1978443D01*
X2689133Y-1980550D01*
X2688094Y-1982493D01*
X2686696Y-1984196D01*
X2684994Y-1985594D01*
X2683051Y-1986632D01*
X2680943Y-1987272D01*
X2678627Y-1987500D01*
X2645373Y-1987500D01*
X2643057Y-1987272D01*
X2640950Y-1986632D01*
X2639007Y-1985594D01*
X2637304Y-1984196D01*
X2635906Y-1982493D01*
X2634868Y-1980550D01*
X2634228Y-1978443D01*
X2634000Y-1976127D01*
X2634000Y-1948873D01*
X2634228Y-1946557D01*
X2634868Y-1944449D01*
X2635906Y-1942506D01*
X2637304Y-1940804D01*
X2639007Y-1939406D01*
X2640950Y-1938367D01*
X2643057Y-1937728D01*
X2645373Y-1937500D01*
X2678627Y-1937500D01*
X2680943Y-1937728D01*
X2680943Y-1937728D01*
G37*
G36*
X2616943Y-1937728D02*
X2619051Y-1938367D01*
X2620994Y-1939406D01*
X2622696Y-1940804D01*
X2624094Y-1942506D01*
X2625133Y-1944449D01*
X2625772Y-1946557D01*
X2626000Y-1948873D01*
X2626000Y-1976127D01*
X2625772Y-1978443D01*
X2625133Y-1980550D01*
X2624094Y-1982493D01*
X2622696Y-1984196D01*
X2620994Y-1985594D01*
X2619051Y-1986632D01*
X2616943Y-1987272D01*
X2614627Y-1987500D01*
X2581373Y-1987500D01*
X2579057Y-1987272D01*
X2576950Y-1986632D01*
X2575007Y-1985594D01*
X2573304Y-1984196D01*
X2571906Y-1982493D01*
X2570868Y-1980550D01*
X2570228Y-1978443D01*
X2570000Y-1976127D01*
X2570000Y-1948873D01*
X2570228Y-1946557D01*
X2570868Y-1944449D01*
X2571906Y-1942506D01*
X2573304Y-1940804D01*
X2575007Y-1939406D01*
X2576950Y-1938367D01*
X2579057Y-1937728D01*
X2581373Y-1937500D01*
X2614627Y-1937500D01*
X2616943Y-1937728D01*
X2616943Y-1937728D01*
G37*
G36*
X1789943Y-1909728D02*
X1792050Y-1910367D01*
X1793993Y-1911406D01*
X1795696Y-1912804D01*
X1797094Y-1914506D01*
X1798132Y-1916449D01*
X1798772Y-1918557D01*
X1799000Y-1920873D01*
X1799000Y-1954127D01*
X1798772Y-1956443D01*
X1798132Y-1958550D01*
X1797094Y-1960493D01*
X1795696Y-1962196D01*
X1793993Y-1963594D01*
X1792050Y-1964632D01*
X1789943Y-1965272D01*
X1787627Y-1965500D01*
X1760373Y-1965500D01*
X1758057Y-1965272D01*
X1755949Y-1964632D01*
X1754006Y-1963594D01*
X1752304Y-1962196D01*
X1750906Y-1960493D01*
X1749867Y-1958550D01*
X1749228Y-1956443D01*
X1749000Y-1954127D01*
X1749000Y-1920873D01*
X1749228Y-1918557D01*
X1749867Y-1916449D01*
X1750906Y-1914506D01*
X1752304Y-1912804D01*
X1754006Y-1911406D01*
X1755949Y-1910367D01*
X1758057Y-1909728D01*
X1760373Y-1909500D01*
X1787627Y-1909500D01*
X1789943Y-1909728D01*
X1789943Y-1909728D01*
G37*
G36*
X2041943Y-1908228D02*
X2044050Y-1908867D01*
X2045993Y-1909906D01*
X2047696Y-1911304D01*
X2049094Y-1913006D01*
X2050132Y-1914949D01*
X2050772Y-1917057D01*
X2051000Y-1919373D01*
X2051000Y-1952627D01*
X2050772Y-1954943D01*
X2050132Y-1957050D01*
X2049094Y-1958993D01*
X2047696Y-1960696D01*
X2045993Y-1962094D01*
X2044050Y-1963132D01*
X2041943Y-1963772D01*
X2039627Y-1964000D01*
X2012373Y-1964000D01*
X2010057Y-1963772D01*
X2007949Y-1963132D01*
X2006006Y-1962094D01*
X2004304Y-1960696D01*
X2002906Y-1958993D01*
X2001867Y-1957050D01*
X2001228Y-1954943D01*
X2001000Y-1952627D01*
X2001000Y-1919373D01*
X2001228Y-1917057D01*
X2001867Y-1914949D01*
X2002906Y-1913006D01*
X2004304Y-1911304D01*
X2006006Y-1909906D01*
X2007949Y-1908867D01*
X2010057Y-1908228D01*
X2012373Y-1908000D01*
X2039627Y-1908000D01*
X2041943Y-1908228D01*
X2041943Y-1908228D01*
G37*
G36*
X1961000Y-1927000D02*
X1961000Y-1927000D01*
X1961000Y-1927000D01*
X1961000Y-1927000D01*
X1961012Y-1927122D01*
X1961012Y-1947878D01*
X1961000Y-1948000D01*
X1961000Y-1948000D01*
X1961000Y-1948000D01*
X1961000Y-1948000D01*
X1961000Y-1948000D01*
X1960878Y-1948012D01*
X1943122Y-1948012D01*
X1943000Y-1948000D01*
X1943000Y-1948000D01*
X1943000Y-1948000D01*
X1942999Y-1947999D01*
X1942905Y-1947922D01*
X1925078Y-1930095D01*
X1925000Y-1930000D01*
X1925000Y-1930000D01*
X1925000Y-1930000D01*
X1925000Y-1930000D01*
X1924988Y-1929878D01*
X1924988Y-1927122D01*
X1925000Y-1927000D01*
X1925000Y-1927000D01*
X1925000Y-1927000D01*
X1925000Y-1927000D01*
X1925122Y-1926988D01*
X1960878Y-1926988D01*
X1961000Y-1927000D01*
X1961000Y-1927000D01*
G37*
G36*
X1875000Y-1927000D02*
X1875000Y-1927000D01*
X1875000Y-1927000D01*
X1875000Y-1927000D01*
X1875012Y-1927122D01*
X1875012Y-1929878D01*
X1875000Y-1930000D01*
X1875000Y-1930000D01*
X1875000Y-1930000D01*
X1874999Y-1930000D01*
X1874922Y-1930095D01*
X1857095Y-1947922D01*
X1857000Y-1947999D01*
X1857000Y-1948000D01*
X1857000Y-1948000D01*
X1857000Y-1948000D01*
X1856878Y-1948012D01*
X1839122Y-1948012D01*
X1839000Y-1948000D01*
X1839000Y-1948000D01*
X1839000Y-1948000D01*
X1839000Y-1948000D01*
X1839000Y-1948000D01*
X1838988Y-1947878D01*
X1838988Y-1927122D01*
X1839000Y-1927000D01*
X1839000Y-1927000D01*
X1839000Y-1927000D01*
X1839000Y-1927000D01*
X1839122Y-1926988D01*
X1874878Y-1926988D01*
X1875000Y-1927000D01*
X1875000Y-1927000D01*
G37*
G36*
X2516668Y-1856537D02*
X2523947Y-1859552D01*
X2530499Y-1863930D01*
X2536070Y-1869501D01*
X2540448Y-1876053D01*
X2543463Y-1883332D01*
X2545000Y-1891060D01*
X2545000Y-1898940D01*
X2543463Y-1906668D01*
X2540448Y-1913947D01*
X2536070Y-1920498D01*
X2530499Y-1926070D01*
X2523947Y-1930447D01*
X2516668Y-1933463D01*
X2508940Y-1935000D01*
X2501060Y-1935000D01*
X2493332Y-1933463D01*
X2486053Y-1930447D01*
X2479502Y-1926070D01*
X2473930Y-1920498D01*
X2469553Y-1913947D01*
X2466537Y-1906668D01*
X2465000Y-1898940D01*
X2465000Y-1891060D01*
X2466537Y-1883332D01*
X2469553Y-1876053D01*
X2473930Y-1869501D01*
X2479502Y-1863930D01*
X2486053Y-1859552D01*
X2493332Y-1856537D01*
X2501060Y-1855000D01*
X2508940Y-1855000D01*
X2516668Y-1856537D01*
X2516668Y-1856537D01*
G37*
G36*
X2416668Y-1853037D02*
X2423947Y-1856052D01*
X2430499Y-1860430D01*
X2436070Y-1866001D01*
X2440448Y-1872553D01*
X2443463Y-1879832D01*
X2445000Y-1887560D01*
X2445000Y-1895440D01*
X2443463Y-1903168D01*
X2440448Y-1910447D01*
X2436070Y-1916998D01*
X2430499Y-1922570D01*
X2423947Y-1926947D01*
X2416668Y-1929963D01*
X2408940Y-1931500D01*
X2401060Y-1931500D01*
X2393332Y-1929963D01*
X2386053Y-1926947D01*
X2379502Y-1922570D01*
X2373930Y-1916998D01*
X2369553Y-1910447D01*
X2366537Y-1903168D01*
X2365000Y-1895440D01*
X2365000Y-1887560D01*
X2366537Y-1879832D01*
X2369553Y-1872553D01*
X2373930Y-1866001D01*
X2379502Y-1860430D01*
X2386053Y-1856052D01*
X2393332Y-1853037D01*
X2401060Y-1851500D01*
X2408940Y-1851500D01*
X2416668Y-1853037D01*
X2416668Y-1853037D01*
G37*
G36*
X2614364Y-1872646D02*
X2615674Y-1873044D01*
X2616882Y-1873690D01*
X2617941Y-1874559D01*
X2618810Y-1875618D01*
X2619456Y-1876826D01*
X2619854Y-1878136D01*
X2620012Y-1879745D01*
X2620108Y-1880226D01*
X2620295Y-1880678D01*
X2620567Y-1881086D01*
X2620914Y-1881432D01*
X2621322Y-1881705D01*
X2621774Y-1881892D01*
X2622255Y-1881988D01*
X2622745Y-1881988D01*
X2623226Y-1881892D01*
X2623678Y-1881705D01*
X2624086Y-1881433D01*
X2624433Y-1881086D01*
X2624705Y-1880678D01*
X2624892Y-1880226D01*
X2624988Y-1879745D01*
X2625146Y-1878136D01*
X2625544Y-1876826D01*
X2626190Y-1875618D01*
X2627059Y-1874559D01*
X2628118Y-1873690D01*
X2629326Y-1873044D01*
X2630636Y-1872646D01*
X2632123Y-1872500D01*
X2650877Y-1872500D01*
X2652364Y-1872646D01*
X2653674Y-1873044D01*
X2654882Y-1873690D01*
X2655941Y-1874559D01*
X2656810Y-1875618D01*
X2657456Y-1876826D01*
X2657854Y-1878136D01*
X2658000Y-1879623D01*
X2658000Y-1905377D01*
X2657854Y-1906864D01*
X2657456Y-1908174D01*
X2656810Y-1909382D01*
X2655941Y-1910441D01*
X2654882Y-1911310D01*
X2653674Y-1911956D01*
X2652364Y-1912354D01*
X2650877Y-1912500D01*
X2632123Y-1912500D01*
X2630636Y-1912354D01*
X2629326Y-1911956D01*
X2628118Y-1911310D01*
X2627059Y-1910441D01*
X2626190Y-1909382D01*
X2625544Y-1908174D01*
X2625146Y-1906864D01*
X2624988Y-1905255D01*
X2624892Y-1904774D01*
X2624705Y-1904322D01*
X2624433Y-1903914D01*
X2624086Y-1903567D01*
X2623679Y-1903295D01*
X2623226Y-1903108D01*
X2622745Y-1903012D01*
X2622255Y-1903012D01*
X2621774Y-1903108D01*
X2621322Y-1903295D01*
X2620914Y-1903567D01*
X2620568Y-1903914D01*
X2620295Y-1904321D01*
X2620108Y-1904774D01*
X2620012Y-1905255D01*
X2619854Y-1906864D01*
X2619456Y-1908174D01*
X2618810Y-1909382D01*
X2617941Y-1910441D01*
X2616882Y-1911310D01*
X2615674Y-1911956D01*
X2614364Y-1912354D01*
X2612877Y-1912500D01*
X2594123Y-1912500D01*
X2592636Y-1912354D01*
X2591326Y-1911956D01*
X2590118Y-1911310D01*
X2589059Y-1910441D01*
X2588190Y-1909382D01*
X2587544Y-1908174D01*
X2587146Y-1906864D01*
X2587000Y-1905377D01*
X2587000Y-1879623D01*
X2587146Y-1878136D01*
X2587544Y-1876826D01*
X2588190Y-1875618D01*
X2589059Y-1874559D01*
X2590118Y-1873690D01*
X2591326Y-1873044D01*
X2592636Y-1872646D01*
X2594123Y-1872500D01*
X2612877Y-1872500D01*
X2614364Y-1872646D01*
X2614364Y-1872646D01*
G37*
G36*
X2041943Y-1824728D02*
X2044050Y-1825367D01*
X2045993Y-1826406D01*
X2047696Y-1827804D01*
X2049094Y-1829506D01*
X2050132Y-1831449D01*
X2050772Y-1833557D01*
X2051000Y-1835873D01*
X2051000Y-1869127D01*
X2050772Y-1871443D01*
X2050132Y-1873550D01*
X2049094Y-1875493D01*
X2047696Y-1877196D01*
X2045993Y-1878594D01*
X2044050Y-1879632D01*
X2041943Y-1880272D01*
X2039627Y-1880500D01*
X2012373Y-1880500D01*
X2010057Y-1880272D01*
X2007949Y-1879632D01*
X2006006Y-1878594D01*
X2004304Y-1877196D01*
X2002906Y-1875493D01*
X2001867Y-1873550D01*
X2001228Y-1871443D01*
X2001000Y-1869127D01*
X2001000Y-1835873D01*
X2001228Y-1833557D01*
X2001867Y-1831449D01*
X2002906Y-1829506D01*
X2004304Y-1827804D01*
X2006006Y-1826406D01*
X2007949Y-1825367D01*
X2010057Y-1824728D01*
X2012373Y-1824500D01*
X2039627Y-1824500D01*
X2041943Y-1824728D01*
X2041943Y-1824728D01*
G37*
G36*
X1789943Y-1822728D02*
X1792050Y-1823367D01*
X1793993Y-1824406D01*
X1795696Y-1825804D01*
X1797094Y-1827506D01*
X1798132Y-1829449D01*
X1798772Y-1831557D01*
X1799000Y-1833873D01*
X1799000Y-1867127D01*
X1798772Y-1869443D01*
X1798132Y-1871550D01*
X1797094Y-1873493D01*
X1795696Y-1875196D01*
X1793993Y-1876594D01*
X1792050Y-1877632D01*
X1789943Y-1878272D01*
X1787627Y-1878500D01*
X1760373Y-1878500D01*
X1758057Y-1878272D01*
X1755949Y-1877632D01*
X1754006Y-1876594D01*
X1752304Y-1875196D01*
X1750906Y-1873493D01*
X1749867Y-1871550D01*
X1749228Y-1869443D01*
X1749000Y-1867127D01*
X1749000Y-1833873D01*
X1749228Y-1831557D01*
X1749867Y-1829449D01*
X1750906Y-1827506D01*
X1752304Y-1825804D01*
X1754006Y-1824406D01*
X1755949Y-1823367D01*
X1758057Y-1822728D01*
X1760373Y-1822500D01*
X1787627Y-1822500D01*
X1789943Y-1822728D01*
X1789943Y-1822728D01*
G37*
G36*
X1961000Y-1842000D02*
X1961000Y-1842000D01*
X1961000Y-1842000D01*
X1961000Y-1842000D01*
X1961012Y-1842122D01*
X1961012Y-1862878D01*
X1961000Y-1863000D01*
X1961000Y-1863000D01*
X1961000Y-1863000D01*
X1961000Y-1863000D01*
X1961000Y-1863000D01*
X1960878Y-1863012D01*
X1925122Y-1863012D01*
X1925000Y-1863000D01*
X1925000Y-1863000D01*
X1925000Y-1863000D01*
X1925000Y-1863000D01*
X1925000Y-1863000D01*
X1924988Y-1862878D01*
X1924988Y-1860122D01*
X1925000Y-1860000D01*
X1925000Y-1860000D01*
X1925000Y-1859999D01*
X1925078Y-1859905D01*
X1942905Y-1842078D01*
X1942999Y-1842000D01*
X1943000Y-1842000D01*
X1943000Y-1842000D01*
X1943000Y-1842000D01*
X1943122Y-1841988D01*
X1960878Y-1841988D01*
X1961000Y-1842000D01*
X1961000Y-1842000D01*
G37*
G36*
X1857000Y-1842000D02*
X1857000Y-1842000D01*
X1857000Y-1842000D01*
X1857000Y-1842000D01*
X1857095Y-1842078D01*
X1874922Y-1859905D01*
X1874999Y-1859999D01*
X1875000Y-1860000D01*
X1875000Y-1860000D01*
X1875012Y-1860122D01*
X1875012Y-1862878D01*
X1875000Y-1863000D01*
X1875000Y-1863000D01*
X1875000Y-1863000D01*
X1875000Y-1863000D01*
X1875000Y-1863000D01*
X1874878Y-1863012D01*
X1839122Y-1863012D01*
X1839000Y-1863000D01*
X1839000Y-1863000D01*
X1839000Y-1863000D01*
X1839000Y-1863000D01*
X1839000Y-1863000D01*
X1838988Y-1862878D01*
X1838988Y-1842122D01*
X1839000Y-1842000D01*
X1839000Y-1842000D01*
X1839000Y-1842000D01*
X1839000Y-1842000D01*
X1839122Y-1841988D01*
X1856878Y-1841988D01*
X1857000Y-1842000D01*
X1857000Y-1842000D01*
G37*
G36*
X1933941Y-1820000D02*
X1900000Y-1853941D01*
X1866059Y-1820000D01*
X1900000Y-1786059D01*
X1933941Y-1820000D01*
X1933941Y-1820000D01*
G37*
G36*
X2177500Y-1844000D02*
X2087500Y-1844000D01*
X2087500Y-1744000D01*
X2177500Y-1744000D01*
X2177500Y-1844000D01*
X2177500Y-1844000D01*
G37*
G36*
X2322500Y-1844000D02*
X2232500Y-1844000D01*
X2232500Y-1744000D01*
X2322500Y-1744000D01*
X2322500Y-1844000D01*
X2322500Y-1844000D01*
G37*
G36*
X2741668Y-1744037D02*
X2748947Y-1747052D01*
X2755499Y-1751430D01*
X2761070Y-1757001D01*
X2765448Y-1763553D01*
X2768463Y-1770832D01*
X2770000Y-1778560D01*
X2770000Y-1786440D01*
X2768463Y-1794168D01*
X2765448Y-1801447D01*
X2761070Y-1807998D01*
X2755499Y-1813570D01*
X2748947Y-1817947D01*
X2741668Y-1820963D01*
X2733940Y-1822500D01*
X2726060Y-1822500D01*
X2718332Y-1820963D01*
X2711053Y-1817947D01*
X2704502Y-1813570D01*
X2698930Y-1807998D01*
X2694553Y-1801447D01*
X2691537Y-1794168D01*
X2690000Y-1786440D01*
X2690000Y-1778560D01*
X2691537Y-1770832D01*
X2694553Y-1763553D01*
X2698930Y-1757001D01*
X2704502Y-1751430D01*
X2711053Y-1747052D01*
X2718332Y-1744037D01*
X2726060Y-1742500D01*
X2733940Y-1742500D01*
X2741668Y-1744037D01*
X2741668Y-1744037D01*
G37*
G36*
X2541668Y-1744037D02*
X2548947Y-1747052D01*
X2555499Y-1751430D01*
X2561070Y-1757001D01*
X2565448Y-1763553D01*
X2568463Y-1770832D01*
X2570000Y-1778560D01*
X2570000Y-1786440D01*
X2568463Y-1794168D01*
X2565448Y-1801447D01*
X2561070Y-1807998D01*
X2555499Y-1813570D01*
X2548947Y-1817947D01*
X2541668Y-1820963D01*
X2533940Y-1822500D01*
X2526060Y-1822500D01*
X2518332Y-1820963D01*
X2511053Y-1817947D01*
X2504502Y-1813570D01*
X2498930Y-1807998D01*
X2494553Y-1801447D01*
X2491537Y-1794168D01*
X2490000Y-1786440D01*
X2490000Y-1778560D01*
X2491537Y-1770832D01*
X2494553Y-1763553D01*
X2498930Y-1757001D01*
X2504502Y-1751430D01*
X2511053Y-1747052D01*
X2518332Y-1744037D01*
X2526060Y-1742500D01*
X2533940Y-1742500D01*
X2541668Y-1744037D01*
X2541668Y-1744037D01*
G37*
G36*
X2641668Y-1744037D02*
X2648947Y-1747052D01*
X2655499Y-1751430D01*
X2661070Y-1757001D01*
X2665448Y-1763553D01*
X2668463Y-1770832D01*
X2670000Y-1778560D01*
X2670000Y-1786440D01*
X2668463Y-1794168D01*
X2665448Y-1801447D01*
X2661070Y-1807998D01*
X2655499Y-1813570D01*
X2648947Y-1817947D01*
X2641668Y-1820963D01*
X2633940Y-1822500D01*
X2626060Y-1822500D01*
X2618332Y-1820963D01*
X2611053Y-1817947D01*
X2604502Y-1813570D01*
X2598930Y-1807998D01*
X2594553Y-1801447D01*
X2591537Y-1794168D01*
X2590000Y-1786440D01*
X2590000Y-1778560D01*
X2591537Y-1770832D01*
X2594553Y-1763553D01*
X2598930Y-1757001D01*
X2604502Y-1751430D01*
X2611053Y-1747052D01*
X2618332Y-1744037D01*
X2626060Y-1742500D01*
X2633940Y-1742500D01*
X2641668Y-1744037D01*
X2641668Y-1744037D01*
G37*
G36*
X2041943Y-1760728D02*
X2044050Y-1761367D01*
X2045993Y-1762406D01*
X2047696Y-1763804D01*
X2049094Y-1765506D01*
X2050132Y-1767449D01*
X2050772Y-1769557D01*
X2051000Y-1771873D01*
X2051000Y-1805127D01*
X2050772Y-1807443D01*
X2050132Y-1809550D01*
X2049094Y-1811493D01*
X2047696Y-1813196D01*
X2045993Y-1814594D01*
X2044050Y-1815632D01*
X2041943Y-1816272D01*
X2039627Y-1816500D01*
X2012373Y-1816500D01*
X2010057Y-1816272D01*
X2007949Y-1815632D01*
X2006006Y-1814594D01*
X2004304Y-1813196D01*
X2002906Y-1811493D01*
X2001867Y-1809550D01*
X2001228Y-1807443D01*
X2001000Y-1805127D01*
X2001000Y-1771873D01*
X2001228Y-1769557D01*
X2001867Y-1767449D01*
X2002906Y-1765506D01*
X2004304Y-1763804D01*
X2006006Y-1762406D01*
X2007949Y-1761367D01*
X2010057Y-1760728D01*
X2012373Y-1760500D01*
X2039627Y-1760500D01*
X2041943Y-1760728D01*
X2041943Y-1760728D01*
G37*
G36*
X1789943Y-1758728D02*
X1792050Y-1759367D01*
X1793993Y-1760406D01*
X1795696Y-1761804D01*
X1797094Y-1763506D01*
X1798132Y-1765449D01*
X1798772Y-1767557D01*
X1799000Y-1769873D01*
X1799000Y-1803127D01*
X1798772Y-1805443D01*
X1798132Y-1807550D01*
X1797094Y-1809493D01*
X1795696Y-1811196D01*
X1793993Y-1812594D01*
X1792050Y-1813632D01*
X1789943Y-1814272D01*
X1787627Y-1814500D01*
X1760373Y-1814500D01*
X1758057Y-1814272D01*
X1755949Y-1813632D01*
X1754006Y-1812594D01*
X1752304Y-1811196D01*
X1750906Y-1809493D01*
X1749867Y-1807550D01*
X1749228Y-1805443D01*
X1749000Y-1803127D01*
X1749000Y-1769873D01*
X1749228Y-1767557D01*
X1749867Y-1765449D01*
X1750906Y-1763506D01*
X1752304Y-1761804D01*
X1754006Y-1760406D01*
X1755949Y-1759367D01*
X1758057Y-1758728D01*
X1760373Y-1758500D01*
X1787627Y-1758500D01*
X1789943Y-1758728D01*
X1789943Y-1758728D01*
G37*
G36*
X2461943Y-1749728D02*
X2464051Y-1750367D01*
X2465994Y-1751406D01*
X2467696Y-1752804D01*
X2469094Y-1754506D01*
X2470133Y-1756449D01*
X2470772Y-1758557D01*
X2471000Y-1760873D01*
X2471000Y-1788127D01*
X2470772Y-1790443D01*
X2470133Y-1792550D01*
X2469094Y-1794493D01*
X2467696Y-1796196D01*
X2465994Y-1797594D01*
X2464051Y-1798632D01*
X2461943Y-1799272D01*
X2459627Y-1799500D01*
X2426373Y-1799500D01*
X2424057Y-1799272D01*
X2421950Y-1798632D01*
X2420007Y-1797594D01*
X2418304Y-1796196D01*
X2416906Y-1794493D01*
X2415868Y-1792550D01*
X2415228Y-1790443D01*
X2415000Y-1788127D01*
X2415000Y-1760873D01*
X2415228Y-1758557D01*
X2415868Y-1756449D01*
X2416906Y-1754506D01*
X2418304Y-1752804D01*
X2420007Y-1751406D01*
X2421950Y-1750367D01*
X2424057Y-1749728D01*
X2426373Y-1749500D01*
X2459627Y-1749500D01*
X2461943Y-1749728D01*
X2461943Y-1749728D01*
G37*
G36*
X2397943Y-1749728D02*
X2400051Y-1750367D01*
X2401994Y-1751406D01*
X2403696Y-1752804D01*
X2405094Y-1754506D01*
X2406133Y-1756449D01*
X2406772Y-1758557D01*
X2407000Y-1760873D01*
X2407000Y-1788127D01*
X2406772Y-1790443D01*
X2406133Y-1792550D01*
X2405094Y-1794493D01*
X2403696Y-1796196D01*
X2401994Y-1797594D01*
X2400051Y-1798632D01*
X2397943Y-1799272D01*
X2395627Y-1799500D01*
X2362373Y-1799500D01*
X2360057Y-1799272D01*
X2357950Y-1798632D01*
X2356007Y-1797594D01*
X2354304Y-1796196D01*
X2352906Y-1794493D01*
X2351868Y-1792550D01*
X2351228Y-1790443D01*
X2351000Y-1788127D01*
X2351000Y-1760873D01*
X2351228Y-1758557D01*
X2351868Y-1756449D01*
X2352906Y-1754506D01*
X2354304Y-1752804D01*
X2356007Y-1751406D01*
X2357950Y-1750367D01*
X2360057Y-1749728D01*
X2362373Y-1749500D01*
X2395627Y-1749500D01*
X2397943Y-1749728D01*
X2397943Y-1749728D01*
G37*
G36*
X1875000Y-1777000D02*
X1875000Y-1777000D01*
X1875000Y-1777000D01*
X1875000Y-1777000D01*
X1875012Y-1777122D01*
X1875012Y-1779878D01*
X1875000Y-1780000D01*
X1875000Y-1780000D01*
X1875000Y-1780000D01*
X1874999Y-1780000D01*
X1874922Y-1780095D01*
X1857095Y-1797922D01*
X1857000Y-1797999D01*
X1857000Y-1798000D01*
X1857000Y-1798000D01*
X1857000Y-1798000D01*
X1856878Y-1798012D01*
X1839122Y-1798012D01*
X1839000Y-1798000D01*
X1839000Y-1798000D01*
X1839000Y-1798000D01*
X1839000Y-1798000D01*
X1839000Y-1798000D01*
X1838988Y-1797878D01*
X1838988Y-1777122D01*
X1839000Y-1777000D01*
X1839000Y-1777000D01*
X1839000Y-1777000D01*
X1839000Y-1777000D01*
X1839122Y-1776988D01*
X1874878Y-1776988D01*
X1875000Y-1777000D01*
X1875000Y-1777000D01*
G37*
G36*
X1961000Y-1777000D02*
X1961000Y-1777000D01*
X1961000Y-1777000D01*
X1961000Y-1777000D01*
X1961012Y-1777122D01*
X1961012Y-1797878D01*
X1961000Y-1798000D01*
X1961000Y-1798000D01*
X1961000Y-1798000D01*
X1961000Y-1798000D01*
X1961000Y-1798000D01*
X1960878Y-1798012D01*
X1943122Y-1798012D01*
X1943000Y-1798000D01*
X1943000Y-1798000D01*
X1943000Y-1798000D01*
X1942999Y-1797999D01*
X1942905Y-1797922D01*
X1925078Y-1780095D01*
X1925000Y-1780000D01*
X1925000Y-1780000D01*
X1925000Y-1780000D01*
X1925000Y-1780000D01*
X1924988Y-1779878D01*
X1924988Y-1777122D01*
X1925000Y-1777000D01*
X1925000Y-1777000D01*
X1925000Y-1777000D01*
X1925000Y-1777000D01*
X1925122Y-1776988D01*
X1960878Y-1776988D01*
X1961000Y-1777000D01*
X1961000Y-1777000D01*
G37*
M02*
