G04 #@! TF.GenerationSoftware,KiCad,Pcbnew,(5.0.1)-4*
G04 #@! TF.CreationDate,2018-11-30T11:03:01-05:00*
G04 #@! TF.ProjectId,tomu-fpga,746F6D752D667067612E6B696361645F,rev?*
G04 #@! TF.SameCoordinates,Original*
G04 #@! TF.FileFunction,Copper,L2,Inr,Signal*
G04 #@! TF.FilePolarity,Positive*
%FSLAX46Y46*%
G04 Gerber Fmt 4.6, Leading zero omitted, Abs format (unit mm)*
G04 Created by KiCad (PCBNEW (5.0.1)-4) date 11/30/18 11:03:01*
%MOMM*%
%LPD*%
G01*
G04 APERTURE LIST*
G04 #@! TA.AperFunction,ViaPad*
%ADD10C,0.200000*%
G04 #@! TD*
G04 #@! TA.AperFunction,ViaPad*
%ADD11C,0.500000*%
G04 #@! TD*
G04 #@! TA.AperFunction,Conductor*
%ADD12C,0.400000*%
G04 #@! TD*
G04 #@! TA.AperFunction,Conductor*
%ADD13C,0.100000*%
G04 #@! TD*
G04 #@! TA.AperFunction,Conductor*
%ADD14C,0.200000*%
G04 #@! TD*
G04 #@! TA.AperFunction,Conductor*
%ADD15C,0.254000*%
G04 #@! TD*
G04 APERTURE END LIST*
D10*
G04 #@! TO.N,GND*
X21850000Y-18600000D03*
X23075000Y-18550000D03*
X23325000Y-18550000D03*
X21600000Y-18600000D03*
X21625000Y-18375000D03*
X22650000Y-18625000D03*
X24075000Y-18600000D03*
X24300000Y-18575000D03*
X25100000Y-18525000D03*
X22525000Y-18500000D03*
X23640000Y-18675000D03*
X22850000Y-18575000D03*
X25275000Y-18600000D03*
D11*
X21700000Y-23200000D03*
X26050000Y-18575000D03*
X24650000Y-18575000D03*
X22340000Y-18685000D03*
X20250000Y-23825000D03*
G04 #@! TO.N,+3V3*
X18400000Y-19625000D03*
X21100000Y-23900000D03*
X25150000Y-22150000D03*
X20225000Y-22775000D03*
X22450000Y-22475000D03*
X21800000Y-22450000D03*
X18425000Y-20275000D03*
X17450000Y-22225000D03*
X26025000Y-21700000D03*
X22000000Y-17925000D03*
X22880000Y-17895000D03*
X23650000Y-18095000D03*
X25575000Y-23975000D03*
X24400000Y-23900000D03*
X23550000Y-21250000D03*
X19800000Y-23300000D03*
G04 #@! TO.N,/SPI_MISO*
X20875000Y-25425000D03*
X23525000Y-25375000D03*
G04 #@! TO.N,/SPI_CS*
X26825000Y-18275000D03*
X26525000Y-25750000D03*
G04 #@! TO.N,/SPI_IO2*
X25275000Y-24800000D03*
X23930000Y-19095000D03*
D10*
G04 #@! TO.N,+5V*
X18200000Y-26075000D03*
X18600000Y-26075000D03*
X17800000Y-24925000D03*
X17800000Y-25325000D03*
X17800000Y-25725000D03*
X18200000Y-25325000D03*
D11*
X18200000Y-25725000D03*
X18600000Y-25725000D03*
X18600000Y-25325000D03*
D10*
X17400000Y-24925000D03*
X18200000Y-24925000D03*
X17400000Y-25325000D03*
D11*
X17800000Y-26025000D03*
G04 #@! TO.N,/SPI_MOSI*
X25650000Y-17775000D03*
X25075000Y-25625000D03*
G04 #@! TO.N,/VCCPLL*
X24350000Y-22425000D03*
X21150000Y-24725000D03*
G04 #@! TO.N,+1V2*
X21725000Y-21500000D03*
X19875000Y-18100000D03*
X22400000Y-21575000D03*
X23000000Y-21575000D03*
X20300000Y-18100000D03*
X18350000Y-23850000D03*
G04 #@! TO.N,+2V5*
X25200000Y-21500000D03*
X21750000Y-19325000D03*
X26170000Y-19425000D03*
X26260000Y-20155000D03*
D10*
G04 #@! TO.N,/TOUCH_4*
X28050000Y-18450000D03*
D11*
X28450000Y-18275000D03*
G04 #@! TO.N,/TOUCH_1*
X29110000Y-25485000D03*
D10*
X29500000Y-24925000D03*
D11*
X26275000Y-22250000D03*
X27500000Y-23825000D03*
G04 #@! TO.N,/TOUCH_2*
X28900000Y-23625000D03*
D10*
X29150000Y-23475000D03*
D11*
G04 #@! TO.N,/TOUCH_3*
X27700000Y-20550000D03*
D10*
X27700000Y-20075000D03*
D11*
G04 #@! TO.N,/USB_P*
X19625000Y-21650000D03*
D10*
X19475000Y-21175000D03*
G04 #@! TO.N,/USB_N*
X19200000Y-22150000D03*
D11*
X19025000Y-21625000D03*
G04 #@! TD*
D12*
G04 #@! TO.N,GND*
X20875000Y-23200000D02*
X21700000Y-23200000D01*
X20250000Y-23825000D02*
X20875000Y-23200000D01*
D13*
G04 #@! TO.N,/SPI_MISO*
X23475000Y-25425000D02*
X23525000Y-25375000D01*
X20875000Y-25425000D02*
X23475000Y-25425000D01*
G04 #@! TO.N,/SPI_CS*
X26575001Y-18025001D02*
X26825000Y-18275000D01*
X26030945Y-18025000D02*
X26575001Y-18025001D01*
X26005564Y-18027434D02*
X26030945Y-18025000D01*
X25857997Y-18175001D02*
X26005564Y-18027434D01*
X25450001Y-18175001D02*
X25857997Y-18175001D01*
X25249999Y-17532999D02*
X25249999Y-17974999D01*
X28424858Y-17375000D02*
X25407998Y-17375000D01*
X25407998Y-17375000D02*
X25249999Y-17532999D01*
X29192012Y-18142154D02*
X28424858Y-17375000D01*
X28540539Y-25400031D02*
X29700000Y-24240570D01*
X29700000Y-24240570D02*
X29700000Y-18949636D01*
X25249999Y-17974999D02*
X25450001Y-18175001D01*
X29700000Y-18949636D02*
X29192012Y-18441648D01*
X29192012Y-18441648D02*
X29192012Y-18142154D01*
X26874969Y-25400031D02*
X26525000Y-25750000D01*
X28540539Y-25400031D02*
X26874969Y-25400031D01*
G04 #@! TO.N,/SPI_IO2*
X27975000Y-23942002D02*
X27117002Y-24800000D01*
X27975000Y-23500000D02*
X27975000Y-23942002D01*
X23930000Y-19095000D02*
X24283553Y-19095000D01*
X24283553Y-19095000D02*
X24378554Y-18999999D01*
X27117002Y-24800000D02*
X25275000Y-24800000D01*
X24378554Y-18999999D02*
X26974999Y-18999999D01*
X26974999Y-18999999D02*
X27050000Y-19075000D01*
X27050000Y-19075000D02*
X27050000Y-22575000D01*
X27050000Y-22575000D02*
X27975000Y-23500000D01*
G04 #@! TO.N,+5V*
X18000000Y-25415393D02*
X18000000Y-25700000D01*
X18200000Y-25350000D02*
X18000000Y-25415393D01*
G04 #@! TO.N,/SPI_MOSI*
X25625000Y-25075000D02*
X25075000Y-25625000D01*
X28299858Y-25075000D02*
X25625000Y-25075000D01*
X29500000Y-23874858D02*
X28299858Y-25075000D01*
X25650000Y-17775000D02*
X25650000Y-17725000D01*
X25650000Y-17725000D02*
X25800000Y-17575000D01*
X29500000Y-20025000D02*
X29500000Y-23874858D01*
X25800000Y-17575000D02*
X28342002Y-17575000D01*
X28342002Y-17575000D02*
X28992002Y-18225000D01*
X28992002Y-18225000D02*
X28992002Y-19517002D01*
X28992002Y-19517002D02*
X29500000Y-20025000D01*
D14*
G04 #@! TO.N,+1V2*
X20480257Y-21500000D02*
X20554257Y-21500000D01*
D13*
X20907998Y-21500000D02*
X21725000Y-21500000D01*
D12*
X19875000Y-18453553D02*
X19950000Y-18528553D01*
X19875000Y-18100000D02*
X19875000Y-18453553D01*
X20675000Y-20450000D02*
X21725000Y-21500000D01*
X19950000Y-20450000D02*
X20675000Y-20450000D01*
X19950000Y-18528553D02*
X19950000Y-20450000D01*
X20480257Y-21500000D02*
X20480257Y-21705741D01*
X20500000Y-21589002D02*
X20500000Y-21275000D01*
X18350000Y-23850000D02*
X18580000Y-23525000D01*
X18580000Y-23525000D02*
X18580000Y-23509002D01*
X18580000Y-23509002D02*
X20500000Y-21589002D01*
D13*
G04 #@! TO.N,/TOUCH_4*
X28225000Y-18275000D02*
X28050000Y-18450000D01*
X28450000Y-18275000D02*
X28225000Y-18275000D01*
G04 #@! TO.N,/TOUCH_1*
X29500000Y-25095000D02*
X29110000Y-25485000D01*
X29500000Y-24925000D02*
X29500000Y-25095000D01*
X27500000Y-23475000D02*
X27500000Y-23825000D01*
X26275000Y-22250000D02*
X27500000Y-23475000D01*
G04 #@! TO.N,/TOUCH_2*
X29000000Y-23625000D02*
X29150000Y-23475000D01*
D14*
G04 #@! TO.N,/TOUCH_3*
X27700000Y-20550000D02*
X27700000Y-20075000D01*
D13*
G04 #@! TO.N,/USB_P*
X19475000Y-21500000D02*
X19625000Y-21650000D01*
X19475000Y-21175000D02*
X19475000Y-21500000D01*
G04 #@! TO.N,/USB_N*
X19025000Y-21975000D02*
X19200000Y-22150000D01*
X19025000Y-21625000D02*
X19025000Y-21975000D01*
G04 #@! TD*
D15*
G04 #@! TO.N,+3V3*
G36*
X24989071Y-17424920D02*
X24972999Y-17505721D01*
X24972999Y-17505724D01*
X24967574Y-17532999D01*
X24972999Y-17560274D01*
X24972999Y-17947724D01*
X24967574Y-17974999D01*
X24969726Y-17985819D01*
X24051932Y-17978008D01*
X23990986Y-17985805D01*
X23911596Y-18025074D01*
X23655604Y-18221991D01*
X23362750Y-18010863D01*
X23316280Y-17985036D01*
X23229362Y-17968001D01*
X21449362Y-17973001D01*
X21363131Y-17990279D01*
X21289487Y-18039487D01*
X21240279Y-18113131D01*
X21223000Y-18200000D01*
X21223000Y-18841995D01*
X21181671Y-18872703D01*
X21136203Y-18948712D01*
X21123283Y-19036336D01*
X21148283Y-19536336D01*
X21165279Y-19611869D01*
X21214487Y-19685513D01*
X21639487Y-20110513D01*
X21711788Y-20159160D01*
X21798545Y-20176995D01*
X25473000Y-20200549D01*
X25473000Y-20595261D01*
X24702689Y-21252291D01*
X24661388Y-21298688D01*
X24627408Y-21380482D01*
X24627316Y-21469053D01*
X24661125Y-21550917D01*
X24776432Y-21723878D01*
X24795619Y-21770199D01*
X24830701Y-21805281D01*
X24961125Y-22000917D01*
X25033928Y-22070080D01*
X25117417Y-22099649D01*
X25205867Y-22095018D01*
X25285812Y-22056891D01*
X26773001Y-20946457D01*
X26773001Y-22356264D01*
X26752000Y-22335264D01*
X26752000Y-22155119D01*
X26679381Y-21979801D01*
X26545199Y-21845619D01*
X26369881Y-21773000D01*
X26180119Y-21773000D01*
X26004801Y-21845619D01*
X25870619Y-21979801D01*
X25798000Y-22155119D01*
X25798000Y-22344881D01*
X25870619Y-22520199D01*
X26004801Y-22654381D01*
X26180119Y-22727000D01*
X26360264Y-22727000D01*
X27073000Y-23439738D01*
X27073000Y-23609408D01*
X27023000Y-23730119D01*
X27023000Y-23919881D01*
X27073000Y-24040592D01*
X27073000Y-24452266D01*
X27002266Y-24523000D01*
X25672580Y-24523000D01*
X25545199Y-24395619D01*
X25369881Y-24323000D01*
X25180119Y-24323000D01*
X25004801Y-24395619D01*
X24870619Y-24529801D01*
X24798000Y-24705119D01*
X24798000Y-24894881D01*
X24870619Y-25070199D01*
X24957704Y-25157284D01*
X24804801Y-25220619D01*
X24670619Y-25354801D01*
X24598000Y-25530119D01*
X24598000Y-25719881D01*
X24670619Y-25895199D01*
X24804801Y-26029381D01*
X24980119Y-26102000D01*
X25169881Y-26102000D01*
X25345199Y-26029381D01*
X25479381Y-25895199D01*
X25552000Y-25719881D01*
X25552000Y-25539737D01*
X25739737Y-25352000D01*
X26248420Y-25352000D01*
X26120619Y-25479801D01*
X26048000Y-25655119D01*
X26048000Y-25844881D01*
X26120619Y-26020199D01*
X26254801Y-26154381D01*
X26430119Y-26227000D01*
X26619881Y-26227000D01*
X26704323Y-26192023D01*
X26693189Y-26248000D01*
X19177000Y-26248000D01*
X19177000Y-25330119D01*
X20398000Y-25330119D01*
X20398000Y-25519881D01*
X20470619Y-25695199D01*
X20604801Y-25829381D01*
X20780119Y-25902000D01*
X20969881Y-25902000D01*
X21145199Y-25829381D01*
X21272580Y-25702000D01*
X23177420Y-25702000D01*
X23254801Y-25779381D01*
X23430119Y-25852000D01*
X23619881Y-25852000D01*
X23795199Y-25779381D01*
X23929381Y-25645199D01*
X24002000Y-25469881D01*
X24002000Y-25324611D01*
X24060513Y-25285513D01*
X24109721Y-25211869D01*
X24127000Y-25125000D01*
X24127000Y-23202264D01*
X24485403Y-22885215D01*
X24620199Y-22829381D01*
X24754381Y-22695199D01*
X24827000Y-22519881D01*
X24827000Y-22330119D01*
X24767235Y-22185834D01*
X24766724Y-22182475D01*
X24763040Y-22175705D01*
X24754381Y-22154801D01*
X24748419Y-22148839D01*
X24724386Y-22104678D01*
X24655500Y-22049005D01*
X24645689Y-22046109D01*
X24620199Y-22020619D01*
X24444881Y-21948000D01*
X24255119Y-21948000D01*
X24161565Y-21986751D01*
X24020552Y-21973932D01*
X23928216Y-21984649D01*
X23628216Y-22084649D01*
X23539487Y-22139487D01*
X22939487Y-22739487D01*
X22887871Y-22819189D01*
X22343562Y-24248000D01*
X20900000Y-24248000D01*
X20813131Y-24265279D01*
X20739487Y-24314487D01*
X20690279Y-24388131D01*
X20673000Y-24475000D01*
X20673000Y-24992370D01*
X20604801Y-25020619D01*
X20470619Y-25154801D01*
X20398000Y-25330119D01*
X19177000Y-25330119D01*
X19177000Y-25325000D01*
X19159721Y-25238131D01*
X19110513Y-25164487D01*
X19006894Y-25060868D01*
X19004381Y-25054801D01*
X18870199Y-24920619D01*
X18864132Y-24918106D01*
X18585513Y-24639487D01*
X18511869Y-24590279D01*
X18425000Y-24573000D01*
X17277000Y-24573000D01*
X17277000Y-23755119D01*
X17873000Y-23755119D01*
X17873000Y-23944881D01*
X17945619Y-24120199D01*
X18079801Y-24254381D01*
X18255119Y-24327000D01*
X18444881Y-24327000D01*
X18620199Y-24254381D01*
X18754381Y-24120199D01*
X18827000Y-23944881D01*
X18827000Y-23915156D01*
X18882913Y-23836149D01*
X18887850Y-23832850D01*
X18931849Y-23767001D01*
X18946326Y-23746544D01*
X18962751Y-23730119D01*
X19773000Y-23730119D01*
X19773000Y-23919881D01*
X19845619Y-24095199D01*
X19979801Y-24229381D01*
X20155119Y-24302000D01*
X20344881Y-24302000D01*
X20520199Y-24229381D01*
X20654381Y-24095199D01*
X20704382Y-23974487D01*
X21051869Y-23627000D01*
X21484408Y-23627000D01*
X21605119Y-23677000D01*
X21794881Y-23677000D01*
X21970199Y-23604381D01*
X22104381Y-23470199D01*
X22177000Y-23294881D01*
X22177000Y-23105119D01*
X22104381Y-22929801D01*
X21970199Y-22795619D01*
X21794881Y-22723000D01*
X21605119Y-22723000D01*
X21484408Y-22773000D01*
X20917052Y-22773000D01*
X20874999Y-22764635D01*
X20832946Y-22773000D01*
X20708393Y-22797775D01*
X20567150Y-22892150D01*
X20543327Y-22927805D01*
X20100513Y-23370618D01*
X19979801Y-23420619D01*
X19845619Y-23554801D01*
X19773000Y-23730119D01*
X18962751Y-23730119D01*
X20507601Y-22185270D01*
X20929327Y-22316717D01*
X21055977Y-22319171D01*
X21306709Y-22251558D01*
X22978338Y-22226975D01*
X23064420Y-22208646D01*
X23239420Y-22133646D01*
X23286200Y-22106600D01*
X23486200Y-21956600D01*
X23532390Y-21910140D01*
X23570222Y-21830056D01*
X23620222Y-21630056D01*
X23621148Y-21523791D01*
X23584717Y-21443059D01*
X23334717Y-21093059D01*
X23251590Y-21022001D01*
X23166173Y-20998577D01*
X21838057Y-20903712D01*
X21255827Y-20426958D01*
X21006675Y-20177807D01*
X20982850Y-20142150D01*
X20841607Y-20047775D01*
X20777078Y-20034940D01*
X20607615Y-19896176D01*
X20770643Y-18210229D01*
X20777000Y-18194881D01*
X20777000Y-18144486D01*
X20800946Y-17896849D01*
X20786962Y-17793752D01*
X20739735Y-17718823D01*
X20667429Y-17667670D01*
X20581051Y-17648081D01*
X20446788Y-17644501D01*
X20394881Y-17623000D01*
X20205119Y-17623000D01*
X20170969Y-17637145D01*
X19992544Y-17632387D01*
X19969881Y-17623000D01*
X19780119Y-17623000D01*
X19771675Y-17626498D01*
X19643551Y-17623081D01*
X19567057Y-17634207D01*
X19489838Y-17677591D01*
X19435100Y-17747222D01*
X19411176Y-17832501D01*
X19223676Y-20257501D01*
X19248242Y-20379032D01*
X19490054Y-20848000D01*
X19409956Y-20848000D01*
X19289770Y-20897783D01*
X19197783Y-20989770D01*
X19148000Y-21109956D01*
X19148000Y-21159647D01*
X19119881Y-21148000D01*
X18930119Y-21148000D01*
X18754801Y-21220619D01*
X18620619Y-21354801D01*
X18548000Y-21530119D01*
X18548000Y-21719881D01*
X18620619Y-21895199D01*
X18753041Y-22027621D01*
X18753181Y-22028324D01*
X18764072Y-22083079D01*
X18808788Y-22149999D01*
X18825296Y-22174705D01*
X18848421Y-22190157D01*
X18873000Y-22214736D01*
X18873000Y-22215044D01*
X18922783Y-22335230D01*
X19014770Y-22427217D01*
X19045279Y-22439854D01*
X18307807Y-23177327D01*
X18272150Y-23201152D01*
X18177775Y-23342395D01*
X18174513Y-23358793D01*
X18126863Y-23426125D01*
X18079801Y-23445619D01*
X17945619Y-23579801D01*
X17873000Y-23755119D01*
X17277000Y-23755119D01*
X17277000Y-17624819D01*
X17300439Y-17506985D01*
X17353129Y-17428129D01*
X17431985Y-17375439D01*
X17549820Y-17352000D01*
X25037795Y-17352000D01*
X24989071Y-17424920D01*
X24989071Y-17424920D01*
G37*
X24989071Y-17424920D02*
X24972999Y-17505721D01*
X24972999Y-17505724D01*
X24967574Y-17532999D01*
X24972999Y-17560274D01*
X24972999Y-17947724D01*
X24967574Y-17974999D01*
X24969726Y-17985819D01*
X24051932Y-17978008D01*
X23990986Y-17985805D01*
X23911596Y-18025074D01*
X23655604Y-18221991D01*
X23362750Y-18010863D01*
X23316280Y-17985036D01*
X23229362Y-17968001D01*
X21449362Y-17973001D01*
X21363131Y-17990279D01*
X21289487Y-18039487D01*
X21240279Y-18113131D01*
X21223000Y-18200000D01*
X21223000Y-18841995D01*
X21181671Y-18872703D01*
X21136203Y-18948712D01*
X21123283Y-19036336D01*
X21148283Y-19536336D01*
X21165279Y-19611869D01*
X21214487Y-19685513D01*
X21639487Y-20110513D01*
X21711788Y-20159160D01*
X21798545Y-20176995D01*
X25473000Y-20200549D01*
X25473000Y-20595261D01*
X24702689Y-21252291D01*
X24661388Y-21298688D01*
X24627408Y-21380482D01*
X24627316Y-21469053D01*
X24661125Y-21550917D01*
X24776432Y-21723878D01*
X24795619Y-21770199D01*
X24830701Y-21805281D01*
X24961125Y-22000917D01*
X25033928Y-22070080D01*
X25117417Y-22099649D01*
X25205867Y-22095018D01*
X25285812Y-22056891D01*
X26773001Y-20946457D01*
X26773001Y-22356264D01*
X26752000Y-22335264D01*
X26752000Y-22155119D01*
X26679381Y-21979801D01*
X26545199Y-21845619D01*
X26369881Y-21773000D01*
X26180119Y-21773000D01*
X26004801Y-21845619D01*
X25870619Y-21979801D01*
X25798000Y-22155119D01*
X25798000Y-22344881D01*
X25870619Y-22520199D01*
X26004801Y-22654381D01*
X26180119Y-22727000D01*
X26360264Y-22727000D01*
X27073000Y-23439738D01*
X27073000Y-23609408D01*
X27023000Y-23730119D01*
X27023000Y-23919881D01*
X27073000Y-24040592D01*
X27073000Y-24452266D01*
X27002266Y-24523000D01*
X25672580Y-24523000D01*
X25545199Y-24395619D01*
X25369881Y-24323000D01*
X25180119Y-24323000D01*
X25004801Y-24395619D01*
X24870619Y-24529801D01*
X24798000Y-24705119D01*
X24798000Y-24894881D01*
X24870619Y-25070199D01*
X24957704Y-25157284D01*
X24804801Y-25220619D01*
X24670619Y-25354801D01*
X24598000Y-25530119D01*
X24598000Y-25719881D01*
X24670619Y-25895199D01*
X24804801Y-26029381D01*
X24980119Y-26102000D01*
X25169881Y-26102000D01*
X25345199Y-26029381D01*
X25479381Y-25895199D01*
X25552000Y-25719881D01*
X25552000Y-25539737D01*
X25739737Y-25352000D01*
X26248420Y-25352000D01*
X26120619Y-25479801D01*
X26048000Y-25655119D01*
X26048000Y-25844881D01*
X26120619Y-26020199D01*
X26254801Y-26154381D01*
X26430119Y-26227000D01*
X26619881Y-26227000D01*
X26704323Y-26192023D01*
X26693189Y-26248000D01*
X19177000Y-26248000D01*
X19177000Y-25330119D01*
X20398000Y-25330119D01*
X20398000Y-25519881D01*
X20470619Y-25695199D01*
X20604801Y-25829381D01*
X20780119Y-25902000D01*
X20969881Y-25902000D01*
X21145199Y-25829381D01*
X21272580Y-25702000D01*
X23177420Y-25702000D01*
X23254801Y-25779381D01*
X23430119Y-25852000D01*
X23619881Y-25852000D01*
X23795199Y-25779381D01*
X23929381Y-25645199D01*
X24002000Y-25469881D01*
X24002000Y-25324611D01*
X24060513Y-25285513D01*
X24109721Y-25211869D01*
X24127000Y-25125000D01*
X24127000Y-23202264D01*
X24485403Y-22885215D01*
X24620199Y-22829381D01*
X24754381Y-22695199D01*
X24827000Y-22519881D01*
X24827000Y-22330119D01*
X24767235Y-22185834D01*
X24766724Y-22182475D01*
X24763040Y-22175705D01*
X24754381Y-22154801D01*
X24748419Y-22148839D01*
X24724386Y-22104678D01*
X24655500Y-22049005D01*
X24645689Y-22046109D01*
X24620199Y-22020619D01*
X24444881Y-21948000D01*
X24255119Y-21948000D01*
X24161565Y-21986751D01*
X24020552Y-21973932D01*
X23928216Y-21984649D01*
X23628216Y-22084649D01*
X23539487Y-22139487D01*
X22939487Y-22739487D01*
X22887871Y-22819189D01*
X22343562Y-24248000D01*
X20900000Y-24248000D01*
X20813131Y-24265279D01*
X20739487Y-24314487D01*
X20690279Y-24388131D01*
X20673000Y-24475000D01*
X20673000Y-24992370D01*
X20604801Y-25020619D01*
X20470619Y-25154801D01*
X20398000Y-25330119D01*
X19177000Y-25330119D01*
X19177000Y-25325000D01*
X19159721Y-25238131D01*
X19110513Y-25164487D01*
X19006894Y-25060868D01*
X19004381Y-25054801D01*
X18870199Y-24920619D01*
X18864132Y-24918106D01*
X18585513Y-24639487D01*
X18511869Y-24590279D01*
X18425000Y-24573000D01*
X17277000Y-24573000D01*
X17277000Y-23755119D01*
X17873000Y-23755119D01*
X17873000Y-23944881D01*
X17945619Y-24120199D01*
X18079801Y-24254381D01*
X18255119Y-24327000D01*
X18444881Y-24327000D01*
X18620199Y-24254381D01*
X18754381Y-24120199D01*
X18827000Y-23944881D01*
X18827000Y-23915156D01*
X18882913Y-23836149D01*
X18887850Y-23832850D01*
X18931849Y-23767001D01*
X18946326Y-23746544D01*
X18962751Y-23730119D01*
X19773000Y-23730119D01*
X19773000Y-23919881D01*
X19845619Y-24095199D01*
X19979801Y-24229381D01*
X20155119Y-24302000D01*
X20344881Y-24302000D01*
X20520199Y-24229381D01*
X20654381Y-24095199D01*
X20704382Y-23974487D01*
X21051869Y-23627000D01*
X21484408Y-23627000D01*
X21605119Y-23677000D01*
X21794881Y-23677000D01*
X21970199Y-23604381D01*
X22104381Y-23470199D01*
X22177000Y-23294881D01*
X22177000Y-23105119D01*
X22104381Y-22929801D01*
X21970199Y-22795619D01*
X21794881Y-22723000D01*
X21605119Y-22723000D01*
X21484408Y-22773000D01*
X20917052Y-22773000D01*
X20874999Y-22764635D01*
X20832946Y-22773000D01*
X20708393Y-22797775D01*
X20567150Y-22892150D01*
X20543327Y-22927805D01*
X20100513Y-23370618D01*
X19979801Y-23420619D01*
X19845619Y-23554801D01*
X19773000Y-23730119D01*
X18962751Y-23730119D01*
X20507601Y-22185270D01*
X20929327Y-22316717D01*
X21055977Y-22319171D01*
X21306709Y-22251558D01*
X22978338Y-22226975D01*
X23064420Y-22208646D01*
X23239420Y-22133646D01*
X23286200Y-22106600D01*
X23486200Y-21956600D01*
X23532390Y-21910140D01*
X23570222Y-21830056D01*
X23620222Y-21630056D01*
X23621148Y-21523791D01*
X23584717Y-21443059D01*
X23334717Y-21093059D01*
X23251590Y-21022001D01*
X23166173Y-20998577D01*
X21838057Y-20903712D01*
X21255827Y-20426958D01*
X21006675Y-20177807D01*
X20982850Y-20142150D01*
X20841607Y-20047775D01*
X20777078Y-20034940D01*
X20607615Y-19896176D01*
X20770643Y-18210229D01*
X20777000Y-18194881D01*
X20777000Y-18144486D01*
X20800946Y-17896849D01*
X20786962Y-17793752D01*
X20739735Y-17718823D01*
X20667429Y-17667670D01*
X20581051Y-17648081D01*
X20446788Y-17644501D01*
X20394881Y-17623000D01*
X20205119Y-17623000D01*
X20170969Y-17637145D01*
X19992544Y-17632387D01*
X19969881Y-17623000D01*
X19780119Y-17623000D01*
X19771675Y-17626498D01*
X19643551Y-17623081D01*
X19567057Y-17634207D01*
X19489838Y-17677591D01*
X19435100Y-17747222D01*
X19411176Y-17832501D01*
X19223676Y-20257501D01*
X19248242Y-20379032D01*
X19490054Y-20848000D01*
X19409956Y-20848000D01*
X19289770Y-20897783D01*
X19197783Y-20989770D01*
X19148000Y-21109956D01*
X19148000Y-21159647D01*
X19119881Y-21148000D01*
X18930119Y-21148000D01*
X18754801Y-21220619D01*
X18620619Y-21354801D01*
X18548000Y-21530119D01*
X18548000Y-21719881D01*
X18620619Y-21895199D01*
X18753041Y-22027621D01*
X18753181Y-22028324D01*
X18764072Y-22083079D01*
X18808788Y-22149999D01*
X18825296Y-22174705D01*
X18848421Y-22190157D01*
X18873000Y-22214736D01*
X18873000Y-22215044D01*
X18922783Y-22335230D01*
X19014770Y-22427217D01*
X19045279Y-22439854D01*
X18307807Y-23177327D01*
X18272150Y-23201152D01*
X18177775Y-23342395D01*
X18174513Y-23358793D01*
X18126863Y-23426125D01*
X18079801Y-23445619D01*
X17945619Y-23579801D01*
X17873000Y-23755119D01*
X17277000Y-23755119D01*
X17277000Y-17624819D01*
X17300439Y-17506985D01*
X17353129Y-17428129D01*
X17431985Y-17375439D01*
X17549820Y-17352000D01*
X25037795Y-17352000D01*
X24989071Y-17424920D01*
G04 #@! TO.N,+2V5*
G36*
X23453000Y-19189881D02*
X23525619Y-19365199D01*
X23659801Y-19499381D01*
X23835119Y-19572000D01*
X24024881Y-19572000D01*
X24200199Y-19499381D01*
X24331738Y-19367842D01*
X24391633Y-19355928D01*
X24483258Y-19294705D01*
X24495089Y-19276999D01*
X26773000Y-19276999D01*
X26773000Y-20504663D01*
X25208264Y-21673000D01*
X25167968Y-21673000D01*
X25018246Y-21448418D01*
X25782416Y-20796626D01*
X25813120Y-20757731D01*
X25827000Y-20700000D01*
X25827000Y-19975000D01*
X25817333Y-19926399D01*
X25789803Y-19885197D01*
X25748601Y-19857667D01*
X25700814Y-19848003D01*
X21852943Y-19823337D01*
X21499399Y-19469793D01*
X21483472Y-19151252D01*
X22209326Y-19147174D01*
X22245119Y-19162000D01*
X22434881Y-19162000D01*
X22474267Y-19145686D01*
X23453000Y-19140187D01*
X23453000Y-19189881D01*
X23453000Y-19189881D01*
G37*
X23453000Y-19189881D02*
X23525619Y-19365199D01*
X23659801Y-19499381D01*
X23835119Y-19572000D01*
X24024881Y-19572000D01*
X24200199Y-19499381D01*
X24331738Y-19367842D01*
X24391633Y-19355928D01*
X24483258Y-19294705D01*
X24495089Y-19276999D01*
X26773000Y-19276999D01*
X26773000Y-20504663D01*
X25208264Y-21673000D01*
X25167968Y-21673000D01*
X25018246Y-21448418D01*
X25782416Y-20796626D01*
X25813120Y-20757731D01*
X25827000Y-20700000D01*
X25827000Y-19975000D01*
X25817333Y-19926399D01*
X25789803Y-19885197D01*
X25748601Y-19857667D01*
X25700814Y-19848003D01*
X21852943Y-19823337D01*
X21499399Y-19469793D01*
X21483472Y-19151252D01*
X22209326Y-19147174D01*
X22245119Y-19162000D01*
X22434881Y-19162000D01*
X22474267Y-19145686D01*
X23453000Y-19140187D01*
X23453000Y-19189881D01*
G04 #@! TO.N,+1V2*
G36*
X20435483Y-17998325D02*
X20243590Y-19982776D01*
X20248534Y-20032082D01*
X20289540Y-20093261D01*
X21669540Y-21223261D01*
X21713267Y-21246572D01*
X21740952Y-21251677D01*
X23073829Y-21346882D01*
X23145619Y-21520199D01*
X23255357Y-21629937D01*
X23237728Y-21700454D01*
X23085978Y-21814266D01*
X22948039Y-21873383D01*
X21273133Y-21898014D01*
X21241934Y-21902380D01*
X20999437Y-21967772D01*
X20363525Y-21769566D01*
X19579401Y-20248842D01*
X19754814Y-17980174D01*
X20435483Y-17998325D01*
X20435483Y-17998325D01*
G37*
X20435483Y-17998325D02*
X20243590Y-19982776D01*
X20248534Y-20032082D01*
X20289540Y-20093261D01*
X21669540Y-21223261D01*
X21713267Y-21246572D01*
X21740952Y-21251677D01*
X23073829Y-21346882D01*
X23145619Y-21520199D01*
X23255357Y-21629937D01*
X23237728Y-21700454D01*
X23085978Y-21814266D01*
X22948039Y-21873383D01*
X21273133Y-21898014D01*
X21241934Y-21902380D01*
X20999437Y-21967772D01*
X20363525Y-21769566D01*
X19579401Y-20248842D01*
X19754814Y-17980174D01*
X20435483Y-17998325D01*
G04 #@! TO.N,GND*
G36*
X23244216Y-18361811D02*
X23245619Y-18365199D01*
X23379801Y-18499381D01*
X23509635Y-18553160D01*
X23585730Y-18608019D01*
X23630807Y-18628599D01*
X23680329Y-18630362D01*
X23737433Y-18605663D01*
X23823564Y-18539408D01*
X23920199Y-18499381D01*
X24054381Y-18365199D01*
X24056413Y-18360294D01*
X24092717Y-18332368D01*
X25225269Y-18342006D01*
X25234846Y-18351583D01*
X25250296Y-18374706D01*
X25273418Y-18390156D01*
X25273421Y-18390159D01*
X25318429Y-18420232D01*
X25341921Y-18435929D01*
X25422722Y-18452001D01*
X25422726Y-18452001D01*
X25450001Y-18457426D01*
X25477276Y-18452001D01*
X25830722Y-18452001D01*
X25857997Y-18457426D01*
X25885272Y-18452001D01*
X25885276Y-18452001D01*
X25966077Y-18435929D01*
X26057702Y-18374706D01*
X26073156Y-18351578D01*
X26075492Y-18349242D01*
X26273000Y-18350923D01*
X26273000Y-18722999D01*
X24405829Y-18722999D01*
X24378554Y-18717574D01*
X24351279Y-18722999D01*
X24351275Y-18722999D01*
X24270474Y-18739071D01*
X24257392Y-18747812D01*
X24200199Y-18690619D01*
X24024881Y-18618000D01*
X23835119Y-18618000D01*
X23659801Y-18690619D01*
X23566731Y-18783689D01*
X21577000Y-18773640D01*
X21577000Y-18326643D01*
X21726643Y-18326223D01*
X21729801Y-18329381D01*
X21905119Y-18402000D01*
X22094881Y-18402000D01*
X22270199Y-18329381D01*
X22274897Y-18324683D01*
X22668218Y-18323578D01*
X22785119Y-18372000D01*
X22974881Y-18372000D01*
X23094674Y-18322380D01*
X23189153Y-18322115D01*
X23244216Y-18361811D01*
X23244216Y-18361811D01*
G37*
X23244216Y-18361811D02*
X23245619Y-18365199D01*
X23379801Y-18499381D01*
X23509635Y-18553160D01*
X23585730Y-18608019D01*
X23630807Y-18628599D01*
X23680329Y-18630362D01*
X23737433Y-18605663D01*
X23823564Y-18539408D01*
X23920199Y-18499381D01*
X24054381Y-18365199D01*
X24056413Y-18360294D01*
X24092717Y-18332368D01*
X25225269Y-18342006D01*
X25234846Y-18351583D01*
X25250296Y-18374706D01*
X25273418Y-18390156D01*
X25273421Y-18390159D01*
X25318429Y-18420232D01*
X25341921Y-18435929D01*
X25422722Y-18452001D01*
X25422726Y-18452001D01*
X25450001Y-18457426D01*
X25477276Y-18452001D01*
X25830722Y-18452001D01*
X25857997Y-18457426D01*
X25885272Y-18452001D01*
X25885276Y-18452001D01*
X25966077Y-18435929D01*
X26057702Y-18374706D01*
X26073156Y-18351578D01*
X26075492Y-18349242D01*
X26273000Y-18350923D01*
X26273000Y-18722999D01*
X24405829Y-18722999D01*
X24378554Y-18717574D01*
X24351279Y-18722999D01*
X24351275Y-18722999D01*
X24270474Y-18739071D01*
X24257392Y-18747812D01*
X24200199Y-18690619D01*
X24024881Y-18618000D01*
X23835119Y-18618000D01*
X23659801Y-18690619D01*
X23566731Y-18783689D01*
X21577000Y-18773640D01*
X21577000Y-18326643D01*
X21726643Y-18326223D01*
X21729801Y-18329381D01*
X21905119Y-18402000D01*
X22094881Y-18402000D01*
X22270199Y-18329381D01*
X22274897Y-18324683D01*
X22668218Y-18323578D01*
X22785119Y-18372000D01*
X22974881Y-18372000D01*
X23094674Y-18322380D01*
X23189153Y-18322115D01*
X23244216Y-18361811D01*
G04 #@! TO.N,+5V*
G36*
X18823000Y-25377606D02*
X18823000Y-26198000D01*
X17277000Y-26198000D01*
X17277000Y-24927000D01*
X18372394Y-24927000D01*
X18823000Y-25377606D01*
X18823000Y-25377606D01*
G37*
X18823000Y-25377606D02*
X18823000Y-26198000D01*
X17277000Y-26198000D01*
X17277000Y-24927000D01*
X18372394Y-24927000D01*
X18823000Y-25377606D01*
G04 #@! TO.N,/VCCPLL*
G36*
X24423000Y-22365978D02*
X24423000Y-22467785D01*
X23815853Y-23004877D01*
X23785857Y-23044320D01*
X23773000Y-23100000D01*
X23773000Y-24961424D01*
X23619881Y-24898000D01*
X23430119Y-24898000D01*
X23254801Y-24970619D01*
X23227420Y-24998000D01*
X21090592Y-24998000D01*
X21027000Y-24971659D01*
X21027000Y-24602000D01*
X22500000Y-24602000D01*
X22548601Y-24592333D01*
X22589803Y-24564803D01*
X22618680Y-24520211D01*
X23209009Y-22970597D01*
X23768604Y-22411002D01*
X24014960Y-22328883D01*
X24423000Y-22365978D01*
X24423000Y-22365978D01*
G37*
X24423000Y-22365978D02*
X24423000Y-22467785D01*
X23815853Y-23004877D01*
X23785857Y-23044320D01*
X23773000Y-23100000D01*
X23773000Y-24961424D01*
X23619881Y-24898000D01*
X23430119Y-24898000D01*
X23254801Y-24970619D01*
X23227420Y-24998000D01*
X21090592Y-24998000D01*
X21027000Y-24971659D01*
X21027000Y-24602000D01*
X22500000Y-24602000D01*
X22548601Y-24592333D01*
X22589803Y-24564803D01*
X22618680Y-24520211D01*
X23209009Y-22970597D01*
X23768604Y-22411002D01*
X24014960Y-22328883D01*
X24423000Y-22365978D01*
G04 #@! TD*
M02*
