G04 #@! TF.GenerationSoftware,KiCad,Pcbnew,(5.0.1)-3*
G04 #@! TF.CreationDate,2018-12-22T23:36:10+08:00*
G04 #@! TF.ProjectId,tomu-fpga,746F6D752D667067612E6B696361645F,rev?*
G04 #@! TF.SameCoordinates,Original*
G04 #@! TF.FileFunction,Other,Comment*
%FSLAX45Y45*%
G04 Gerber Fmt 4.5, Leading zero omitted, Abs format (unit mm)*
G04 Created by KiCad (PCBNEW (5.0.1)-3) date 12/22/18 23:36:10*
%MOMM*%
%LPD*%
G01*
G04 APERTURE LIST*
%ADD10C,0.300000*%
%ADD11C,0.050000*%
%ADD12C,0.035000*%
%ADD13C,0.037500*%
G04 APERTURE END LIST*
D10*
X1734024Y-3250595D02*
X1734024Y-3000595D01*
X1829262Y-3000595D01*
X1853071Y-3012500D01*
X1864976Y-3024405D01*
X1876881Y-3048214D01*
X1876881Y-3083928D01*
X1864976Y-3107738D01*
X1853071Y-3119643D01*
X1829262Y-3131548D01*
X1734024Y-3131548D01*
X2126881Y-3226786D02*
X2114976Y-3238690D01*
X2079262Y-3250595D01*
X2055452Y-3250595D01*
X2019738Y-3238690D01*
X1995928Y-3214881D01*
X1984024Y-3191071D01*
X1972119Y-3143452D01*
X1972119Y-3107738D01*
X1984024Y-3060119D01*
X1995928Y-3036309D01*
X2019738Y-3012500D01*
X2055452Y-3000595D01*
X2079262Y-3000595D01*
X2114976Y-3012500D01*
X2126881Y-3024405D01*
X2317357Y-3119643D02*
X2353071Y-3131548D01*
X2364976Y-3143452D01*
X2376881Y-3167262D01*
X2376881Y-3202976D01*
X2364976Y-3226786D01*
X2353071Y-3238690D01*
X2329262Y-3250595D01*
X2234024Y-3250595D01*
X2234024Y-3000595D01*
X2317357Y-3000595D01*
X2341167Y-3012500D01*
X2353071Y-3024405D01*
X2364976Y-3048214D01*
X2364976Y-3072024D01*
X2353071Y-3095833D01*
X2341167Y-3107738D01*
X2317357Y-3119643D01*
X2234024Y-3119643D01*
X2662595Y-3238690D02*
X2698310Y-3250595D01*
X2757833Y-3250595D01*
X2781643Y-3238690D01*
X2793548Y-3226786D01*
X2805452Y-3202976D01*
X2805452Y-3179167D01*
X2793548Y-3155357D01*
X2781643Y-3143452D01*
X2757833Y-3131548D01*
X2710214Y-3119643D01*
X2686405Y-3107738D01*
X2674500Y-3095833D01*
X2662595Y-3072024D01*
X2662595Y-3048214D01*
X2674500Y-3024405D01*
X2686405Y-3012500D01*
X2710214Y-3000595D01*
X2769738Y-3000595D01*
X2805452Y-3012500D01*
X2948309Y-3250595D02*
X2924500Y-3238690D01*
X2912595Y-3226786D01*
X2900690Y-3202976D01*
X2900690Y-3131548D01*
X2912595Y-3107738D01*
X2924500Y-3095833D01*
X2948309Y-3083928D01*
X2984024Y-3083928D01*
X3007833Y-3095833D01*
X3019738Y-3107738D01*
X3031643Y-3131548D01*
X3031643Y-3202976D01*
X3019738Y-3226786D01*
X3007833Y-3238690D01*
X2984024Y-3250595D01*
X2948309Y-3250595D01*
X3174500Y-3250595D02*
X3150690Y-3238690D01*
X3138786Y-3214881D01*
X3138786Y-3000595D01*
X3376881Y-3250595D02*
X3376881Y-3000595D01*
X3376881Y-3238690D02*
X3353071Y-3250595D01*
X3305452Y-3250595D01*
X3281643Y-3238690D01*
X3269738Y-3226786D01*
X3257833Y-3202976D01*
X3257833Y-3131548D01*
X3269738Y-3107738D01*
X3281643Y-3095833D01*
X3305452Y-3083928D01*
X3353071Y-3083928D01*
X3376881Y-3095833D01*
X3591167Y-3238690D02*
X3567357Y-3250595D01*
X3519738Y-3250595D01*
X3495928Y-3238690D01*
X3484024Y-3214881D01*
X3484024Y-3119643D01*
X3495928Y-3095833D01*
X3519738Y-3083928D01*
X3567357Y-3083928D01*
X3591167Y-3095833D01*
X3603071Y-3119643D01*
X3603071Y-3143452D01*
X3484024Y-3167262D01*
X3710214Y-3250595D02*
X3710214Y-3083928D01*
X3710214Y-3131548D02*
X3722119Y-3107738D01*
X3734024Y-3095833D01*
X3757833Y-3083928D01*
X3781643Y-3083928D01*
X3864976Y-3250595D02*
X3864976Y-3083928D01*
X3864976Y-3107738D02*
X3876881Y-3095833D01*
X3900690Y-3083928D01*
X3936405Y-3083928D01*
X3960214Y-3095833D01*
X3972119Y-3119643D01*
X3972119Y-3250595D01*
X3972119Y-3119643D02*
X3984024Y-3095833D01*
X4007833Y-3083928D01*
X4043548Y-3083928D01*
X4067357Y-3095833D01*
X4079262Y-3119643D01*
X4079262Y-3250595D01*
X4305452Y-3250595D02*
X4305452Y-3119643D01*
X4293548Y-3095833D01*
X4269738Y-3083928D01*
X4222119Y-3083928D01*
X4198310Y-3095833D01*
X4305452Y-3238690D02*
X4281643Y-3250595D01*
X4222119Y-3250595D01*
X4198310Y-3238690D01*
X4186405Y-3214881D01*
X4186405Y-3191071D01*
X4198310Y-3167262D01*
X4222119Y-3155357D01*
X4281643Y-3155357D01*
X4305452Y-3143452D01*
X4412595Y-3238690D02*
X4436405Y-3250595D01*
X4484024Y-3250595D01*
X4507833Y-3238690D01*
X4519738Y-3214881D01*
X4519738Y-3202976D01*
X4507833Y-3179167D01*
X4484024Y-3167262D01*
X4448310Y-3167262D01*
X4424500Y-3155357D01*
X4412595Y-3131548D01*
X4412595Y-3119643D01*
X4424500Y-3095833D01*
X4448310Y-3083928D01*
X4484024Y-3083928D01*
X4507833Y-3095833D01*
X4626881Y-3250595D02*
X4626881Y-3000595D01*
X4650690Y-3155357D02*
X4722119Y-3250595D01*
X4722119Y-3083928D02*
X4626881Y-3179167D01*
X4829262Y-3226786D02*
X4841167Y-3238690D01*
X4829262Y-3250595D01*
X4817357Y-3238690D01*
X4829262Y-3226786D01*
X4829262Y-3250595D01*
X4829262Y-3095833D02*
X4841167Y-3107738D01*
X4829262Y-3119643D01*
X4817357Y-3107738D01*
X4829262Y-3095833D01*
X4829262Y-3119643D01*
X5138786Y-3250595D02*
X5138786Y-3000595D01*
X5198310Y-3000595D01*
X5234024Y-3012500D01*
X5257833Y-3036309D01*
X5269738Y-3060119D01*
X5281643Y-3107738D01*
X5281643Y-3143452D01*
X5269738Y-3191071D01*
X5257833Y-3214881D01*
X5234024Y-3238690D01*
X5198310Y-3250595D01*
X5138786Y-3250595D01*
X5495929Y-3250595D02*
X5495929Y-3119643D01*
X5484024Y-3095833D01*
X5460214Y-3083928D01*
X5412595Y-3083928D01*
X5388786Y-3095833D01*
X5495929Y-3238690D02*
X5472119Y-3250595D01*
X5412595Y-3250595D01*
X5388786Y-3238690D01*
X5376881Y-3214881D01*
X5376881Y-3191071D01*
X5388786Y-3167262D01*
X5412595Y-3155357D01*
X5472119Y-3155357D01*
X5495929Y-3143452D01*
X5614976Y-3250595D02*
X5614976Y-3083928D01*
X5614976Y-3131548D02*
X5626881Y-3107738D01*
X5638786Y-3095833D01*
X5662595Y-3083928D01*
X5686405Y-3083928D01*
X5769738Y-3250595D02*
X5769738Y-3000595D01*
X5793548Y-3155357D02*
X5864976Y-3250595D01*
X5864976Y-3083928D02*
X5769738Y-3179167D01*
X6245928Y-3119643D02*
X6281643Y-3131548D01*
X6293548Y-3143452D01*
X6305452Y-3167262D01*
X6305452Y-3202976D01*
X6293548Y-3226786D01*
X6281643Y-3238690D01*
X6257833Y-3250595D01*
X6162595Y-3250595D01*
X6162595Y-3000595D01*
X6245928Y-3000595D01*
X6269738Y-3012500D01*
X6281643Y-3024405D01*
X6293548Y-3048214D01*
X6293548Y-3072024D01*
X6281643Y-3095833D01*
X6269738Y-3107738D01*
X6245928Y-3119643D01*
X6162595Y-3119643D01*
X6448309Y-3250595D02*
X6424500Y-3238690D01*
X6412595Y-3214881D01*
X6412595Y-3000595D01*
X6650690Y-3083928D02*
X6650690Y-3250595D01*
X6543548Y-3083928D02*
X6543548Y-3214881D01*
X6555452Y-3238690D01*
X6579262Y-3250595D01*
X6614976Y-3250595D01*
X6638786Y-3238690D01*
X6650690Y-3226786D01*
X6864976Y-3238690D02*
X6841167Y-3250595D01*
X6793548Y-3250595D01*
X6769738Y-3238690D01*
X6757833Y-3214881D01*
X6757833Y-3119643D01*
X6769738Y-3095833D01*
X6793548Y-3083928D01*
X6841167Y-3083928D01*
X6864976Y-3095833D01*
X6876881Y-3119643D01*
X6876881Y-3143452D01*
X6757833Y-3167262D01*
X1734024Y-3655595D02*
X1734024Y-3405595D01*
X1829262Y-3405595D01*
X1853071Y-3417500D01*
X1864976Y-3429405D01*
X1876881Y-3453214D01*
X1876881Y-3488928D01*
X1864976Y-3512738D01*
X1853071Y-3524643D01*
X1829262Y-3536548D01*
X1734024Y-3536548D01*
X2126881Y-3631786D02*
X2114976Y-3643690D01*
X2079262Y-3655595D01*
X2055452Y-3655595D01*
X2019738Y-3643690D01*
X1995928Y-3619881D01*
X1984024Y-3596071D01*
X1972119Y-3548452D01*
X1972119Y-3512738D01*
X1984024Y-3465119D01*
X1995928Y-3441309D01*
X2019738Y-3417500D01*
X2055452Y-3405595D01*
X2079262Y-3405595D01*
X2114976Y-3417500D01*
X2126881Y-3429405D01*
X2317357Y-3524643D02*
X2353071Y-3536548D01*
X2364976Y-3548452D01*
X2376881Y-3572262D01*
X2376881Y-3607976D01*
X2364976Y-3631786D01*
X2353071Y-3643690D01*
X2329262Y-3655595D01*
X2234024Y-3655595D01*
X2234024Y-3405595D01*
X2317357Y-3405595D01*
X2341167Y-3417500D01*
X2353071Y-3429405D01*
X2364976Y-3453214D01*
X2364976Y-3477024D01*
X2353071Y-3500833D01*
X2341167Y-3512738D01*
X2317357Y-3524643D01*
X2234024Y-3524643D01*
X2638786Y-3405595D02*
X2781643Y-3405595D01*
X2710214Y-3655595D02*
X2710214Y-3405595D01*
X2864976Y-3655595D02*
X2864976Y-3405595D01*
X2972119Y-3655595D02*
X2972119Y-3524643D01*
X2960214Y-3500833D01*
X2936405Y-3488928D01*
X2900690Y-3488928D01*
X2876881Y-3500833D01*
X2864976Y-3512738D01*
X3091167Y-3655595D02*
X3091167Y-3488928D01*
X3091167Y-3405595D02*
X3079262Y-3417500D01*
X3091167Y-3429405D01*
X3103071Y-3417500D01*
X3091167Y-3405595D01*
X3091167Y-3429405D01*
X3317357Y-3643690D02*
X3293548Y-3655595D01*
X3245928Y-3655595D01*
X3222119Y-3643690D01*
X3210214Y-3631786D01*
X3198309Y-3607976D01*
X3198309Y-3536548D01*
X3210214Y-3512738D01*
X3222119Y-3500833D01*
X3245928Y-3488928D01*
X3293548Y-3488928D01*
X3317357Y-3500833D01*
X3424500Y-3655595D02*
X3424500Y-3405595D01*
X3448309Y-3560357D02*
X3519738Y-3655595D01*
X3519738Y-3488928D02*
X3424500Y-3584167D01*
X3626881Y-3488928D02*
X3626881Y-3655595D01*
X3626881Y-3512738D02*
X3638786Y-3500833D01*
X3662595Y-3488928D01*
X3698309Y-3488928D01*
X3722119Y-3500833D01*
X3734024Y-3524643D01*
X3734024Y-3655595D01*
X3948309Y-3643690D02*
X3924500Y-3655595D01*
X3876881Y-3655595D01*
X3853071Y-3643690D01*
X3841167Y-3619881D01*
X3841167Y-3524643D01*
X3853071Y-3500833D01*
X3876881Y-3488928D01*
X3924500Y-3488928D01*
X3948309Y-3500833D01*
X3960214Y-3524643D01*
X3960214Y-3548452D01*
X3841167Y-3572262D01*
X4055452Y-3643690D02*
X4079262Y-3655595D01*
X4126881Y-3655595D01*
X4150690Y-3643690D01*
X4162595Y-3619881D01*
X4162595Y-3607976D01*
X4150690Y-3584167D01*
X4126881Y-3572262D01*
X4091167Y-3572262D01*
X4067357Y-3560357D01*
X4055452Y-3536548D01*
X4055452Y-3524643D01*
X4067357Y-3500833D01*
X4091167Y-3488928D01*
X4126881Y-3488928D01*
X4150690Y-3500833D01*
X4257833Y-3643690D02*
X4281643Y-3655595D01*
X4329262Y-3655595D01*
X4353071Y-3643690D01*
X4364976Y-3619881D01*
X4364976Y-3607976D01*
X4353071Y-3584167D01*
X4329262Y-3572262D01*
X4293548Y-3572262D01*
X4269738Y-3560357D01*
X4257833Y-3536548D01*
X4257833Y-3524643D01*
X4269738Y-3500833D01*
X4293548Y-3488928D01*
X4329262Y-3488928D01*
X4353071Y-3500833D01*
X4472119Y-3631786D02*
X4484024Y-3643690D01*
X4472119Y-3655595D01*
X4460214Y-3643690D01*
X4472119Y-3631786D01*
X4472119Y-3655595D01*
X4472119Y-3500833D02*
X4484024Y-3512738D01*
X4472119Y-3524643D01*
X4460214Y-3512738D01*
X4472119Y-3500833D01*
X4472119Y-3524643D01*
X4829262Y-3405595D02*
X4853071Y-3405595D01*
X4876881Y-3417500D01*
X4888786Y-3429405D01*
X4900690Y-3453214D01*
X4912595Y-3500833D01*
X4912595Y-3560357D01*
X4900690Y-3607976D01*
X4888786Y-3631786D01*
X4876881Y-3643690D01*
X4853071Y-3655595D01*
X4829262Y-3655595D01*
X4805452Y-3643690D01*
X4793548Y-3631786D01*
X4781643Y-3607976D01*
X4769738Y-3560357D01*
X4769738Y-3500833D01*
X4781643Y-3453214D01*
X4793548Y-3429405D01*
X4805452Y-3417500D01*
X4829262Y-3405595D01*
X5019738Y-3631786D02*
X5031643Y-3643690D01*
X5019738Y-3655595D01*
X5007833Y-3643690D01*
X5019738Y-3631786D01*
X5019738Y-3655595D01*
X5245929Y-3405595D02*
X5198310Y-3405595D01*
X5174500Y-3417500D01*
X5162595Y-3429405D01*
X5138786Y-3465119D01*
X5126881Y-3512738D01*
X5126881Y-3607976D01*
X5138786Y-3631786D01*
X5150690Y-3643690D01*
X5174500Y-3655595D01*
X5222119Y-3655595D01*
X5245929Y-3643690D01*
X5257833Y-3631786D01*
X5269738Y-3607976D01*
X5269738Y-3548452D01*
X5257833Y-3524643D01*
X5245929Y-3512738D01*
X5222119Y-3500833D01*
X5174500Y-3500833D01*
X5150690Y-3512738D01*
X5138786Y-3524643D01*
X5126881Y-3548452D01*
X5376881Y-3655595D02*
X5376881Y-3488928D01*
X5376881Y-3512738D02*
X5388786Y-3500833D01*
X5412595Y-3488928D01*
X5448310Y-3488928D01*
X5472119Y-3500833D01*
X5484024Y-3524643D01*
X5484024Y-3655595D01*
X5484024Y-3524643D02*
X5495929Y-3500833D01*
X5519738Y-3488928D01*
X5555452Y-3488928D01*
X5579262Y-3500833D01*
X5591167Y-3524643D01*
X5591167Y-3655595D01*
X5710214Y-3655595D02*
X5710214Y-3488928D01*
X5710214Y-3512738D02*
X5722119Y-3500833D01*
X5745928Y-3488928D01*
X5781643Y-3488928D01*
X5805452Y-3500833D01*
X5817357Y-3524643D01*
X5817357Y-3655595D01*
X5817357Y-3524643D02*
X5829262Y-3500833D01*
X5853071Y-3488928D01*
X5888786Y-3488928D01*
X5912595Y-3500833D01*
X5924500Y-3524643D01*
X5924500Y-3655595D01*
X1734024Y-4060595D02*
X1734024Y-3810595D01*
X1734024Y-3929643D02*
X1876881Y-3929643D01*
X1876881Y-4060595D02*
X1876881Y-3810595D01*
X2103071Y-4060595D02*
X2103071Y-3929643D01*
X2091167Y-3905833D01*
X2067357Y-3893928D01*
X2019738Y-3893928D01*
X1995928Y-3905833D01*
X2103071Y-4048690D02*
X2079262Y-4060595D01*
X2019738Y-4060595D01*
X1995928Y-4048690D01*
X1984024Y-4024881D01*
X1984024Y-4001071D01*
X1995928Y-3977262D01*
X2019738Y-3965357D01*
X2079262Y-3965357D01*
X2103071Y-3953452D01*
X2222119Y-4060595D02*
X2222119Y-3893928D01*
X2222119Y-3941548D02*
X2234024Y-3917738D01*
X2245929Y-3905833D01*
X2269738Y-3893928D01*
X2293548Y-3893928D01*
X2484024Y-4060595D02*
X2484024Y-3810595D01*
X2484024Y-4048690D02*
X2460214Y-4060595D01*
X2412595Y-4060595D01*
X2388786Y-4048690D01*
X2376881Y-4036786D01*
X2364976Y-4012976D01*
X2364976Y-3941548D01*
X2376881Y-3917738D01*
X2388786Y-3905833D01*
X2412595Y-3893928D01*
X2460214Y-3893928D01*
X2484024Y-3905833D01*
X2900690Y-3893928D02*
X2900690Y-4096309D01*
X2888786Y-4120119D01*
X2876881Y-4132024D01*
X2853071Y-4143928D01*
X2817357Y-4143928D01*
X2793548Y-4132024D01*
X2900690Y-4048690D02*
X2876881Y-4060595D01*
X2829262Y-4060595D01*
X2805452Y-4048690D01*
X2793548Y-4036786D01*
X2781643Y-4012976D01*
X2781643Y-3941548D01*
X2793548Y-3917738D01*
X2805452Y-3905833D01*
X2829262Y-3893928D01*
X2876881Y-3893928D01*
X2900690Y-3905833D01*
X3055452Y-4060595D02*
X3031643Y-4048690D01*
X3019738Y-4036786D01*
X3007833Y-4012976D01*
X3007833Y-3941548D01*
X3019738Y-3917738D01*
X3031643Y-3905833D01*
X3055452Y-3893928D01*
X3091167Y-3893928D01*
X3114976Y-3905833D01*
X3126881Y-3917738D01*
X3138786Y-3941548D01*
X3138786Y-4012976D01*
X3126881Y-4036786D01*
X3114976Y-4048690D01*
X3091167Y-4060595D01*
X3055452Y-4060595D01*
X3281643Y-4060595D02*
X3257833Y-4048690D01*
X3245928Y-4024881D01*
X3245928Y-3810595D01*
X3484024Y-4060595D02*
X3484024Y-3810595D01*
X3484024Y-4048690D02*
X3460214Y-4060595D01*
X3412595Y-4060595D01*
X3388786Y-4048690D01*
X3376881Y-4036786D01*
X3364976Y-4012976D01*
X3364976Y-3941548D01*
X3376881Y-3917738D01*
X3388786Y-3905833D01*
X3412595Y-3893928D01*
X3460214Y-3893928D01*
X3484024Y-3905833D01*
X3793548Y-3893928D02*
X3793548Y-4143928D01*
X3793548Y-3905833D02*
X3817357Y-3893928D01*
X3864976Y-3893928D01*
X3888786Y-3905833D01*
X3900690Y-3917738D01*
X3912595Y-3941548D01*
X3912595Y-4012976D01*
X3900690Y-4036786D01*
X3888786Y-4048690D01*
X3864976Y-4060595D01*
X3817357Y-4060595D01*
X3793548Y-4048690D01*
X4055452Y-4060595D02*
X4031643Y-4048690D01*
X4019738Y-4024881D01*
X4019738Y-3810595D01*
X4257833Y-4060595D02*
X4257833Y-3929643D01*
X4245929Y-3905833D01*
X4222119Y-3893928D01*
X4174500Y-3893928D01*
X4150690Y-3905833D01*
X4257833Y-4048690D02*
X4234024Y-4060595D01*
X4174500Y-4060595D01*
X4150690Y-4048690D01*
X4138786Y-4024881D01*
X4138786Y-4001071D01*
X4150690Y-3977262D01*
X4174500Y-3965357D01*
X4234024Y-3965357D01*
X4257833Y-3953452D01*
X4341167Y-3893928D02*
X4436405Y-3893928D01*
X4376881Y-3810595D02*
X4376881Y-4024881D01*
X4388786Y-4048690D01*
X4412595Y-4060595D01*
X4436405Y-4060595D01*
X4519738Y-4060595D02*
X4519738Y-3893928D01*
X4519738Y-3810595D02*
X4507833Y-3822500D01*
X4519738Y-3834405D01*
X4531643Y-3822500D01*
X4519738Y-3810595D01*
X4519738Y-3834405D01*
X4638786Y-3893928D02*
X4638786Y-4060595D01*
X4638786Y-3917738D02*
X4650690Y-3905833D01*
X4674500Y-3893928D01*
X4710214Y-3893928D01*
X4734024Y-3905833D01*
X4745929Y-3929643D01*
X4745929Y-4060595D01*
X4972119Y-3893928D02*
X4972119Y-4096309D01*
X4960214Y-4120119D01*
X4948310Y-4132024D01*
X4924500Y-4143928D01*
X4888786Y-4143928D01*
X4864976Y-4132024D01*
X4972119Y-4048690D02*
X4948310Y-4060595D01*
X4900690Y-4060595D01*
X4876881Y-4048690D01*
X4864976Y-4036786D01*
X4853071Y-4012976D01*
X4853071Y-3941548D01*
X4864976Y-3917738D01*
X4876881Y-3905833D01*
X4900690Y-3893928D01*
X4948310Y-3893928D01*
X4972119Y-3905833D01*
X5317357Y-4060595D02*
X5293548Y-4048690D01*
X5281643Y-4036786D01*
X5269738Y-4012976D01*
X5269738Y-3941548D01*
X5281643Y-3917738D01*
X5293548Y-3905833D01*
X5317357Y-3893928D01*
X5353071Y-3893928D01*
X5376881Y-3905833D01*
X5388786Y-3917738D01*
X5400690Y-3941548D01*
X5400690Y-4012976D01*
X5388786Y-4036786D01*
X5376881Y-4048690D01*
X5353071Y-4060595D01*
X5317357Y-4060595D01*
X5507833Y-3893928D02*
X5507833Y-4060595D01*
X5507833Y-3917738D02*
X5519738Y-3905833D01*
X5543548Y-3893928D01*
X5579262Y-3893928D01*
X5603071Y-3905833D01*
X5614976Y-3929643D01*
X5614976Y-4060595D01*
X5888786Y-3893928D02*
X5984024Y-3893928D01*
X5924500Y-4060595D02*
X5924500Y-3846309D01*
X5936405Y-3822500D01*
X5960214Y-3810595D01*
X5984024Y-3810595D01*
X6067357Y-4060595D02*
X6067357Y-3893928D01*
X6067357Y-3810595D02*
X6055452Y-3822500D01*
X6067357Y-3834405D01*
X6079262Y-3822500D01*
X6067357Y-3810595D01*
X6067357Y-3834405D01*
X6186405Y-3893928D02*
X6186405Y-4060595D01*
X6186405Y-3917738D02*
X6198309Y-3905833D01*
X6222119Y-3893928D01*
X6257833Y-3893928D01*
X6281643Y-3905833D01*
X6293548Y-3929643D01*
X6293548Y-4060595D01*
X6519738Y-3893928D02*
X6519738Y-4096309D01*
X6507833Y-4120119D01*
X6495928Y-4132024D01*
X6472119Y-4143928D01*
X6436405Y-4143928D01*
X6412595Y-4132024D01*
X6519738Y-4048690D02*
X6495928Y-4060595D01*
X6448309Y-4060595D01*
X6424500Y-4048690D01*
X6412595Y-4036786D01*
X6400690Y-4012976D01*
X6400690Y-3941548D01*
X6412595Y-3917738D01*
X6424500Y-3905833D01*
X6448309Y-3893928D01*
X6495928Y-3893928D01*
X6519738Y-3905833D01*
X6734024Y-4048690D02*
X6710214Y-4060595D01*
X6662595Y-4060595D01*
X6638786Y-4048690D01*
X6626881Y-4024881D01*
X6626881Y-3929643D01*
X6638786Y-3905833D01*
X6662595Y-3893928D01*
X6710214Y-3893928D01*
X6734024Y-3905833D01*
X6745928Y-3929643D01*
X6745928Y-3953452D01*
X6626881Y-3977262D01*
X6853071Y-4060595D02*
X6853071Y-3893928D01*
X6853071Y-3941548D02*
X6864976Y-3917738D01*
X6876881Y-3905833D01*
X6900690Y-3893928D01*
X6924500Y-3893928D01*
X6995928Y-4048690D02*
X7019738Y-4060595D01*
X7067357Y-4060595D01*
X7091167Y-4048690D01*
X7103071Y-4024881D01*
X7103071Y-4012976D01*
X7091167Y-3989167D01*
X7067357Y-3977262D01*
X7031643Y-3977262D01*
X7007833Y-3965357D01*
X6995928Y-3941548D01*
X6995928Y-3929643D01*
X7007833Y-3905833D01*
X7031643Y-3893928D01*
X7067357Y-3893928D01*
X7091167Y-3905833D01*
X7222119Y-4048690D02*
X7222119Y-4060595D01*
X7210214Y-4084405D01*
X7198309Y-4096309D01*
X7507833Y-4048690D02*
X7531643Y-4060595D01*
X7579262Y-4060595D01*
X7603071Y-4048690D01*
X7614976Y-4024881D01*
X7614976Y-4012976D01*
X7603071Y-3989167D01*
X7579262Y-3977262D01*
X7543548Y-3977262D01*
X7519738Y-3965357D01*
X7507833Y-3941548D01*
X7507833Y-3929643D01*
X7519738Y-3905833D01*
X7543548Y-3893928D01*
X7579262Y-3893928D01*
X7603071Y-3905833D01*
X7722119Y-4060595D02*
X7722119Y-3893928D01*
X7722119Y-3810595D02*
X7710214Y-3822500D01*
X7722119Y-3834405D01*
X7734024Y-3822500D01*
X7722119Y-3810595D01*
X7722119Y-3834405D01*
X7948309Y-4060595D02*
X7948309Y-3810595D01*
X7948309Y-4048690D02*
X7924500Y-4060595D01*
X7876881Y-4060595D01*
X7853071Y-4048690D01*
X7841167Y-4036786D01*
X7829262Y-4012976D01*
X7829262Y-3941548D01*
X7841167Y-3917738D01*
X7853071Y-3905833D01*
X7876881Y-3893928D01*
X7924500Y-3893928D01*
X7948309Y-3905833D01*
X8162595Y-4048690D02*
X8138786Y-4060595D01*
X8091167Y-4060595D01*
X8067357Y-4048690D01*
X8055452Y-4024881D01*
X8055452Y-3929643D01*
X8067357Y-3905833D01*
X8091167Y-3893928D01*
X8138786Y-3893928D01*
X8162595Y-3905833D01*
X8174500Y-3929643D01*
X8174500Y-3953452D01*
X8055452Y-3977262D01*
X1734024Y-4334643D02*
X1817357Y-4334643D01*
X1853071Y-4465595D02*
X1734024Y-4465595D01*
X1734024Y-4215595D01*
X1853071Y-4215595D01*
X1960214Y-4465595D02*
X1960214Y-4215595D01*
X2103071Y-4465595D01*
X2103071Y-4215595D01*
X2222119Y-4465595D02*
X2222119Y-4215595D01*
X2472119Y-4227500D02*
X2448310Y-4215595D01*
X2412595Y-4215595D01*
X2376881Y-4227500D01*
X2353071Y-4251310D01*
X2341167Y-4275119D01*
X2329262Y-4322738D01*
X2329262Y-4358452D01*
X2341167Y-4406071D01*
X2353071Y-4429881D01*
X2376881Y-4453690D01*
X2412595Y-4465595D01*
X2436405Y-4465595D01*
X2472119Y-4453690D01*
X2484024Y-4441786D01*
X2484024Y-4358452D01*
X2436405Y-4358452D01*
X2817357Y-4465595D02*
X2793548Y-4453690D01*
X2781643Y-4441786D01*
X2769738Y-4417976D01*
X2769738Y-4346548D01*
X2781643Y-4322738D01*
X2793548Y-4310833D01*
X2817357Y-4298929D01*
X2853071Y-4298929D01*
X2876881Y-4310833D01*
X2888786Y-4322738D01*
X2900690Y-4346548D01*
X2900690Y-4417976D01*
X2888786Y-4441786D01*
X2876881Y-4453690D01*
X2853071Y-4465595D01*
X2817357Y-4465595D01*
X3007833Y-4298929D02*
X3007833Y-4465595D01*
X3007833Y-4322738D02*
X3019738Y-4310833D01*
X3043548Y-4298929D01*
X3079262Y-4298929D01*
X3103071Y-4310833D01*
X3114976Y-4334643D01*
X3114976Y-4465595D01*
X3460214Y-4465595D02*
X3436405Y-4453690D01*
X3424500Y-4441786D01*
X3412595Y-4417976D01*
X3412595Y-4346548D01*
X3424500Y-4322738D01*
X3436405Y-4310833D01*
X3460214Y-4298929D01*
X3495928Y-4298929D01*
X3519738Y-4310833D01*
X3531643Y-4322738D01*
X3543548Y-4346548D01*
X3543548Y-4417976D01*
X3531643Y-4441786D01*
X3519738Y-4453690D01*
X3495928Y-4465595D01*
X3460214Y-4465595D01*
X3614976Y-4298929D02*
X3710214Y-4298929D01*
X3650690Y-4215595D02*
X3650690Y-4429881D01*
X3662595Y-4453690D01*
X3686405Y-4465595D01*
X3710214Y-4465595D01*
X3793548Y-4465595D02*
X3793548Y-4215595D01*
X3900690Y-4465595D02*
X3900690Y-4334643D01*
X3888786Y-4310833D01*
X3864976Y-4298929D01*
X3829262Y-4298929D01*
X3805452Y-4310833D01*
X3793548Y-4322738D01*
X4114976Y-4453690D02*
X4091167Y-4465595D01*
X4043548Y-4465595D01*
X4019738Y-4453690D01*
X4007833Y-4429881D01*
X4007833Y-4334643D01*
X4019738Y-4310833D01*
X4043548Y-4298929D01*
X4091167Y-4298929D01*
X4114976Y-4310833D01*
X4126881Y-4334643D01*
X4126881Y-4358452D01*
X4007833Y-4382262D01*
X4234024Y-4465595D02*
X4234024Y-4298929D01*
X4234024Y-4346548D02*
X4245929Y-4322738D01*
X4257833Y-4310833D01*
X4281643Y-4298929D01*
X4305452Y-4298929D01*
X4567357Y-4453690D02*
X4591167Y-4465595D01*
X4638786Y-4465595D01*
X4662595Y-4453690D01*
X4674500Y-4429881D01*
X4674500Y-4417976D01*
X4662595Y-4394167D01*
X4638786Y-4382262D01*
X4603071Y-4382262D01*
X4579262Y-4370357D01*
X4567357Y-4346548D01*
X4567357Y-4334643D01*
X4579262Y-4310833D01*
X4603071Y-4298929D01*
X4638786Y-4298929D01*
X4662595Y-4310833D01*
X4888786Y-4298929D02*
X4888786Y-4465595D01*
X4781643Y-4298929D02*
X4781643Y-4429881D01*
X4793548Y-4453690D01*
X4817357Y-4465595D01*
X4853071Y-4465595D01*
X4876881Y-4453690D01*
X4888786Y-4441786D01*
X5007833Y-4465595D02*
X5007833Y-4298929D01*
X5007833Y-4346548D02*
X5019738Y-4322738D01*
X5031643Y-4310833D01*
X5055452Y-4298929D01*
X5079262Y-4298929D01*
X5126881Y-4298929D02*
X5222119Y-4298929D01*
X5162595Y-4465595D02*
X5162595Y-4251310D01*
X5174500Y-4227500D01*
X5198310Y-4215595D01*
X5222119Y-4215595D01*
X5412595Y-4465595D02*
X5412595Y-4334643D01*
X5400690Y-4310833D01*
X5376881Y-4298929D01*
X5329262Y-4298929D01*
X5305452Y-4310833D01*
X5412595Y-4453690D02*
X5388786Y-4465595D01*
X5329262Y-4465595D01*
X5305452Y-4453690D01*
X5293548Y-4429881D01*
X5293548Y-4406071D01*
X5305452Y-4382262D01*
X5329262Y-4370357D01*
X5388786Y-4370357D01*
X5412595Y-4358452D01*
X5638786Y-4453690D02*
X5614976Y-4465595D01*
X5567357Y-4465595D01*
X5543548Y-4453690D01*
X5531643Y-4441786D01*
X5519738Y-4417976D01*
X5519738Y-4346548D01*
X5531643Y-4322738D01*
X5543548Y-4310833D01*
X5567357Y-4298929D01*
X5614976Y-4298929D01*
X5638786Y-4310833D01*
X5841167Y-4453690D02*
X5817357Y-4465595D01*
X5769738Y-4465595D01*
X5745928Y-4453690D01*
X5734024Y-4429881D01*
X5734024Y-4334643D01*
X5745928Y-4310833D01*
X5769738Y-4298929D01*
X5817357Y-4298929D01*
X5841167Y-4310833D01*
X5853071Y-4334643D01*
X5853071Y-4358452D01*
X5734024Y-4382262D01*
X5948309Y-4453690D02*
X5972119Y-4465595D01*
X6019738Y-4465595D01*
X6043548Y-4453690D01*
X6055452Y-4429881D01*
X6055452Y-4417976D01*
X6043548Y-4394167D01*
X6019738Y-4382262D01*
X5984024Y-4382262D01*
X5960214Y-4370357D01*
X5948309Y-4346548D01*
X5948309Y-4334643D01*
X5960214Y-4310833D01*
X5984024Y-4298929D01*
X6019738Y-4298929D01*
X6043548Y-4310833D01*
D11*
G04 #@! TO.C,U9*
X1585000Y-2185000D02*
X1635000Y-2135000D01*
X1585000Y-2185000D02*
X1535000Y-2135000D01*
X1585000Y-1985000D02*
X1585000Y-2185000D01*
X1535000Y-2035000D02*
X1585000Y-1985000D01*
X1585000Y-1985000D02*
X1635000Y-2035000D01*
X1585000Y-1985000D02*
X1535000Y-2035000D01*
X1635000Y-2035000D02*
X1585000Y-1985000D01*
X1585000Y-2385000D02*
X1635000Y-2335000D01*
X1585000Y-2385000D02*
X1535000Y-2335000D01*
X1585000Y-2185000D02*
X1585000Y-2385000D01*
X1685000Y-2185000D02*
X1485000Y-2185000D01*
X1585000Y-2185000D02*
X1635000Y-2235000D01*
X1535000Y-2235000D02*
X1585000Y-2185000D01*
X1585000Y-2185000D02*
X1535000Y-2235000D01*
X1635000Y-2235000D02*
X1585000Y-2185000D01*
X1685000Y-2735000D02*
X1485000Y-2735000D01*
X1685000Y-2385000D02*
X1485000Y-2385000D01*
X1635000Y-2435000D02*
X1585000Y-2385000D01*
X1585000Y-2385000D02*
X1635000Y-2435000D01*
X1535000Y-2435000D02*
X1585000Y-2385000D01*
X1585000Y-2385000D02*
X1535000Y-2435000D01*
X1585000Y-2735000D02*
X1535000Y-2685000D01*
X1585000Y-2385000D02*
X1585000Y-2735000D01*
X1585000Y-2735000D02*
X1635000Y-2685000D01*
X1685000Y-1985000D02*
X1485000Y-1985000D01*
X1685000Y-1635000D02*
X1485000Y-1635000D01*
X1585000Y-1985000D02*
X1535000Y-1935000D01*
X1585000Y-1635000D02*
X1535000Y-1685000D01*
X1635000Y-1685000D02*
X1585000Y-1635000D01*
X1535000Y-1685000D02*
X1585000Y-1635000D01*
X1585000Y-1635000D02*
X1635000Y-1685000D01*
X1585000Y-1635000D02*
X1585000Y-1985000D01*
X1585000Y-1985000D02*
X1635000Y-1935000D01*
X3085000Y-2685000D02*
X3035000Y-2735000D01*
X3035000Y-2735000D02*
X2985000Y-2685000D01*
X2985000Y-2685000D02*
X3035000Y-2735000D01*
X3035000Y-2735000D02*
X3085000Y-2685000D01*
X2885000Y-2735000D02*
X3085000Y-2735000D01*
X3035000Y-1635000D02*
X3085000Y-1685000D01*
X3035000Y-1635000D02*
X2985000Y-1685000D01*
X2885000Y-1635000D02*
X3085000Y-1635000D01*
X3035000Y-2735000D02*
X3035000Y-1635000D01*
X2885000Y-1635000D02*
X2885000Y-1435000D01*
X2885000Y-1535000D02*
X2835000Y-1485000D01*
X2835000Y-1485000D02*
X2885000Y-1535000D01*
X2885000Y-1535000D02*
X2835000Y-1585000D01*
X2835000Y-1585000D02*
X2885000Y-1535000D01*
X2885000Y-1535000D02*
X1685000Y-1535000D01*
X1685000Y-1535000D02*
X1735000Y-1485000D01*
X1685000Y-1535000D02*
X1735000Y-1585000D01*
X1685000Y-1635000D02*
X1685000Y-1435000D01*
G04 #@! TD*
G04 #@! TO.C,U9*
D12*
X1521309Y-1825000D02*
X1521309Y-1816333D01*
X1530833Y-1821000D01*
X1530833Y-1819000D01*
X1532024Y-1817667D01*
X1533214Y-1817000D01*
X1535595Y-1816333D01*
X1541548Y-1816333D01*
X1543928Y-1817000D01*
X1545119Y-1817667D01*
X1546309Y-1819000D01*
X1546309Y-1823000D01*
X1545119Y-1824333D01*
X1543928Y-1825000D01*
X1543928Y-1810333D02*
X1545119Y-1809667D01*
X1546309Y-1810333D01*
X1545119Y-1811000D01*
X1543928Y-1810333D01*
X1546309Y-1810333D01*
X1521309Y-1797000D02*
X1521309Y-1803667D01*
X1533214Y-1804333D01*
X1532024Y-1803667D01*
X1530833Y-1802333D01*
X1530833Y-1799000D01*
X1532024Y-1797667D01*
X1533214Y-1797000D01*
X1535595Y-1796333D01*
X1541548Y-1796333D01*
X1543928Y-1797000D01*
X1545119Y-1797667D01*
X1546309Y-1799000D01*
X1546309Y-1802333D01*
X1545119Y-1803667D01*
X1543928Y-1804333D01*
X1521309Y-1787667D02*
X1521309Y-1786333D01*
X1522500Y-1785000D01*
X1523690Y-1784333D01*
X1526071Y-1783667D01*
X1530833Y-1783000D01*
X1536786Y-1783000D01*
X1541548Y-1783667D01*
X1543928Y-1784333D01*
X1545119Y-1785000D01*
X1546309Y-1786333D01*
X1546309Y-1787667D01*
X1545119Y-1789000D01*
X1543928Y-1789667D01*
X1541548Y-1790333D01*
X1536786Y-1791000D01*
X1530833Y-1791000D01*
X1526071Y-1790333D01*
X1523690Y-1789667D01*
X1522500Y-1789000D01*
X1521309Y-1787667D01*
X1546309Y-1777000D02*
X1529643Y-1777000D01*
X1532024Y-1777000D02*
X1530833Y-1776333D01*
X1529643Y-1775000D01*
X1529643Y-1773000D01*
X1530833Y-1771667D01*
X1533214Y-1771000D01*
X1546309Y-1771000D01*
X1533214Y-1771000D02*
X1530833Y-1770333D01*
X1529643Y-1769000D01*
X1529643Y-1767000D01*
X1530833Y-1765667D01*
X1533214Y-1765000D01*
X1546309Y-1765000D01*
X1546309Y-1758333D02*
X1529643Y-1758333D01*
X1532024Y-1758333D02*
X1530833Y-1757667D01*
X1529643Y-1756333D01*
X1529643Y-1754333D01*
X1530833Y-1753000D01*
X1533214Y-1752333D01*
X1546309Y-1752333D01*
X1533214Y-1752333D02*
X1530833Y-1751667D01*
X1529643Y-1750333D01*
X1529643Y-1748333D01*
X1530833Y-1747000D01*
X1533214Y-1746333D01*
X1546309Y-1746333D01*
D13*
X1523690Y-2127143D02*
X1522500Y-2126429D01*
X1521309Y-2125000D01*
X1521309Y-2121429D01*
X1522500Y-2120000D01*
X1523690Y-2119286D01*
X1526071Y-2118571D01*
X1528452Y-2118571D01*
X1532024Y-2119286D01*
X1546309Y-2127857D01*
X1546309Y-2118571D01*
X1543928Y-2112143D02*
X1545119Y-2111429D01*
X1546309Y-2112143D01*
X1545119Y-2112857D01*
X1543928Y-2112143D01*
X1546309Y-2112143D01*
X1521309Y-2102143D02*
X1521309Y-2100714D01*
X1522500Y-2099286D01*
X1523690Y-2098571D01*
X1526071Y-2097857D01*
X1530833Y-2097143D01*
X1536786Y-2097143D01*
X1541548Y-2097857D01*
X1543928Y-2098571D01*
X1545119Y-2099286D01*
X1546309Y-2100714D01*
X1546309Y-2102143D01*
X1545119Y-2103571D01*
X1543928Y-2104286D01*
X1541548Y-2105000D01*
X1536786Y-2105714D01*
X1530833Y-2105714D01*
X1526071Y-2105000D01*
X1523690Y-2104286D01*
X1522500Y-2103571D01*
X1521309Y-2102143D01*
X1521309Y-2087857D02*
X1521309Y-2086428D01*
X1522500Y-2085000D01*
X1523690Y-2084286D01*
X1526071Y-2083571D01*
X1530833Y-2082857D01*
X1536786Y-2082857D01*
X1541548Y-2083571D01*
X1543928Y-2084286D01*
X1545119Y-2085000D01*
X1546309Y-2086428D01*
X1546309Y-2087857D01*
X1545119Y-2089286D01*
X1543928Y-2090000D01*
X1541548Y-2090714D01*
X1536786Y-2091428D01*
X1530833Y-2091428D01*
X1526071Y-2090714D01*
X1523690Y-2090000D01*
X1522500Y-2089286D01*
X1521309Y-2087857D01*
X1546309Y-2076428D02*
X1529643Y-2076428D01*
X1532024Y-2076428D02*
X1530833Y-2075714D01*
X1529643Y-2074286D01*
X1529643Y-2072143D01*
X1530833Y-2070714D01*
X1533214Y-2070000D01*
X1546309Y-2070000D01*
X1533214Y-2070000D02*
X1530833Y-2069286D01*
X1529643Y-2067857D01*
X1529643Y-2065714D01*
X1530833Y-2064286D01*
X1533214Y-2063571D01*
X1546309Y-2063571D01*
X1546309Y-2056428D02*
X1529643Y-2056428D01*
X1532024Y-2056428D02*
X1530833Y-2055714D01*
X1529643Y-2054286D01*
X1529643Y-2052143D01*
X1530833Y-2050714D01*
X1533214Y-2050000D01*
X1546309Y-2050000D01*
X1533214Y-2050000D02*
X1530833Y-2049286D01*
X1529643Y-2047857D01*
X1529643Y-2045714D01*
X1530833Y-2044286D01*
X1533214Y-2043571D01*
X1546309Y-2043571D01*
X1523690Y-2327143D02*
X1522500Y-2326429D01*
X1521309Y-2325000D01*
X1521309Y-2321429D01*
X1522500Y-2320000D01*
X1523690Y-2319286D01*
X1526071Y-2318571D01*
X1528452Y-2318571D01*
X1532024Y-2319286D01*
X1546309Y-2327857D01*
X1546309Y-2318571D01*
X1543928Y-2312143D02*
X1545119Y-2311429D01*
X1546309Y-2312143D01*
X1545119Y-2312857D01*
X1543928Y-2312143D01*
X1546309Y-2312143D01*
X1521309Y-2302143D02*
X1521309Y-2300714D01*
X1522500Y-2299286D01*
X1523690Y-2298571D01*
X1526071Y-2297857D01*
X1530833Y-2297143D01*
X1536786Y-2297143D01*
X1541548Y-2297857D01*
X1543928Y-2298571D01*
X1545119Y-2299286D01*
X1546309Y-2300714D01*
X1546309Y-2302143D01*
X1545119Y-2303571D01*
X1543928Y-2304286D01*
X1541548Y-2305000D01*
X1536786Y-2305714D01*
X1530833Y-2305714D01*
X1526071Y-2305000D01*
X1523690Y-2304286D01*
X1522500Y-2303571D01*
X1521309Y-2302143D01*
X1521309Y-2287857D02*
X1521309Y-2286429D01*
X1522500Y-2285000D01*
X1523690Y-2284286D01*
X1526071Y-2283571D01*
X1530833Y-2282857D01*
X1536786Y-2282857D01*
X1541548Y-2283571D01*
X1543928Y-2284286D01*
X1545119Y-2285000D01*
X1546309Y-2286429D01*
X1546309Y-2287857D01*
X1545119Y-2289286D01*
X1543928Y-2290000D01*
X1541548Y-2290714D01*
X1536786Y-2291429D01*
X1530833Y-2291429D01*
X1526071Y-2290714D01*
X1523690Y-2290000D01*
X1522500Y-2289286D01*
X1521309Y-2287857D01*
X1546309Y-2276429D02*
X1529643Y-2276429D01*
X1532024Y-2276429D02*
X1530833Y-2275714D01*
X1529643Y-2274286D01*
X1529643Y-2272143D01*
X1530833Y-2270714D01*
X1533214Y-2270000D01*
X1546309Y-2270000D01*
X1533214Y-2270000D02*
X1530833Y-2269286D01*
X1529643Y-2267857D01*
X1529643Y-2265714D01*
X1530833Y-2264286D01*
X1533214Y-2263571D01*
X1546309Y-2263571D01*
X1546309Y-2256429D02*
X1529643Y-2256429D01*
X1532024Y-2256429D02*
X1530833Y-2255714D01*
X1529643Y-2254286D01*
X1529643Y-2252143D01*
X1530833Y-2250714D01*
X1533214Y-2250000D01*
X1546309Y-2250000D01*
X1533214Y-2250000D02*
X1530833Y-2249286D01*
X1529643Y-2247857D01*
X1529643Y-2245714D01*
X1530833Y-2244286D01*
X1533214Y-2243571D01*
X1546309Y-2243571D01*
D12*
X1521309Y-2575000D02*
X1521309Y-2566333D01*
X1530833Y-2571000D01*
X1530833Y-2569000D01*
X1532024Y-2567667D01*
X1533214Y-2567000D01*
X1535595Y-2566333D01*
X1541548Y-2566333D01*
X1543928Y-2567000D01*
X1545119Y-2567667D01*
X1546309Y-2569000D01*
X1546309Y-2573000D01*
X1545119Y-2574333D01*
X1543928Y-2575000D01*
X1543928Y-2560333D02*
X1545119Y-2559667D01*
X1546309Y-2560333D01*
X1545119Y-2561000D01*
X1543928Y-2560333D01*
X1546309Y-2560333D01*
X1521309Y-2547000D02*
X1521309Y-2553667D01*
X1533214Y-2554333D01*
X1532024Y-2553667D01*
X1530833Y-2552333D01*
X1530833Y-2549000D01*
X1532024Y-2547667D01*
X1533214Y-2547000D01*
X1535595Y-2546333D01*
X1541548Y-2546333D01*
X1543928Y-2547000D01*
X1545119Y-2547667D01*
X1546309Y-2549000D01*
X1546309Y-2552333D01*
X1545119Y-2553667D01*
X1543928Y-2554333D01*
X1521309Y-2537667D02*
X1521309Y-2536333D01*
X1522500Y-2535000D01*
X1523690Y-2534333D01*
X1526071Y-2533667D01*
X1530833Y-2533000D01*
X1536786Y-2533000D01*
X1541548Y-2533667D01*
X1543928Y-2534333D01*
X1545119Y-2535000D01*
X1546309Y-2536333D01*
X1546309Y-2537667D01*
X1545119Y-2539000D01*
X1543928Y-2539667D01*
X1541548Y-2540333D01*
X1536786Y-2541000D01*
X1530833Y-2541000D01*
X1526071Y-2540333D01*
X1523690Y-2539667D01*
X1522500Y-2539000D01*
X1521309Y-2537667D01*
X1546309Y-2527000D02*
X1529643Y-2527000D01*
X1532024Y-2527000D02*
X1530833Y-2526333D01*
X1529643Y-2525000D01*
X1529643Y-2523000D01*
X1530833Y-2521667D01*
X1533214Y-2521000D01*
X1546309Y-2521000D01*
X1533214Y-2521000D02*
X1530833Y-2520333D01*
X1529643Y-2519000D01*
X1529643Y-2517000D01*
X1530833Y-2515667D01*
X1533214Y-2515000D01*
X1546309Y-2515000D01*
X1546309Y-2508333D02*
X1529643Y-2508333D01*
X1532024Y-2508333D02*
X1530833Y-2507667D01*
X1529643Y-2506333D01*
X1529643Y-2504333D01*
X1530833Y-2503000D01*
X1533214Y-2502333D01*
X1546309Y-2502333D01*
X1533214Y-2502333D02*
X1530833Y-2501667D01*
X1529643Y-2500333D01*
X1529643Y-2498333D01*
X1530833Y-2497000D01*
X1533214Y-2496333D01*
X1546309Y-2496333D01*
D11*
X3160238Y-2483929D02*
X3160238Y-2541071D01*
X3160238Y-2512500D02*
X3060238Y-2512500D01*
X3074524Y-2522024D01*
X3084048Y-2531548D01*
X3088809Y-2541071D01*
X3160238Y-2388690D02*
X3160238Y-2445833D01*
X3160238Y-2417262D02*
X3060238Y-2417262D01*
X3074524Y-2426786D01*
X3084048Y-2436310D01*
X3088809Y-2445833D01*
X3150714Y-2345833D02*
X3155476Y-2341071D01*
X3160238Y-2345833D01*
X3155476Y-2350595D01*
X3150714Y-2345833D01*
X3160238Y-2345833D01*
X3060238Y-2279167D02*
X3060238Y-2269643D01*
X3065000Y-2260119D01*
X3069762Y-2255357D01*
X3079286Y-2250595D01*
X3098333Y-2245833D01*
X3122143Y-2245833D01*
X3141190Y-2250595D01*
X3150714Y-2255357D01*
X3155476Y-2260119D01*
X3160238Y-2269643D01*
X3160238Y-2279167D01*
X3155476Y-2288690D01*
X3150714Y-2293452D01*
X3141190Y-2298214D01*
X3122143Y-2302976D01*
X3098333Y-2302976D01*
X3079286Y-2298214D01*
X3069762Y-2293452D01*
X3065000Y-2288690D01*
X3060238Y-2279167D01*
X3060238Y-2183929D02*
X3060238Y-2174405D01*
X3065000Y-2164881D01*
X3069762Y-2160119D01*
X3079286Y-2155357D01*
X3098333Y-2150595D01*
X3122143Y-2150595D01*
X3141190Y-2155357D01*
X3150714Y-2160119D01*
X3155476Y-2164881D01*
X3160238Y-2174405D01*
X3160238Y-2183929D01*
X3155476Y-2193452D01*
X3150714Y-2198214D01*
X3141190Y-2202976D01*
X3122143Y-2207738D01*
X3098333Y-2207738D01*
X3079286Y-2202976D01*
X3069762Y-2198214D01*
X3065000Y-2193452D01*
X3060238Y-2183929D01*
X3160238Y-2107738D02*
X3093571Y-2107738D01*
X3103095Y-2107738D02*
X3098333Y-2102976D01*
X3093571Y-2093452D01*
X3093571Y-2079167D01*
X3098333Y-2069643D01*
X3107857Y-2064881D01*
X3160238Y-2064881D01*
X3107857Y-2064881D02*
X3098333Y-2060119D01*
X3093571Y-2050595D01*
X3093571Y-2036309D01*
X3098333Y-2026786D01*
X3107857Y-2022024D01*
X3160238Y-2022024D01*
X3160238Y-1974405D02*
X3093571Y-1974405D01*
X3103095Y-1974405D02*
X3098333Y-1969643D01*
X3093571Y-1960119D01*
X3093571Y-1945833D01*
X3098333Y-1936309D01*
X3107857Y-1931548D01*
X3160238Y-1931548D01*
X3107857Y-1931548D02*
X3098333Y-1926786D01*
X3093571Y-1917262D01*
X3093571Y-1902976D01*
X3098333Y-1893452D01*
X3107857Y-1888690D01*
X3160238Y-1888690D01*
X2013571Y-1530238D02*
X1956428Y-1530238D01*
X1985000Y-1530238D02*
X1985000Y-1430238D01*
X1975476Y-1444524D01*
X1965952Y-1454048D01*
X1956428Y-1458809D01*
X2051667Y-1439762D02*
X2056428Y-1435000D01*
X2065952Y-1430238D01*
X2089762Y-1430238D01*
X2099286Y-1435000D01*
X2104048Y-1439762D01*
X2108810Y-1449286D01*
X2108810Y-1458809D01*
X2104048Y-1473095D01*
X2046905Y-1530238D01*
X2108810Y-1530238D01*
X2151667Y-1520714D02*
X2156429Y-1525476D01*
X2151667Y-1530238D01*
X2146905Y-1525476D01*
X2151667Y-1520714D01*
X2151667Y-1530238D01*
X2218333Y-1430238D02*
X2227857Y-1430238D01*
X2237381Y-1435000D01*
X2242143Y-1439762D01*
X2246905Y-1449286D01*
X2251667Y-1468333D01*
X2251667Y-1492143D01*
X2246905Y-1511190D01*
X2242143Y-1520714D01*
X2237381Y-1525476D01*
X2227857Y-1530238D01*
X2218333Y-1530238D01*
X2208810Y-1525476D01*
X2204048Y-1520714D01*
X2199286Y-1511190D01*
X2194524Y-1492143D01*
X2194524Y-1468333D01*
X2199286Y-1449286D01*
X2204048Y-1439762D01*
X2208810Y-1435000D01*
X2218333Y-1430238D01*
X2313571Y-1430238D02*
X2323095Y-1430238D01*
X2332619Y-1435000D01*
X2337381Y-1439762D01*
X2342143Y-1449286D01*
X2346905Y-1468333D01*
X2346905Y-1492143D01*
X2342143Y-1511190D01*
X2337381Y-1520714D01*
X2332619Y-1525476D01*
X2323095Y-1530238D01*
X2313571Y-1530238D01*
X2304048Y-1525476D01*
X2299286Y-1520714D01*
X2294524Y-1511190D01*
X2289762Y-1492143D01*
X2289762Y-1468333D01*
X2294524Y-1449286D01*
X2299286Y-1439762D01*
X2304048Y-1435000D01*
X2313571Y-1430238D01*
X2389762Y-1530238D02*
X2389762Y-1463571D01*
X2389762Y-1473095D02*
X2394524Y-1468333D01*
X2404048Y-1463571D01*
X2418333Y-1463571D01*
X2427857Y-1468333D01*
X2432619Y-1477857D01*
X2432619Y-1530238D01*
X2432619Y-1477857D02*
X2437381Y-1468333D01*
X2446905Y-1463571D01*
X2461190Y-1463571D01*
X2470714Y-1468333D01*
X2475476Y-1477857D01*
X2475476Y-1530238D01*
X2523095Y-1530238D02*
X2523095Y-1463571D01*
X2523095Y-1473095D02*
X2527857Y-1468333D01*
X2537381Y-1463571D01*
X2551667Y-1463571D01*
X2561190Y-1468333D01*
X2565952Y-1477857D01*
X2565952Y-1530238D01*
X2565952Y-1477857D02*
X2570714Y-1468333D01*
X2580238Y-1463571D01*
X2594524Y-1463571D01*
X2604048Y-1468333D01*
X2608810Y-1477857D01*
X2608810Y-1530238D01*
G04 #@! TD*
M02*
