G04 #@! TF.GenerationSoftware,KiCad,Pcbnew,(5.0.1)-3*
G04 #@! TF.CreationDate,2018-12-25T10:08:42+08:00*
G04 #@! TF.ProjectId,tomu-fpga,746F6D752D667067612E6B696361645F,EVT3*
G04 #@! TF.SameCoordinates,Original*
G04 #@! TF.FileFunction,Copper,L2,Bot,Signal*
G04 #@! TF.FilePolarity,Positive*
%FSLAX46Y46*%
G04 Gerber Fmt 4.6, Leading zero omitted, Abs format (unit mm)*
G04 Created by KiCad (PCBNEW (5.0.1)-3) date 12/25/18 10:08:42*
%MOMM*%
%LPD*%
G01*
G04 APERTURE LIST*
G04 #@! TA.AperFunction,ComponentPad*
%ADD10O,1.700000X1.700000*%
G04 #@! TD*
G04 #@! TA.AperFunction,ComponentPad*
%ADD11R,1.700000X1.700000*%
G04 #@! TD*
G04 #@! TA.AperFunction,ViaPad*
%ADD12C,0.685800*%
G04 #@! TD*
G04 #@! TA.AperFunction,Conductor*
%ADD13C,0.152400*%
G04 #@! TD*
G04 #@! TA.AperFunction,Conductor*
%ADD14C,0.300000*%
G04 #@! TD*
G04 #@! TA.AperFunction,Conductor*
%ADD15C,0.500000*%
G04 #@! TD*
G04 #@! TA.AperFunction,Conductor*
%ADD16C,0.254000*%
G04 #@! TD*
G04 APERTURE END LIST*
D10*
G04 #@! TO.P,J2,6*
G04 #@! TO.N,+3V3*
X49700000Y-44500000D03*
G04 #@! TO.P,J2,5*
G04 #@! TO.N,GND*
X47160000Y-44500000D03*
G04 #@! TO.P,J2,4*
G04 #@! TO.N,/PMODb_4*
X44620000Y-44500000D03*
G04 #@! TO.P,J2,3*
G04 #@! TO.N,/PMODb_3*
X42080000Y-44500000D03*
G04 #@! TO.P,J2,2*
G04 #@! TO.N,/PMODb_2*
X39540000Y-44500000D03*
D11*
G04 #@! TO.P,J2,1*
G04 #@! TO.N,/PMODb_1*
X37000000Y-44500000D03*
G04 #@! TD*
G04 #@! TO.P,J3,1*
G04 #@! TO.N,/PMODa_1*
X95730000Y-75380000D03*
D10*
G04 #@! TO.P,J3,2*
G04 #@! TO.N,/PMODa_2*
X98270000Y-75380000D03*
G04 #@! TO.P,J3,3*
G04 #@! TO.N,/PMODa_3*
X100810000Y-75380000D03*
G04 #@! TO.P,J3,4*
G04 #@! TO.N,/PMODa_4*
X103350000Y-75380000D03*
G04 #@! TO.P,J3,5*
G04 #@! TO.N,GND*
X105890000Y-75380000D03*
G04 #@! TO.P,J3,6*
G04 #@! TO.N,+3V3*
X108430000Y-75380000D03*
G04 #@! TD*
D11*
G04 #@! TO.P,J1,1*
G04 #@! TO.N,Net-(J1-Pad1)*
X75000000Y-75000000D03*
D10*
G04 #@! TO.P,J1,2*
G04 #@! TO.N,+5V*
X75000000Y-77540000D03*
G04 #@! TO.P,J1,3*
G04 #@! TO.N,/DBG_1*
X72460000Y-75000000D03*
G04 #@! TO.P,J1,4*
G04 #@! TO.N,+5V*
X72460000Y-77540000D03*
G04 #@! TO.P,J1,5*
G04 #@! TO.N,/DBG_2*
X69920000Y-75000000D03*
G04 #@! TO.P,J1,6*
G04 #@! TO.N,GND*
X69920000Y-77540000D03*
G04 #@! TO.P,J1,7*
G04 #@! TO.N,/DBG_3*
X67380000Y-75000000D03*
G04 #@! TO.P,J1,8*
G04 #@! TO.N,/UART_TX*
X67380000Y-77540000D03*
G04 #@! TO.P,J1,9*
G04 #@! TO.N,GND*
X64840000Y-75000000D03*
G04 #@! TO.P,J1,10*
G04 #@! TO.N,/UART_RX*
X64840000Y-77540000D03*
G04 #@! TO.P,J1,11*
G04 #@! TO.N,/CDONE*
X62300000Y-75000000D03*
G04 #@! TO.P,J1,12*
G04 #@! TO.N,/DBG_4*
X62300000Y-77540000D03*
G04 #@! TO.P,J1,13*
G04 #@! TO.N,/CRESET*
X59760000Y-75000000D03*
G04 #@! TO.P,J1,14*
G04 #@! TO.N,GND*
X59760000Y-77540000D03*
G04 #@! TO.P,J1,15*
G04 #@! TO.N,/DBG_5*
X57220000Y-75000000D03*
G04 #@! TO.P,J1,16*
G04 #@! TO.N,Net-(J1-Pad16)*
X57220000Y-77540000D03*
G04 #@! TO.P,J1,17*
G04 #@! TO.N,Net-(J1-Pad17)*
X54680000Y-75000000D03*
G04 #@! TO.P,J1,18*
G04 #@! TO.N,/SPI_IO2*
X54680000Y-77540000D03*
G04 #@! TO.P,J1,19*
G04 #@! TO.N,/SPI_MOSI*
X52140000Y-75000000D03*
G04 #@! TO.P,J1,20*
G04 #@! TO.N,GND*
X52140000Y-77540000D03*
G04 #@! TO.P,J1,21*
G04 #@! TO.N,/SPI_MISO*
X49600000Y-75000000D03*
G04 #@! TO.P,J1,22*
G04 #@! TO.N,/SPI_IO3*
X49600000Y-77540000D03*
G04 #@! TO.P,J1,23*
G04 #@! TO.N,/SPI_CLK*
X47060000Y-75000000D03*
G04 #@! TO.P,J1,24*
G04 #@! TO.N,/SPI_CS*
X47060000Y-77540000D03*
G04 #@! TO.P,J1,25*
G04 #@! TO.N,GND*
X44520000Y-75000000D03*
G04 #@! TO.P,J1,26*
G04 #@! TO.N,/DBG_6*
X44520000Y-77540000D03*
G04 #@! TO.P,J1,27*
G04 #@! TO.N,Net-(J1-Pad27)*
X41980000Y-75000000D03*
G04 #@! TO.P,J1,28*
G04 #@! TO.N,Net-(J1-Pad28)*
X41980000Y-77540000D03*
G04 #@! TO.P,J1,29*
G04 #@! TO.N,Net-(J1-Pad29)*
X39440000Y-75000000D03*
G04 #@! TO.P,J1,30*
G04 #@! TO.N,GND*
X39440000Y-77540000D03*
G04 #@! TO.P,J1,31*
G04 #@! TO.N,Net-(J1-Pad31)*
X36900000Y-75000000D03*
G04 #@! TO.P,J1,32*
G04 #@! TO.N,Net-(J1-Pad32)*
X36900000Y-77540000D03*
G04 #@! TO.P,J1,33*
G04 #@! TO.N,Net-(J1-Pad33)*
X34360000Y-75000000D03*
G04 #@! TO.P,J1,34*
G04 #@! TO.N,GND*
X34360000Y-77540000D03*
G04 #@! TO.P,J1,35*
G04 #@! TO.N,Net-(J1-Pad35)*
X31820000Y-75000000D03*
G04 #@! TO.P,J1,36*
G04 #@! TO.N,Net-(J1-Pad36)*
X31820000Y-77540000D03*
G04 #@! TO.P,J1,37*
G04 #@! TO.N,Net-(J1-Pad37)*
X29280000Y-75000000D03*
G04 #@! TO.P,J1,38*
G04 #@! TO.N,Net-(J1-Pad38)*
X29280000Y-77540000D03*
G04 #@! TO.P,J1,39*
G04 #@! TO.N,GND*
X26740000Y-75000000D03*
G04 #@! TO.P,J1,40*
G04 #@! TO.N,Net-(J1-Pad40)*
X26740000Y-77540000D03*
G04 #@! TD*
D12*
G04 #@! TO.N,+5V*
X99700000Y-50400000D03*
X101250000Y-51750000D03*
X100150000Y-51800000D03*
X62500000Y-49250000D03*
X59600000Y-49600000D03*
X59000000Y-48700000D03*
X60000000Y-48700000D03*
X61200000Y-48600000D03*
X100500000Y-50800000D03*
X101500000Y-50500000D03*
X94000000Y-45500000D03*
X97500000Y-44000000D03*
X98500000Y-41800000D03*
X93000000Y-45500000D03*
X94000000Y-44500000D03*
X94000000Y-46500000D03*
X99000000Y-41100000D03*
X98900000Y-42600000D03*
X61000000Y-50000000D03*
G04 #@! TO.N,GND*
X89500000Y-77000000D03*
X87000000Y-64500000D03*
X89500000Y-65000000D03*
X94000000Y-67000000D03*
X52500000Y-57000000D03*
X62500000Y-52000000D03*
X60000000Y-59500000D03*
X56500000Y-58500000D03*
X76500000Y-35000000D03*
X79500000Y-35000000D03*
X86500000Y-35000000D03*
X89500000Y-35000000D03*
X86500000Y-49000000D03*
X72500000Y-47000000D03*
X44000000Y-61750000D03*
X38500000Y-69000000D03*
X28750000Y-63250000D03*
X36900000Y-58900000D03*
X72250000Y-62000000D03*
X73000000Y-62000000D03*
X73750000Y-62000000D03*
X74500000Y-62000000D03*
X75250000Y-62000000D03*
X76000000Y-62000000D03*
X76000000Y-57900000D03*
X75250000Y-57900000D03*
X74500000Y-57900000D03*
X73750000Y-57900000D03*
X73000000Y-57900000D03*
X72250000Y-57900000D03*
X85100000Y-73900000D03*
X65300000Y-59900000D03*
X56600000Y-60400000D03*
X89900000Y-72000000D03*
X73650000Y-66600000D03*
X72200000Y-71950000D03*
X81100000Y-71200000D03*
X81300000Y-67000000D03*
X81300000Y-69000000D03*
X88400000Y-64500000D03*
X86150000Y-53900000D03*
X67000000Y-52600000D03*
X63000000Y-52700000D03*
X65000000Y-52400000D03*
X57800000Y-50395300D03*
X51900000Y-60000000D03*
X107300000Y-48200000D03*
X105800000Y-46900000D03*
X107900000Y-49000000D03*
X106500000Y-47600000D03*
X105100000Y-47600000D03*
X105800000Y-48300000D03*
X106700000Y-48900000D03*
X107300000Y-49900000D03*
X86500000Y-43000000D03*
X86500000Y-47000000D03*
X88000000Y-47000000D03*
X88000000Y-43000000D03*
X88750000Y-43000000D03*
X87250000Y-43000000D03*
X87250000Y-47000000D03*
X88750000Y-47000000D03*
X73900000Y-50200000D03*
X70300000Y-52300000D03*
X47800000Y-49900000D03*
X95250000Y-39000000D03*
G04 #@! TO.N,+3V3*
X97800000Y-64500000D03*
X82600000Y-57800000D03*
X81800000Y-58100000D03*
X82400000Y-58500000D03*
X75200000Y-66300000D03*
X75200000Y-65200000D03*
X75650000Y-65750000D03*
G04 #@! TO.N,+1V2*
X78500000Y-60000000D03*
X68500000Y-59500000D03*
X69300000Y-59500000D03*
X79400000Y-60100000D03*
X79500000Y-59400000D03*
X68500000Y-60300000D03*
G04 #@! TO.N,/SPI_MOSI*
X68200000Y-67400000D03*
X50700000Y-71600000D03*
G04 #@! TO.N,/SPI_IO2*
X67200000Y-71200000D03*
X42500000Y-69000000D03*
X44099899Y-68000000D03*
G04 #@! TO.N,/DBG_1*
X72000000Y-70000000D03*
G04 #@! TO.N,/CRESET*
X65200000Y-65900000D03*
X51100000Y-69400000D03*
X49029438Y-57402921D03*
X36400000Y-53700000D03*
G04 #@! TO.N,/DBG_4*
X83300000Y-65400000D03*
X93600000Y-70900000D03*
X94140000Y-76390000D03*
X77730000Y-76410000D03*
G04 #@! TO.N,/CDONE*
X65000000Y-64600000D03*
X49700000Y-56900000D03*
G04 #@! TO.N,/UART_RX*
X66450289Y-71771500D03*
G04 #@! TO.N,/UART_TX*
X72000000Y-68750000D03*
G04 #@! TO.N,/SPI_CS*
X68000000Y-68800000D03*
G04 #@! TO.N,/ICE_USBN*
X80500000Y-55900000D03*
X90800000Y-51200000D03*
G04 #@! TO.N,/ICE_USBP*
X91695888Y-51695888D03*
X80800000Y-56800000D03*
G04 #@! TO.N,/SPI_MISO*
X67750000Y-69750000D03*
G04 #@! TO.N,/SPI_CLK*
X67400000Y-68200000D03*
G04 #@! TO.N,/SPI_IO3*
X68750000Y-70500000D03*
G04 #@! TO.N,Net-(SW3-Pad1)*
X79800000Y-43000000D03*
X78100000Y-49700000D03*
X78200000Y-52600000D03*
X83900000Y-39900000D03*
G04 #@! TO.N,Net-(SW4-Pad1)*
X74164001Y-54993561D03*
X74800000Y-37800000D03*
G04 #@! TO.N,/PU_CTRL_USBP*
X80200000Y-57400000D03*
X92600000Y-51600000D03*
G04 #@! TO.N,/PU_CTRL_USBN*
X92000000Y-50600000D03*
X79800000Y-56600000D03*
G04 #@! TO.N,/PMODa_4*
X97000000Y-71000000D03*
X85500000Y-64200000D03*
G04 #@! TO.N,/PMODa_2*
X94600000Y-71100000D03*
X84200000Y-65400000D03*
G04 #@! TO.N,/PMODa_3*
X95700000Y-71300000D03*
X84800000Y-64800000D03*
G04 #@! TO.N,/PMODb_4*
X72400000Y-55000000D03*
X67000000Y-36000000D03*
G04 #@! TO.N,/PMODb_3*
X71200000Y-54800000D03*
X55000000Y-36000000D03*
G04 #@! TO.N,GND*
X45100000Y-49900000D03*
X42600000Y-49900000D03*
X40000000Y-49900000D03*
X102500000Y-42200000D03*
G04 #@! TO.N,/CDONE*
X35300000Y-49300000D03*
G04 #@! TO.N,Net-(SW4-Pad1)*
X54500000Y-44500000D03*
X52500000Y-48200000D03*
G04 #@! TO.N,/PMODb_2*
X70300000Y-54600000D03*
G04 #@! TO.N,/PMODb_1*
X70150000Y-55462500D03*
G04 #@! TO.N,/DBG_2*
X70500000Y-64400000D03*
G04 #@! TO.N,/DBG_3*
X69900000Y-65000000D03*
G04 #@! TO.N,/DBG_5*
X65500000Y-71800000D03*
G04 #@! TO.N,/DBG_6*
X66500000Y-66800000D03*
G04 #@! TO.N,/PMODb_1*
X49900000Y-51200000D03*
X31000000Y-36000000D03*
G04 #@! TO.N,/PMODb_2*
X50800000Y-50600000D03*
X43000000Y-36000000D03*
G04 #@! TO.N,/PMODb_3*
X51500000Y-50000000D03*
G04 #@! TO.N,/PMODb_4*
X52000000Y-49100000D03*
G04 #@! TD*
D13*
G04 #@! TO.N,+3V3*
X108260000Y-74960000D02*
X97800000Y-64500000D01*
X82300000Y-57900000D02*
X82600000Y-57800000D01*
X81800000Y-58100000D02*
X82300000Y-57900000D01*
X82800000Y-58000000D02*
X82600000Y-57800000D01*
X82400000Y-58500000D02*
X82800000Y-58000000D01*
D14*
G04 #@! TO.N,+1V2*
X69300000Y-59500000D02*
X68500000Y-59500000D01*
D13*
X79600000Y-59600000D02*
X79400000Y-60100000D01*
X79500000Y-59400000D02*
X79600000Y-59600000D01*
G04 #@! TO.N,/SPI_MOSI*
X67354178Y-67400000D02*
X66700000Y-68054178D01*
X68200000Y-67400000D02*
X67354178Y-67400000D01*
X66700000Y-68054178D02*
X66700000Y-68600000D01*
X66700000Y-68600000D02*
X65800000Y-69500000D01*
X65800000Y-69500000D02*
X53100000Y-69500000D01*
X53100000Y-69500000D02*
X51000000Y-71600000D01*
X51000000Y-71600000D02*
X50700000Y-71600000D01*
G04 #@! TO.N,/SPI_IO2*
X67200000Y-71200000D02*
X58200000Y-71200000D01*
X55529999Y-76690001D02*
X54680000Y-77540000D01*
X55758601Y-76461399D02*
X55529999Y-76690001D01*
X54680000Y-77540000D02*
X55758601Y-76461399D01*
X43500000Y-68000000D02*
X42500000Y-69000000D01*
X44099899Y-68000000D02*
X43500000Y-68000000D01*
X54680000Y-77540000D02*
X55920000Y-76300000D01*
X55920000Y-73480000D02*
X56100000Y-73300000D01*
X55920000Y-76300000D02*
X55920000Y-73480000D01*
X58200000Y-71200000D02*
X56100000Y-73300000D01*
G04 #@! TO.N,/DBG_1*
X71642899Y-70342899D02*
X71604810Y-70380988D01*
X72000000Y-70000000D02*
X71657101Y-70342899D01*
X71657101Y-70342899D02*
X71642899Y-70342899D01*
X71604810Y-74144810D02*
X72460000Y-75000000D01*
X71604810Y-70380988D02*
X71604810Y-74144810D01*
G04 #@! TO.N,/CRESET*
X65200000Y-66384933D02*
X65200000Y-65900000D01*
X65800000Y-66984933D02*
X65200000Y-66384933D01*
X65800000Y-68400000D02*
X65800000Y-66984933D01*
X65500000Y-68700000D02*
X65800000Y-68400000D01*
X51800000Y-68700000D02*
X65500000Y-68700000D01*
X51100000Y-69400000D02*
X51800000Y-68700000D01*
X44844697Y-57402921D02*
X49029438Y-57402921D01*
X41141776Y-53700000D02*
X44844697Y-57402921D01*
X36400000Y-53700000D02*
X41141776Y-53700000D01*
G04 #@! TO.N,/DBG_4*
X83300000Y-66993198D02*
X86321232Y-70014430D01*
X93199363Y-70014430D02*
X93600000Y-70415067D01*
X93600000Y-70415067D02*
X93600000Y-70900000D01*
X83300000Y-65400000D02*
X83300000Y-66993198D01*
X86321232Y-70014430D02*
X93199363Y-70014430D01*
X94140000Y-76874933D02*
X93272034Y-77742899D01*
X94140000Y-76390000D02*
X94140000Y-76874933D01*
X79240000Y-76752899D02*
X80230000Y-77742899D01*
X78072899Y-76752899D02*
X79240000Y-76752899D01*
X77730000Y-76410000D02*
X78072899Y-76752899D01*
X93272034Y-77742899D02*
X80230000Y-77742899D01*
G04 #@! TO.N,/CDONE*
X62300000Y-74200000D02*
X62695190Y-73804810D01*
X62695190Y-73804810D02*
X67764124Y-73804810D01*
X67764124Y-73804810D02*
X69595190Y-71973744D01*
X68600000Y-65400000D02*
X65800000Y-65400000D01*
X69595190Y-71973744D02*
X69595190Y-66395190D01*
X65800000Y-65400000D02*
X65000000Y-64600000D01*
X62300000Y-75000000D02*
X62300000Y-74200000D01*
X69595190Y-66395190D02*
X68600000Y-65400000D01*
G04 #@! TO.N,/UART_RX*
X61700000Y-76300000D02*
X63600000Y-76300000D01*
X63600000Y-76300000D02*
X64840000Y-77540000D01*
X66450289Y-73249711D02*
X66200000Y-73500000D01*
X66200000Y-73500000D02*
X61700000Y-73500000D01*
X61700000Y-73500000D02*
X61000000Y-74200000D01*
X66450289Y-71771500D02*
X66450289Y-73249711D01*
X61000000Y-74200000D02*
X61000000Y-75600000D01*
X61000000Y-75600000D02*
X61700000Y-76300000D01*
G04 #@! TO.N,/UART_TX*
X68620000Y-76300000D02*
X67380000Y-77540000D01*
X70216330Y-76300000D02*
X68620000Y-76300000D01*
X71300000Y-75216330D02*
X70216330Y-76300000D01*
X71300000Y-69450000D02*
X71300000Y-75216330D01*
X72000000Y-68750000D02*
X71300000Y-69450000D01*
G04 #@! TO.N,/SPI_CS*
X48300000Y-76300000D02*
X47060000Y-77540000D01*
X48300000Y-74400000D02*
X48300000Y-76300000D01*
X49100000Y-73600000D02*
X48300000Y-74400000D01*
X50300000Y-73600000D02*
X49100000Y-73600000D01*
X53709620Y-70190380D02*
X50300000Y-73600000D01*
X67490380Y-68800000D02*
X68000000Y-68800000D01*
X66100000Y-70190380D02*
X67490380Y-68800000D01*
X66100000Y-70190380D02*
X53709620Y-70190380D01*
G04 #@! TO.N,/ICE_USBN*
X90288900Y-51711100D02*
X85119966Y-51711100D01*
X90800000Y-51200000D02*
X90288900Y-51711100D01*
X85119966Y-51711100D02*
X80931066Y-55900000D01*
X80931066Y-55900000D02*
X80500000Y-55900000D01*
G04 #@! TO.N,/ICE_USBP*
X81300000Y-56300000D02*
X80800000Y-56800000D01*
X81315452Y-56287676D02*
X81300000Y-56300000D01*
X81333260Y-56279100D02*
X81315452Y-56287676D01*
X81352530Y-56274702D02*
X81333260Y-56279100D01*
X81372295Y-56274702D02*
X81352530Y-56274702D01*
X81409372Y-56287676D02*
X81391564Y-56279100D01*
X81497121Y-56325297D02*
X81477355Y-56325297D01*
X81516390Y-56320899D02*
X81497121Y-56325297D01*
X81534198Y-56312324D02*
X81516390Y-56320899D01*
X81849089Y-56000561D02*
X81549651Y-56300000D01*
X81440278Y-56312324D02*
X81409372Y-56287676D01*
X81836764Y-55766361D02*
X81828189Y-55784169D01*
X81861412Y-55985108D02*
X81849089Y-56000561D01*
X81828189Y-55784169D02*
X81823791Y-55803438D01*
X81849088Y-55750908D02*
X81836764Y-55766361D01*
X81391564Y-56279100D02*
X81372295Y-56274702D01*
X81869988Y-55967300D02*
X81861412Y-55985108D01*
X85500000Y-52100000D02*
X82148528Y-55451471D01*
X82148528Y-55451471D02*
X81849088Y-55750908D01*
X81861412Y-55891188D02*
X81869988Y-55908996D01*
X91695888Y-51695888D02*
X91291776Y-52100000D01*
X91291776Y-52100000D02*
X85500000Y-52100000D01*
X81869988Y-55908996D02*
X81874386Y-55928266D01*
X81458086Y-56320899D02*
X81440278Y-56312324D01*
X81823791Y-55803438D02*
X81823791Y-55823204D01*
X81823791Y-55823204D02*
X81828189Y-55842473D01*
X81828189Y-55842473D02*
X81836764Y-55860281D01*
X81836764Y-55860281D02*
X81861412Y-55891188D01*
X81549651Y-56300000D02*
X81534198Y-56312324D01*
X81874386Y-55928266D02*
X81874386Y-55948031D01*
X81477355Y-56325297D02*
X81458086Y-56320899D01*
X81874386Y-55948031D02*
X81869988Y-55967300D01*
G04 #@! TO.N,/SPI_MISO*
X67750000Y-69750000D02*
X67250000Y-69750000D01*
X54104810Y-70495190D02*
X53700000Y-70900000D01*
X66504810Y-70495190D02*
X54104810Y-70495190D01*
X67250000Y-69750000D02*
X66504810Y-70495190D01*
X53700000Y-70900000D02*
X49600000Y-75000000D01*
G04 #@! TO.N,/SPI_CLK*
X48800000Y-73260000D02*
X47060000Y-75000000D01*
X67400000Y-68200000D02*
X67057101Y-68542899D01*
X67057101Y-68542899D02*
X67057101Y-68742899D01*
X67057101Y-68742899D02*
X65914430Y-69885570D01*
X54300000Y-69885570D02*
X53885570Y-69885570D01*
X65914430Y-69885570D02*
X54300000Y-69885570D01*
X53374430Y-69885570D02*
X50000000Y-73260000D01*
X53700000Y-69885570D02*
X53374430Y-69885570D01*
X50000000Y-73260000D02*
X48800000Y-73260000D01*
X54300000Y-69885570D02*
X53700000Y-69885570D01*
G04 #@! TO.N,/SPI_IO3*
X50900000Y-76240000D02*
X49600000Y-77540000D01*
X50900000Y-74300000D02*
X50900000Y-76240000D01*
X54400000Y-70800000D02*
X50900000Y-74300000D01*
X66754178Y-70800000D02*
X54400000Y-70800000D01*
X67054178Y-70500000D02*
X66754178Y-70800000D01*
X68750000Y-70500000D02*
X67054178Y-70500000D01*
G04 #@! TO.N,Net-(SW3-Pad1)*
X78200000Y-49800000D02*
X78100000Y-49700000D01*
X78200000Y-52600000D02*
X78200000Y-49800000D01*
X79800000Y-43000000D02*
X80800000Y-43000000D01*
X80800000Y-43000000D02*
X83900000Y-39900000D01*
G04 #@! TO.N,/PU_CTRL_USBP*
X85400000Y-52700000D02*
X91500000Y-52700000D01*
X82221841Y-55878159D02*
X85400000Y-52700000D01*
X82221841Y-56578159D02*
X82221841Y-55878159D01*
X81057101Y-57742899D02*
X82221841Y-56578159D01*
X80200000Y-57400000D02*
X80542899Y-57742899D01*
X80542899Y-57742899D02*
X81057101Y-57742899D01*
X91500000Y-52700000D02*
X92600000Y-51600000D01*
G04 #@! TO.N,/PU_CTRL_USBN*
X82554592Y-53845408D02*
X84993710Y-51406290D01*
X82448528Y-53951473D02*
X82554592Y-53845408D01*
X82396007Y-53993360D02*
X82448528Y-53951473D01*
X82269987Y-54037456D02*
X82335482Y-54022506D01*
X82202809Y-54037455D02*
X82269987Y-54037456D01*
X82076789Y-53993359D02*
X82137314Y-54022507D01*
X81834529Y-53761738D02*
X82024265Y-53951474D01*
X81721481Y-53690705D02*
X81782006Y-53719853D01*
X82024265Y-53951474D02*
X82076789Y-53993359D01*
X81655986Y-53675757D02*
X81721481Y-53690705D01*
X81523313Y-53690706D02*
X81588808Y-53675756D01*
X81782006Y-53719853D02*
X81834529Y-53761738D01*
X81410265Y-53761737D02*
X81462788Y-53719852D01*
X81368379Y-53814259D02*
X81410265Y-53761737D01*
X81339231Y-53874786D02*
X81368379Y-53814259D01*
X82137314Y-54022507D02*
X82202809Y-54037455D01*
X81641886Y-54747478D02*
X81671032Y-54686953D01*
X81600000Y-54800000D02*
X81641886Y-54747478D01*
X81500000Y-54900000D02*
X81600000Y-54800000D01*
X81671033Y-54488785D02*
X81641885Y-54428260D01*
X81600000Y-54375736D02*
X81410265Y-54186001D01*
X81462788Y-53719852D02*
X81523313Y-53690706D01*
X80400000Y-54900000D02*
X81500000Y-54900000D01*
X81671032Y-54686953D02*
X81685982Y-54621458D01*
X79800000Y-56600000D02*
X79800000Y-55500000D01*
X81324283Y-53940279D02*
X81339231Y-53874786D01*
X79800000Y-55500000D02*
X80400000Y-54900000D01*
X81410265Y-54186001D02*
X81368378Y-54133479D01*
X81368378Y-54133479D02*
X81339232Y-54072952D01*
X81588808Y-53675756D02*
X81655986Y-53675757D01*
X81685982Y-54621458D02*
X81685981Y-54554280D01*
X81685981Y-54554280D02*
X81671033Y-54488785D01*
X81641885Y-54428260D02*
X81600000Y-54375736D01*
X82335482Y-54022506D02*
X82396007Y-53993360D01*
X81324282Y-54007459D02*
X81324283Y-53940279D01*
X81339232Y-54072952D02*
X81324282Y-54007459D01*
X84993710Y-51406290D02*
X89593710Y-51406290D01*
X89593710Y-51406290D02*
X90400000Y-50600000D01*
X90400000Y-50600000D02*
X92000000Y-50600000D01*
G04 #@! TO.N,/PMODa_4*
X95100000Y-69100000D02*
X97000000Y-71000000D01*
X85500000Y-67900000D02*
X86700000Y-69100000D01*
X85500000Y-64200000D02*
X85500000Y-67900000D01*
X86700000Y-69100000D02*
X95100000Y-69100000D01*
G04 #@! TO.N,/PMODa_2*
X94257101Y-70757101D02*
X94600000Y-71100000D01*
X94257101Y-70357101D02*
X94257101Y-70757101D01*
X93609620Y-69709620D02*
X94257101Y-70357101D01*
X86447488Y-69709620D02*
X93609620Y-69709620D01*
X84200000Y-67462132D02*
X86447488Y-69709620D01*
X84200000Y-65400000D02*
X84200000Y-67462132D01*
G04 #@! TO.N,/PMODa_3*
X93804810Y-69404810D02*
X95700000Y-71300000D01*
X84800000Y-64800000D02*
X84800000Y-67631066D01*
X84800000Y-67631066D02*
X86573744Y-69404810D01*
X86573744Y-69404810D02*
X93804810Y-69404810D01*
G04 #@! TO.N,/PMODb_4*
X72400000Y-55000000D02*
X72400000Y-54923112D01*
X67000000Y-36000000D02*
X67000000Y-36300000D01*
X67000000Y-36300000D02*
X62300000Y-41000000D01*
D15*
G04 #@! TO.N,+3V3*
X108430000Y-75130000D02*
X108430000Y-75380000D01*
X97800000Y-64500000D02*
X108430000Y-75130000D01*
D13*
G04 #@! TO.N,/CDONE*
X49357101Y-56557101D02*
X49700000Y-56900000D01*
X44807101Y-56557101D02*
X49357101Y-56557101D01*
X35300000Y-49300000D02*
X35300000Y-49784933D01*
X35300000Y-49784933D02*
X36500000Y-50984933D01*
X36500000Y-50984933D02*
X36500000Y-52500000D01*
X36500000Y-52500000D02*
X37395190Y-53395190D01*
X37395190Y-53395190D02*
X41645190Y-53395190D01*
X41645190Y-53395190D02*
X44807101Y-56557101D01*
G04 #@! TO.N,Net-(SW4-Pad1)*
X74457101Y-38142899D02*
X74800000Y-37800000D01*
X74457101Y-39442899D02*
X74457101Y-38142899D01*
X72500000Y-41400000D02*
X74457101Y-39442899D01*
X56100000Y-41400000D02*
X72500000Y-41400000D01*
X54500000Y-43000000D02*
X56100000Y-41400000D01*
X54500000Y-44500000D02*
X54500000Y-43000000D01*
X52500000Y-48684933D02*
X52500000Y-48200000D01*
X52615067Y-48800000D02*
X52500000Y-48684933D01*
X52615067Y-49515067D02*
X52615067Y-48800000D01*
X52895190Y-49795190D02*
X52615067Y-49515067D01*
X53426256Y-49795190D02*
X52895190Y-49795190D01*
X54104810Y-50473744D02*
X53426256Y-49795190D01*
X54104810Y-51980546D02*
X54104810Y-50473744D01*
X74164001Y-54993561D02*
X73570440Y-54400000D01*
X73570440Y-54400000D02*
X72307954Y-54400000D01*
X56424264Y-54300000D02*
X54104810Y-51980546D01*
X72307954Y-54400000D02*
X71307954Y-53400000D01*
X69637868Y-53400000D02*
X68737868Y-54300000D01*
X71307954Y-53400000D02*
X69637868Y-53400000D01*
X68737868Y-54300000D02*
X56424264Y-54300000D01*
G04 #@! TO.N,/PMODb_1*
X69527567Y-55600000D02*
X68250000Y-55600000D01*
X69665067Y-55462500D02*
X69527567Y-55600000D01*
X70150000Y-55462500D02*
X69665067Y-55462500D01*
X68600000Y-55600000D02*
X68250000Y-55600000D01*
X68250000Y-55600000D02*
X56000000Y-55600000D01*
X69527567Y-55600000D02*
X56000000Y-55600000D01*
G04 #@! TO.N,/DBG_2*
X70500000Y-73217919D02*
X70500000Y-64400000D01*
X69920000Y-75000000D02*
X69920000Y-73797919D01*
X69920000Y-73797919D02*
X70500000Y-73217919D01*
G04 #@! TO.N,/DBG_3*
X68229999Y-73770001D02*
X69900000Y-72100000D01*
X68229999Y-74150001D02*
X68229999Y-73770001D01*
X67380000Y-75000000D02*
X68229999Y-74150001D01*
X69900000Y-72100000D02*
X69900000Y-65000000D01*
G04 #@! TO.N,/DBG_5*
X60420000Y-71800000D02*
X57220000Y-75000000D01*
X65500000Y-71800000D02*
X60420000Y-71800000D01*
G04 #@! TO.N,/DBG_6*
X66157101Y-67142899D02*
X66500000Y-66800000D01*
X66157101Y-68542899D02*
X66157101Y-67142899D01*
X65600000Y-69100000D02*
X66157101Y-68542899D01*
X44520000Y-77540000D02*
X45800000Y-76260000D01*
X45800000Y-76260000D02*
X45800000Y-74000000D01*
X45800000Y-74000000D02*
X46300000Y-73500000D01*
X46300000Y-73500000D02*
X47900000Y-73500000D01*
X47900000Y-73500000D02*
X52300000Y-69100000D01*
X52300000Y-69100000D02*
X65600000Y-69100000D01*
G04 #@! TO.N,/PMODb_1*
X52400000Y-52000000D02*
X55999999Y-55599999D01*
X52100000Y-51200000D02*
X52400000Y-51500000D01*
X52400000Y-51500000D02*
X52400000Y-52000000D01*
X49900000Y-51200000D02*
X52100000Y-51200000D01*
X31000000Y-37300000D02*
X31000000Y-36000000D01*
X31000000Y-36000000D02*
X31000000Y-36200000D01*
X37000000Y-43300000D02*
X37000000Y-44500000D01*
X31000000Y-37300000D02*
X37000000Y-43300000D01*
G04 #@! TO.N,/PMODb_2*
X69815067Y-54600000D02*
X70300000Y-54600000D01*
X69119877Y-55295190D02*
X69815067Y-54600000D01*
X56126256Y-55295190D02*
X69119877Y-55295190D01*
X50900000Y-50600000D02*
X51195190Y-50895190D01*
X51195190Y-50895190D02*
X52580123Y-50895190D01*
X52580123Y-50895190D02*
X52742899Y-51057966D01*
X52742899Y-51057966D02*
X52742899Y-51911833D01*
X50800000Y-50600000D02*
X50900000Y-50600000D01*
X52742899Y-51911833D02*
X56126256Y-55295190D01*
X43000000Y-36500000D02*
X39540000Y-39960000D01*
X39540000Y-39960000D02*
X39540000Y-44500000D01*
X43000000Y-36000000D02*
X43000000Y-36500000D01*
G04 #@! TO.N,/PMODb_3*
X71200000Y-54315067D02*
X71200000Y-54800000D01*
X70913432Y-54028499D02*
X71200000Y-54315067D01*
X69955502Y-54028499D02*
X70913432Y-54028499D01*
X51500000Y-50000000D02*
X52090380Y-50590380D01*
X52090380Y-50590380D02*
X52890380Y-50590380D01*
X52890380Y-50590380D02*
X53200000Y-50900000D01*
X68993621Y-54990380D02*
X69955502Y-54028499D01*
X53200000Y-50900000D02*
X53200000Y-51937868D01*
X53200000Y-51937868D02*
X56252512Y-54990380D01*
X56252512Y-54990380D02*
X68993621Y-54990380D01*
X44980000Y-41600000D02*
X42080000Y-44500000D01*
X49000000Y-41600000D02*
X44980000Y-41600000D01*
X54600000Y-36000000D02*
X49000000Y-41600000D01*
X55000000Y-36000000D02*
X54600000Y-36000000D01*
G04 #@! TO.N,/PMODb_4*
X54100000Y-41000000D02*
X53968934Y-41000000D01*
X62300000Y-41000000D02*
X54100000Y-41000000D01*
X71123689Y-53723689D02*
X72400000Y-55000000D01*
X68783364Y-54685570D02*
X69745245Y-53723689D01*
X56378768Y-54685570D02*
X68783364Y-54685570D01*
X69745245Y-53723689D02*
X71123689Y-53723689D01*
X53800000Y-52106802D02*
X56378768Y-54685570D01*
X52000000Y-49584933D02*
X52515067Y-50100000D01*
X52000000Y-49100000D02*
X52000000Y-49584933D01*
X53300000Y-50100000D02*
X53800000Y-50600000D01*
X52515067Y-50100000D02*
X53300000Y-50100000D01*
X53800000Y-50600000D02*
X53800000Y-52106802D01*
X50754756Y-41904810D02*
X49900000Y-41904810D01*
X49900000Y-41904810D02*
X49735190Y-41904810D01*
X46813109Y-41904810D02*
X47500000Y-41904810D01*
X47095190Y-41904810D02*
X47500000Y-41904810D01*
X51659566Y-41000000D02*
X54100000Y-41000000D01*
X50754756Y-41904810D02*
X51659566Y-41000000D01*
X44620000Y-43080000D02*
X44620000Y-44500000D01*
X50754756Y-41904810D02*
X45795190Y-41904810D01*
X45795190Y-41904810D02*
X44620000Y-43080000D01*
G04 #@! TD*
D16*
G04 #@! TO.N,+1V2*
G36*
X79873000Y-60873000D02*
X68127000Y-60873000D01*
X68127000Y-59127000D01*
X79873000Y-59127000D01*
X79873000Y-60873000D01*
X79873000Y-60873000D01*
G37*
X79873000Y-60873000D02*
X68127000Y-60873000D01*
X68127000Y-59127000D01*
X79873000Y-59127000D01*
X79873000Y-60873000D01*
G04 #@! TO.N,GND*
G36*
X98335919Y-38239380D02*
X98347053Y-38252947D01*
X98360620Y-38264081D01*
X98360631Y-38264092D01*
X98401260Y-38297434D01*
X98463105Y-38330491D01*
X98530211Y-38350848D01*
X98599999Y-38357722D01*
X98600000Y-38357722D01*
X98669787Y-38350848D01*
X98736894Y-38330491D01*
X98798739Y-38297434D01*
X98839367Y-38264092D01*
X98839369Y-38264090D01*
X98852947Y-38252947D01*
X98864090Y-38239369D01*
X99961927Y-37141533D01*
X107858467Y-45038073D01*
X106760633Y-46135908D01*
X106747053Y-46147053D01*
X106702566Y-46201261D01*
X106669509Y-46263106D01*
X106649152Y-46330213D01*
X106642278Y-46400000D01*
X106649152Y-46469787D01*
X106669509Y-46536894D01*
X106702566Y-46598739D01*
X106717826Y-46617333D01*
X106747053Y-46652947D01*
X106760631Y-46664090D01*
X114644000Y-54547461D01*
X114644001Y-79644000D01*
X25356000Y-79644000D01*
X25356000Y-77540000D01*
X25603528Y-77540000D01*
X25625365Y-77761715D01*
X25690037Y-77974909D01*
X25795058Y-78171390D01*
X25936393Y-78343607D01*
X26108610Y-78484942D01*
X26305091Y-78589963D01*
X26518285Y-78654635D01*
X26684442Y-78671000D01*
X26795558Y-78671000D01*
X26961715Y-78654635D01*
X27174909Y-78589963D01*
X27371390Y-78484942D01*
X27543607Y-78343607D01*
X27684942Y-78171390D01*
X27789963Y-77974909D01*
X27854635Y-77761715D01*
X27876472Y-77540000D01*
X28143528Y-77540000D01*
X28165365Y-77761715D01*
X28230037Y-77974909D01*
X28335058Y-78171390D01*
X28476393Y-78343607D01*
X28648610Y-78484942D01*
X28845091Y-78589963D01*
X29058285Y-78654635D01*
X29224442Y-78671000D01*
X29335558Y-78671000D01*
X29501715Y-78654635D01*
X29714909Y-78589963D01*
X29911390Y-78484942D01*
X30083607Y-78343607D01*
X30224942Y-78171390D01*
X30329963Y-77974909D01*
X30394635Y-77761715D01*
X30416472Y-77540000D01*
X30683528Y-77540000D01*
X30705365Y-77761715D01*
X30770037Y-77974909D01*
X30875058Y-78171390D01*
X31016393Y-78343607D01*
X31188610Y-78484942D01*
X31385091Y-78589963D01*
X31598285Y-78654635D01*
X31764442Y-78671000D01*
X31875558Y-78671000D01*
X32041715Y-78654635D01*
X32254909Y-78589963D01*
X32451390Y-78484942D01*
X32623607Y-78343607D01*
X32764942Y-78171390D01*
X32869963Y-77974909D01*
X32934635Y-77761715D01*
X32956472Y-77540000D01*
X35763528Y-77540000D01*
X35785365Y-77761715D01*
X35850037Y-77974909D01*
X35955058Y-78171390D01*
X36096393Y-78343607D01*
X36268610Y-78484942D01*
X36465091Y-78589963D01*
X36678285Y-78654635D01*
X36844442Y-78671000D01*
X36955558Y-78671000D01*
X37121715Y-78654635D01*
X37334909Y-78589963D01*
X37531390Y-78484942D01*
X37703607Y-78343607D01*
X37844942Y-78171390D01*
X37949963Y-77974909D01*
X38014635Y-77761715D01*
X38036472Y-77540000D01*
X40843528Y-77540000D01*
X40865365Y-77761715D01*
X40930037Y-77974909D01*
X41035058Y-78171390D01*
X41176393Y-78343607D01*
X41348610Y-78484942D01*
X41545091Y-78589963D01*
X41758285Y-78654635D01*
X41924442Y-78671000D01*
X42035558Y-78671000D01*
X42201715Y-78654635D01*
X42414909Y-78589963D01*
X42611390Y-78484942D01*
X42783607Y-78343607D01*
X42924942Y-78171390D01*
X43029963Y-77974909D01*
X43094635Y-77761715D01*
X43116472Y-77540000D01*
X43383528Y-77540000D01*
X43405365Y-77761715D01*
X43470037Y-77974909D01*
X43575058Y-78171390D01*
X43716393Y-78343607D01*
X43888610Y-78484942D01*
X44085091Y-78589963D01*
X44298285Y-78654635D01*
X44464442Y-78671000D01*
X44575558Y-78671000D01*
X44741715Y-78654635D01*
X44954909Y-78589963D01*
X45151390Y-78484942D01*
X45323607Y-78343607D01*
X45464942Y-78171390D01*
X45569963Y-77974909D01*
X45634635Y-77761715D01*
X45656472Y-77540000D01*
X45634635Y-77318285D01*
X45569963Y-77105091D01*
X45531683Y-77033474D01*
X46040179Y-76524978D01*
X46053799Y-76513800D01*
X46064978Y-76500179D01*
X46064983Y-76500174D01*
X46094036Y-76464773D01*
X46098438Y-76459410D01*
X46131606Y-76397356D01*
X46152031Y-76330023D01*
X46157200Y-76277544D01*
X46157200Y-76277537D01*
X46158927Y-76260001D01*
X46157200Y-76242465D01*
X46157200Y-75682740D01*
X46256393Y-75803607D01*
X46428610Y-75944942D01*
X46625091Y-76049963D01*
X46838285Y-76114635D01*
X47004442Y-76131000D01*
X47115558Y-76131000D01*
X47281715Y-76114635D01*
X47494909Y-76049963D01*
X47691390Y-75944942D01*
X47863607Y-75803607D01*
X47942801Y-75707109D01*
X47942801Y-76152042D01*
X47566526Y-76528317D01*
X47494909Y-76490037D01*
X47281715Y-76425365D01*
X47115558Y-76409000D01*
X47004442Y-76409000D01*
X46838285Y-76425365D01*
X46625091Y-76490037D01*
X46428610Y-76595058D01*
X46256393Y-76736393D01*
X46115058Y-76908610D01*
X46010037Y-77105091D01*
X45945365Y-77318285D01*
X45923528Y-77540000D01*
X45945365Y-77761715D01*
X46010037Y-77974909D01*
X46115058Y-78171390D01*
X46256393Y-78343607D01*
X46428610Y-78484942D01*
X46625091Y-78589963D01*
X46838285Y-78654635D01*
X47004442Y-78671000D01*
X47115558Y-78671000D01*
X47281715Y-78654635D01*
X47494909Y-78589963D01*
X47691390Y-78484942D01*
X47863607Y-78343607D01*
X48004942Y-78171390D01*
X48109963Y-77974909D01*
X48174635Y-77761715D01*
X48196472Y-77540000D01*
X48174635Y-77318285D01*
X48109963Y-77105091D01*
X48071683Y-77033474D01*
X48540175Y-76564982D01*
X48553800Y-76553800D01*
X48598438Y-76499410D01*
X48631606Y-76437356D01*
X48640208Y-76409000D01*
X48652031Y-76370024D01*
X48654990Y-76339977D01*
X48657200Y-76317544D01*
X48657200Y-76317536D01*
X48658927Y-76300000D01*
X48657200Y-76282464D01*
X48657200Y-75634000D01*
X48796393Y-75803607D01*
X48968610Y-75944942D01*
X49165091Y-76049963D01*
X49378285Y-76114635D01*
X49544442Y-76131000D01*
X49655558Y-76131000D01*
X49821715Y-76114635D01*
X50034909Y-76049963D01*
X50231390Y-75944942D01*
X50403607Y-75803607D01*
X50542801Y-75633999D01*
X50542801Y-76092042D01*
X50106526Y-76528317D01*
X50034909Y-76490037D01*
X49821715Y-76425365D01*
X49655558Y-76409000D01*
X49544442Y-76409000D01*
X49378285Y-76425365D01*
X49165091Y-76490037D01*
X48968610Y-76595058D01*
X48796393Y-76736393D01*
X48655058Y-76908610D01*
X48550037Y-77105091D01*
X48485365Y-77318285D01*
X48463528Y-77540000D01*
X48485365Y-77761715D01*
X48550037Y-77974909D01*
X48655058Y-78171390D01*
X48796393Y-78343607D01*
X48968610Y-78484942D01*
X49165091Y-78589963D01*
X49378285Y-78654635D01*
X49544442Y-78671000D01*
X49655558Y-78671000D01*
X49821715Y-78654635D01*
X50034909Y-78589963D01*
X50231390Y-78484942D01*
X50403607Y-78343607D01*
X50544942Y-78171390D01*
X50649963Y-77974909D01*
X50714635Y-77761715D01*
X50736472Y-77540000D01*
X50714635Y-77318285D01*
X50649963Y-77105091D01*
X50611683Y-77033474D01*
X51140175Y-76504982D01*
X51153800Y-76493800D01*
X51198438Y-76439410D01*
X51231606Y-76377356D01*
X51243528Y-76338054D01*
X51252031Y-76310024D01*
X51255230Y-76277543D01*
X51257200Y-76257544D01*
X51257200Y-76257536D01*
X51258927Y-76240000D01*
X51257200Y-76222464D01*
X51257200Y-75707110D01*
X51336393Y-75803607D01*
X51508610Y-75944942D01*
X51705091Y-76049963D01*
X51918285Y-76114635D01*
X52084442Y-76131000D01*
X52195558Y-76131000D01*
X52361715Y-76114635D01*
X52574909Y-76049963D01*
X52771390Y-75944942D01*
X52943607Y-75803607D01*
X53084942Y-75631390D01*
X53189963Y-75434909D01*
X53254635Y-75221715D01*
X53276472Y-75000000D01*
X53254635Y-74778285D01*
X53189963Y-74565091D01*
X53084942Y-74368610D01*
X52943607Y-74196393D01*
X52771390Y-74055058D01*
X52574909Y-73950037D01*
X52361715Y-73885365D01*
X52195558Y-73869000D01*
X52084442Y-73869000D01*
X51918285Y-73885365D01*
X51776904Y-73928253D01*
X54547957Y-71157200D01*
X57737643Y-71157200D01*
X55835016Y-73059827D01*
X55835012Y-73059832D01*
X55679821Y-73215022D01*
X55666201Y-73226200D01*
X55655023Y-73239820D01*
X55655016Y-73239827D01*
X55638603Y-73259827D01*
X55621563Y-73280590D01*
X55610353Y-73301563D01*
X55588394Y-73342645D01*
X55567969Y-73409977D01*
X55561073Y-73480000D01*
X55562801Y-73497546D01*
X55562801Y-74292891D01*
X55483607Y-74196393D01*
X55311390Y-74055058D01*
X55114909Y-73950037D01*
X54901715Y-73885365D01*
X54735558Y-73869000D01*
X54624442Y-73869000D01*
X54458285Y-73885365D01*
X54245091Y-73950037D01*
X54048610Y-74055058D01*
X53876393Y-74196393D01*
X53735058Y-74368610D01*
X53630037Y-74565091D01*
X53565365Y-74778285D01*
X53543528Y-75000000D01*
X53565365Y-75221715D01*
X53630037Y-75434909D01*
X53735058Y-75631390D01*
X53876393Y-75803607D01*
X54048610Y-75944942D01*
X54245091Y-76049963D01*
X54458285Y-76114635D01*
X54624442Y-76131000D01*
X54735558Y-76131000D01*
X54901715Y-76114635D01*
X55114909Y-76049963D01*
X55311390Y-75944942D01*
X55483607Y-75803607D01*
X55562800Y-75707110D01*
X55562800Y-76152043D01*
X55186526Y-76528317D01*
X55114909Y-76490037D01*
X54901715Y-76425365D01*
X54735558Y-76409000D01*
X54624442Y-76409000D01*
X54458285Y-76425365D01*
X54245091Y-76490037D01*
X54048610Y-76595058D01*
X53876393Y-76736393D01*
X53735058Y-76908610D01*
X53630037Y-77105091D01*
X53565365Y-77318285D01*
X53543528Y-77540000D01*
X53565365Y-77761715D01*
X53630037Y-77974909D01*
X53735058Y-78171390D01*
X53876393Y-78343607D01*
X54048610Y-78484942D01*
X54245091Y-78589963D01*
X54458285Y-78654635D01*
X54624442Y-78671000D01*
X54735558Y-78671000D01*
X54901715Y-78654635D01*
X55114909Y-78589963D01*
X55311390Y-78484942D01*
X55483607Y-78343607D01*
X55624942Y-78171390D01*
X55729963Y-77974909D01*
X55794635Y-77761715D01*
X55816472Y-77540000D01*
X56083528Y-77540000D01*
X56105365Y-77761715D01*
X56170037Y-77974909D01*
X56275058Y-78171390D01*
X56416393Y-78343607D01*
X56588610Y-78484942D01*
X56785091Y-78589963D01*
X56998285Y-78654635D01*
X57164442Y-78671000D01*
X57275558Y-78671000D01*
X57441715Y-78654635D01*
X57654909Y-78589963D01*
X57851390Y-78484942D01*
X58023607Y-78343607D01*
X58164942Y-78171390D01*
X58269963Y-77974909D01*
X58334635Y-77761715D01*
X58356472Y-77540000D01*
X58334635Y-77318285D01*
X58269963Y-77105091D01*
X58164942Y-76908610D01*
X58023607Y-76736393D01*
X57851390Y-76595058D01*
X57654909Y-76490037D01*
X57441715Y-76425365D01*
X57275558Y-76409000D01*
X57164442Y-76409000D01*
X56998285Y-76425365D01*
X56785091Y-76490037D01*
X56588610Y-76595058D01*
X56416393Y-76736393D01*
X56275058Y-76908610D01*
X56170037Y-77105091D01*
X56105365Y-77318285D01*
X56083528Y-77540000D01*
X55816472Y-77540000D01*
X55794635Y-77318285D01*
X55729963Y-77105091D01*
X55691683Y-77033474D01*
X56160179Y-76564978D01*
X56173799Y-76553800D01*
X56184978Y-76540179D01*
X56184984Y-76540173D01*
X56206628Y-76513800D01*
X56218438Y-76499410D01*
X56251606Y-76437356D01*
X56260208Y-76409000D01*
X56272031Y-76370024D01*
X56274990Y-76339977D01*
X56277200Y-76317544D01*
X56277200Y-76317536D01*
X56278927Y-76300000D01*
X56277200Y-76282464D01*
X56277200Y-75634000D01*
X56416393Y-75803607D01*
X56588610Y-75944942D01*
X56785091Y-76049963D01*
X56998285Y-76114635D01*
X57164442Y-76131000D01*
X57275558Y-76131000D01*
X57441715Y-76114635D01*
X57654909Y-76049963D01*
X57851390Y-75944942D01*
X58023607Y-75803607D01*
X58164942Y-75631390D01*
X58269963Y-75434909D01*
X58334635Y-75221715D01*
X58356472Y-75000000D01*
X58334635Y-74778285D01*
X58269963Y-74565091D01*
X58231683Y-74493474D01*
X60567957Y-72157200D01*
X64988315Y-72157200D01*
X65015385Y-72197713D01*
X65102287Y-72284615D01*
X65204472Y-72352893D01*
X65318015Y-72399924D01*
X65438551Y-72423900D01*
X65561449Y-72423900D01*
X65681985Y-72399924D01*
X65795528Y-72352893D01*
X65897713Y-72284615D01*
X65984615Y-72197713D01*
X65988444Y-72191983D01*
X66052576Y-72256115D01*
X66093089Y-72283185D01*
X66093090Y-73101753D01*
X66052043Y-73142800D01*
X61717535Y-73142800D01*
X61699999Y-73141073D01*
X61682463Y-73142800D01*
X61682456Y-73142800D01*
X61636716Y-73147305D01*
X61629976Y-73147969D01*
X61614305Y-73152723D01*
X61562644Y-73168394D01*
X61500590Y-73201562D01*
X61446200Y-73246200D01*
X61435018Y-73259825D01*
X60759821Y-73935022D01*
X60746200Y-73946201D01*
X60735022Y-73959821D01*
X60735016Y-73959827D01*
X60727152Y-73969410D01*
X60701562Y-74000591D01*
X60674234Y-74051719D01*
X60668394Y-74062645D01*
X60648288Y-74128928D01*
X60647969Y-74129978D01*
X60642800Y-74182457D01*
X60642800Y-74182464D01*
X60641073Y-74200000D01*
X60642800Y-74217536D01*
X60642800Y-74292890D01*
X60563607Y-74196393D01*
X60391390Y-74055058D01*
X60194909Y-73950037D01*
X59981715Y-73885365D01*
X59815558Y-73869000D01*
X59704442Y-73869000D01*
X59538285Y-73885365D01*
X59325091Y-73950037D01*
X59128610Y-74055058D01*
X58956393Y-74196393D01*
X58815058Y-74368610D01*
X58710037Y-74565091D01*
X58645365Y-74778285D01*
X58623528Y-75000000D01*
X58645365Y-75221715D01*
X58710037Y-75434909D01*
X58815058Y-75631390D01*
X58956393Y-75803607D01*
X59128610Y-75944942D01*
X59325091Y-76049963D01*
X59538285Y-76114635D01*
X59704442Y-76131000D01*
X59815558Y-76131000D01*
X59981715Y-76114635D01*
X60194909Y-76049963D01*
X60391390Y-75944942D01*
X60563607Y-75803607D01*
X60654788Y-75692503D01*
X60668394Y-75737355D01*
X60668395Y-75737356D01*
X60701563Y-75799410D01*
X60710317Y-75810076D01*
X60735016Y-75840173D01*
X60735023Y-75840180D01*
X60746201Y-75853800D01*
X60759821Y-75864978D01*
X61435016Y-76540173D01*
X61446200Y-76553800D01*
X61500590Y-76598438D01*
X61562644Y-76631606D01*
X61607497Y-76645212D01*
X61496393Y-76736393D01*
X61355058Y-76908610D01*
X61250037Y-77105091D01*
X61185365Y-77318285D01*
X61163528Y-77540000D01*
X61185365Y-77761715D01*
X61250037Y-77974909D01*
X61355058Y-78171390D01*
X61496393Y-78343607D01*
X61668610Y-78484942D01*
X61865091Y-78589963D01*
X62078285Y-78654635D01*
X62244442Y-78671000D01*
X62355558Y-78671000D01*
X62521715Y-78654635D01*
X62734909Y-78589963D01*
X62931390Y-78484942D01*
X63103607Y-78343607D01*
X63244942Y-78171390D01*
X63349963Y-77974909D01*
X63414635Y-77761715D01*
X63436472Y-77540000D01*
X63414635Y-77318285D01*
X63349963Y-77105091D01*
X63244942Y-76908610D01*
X63103607Y-76736393D01*
X63007110Y-76657200D01*
X63452043Y-76657200D01*
X63828317Y-77033474D01*
X63790037Y-77105091D01*
X63725365Y-77318285D01*
X63703528Y-77540000D01*
X63725365Y-77761715D01*
X63790037Y-77974909D01*
X63895058Y-78171390D01*
X64036393Y-78343607D01*
X64208610Y-78484942D01*
X64405091Y-78589963D01*
X64618285Y-78654635D01*
X64784442Y-78671000D01*
X64895558Y-78671000D01*
X65061715Y-78654635D01*
X65274909Y-78589963D01*
X65471390Y-78484942D01*
X65643607Y-78343607D01*
X65784942Y-78171390D01*
X65889963Y-77974909D01*
X65954635Y-77761715D01*
X65976472Y-77540000D01*
X65954635Y-77318285D01*
X65889963Y-77105091D01*
X65784942Y-76908610D01*
X65643607Y-76736393D01*
X65471390Y-76595058D01*
X65274909Y-76490037D01*
X65061715Y-76425365D01*
X64895558Y-76409000D01*
X64784442Y-76409000D01*
X64618285Y-76425365D01*
X64405091Y-76490037D01*
X64333474Y-76528317D01*
X63864982Y-76059825D01*
X63853800Y-76046200D01*
X63799410Y-76001562D01*
X63737356Y-75968394D01*
X63670023Y-75947969D01*
X63617544Y-75942800D01*
X63617536Y-75942800D01*
X63600000Y-75941073D01*
X63582464Y-75942800D01*
X62934000Y-75942800D01*
X63103607Y-75803607D01*
X63244942Y-75631390D01*
X63349963Y-75434909D01*
X63414635Y-75221715D01*
X63436472Y-75000000D01*
X63414635Y-74778285D01*
X63349963Y-74565091D01*
X63244942Y-74368610D01*
X63103607Y-74196393D01*
X63061711Y-74162010D01*
X66618289Y-74162010D01*
X66576393Y-74196393D01*
X66435058Y-74368610D01*
X66330037Y-74565091D01*
X66265365Y-74778285D01*
X66243528Y-75000000D01*
X66265365Y-75221715D01*
X66330037Y-75434909D01*
X66435058Y-75631390D01*
X66576393Y-75803607D01*
X66748610Y-75944942D01*
X66945091Y-76049963D01*
X67158285Y-76114635D01*
X67324442Y-76131000D01*
X67435558Y-76131000D01*
X67601715Y-76114635D01*
X67814909Y-76049963D01*
X68011390Y-75944942D01*
X68183607Y-75803607D01*
X68324942Y-75631390D01*
X68429963Y-75434909D01*
X68494635Y-75221715D01*
X68516472Y-75000000D01*
X68494635Y-74778285D01*
X68429963Y-74565091D01*
X68391683Y-74493474D01*
X68470178Y-74414979D01*
X68483798Y-74403801D01*
X68494977Y-74390180D01*
X68494982Y-74390175D01*
X68512680Y-74368610D01*
X68528437Y-74349411D01*
X68561605Y-74287357D01*
X68572007Y-74253066D01*
X68582030Y-74220025D01*
X68584002Y-74200000D01*
X68587199Y-74167545D01*
X68587199Y-74167538D01*
X68588926Y-74150002D01*
X68587199Y-74132466D01*
X68587199Y-73917958D01*
X70140179Y-72364978D01*
X70142800Y-72362827D01*
X70142800Y-73069962D01*
X69679821Y-73532941D01*
X69666201Y-73544119D01*
X69655023Y-73557739D01*
X69655016Y-73557746D01*
X69634575Y-73582654D01*
X69621563Y-73598509D01*
X69611573Y-73617200D01*
X69588394Y-73660564D01*
X69567969Y-73727896D01*
X69561073Y-73797919D01*
X69562801Y-73815465D01*
X69562801Y-73926464D01*
X69485091Y-73950037D01*
X69288610Y-74055058D01*
X69116393Y-74196393D01*
X68975058Y-74368610D01*
X68870037Y-74565091D01*
X68805365Y-74778285D01*
X68783528Y-75000000D01*
X68805365Y-75221715D01*
X68870037Y-75434909D01*
X68975058Y-75631390D01*
X69116393Y-75803607D01*
X69286000Y-75942800D01*
X68637536Y-75942800D01*
X68620000Y-75941073D01*
X68602464Y-75942800D01*
X68602456Y-75942800D01*
X68556124Y-75947364D01*
X68549976Y-75947969D01*
X68482644Y-75968394D01*
X68420590Y-76001562D01*
X68366200Y-76046200D01*
X68355018Y-76059825D01*
X67886526Y-76528317D01*
X67814909Y-76490037D01*
X67601715Y-76425365D01*
X67435558Y-76409000D01*
X67324442Y-76409000D01*
X67158285Y-76425365D01*
X66945091Y-76490037D01*
X66748610Y-76595058D01*
X66576393Y-76736393D01*
X66435058Y-76908610D01*
X66330037Y-77105091D01*
X66265365Y-77318285D01*
X66243528Y-77540000D01*
X66265365Y-77761715D01*
X66330037Y-77974909D01*
X66435058Y-78171390D01*
X66576393Y-78343607D01*
X66748610Y-78484942D01*
X66945091Y-78589963D01*
X67158285Y-78654635D01*
X67324442Y-78671000D01*
X67435558Y-78671000D01*
X67601715Y-78654635D01*
X67814909Y-78589963D01*
X68011390Y-78484942D01*
X68183607Y-78343607D01*
X68324942Y-78171390D01*
X68429963Y-77974909D01*
X68494635Y-77761715D01*
X68516472Y-77540000D01*
X71323528Y-77540000D01*
X71345365Y-77761715D01*
X71410037Y-77974909D01*
X71515058Y-78171390D01*
X71656393Y-78343607D01*
X71828610Y-78484942D01*
X72025091Y-78589963D01*
X72238285Y-78654635D01*
X72404442Y-78671000D01*
X72515558Y-78671000D01*
X72681715Y-78654635D01*
X72894909Y-78589963D01*
X73091390Y-78484942D01*
X73263607Y-78343607D01*
X73404942Y-78171390D01*
X73509963Y-77974909D01*
X73574635Y-77761715D01*
X73596472Y-77540000D01*
X73863528Y-77540000D01*
X73885365Y-77761715D01*
X73950037Y-77974909D01*
X74055058Y-78171390D01*
X74196393Y-78343607D01*
X74368610Y-78484942D01*
X74565091Y-78589963D01*
X74778285Y-78654635D01*
X74944442Y-78671000D01*
X75055558Y-78671000D01*
X75221715Y-78654635D01*
X75434909Y-78589963D01*
X75631390Y-78484942D01*
X75803607Y-78343607D01*
X75944942Y-78171390D01*
X76049963Y-77974909D01*
X76114635Y-77761715D01*
X76136472Y-77540000D01*
X76114635Y-77318285D01*
X76049963Y-77105091D01*
X75944942Y-76908610D01*
X75803607Y-76736393D01*
X75631390Y-76595058D01*
X75434909Y-76490037D01*
X75221715Y-76425365D01*
X75055558Y-76409000D01*
X74944442Y-76409000D01*
X74778285Y-76425365D01*
X74565091Y-76490037D01*
X74368610Y-76595058D01*
X74196393Y-76736393D01*
X74055058Y-76908610D01*
X73950037Y-77105091D01*
X73885365Y-77318285D01*
X73863528Y-77540000D01*
X73596472Y-77540000D01*
X73574635Y-77318285D01*
X73509963Y-77105091D01*
X73404942Y-76908610D01*
X73263607Y-76736393D01*
X73091390Y-76595058D01*
X72894909Y-76490037D01*
X72681715Y-76425365D01*
X72515558Y-76409000D01*
X72404442Y-76409000D01*
X72238285Y-76425365D01*
X72025091Y-76490037D01*
X71828610Y-76595058D01*
X71656393Y-76736393D01*
X71515058Y-76908610D01*
X71410037Y-77105091D01*
X71345365Y-77318285D01*
X71323528Y-77540000D01*
X68516472Y-77540000D01*
X68494635Y-77318285D01*
X68429963Y-77105091D01*
X68391683Y-77033474D01*
X68767957Y-76657200D01*
X70198794Y-76657200D01*
X70216330Y-76658927D01*
X70233866Y-76657200D01*
X70233874Y-76657200D01*
X70286353Y-76652031D01*
X70353686Y-76631606D01*
X70415740Y-76598438D01*
X70470130Y-76553800D01*
X70481314Y-76540173D01*
X70672936Y-76348551D01*
X77106100Y-76348551D01*
X77106100Y-76471449D01*
X77130076Y-76591985D01*
X77177107Y-76705528D01*
X77245385Y-76807713D01*
X77332287Y-76894615D01*
X77434472Y-76962893D01*
X77548015Y-77009924D01*
X77668551Y-77033900D01*
X77791449Y-77033900D01*
X77840383Y-77024167D01*
X77873489Y-77051337D01*
X77935543Y-77084505D01*
X77987204Y-77100176D01*
X78002875Y-77104930D01*
X78009615Y-77105594D01*
X78055355Y-77110099D01*
X78055362Y-77110099D01*
X78072898Y-77111826D01*
X78090434Y-77110099D01*
X79092043Y-77110099D01*
X79965018Y-77983074D01*
X79976200Y-77996699D01*
X80030590Y-78041337D01*
X80092644Y-78074505D01*
X80144305Y-78090176D01*
X80159976Y-78094930D01*
X80166716Y-78095594D01*
X80212456Y-78100099D01*
X80212463Y-78100099D01*
X80229999Y-78101826D01*
X80247535Y-78100099D01*
X93254498Y-78100099D01*
X93272034Y-78101826D01*
X93289570Y-78100099D01*
X93289578Y-78100099D01*
X93342057Y-78094930D01*
X93409390Y-78074505D01*
X93471444Y-78041337D01*
X93525834Y-77996699D01*
X93537016Y-77983074D01*
X94380175Y-77139915D01*
X94393800Y-77128733D01*
X94438438Y-77074343D01*
X94471606Y-77012289D01*
X94492031Y-76944956D01*
X94496229Y-76902334D01*
X94537713Y-76874615D01*
X94624615Y-76787713D01*
X94692893Y-76685528D01*
X94739924Y-76571985D01*
X94757586Y-76483190D01*
X94771946Y-76490866D01*
X94824914Y-76506934D01*
X94880000Y-76512359D01*
X96580000Y-76512359D01*
X96635086Y-76506934D01*
X96688054Y-76490866D01*
X96736870Y-76464773D01*
X96779658Y-76429658D01*
X96814773Y-76386870D01*
X96840866Y-76338054D01*
X96856934Y-76285086D01*
X96862359Y-76230000D01*
X96862359Y-75380000D01*
X97133528Y-75380000D01*
X97155365Y-75601715D01*
X97220037Y-75814909D01*
X97325058Y-76011390D01*
X97466393Y-76183607D01*
X97638610Y-76324942D01*
X97835091Y-76429963D01*
X98048285Y-76494635D01*
X98214442Y-76511000D01*
X98325558Y-76511000D01*
X98491715Y-76494635D01*
X98704909Y-76429963D01*
X98901390Y-76324942D01*
X99073607Y-76183607D01*
X99214942Y-76011390D01*
X99319963Y-75814909D01*
X99384635Y-75601715D01*
X99406472Y-75380000D01*
X99673528Y-75380000D01*
X99695365Y-75601715D01*
X99760037Y-75814909D01*
X99865058Y-76011390D01*
X100006393Y-76183607D01*
X100178610Y-76324942D01*
X100375091Y-76429963D01*
X100588285Y-76494635D01*
X100754442Y-76511000D01*
X100865558Y-76511000D01*
X101031715Y-76494635D01*
X101244909Y-76429963D01*
X101441390Y-76324942D01*
X101613607Y-76183607D01*
X101754942Y-76011390D01*
X101859963Y-75814909D01*
X101924635Y-75601715D01*
X101946472Y-75380000D01*
X102213528Y-75380000D01*
X102235365Y-75601715D01*
X102300037Y-75814909D01*
X102405058Y-76011390D01*
X102546393Y-76183607D01*
X102718610Y-76324942D01*
X102915091Y-76429963D01*
X103128285Y-76494635D01*
X103294442Y-76511000D01*
X103405558Y-76511000D01*
X103571715Y-76494635D01*
X103784909Y-76429963D01*
X103981390Y-76324942D01*
X104153607Y-76183607D01*
X104294942Y-76011390D01*
X104399963Y-75814909D01*
X104464635Y-75601715D01*
X104486472Y-75380000D01*
X104464635Y-75158285D01*
X104399963Y-74945091D01*
X104294942Y-74748610D01*
X104153607Y-74576393D01*
X103981390Y-74435058D01*
X103784909Y-74330037D01*
X103571715Y-74265365D01*
X103405558Y-74249000D01*
X103294442Y-74249000D01*
X103128285Y-74265365D01*
X102915091Y-74330037D01*
X102718610Y-74435058D01*
X102546393Y-74576393D01*
X102405058Y-74748610D01*
X102300037Y-74945091D01*
X102235365Y-75158285D01*
X102213528Y-75380000D01*
X101946472Y-75380000D01*
X101924635Y-75158285D01*
X101859963Y-74945091D01*
X101754942Y-74748610D01*
X101613607Y-74576393D01*
X101441390Y-74435058D01*
X101244909Y-74330037D01*
X101031715Y-74265365D01*
X100865558Y-74249000D01*
X100754442Y-74249000D01*
X100588285Y-74265365D01*
X100375091Y-74330037D01*
X100178610Y-74435058D01*
X100006393Y-74576393D01*
X99865058Y-74748610D01*
X99760037Y-74945091D01*
X99695365Y-75158285D01*
X99673528Y-75380000D01*
X99406472Y-75380000D01*
X99384635Y-75158285D01*
X99319963Y-74945091D01*
X99214942Y-74748610D01*
X99073607Y-74576393D01*
X98901390Y-74435058D01*
X98704909Y-74330037D01*
X98491715Y-74265365D01*
X98325558Y-74249000D01*
X98214442Y-74249000D01*
X98048285Y-74265365D01*
X97835091Y-74330037D01*
X97638610Y-74435058D01*
X97466393Y-74576393D01*
X97325058Y-74748610D01*
X97220037Y-74945091D01*
X97155365Y-75158285D01*
X97133528Y-75380000D01*
X96862359Y-75380000D01*
X96862359Y-74530000D01*
X96856934Y-74474914D01*
X96840866Y-74421946D01*
X96814773Y-74373130D01*
X96779658Y-74330342D01*
X96736870Y-74295227D01*
X96688054Y-74269134D01*
X96635086Y-74253066D01*
X96580000Y-74247641D01*
X94880000Y-74247641D01*
X94824914Y-74253066D01*
X94771946Y-74269134D01*
X94723130Y-74295227D01*
X94680342Y-74330342D01*
X94645227Y-74373130D01*
X94619134Y-74421946D01*
X94603066Y-74474914D01*
X94597641Y-74530000D01*
X94597641Y-75965313D01*
X94537713Y-75905385D01*
X94435528Y-75837107D01*
X94321985Y-75790076D01*
X94201449Y-75766100D01*
X94078551Y-75766100D01*
X93958015Y-75790076D01*
X93844472Y-75837107D01*
X93742287Y-75905385D01*
X93655385Y-75992287D01*
X93587107Y-76094472D01*
X93540076Y-76208015D01*
X93516100Y-76328551D01*
X93516100Y-76451449D01*
X93540076Y-76571985D01*
X93587107Y-76685528D01*
X93655385Y-76787713D01*
X93688724Y-76821052D01*
X93124077Y-77385699D01*
X80377957Y-77385699D01*
X79504982Y-76512724D01*
X79493800Y-76499099D01*
X79439410Y-76454461D01*
X79377356Y-76421293D01*
X79310023Y-76400868D01*
X79257544Y-76395699D01*
X79257536Y-76395699D01*
X79240000Y-76393972D01*
X79222464Y-76395699D01*
X78353900Y-76395699D01*
X78353900Y-76348551D01*
X78329924Y-76228015D01*
X78282893Y-76114472D01*
X78214615Y-76012287D01*
X78127713Y-75925385D01*
X78025528Y-75857107D01*
X77911985Y-75810076D01*
X77791449Y-75786100D01*
X77668551Y-75786100D01*
X77548015Y-75810076D01*
X77434472Y-75857107D01*
X77332287Y-75925385D01*
X77245385Y-76012287D01*
X77177107Y-76114472D01*
X77130076Y-76228015D01*
X77106100Y-76348551D01*
X70672936Y-76348551D01*
X71471531Y-75549956D01*
X71515058Y-75631390D01*
X71656393Y-75803607D01*
X71828610Y-75944942D01*
X72025091Y-76049963D01*
X72238285Y-76114635D01*
X72404442Y-76131000D01*
X72515558Y-76131000D01*
X72681715Y-76114635D01*
X72894909Y-76049963D01*
X73091390Y-75944942D01*
X73263607Y-75803607D01*
X73404942Y-75631390D01*
X73509963Y-75434909D01*
X73574635Y-75221715D01*
X73596472Y-75000000D01*
X73574635Y-74778285D01*
X73509963Y-74565091D01*
X73404942Y-74368610D01*
X73263607Y-74196393D01*
X73207078Y-74150000D01*
X73867641Y-74150000D01*
X73867641Y-75850000D01*
X73873066Y-75905086D01*
X73889134Y-75958054D01*
X73915227Y-76006870D01*
X73950342Y-76049658D01*
X73993130Y-76084773D01*
X74041946Y-76110866D01*
X74094914Y-76126934D01*
X74150000Y-76132359D01*
X75850000Y-76132359D01*
X75905086Y-76126934D01*
X75958054Y-76110866D01*
X76006870Y-76084773D01*
X76049658Y-76049658D01*
X76084773Y-76006870D01*
X76110866Y-75958054D01*
X76126934Y-75905086D01*
X76132359Y-75850000D01*
X76132359Y-74150000D01*
X76126934Y-74094914D01*
X76110866Y-74041946D01*
X76084773Y-73993130D01*
X76049658Y-73950342D01*
X76006870Y-73915227D01*
X75958054Y-73889134D01*
X75905086Y-73873066D01*
X75850000Y-73867641D01*
X74150000Y-73867641D01*
X74094914Y-73873066D01*
X74041946Y-73889134D01*
X73993130Y-73915227D01*
X73950342Y-73950342D01*
X73915227Y-73993130D01*
X73889134Y-74041946D01*
X73873066Y-74094914D01*
X73867641Y-74150000D01*
X73207078Y-74150000D01*
X73091390Y-74055058D01*
X72894909Y-73950037D01*
X72681715Y-73885365D01*
X72515558Y-73869000D01*
X72404442Y-73869000D01*
X72238285Y-73885365D01*
X72025091Y-73950037D01*
X71962010Y-73983754D01*
X71962010Y-70623900D01*
X72061449Y-70623900D01*
X72181985Y-70599924D01*
X72295528Y-70552893D01*
X72397713Y-70484615D01*
X72484615Y-70397713D01*
X72552893Y-70295528D01*
X72599924Y-70181985D01*
X72623900Y-70061449D01*
X72623900Y-69938551D01*
X72599924Y-69818015D01*
X72552893Y-69704472D01*
X72484615Y-69602287D01*
X72397713Y-69515385D01*
X72295528Y-69447107D01*
X72181985Y-69400076D01*
X72061449Y-69376100D01*
X71938551Y-69376100D01*
X71864285Y-69390872D01*
X71890763Y-69364394D01*
X71938551Y-69373900D01*
X72061449Y-69373900D01*
X72181985Y-69349924D01*
X72295528Y-69302893D01*
X72397713Y-69234615D01*
X72484615Y-69147713D01*
X72552893Y-69045528D01*
X72599924Y-68931985D01*
X72623900Y-68811449D01*
X72623900Y-68688551D01*
X72599924Y-68568015D01*
X72552893Y-68454472D01*
X72484615Y-68352287D01*
X72397713Y-68265385D01*
X72295528Y-68197107D01*
X72181985Y-68150076D01*
X72061449Y-68126100D01*
X71938551Y-68126100D01*
X71818015Y-68150076D01*
X71704472Y-68197107D01*
X71602287Y-68265385D01*
X71515385Y-68352287D01*
X71447107Y-68454472D01*
X71400076Y-68568015D01*
X71376100Y-68688551D01*
X71376100Y-68811449D01*
X71385606Y-68859237D01*
X71059821Y-69185022D01*
X71046200Y-69196201D01*
X71035022Y-69209821D01*
X71035016Y-69209827D01*
X71028297Y-69218015D01*
X71001562Y-69250591D01*
X70968395Y-69312644D01*
X70968394Y-69312645D01*
X70948565Y-69378014D01*
X70947969Y-69379978D01*
X70942800Y-69432457D01*
X70942800Y-69432464D01*
X70941073Y-69450000D01*
X70942800Y-69467536D01*
X70942801Y-74514274D01*
X70864942Y-74368610D01*
X70723607Y-74196393D01*
X70551390Y-74055058D01*
X70354909Y-73950037D01*
X70292094Y-73930982D01*
X70740179Y-73482897D01*
X70753799Y-73471719D01*
X70764978Y-73458098D01*
X70764984Y-73458092D01*
X70782028Y-73437323D01*
X70798438Y-73417329D01*
X70831606Y-73355275D01*
X70835438Y-73342644D01*
X70852031Y-73287943D01*
X70853956Y-73268394D01*
X70857200Y-73235463D01*
X70857200Y-73235455D01*
X70858927Y-73217919D01*
X70857200Y-73200383D01*
X70857200Y-65138551D01*
X74576100Y-65138551D01*
X74576100Y-65261449D01*
X74600076Y-65381985D01*
X74647107Y-65495528D01*
X74715385Y-65597713D01*
X74719000Y-65601328D01*
X74719000Y-65898672D01*
X74715385Y-65902287D01*
X74647107Y-66004472D01*
X74600076Y-66118015D01*
X74576100Y-66238551D01*
X74576100Y-66361449D01*
X74600076Y-66481985D01*
X74647107Y-66595528D01*
X74715385Y-66697713D01*
X74719000Y-66701328D01*
X74719000Y-67000000D01*
X74740390Y-67107534D01*
X74801303Y-67198697D01*
X74892466Y-67259610D01*
X75000000Y-67281000D01*
X78000000Y-67281000D01*
X78107534Y-67259610D01*
X78198697Y-67198697D01*
X80058843Y-65338551D01*
X82676100Y-65338551D01*
X82676100Y-65461449D01*
X82700076Y-65581985D01*
X82747107Y-65695528D01*
X82815385Y-65797713D01*
X82902287Y-65884615D01*
X82942800Y-65911685D01*
X82942801Y-66975652D01*
X82941073Y-66993198D01*
X82947969Y-67063221D01*
X82968394Y-67130553D01*
X82968395Y-67130554D01*
X83001563Y-67192608D01*
X83008114Y-67200590D01*
X83035016Y-67233371D01*
X83035023Y-67233378D01*
X83046201Y-67246998D01*
X83059821Y-67258176D01*
X86056248Y-70254603D01*
X86067432Y-70268230D01*
X86121822Y-70312868D01*
X86178007Y-70342899D01*
X86183876Y-70346036D01*
X86251208Y-70366461D01*
X86257948Y-70367125D01*
X86303688Y-70371630D01*
X86303695Y-70371630D01*
X86321231Y-70373357D01*
X86338767Y-70371630D01*
X93051406Y-70371630D01*
X93148724Y-70468948D01*
X93115385Y-70502287D01*
X93047107Y-70604472D01*
X93000076Y-70718015D01*
X92976100Y-70838551D01*
X92976100Y-70961449D01*
X93000076Y-71081985D01*
X93047107Y-71195528D01*
X93115385Y-71297713D01*
X93202287Y-71384615D01*
X93304472Y-71452893D01*
X93418015Y-71499924D01*
X93538551Y-71523900D01*
X93661449Y-71523900D01*
X93781985Y-71499924D01*
X93895528Y-71452893D01*
X93997713Y-71384615D01*
X94029444Y-71352884D01*
X94047107Y-71395528D01*
X94115385Y-71497713D01*
X94202287Y-71584615D01*
X94304472Y-71652893D01*
X94418015Y-71699924D01*
X94538551Y-71723900D01*
X94661449Y-71723900D01*
X94781985Y-71699924D01*
X94895528Y-71652893D01*
X94997713Y-71584615D01*
X95084615Y-71497713D01*
X95098940Y-71476274D01*
X95100076Y-71481985D01*
X95147107Y-71595528D01*
X95215385Y-71697713D01*
X95302287Y-71784615D01*
X95404472Y-71852893D01*
X95518015Y-71899924D01*
X95638551Y-71923900D01*
X95761449Y-71923900D01*
X95881985Y-71899924D01*
X95995528Y-71852893D01*
X96097713Y-71784615D01*
X96184615Y-71697713D01*
X96252893Y-71595528D01*
X96299924Y-71481985D01*
X96323900Y-71361449D01*
X96323900Y-71238551D01*
X96299924Y-71118015D01*
X96252893Y-71004472D01*
X96184615Y-70902287D01*
X96097713Y-70815385D01*
X95995528Y-70747107D01*
X95881985Y-70700076D01*
X95761449Y-70676100D01*
X95638551Y-70676100D01*
X95590763Y-70685606D01*
X94362357Y-69457200D01*
X94952043Y-69457200D01*
X96385606Y-70890763D01*
X96376100Y-70938551D01*
X96376100Y-71061449D01*
X96400076Y-71181985D01*
X96447107Y-71295528D01*
X96515385Y-71397713D01*
X96602287Y-71484615D01*
X96704472Y-71552893D01*
X96818015Y-71599924D01*
X96938551Y-71623900D01*
X97061449Y-71623900D01*
X97181985Y-71599924D01*
X97295528Y-71552893D01*
X97397713Y-71484615D01*
X97484615Y-71397713D01*
X97552893Y-71295528D01*
X97599924Y-71181985D01*
X97623900Y-71061449D01*
X97623900Y-70938551D01*
X97599924Y-70818015D01*
X97552893Y-70704472D01*
X97484615Y-70602287D01*
X97397713Y-70515385D01*
X97295528Y-70447107D01*
X97181985Y-70400076D01*
X97061449Y-70376100D01*
X96938551Y-70376100D01*
X96890763Y-70385606D01*
X95364982Y-68859825D01*
X95353800Y-68846200D01*
X95299410Y-68801562D01*
X95237356Y-68768394D01*
X95170023Y-68747969D01*
X95117544Y-68742800D01*
X95117536Y-68742800D01*
X95100000Y-68741073D01*
X95082464Y-68742800D01*
X86847957Y-68742800D01*
X85857200Y-67752043D01*
X85857200Y-64711685D01*
X85897713Y-64684615D01*
X85984615Y-64597713D01*
X86052893Y-64495528D01*
X86076493Y-64438551D01*
X97176100Y-64438551D01*
X97176100Y-64561449D01*
X97200076Y-64681985D01*
X97247107Y-64795528D01*
X97315385Y-64897713D01*
X97402287Y-64984615D01*
X97504472Y-65052893D01*
X97618015Y-65099924D01*
X97656666Y-65107612D01*
X107419783Y-74870730D01*
X107380037Y-74945091D01*
X107315365Y-75158285D01*
X107293528Y-75380000D01*
X107315365Y-75601715D01*
X107380037Y-75814909D01*
X107485058Y-76011390D01*
X107626393Y-76183607D01*
X107798610Y-76324942D01*
X107995091Y-76429963D01*
X108208285Y-76494635D01*
X108374442Y-76511000D01*
X108485558Y-76511000D01*
X108651715Y-76494635D01*
X108864909Y-76429963D01*
X109061390Y-76324942D01*
X109233607Y-76183607D01*
X109374942Y-76011390D01*
X109479963Y-75814909D01*
X109544635Y-75601715D01*
X109566472Y-75380000D01*
X109544635Y-75158285D01*
X109479963Y-74945091D01*
X109374942Y-74748610D01*
X109233607Y-74576393D01*
X109061390Y-74435058D01*
X108864909Y-74330037D01*
X108651715Y-74265365D01*
X108485558Y-74249000D01*
X108374442Y-74249000D01*
X108306626Y-74255679D01*
X98407612Y-64356666D01*
X98399924Y-64318015D01*
X98352893Y-64204472D01*
X98284615Y-64102287D01*
X98197713Y-64015385D01*
X98095528Y-63947107D01*
X97981985Y-63900076D01*
X97861449Y-63876100D01*
X97738551Y-63876100D01*
X97618015Y-63900076D01*
X97504472Y-63947107D01*
X97402287Y-64015385D01*
X97315385Y-64102287D01*
X97247107Y-64204472D01*
X97200076Y-64318015D01*
X97176100Y-64438551D01*
X86076493Y-64438551D01*
X86099924Y-64381985D01*
X86123900Y-64261449D01*
X86123900Y-64138551D01*
X86099924Y-64018015D01*
X86052893Y-63904472D01*
X85984615Y-63802287D01*
X85897713Y-63715385D01*
X85795528Y-63647107D01*
X85681985Y-63600076D01*
X85561449Y-63576100D01*
X85438551Y-63576100D01*
X85318015Y-63600076D01*
X85204472Y-63647107D01*
X85102287Y-63715385D01*
X85015385Y-63802287D01*
X84947107Y-63904472D01*
X84900076Y-64018015D01*
X84876100Y-64138551D01*
X84876100Y-64179014D01*
X84861449Y-64176100D01*
X84738551Y-64176100D01*
X84618015Y-64200076D01*
X84504472Y-64247107D01*
X84402287Y-64315385D01*
X84315385Y-64402287D01*
X84247107Y-64504472D01*
X84200076Y-64618015D01*
X84176100Y-64738551D01*
X84176100Y-64776100D01*
X84138551Y-64776100D01*
X84018015Y-64800076D01*
X83904472Y-64847107D01*
X83802287Y-64915385D01*
X83750000Y-64967672D01*
X83697713Y-64915385D01*
X83595528Y-64847107D01*
X83481985Y-64800076D01*
X83361449Y-64776100D01*
X83238551Y-64776100D01*
X83118015Y-64800076D01*
X83004472Y-64847107D01*
X82902287Y-64915385D01*
X82815385Y-65002287D01*
X82747107Y-65104472D01*
X82700076Y-65218015D01*
X82676100Y-65338551D01*
X80058843Y-65338551D01*
X85198697Y-60198697D01*
X85259610Y-60107534D01*
X85281000Y-60000000D01*
X85281000Y-57500000D01*
X85259610Y-57392466D01*
X85198697Y-57301303D01*
X85107534Y-57240390D01*
X85000000Y-57219000D01*
X82827672Y-57219000D01*
X82781985Y-57200076D01*
X82661449Y-57176100D01*
X82538551Y-57176100D01*
X82418015Y-57200076D01*
X82372328Y-57219000D01*
X82086157Y-57219000D01*
X82462020Y-56843137D01*
X82475640Y-56831959D01*
X82486819Y-56818338D01*
X82486824Y-56818333D01*
X82504107Y-56797274D01*
X82520279Y-56777569D01*
X82553447Y-56715515D01*
X82567247Y-56670022D01*
X82573872Y-56648183D01*
X82575372Y-56632955D01*
X82579041Y-56595703D01*
X82579041Y-56595696D01*
X82580768Y-56578160D01*
X82579041Y-56560624D01*
X82579041Y-56026116D01*
X85547957Y-53057200D01*
X91482464Y-53057200D01*
X91500000Y-53058927D01*
X91517536Y-53057200D01*
X91517544Y-53057200D01*
X91570023Y-53052031D01*
X91637356Y-53031606D01*
X91699410Y-52998438D01*
X91753800Y-52953800D01*
X91764984Y-52940173D01*
X92490763Y-52214394D01*
X92538551Y-52223900D01*
X92661449Y-52223900D01*
X92781985Y-52199924D01*
X92895528Y-52152893D01*
X92997713Y-52084615D01*
X93084615Y-51997713D01*
X93152893Y-51895528D01*
X93199924Y-51781985D01*
X93223900Y-51661449D01*
X93223900Y-51538551D01*
X93199924Y-51418015D01*
X93152893Y-51304472D01*
X93084615Y-51202287D01*
X92997713Y-51115385D01*
X92895528Y-51047107D01*
X92781985Y-51000076D01*
X92661449Y-50976100D01*
X92538551Y-50976100D01*
X92493003Y-50985160D01*
X92552893Y-50895528D01*
X92599924Y-50781985D01*
X92623900Y-50661449D01*
X92623900Y-50538551D01*
X92599924Y-50418015D01*
X92552893Y-50304472D01*
X92484615Y-50202287D01*
X92397713Y-50115385D01*
X92295528Y-50047107D01*
X92181985Y-50000076D01*
X92061449Y-49976100D01*
X91938551Y-49976100D01*
X91818015Y-50000076D01*
X91704472Y-50047107D01*
X91602287Y-50115385D01*
X91515385Y-50202287D01*
X91488315Y-50242800D01*
X90417535Y-50242800D01*
X90399999Y-50241073D01*
X90382463Y-50242800D01*
X90382456Y-50242800D01*
X90338729Y-50247107D01*
X90329976Y-50247969D01*
X90294357Y-50258774D01*
X90262644Y-50268394D01*
X90200590Y-50301562D01*
X90146200Y-50346200D01*
X90135018Y-50359825D01*
X89445753Y-51049090D01*
X85011246Y-51049090D01*
X84993710Y-51047363D01*
X84976174Y-51049090D01*
X84976166Y-51049090D01*
X84929834Y-51053654D01*
X84923686Y-51054259D01*
X84856354Y-51074684D01*
X84794300Y-51107852D01*
X84739910Y-51152490D01*
X84728728Y-51166115D01*
X82289608Y-53605235D01*
X82289603Y-53605242D01*
X82236396Y-53658449D01*
X82110192Y-53532245D01*
X82108761Y-53530166D01*
X82085396Y-53507448D01*
X82074702Y-53496754D01*
X82072749Y-53495151D01*
X82070953Y-53493405D01*
X82059206Y-53484037D01*
X82033938Y-53463301D01*
X82031710Y-53462110D01*
X82014508Y-53448392D01*
X81997837Y-53433068D01*
X81972057Y-53417369D01*
X81946744Y-53400965D01*
X81925713Y-53392598D01*
X81887748Y-53374314D01*
X81868078Y-53363080D01*
X81839449Y-53353511D01*
X81811136Y-53343156D01*
X81788759Y-53339676D01*
X81747674Y-53330299D01*
X81726014Y-53323728D01*
X81695986Y-53320770D01*
X81666048Y-53316971D01*
X81643467Y-53318557D01*
X81601328Y-53318557D01*
X81578735Y-53316970D01*
X81548806Y-53320768D01*
X81518791Y-53323724D01*
X81497117Y-53330298D01*
X81456037Y-53339676D01*
X81433667Y-53343154D01*
X81405313Y-53353523D01*
X81376706Y-53363086D01*
X81357055Y-53374310D01*
X81319078Y-53392598D01*
X81298050Y-53400964D01*
X81272747Y-53417361D01*
X81246964Y-53433062D01*
X81230293Y-53448386D01*
X81197351Y-53474655D01*
X81178699Y-53487500D01*
X81157663Y-53509134D01*
X81136033Y-53530165D01*
X81123190Y-53548815D01*
X81096917Y-53581758D01*
X81081592Y-53598431D01*
X81065907Y-53624189D01*
X81049494Y-53649514D01*
X81041121Y-53670557D01*
X81022838Y-53708522D01*
X81011607Y-53728187D01*
X81002045Y-53756796D01*
X80991680Y-53785136D01*
X80988199Y-53807518D01*
X80978825Y-53848592D01*
X80972254Y-53870251D01*
X80969297Y-53900268D01*
X80965497Y-53930214D01*
X80967083Y-53952800D01*
X80967083Y-53994941D01*
X80965496Y-54017534D01*
X80969293Y-54047447D01*
X80972250Y-54077476D01*
X80978827Y-54099160D01*
X80988201Y-54140226D01*
X80991679Y-54162593D01*
X81002048Y-54190948D01*
X81011613Y-54219561D01*
X81022836Y-54239211D01*
X81041121Y-54277184D01*
X81049495Y-54298228D01*
X81065897Y-54323536D01*
X81081585Y-54349299D01*
X81096912Y-54365974D01*
X81110641Y-54383189D01*
X81111828Y-54385410D01*
X81132539Y-54410647D01*
X81141939Y-54422434D01*
X81143687Y-54424231D01*
X81145281Y-54426174D01*
X81155966Y-54436859D01*
X81178702Y-54460240D01*
X81180774Y-54461667D01*
X81261908Y-54542800D01*
X80417535Y-54542800D01*
X80399999Y-54541073D01*
X80382463Y-54542800D01*
X80382456Y-54542800D01*
X80336716Y-54547305D01*
X80329976Y-54547969D01*
X80273889Y-54564983D01*
X80262644Y-54568394D01*
X80200590Y-54601562D01*
X80146200Y-54646200D01*
X80135018Y-54659825D01*
X79559821Y-55235022D01*
X79546201Y-55246200D01*
X79535023Y-55259820D01*
X79535016Y-55259827D01*
X79514674Y-55284615D01*
X79501563Y-55300590D01*
X79490127Y-55321986D01*
X79468394Y-55362645D01*
X79447969Y-55429977D01*
X79441073Y-55500000D01*
X79442801Y-55517546D01*
X79442800Y-56088315D01*
X79402287Y-56115385D01*
X79315385Y-56202287D01*
X79247107Y-56304472D01*
X79200076Y-56418015D01*
X79176100Y-56538551D01*
X79176100Y-56661449D01*
X79200076Y-56781985D01*
X79247107Y-56895528D01*
X79315385Y-56997713D01*
X79402287Y-57084615D01*
X79504472Y-57152893D01*
X79609099Y-57196231D01*
X79600076Y-57218015D01*
X79576100Y-57338551D01*
X79576100Y-57461449D01*
X79600076Y-57581985D01*
X79647107Y-57695528D01*
X79715385Y-57797713D01*
X79802287Y-57884615D01*
X79904472Y-57952893D01*
X80018015Y-57999924D01*
X80138551Y-58023900D01*
X80261449Y-58023900D01*
X80310383Y-58014167D01*
X80343489Y-58041337D01*
X80405543Y-58074505D01*
X80457204Y-58090176D01*
X80472875Y-58094930D01*
X80478947Y-58095528D01*
X80525355Y-58100099D01*
X80525362Y-58100099D01*
X80542898Y-58101826D01*
X80560434Y-58100099D01*
X81039565Y-58100099D01*
X81057101Y-58101826D01*
X81074637Y-58100099D01*
X81074645Y-58100099D01*
X81127124Y-58094930D01*
X81176100Y-58080073D01*
X81176100Y-58161449D01*
X81200076Y-58281985D01*
X81219000Y-58327672D01*
X81219000Y-60883606D01*
X77883606Y-64219000D01*
X75000000Y-64219000D01*
X74892466Y-64240390D01*
X74801303Y-64301303D01*
X74740390Y-64392466D01*
X74719000Y-64500000D01*
X74719000Y-64798672D01*
X74715385Y-64802287D01*
X74647107Y-64904472D01*
X74600076Y-65018015D01*
X74576100Y-65138551D01*
X70857200Y-65138551D01*
X70857200Y-64911685D01*
X70897713Y-64884615D01*
X70984615Y-64797713D01*
X71052893Y-64695528D01*
X71099924Y-64581985D01*
X71123900Y-64461449D01*
X71123900Y-64338551D01*
X71099924Y-64218015D01*
X71052893Y-64104472D01*
X70984615Y-64002287D01*
X70897713Y-63915385D01*
X70795528Y-63847107D01*
X70681985Y-63800076D01*
X70561449Y-63776100D01*
X70438551Y-63776100D01*
X70318015Y-63800076D01*
X70204472Y-63847107D01*
X70102287Y-63915385D01*
X70015385Y-64002287D01*
X69947107Y-64104472D01*
X69900076Y-64218015D01*
X69876100Y-64338551D01*
X69876100Y-64376100D01*
X69838551Y-64376100D01*
X69718015Y-64400076D01*
X69604472Y-64447107D01*
X69502287Y-64515385D01*
X69415385Y-64602287D01*
X69347107Y-64704472D01*
X69300076Y-64818015D01*
X69276100Y-64938551D01*
X69276100Y-65061449D01*
X69300076Y-65181985D01*
X69347107Y-65295528D01*
X69415385Y-65397713D01*
X69502287Y-65484615D01*
X69542801Y-65511686D01*
X69542801Y-65837644D01*
X68864982Y-65159825D01*
X68853800Y-65146200D01*
X68799410Y-65101562D01*
X68737356Y-65068394D01*
X68670023Y-65047969D01*
X68617544Y-65042800D01*
X68617536Y-65042800D01*
X68600000Y-65041073D01*
X68582464Y-65042800D01*
X65947957Y-65042800D01*
X65614394Y-64709237D01*
X65623900Y-64661449D01*
X65623900Y-64538551D01*
X65599924Y-64418015D01*
X65552893Y-64304472D01*
X65484615Y-64202287D01*
X65397713Y-64115385D01*
X65295528Y-64047107D01*
X65181985Y-64000076D01*
X65061449Y-63976100D01*
X64938551Y-63976100D01*
X64818015Y-64000076D01*
X64704472Y-64047107D01*
X64602287Y-64115385D01*
X64515385Y-64202287D01*
X64447107Y-64304472D01*
X64400076Y-64418015D01*
X64376100Y-64538551D01*
X64376100Y-64661449D01*
X64400076Y-64781985D01*
X64447107Y-64895528D01*
X64515385Y-64997713D01*
X64602287Y-65084615D01*
X64704472Y-65152893D01*
X64818015Y-65199924D01*
X64938551Y-65223900D01*
X65061449Y-65223900D01*
X65109237Y-65214394D01*
X65170943Y-65276100D01*
X65138551Y-65276100D01*
X65018015Y-65300076D01*
X64904472Y-65347107D01*
X64802287Y-65415385D01*
X64715385Y-65502287D01*
X64647107Y-65604472D01*
X64600076Y-65718015D01*
X64576100Y-65838551D01*
X64576100Y-65961449D01*
X64600076Y-66081985D01*
X64647107Y-66195528D01*
X64715385Y-66297713D01*
X64802287Y-66384615D01*
X64843771Y-66412334D01*
X64846602Y-66441073D01*
X64847969Y-66454956D01*
X64862990Y-66504472D01*
X64868394Y-66522288D01*
X64901562Y-66584342D01*
X64914898Y-66600591D01*
X64935016Y-66625106D01*
X64935022Y-66625112D01*
X64946200Y-66638732D01*
X64959821Y-66649911D01*
X65442801Y-67132891D01*
X65442800Y-68252043D01*
X65352043Y-68342800D01*
X51817535Y-68342800D01*
X51799999Y-68341073D01*
X51782463Y-68342800D01*
X51782456Y-68342800D01*
X51736716Y-68347305D01*
X51729976Y-68347969D01*
X51716586Y-68352031D01*
X51662644Y-68368394D01*
X51600590Y-68401562D01*
X51546200Y-68446200D01*
X51535018Y-68459825D01*
X51209237Y-68785606D01*
X51161449Y-68776100D01*
X51038551Y-68776100D01*
X50918015Y-68800076D01*
X50804472Y-68847107D01*
X50702287Y-68915385D01*
X50615385Y-69002287D01*
X50547107Y-69104472D01*
X50500076Y-69218015D01*
X50476100Y-69338551D01*
X50476100Y-69461449D01*
X50500076Y-69581985D01*
X50547107Y-69695528D01*
X50615385Y-69797713D01*
X50702287Y-69884615D01*
X50804472Y-69952893D01*
X50901684Y-69993159D01*
X47752043Y-73142800D01*
X46317536Y-73142800D01*
X46300000Y-73141073D01*
X46282464Y-73142800D01*
X46282456Y-73142800D01*
X46236124Y-73147364D01*
X46229976Y-73147969D01*
X46181596Y-73162645D01*
X46162644Y-73168394D01*
X46100590Y-73201562D01*
X46046200Y-73246200D01*
X46035018Y-73259825D01*
X45559821Y-73735022D01*
X45546201Y-73746200D01*
X45535023Y-73759820D01*
X45535016Y-73759827D01*
X45526667Y-73770001D01*
X45501563Y-73800590D01*
X45499307Y-73804811D01*
X45468394Y-73862645D01*
X45447969Y-73929977D01*
X45441073Y-74000000D01*
X45442801Y-74017546D01*
X45442800Y-76112043D01*
X45026526Y-76528317D01*
X44954909Y-76490037D01*
X44741715Y-76425365D01*
X44575558Y-76409000D01*
X44464442Y-76409000D01*
X44298285Y-76425365D01*
X44085091Y-76490037D01*
X43888610Y-76595058D01*
X43716393Y-76736393D01*
X43575058Y-76908610D01*
X43470037Y-77105091D01*
X43405365Y-77318285D01*
X43383528Y-77540000D01*
X43116472Y-77540000D01*
X43094635Y-77318285D01*
X43029963Y-77105091D01*
X42924942Y-76908610D01*
X42783607Y-76736393D01*
X42611390Y-76595058D01*
X42414909Y-76490037D01*
X42201715Y-76425365D01*
X42035558Y-76409000D01*
X41924442Y-76409000D01*
X41758285Y-76425365D01*
X41545091Y-76490037D01*
X41348610Y-76595058D01*
X41176393Y-76736393D01*
X41035058Y-76908610D01*
X40930037Y-77105091D01*
X40865365Y-77318285D01*
X40843528Y-77540000D01*
X38036472Y-77540000D01*
X38014635Y-77318285D01*
X37949963Y-77105091D01*
X37844942Y-76908610D01*
X37703607Y-76736393D01*
X37531390Y-76595058D01*
X37334909Y-76490037D01*
X37121715Y-76425365D01*
X36955558Y-76409000D01*
X36844442Y-76409000D01*
X36678285Y-76425365D01*
X36465091Y-76490037D01*
X36268610Y-76595058D01*
X36096393Y-76736393D01*
X35955058Y-76908610D01*
X35850037Y-77105091D01*
X35785365Y-77318285D01*
X35763528Y-77540000D01*
X32956472Y-77540000D01*
X32934635Y-77318285D01*
X32869963Y-77105091D01*
X32764942Y-76908610D01*
X32623607Y-76736393D01*
X32451390Y-76595058D01*
X32254909Y-76490037D01*
X32041715Y-76425365D01*
X31875558Y-76409000D01*
X31764442Y-76409000D01*
X31598285Y-76425365D01*
X31385091Y-76490037D01*
X31188610Y-76595058D01*
X31016393Y-76736393D01*
X30875058Y-76908610D01*
X30770037Y-77105091D01*
X30705365Y-77318285D01*
X30683528Y-77540000D01*
X30416472Y-77540000D01*
X30394635Y-77318285D01*
X30329963Y-77105091D01*
X30224942Y-76908610D01*
X30083607Y-76736393D01*
X29911390Y-76595058D01*
X29714909Y-76490037D01*
X29501715Y-76425365D01*
X29335558Y-76409000D01*
X29224442Y-76409000D01*
X29058285Y-76425365D01*
X28845091Y-76490037D01*
X28648610Y-76595058D01*
X28476393Y-76736393D01*
X28335058Y-76908610D01*
X28230037Y-77105091D01*
X28165365Y-77318285D01*
X28143528Y-77540000D01*
X27876472Y-77540000D01*
X27854635Y-77318285D01*
X27789963Y-77105091D01*
X27684942Y-76908610D01*
X27543607Y-76736393D01*
X27371390Y-76595058D01*
X27174909Y-76490037D01*
X26961715Y-76425365D01*
X26795558Y-76409000D01*
X26684442Y-76409000D01*
X26518285Y-76425365D01*
X26305091Y-76490037D01*
X26108610Y-76595058D01*
X25936393Y-76736393D01*
X25795058Y-76908610D01*
X25690037Y-77105091D01*
X25625365Y-77318285D01*
X25603528Y-77540000D01*
X25356000Y-77540000D01*
X25356000Y-75000000D01*
X28143528Y-75000000D01*
X28165365Y-75221715D01*
X28230037Y-75434909D01*
X28335058Y-75631390D01*
X28476393Y-75803607D01*
X28648610Y-75944942D01*
X28845091Y-76049963D01*
X29058285Y-76114635D01*
X29224442Y-76131000D01*
X29335558Y-76131000D01*
X29501715Y-76114635D01*
X29714909Y-76049963D01*
X29911390Y-75944942D01*
X30083607Y-75803607D01*
X30224942Y-75631390D01*
X30329963Y-75434909D01*
X30394635Y-75221715D01*
X30416472Y-75000000D01*
X30683528Y-75000000D01*
X30705365Y-75221715D01*
X30770037Y-75434909D01*
X30875058Y-75631390D01*
X31016393Y-75803607D01*
X31188610Y-75944942D01*
X31385091Y-76049963D01*
X31598285Y-76114635D01*
X31764442Y-76131000D01*
X31875558Y-76131000D01*
X32041715Y-76114635D01*
X32254909Y-76049963D01*
X32451390Y-75944942D01*
X32623607Y-75803607D01*
X32764942Y-75631390D01*
X32869963Y-75434909D01*
X32934635Y-75221715D01*
X32956472Y-75000000D01*
X33223528Y-75000000D01*
X33245365Y-75221715D01*
X33310037Y-75434909D01*
X33415058Y-75631390D01*
X33556393Y-75803607D01*
X33728610Y-75944942D01*
X33925091Y-76049963D01*
X34138285Y-76114635D01*
X34304442Y-76131000D01*
X34415558Y-76131000D01*
X34581715Y-76114635D01*
X34794909Y-76049963D01*
X34991390Y-75944942D01*
X35163607Y-75803607D01*
X35304942Y-75631390D01*
X35409963Y-75434909D01*
X35474635Y-75221715D01*
X35496472Y-75000000D01*
X35763528Y-75000000D01*
X35785365Y-75221715D01*
X35850037Y-75434909D01*
X35955058Y-75631390D01*
X36096393Y-75803607D01*
X36268610Y-75944942D01*
X36465091Y-76049963D01*
X36678285Y-76114635D01*
X36844442Y-76131000D01*
X36955558Y-76131000D01*
X37121715Y-76114635D01*
X37334909Y-76049963D01*
X37531390Y-75944942D01*
X37703607Y-75803607D01*
X37844942Y-75631390D01*
X37949963Y-75434909D01*
X38014635Y-75221715D01*
X38036472Y-75000000D01*
X38303528Y-75000000D01*
X38325365Y-75221715D01*
X38390037Y-75434909D01*
X38495058Y-75631390D01*
X38636393Y-75803607D01*
X38808610Y-75944942D01*
X39005091Y-76049963D01*
X39218285Y-76114635D01*
X39384442Y-76131000D01*
X39495558Y-76131000D01*
X39661715Y-76114635D01*
X39874909Y-76049963D01*
X40071390Y-75944942D01*
X40243607Y-75803607D01*
X40384942Y-75631390D01*
X40489963Y-75434909D01*
X40554635Y-75221715D01*
X40576472Y-75000000D01*
X40843528Y-75000000D01*
X40865365Y-75221715D01*
X40930037Y-75434909D01*
X41035058Y-75631390D01*
X41176393Y-75803607D01*
X41348610Y-75944942D01*
X41545091Y-76049963D01*
X41758285Y-76114635D01*
X41924442Y-76131000D01*
X42035558Y-76131000D01*
X42201715Y-76114635D01*
X42414909Y-76049963D01*
X42611390Y-75944942D01*
X42783607Y-75803607D01*
X42924942Y-75631390D01*
X43029963Y-75434909D01*
X43094635Y-75221715D01*
X43116472Y-75000000D01*
X43094635Y-74778285D01*
X43029963Y-74565091D01*
X42924942Y-74368610D01*
X42783607Y-74196393D01*
X42611390Y-74055058D01*
X42414909Y-73950037D01*
X42201715Y-73885365D01*
X42035558Y-73869000D01*
X41924442Y-73869000D01*
X41758285Y-73885365D01*
X41545091Y-73950037D01*
X41348610Y-74055058D01*
X41176393Y-74196393D01*
X41035058Y-74368610D01*
X40930037Y-74565091D01*
X40865365Y-74778285D01*
X40843528Y-75000000D01*
X40576472Y-75000000D01*
X40554635Y-74778285D01*
X40489963Y-74565091D01*
X40384942Y-74368610D01*
X40243607Y-74196393D01*
X40071390Y-74055058D01*
X39874909Y-73950037D01*
X39661715Y-73885365D01*
X39495558Y-73869000D01*
X39384442Y-73869000D01*
X39218285Y-73885365D01*
X39005091Y-73950037D01*
X38808610Y-74055058D01*
X38636393Y-74196393D01*
X38495058Y-74368610D01*
X38390037Y-74565091D01*
X38325365Y-74778285D01*
X38303528Y-75000000D01*
X38036472Y-75000000D01*
X38014635Y-74778285D01*
X37949963Y-74565091D01*
X37844942Y-74368610D01*
X37703607Y-74196393D01*
X37531390Y-74055058D01*
X37334909Y-73950037D01*
X37121715Y-73885365D01*
X36955558Y-73869000D01*
X36844442Y-73869000D01*
X36678285Y-73885365D01*
X36465091Y-73950037D01*
X36268610Y-74055058D01*
X36096393Y-74196393D01*
X35955058Y-74368610D01*
X35850037Y-74565091D01*
X35785365Y-74778285D01*
X35763528Y-75000000D01*
X35496472Y-75000000D01*
X35474635Y-74778285D01*
X35409963Y-74565091D01*
X35304942Y-74368610D01*
X35163607Y-74196393D01*
X34991390Y-74055058D01*
X34794909Y-73950037D01*
X34581715Y-73885365D01*
X34415558Y-73869000D01*
X34304442Y-73869000D01*
X34138285Y-73885365D01*
X33925091Y-73950037D01*
X33728610Y-74055058D01*
X33556393Y-74196393D01*
X33415058Y-74368610D01*
X33310037Y-74565091D01*
X33245365Y-74778285D01*
X33223528Y-75000000D01*
X32956472Y-75000000D01*
X32934635Y-74778285D01*
X32869963Y-74565091D01*
X32764942Y-74368610D01*
X32623607Y-74196393D01*
X32451390Y-74055058D01*
X32254909Y-73950037D01*
X32041715Y-73885365D01*
X31875558Y-73869000D01*
X31764442Y-73869000D01*
X31598285Y-73885365D01*
X31385091Y-73950037D01*
X31188610Y-74055058D01*
X31016393Y-74196393D01*
X30875058Y-74368610D01*
X30770037Y-74565091D01*
X30705365Y-74778285D01*
X30683528Y-75000000D01*
X30416472Y-75000000D01*
X30394635Y-74778285D01*
X30329963Y-74565091D01*
X30224942Y-74368610D01*
X30083607Y-74196393D01*
X29911390Y-74055058D01*
X29714909Y-73950037D01*
X29501715Y-73885365D01*
X29335558Y-73869000D01*
X29224442Y-73869000D01*
X29058285Y-73885365D01*
X28845091Y-73950037D01*
X28648610Y-74055058D01*
X28476393Y-74196393D01*
X28335058Y-74368610D01*
X28230037Y-74565091D01*
X28165365Y-74778285D01*
X28143528Y-75000000D01*
X25356000Y-75000000D01*
X25356000Y-68938551D01*
X41876100Y-68938551D01*
X41876100Y-69061449D01*
X41900076Y-69181985D01*
X41947107Y-69295528D01*
X42015385Y-69397713D01*
X42102287Y-69484615D01*
X42204472Y-69552893D01*
X42318015Y-69599924D01*
X42438551Y-69623900D01*
X42561449Y-69623900D01*
X42681985Y-69599924D01*
X42795528Y-69552893D01*
X42897713Y-69484615D01*
X42984615Y-69397713D01*
X43052893Y-69295528D01*
X43099924Y-69181985D01*
X43123900Y-69061449D01*
X43123900Y-68938551D01*
X43114394Y-68890763D01*
X43612144Y-68393013D01*
X43615284Y-68397713D01*
X43702186Y-68484615D01*
X43804371Y-68552893D01*
X43917914Y-68599924D01*
X44038450Y-68623900D01*
X44161348Y-68623900D01*
X44281884Y-68599924D01*
X44395427Y-68552893D01*
X44497612Y-68484615D01*
X44584514Y-68397713D01*
X44652792Y-68295528D01*
X44699823Y-68181985D01*
X44723799Y-68061449D01*
X44723799Y-67938551D01*
X44699823Y-67818015D01*
X44652792Y-67704472D01*
X44584514Y-67602287D01*
X44497612Y-67515385D01*
X44395427Y-67447107D01*
X44281884Y-67400076D01*
X44161348Y-67376100D01*
X44038450Y-67376100D01*
X43917914Y-67400076D01*
X43804371Y-67447107D01*
X43702186Y-67515385D01*
X43615284Y-67602287D01*
X43588214Y-67642800D01*
X43517539Y-67642800D01*
X43500000Y-67641073D01*
X43482461Y-67642800D01*
X43482456Y-67642800D01*
X43466228Y-67644398D01*
X43429976Y-67647968D01*
X43362644Y-67668394D01*
X43300590Y-67701562D01*
X43246200Y-67746200D01*
X43235018Y-67759825D01*
X42609237Y-68385606D01*
X42561449Y-68376100D01*
X42438551Y-68376100D01*
X42318015Y-68400076D01*
X42204472Y-68447107D01*
X42102287Y-68515385D01*
X42015385Y-68602287D01*
X41947107Y-68704472D01*
X41900076Y-68818015D01*
X41876100Y-68938551D01*
X25356000Y-68938551D01*
X25356000Y-59000000D01*
X67719000Y-59000000D01*
X67719000Y-61000000D01*
X67740390Y-61107534D01*
X67801303Y-61198697D01*
X67892466Y-61259610D01*
X68000000Y-61281000D01*
X80000000Y-61281000D01*
X80107534Y-61259610D01*
X80198697Y-61198697D01*
X80259610Y-61107534D01*
X80281000Y-61000000D01*
X80281000Y-59000000D01*
X80259610Y-58892466D01*
X80198697Y-58801303D01*
X80107534Y-58740390D01*
X80000000Y-58719000D01*
X68000000Y-58719000D01*
X67892466Y-58740390D01*
X67801303Y-58801303D01*
X67740390Y-58892466D01*
X67719000Y-59000000D01*
X25356000Y-59000000D01*
X25356000Y-49238551D01*
X34676100Y-49238551D01*
X34676100Y-49361449D01*
X34700076Y-49481985D01*
X34747107Y-49595528D01*
X34815385Y-49697713D01*
X34902287Y-49784615D01*
X34943772Y-49812334D01*
X34947969Y-49854956D01*
X34968394Y-49922288D01*
X34968395Y-49922289D01*
X35001563Y-49984343D01*
X35009980Y-49994599D01*
X35035016Y-50025106D01*
X35035023Y-50025113D01*
X35046201Y-50038733D01*
X35059821Y-50049911D01*
X36142800Y-51132890D01*
X36142801Y-52482454D01*
X36141073Y-52500000D01*
X36147969Y-52570023D01*
X36168394Y-52637355D01*
X36168395Y-52637356D01*
X36201563Y-52699410D01*
X36214575Y-52715265D01*
X36235016Y-52740173D01*
X36235023Y-52740180D01*
X36246201Y-52753800D01*
X36259821Y-52764978D01*
X36604065Y-53109222D01*
X36581985Y-53100076D01*
X36461449Y-53076100D01*
X36338551Y-53076100D01*
X36218015Y-53100076D01*
X36104472Y-53147107D01*
X36002287Y-53215385D01*
X35915385Y-53302287D01*
X35847107Y-53404472D01*
X35800076Y-53518015D01*
X35776100Y-53638551D01*
X35776100Y-53761449D01*
X35800076Y-53881985D01*
X35847107Y-53995528D01*
X35915385Y-54097713D01*
X36002287Y-54184615D01*
X36104472Y-54252893D01*
X36218015Y-54299924D01*
X36338551Y-54323900D01*
X36461449Y-54323900D01*
X36581985Y-54299924D01*
X36695528Y-54252893D01*
X36797713Y-54184615D01*
X36884615Y-54097713D01*
X36911685Y-54057200D01*
X40993819Y-54057200D01*
X44579715Y-57643096D01*
X44590897Y-57656721D01*
X44645287Y-57701359D01*
X44707341Y-57734527D01*
X44774673Y-57754952D01*
X44781413Y-57755616D01*
X44827153Y-57760121D01*
X44827160Y-57760121D01*
X44844696Y-57761848D01*
X44862232Y-57760121D01*
X48517753Y-57760121D01*
X48544823Y-57800634D01*
X48631725Y-57887536D01*
X48733910Y-57955814D01*
X48847453Y-58002845D01*
X48967989Y-58026821D01*
X49090887Y-58026821D01*
X49211423Y-58002845D01*
X49324966Y-57955814D01*
X49427151Y-57887536D01*
X49514053Y-57800634D01*
X49582331Y-57698449D01*
X49629362Y-57584906D01*
X49641497Y-57523900D01*
X49761449Y-57523900D01*
X49881985Y-57499924D01*
X49995528Y-57452893D01*
X50097713Y-57384615D01*
X50184615Y-57297713D01*
X50252893Y-57195528D01*
X50299924Y-57081985D01*
X50323900Y-56961449D01*
X50323900Y-56838551D01*
X50299924Y-56718015D01*
X50252893Y-56604472D01*
X50184615Y-56502287D01*
X50097713Y-56415385D01*
X49995528Y-56347107D01*
X49881985Y-56300076D01*
X49761449Y-56276100D01*
X49638551Y-56276100D01*
X49589617Y-56285833D01*
X49556511Y-56258663D01*
X49494457Y-56225495D01*
X49427124Y-56205070D01*
X49374645Y-56199901D01*
X49374637Y-56199901D01*
X49357101Y-56198174D01*
X49339565Y-56199901D01*
X44955058Y-56199901D01*
X41910172Y-53155015D01*
X41898990Y-53141390D01*
X41844600Y-53096752D01*
X41782546Y-53063584D01*
X41715213Y-53043159D01*
X41662734Y-53037990D01*
X41662726Y-53037990D01*
X41645190Y-53036263D01*
X41627654Y-53037990D01*
X37543147Y-53037990D01*
X36857200Y-52352043D01*
X36857200Y-51138551D01*
X49276100Y-51138551D01*
X49276100Y-51261449D01*
X49300076Y-51381985D01*
X49347107Y-51495528D01*
X49415385Y-51597713D01*
X49502287Y-51684615D01*
X49604472Y-51752893D01*
X49718015Y-51799924D01*
X49838551Y-51823900D01*
X49961449Y-51823900D01*
X50081985Y-51799924D01*
X50195528Y-51752893D01*
X50297713Y-51684615D01*
X50384615Y-51597713D01*
X50411685Y-51557200D01*
X51952043Y-51557200D01*
X52042800Y-51647957D01*
X52042801Y-51982454D01*
X52041073Y-52000000D01*
X52047969Y-52070023D01*
X52068394Y-52137355D01*
X52083509Y-52165633D01*
X52101563Y-52199410D01*
X52110477Y-52210271D01*
X52135016Y-52240173D01*
X52135023Y-52240180D01*
X52146201Y-52253800D01*
X52159821Y-52264978D01*
X55735018Y-55840175D01*
X55746200Y-55853800D01*
X55800590Y-55898438D01*
X55862644Y-55931606D01*
X55929977Y-55952031D01*
X55982456Y-55957200D01*
X55982472Y-55957200D01*
X55999998Y-55958926D01*
X56017524Y-55957200D01*
X69510031Y-55957200D01*
X69527567Y-55958927D01*
X69545103Y-55957200D01*
X69545111Y-55957200D01*
X69597590Y-55952031D01*
X69664923Y-55931606D01*
X69711749Y-55906577D01*
X69752287Y-55947115D01*
X69854472Y-56015393D01*
X69968015Y-56062424D01*
X70088551Y-56086400D01*
X70211449Y-56086400D01*
X70331985Y-56062424D01*
X70445528Y-56015393D01*
X70547713Y-55947115D01*
X70634615Y-55860213D01*
X70702893Y-55758028D01*
X70749924Y-55644485D01*
X70773900Y-55523949D01*
X70773900Y-55401051D01*
X70749924Y-55280515D01*
X70715797Y-55198125D01*
X70802287Y-55284615D01*
X70904472Y-55352893D01*
X71018015Y-55399924D01*
X71138551Y-55423900D01*
X71261449Y-55423900D01*
X71381985Y-55399924D01*
X71495528Y-55352893D01*
X71597713Y-55284615D01*
X71684615Y-55197713D01*
X71752893Y-55095528D01*
X71776100Y-55039501D01*
X71776100Y-55061449D01*
X71800076Y-55181985D01*
X71847107Y-55295528D01*
X71915385Y-55397713D01*
X72002287Y-55484615D01*
X72104472Y-55552893D01*
X72218015Y-55599924D01*
X72338551Y-55623900D01*
X72461449Y-55623900D01*
X72581985Y-55599924D01*
X72695528Y-55552893D01*
X72797713Y-55484615D01*
X72884615Y-55397713D01*
X72952893Y-55295528D01*
X72999924Y-55181985D01*
X73023900Y-55061449D01*
X73023900Y-54938551D01*
X72999924Y-54818015D01*
X72974734Y-54757200D01*
X73422483Y-54757200D01*
X73549607Y-54884324D01*
X73540101Y-54932112D01*
X73540101Y-55055010D01*
X73564077Y-55175546D01*
X73611108Y-55289089D01*
X73679386Y-55391274D01*
X73766288Y-55478176D01*
X73868473Y-55546454D01*
X73982016Y-55593485D01*
X74102552Y-55617461D01*
X74225450Y-55617461D01*
X74345986Y-55593485D01*
X74459529Y-55546454D01*
X74561714Y-55478176D01*
X74648616Y-55391274D01*
X74716894Y-55289089D01*
X74763925Y-55175546D01*
X74787901Y-55055010D01*
X74787901Y-54932112D01*
X74763925Y-54811576D01*
X74716894Y-54698033D01*
X74648616Y-54595848D01*
X74561714Y-54508946D01*
X74459529Y-54440668D01*
X74345986Y-54393637D01*
X74225450Y-54369661D01*
X74102552Y-54369661D01*
X74054764Y-54379167D01*
X73835422Y-54159825D01*
X73824240Y-54146200D01*
X73769850Y-54101562D01*
X73707796Y-54068394D01*
X73640463Y-54047969D01*
X73587984Y-54042800D01*
X73587976Y-54042800D01*
X73570440Y-54041073D01*
X73552904Y-54042800D01*
X72455911Y-54042800D01*
X71572936Y-53159825D01*
X71561754Y-53146200D01*
X71507364Y-53101562D01*
X71445310Y-53068394D01*
X71377977Y-53047969D01*
X71325498Y-53042800D01*
X71325490Y-53042800D01*
X71307954Y-53041073D01*
X71290418Y-53042800D01*
X69655403Y-53042800D01*
X69637867Y-53041073D01*
X69620331Y-53042800D01*
X69620324Y-53042800D01*
X69574584Y-53047305D01*
X69567844Y-53047969D01*
X69500512Y-53068394D01*
X69438458Y-53101562D01*
X69384068Y-53146200D01*
X69372886Y-53159825D01*
X68589911Y-53942800D01*
X56572221Y-53942800D01*
X54462010Y-51832589D01*
X54462010Y-50491279D01*
X54463737Y-50473743D01*
X54462010Y-50456207D01*
X54462010Y-50456200D01*
X54456841Y-50403721D01*
X54455892Y-50400590D01*
X54436416Y-50336388D01*
X54429741Y-50323900D01*
X54403248Y-50274334D01*
X54358610Y-50219944D01*
X54344985Y-50208762D01*
X53691238Y-49555015D01*
X53680056Y-49541390D01*
X53625666Y-49496752D01*
X53563612Y-49463584D01*
X53496279Y-49443159D01*
X53443800Y-49437990D01*
X53443792Y-49437990D01*
X53426256Y-49436263D01*
X53408720Y-49437990D01*
X53043147Y-49437990D01*
X52972267Y-49367110D01*
X52972267Y-48817535D01*
X52973994Y-48799999D01*
X52972267Y-48782463D01*
X52972267Y-48782456D01*
X52967098Y-48729977D01*
X52946673Y-48662644D01*
X52937272Y-48645056D01*
X52984615Y-48597713D01*
X53052893Y-48495528D01*
X53099924Y-48381985D01*
X53123900Y-48261449D01*
X53123900Y-48138551D01*
X53099924Y-48018015D01*
X53052893Y-47904472D01*
X52984615Y-47802287D01*
X52897713Y-47715385D01*
X52795528Y-47647107D01*
X52681985Y-47600076D01*
X52561449Y-47576100D01*
X52438551Y-47576100D01*
X52318015Y-47600076D01*
X52204472Y-47647107D01*
X52102287Y-47715385D01*
X52015385Y-47802287D01*
X51947107Y-47904472D01*
X51900076Y-48018015D01*
X51876100Y-48138551D01*
X51876100Y-48261449D01*
X51900076Y-48381985D01*
X51939060Y-48476100D01*
X51938551Y-48476100D01*
X51818015Y-48500076D01*
X51704472Y-48547107D01*
X51602287Y-48615385D01*
X51515385Y-48702287D01*
X51447107Y-48804472D01*
X51400076Y-48918015D01*
X51376100Y-49038551D01*
X51376100Y-49161449D01*
X51400076Y-49281985D01*
X51439060Y-49376100D01*
X51438551Y-49376100D01*
X51318015Y-49400076D01*
X51204472Y-49447107D01*
X51102287Y-49515385D01*
X51015385Y-49602287D01*
X50947107Y-49704472D01*
X50900076Y-49818015D01*
X50876100Y-49938551D01*
X50876100Y-49979014D01*
X50861449Y-49976100D01*
X50738551Y-49976100D01*
X50618015Y-50000076D01*
X50504472Y-50047107D01*
X50402287Y-50115385D01*
X50315385Y-50202287D01*
X50247107Y-50304472D01*
X50200076Y-50418015D01*
X50176100Y-50538551D01*
X50176100Y-50639060D01*
X50081985Y-50600076D01*
X49961449Y-50576100D01*
X49838551Y-50576100D01*
X49718015Y-50600076D01*
X49604472Y-50647107D01*
X49502287Y-50715385D01*
X49415385Y-50802287D01*
X49347107Y-50904472D01*
X49300076Y-51018015D01*
X49276100Y-51138551D01*
X36857200Y-51138551D01*
X36857200Y-51002468D01*
X36858927Y-50984932D01*
X36857200Y-50967396D01*
X36857200Y-50967389D01*
X36852031Y-50914910D01*
X36847983Y-50901563D01*
X36831606Y-50847577D01*
X36829053Y-50842800D01*
X36798438Y-50785523D01*
X36779661Y-50762644D01*
X36764983Y-50744759D01*
X36764978Y-50744754D01*
X36753799Y-50731133D01*
X36740179Y-50719955D01*
X35751276Y-49731052D01*
X35784615Y-49697713D01*
X35852893Y-49595528D01*
X35899924Y-49481985D01*
X35923900Y-49361449D01*
X35923900Y-49238551D01*
X35899924Y-49118015D01*
X35852893Y-49004472D01*
X35784615Y-48902287D01*
X35697713Y-48815385D01*
X35595528Y-48747107D01*
X35481985Y-48700076D01*
X35361449Y-48676100D01*
X35238551Y-48676100D01*
X35118015Y-48700076D01*
X35004472Y-48747107D01*
X34902287Y-48815385D01*
X34815385Y-48902287D01*
X34747107Y-49004472D01*
X34700076Y-49118015D01*
X34676100Y-49238551D01*
X25356000Y-49238551D01*
X25356000Y-41627000D01*
X34821843Y-41627000D01*
X36562484Y-43367641D01*
X36150000Y-43367641D01*
X36094914Y-43373066D01*
X36041946Y-43389134D01*
X35993130Y-43415227D01*
X35950342Y-43450342D01*
X35915227Y-43493130D01*
X35889134Y-43541946D01*
X35873066Y-43594914D01*
X35867641Y-43650000D01*
X35867641Y-45350000D01*
X35873066Y-45405086D01*
X35889134Y-45458054D01*
X35915227Y-45506870D01*
X35950342Y-45549658D01*
X35993130Y-45584773D01*
X36041946Y-45610866D01*
X36094914Y-45626934D01*
X36150000Y-45632359D01*
X37850000Y-45632359D01*
X37905086Y-45626934D01*
X37958054Y-45610866D01*
X38006870Y-45584773D01*
X38049658Y-45549658D01*
X38084773Y-45506870D01*
X38110866Y-45458054D01*
X38126934Y-45405086D01*
X38132359Y-45350000D01*
X38132359Y-43650000D01*
X38126934Y-43594914D01*
X38110866Y-43541946D01*
X38084773Y-43493130D01*
X38049658Y-43450342D01*
X38006870Y-43415227D01*
X37958054Y-43389134D01*
X37905086Y-43373066D01*
X37850000Y-43367641D01*
X37357200Y-43367641D01*
X37357200Y-43317535D01*
X37358927Y-43299999D01*
X37357200Y-43282463D01*
X37357200Y-43282456D01*
X37352031Y-43229977D01*
X37331606Y-43162644D01*
X37298438Y-43100590D01*
X37273351Y-43070023D01*
X37264983Y-43059826D01*
X37264978Y-43059821D01*
X37253799Y-43046200D01*
X37240179Y-43035022D01*
X35832157Y-41627000D01*
X39182800Y-41627000D01*
X39182801Y-43426464D01*
X39105091Y-43450037D01*
X38908610Y-43555058D01*
X38736393Y-43696393D01*
X38595058Y-43868610D01*
X38490037Y-44065091D01*
X38425365Y-44278285D01*
X38403528Y-44500000D01*
X38425365Y-44721715D01*
X38490037Y-44934909D01*
X38595058Y-45131390D01*
X38736393Y-45303607D01*
X38908610Y-45444942D01*
X39105091Y-45549963D01*
X39318285Y-45614635D01*
X39484442Y-45631000D01*
X39595558Y-45631000D01*
X39761715Y-45614635D01*
X39974909Y-45549963D01*
X40171390Y-45444942D01*
X40343607Y-45303607D01*
X40484942Y-45131390D01*
X40589963Y-44934909D01*
X40654635Y-44721715D01*
X40676472Y-44500000D01*
X40654635Y-44278285D01*
X40589963Y-44065091D01*
X40484942Y-43868610D01*
X40343607Y-43696393D01*
X40171390Y-43555058D01*
X39974909Y-43450037D01*
X39897200Y-43426464D01*
X39897200Y-41627000D01*
X44447843Y-41627000D01*
X42586526Y-43488317D01*
X42514909Y-43450037D01*
X42301715Y-43385365D01*
X42135558Y-43369000D01*
X42024442Y-43369000D01*
X41858285Y-43385365D01*
X41645091Y-43450037D01*
X41448610Y-43555058D01*
X41276393Y-43696393D01*
X41135058Y-43868610D01*
X41030037Y-44065091D01*
X40965365Y-44278285D01*
X40943528Y-44500000D01*
X40965365Y-44721715D01*
X41030037Y-44934909D01*
X41135058Y-45131390D01*
X41276393Y-45303607D01*
X41448610Y-45444942D01*
X41645091Y-45549963D01*
X41858285Y-45614635D01*
X42024442Y-45631000D01*
X42135558Y-45631000D01*
X42301715Y-45614635D01*
X42514909Y-45549963D01*
X42711390Y-45444942D01*
X42883607Y-45303607D01*
X43024942Y-45131390D01*
X43129963Y-44934909D01*
X43194635Y-44721715D01*
X43216472Y-44500000D01*
X43194635Y-44278285D01*
X43129963Y-44065091D01*
X43091683Y-43993474D01*
X45127957Y-41957200D01*
X45237643Y-41957200D01*
X44379821Y-42815022D01*
X44366200Y-42826201D01*
X44355022Y-42839821D01*
X44355016Y-42839827D01*
X44337418Y-42861271D01*
X44321562Y-42880591D01*
X44295165Y-42929977D01*
X44288394Y-42942645D01*
X44270996Y-43000000D01*
X44267969Y-43009978D01*
X44262800Y-43062457D01*
X44262800Y-43062464D01*
X44261073Y-43080000D01*
X44262800Y-43097536D01*
X44262800Y-43426464D01*
X44185091Y-43450037D01*
X43988610Y-43555058D01*
X43816393Y-43696393D01*
X43675058Y-43868610D01*
X43570037Y-44065091D01*
X43505365Y-44278285D01*
X43483528Y-44500000D01*
X43505365Y-44721715D01*
X43570037Y-44934909D01*
X43675058Y-45131390D01*
X43816393Y-45303607D01*
X43988610Y-45444942D01*
X44185091Y-45549963D01*
X44398285Y-45614635D01*
X44564442Y-45631000D01*
X44675558Y-45631000D01*
X44841715Y-45614635D01*
X45054909Y-45549963D01*
X45251390Y-45444942D01*
X45423607Y-45303607D01*
X45564942Y-45131390D01*
X45669963Y-44934909D01*
X45734635Y-44721715D01*
X45756472Y-44500000D01*
X48563528Y-44500000D01*
X48585365Y-44721715D01*
X48650037Y-44934909D01*
X48755058Y-45131390D01*
X48896393Y-45303607D01*
X49068610Y-45444942D01*
X49265091Y-45549963D01*
X49478285Y-45614635D01*
X49644442Y-45631000D01*
X49755558Y-45631000D01*
X49921715Y-45614635D01*
X50134909Y-45549963D01*
X50331390Y-45444942D01*
X50503607Y-45303607D01*
X50644942Y-45131390D01*
X50749963Y-44934909D01*
X50814635Y-44721715D01*
X50836472Y-44500000D01*
X50814635Y-44278285D01*
X50749963Y-44065091D01*
X50644942Y-43868610D01*
X50503607Y-43696393D01*
X50331390Y-43555058D01*
X50134909Y-43450037D01*
X49921715Y-43385365D01*
X49755558Y-43369000D01*
X49644442Y-43369000D01*
X49478285Y-43385365D01*
X49265091Y-43450037D01*
X49068610Y-43555058D01*
X48896393Y-43696393D01*
X48755058Y-43868610D01*
X48650037Y-44065091D01*
X48585365Y-44278285D01*
X48563528Y-44500000D01*
X45756472Y-44500000D01*
X45734635Y-44278285D01*
X45669963Y-44065091D01*
X45564942Y-43868610D01*
X45423607Y-43696393D01*
X45251390Y-43555058D01*
X45054909Y-43450037D01*
X44977200Y-43426464D01*
X44977200Y-43227957D01*
X45943147Y-42262010D01*
X50737220Y-42262010D01*
X50754756Y-42263737D01*
X50772292Y-42262010D01*
X50772300Y-42262010D01*
X50824779Y-42256841D01*
X50892112Y-42236416D01*
X50954166Y-42203248D01*
X51008556Y-42158610D01*
X51019740Y-42144983D01*
X51537723Y-41627000D01*
X55367843Y-41627000D01*
X54259821Y-42735022D01*
X54246201Y-42746200D01*
X54235023Y-42759820D01*
X54235016Y-42759827D01*
X54217179Y-42781562D01*
X54201563Y-42800590D01*
X54187874Y-42826201D01*
X54168394Y-42862645D01*
X54147969Y-42929977D01*
X54141073Y-43000000D01*
X54142801Y-43017546D01*
X54142800Y-43988315D01*
X54102287Y-44015385D01*
X54015385Y-44102287D01*
X53947107Y-44204472D01*
X53900076Y-44318015D01*
X53876100Y-44438551D01*
X53876100Y-44561449D01*
X53900076Y-44681985D01*
X53947107Y-44795528D01*
X54015385Y-44897713D01*
X54102287Y-44984615D01*
X54204472Y-45052893D01*
X54318015Y-45099924D01*
X54438551Y-45123900D01*
X54561449Y-45123900D01*
X54681985Y-45099924D01*
X54795528Y-45052893D01*
X54897713Y-44984615D01*
X54984615Y-44897713D01*
X55052893Y-44795528D01*
X55099924Y-44681985D01*
X55123900Y-44561449D01*
X55123900Y-44438551D01*
X55099924Y-44318015D01*
X55052893Y-44204472D01*
X54984615Y-44102287D01*
X54897713Y-44015385D01*
X54874688Y-44000000D01*
X58219000Y-44000000D01*
X58219000Y-51000000D01*
X58240390Y-51107534D01*
X58301303Y-51198697D01*
X58392466Y-51259610D01*
X58500000Y-51281000D01*
X64000000Y-51281000D01*
X64107534Y-51259610D01*
X64198697Y-51198697D01*
X65758843Y-49638551D01*
X77476100Y-49638551D01*
X77476100Y-49761449D01*
X77500076Y-49881985D01*
X77547107Y-49995528D01*
X77615385Y-50097713D01*
X77702287Y-50184615D01*
X77804472Y-50252893D01*
X77842801Y-50268769D01*
X77842800Y-52088315D01*
X77802287Y-52115385D01*
X77715385Y-52202287D01*
X77647107Y-52304472D01*
X77600076Y-52418015D01*
X77576100Y-52538551D01*
X77576100Y-52661449D01*
X77600076Y-52781985D01*
X77647107Y-52895528D01*
X77715385Y-52997713D01*
X77802287Y-53084615D01*
X77904472Y-53152893D01*
X78018015Y-53199924D01*
X78138551Y-53223900D01*
X78261449Y-53223900D01*
X78381985Y-53199924D01*
X78495528Y-53152893D01*
X78597713Y-53084615D01*
X78684615Y-52997713D01*
X78752893Y-52895528D01*
X78799924Y-52781985D01*
X78823900Y-52661449D01*
X78823900Y-52538551D01*
X78799924Y-52418015D01*
X78752893Y-52304472D01*
X78684615Y-52202287D01*
X78597713Y-52115385D01*
X78557200Y-52088315D01*
X78557200Y-50125128D01*
X78584615Y-50097713D01*
X78652893Y-49995528D01*
X78699924Y-49881985D01*
X78723900Y-49761449D01*
X78723900Y-49638551D01*
X78699924Y-49518015D01*
X78652893Y-49404472D01*
X78584615Y-49302287D01*
X78497713Y-49215385D01*
X78395528Y-49147107D01*
X78281985Y-49100076D01*
X78161449Y-49076100D01*
X78038551Y-49076100D01*
X77918015Y-49100076D01*
X77804472Y-49147107D01*
X77702287Y-49215385D01*
X77615385Y-49302287D01*
X77547107Y-49404472D01*
X77500076Y-49518015D01*
X77476100Y-49638551D01*
X65758843Y-49638551D01*
X68616394Y-46781000D01*
X93383606Y-46781000D01*
X99301303Y-52698697D01*
X99392466Y-52759610D01*
X99500000Y-52781000D01*
X102000000Y-52781000D01*
X102107534Y-52759610D01*
X102198697Y-52698697D01*
X102259610Y-52607534D01*
X102281000Y-52500000D01*
X102281000Y-43500000D01*
X102259610Y-43392466D01*
X102198697Y-43301303D01*
X99198697Y-40301303D01*
X99107534Y-40240390D01*
X99000000Y-40219000D01*
X98892466Y-40240390D01*
X98801303Y-40301303D01*
X95383606Y-43719000D01*
X58500000Y-43719000D01*
X58392466Y-43740390D01*
X58301303Y-43801303D01*
X58240390Y-43892466D01*
X58219000Y-44000000D01*
X54874688Y-44000000D01*
X54857200Y-43988315D01*
X54857200Y-43147957D01*
X55066606Y-42938551D01*
X79176100Y-42938551D01*
X79176100Y-43061449D01*
X79200076Y-43181985D01*
X79247107Y-43295528D01*
X79315385Y-43397713D01*
X79402287Y-43484615D01*
X79504472Y-43552893D01*
X79618015Y-43599924D01*
X79738551Y-43623900D01*
X79861449Y-43623900D01*
X79981985Y-43599924D01*
X80095528Y-43552893D01*
X80197713Y-43484615D01*
X80284615Y-43397713D01*
X80311685Y-43357200D01*
X80782464Y-43357200D01*
X80800000Y-43358927D01*
X80817536Y-43357200D01*
X80817544Y-43357200D01*
X80870023Y-43352031D01*
X80937356Y-43331606D01*
X80999410Y-43298438D01*
X81053800Y-43253800D01*
X81064982Y-43240175D01*
X83790763Y-40514394D01*
X83838551Y-40523900D01*
X83961449Y-40523900D01*
X84081985Y-40499924D01*
X84195528Y-40452893D01*
X84297713Y-40384615D01*
X84384615Y-40297713D01*
X84452893Y-40195528D01*
X84499924Y-40081985D01*
X84523900Y-39961449D01*
X84523900Y-39838551D01*
X84499924Y-39718015D01*
X84452893Y-39604472D01*
X84384615Y-39502287D01*
X84297713Y-39415385D01*
X84195528Y-39347107D01*
X84081985Y-39300076D01*
X83961449Y-39276100D01*
X83838551Y-39276100D01*
X83718015Y-39300076D01*
X83604472Y-39347107D01*
X83502287Y-39415385D01*
X83415385Y-39502287D01*
X83347107Y-39604472D01*
X83300076Y-39718015D01*
X83276100Y-39838551D01*
X83276100Y-39961449D01*
X83285606Y-40009237D01*
X80652043Y-42642800D01*
X80311685Y-42642800D01*
X80284615Y-42602287D01*
X80197713Y-42515385D01*
X80095528Y-42447107D01*
X79981985Y-42400076D01*
X79861449Y-42376100D01*
X79738551Y-42376100D01*
X79618015Y-42400076D01*
X79504472Y-42447107D01*
X79402287Y-42515385D01*
X79315385Y-42602287D01*
X79247107Y-42704472D01*
X79200076Y-42818015D01*
X79176100Y-42938551D01*
X55066606Y-42938551D01*
X56247957Y-41757200D01*
X72482464Y-41757200D01*
X72500000Y-41758927D01*
X72517536Y-41757200D01*
X72517544Y-41757200D01*
X72570023Y-41752031D01*
X72637356Y-41731606D01*
X72699410Y-41698438D01*
X72753800Y-41653800D01*
X72764984Y-41640173D01*
X74697280Y-39707877D01*
X74710900Y-39696699D01*
X74722079Y-39683078D01*
X74722085Y-39683072D01*
X74739738Y-39661562D01*
X74755539Y-39642309D01*
X74788707Y-39580255D01*
X74809132Y-39512922D01*
X74814301Y-39460443D01*
X74814301Y-39460435D01*
X74816028Y-39442899D01*
X74814301Y-39425363D01*
X74814301Y-38423900D01*
X74861449Y-38423900D01*
X74981985Y-38399924D01*
X75095528Y-38352893D01*
X75197713Y-38284615D01*
X75284615Y-38197713D01*
X75352893Y-38095528D01*
X75399924Y-37981985D01*
X75423900Y-37861449D01*
X75423900Y-37738551D01*
X75399924Y-37618015D01*
X75352893Y-37504472D01*
X75284615Y-37402287D01*
X75197713Y-37315385D01*
X75095528Y-37247107D01*
X74981985Y-37200076D01*
X74861449Y-37176100D01*
X74738551Y-37176100D01*
X74618015Y-37200076D01*
X74504472Y-37247107D01*
X74402287Y-37315385D01*
X74315385Y-37402287D01*
X74247107Y-37504472D01*
X74200076Y-37618015D01*
X74176100Y-37738551D01*
X74176100Y-37861449D01*
X74185833Y-37910383D01*
X74171676Y-37927634D01*
X74158664Y-37943489D01*
X74140935Y-37976658D01*
X74125495Y-38005544D01*
X74105070Y-38072876D01*
X74098174Y-38142899D01*
X74099902Y-38160445D01*
X74099901Y-39294942D01*
X72627000Y-40767843D01*
X72627000Y-30356000D01*
X90452541Y-30356000D01*
X98335919Y-38239380D01*
X98335919Y-38239380D01*
G37*
X98335919Y-38239380D02*
X98347053Y-38252947D01*
X98360620Y-38264081D01*
X98360631Y-38264092D01*
X98401260Y-38297434D01*
X98463105Y-38330491D01*
X98530211Y-38350848D01*
X98599999Y-38357722D01*
X98600000Y-38357722D01*
X98669787Y-38350848D01*
X98736894Y-38330491D01*
X98798739Y-38297434D01*
X98839367Y-38264092D01*
X98839369Y-38264090D01*
X98852947Y-38252947D01*
X98864090Y-38239369D01*
X99961927Y-37141533D01*
X107858467Y-45038073D01*
X106760633Y-46135908D01*
X106747053Y-46147053D01*
X106702566Y-46201261D01*
X106669509Y-46263106D01*
X106649152Y-46330213D01*
X106642278Y-46400000D01*
X106649152Y-46469787D01*
X106669509Y-46536894D01*
X106702566Y-46598739D01*
X106717826Y-46617333D01*
X106747053Y-46652947D01*
X106760631Y-46664090D01*
X114644000Y-54547461D01*
X114644001Y-79644000D01*
X25356000Y-79644000D01*
X25356000Y-77540000D01*
X25603528Y-77540000D01*
X25625365Y-77761715D01*
X25690037Y-77974909D01*
X25795058Y-78171390D01*
X25936393Y-78343607D01*
X26108610Y-78484942D01*
X26305091Y-78589963D01*
X26518285Y-78654635D01*
X26684442Y-78671000D01*
X26795558Y-78671000D01*
X26961715Y-78654635D01*
X27174909Y-78589963D01*
X27371390Y-78484942D01*
X27543607Y-78343607D01*
X27684942Y-78171390D01*
X27789963Y-77974909D01*
X27854635Y-77761715D01*
X27876472Y-77540000D01*
X28143528Y-77540000D01*
X28165365Y-77761715D01*
X28230037Y-77974909D01*
X28335058Y-78171390D01*
X28476393Y-78343607D01*
X28648610Y-78484942D01*
X28845091Y-78589963D01*
X29058285Y-78654635D01*
X29224442Y-78671000D01*
X29335558Y-78671000D01*
X29501715Y-78654635D01*
X29714909Y-78589963D01*
X29911390Y-78484942D01*
X30083607Y-78343607D01*
X30224942Y-78171390D01*
X30329963Y-77974909D01*
X30394635Y-77761715D01*
X30416472Y-77540000D01*
X30683528Y-77540000D01*
X30705365Y-77761715D01*
X30770037Y-77974909D01*
X30875058Y-78171390D01*
X31016393Y-78343607D01*
X31188610Y-78484942D01*
X31385091Y-78589963D01*
X31598285Y-78654635D01*
X31764442Y-78671000D01*
X31875558Y-78671000D01*
X32041715Y-78654635D01*
X32254909Y-78589963D01*
X32451390Y-78484942D01*
X32623607Y-78343607D01*
X32764942Y-78171390D01*
X32869963Y-77974909D01*
X32934635Y-77761715D01*
X32956472Y-77540000D01*
X35763528Y-77540000D01*
X35785365Y-77761715D01*
X35850037Y-77974909D01*
X35955058Y-78171390D01*
X36096393Y-78343607D01*
X36268610Y-78484942D01*
X36465091Y-78589963D01*
X36678285Y-78654635D01*
X36844442Y-78671000D01*
X36955558Y-78671000D01*
X37121715Y-78654635D01*
X37334909Y-78589963D01*
X37531390Y-78484942D01*
X37703607Y-78343607D01*
X37844942Y-78171390D01*
X37949963Y-77974909D01*
X38014635Y-77761715D01*
X38036472Y-77540000D01*
X40843528Y-77540000D01*
X40865365Y-77761715D01*
X40930037Y-77974909D01*
X41035058Y-78171390D01*
X41176393Y-78343607D01*
X41348610Y-78484942D01*
X41545091Y-78589963D01*
X41758285Y-78654635D01*
X41924442Y-78671000D01*
X42035558Y-78671000D01*
X42201715Y-78654635D01*
X42414909Y-78589963D01*
X42611390Y-78484942D01*
X42783607Y-78343607D01*
X42924942Y-78171390D01*
X43029963Y-77974909D01*
X43094635Y-77761715D01*
X43116472Y-77540000D01*
X43383528Y-77540000D01*
X43405365Y-77761715D01*
X43470037Y-77974909D01*
X43575058Y-78171390D01*
X43716393Y-78343607D01*
X43888610Y-78484942D01*
X44085091Y-78589963D01*
X44298285Y-78654635D01*
X44464442Y-78671000D01*
X44575558Y-78671000D01*
X44741715Y-78654635D01*
X44954909Y-78589963D01*
X45151390Y-78484942D01*
X45323607Y-78343607D01*
X45464942Y-78171390D01*
X45569963Y-77974909D01*
X45634635Y-77761715D01*
X45656472Y-77540000D01*
X45634635Y-77318285D01*
X45569963Y-77105091D01*
X45531683Y-77033474D01*
X46040179Y-76524978D01*
X46053799Y-76513800D01*
X46064978Y-76500179D01*
X46064983Y-76500174D01*
X46094036Y-76464773D01*
X46098438Y-76459410D01*
X46131606Y-76397356D01*
X46152031Y-76330023D01*
X46157200Y-76277544D01*
X46157200Y-76277537D01*
X46158927Y-76260001D01*
X46157200Y-76242465D01*
X46157200Y-75682740D01*
X46256393Y-75803607D01*
X46428610Y-75944942D01*
X46625091Y-76049963D01*
X46838285Y-76114635D01*
X47004442Y-76131000D01*
X47115558Y-76131000D01*
X47281715Y-76114635D01*
X47494909Y-76049963D01*
X47691390Y-75944942D01*
X47863607Y-75803607D01*
X47942801Y-75707109D01*
X47942801Y-76152042D01*
X47566526Y-76528317D01*
X47494909Y-76490037D01*
X47281715Y-76425365D01*
X47115558Y-76409000D01*
X47004442Y-76409000D01*
X46838285Y-76425365D01*
X46625091Y-76490037D01*
X46428610Y-76595058D01*
X46256393Y-76736393D01*
X46115058Y-76908610D01*
X46010037Y-77105091D01*
X45945365Y-77318285D01*
X45923528Y-77540000D01*
X45945365Y-77761715D01*
X46010037Y-77974909D01*
X46115058Y-78171390D01*
X46256393Y-78343607D01*
X46428610Y-78484942D01*
X46625091Y-78589963D01*
X46838285Y-78654635D01*
X47004442Y-78671000D01*
X47115558Y-78671000D01*
X47281715Y-78654635D01*
X47494909Y-78589963D01*
X47691390Y-78484942D01*
X47863607Y-78343607D01*
X48004942Y-78171390D01*
X48109963Y-77974909D01*
X48174635Y-77761715D01*
X48196472Y-77540000D01*
X48174635Y-77318285D01*
X48109963Y-77105091D01*
X48071683Y-77033474D01*
X48540175Y-76564982D01*
X48553800Y-76553800D01*
X48598438Y-76499410D01*
X48631606Y-76437356D01*
X48640208Y-76409000D01*
X48652031Y-76370024D01*
X48654990Y-76339977D01*
X48657200Y-76317544D01*
X48657200Y-76317536D01*
X48658927Y-76300000D01*
X48657200Y-76282464D01*
X48657200Y-75634000D01*
X48796393Y-75803607D01*
X48968610Y-75944942D01*
X49165091Y-76049963D01*
X49378285Y-76114635D01*
X49544442Y-76131000D01*
X49655558Y-76131000D01*
X49821715Y-76114635D01*
X50034909Y-76049963D01*
X50231390Y-75944942D01*
X50403607Y-75803607D01*
X50542801Y-75633999D01*
X50542801Y-76092042D01*
X50106526Y-76528317D01*
X50034909Y-76490037D01*
X49821715Y-76425365D01*
X49655558Y-76409000D01*
X49544442Y-76409000D01*
X49378285Y-76425365D01*
X49165091Y-76490037D01*
X48968610Y-76595058D01*
X48796393Y-76736393D01*
X48655058Y-76908610D01*
X48550037Y-77105091D01*
X48485365Y-77318285D01*
X48463528Y-77540000D01*
X48485365Y-77761715D01*
X48550037Y-77974909D01*
X48655058Y-78171390D01*
X48796393Y-78343607D01*
X48968610Y-78484942D01*
X49165091Y-78589963D01*
X49378285Y-78654635D01*
X49544442Y-78671000D01*
X49655558Y-78671000D01*
X49821715Y-78654635D01*
X50034909Y-78589963D01*
X50231390Y-78484942D01*
X50403607Y-78343607D01*
X50544942Y-78171390D01*
X50649963Y-77974909D01*
X50714635Y-77761715D01*
X50736472Y-77540000D01*
X50714635Y-77318285D01*
X50649963Y-77105091D01*
X50611683Y-77033474D01*
X51140175Y-76504982D01*
X51153800Y-76493800D01*
X51198438Y-76439410D01*
X51231606Y-76377356D01*
X51243528Y-76338054D01*
X51252031Y-76310024D01*
X51255230Y-76277543D01*
X51257200Y-76257544D01*
X51257200Y-76257536D01*
X51258927Y-76240000D01*
X51257200Y-76222464D01*
X51257200Y-75707110D01*
X51336393Y-75803607D01*
X51508610Y-75944942D01*
X51705091Y-76049963D01*
X51918285Y-76114635D01*
X52084442Y-76131000D01*
X52195558Y-76131000D01*
X52361715Y-76114635D01*
X52574909Y-76049963D01*
X52771390Y-75944942D01*
X52943607Y-75803607D01*
X53084942Y-75631390D01*
X53189963Y-75434909D01*
X53254635Y-75221715D01*
X53276472Y-75000000D01*
X53254635Y-74778285D01*
X53189963Y-74565091D01*
X53084942Y-74368610D01*
X52943607Y-74196393D01*
X52771390Y-74055058D01*
X52574909Y-73950037D01*
X52361715Y-73885365D01*
X52195558Y-73869000D01*
X52084442Y-73869000D01*
X51918285Y-73885365D01*
X51776904Y-73928253D01*
X54547957Y-71157200D01*
X57737643Y-71157200D01*
X55835016Y-73059827D01*
X55835012Y-73059832D01*
X55679821Y-73215022D01*
X55666201Y-73226200D01*
X55655023Y-73239820D01*
X55655016Y-73239827D01*
X55638603Y-73259827D01*
X55621563Y-73280590D01*
X55610353Y-73301563D01*
X55588394Y-73342645D01*
X55567969Y-73409977D01*
X55561073Y-73480000D01*
X55562801Y-73497546D01*
X55562801Y-74292891D01*
X55483607Y-74196393D01*
X55311390Y-74055058D01*
X55114909Y-73950037D01*
X54901715Y-73885365D01*
X54735558Y-73869000D01*
X54624442Y-73869000D01*
X54458285Y-73885365D01*
X54245091Y-73950037D01*
X54048610Y-74055058D01*
X53876393Y-74196393D01*
X53735058Y-74368610D01*
X53630037Y-74565091D01*
X53565365Y-74778285D01*
X53543528Y-75000000D01*
X53565365Y-75221715D01*
X53630037Y-75434909D01*
X53735058Y-75631390D01*
X53876393Y-75803607D01*
X54048610Y-75944942D01*
X54245091Y-76049963D01*
X54458285Y-76114635D01*
X54624442Y-76131000D01*
X54735558Y-76131000D01*
X54901715Y-76114635D01*
X55114909Y-76049963D01*
X55311390Y-75944942D01*
X55483607Y-75803607D01*
X55562800Y-75707110D01*
X55562800Y-76152043D01*
X55186526Y-76528317D01*
X55114909Y-76490037D01*
X54901715Y-76425365D01*
X54735558Y-76409000D01*
X54624442Y-76409000D01*
X54458285Y-76425365D01*
X54245091Y-76490037D01*
X54048610Y-76595058D01*
X53876393Y-76736393D01*
X53735058Y-76908610D01*
X53630037Y-77105091D01*
X53565365Y-77318285D01*
X53543528Y-77540000D01*
X53565365Y-77761715D01*
X53630037Y-77974909D01*
X53735058Y-78171390D01*
X53876393Y-78343607D01*
X54048610Y-78484942D01*
X54245091Y-78589963D01*
X54458285Y-78654635D01*
X54624442Y-78671000D01*
X54735558Y-78671000D01*
X54901715Y-78654635D01*
X55114909Y-78589963D01*
X55311390Y-78484942D01*
X55483607Y-78343607D01*
X55624942Y-78171390D01*
X55729963Y-77974909D01*
X55794635Y-77761715D01*
X55816472Y-77540000D01*
X56083528Y-77540000D01*
X56105365Y-77761715D01*
X56170037Y-77974909D01*
X56275058Y-78171390D01*
X56416393Y-78343607D01*
X56588610Y-78484942D01*
X56785091Y-78589963D01*
X56998285Y-78654635D01*
X57164442Y-78671000D01*
X57275558Y-78671000D01*
X57441715Y-78654635D01*
X57654909Y-78589963D01*
X57851390Y-78484942D01*
X58023607Y-78343607D01*
X58164942Y-78171390D01*
X58269963Y-77974909D01*
X58334635Y-77761715D01*
X58356472Y-77540000D01*
X58334635Y-77318285D01*
X58269963Y-77105091D01*
X58164942Y-76908610D01*
X58023607Y-76736393D01*
X57851390Y-76595058D01*
X57654909Y-76490037D01*
X57441715Y-76425365D01*
X57275558Y-76409000D01*
X57164442Y-76409000D01*
X56998285Y-76425365D01*
X56785091Y-76490037D01*
X56588610Y-76595058D01*
X56416393Y-76736393D01*
X56275058Y-76908610D01*
X56170037Y-77105091D01*
X56105365Y-77318285D01*
X56083528Y-77540000D01*
X55816472Y-77540000D01*
X55794635Y-77318285D01*
X55729963Y-77105091D01*
X55691683Y-77033474D01*
X56160179Y-76564978D01*
X56173799Y-76553800D01*
X56184978Y-76540179D01*
X56184984Y-76540173D01*
X56206628Y-76513800D01*
X56218438Y-76499410D01*
X56251606Y-76437356D01*
X56260208Y-76409000D01*
X56272031Y-76370024D01*
X56274990Y-76339977D01*
X56277200Y-76317544D01*
X56277200Y-76317536D01*
X56278927Y-76300000D01*
X56277200Y-76282464D01*
X56277200Y-75634000D01*
X56416393Y-75803607D01*
X56588610Y-75944942D01*
X56785091Y-76049963D01*
X56998285Y-76114635D01*
X57164442Y-76131000D01*
X57275558Y-76131000D01*
X57441715Y-76114635D01*
X57654909Y-76049963D01*
X57851390Y-75944942D01*
X58023607Y-75803607D01*
X58164942Y-75631390D01*
X58269963Y-75434909D01*
X58334635Y-75221715D01*
X58356472Y-75000000D01*
X58334635Y-74778285D01*
X58269963Y-74565091D01*
X58231683Y-74493474D01*
X60567957Y-72157200D01*
X64988315Y-72157200D01*
X65015385Y-72197713D01*
X65102287Y-72284615D01*
X65204472Y-72352893D01*
X65318015Y-72399924D01*
X65438551Y-72423900D01*
X65561449Y-72423900D01*
X65681985Y-72399924D01*
X65795528Y-72352893D01*
X65897713Y-72284615D01*
X65984615Y-72197713D01*
X65988444Y-72191983D01*
X66052576Y-72256115D01*
X66093089Y-72283185D01*
X66093090Y-73101753D01*
X66052043Y-73142800D01*
X61717535Y-73142800D01*
X61699999Y-73141073D01*
X61682463Y-73142800D01*
X61682456Y-73142800D01*
X61636716Y-73147305D01*
X61629976Y-73147969D01*
X61614305Y-73152723D01*
X61562644Y-73168394D01*
X61500590Y-73201562D01*
X61446200Y-73246200D01*
X61435018Y-73259825D01*
X60759821Y-73935022D01*
X60746200Y-73946201D01*
X60735022Y-73959821D01*
X60735016Y-73959827D01*
X60727152Y-73969410D01*
X60701562Y-74000591D01*
X60674234Y-74051719D01*
X60668394Y-74062645D01*
X60648288Y-74128928D01*
X60647969Y-74129978D01*
X60642800Y-74182457D01*
X60642800Y-74182464D01*
X60641073Y-74200000D01*
X60642800Y-74217536D01*
X60642800Y-74292890D01*
X60563607Y-74196393D01*
X60391390Y-74055058D01*
X60194909Y-73950037D01*
X59981715Y-73885365D01*
X59815558Y-73869000D01*
X59704442Y-73869000D01*
X59538285Y-73885365D01*
X59325091Y-73950037D01*
X59128610Y-74055058D01*
X58956393Y-74196393D01*
X58815058Y-74368610D01*
X58710037Y-74565091D01*
X58645365Y-74778285D01*
X58623528Y-75000000D01*
X58645365Y-75221715D01*
X58710037Y-75434909D01*
X58815058Y-75631390D01*
X58956393Y-75803607D01*
X59128610Y-75944942D01*
X59325091Y-76049963D01*
X59538285Y-76114635D01*
X59704442Y-76131000D01*
X59815558Y-76131000D01*
X59981715Y-76114635D01*
X60194909Y-76049963D01*
X60391390Y-75944942D01*
X60563607Y-75803607D01*
X60654788Y-75692503D01*
X60668394Y-75737355D01*
X60668395Y-75737356D01*
X60701563Y-75799410D01*
X60710317Y-75810076D01*
X60735016Y-75840173D01*
X60735023Y-75840180D01*
X60746201Y-75853800D01*
X60759821Y-75864978D01*
X61435016Y-76540173D01*
X61446200Y-76553800D01*
X61500590Y-76598438D01*
X61562644Y-76631606D01*
X61607497Y-76645212D01*
X61496393Y-76736393D01*
X61355058Y-76908610D01*
X61250037Y-77105091D01*
X61185365Y-77318285D01*
X61163528Y-77540000D01*
X61185365Y-77761715D01*
X61250037Y-77974909D01*
X61355058Y-78171390D01*
X61496393Y-78343607D01*
X61668610Y-78484942D01*
X61865091Y-78589963D01*
X62078285Y-78654635D01*
X62244442Y-78671000D01*
X62355558Y-78671000D01*
X62521715Y-78654635D01*
X62734909Y-78589963D01*
X62931390Y-78484942D01*
X63103607Y-78343607D01*
X63244942Y-78171390D01*
X63349963Y-77974909D01*
X63414635Y-77761715D01*
X63436472Y-77540000D01*
X63414635Y-77318285D01*
X63349963Y-77105091D01*
X63244942Y-76908610D01*
X63103607Y-76736393D01*
X63007110Y-76657200D01*
X63452043Y-76657200D01*
X63828317Y-77033474D01*
X63790037Y-77105091D01*
X63725365Y-77318285D01*
X63703528Y-77540000D01*
X63725365Y-77761715D01*
X63790037Y-77974909D01*
X63895058Y-78171390D01*
X64036393Y-78343607D01*
X64208610Y-78484942D01*
X64405091Y-78589963D01*
X64618285Y-78654635D01*
X64784442Y-78671000D01*
X64895558Y-78671000D01*
X65061715Y-78654635D01*
X65274909Y-78589963D01*
X65471390Y-78484942D01*
X65643607Y-78343607D01*
X65784942Y-78171390D01*
X65889963Y-77974909D01*
X65954635Y-77761715D01*
X65976472Y-77540000D01*
X65954635Y-77318285D01*
X65889963Y-77105091D01*
X65784942Y-76908610D01*
X65643607Y-76736393D01*
X65471390Y-76595058D01*
X65274909Y-76490037D01*
X65061715Y-76425365D01*
X64895558Y-76409000D01*
X64784442Y-76409000D01*
X64618285Y-76425365D01*
X64405091Y-76490037D01*
X64333474Y-76528317D01*
X63864982Y-76059825D01*
X63853800Y-76046200D01*
X63799410Y-76001562D01*
X63737356Y-75968394D01*
X63670023Y-75947969D01*
X63617544Y-75942800D01*
X63617536Y-75942800D01*
X63600000Y-75941073D01*
X63582464Y-75942800D01*
X62934000Y-75942800D01*
X63103607Y-75803607D01*
X63244942Y-75631390D01*
X63349963Y-75434909D01*
X63414635Y-75221715D01*
X63436472Y-75000000D01*
X63414635Y-74778285D01*
X63349963Y-74565091D01*
X63244942Y-74368610D01*
X63103607Y-74196393D01*
X63061711Y-74162010D01*
X66618289Y-74162010D01*
X66576393Y-74196393D01*
X66435058Y-74368610D01*
X66330037Y-74565091D01*
X66265365Y-74778285D01*
X66243528Y-75000000D01*
X66265365Y-75221715D01*
X66330037Y-75434909D01*
X66435058Y-75631390D01*
X66576393Y-75803607D01*
X66748610Y-75944942D01*
X66945091Y-76049963D01*
X67158285Y-76114635D01*
X67324442Y-76131000D01*
X67435558Y-76131000D01*
X67601715Y-76114635D01*
X67814909Y-76049963D01*
X68011390Y-75944942D01*
X68183607Y-75803607D01*
X68324942Y-75631390D01*
X68429963Y-75434909D01*
X68494635Y-75221715D01*
X68516472Y-75000000D01*
X68494635Y-74778285D01*
X68429963Y-74565091D01*
X68391683Y-74493474D01*
X68470178Y-74414979D01*
X68483798Y-74403801D01*
X68494977Y-74390180D01*
X68494982Y-74390175D01*
X68512680Y-74368610D01*
X68528437Y-74349411D01*
X68561605Y-74287357D01*
X68572007Y-74253066D01*
X68582030Y-74220025D01*
X68584002Y-74200000D01*
X68587199Y-74167545D01*
X68587199Y-74167538D01*
X68588926Y-74150002D01*
X68587199Y-74132466D01*
X68587199Y-73917958D01*
X70140179Y-72364978D01*
X70142800Y-72362827D01*
X70142800Y-73069962D01*
X69679821Y-73532941D01*
X69666201Y-73544119D01*
X69655023Y-73557739D01*
X69655016Y-73557746D01*
X69634575Y-73582654D01*
X69621563Y-73598509D01*
X69611573Y-73617200D01*
X69588394Y-73660564D01*
X69567969Y-73727896D01*
X69561073Y-73797919D01*
X69562801Y-73815465D01*
X69562801Y-73926464D01*
X69485091Y-73950037D01*
X69288610Y-74055058D01*
X69116393Y-74196393D01*
X68975058Y-74368610D01*
X68870037Y-74565091D01*
X68805365Y-74778285D01*
X68783528Y-75000000D01*
X68805365Y-75221715D01*
X68870037Y-75434909D01*
X68975058Y-75631390D01*
X69116393Y-75803607D01*
X69286000Y-75942800D01*
X68637536Y-75942800D01*
X68620000Y-75941073D01*
X68602464Y-75942800D01*
X68602456Y-75942800D01*
X68556124Y-75947364D01*
X68549976Y-75947969D01*
X68482644Y-75968394D01*
X68420590Y-76001562D01*
X68366200Y-76046200D01*
X68355018Y-76059825D01*
X67886526Y-76528317D01*
X67814909Y-76490037D01*
X67601715Y-76425365D01*
X67435558Y-76409000D01*
X67324442Y-76409000D01*
X67158285Y-76425365D01*
X66945091Y-76490037D01*
X66748610Y-76595058D01*
X66576393Y-76736393D01*
X66435058Y-76908610D01*
X66330037Y-77105091D01*
X66265365Y-77318285D01*
X66243528Y-77540000D01*
X66265365Y-77761715D01*
X66330037Y-77974909D01*
X66435058Y-78171390D01*
X66576393Y-78343607D01*
X66748610Y-78484942D01*
X66945091Y-78589963D01*
X67158285Y-78654635D01*
X67324442Y-78671000D01*
X67435558Y-78671000D01*
X67601715Y-78654635D01*
X67814909Y-78589963D01*
X68011390Y-78484942D01*
X68183607Y-78343607D01*
X68324942Y-78171390D01*
X68429963Y-77974909D01*
X68494635Y-77761715D01*
X68516472Y-77540000D01*
X71323528Y-77540000D01*
X71345365Y-77761715D01*
X71410037Y-77974909D01*
X71515058Y-78171390D01*
X71656393Y-78343607D01*
X71828610Y-78484942D01*
X72025091Y-78589963D01*
X72238285Y-78654635D01*
X72404442Y-78671000D01*
X72515558Y-78671000D01*
X72681715Y-78654635D01*
X72894909Y-78589963D01*
X73091390Y-78484942D01*
X73263607Y-78343607D01*
X73404942Y-78171390D01*
X73509963Y-77974909D01*
X73574635Y-77761715D01*
X73596472Y-77540000D01*
X73863528Y-77540000D01*
X73885365Y-77761715D01*
X73950037Y-77974909D01*
X74055058Y-78171390D01*
X74196393Y-78343607D01*
X74368610Y-78484942D01*
X74565091Y-78589963D01*
X74778285Y-78654635D01*
X74944442Y-78671000D01*
X75055558Y-78671000D01*
X75221715Y-78654635D01*
X75434909Y-78589963D01*
X75631390Y-78484942D01*
X75803607Y-78343607D01*
X75944942Y-78171390D01*
X76049963Y-77974909D01*
X76114635Y-77761715D01*
X76136472Y-77540000D01*
X76114635Y-77318285D01*
X76049963Y-77105091D01*
X75944942Y-76908610D01*
X75803607Y-76736393D01*
X75631390Y-76595058D01*
X75434909Y-76490037D01*
X75221715Y-76425365D01*
X75055558Y-76409000D01*
X74944442Y-76409000D01*
X74778285Y-76425365D01*
X74565091Y-76490037D01*
X74368610Y-76595058D01*
X74196393Y-76736393D01*
X74055058Y-76908610D01*
X73950037Y-77105091D01*
X73885365Y-77318285D01*
X73863528Y-77540000D01*
X73596472Y-77540000D01*
X73574635Y-77318285D01*
X73509963Y-77105091D01*
X73404942Y-76908610D01*
X73263607Y-76736393D01*
X73091390Y-76595058D01*
X72894909Y-76490037D01*
X72681715Y-76425365D01*
X72515558Y-76409000D01*
X72404442Y-76409000D01*
X72238285Y-76425365D01*
X72025091Y-76490037D01*
X71828610Y-76595058D01*
X71656393Y-76736393D01*
X71515058Y-76908610D01*
X71410037Y-77105091D01*
X71345365Y-77318285D01*
X71323528Y-77540000D01*
X68516472Y-77540000D01*
X68494635Y-77318285D01*
X68429963Y-77105091D01*
X68391683Y-77033474D01*
X68767957Y-76657200D01*
X70198794Y-76657200D01*
X70216330Y-76658927D01*
X70233866Y-76657200D01*
X70233874Y-76657200D01*
X70286353Y-76652031D01*
X70353686Y-76631606D01*
X70415740Y-76598438D01*
X70470130Y-76553800D01*
X70481314Y-76540173D01*
X70672936Y-76348551D01*
X77106100Y-76348551D01*
X77106100Y-76471449D01*
X77130076Y-76591985D01*
X77177107Y-76705528D01*
X77245385Y-76807713D01*
X77332287Y-76894615D01*
X77434472Y-76962893D01*
X77548015Y-77009924D01*
X77668551Y-77033900D01*
X77791449Y-77033900D01*
X77840383Y-77024167D01*
X77873489Y-77051337D01*
X77935543Y-77084505D01*
X77987204Y-77100176D01*
X78002875Y-77104930D01*
X78009615Y-77105594D01*
X78055355Y-77110099D01*
X78055362Y-77110099D01*
X78072898Y-77111826D01*
X78090434Y-77110099D01*
X79092043Y-77110099D01*
X79965018Y-77983074D01*
X79976200Y-77996699D01*
X80030590Y-78041337D01*
X80092644Y-78074505D01*
X80144305Y-78090176D01*
X80159976Y-78094930D01*
X80166716Y-78095594D01*
X80212456Y-78100099D01*
X80212463Y-78100099D01*
X80229999Y-78101826D01*
X80247535Y-78100099D01*
X93254498Y-78100099D01*
X93272034Y-78101826D01*
X93289570Y-78100099D01*
X93289578Y-78100099D01*
X93342057Y-78094930D01*
X93409390Y-78074505D01*
X93471444Y-78041337D01*
X93525834Y-77996699D01*
X93537016Y-77983074D01*
X94380175Y-77139915D01*
X94393800Y-77128733D01*
X94438438Y-77074343D01*
X94471606Y-77012289D01*
X94492031Y-76944956D01*
X94496229Y-76902334D01*
X94537713Y-76874615D01*
X94624615Y-76787713D01*
X94692893Y-76685528D01*
X94739924Y-76571985D01*
X94757586Y-76483190D01*
X94771946Y-76490866D01*
X94824914Y-76506934D01*
X94880000Y-76512359D01*
X96580000Y-76512359D01*
X96635086Y-76506934D01*
X96688054Y-76490866D01*
X96736870Y-76464773D01*
X96779658Y-76429658D01*
X96814773Y-76386870D01*
X96840866Y-76338054D01*
X96856934Y-76285086D01*
X96862359Y-76230000D01*
X96862359Y-75380000D01*
X97133528Y-75380000D01*
X97155365Y-75601715D01*
X97220037Y-75814909D01*
X97325058Y-76011390D01*
X97466393Y-76183607D01*
X97638610Y-76324942D01*
X97835091Y-76429963D01*
X98048285Y-76494635D01*
X98214442Y-76511000D01*
X98325558Y-76511000D01*
X98491715Y-76494635D01*
X98704909Y-76429963D01*
X98901390Y-76324942D01*
X99073607Y-76183607D01*
X99214942Y-76011390D01*
X99319963Y-75814909D01*
X99384635Y-75601715D01*
X99406472Y-75380000D01*
X99673528Y-75380000D01*
X99695365Y-75601715D01*
X99760037Y-75814909D01*
X99865058Y-76011390D01*
X100006393Y-76183607D01*
X100178610Y-76324942D01*
X100375091Y-76429963D01*
X100588285Y-76494635D01*
X100754442Y-76511000D01*
X100865558Y-76511000D01*
X101031715Y-76494635D01*
X101244909Y-76429963D01*
X101441390Y-76324942D01*
X101613607Y-76183607D01*
X101754942Y-76011390D01*
X101859963Y-75814909D01*
X101924635Y-75601715D01*
X101946472Y-75380000D01*
X102213528Y-75380000D01*
X102235365Y-75601715D01*
X102300037Y-75814909D01*
X102405058Y-76011390D01*
X102546393Y-76183607D01*
X102718610Y-76324942D01*
X102915091Y-76429963D01*
X103128285Y-76494635D01*
X103294442Y-76511000D01*
X103405558Y-76511000D01*
X103571715Y-76494635D01*
X103784909Y-76429963D01*
X103981390Y-76324942D01*
X104153607Y-76183607D01*
X104294942Y-76011390D01*
X104399963Y-75814909D01*
X104464635Y-75601715D01*
X104486472Y-75380000D01*
X104464635Y-75158285D01*
X104399963Y-74945091D01*
X104294942Y-74748610D01*
X104153607Y-74576393D01*
X103981390Y-74435058D01*
X103784909Y-74330037D01*
X103571715Y-74265365D01*
X103405558Y-74249000D01*
X103294442Y-74249000D01*
X103128285Y-74265365D01*
X102915091Y-74330037D01*
X102718610Y-74435058D01*
X102546393Y-74576393D01*
X102405058Y-74748610D01*
X102300037Y-74945091D01*
X102235365Y-75158285D01*
X102213528Y-75380000D01*
X101946472Y-75380000D01*
X101924635Y-75158285D01*
X101859963Y-74945091D01*
X101754942Y-74748610D01*
X101613607Y-74576393D01*
X101441390Y-74435058D01*
X101244909Y-74330037D01*
X101031715Y-74265365D01*
X100865558Y-74249000D01*
X100754442Y-74249000D01*
X100588285Y-74265365D01*
X100375091Y-74330037D01*
X100178610Y-74435058D01*
X100006393Y-74576393D01*
X99865058Y-74748610D01*
X99760037Y-74945091D01*
X99695365Y-75158285D01*
X99673528Y-75380000D01*
X99406472Y-75380000D01*
X99384635Y-75158285D01*
X99319963Y-74945091D01*
X99214942Y-74748610D01*
X99073607Y-74576393D01*
X98901390Y-74435058D01*
X98704909Y-74330037D01*
X98491715Y-74265365D01*
X98325558Y-74249000D01*
X98214442Y-74249000D01*
X98048285Y-74265365D01*
X97835091Y-74330037D01*
X97638610Y-74435058D01*
X97466393Y-74576393D01*
X97325058Y-74748610D01*
X97220037Y-74945091D01*
X97155365Y-75158285D01*
X97133528Y-75380000D01*
X96862359Y-75380000D01*
X96862359Y-74530000D01*
X96856934Y-74474914D01*
X96840866Y-74421946D01*
X96814773Y-74373130D01*
X96779658Y-74330342D01*
X96736870Y-74295227D01*
X96688054Y-74269134D01*
X96635086Y-74253066D01*
X96580000Y-74247641D01*
X94880000Y-74247641D01*
X94824914Y-74253066D01*
X94771946Y-74269134D01*
X94723130Y-74295227D01*
X94680342Y-74330342D01*
X94645227Y-74373130D01*
X94619134Y-74421946D01*
X94603066Y-74474914D01*
X94597641Y-74530000D01*
X94597641Y-75965313D01*
X94537713Y-75905385D01*
X94435528Y-75837107D01*
X94321985Y-75790076D01*
X94201449Y-75766100D01*
X94078551Y-75766100D01*
X93958015Y-75790076D01*
X93844472Y-75837107D01*
X93742287Y-75905385D01*
X93655385Y-75992287D01*
X93587107Y-76094472D01*
X93540076Y-76208015D01*
X93516100Y-76328551D01*
X93516100Y-76451449D01*
X93540076Y-76571985D01*
X93587107Y-76685528D01*
X93655385Y-76787713D01*
X93688724Y-76821052D01*
X93124077Y-77385699D01*
X80377957Y-77385699D01*
X79504982Y-76512724D01*
X79493800Y-76499099D01*
X79439410Y-76454461D01*
X79377356Y-76421293D01*
X79310023Y-76400868D01*
X79257544Y-76395699D01*
X79257536Y-76395699D01*
X79240000Y-76393972D01*
X79222464Y-76395699D01*
X78353900Y-76395699D01*
X78353900Y-76348551D01*
X78329924Y-76228015D01*
X78282893Y-76114472D01*
X78214615Y-76012287D01*
X78127713Y-75925385D01*
X78025528Y-75857107D01*
X77911985Y-75810076D01*
X77791449Y-75786100D01*
X77668551Y-75786100D01*
X77548015Y-75810076D01*
X77434472Y-75857107D01*
X77332287Y-75925385D01*
X77245385Y-76012287D01*
X77177107Y-76114472D01*
X77130076Y-76228015D01*
X77106100Y-76348551D01*
X70672936Y-76348551D01*
X71471531Y-75549956D01*
X71515058Y-75631390D01*
X71656393Y-75803607D01*
X71828610Y-75944942D01*
X72025091Y-76049963D01*
X72238285Y-76114635D01*
X72404442Y-76131000D01*
X72515558Y-76131000D01*
X72681715Y-76114635D01*
X72894909Y-76049963D01*
X73091390Y-75944942D01*
X73263607Y-75803607D01*
X73404942Y-75631390D01*
X73509963Y-75434909D01*
X73574635Y-75221715D01*
X73596472Y-75000000D01*
X73574635Y-74778285D01*
X73509963Y-74565091D01*
X73404942Y-74368610D01*
X73263607Y-74196393D01*
X73207078Y-74150000D01*
X73867641Y-74150000D01*
X73867641Y-75850000D01*
X73873066Y-75905086D01*
X73889134Y-75958054D01*
X73915227Y-76006870D01*
X73950342Y-76049658D01*
X73993130Y-76084773D01*
X74041946Y-76110866D01*
X74094914Y-76126934D01*
X74150000Y-76132359D01*
X75850000Y-76132359D01*
X75905086Y-76126934D01*
X75958054Y-76110866D01*
X76006870Y-76084773D01*
X76049658Y-76049658D01*
X76084773Y-76006870D01*
X76110866Y-75958054D01*
X76126934Y-75905086D01*
X76132359Y-75850000D01*
X76132359Y-74150000D01*
X76126934Y-74094914D01*
X76110866Y-74041946D01*
X76084773Y-73993130D01*
X76049658Y-73950342D01*
X76006870Y-73915227D01*
X75958054Y-73889134D01*
X75905086Y-73873066D01*
X75850000Y-73867641D01*
X74150000Y-73867641D01*
X74094914Y-73873066D01*
X74041946Y-73889134D01*
X73993130Y-73915227D01*
X73950342Y-73950342D01*
X73915227Y-73993130D01*
X73889134Y-74041946D01*
X73873066Y-74094914D01*
X73867641Y-74150000D01*
X73207078Y-74150000D01*
X73091390Y-74055058D01*
X72894909Y-73950037D01*
X72681715Y-73885365D01*
X72515558Y-73869000D01*
X72404442Y-73869000D01*
X72238285Y-73885365D01*
X72025091Y-73950037D01*
X71962010Y-73983754D01*
X71962010Y-70623900D01*
X72061449Y-70623900D01*
X72181985Y-70599924D01*
X72295528Y-70552893D01*
X72397713Y-70484615D01*
X72484615Y-70397713D01*
X72552893Y-70295528D01*
X72599924Y-70181985D01*
X72623900Y-70061449D01*
X72623900Y-69938551D01*
X72599924Y-69818015D01*
X72552893Y-69704472D01*
X72484615Y-69602287D01*
X72397713Y-69515385D01*
X72295528Y-69447107D01*
X72181985Y-69400076D01*
X72061449Y-69376100D01*
X71938551Y-69376100D01*
X71864285Y-69390872D01*
X71890763Y-69364394D01*
X71938551Y-69373900D01*
X72061449Y-69373900D01*
X72181985Y-69349924D01*
X72295528Y-69302893D01*
X72397713Y-69234615D01*
X72484615Y-69147713D01*
X72552893Y-69045528D01*
X72599924Y-68931985D01*
X72623900Y-68811449D01*
X72623900Y-68688551D01*
X72599924Y-68568015D01*
X72552893Y-68454472D01*
X72484615Y-68352287D01*
X72397713Y-68265385D01*
X72295528Y-68197107D01*
X72181985Y-68150076D01*
X72061449Y-68126100D01*
X71938551Y-68126100D01*
X71818015Y-68150076D01*
X71704472Y-68197107D01*
X71602287Y-68265385D01*
X71515385Y-68352287D01*
X71447107Y-68454472D01*
X71400076Y-68568015D01*
X71376100Y-68688551D01*
X71376100Y-68811449D01*
X71385606Y-68859237D01*
X71059821Y-69185022D01*
X71046200Y-69196201D01*
X71035022Y-69209821D01*
X71035016Y-69209827D01*
X71028297Y-69218015D01*
X71001562Y-69250591D01*
X70968395Y-69312644D01*
X70968394Y-69312645D01*
X70948565Y-69378014D01*
X70947969Y-69379978D01*
X70942800Y-69432457D01*
X70942800Y-69432464D01*
X70941073Y-69450000D01*
X70942800Y-69467536D01*
X70942801Y-74514274D01*
X70864942Y-74368610D01*
X70723607Y-74196393D01*
X70551390Y-74055058D01*
X70354909Y-73950037D01*
X70292094Y-73930982D01*
X70740179Y-73482897D01*
X70753799Y-73471719D01*
X70764978Y-73458098D01*
X70764984Y-73458092D01*
X70782028Y-73437323D01*
X70798438Y-73417329D01*
X70831606Y-73355275D01*
X70835438Y-73342644D01*
X70852031Y-73287943D01*
X70853956Y-73268394D01*
X70857200Y-73235463D01*
X70857200Y-73235455D01*
X70858927Y-73217919D01*
X70857200Y-73200383D01*
X70857200Y-65138551D01*
X74576100Y-65138551D01*
X74576100Y-65261449D01*
X74600076Y-65381985D01*
X74647107Y-65495528D01*
X74715385Y-65597713D01*
X74719000Y-65601328D01*
X74719000Y-65898672D01*
X74715385Y-65902287D01*
X74647107Y-66004472D01*
X74600076Y-66118015D01*
X74576100Y-66238551D01*
X74576100Y-66361449D01*
X74600076Y-66481985D01*
X74647107Y-66595528D01*
X74715385Y-66697713D01*
X74719000Y-66701328D01*
X74719000Y-67000000D01*
X74740390Y-67107534D01*
X74801303Y-67198697D01*
X74892466Y-67259610D01*
X75000000Y-67281000D01*
X78000000Y-67281000D01*
X78107534Y-67259610D01*
X78198697Y-67198697D01*
X80058843Y-65338551D01*
X82676100Y-65338551D01*
X82676100Y-65461449D01*
X82700076Y-65581985D01*
X82747107Y-65695528D01*
X82815385Y-65797713D01*
X82902287Y-65884615D01*
X82942800Y-65911685D01*
X82942801Y-66975652D01*
X82941073Y-66993198D01*
X82947969Y-67063221D01*
X82968394Y-67130553D01*
X82968395Y-67130554D01*
X83001563Y-67192608D01*
X83008114Y-67200590D01*
X83035016Y-67233371D01*
X83035023Y-67233378D01*
X83046201Y-67246998D01*
X83059821Y-67258176D01*
X86056248Y-70254603D01*
X86067432Y-70268230D01*
X86121822Y-70312868D01*
X86178007Y-70342899D01*
X86183876Y-70346036D01*
X86251208Y-70366461D01*
X86257948Y-70367125D01*
X86303688Y-70371630D01*
X86303695Y-70371630D01*
X86321231Y-70373357D01*
X86338767Y-70371630D01*
X93051406Y-70371630D01*
X93148724Y-70468948D01*
X93115385Y-70502287D01*
X93047107Y-70604472D01*
X93000076Y-70718015D01*
X92976100Y-70838551D01*
X92976100Y-70961449D01*
X93000076Y-71081985D01*
X93047107Y-71195528D01*
X93115385Y-71297713D01*
X93202287Y-71384615D01*
X93304472Y-71452893D01*
X93418015Y-71499924D01*
X93538551Y-71523900D01*
X93661449Y-71523900D01*
X93781985Y-71499924D01*
X93895528Y-71452893D01*
X93997713Y-71384615D01*
X94029444Y-71352884D01*
X94047107Y-71395528D01*
X94115385Y-71497713D01*
X94202287Y-71584615D01*
X94304472Y-71652893D01*
X94418015Y-71699924D01*
X94538551Y-71723900D01*
X94661449Y-71723900D01*
X94781985Y-71699924D01*
X94895528Y-71652893D01*
X94997713Y-71584615D01*
X95084615Y-71497713D01*
X95098940Y-71476274D01*
X95100076Y-71481985D01*
X95147107Y-71595528D01*
X95215385Y-71697713D01*
X95302287Y-71784615D01*
X95404472Y-71852893D01*
X95518015Y-71899924D01*
X95638551Y-71923900D01*
X95761449Y-71923900D01*
X95881985Y-71899924D01*
X95995528Y-71852893D01*
X96097713Y-71784615D01*
X96184615Y-71697713D01*
X96252893Y-71595528D01*
X96299924Y-71481985D01*
X96323900Y-71361449D01*
X96323900Y-71238551D01*
X96299924Y-71118015D01*
X96252893Y-71004472D01*
X96184615Y-70902287D01*
X96097713Y-70815385D01*
X95995528Y-70747107D01*
X95881985Y-70700076D01*
X95761449Y-70676100D01*
X95638551Y-70676100D01*
X95590763Y-70685606D01*
X94362357Y-69457200D01*
X94952043Y-69457200D01*
X96385606Y-70890763D01*
X96376100Y-70938551D01*
X96376100Y-71061449D01*
X96400076Y-71181985D01*
X96447107Y-71295528D01*
X96515385Y-71397713D01*
X96602287Y-71484615D01*
X96704472Y-71552893D01*
X96818015Y-71599924D01*
X96938551Y-71623900D01*
X97061449Y-71623900D01*
X97181985Y-71599924D01*
X97295528Y-71552893D01*
X97397713Y-71484615D01*
X97484615Y-71397713D01*
X97552893Y-71295528D01*
X97599924Y-71181985D01*
X97623900Y-71061449D01*
X97623900Y-70938551D01*
X97599924Y-70818015D01*
X97552893Y-70704472D01*
X97484615Y-70602287D01*
X97397713Y-70515385D01*
X97295528Y-70447107D01*
X97181985Y-70400076D01*
X97061449Y-70376100D01*
X96938551Y-70376100D01*
X96890763Y-70385606D01*
X95364982Y-68859825D01*
X95353800Y-68846200D01*
X95299410Y-68801562D01*
X95237356Y-68768394D01*
X95170023Y-68747969D01*
X95117544Y-68742800D01*
X95117536Y-68742800D01*
X95100000Y-68741073D01*
X95082464Y-68742800D01*
X86847957Y-68742800D01*
X85857200Y-67752043D01*
X85857200Y-64711685D01*
X85897713Y-64684615D01*
X85984615Y-64597713D01*
X86052893Y-64495528D01*
X86076493Y-64438551D01*
X97176100Y-64438551D01*
X97176100Y-64561449D01*
X97200076Y-64681985D01*
X97247107Y-64795528D01*
X97315385Y-64897713D01*
X97402287Y-64984615D01*
X97504472Y-65052893D01*
X97618015Y-65099924D01*
X97656666Y-65107612D01*
X107419783Y-74870730D01*
X107380037Y-74945091D01*
X107315365Y-75158285D01*
X107293528Y-75380000D01*
X107315365Y-75601715D01*
X107380037Y-75814909D01*
X107485058Y-76011390D01*
X107626393Y-76183607D01*
X107798610Y-76324942D01*
X107995091Y-76429963D01*
X108208285Y-76494635D01*
X108374442Y-76511000D01*
X108485558Y-76511000D01*
X108651715Y-76494635D01*
X108864909Y-76429963D01*
X109061390Y-76324942D01*
X109233607Y-76183607D01*
X109374942Y-76011390D01*
X109479963Y-75814909D01*
X109544635Y-75601715D01*
X109566472Y-75380000D01*
X109544635Y-75158285D01*
X109479963Y-74945091D01*
X109374942Y-74748610D01*
X109233607Y-74576393D01*
X109061390Y-74435058D01*
X108864909Y-74330037D01*
X108651715Y-74265365D01*
X108485558Y-74249000D01*
X108374442Y-74249000D01*
X108306626Y-74255679D01*
X98407612Y-64356666D01*
X98399924Y-64318015D01*
X98352893Y-64204472D01*
X98284615Y-64102287D01*
X98197713Y-64015385D01*
X98095528Y-63947107D01*
X97981985Y-63900076D01*
X97861449Y-63876100D01*
X97738551Y-63876100D01*
X97618015Y-63900076D01*
X97504472Y-63947107D01*
X97402287Y-64015385D01*
X97315385Y-64102287D01*
X97247107Y-64204472D01*
X97200076Y-64318015D01*
X97176100Y-64438551D01*
X86076493Y-64438551D01*
X86099924Y-64381985D01*
X86123900Y-64261449D01*
X86123900Y-64138551D01*
X86099924Y-64018015D01*
X86052893Y-63904472D01*
X85984615Y-63802287D01*
X85897713Y-63715385D01*
X85795528Y-63647107D01*
X85681985Y-63600076D01*
X85561449Y-63576100D01*
X85438551Y-63576100D01*
X85318015Y-63600076D01*
X85204472Y-63647107D01*
X85102287Y-63715385D01*
X85015385Y-63802287D01*
X84947107Y-63904472D01*
X84900076Y-64018015D01*
X84876100Y-64138551D01*
X84876100Y-64179014D01*
X84861449Y-64176100D01*
X84738551Y-64176100D01*
X84618015Y-64200076D01*
X84504472Y-64247107D01*
X84402287Y-64315385D01*
X84315385Y-64402287D01*
X84247107Y-64504472D01*
X84200076Y-64618015D01*
X84176100Y-64738551D01*
X84176100Y-64776100D01*
X84138551Y-64776100D01*
X84018015Y-64800076D01*
X83904472Y-64847107D01*
X83802287Y-64915385D01*
X83750000Y-64967672D01*
X83697713Y-64915385D01*
X83595528Y-64847107D01*
X83481985Y-64800076D01*
X83361449Y-64776100D01*
X83238551Y-64776100D01*
X83118015Y-64800076D01*
X83004472Y-64847107D01*
X82902287Y-64915385D01*
X82815385Y-65002287D01*
X82747107Y-65104472D01*
X82700076Y-65218015D01*
X82676100Y-65338551D01*
X80058843Y-65338551D01*
X85198697Y-60198697D01*
X85259610Y-60107534D01*
X85281000Y-60000000D01*
X85281000Y-57500000D01*
X85259610Y-57392466D01*
X85198697Y-57301303D01*
X85107534Y-57240390D01*
X85000000Y-57219000D01*
X82827672Y-57219000D01*
X82781985Y-57200076D01*
X82661449Y-57176100D01*
X82538551Y-57176100D01*
X82418015Y-57200076D01*
X82372328Y-57219000D01*
X82086157Y-57219000D01*
X82462020Y-56843137D01*
X82475640Y-56831959D01*
X82486819Y-56818338D01*
X82486824Y-56818333D01*
X82504107Y-56797274D01*
X82520279Y-56777569D01*
X82553447Y-56715515D01*
X82567247Y-56670022D01*
X82573872Y-56648183D01*
X82575372Y-56632955D01*
X82579041Y-56595703D01*
X82579041Y-56595696D01*
X82580768Y-56578160D01*
X82579041Y-56560624D01*
X82579041Y-56026116D01*
X85547957Y-53057200D01*
X91482464Y-53057200D01*
X91500000Y-53058927D01*
X91517536Y-53057200D01*
X91517544Y-53057200D01*
X91570023Y-53052031D01*
X91637356Y-53031606D01*
X91699410Y-52998438D01*
X91753800Y-52953800D01*
X91764984Y-52940173D01*
X92490763Y-52214394D01*
X92538551Y-52223900D01*
X92661449Y-52223900D01*
X92781985Y-52199924D01*
X92895528Y-52152893D01*
X92997713Y-52084615D01*
X93084615Y-51997713D01*
X93152893Y-51895528D01*
X93199924Y-51781985D01*
X93223900Y-51661449D01*
X93223900Y-51538551D01*
X93199924Y-51418015D01*
X93152893Y-51304472D01*
X93084615Y-51202287D01*
X92997713Y-51115385D01*
X92895528Y-51047107D01*
X92781985Y-51000076D01*
X92661449Y-50976100D01*
X92538551Y-50976100D01*
X92493003Y-50985160D01*
X92552893Y-50895528D01*
X92599924Y-50781985D01*
X92623900Y-50661449D01*
X92623900Y-50538551D01*
X92599924Y-50418015D01*
X92552893Y-50304472D01*
X92484615Y-50202287D01*
X92397713Y-50115385D01*
X92295528Y-50047107D01*
X92181985Y-50000076D01*
X92061449Y-49976100D01*
X91938551Y-49976100D01*
X91818015Y-50000076D01*
X91704472Y-50047107D01*
X91602287Y-50115385D01*
X91515385Y-50202287D01*
X91488315Y-50242800D01*
X90417535Y-50242800D01*
X90399999Y-50241073D01*
X90382463Y-50242800D01*
X90382456Y-50242800D01*
X90338729Y-50247107D01*
X90329976Y-50247969D01*
X90294357Y-50258774D01*
X90262644Y-50268394D01*
X90200590Y-50301562D01*
X90146200Y-50346200D01*
X90135018Y-50359825D01*
X89445753Y-51049090D01*
X85011246Y-51049090D01*
X84993710Y-51047363D01*
X84976174Y-51049090D01*
X84976166Y-51049090D01*
X84929834Y-51053654D01*
X84923686Y-51054259D01*
X84856354Y-51074684D01*
X84794300Y-51107852D01*
X84739910Y-51152490D01*
X84728728Y-51166115D01*
X82289608Y-53605235D01*
X82289603Y-53605242D01*
X82236396Y-53658449D01*
X82110192Y-53532245D01*
X82108761Y-53530166D01*
X82085396Y-53507448D01*
X82074702Y-53496754D01*
X82072749Y-53495151D01*
X82070953Y-53493405D01*
X82059206Y-53484037D01*
X82033938Y-53463301D01*
X82031710Y-53462110D01*
X82014508Y-53448392D01*
X81997837Y-53433068D01*
X81972057Y-53417369D01*
X81946744Y-53400965D01*
X81925713Y-53392598D01*
X81887748Y-53374314D01*
X81868078Y-53363080D01*
X81839449Y-53353511D01*
X81811136Y-53343156D01*
X81788759Y-53339676D01*
X81747674Y-53330299D01*
X81726014Y-53323728D01*
X81695986Y-53320770D01*
X81666048Y-53316971D01*
X81643467Y-53318557D01*
X81601328Y-53318557D01*
X81578735Y-53316970D01*
X81548806Y-53320768D01*
X81518791Y-53323724D01*
X81497117Y-53330298D01*
X81456037Y-53339676D01*
X81433667Y-53343154D01*
X81405313Y-53353523D01*
X81376706Y-53363086D01*
X81357055Y-53374310D01*
X81319078Y-53392598D01*
X81298050Y-53400964D01*
X81272747Y-53417361D01*
X81246964Y-53433062D01*
X81230293Y-53448386D01*
X81197351Y-53474655D01*
X81178699Y-53487500D01*
X81157663Y-53509134D01*
X81136033Y-53530165D01*
X81123190Y-53548815D01*
X81096917Y-53581758D01*
X81081592Y-53598431D01*
X81065907Y-53624189D01*
X81049494Y-53649514D01*
X81041121Y-53670557D01*
X81022838Y-53708522D01*
X81011607Y-53728187D01*
X81002045Y-53756796D01*
X80991680Y-53785136D01*
X80988199Y-53807518D01*
X80978825Y-53848592D01*
X80972254Y-53870251D01*
X80969297Y-53900268D01*
X80965497Y-53930214D01*
X80967083Y-53952800D01*
X80967083Y-53994941D01*
X80965496Y-54017534D01*
X80969293Y-54047447D01*
X80972250Y-54077476D01*
X80978827Y-54099160D01*
X80988201Y-54140226D01*
X80991679Y-54162593D01*
X81002048Y-54190948D01*
X81011613Y-54219561D01*
X81022836Y-54239211D01*
X81041121Y-54277184D01*
X81049495Y-54298228D01*
X81065897Y-54323536D01*
X81081585Y-54349299D01*
X81096912Y-54365974D01*
X81110641Y-54383189D01*
X81111828Y-54385410D01*
X81132539Y-54410647D01*
X81141939Y-54422434D01*
X81143687Y-54424231D01*
X81145281Y-54426174D01*
X81155966Y-54436859D01*
X81178702Y-54460240D01*
X81180774Y-54461667D01*
X81261908Y-54542800D01*
X80417535Y-54542800D01*
X80399999Y-54541073D01*
X80382463Y-54542800D01*
X80382456Y-54542800D01*
X80336716Y-54547305D01*
X80329976Y-54547969D01*
X80273889Y-54564983D01*
X80262644Y-54568394D01*
X80200590Y-54601562D01*
X80146200Y-54646200D01*
X80135018Y-54659825D01*
X79559821Y-55235022D01*
X79546201Y-55246200D01*
X79535023Y-55259820D01*
X79535016Y-55259827D01*
X79514674Y-55284615D01*
X79501563Y-55300590D01*
X79490127Y-55321986D01*
X79468394Y-55362645D01*
X79447969Y-55429977D01*
X79441073Y-55500000D01*
X79442801Y-55517546D01*
X79442800Y-56088315D01*
X79402287Y-56115385D01*
X79315385Y-56202287D01*
X79247107Y-56304472D01*
X79200076Y-56418015D01*
X79176100Y-56538551D01*
X79176100Y-56661449D01*
X79200076Y-56781985D01*
X79247107Y-56895528D01*
X79315385Y-56997713D01*
X79402287Y-57084615D01*
X79504472Y-57152893D01*
X79609099Y-57196231D01*
X79600076Y-57218015D01*
X79576100Y-57338551D01*
X79576100Y-57461449D01*
X79600076Y-57581985D01*
X79647107Y-57695528D01*
X79715385Y-57797713D01*
X79802287Y-57884615D01*
X79904472Y-57952893D01*
X80018015Y-57999924D01*
X80138551Y-58023900D01*
X80261449Y-58023900D01*
X80310383Y-58014167D01*
X80343489Y-58041337D01*
X80405543Y-58074505D01*
X80457204Y-58090176D01*
X80472875Y-58094930D01*
X80478947Y-58095528D01*
X80525355Y-58100099D01*
X80525362Y-58100099D01*
X80542898Y-58101826D01*
X80560434Y-58100099D01*
X81039565Y-58100099D01*
X81057101Y-58101826D01*
X81074637Y-58100099D01*
X81074645Y-58100099D01*
X81127124Y-58094930D01*
X81176100Y-58080073D01*
X81176100Y-58161449D01*
X81200076Y-58281985D01*
X81219000Y-58327672D01*
X81219000Y-60883606D01*
X77883606Y-64219000D01*
X75000000Y-64219000D01*
X74892466Y-64240390D01*
X74801303Y-64301303D01*
X74740390Y-64392466D01*
X74719000Y-64500000D01*
X74719000Y-64798672D01*
X74715385Y-64802287D01*
X74647107Y-64904472D01*
X74600076Y-65018015D01*
X74576100Y-65138551D01*
X70857200Y-65138551D01*
X70857200Y-64911685D01*
X70897713Y-64884615D01*
X70984615Y-64797713D01*
X71052893Y-64695528D01*
X71099924Y-64581985D01*
X71123900Y-64461449D01*
X71123900Y-64338551D01*
X71099924Y-64218015D01*
X71052893Y-64104472D01*
X70984615Y-64002287D01*
X70897713Y-63915385D01*
X70795528Y-63847107D01*
X70681985Y-63800076D01*
X70561449Y-63776100D01*
X70438551Y-63776100D01*
X70318015Y-63800076D01*
X70204472Y-63847107D01*
X70102287Y-63915385D01*
X70015385Y-64002287D01*
X69947107Y-64104472D01*
X69900076Y-64218015D01*
X69876100Y-64338551D01*
X69876100Y-64376100D01*
X69838551Y-64376100D01*
X69718015Y-64400076D01*
X69604472Y-64447107D01*
X69502287Y-64515385D01*
X69415385Y-64602287D01*
X69347107Y-64704472D01*
X69300076Y-64818015D01*
X69276100Y-64938551D01*
X69276100Y-65061449D01*
X69300076Y-65181985D01*
X69347107Y-65295528D01*
X69415385Y-65397713D01*
X69502287Y-65484615D01*
X69542801Y-65511686D01*
X69542801Y-65837644D01*
X68864982Y-65159825D01*
X68853800Y-65146200D01*
X68799410Y-65101562D01*
X68737356Y-65068394D01*
X68670023Y-65047969D01*
X68617544Y-65042800D01*
X68617536Y-65042800D01*
X68600000Y-65041073D01*
X68582464Y-65042800D01*
X65947957Y-65042800D01*
X65614394Y-64709237D01*
X65623900Y-64661449D01*
X65623900Y-64538551D01*
X65599924Y-64418015D01*
X65552893Y-64304472D01*
X65484615Y-64202287D01*
X65397713Y-64115385D01*
X65295528Y-64047107D01*
X65181985Y-64000076D01*
X65061449Y-63976100D01*
X64938551Y-63976100D01*
X64818015Y-64000076D01*
X64704472Y-64047107D01*
X64602287Y-64115385D01*
X64515385Y-64202287D01*
X64447107Y-64304472D01*
X64400076Y-64418015D01*
X64376100Y-64538551D01*
X64376100Y-64661449D01*
X64400076Y-64781985D01*
X64447107Y-64895528D01*
X64515385Y-64997713D01*
X64602287Y-65084615D01*
X64704472Y-65152893D01*
X64818015Y-65199924D01*
X64938551Y-65223900D01*
X65061449Y-65223900D01*
X65109237Y-65214394D01*
X65170943Y-65276100D01*
X65138551Y-65276100D01*
X65018015Y-65300076D01*
X64904472Y-65347107D01*
X64802287Y-65415385D01*
X64715385Y-65502287D01*
X64647107Y-65604472D01*
X64600076Y-65718015D01*
X64576100Y-65838551D01*
X64576100Y-65961449D01*
X64600076Y-66081985D01*
X64647107Y-66195528D01*
X64715385Y-66297713D01*
X64802287Y-66384615D01*
X64843771Y-66412334D01*
X64846602Y-66441073D01*
X64847969Y-66454956D01*
X64862990Y-66504472D01*
X64868394Y-66522288D01*
X64901562Y-66584342D01*
X64914898Y-66600591D01*
X64935016Y-66625106D01*
X64935022Y-66625112D01*
X64946200Y-66638732D01*
X64959821Y-66649911D01*
X65442801Y-67132891D01*
X65442800Y-68252043D01*
X65352043Y-68342800D01*
X51817535Y-68342800D01*
X51799999Y-68341073D01*
X51782463Y-68342800D01*
X51782456Y-68342800D01*
X51736716Y-68347305D01*
X51729976Y-68347969D01*
X51716586Y-68352031D01*
X51662644Y-68368394D01*
X51600590Y-68401562D01*
X51546200Y-68446200D01*
X51535018Y-68459825D01*
X51209237Y-68785606D01*
X51161449Y-68776100D01*
X51038551Y-68776100D01*
X50918015Y-68800076D01*
X50804472Y-68847107D01*
X50702287Y-68915385D01*
X50615385Y-69002287D01*
X50547107Y-69104472D01*
X50500076Y-69218015D01*
X50476100Y-69338551D01*
X50476100Y-69461449D01*
X50500076Y-69581985D01*
X50547107Y-69695528D01*
X50615385Y-69797713D01*
X50702287Y-69884615D01*
X50804472Y-69952893D01*
X50901684Y-69993159D01*
X47752043Y-73142800D01*
X46317536Y-73142800D01*
X46300000Y-73141073D01*
X46282464Y-73142800D01*
X46282456Y-73142800D01*
X46236124Y-73147364D01*
X46229976Y-73147969D01*
X46181596Y-73162645D01*
X46162644Y-73168394D01*
X46100590Y-73201562D01*
X46046200Y-73246200D01*
X46035018Y-73259825D01*
X45559821Y-73735022D01*
X45546201Y-73746200D01*
X45535023Y-73759820D01*
X45535016Y-73759827D01*
X45526667Y-73770001D01*
X45501563Y-73800590D01*
X45499307Y-73804811D01*
X45468394Y-73862645D01*
X45447969Y-73929977D01*
X45441073Y-74000000D01*
X45442801Y-74017546D01*
X45442800Y-76112043D01*
X45026526Y-76528317D01*
X44954909Y-76490037D01*
X44741715Y-76425365D01*
X44575558Y-76409000D01*
X44464442Y-76409000D01*
X44298285Y-76425365D01*
X44085091Y-76490037D01*
X43888610Y-76595058D01*
X43716393Y-76736393D01*
X43575058Y-76908610D01*
X43470037Y-77105091D01*
X43405365Y-77318285D01*
X43383528Y-77540000D01*
X43116472Y-77540000D01*
X43094635Y-77318285D01*
X43029963Y-77105091D01*
X42924942Y-76908610D01*
X42783607Y-76736393D01*
X42611390Y-76595058D01*
X42414909Y-76490037D01*
X42201715Y-76425365D01*
X42035558Y-76409000D01*
X41924442Y-76409000D01*
X41758285Y-76425365D01*
X41545091Y-76490037D01*
X41348610Y-76595058D01*
X41176393Y-76736393D01*
X41035058Y-76908610D01*
X40930037Y-77105091D01*
X40865365Y-77318285D01*
X40843528Y-77540000D01*
X38036472Y-77540000D01*
X38014635Y-77318285D01*
X37949963Y-77105091D01*
X37844942Y-76908610D01*
X37703607Y-76736393D01*
X37531390Y-76595058D01*
X37334909Y-76490037D01*
X37121715Y-76425365D01*
X36955558Y-76409000D01*
X36844442Y-76409000D01*
X36678285Y-76425365D01*
X36465091Y-76490037D01*
X36268610Y-76595058D01*
X36096393Y-76736393D01*
X35955058Y-76908610D01*
X35850037Y-77105091D01*
X35785365Y-77318285D01*
X35763528Y-77540000D01*
X32956472Y-77540000D01*
X32934635Y-77318285D01*
X32869963Y-77105091D01*
X32764942Y-76908610D01*
X32623607Y-76736393D01*
X32451390Y-76595058D01*
X32254909Y-76490037D01*
X32041715Y-76425365D01*
X31875558Y-76409000D01*
X31764442Y-76409000D01*
X31598285Y-76425365D01*
X31385091Y-76490037D01*
X31188610Y-76595058D01*
X31016393Y-76736393D01*
X30875058Y-76908610D01*
X30770037Y-77105091D01*
X30705365Y-77318285D01*
X30683528Y-77540000D01*
X30416472Y-77540000D01*
X30394635Y-77318285D01*
X30329963Y-77105091D01*
X30224942Y-76908610D01*
X30083607Y-76736393D01*
X29911390Y-76595058D01*
X29714909Y-76490037D01*
X29501715Y-76425365D01*
X29335558Y-76409000D01*
X29224442Y-76409000D01*
X29058285Y-76425365D01*
X28845091Y-76490037D01*
X28648610Y-76595058D01*
X28476393Y-76736393D01*
X28335058Y-76908610D01*
X28230037Y-77105091D01*
X28165365Y-77318285D01*
X28143528Y-77540000D01*
X27876472Y-77540000D01*
X27854635Y-77318285D01*
X27789963Y-77105091D01*
X27684942Y-76908610D01*
X27543607Y-76736393D01*
X27371390Y-76595058D01*
X27174909Y-76490037D01*
X26961715Y-76425365D01*
X26795558Y-76409000D01*
X26684442Y-76409000D01*
X26518285Y-76425365D01*
X26305091Y-76490037D01*
X26108610Y-76595058D01*
X25936393Y-76736393D01*
X25795058Y-76908610D01*
X25690037Y-77105091D01*
X25625365Y-77318285D01*
X25603528Y-77540000D01*
X25356000Y-77540000D01*
X25356000Y-75000000D01*
X28143528Y-75000000D01*
X28165365Y-75221715D01*
X28230037Y-75434909D01*
X28335058Y-75631390D01*
X28476393Y-75803607D01*
X28648610Y-75944942D01*
X28845091Y-76049963D01*
X29058285Y-76114635D01*
X29224442Y-76131000D01*
X29335558Y-76131000D01*
X29501715Y-76114635D01*
X29714909Y-76049963D01*
X29911390Y-75944942D01*
X30083607Y-75803607D01*
X30224942Y-75631390D01*
X30329963Y-75434909D01*
X30394635Y-75221715D01*
X30416472Y-75000000D01*
X30683528Y-75000000D01*
X30705365Y-75221715D01*
X30770037Y-75434909D01*
X30875058Y-75631390D01*
X31016393Y-75803607D01*
X31188610Y-75944942D01*
X31385091Y-76049963D01*
X31598285Y-76114635D01*
X31764442Y-76131000D01*
X31875558Y-76131000D01*
X32041715Y-76114635D01*
X32254909Y-76049963D01*
X32451390Y-75944942D01*
X32623607Y-75803607D01*
X32764942Y-75631390D01*
X32869963Y-75434909D01*
X32934635Y-75221715D01*
X32956472Y-75000000D01*
X33223528Y-75000000D01*
X33245365Y-75221715D01*
X33310037Y-75434909D01*
X33415058Y-75631390D01*
X33556393Y-75803607D01*
X33728610Y-75944942D01*
X33925091Y-76049963D01*
X34138285Y-76114635D01*
X34304442Y-76131000D01*
X34415558Y-76131000D01*
X34581715Y-76114635D01*
X34794909Y-76049963D01*
X34991390Y-75944942D01*
X35163607Y-75803607D01*
X35304942Y-75631390D01*
X35409963Y-75434909D01*
X35474635Y-75221715D01*
X35496472Y-75000000D01*
X35763528Y-75000000D01*
X35785365Y-75221715D01*
X35850037Y-75434909D01*
X35955058Y-75631390D01*
X36096393Y-75803607D01*
X36268610Y-75944942D01*
X36465091Y-76049963D01*
X36678285Y-76114635D01*
X36844442Y-76131000D01*
X36955558Y-76131000D01*
X37121715Y-76114635D01*
X37334909Y-76049963D01*
X37531390Y-75944942D01*
X37703607Y-75803607D01*
X37844942Y-75631390D01*
X37949963Y-75434909D01*
X38014635Y-75221715D01*
X38036472Y-75000000D01*
X38303528Y-75000000D01*
X38325365Y-75221715D01*
X38390037Y-75434909D01*
X38495058Y-75631390D01*
X38636393Y-75803607D01*
X38808610Y-75944942D01*
X39005091Y-76049963D01*
X39218285Y-76114635D01*
X39384442Y-76131000D01*
X39495558Y-76131000D01*
X39661715Y-76114635D01*
X39874909Y-76049963D01*
X40071390Y-75944942D01*
X40243607Y-75803607D01*
X40384942Y-75631390D01*
X40489963Y-75434909D01*
X40554635Y-75221715D01*
X40576472Y-75000000D01*
X40843528Y-75000000D01*
X40865365Y-75221715D01*
X40930037Y-75434909D01*
X41035058Y-75631390D01*
X41176393Y-75803607D01*
X41348610Y-75944942D01*
X41545091Y-76049963D01*
X41758285Y-76114635D01*
X41924442Y-76131000D01*
X42035558Y-76131000D01*
X42201715Y-76114635D01*
X42414909Y-76049963D01*
X42611390Y-75944942D01*
X42783607Y-75803607D01*
X42924942Y-75631390D01*
X43029963Y-75434909D01*
X43094635Y-75221715D01*
X43116472Y-75000000D01*
X43094635Y-74778285D01*
X43029963Y-74565091D01*
X42924942Y-74368610D01*
X42783607Y-74196393D01*
X42611390Y-74055058D01*
X42414909Y-73950037D01*
X42201715Y-73885365D01*
X42035558Y-73869000D01*
X41924442Y-73869000D01*
X41758285Y-73885365D01*
X41545091Y-73950037D01*
X41348610Y-74055058D01*
X41176393Y-74196393D01*
X41035058Y-74368610D01*
X40930037Y-74565091D01*
X40865365Y-74778285D01*
X40843528Y-75000000D01*
X40576472Y-75000000D01*
X40554635Y-74778285D01*
X40489963Y-74565091D01*
X40384942Y-74368610D01*
X40243607Y-74196393D01*
X40071390Y-74055058D01*
X39874909Y-73950037D01*
X39661715Y-73885365D01*
X39495558Y-73869000D01*
X39384442Y-73869000D01*
X39218285Y-73885365D01*
X39005091Y-73950037D01*
X38808610Y-74055058D01*
X38636393Y-74196393D01*
X38495058Y-74368610D01*
X38390037Y-74565091D01*
X38325365Y-74778285D01*
X38303528Y-75000000D01*
X38036472Y-75000000D01*
X38014635Y-74778285D01*
X37949963Y-74565091D01*
X37844942Y-74368610D01*
X37703607Y-74196393D01*
X37531390Y-74055058D01*
X37334909Y-73950037D01*
X37121715Y-73885365D01*
X36955558Y-73869000D01*
X36844442Y-73869000D01*
X36678285Y-73885365D01*
X36465091Y-73950037D01*
X36268610Y-74055058D01*
X36096393Y-74196393D01*
X35955058Y-74368610D01*
X35850037Y-74565091D01*
X35785365Y-74778285D01*
X35763528Y-75000000D01*
X35496472Y-75000000D01*
X35474635Y-74778285D01*
X35409963Y-74565091D01*
X35304942Y-74368610D01*
X35163607Y-74196393D01*
X34991390Y-74055058D01*
X34794909Y-73950037D01*
X34581715Y-73885365D01*
X34415558Y-73869000D01*
X34304442Y-73869000D01*
X34138285Y-73885365D01*
X33925091Y-73950037D01*
X33728610Y-74055058D01*
X33556393Y-74196393D01*
X33415058Y-74368610D01*
X33310037Y-74565091D01*
X33245365Y-74778285D01*
X33223528Y-75000000D01*
X32956472Y-75000000D01*
X32934635Y-74778285D01*
X32869963Y-74565091D01*
X32764942Y-74368610D01*
X32623607Y-74196393D01*
X32451390Y-74055058D01*
X32254909Y-73950037D01*
X32041715Y-73885365D01*
X31875558Y-73869000D01*
X31764442Y-73869000D01*
X31598285Y-73885365D01*
X31385091Y-73950037D01*
X31188610Y-74055058D01*
X31016393Y-74196393D01*
X30875058Y-74368610D01*
X30770037Y-74565091D01*
X30705365Y-74778285D01*
X30683528Y-75000000D01*
X30416472Y-75000000D01*
X30394635Y-74778285D01*
X30329963Y-74565091D01*
X30224942Y-74368610D01*
X30083607Y-74196393D01*
X29911390Y-74055058D01*
X29714909Y-73950037D01*
X29501715Y-73885365D01*
X29335558Y-73869000D01*
X29224442Y-73869000D01*
X29058285Y-73885365D01*
X28845091Y-73950037D01*
X28648610Y-74055058D01*
X28476393Y-74196393D01*
X28335058Y-74368610D01*
X28230037Y-74565091D01*
X28165365Y-74778285D01*
X28143528Y-75000000D01*
X25356000Y-75000000D01*
X25356000Y-68938551D01*
X41876100Y-68938551D01*
X41876100Y-69061449D01*
X41900076Y-69181985D01*
X41947107Y-69295528D01*
X42015385Y-69397713D01*
X42102287Y-69484615D01*
X42204472Y-69552893D01*
X42318015Y-69599924D01*
X42438551Y-69623900D01*
X42561449Y-69623900D01*
X42681985Y-69599924D01*
X42795528Y-69552893D01*
X42897713Y-69484615D01*
X42984615Y-69397713D01*
X43052893Y-69295528D01*
X43099924Y-69181985D01*
X43123900Y-69061449D01*
X43123900Y-68938551D01*
X43114394Y-68890763D01*
X43612144Y-68393013D01*
X43615284Y-68397713D01*
X43702186Y-68484615D01*
X43804371Y-68552893D01*
X43917914Y-68599924D01*
X44038450Y-68623900D01*
X44161348Y-68623900D01*
X44281884Y-68599924D01*
X44395427Y-68552893D01*
X44497612Y-68484615D01*
X44584514Y-68397713D01*
X44652792Y-68295528D01*
X44699823Y-68181985D01*
X44723799Y-68061449D01*
X44723799Y-67938551D01*
X44699823Y-67818015D01*
X44652792Y-67704472D01*
X44584514Y-67602287D01*
X44497612Y-67515385D01*
X44395427Y-67447107D01*
X44281884Y-67400076D01*
X44161348Y-67376100D01*
X44038450Y-67376100D01*
X43917914Y-67400076D01*
X43804371Y-67447107D01*
X43702186Y-67515385D01*
X43615284Y-67602287D01*
X43588214Y-67642800D01*
X43517539Y-67642800D01*
X43500000Y-67641073D01*
X43482461Y-67642800D01*
X43482456Y-67642800D01*
X43466228Y-67644398D01*
X43429976Y-67647968D01*
X43362644Y-67668394D01*
X43300590Y-67701562D01*
X43246200Y-67746200D01*
X43235018Y-67759825D01*
X42609237Y-68385606D01*
X42561449Y-68376100D01*
X42438551Y-68376100D01*
X42318015Y-68400076D01*
X42204472Y-68447107D01*
X42102287Y-68515385D01*
X42015385Y-68602287D01*
X41947107Y-68704472D01*
X41900076Y-68818015D01*
X41876100Y-68938551D01*
X25356000Y-68938551D01*
X25356000Y-59000000D01*
X67719000Y-59000000D01*
X67719000Y-61000000D01*
X67740390Y-61107534D01*
X67801303Y-61198697D01*
X67892466Y-61259610D01*
X68000000Y-61281000D01*
X80000000Y-61281000D01*
X80107534Y-61259610D01*
X80198697Y-61198697D01*
X80259610Y-61107534D01*
X80281000Y-61000000D01*
X80281000Y-59000000D01*
X80259610Y-58892466D01*
X80198697Y-58801303D01*
X80107534Y-58740390D01*
X80000000Y-58719000D01*
X68000000Y-58719000D01*
X67892466Y-58740390D01*
X67801303Y-58801303D01*
X67740390Y-58892466D01*
X67719000Y-59000000D01*
X25356000Y-59000000D01*
X25356000Y-49238551D01*
X34676100Y-49238551D01*
X34676100Y-49361449D01*
X34700076Y-49481985D01*
X34747107Y-49595528D01*
X34815385Y-49697713D01*
X34902287Y-49784615D01*
X34943772Y-49812334D01*
X34947969Y-49854956D01*
X34968394Y-49922288D01*
X34968395Y-49922289D01*
X35001563Y-49984343D01*
X35009980Y-49994599D01*
X35035016Y-50025106D01*
X35035023Y-50025113D01*
X35046201Y-50038733D01*
X35059821Y-50049911D01*
X36142800Y-51132890D01*
X36142801Y-52482454D01*
X36141073Y-52500000D01*
X36147969Y-52570023D01*
X36168394Y-52637355D01*
X36168395Y-52637356D01*
X36201563Y-52699410D01*
X36214575Y-52715265D01*
X36235016Y-52740173D01*
X36235023Y-52740180D01*
X36246201Y-52753800D01*
X36259821Y-52764978D01*
X36604065Y-53109222D01*
X36581985Y-53100076D01*
X36461449Y-53076100D01*
X36338551Y-53076100D01*
X36218015Y-53100076D01*
X36104472Y-53147107D01*
X36002287Y-53215385D01*
X35915385Y-53302287D01*
X35847107Y-53404472D01*
X35800076Y-53518015D01*
X35776100Y-53638551D01*
X35776100Y-53761449D01*
X35800076Y-53881985D01*
X35847107Y-53995528D01*
X35915385Y-54097713D01*
X36002287Y-54184615D01*
X36104472Y-54252893D01*
X36218015Y-54299924D01*
X36338551Y-54323900D01*
X36461449Y-54323900D01*
X36581985Y-54299924D01*
X36695528Y-54252893D01*
X36797713Y-54184615D01*
X36884615Y-54097713D01*
X36911685Y-54057200D01*
X40993819Y-54057200D01*
X44579715Y-57643096D01*
X44590897Y-57656721D01*
X44645287Y-57701359D01*
X44707341Y-57734527D01*
X44774673Y-57754952D01*
X44781413Y-57755616D01*
X44827153Y-57760121D01*
X44827160Y-57760121D01*
X44844696Y-57761848D01*
X44862232Y-57760121D01*
X48517753Y-57760121D01*
X48544823Y-57800634D01*
X48631725Y-57887536D01*
X48733910Y-57955814D01*
X48847453Y-58002845D01*
X48967989Y-58026821D01*
X49090887Y-58026821D01*
X49211423Y-58002845D01*
X49324966Y-57955814D01*
X49427151Y-57887536D01*
X49514053Y-57800634D01*
X49582331Y-57698449D01*
X49629362Y-57584906D01*
X49641497Y-57523900D01*
X49761449Y-57523900D01*
X49881985Y-57499924D01*
X49995528Y-57452893D01*
X50097713Y-57384615D01*
X50184615Y-57297713D01*
X50252893Y-57195528D01*
X50299924Y-57081985D01*
X50323900Y-56961449D01*
X50323900Y-56838551D01*
X50299924Y-56718015D01*
X50252893Y-56604472D01*
X50184615Y-56502287D01*
X50097713Y-56415385D01*
X49995528Y-56347107D01*
X49881985Y-56300076D01*
X49761449Y-56276100D01*
X49638551Y-56276100D01*
X49589617Y-56285833D01*
X49556511Y-56258663D01*
X49494457Y-56225495D01*
X49427124Y-56205070D01*
X49374645Y-56199901D01*
X49374637Y-56199901D01*
X49357101Y-56198174D01*
X49339565Y-56199901D01*
X44955058Y-56199901D01*
X41910172Y-53155015D01*
X41898990Y-53141390D01*
X41844600Y-53096752D01*
X41782546Y-53063584D01*
X41715213Y-53043159D01*
X41662734Y-53037990D01*
X41662726Y-53037990D01*
X41645190Y-53036263D01*
X41627654Y-53037990D01*
X37543147Y-53037990D01*
X36857200Y-52352043D01*
X36857200Y-51138551D01*
X49276100Y-51138551D01*
X49276100Y-51261449D01*
X49300076Y-51381985D01*
X49347107Y-51495528D01*
X49415385Y-51597713D01*
X49502287Y-51684615D01*
X49604472Y-51752893D01*
X49718015Y-51799924D01*
X49838551Y-51823900D01*
X49961449Y-51823900D01*
X50081985Y-51799924D01*
X50195528Y-51752893D01*
X50297713Y-51684615D01*
X50384615Y-51597713D01*
X50411685Y-51557200D01*
X51952043Y-51557200D01*
X52042800Y-51647957D01*
X52042801Y-51982454D01*
X52041073Y-52000000D01*
X52047969Y-52070023D01*
X52068394Y-52137355D01*
X52083509Y-52165633D01*
X52101563Y-52199410D01*
X52110477Y-52210271D01*
X52135016Y-52240173D01*
X52135023Y-52240180D01*
X52146201Y-52253800D01*
X52159821Y-52264978D01*
X55735018Y-55840175D01*
X55746200Y-55853800D01*
X55800590Y-55898438D01*
X55862644Y-55931606D01*
X55929977Y-55952031D01*
X55982456Y-55957200D01*
X55982472Y-55957200D01*
X55999998Y-55958926D01*
X56017524Y-55957200D01*
X69510031Y-55957200D01*
X69527567Y-55958927D01*
X69545103Y-55957200D01*
X69545111Y-55957200D01*
X69597590Y-55952031D01*
X69664923Y-55931606D01*
X69711749Y-55906577D01*
X69752287Y-55947115D01*
X69854472Y-56015393D01*
X69968015Y-56062424D01*
X70088551Y-56086400D01*
X70211449Y-56086400D01*
X70331985Y-56062424D01*
X70445528Y-56015393D01*
X70547713Y-55947115D01*
X70634615Y-55860213D01*
X70702893Y-55758028D01*
X70749924Y-55644485D01*
X70773900Y-55523949D01*
X70773900Y-55401051D01*
X70749924Y-55280515D01*
X70715797Y-55198125D01*
X70802287Y-55284615D01*
X70904472Y-55352893D01*
X71018015Y-55399924D01*
X71138551Y-55423900D01*
X71261449Y-55423900D01*
X71381985Y-55399924D01*
X71495528Y-55352893D01*
X71597713Y-55284615D01*
X71684615Y-55197713D01*
X71752893Y-55095528D01*
X71776100Y-55039501D01*
X71776100Y-55061449D01*
X71800076Y-55181985D01*
X71847107Y-55295528D01*
X71915385Y-55397713D01*
X72002287Y-55484615D01*
X72104472Y-55552893D01*
X72218015Y-55599924D01*
X72338551Y-55623900D01*
X72461449Y-55623900D01*
X72581985Y-55599924D01*
X72695528Y-55552893D01*
X72797713Y-55484615D01*
X72884615Y-55397713D01*
X72952893Y-55295528D01*
X72999924Y-55181985D01*
X73023900Y-55061449D01*
X73023900Y-54938551D01*
X72999924Y-54818015D01*
X72974734Y-54757200D01*
X73422483Y-54757200D01*
X73549607Y-54884324D01*
X73540101Y-54932112D01*
X73540101Y-55055010D01*
X73564077Y-55175546D01*
X73611108Y-55289089D01*
X73679386Y-55391274D01*
X73766288Y-55478176D01*
X73868473Y-55546454D01*
X73982016Y-55593485D01*
X74102552Y-55617461D01*
X74225450Y-55617461D01*
X74345986Y-55593485D01*
X74459529Y-55546454D01*
X74561714Y-55478176D01*
X74648616Y-55391274D01*
X74716894Y-55289089D01*
X74763925Y-55175546D01*
X74787901Y-55055010D01*
X74787901Y-54932112D01*
X74763925Y-54811576D01*
X74716894Y-54698033D01*
X74648616Y-54595848D01*
X74561714Y-54508946D01*
X74459529Y-54440668D01*
X74345986Y-54393637D01*
X74225450Y-54369661D01*
X74102552Y-54369661D01*
X74054764Y-54379167D01*
X73835422Y-54159825D01*
X73824240Y-54146200D01*
X73769850Y-54101562D01*
X73707796Y-54068394D01*
X73640463Y-54047969D01*
X73587984Y-54042800D01*
X73587976Y-54042800D01*
X73570440Y-54041073D01*
X73552904Y-54042800D01*
X72455911Y-54042800D01*
X71572936Y-53159825D01*
X71561754Y-53146200D01*
X71507364Y-53101562D01*
X71445310Y-53068394D01*
X71377977Y-53047969D01*
X71325498Y-53042800D01*
X71325490Y-53042800D01*
X71307954Y-53041073D01*
X71290418Y-53042800D01*
X69655403Y-53042800D01*
X69637867Y-53041073D01*
X69620331Y-53042800D01*
X69620324Y-53042800D01*
X69574584Y-53047305D01*
X69567844Y-53047969D01*
X69500512Y-53068394D01*
X69438458Y-53101562D01*
X69384068Y-53146200D01*
X69372886Y-53159825D01*
X68589911Y-53942800D01*
X56572221Y-53942800D01*
X54462010Y-51832589D01*
X54462010Y-50491279D01*
X54463737Y-50473743D01*
X54462010Y-50456207D01*
X54462010Y-50456200D01*
X54456841Y-50403721D01*
X54455892Y-50400590D01*
X54436416Y-50336388D01*
X54429741Y-50323900D01*
X54403248Y-50274334D01*
X54358610Y-50219944D01*
X54344985Y-50208762D01*
X53691238Y-49555015D01*
X53680056Y-49541390D01*
X53625666Y-49496752D01*
X53563612Y-49463584D01*
X53496279Y-49443159D01*
X53443800Y-49437990D01*
X53443792Y-49437990D01*
X53426256Y-49436263D01*
X53408720Y-49437990D01*
X53043147Y-49437990D01*
X52972267Y-49367110D01*
X52972267Y-48817535D01*
X52973994Y-48799999D01*
X52972267Y-48782463D01*
X52972267Y-48782456D01*
X52967098Y-48729977D01*
X52946673Y-48662644D01*
X52937272Y-48645056D01*
X52984615Y-48597713D01*
X53052893Y-48495528D01*
X53099924Y-48381985D01*
X53123900Y-48261449D01*
X53123900Y-48138551D01*
X53099924Y-48018015D01*
X53052893Y-47904472D01*
X52984615Y-47802287D01*
X52897713Y-47715385D01*
X52795528Y-47647107D01*
X52681985Y-47600076D01*
X52561449Y-47576100D01*
X52438551Y-47576100D01*
X52318015Y-47600076D01*
X52204472Y-47647107D01*
X52102287Y-47715385D01*
X52015385Y-47802287D01*
X51947107Y-47904472D01*
X51900076Y-48018015D01*
X51876100Y-48138551D01*
X51876100Y-48261449D01*
X51900076Y-48381985D01*
X51939060Y-48476100D01*
X51938551Y-48476100D01*
X51818015Y-48500076D01*
X51704472Y-48547107D01*
X51602287Y-48615385D01*
X51515385Y-48702287D01*
X51447107Y-48804472D01*
X51400076Y-48918015D01*
X51376100Y-49038551D01*
X51376100Y-49161449D01*
X51400076Y-49281985D01*
X51439060Y-49376100D01*
X51438551Y-49376100D01*
X51318015Y-49400076D01*
X51204472Y-49447107D01*
X51102287Y-49515385D01*
X51015385Y-49602287D01*
X50947107Y-49704472D01*
X50900076Y-49818015D01*
X50876100Y-49938551D01*
X50876100Y-49979014D01*
X50861449Y-49976100D01*
X50738551Y-49976100D01*
X50618015Y-50000076D01*
X50504472Y-50047107D01*
X50402287Y-50115385D01*
X50315385Y-50202287D01*
X50247107Y-50304472D01*
X50200076Y-50418015D01*
X50176100Y-50538551D01*
X50176100Y-50639060D01*
X50081985Y-50600076D01*
X49961449Y-50576100D01*
X49838551Y-50576100D01*
X49718015Y-50600076D01*
X49604472Y-50647107D01*
X49502287Y-50715385D01*
X49415385Y-50802287D01*
X49347107Y-50904472D01*
X49300076Y-51018015D01*
X49276100Y-51138551D01*
X36857200Y-51138551D01*
X36857200Y-51002468D01*
X36858927Y-50984932D01*
X36857200Y-50967396D01*
X36857200Y-50967389D01*
X36852031Y-50914910D01*
X36847983Y-50901563D01*
X36831606Y-50847577D01*
X36829053Y-50842800D01*
X36798438Y-50785523D01*
X36779661Y-50762644D01*
X36764983Y-50744759D01*
X36764978Y-50744754D01*
X36753799Y-50731133D01*
X36740179Y-50719955D01*
X35751276Y-49731052D01*
X35784615Y-49697713D01*
X35852893Y-49595528D01*
X35899924Y-49481985D01*
X35923900Y-49361449D01*
X35923900Y-49238551D01*
X35899924Y-49118015D01*
X35852893Y-49004472D01*
X35784615Y-48902287D01*
X35697713Y-48815385D01*
X35595528Y-48747107D01*
X35481985Y-48700076D01*
X35361449Y-48676100D01*
X35238551Y-48676100D01*
X35118015Y-48700076D01*
X35004472Y-48747107D01*
X34902287Y-48815385D01*
X34815385Y-48902287D01*
X34747107Y-49004472D01*
X34700076Y-49118015D01*
X34676100Y-49238551D01*
X25356000Y-49238551D01*
X25356000Y-41627000D01*
X34821843Y-41627000D01*
X36562484Y-43367641D01*
X36150000Y-43367641D01*
X36094914Y-43373066D01*
X36041946Y-43389134D01*
X35993130Y-43415227D01*
X35950342Y-43450342D01*
X35915227Y-43493130D01*
X35889134Y-43541946D01*
X35873066Y-43594914D01*
X35867641Y-43650000D01*
X35867641Y-45350000D01*
X35873066Y-45405086D01*
X35889134Y-45458054D01*
X35915227Y-45506870D01*
X35950342Y-45549658D01*
X35993130Y-45584773D01*
X36041946Y-45610866D01*
X36094914Y-45626934D01*
X36150000Y-45632359D01*
X37850000Y-45632359D01*
X37905086Y-45626934D01*
X37958054Y-45610866D01*
X38006870Y-45584773D01*
X38049658Y-45549658D01*
X38084773Y-45506870D01*
X38110866Y-45458054D01*
X38126934Y-45405086D01*
X38132359Y-45350000D01*
X38132359Y-43650000D01*
X38126934Y-43594914D01*
X38110866Y-43541946D01*
X38084773Y-43493130D01*
X38049658Y-43450342D01*
X38006870Y-43415227D01*
X37958054Y-43389134D01*
X37905086Y-43373066D01*
X37850000Y-43367641D01*
X37357200Y-43367641D01*
X37357200Y-43317535D01*
X37358927Y-43299999D01*
X37357200Y-43282463D01*
X37357200Y-43282456D01*
X37352031Y-43229977D01*
X37331606Y-43162644D01*
X37298438Y-43100590D01*
X37273351Y-43070023D01*
X37264983Y-43059826D01*
X37264978Y-43059821D01*
X37253799Y-43046200D01*
X37240179Y-43035022D01*
X35832157Y-41627000D01*
X39182800Y-41627000D01*
X39182801Y-43426464D01*
X39105091Y-43450037D01*
X38908610Y-43555058D01*
X38736393Y-43696393D01*
X38595058Y-43868610D01*
X38490037Y-44065091D01*
X38425365Y-44278285D01*
X38403528Y-44500000D01*
X38425365Y-44721715D01*
X38490037Y-44934909D01*
X38595058Y-45131390D01*
X38736393Y-45303607D01*
X38908610Y-45444942D01*
X39105091Y-45549963D01*
X39318285Y-45614635D01*
X39484442Y-45631000D01*
X39595558Y-45631000D01*
X39761715Y-45614635D01*
X39974909Y-45549963D01*
X40171390Y-45444942D01*
X40343607Y-45303607D01*
X40484942Y-45131390D01*
X40589963Y-44934909D01*
X40654635Y-44721715D01*
X40676472Y-44500000D01*
X40654635Y-44278285D01*
X40589963Y-44065091D01*
X40484942Y-43868610D01*
X40343607Y-43696393D01*
X40171390Y-43555058D01*
X39974909Y-43450037D01*
X39897200Y-43426464D01*
X39897200Y-41627000D01*
X44447843Y-41627000D01*
X42586526Y-43488317D01*
X42514909Y-43450037D01*
X42301715Y-43385365D01*
X42135558Y-43369000D01*
X42024442Y-43369000D01*
X41858285Y-43385365D01*
X41645091Y-43450037D01*
X41448610Y-43555058D01*
X41276393Y-43696393D01*
X41135058Y-43868610D01*
X41030037Y-44065091D01*
X40965365Y-44278285D01*
X40943528Y-44500000D01*
X40965365Y-44721715D01*
X41030037Y-44934909D01*
X41135058Y-45131390D01*
X41276393Y-45303607D01*
X41448610Y-45444942D01*
X41645091Y-45549963D01*
X41858285Y-45614635D01*
X42024442Y-45631000D01*
X42135558Y-45631000D01*
X42301715Y-45614635D01*
X42514909Y-45549963D01*
X42711390Y-45444942D01*
X42883607Y-45303607D01*
X43024942Y-45131390D01*
X43129963Y-44934909D01*
X43194635Y-44721715D01*
X43216472Y-44500000D01*
X43194635Y-44278285D01*
X43129963Y-44065091D01*
X43091683Y-43993474D01*
X45127957Y-41957200D01*
X45237643Y-41957200D01*
X44379821Y-42815022D01*
X44366200Y-42826201D01*
X44355022Y-42839821D01*
X44355016Y-42839827D01*
X44337418Y-42861271D01*
X44321562Y-42880591D01*
X44295165Y-42929977D01*
X44288394Y-42942645D01*
X44270996Y-43000000D01*
X44267969Y-43009978D01*
X44262800Y-43062457D01*
X44262800Y-43062464D01*
X44261073Y-43080000D01*
X44262800Y-43097536D01*
X44262800Y-43426464D01*
X44185091Y-43450037D01*
X43988610Y-43555058D01*
X43816393Y-43696393D01*
X43675058Y-43868610D01*
X43570037Y-44065091D01*
X43505365Y-44278285D01*
X43483528Y-44500000D01*
X43505365Y-44721715D01*
X43570037Y-44934909D01*
X43675058Y-45131390D01*
X43816393Y-45303607D01*
X43988610Y-45444942D01*
X44185091Y-45549963D01*
X44398285Y-45614635D01*
X44564442Y-45631000D01*
X44675558Y-45631000D01*
X44841715Y-45614635D01*
X45054909Y-45549963D01*
X45251390Y-45444942D01*
X45423607Y-45303607D01*
X45564942Y-45131390D01*
X45669963Y-44934909D01*
X45734635Y-44721715D01*
X45756472Y-44500000D01*
X48563528Y-44500000D01*
X48585365Y-44721715D01*
X48650037Y-44934909D01*
X48755058Y-45131390D01*
X48896393Y-45303607D01*
X49068610Y-45444942D01*
X49265091Y-45549963D01*
X49478285Y-45614635D01*
X49644442Y-45631000D01*
X49755558Y-45631000D01*
X49921715Y-45614635D01*
X50134909Y-45549963D01*
X50331390Y-45444942D01*
X50503607Y-45303607D01*
X50644942Y-45131390D01*
X50749963Y-44934909D01*
X50814635Y-44721715D01*
X50836472Y-44500000D01*
X50814635Y-44278285D01*
X50749963Y-44065091D01*
X50644942Y-43868610D01*
X50503607Y-43696393D01*
X50331390Y-43555058D01*
X50134909Y-43450037D01*
X49921715Y-43385365D01*
X49755558Y-43369000D01*
X49644442Y-43369000D01*
X49478285Y-43385365D01*
X49265091Y-43450037D01*
X49068610Y-43555058D01*
X48896393Y-43696393D01*
X48755058Y-43868610D01*
X48650037Y-44065091D01*
X48585365Y-44278285D01*
X48563528Y-44500000D01*
X45756472Y-44500000D01*
X45734635Y-44278285D01*
X45669963Y-44065091D01*
X45564942Y-43868610D01*
X45423607Y-43696393D01*
X45251390Y-43555058D01*
X45054909Y-43450037D01*
X44977200Y-43426464D01*
X44977200Y-43227957D01*
X45943147Y-42262010D01*
X50737220Y-42262010D01*
X50754756Y-42263737D01*
X50772292Y-42262010D01*
X50772300Y-42262010D01*
X50824779Y-42256841D01*
X50892112Y-42236416D01*
X50954166Y-42203248D01*
X51008556Y-42158610D01*
X51019740Y-42144983D01*
X51537723Y-41627000D01*
X55367843Y-41627000D01*
X54259821Y-42735022D01*
X54246201Y-42746200D01*
X54235023Y-42759820D01*
X54235016Y-42759827D01*
X54217179Y-42781562D01*
X54201563Y-42800590D01*
X54187874Y-42826201D01*
X54168394Y-42862645D01*
X54147969Y-42929977D01*
X54141073Y-43000000D01*
X54142801Y-43017546D01*
X54142800Y-43988315D01*
X54102287Y-44015385D01*
X54015385Y-44102287D01*
X53947107Y-44204472D01*
X53900076Y-44318015D01*
X53876100Y-44438551D01*
X53876100Y-44561449D01*
X53900076Y-44681985D01*
X53947107Y-44795528D01*
X54015385Y-44897713D01*
X54102287Y-44984615D01*
X54204472Y-45052893D01*
X54318015Y-45099924D01*
X54438551Y-45123900D01*
X54561449Y-45123900D01*
X54681985Y-45099924D01*
X54795528Y-45052893D01*
X54897713Y-44984615D01*
X54984615Y-44897713D01*
X55052893Y-44795528D01*
X55099924Y-44681985D01*
X55123900Y-44561449D01*
X55123900Y-44438551D01*
X55099924Y-44318015D01*
X55052893Y-44204472D01*
X54984615Y-44102287D01*
X54897713Y-44015385D01*
X54874688Y-44000000D01*
X58219000Y-44000000D01*
X58219000Y-51000000D01*
X58240390Y-51107534D01*
X58301303Y-51198697D01*
X58392466Y-51259610D01*
X58500000Y-51281000D01*
X64000000Y-51281000D01*
X64107534Y-51259610D01*
X64198697Y-51198697D01*
X65758843Y-49638551D01*
X77476100Y-49638551D01*
X77476100Y-49761449D01*
X77500076Y-49881985D01*
X77547107Y-49995528D01*
X77615385Y-50097713D01*
X77702287Y-50184615D01*
X77804472Y-50252893D01*
X77842801Y-50268769D01*
X77842800Y-52088315D01*
X77802287Y-52115385D01*
X77715385Y-52202287D01*
X77647107Y-52304472D01*
X77600076Y-52418015D01*
X77576100Y-52538551D01*
X77576100Y-52661449D01*
X77600076Y-52781985D01*
X77647107Y-52895528D01*
X77715385Y-52997713D01*
X77802287Y-53084615D01*
X77904472Y-53152893D01*
X78018015Y-53199924D01*
X78138551Y-53223900D01*
X78261449Y-53223900D01*
X78381985Y-53199924D01*
X78495528Y-53152893D01*
X78597713Y-53084615D01*
X78684615Y-52997713D01*
X78752893Y-52895528D01*
X78799924Y-52781985D01*
X78823900Y-52661449D01*
X78823900Y-52538551D01*
X78799924Y-52418015D01*
X78752893Y-52304472D01*
X78684615Y-52202287D01*
X78597713Y-52115385D01*
X78557200Y-52088315D01*
X78557200Y-50125128D01*
X78584615Y-50097713D01*
X78652893Y-49995528D01*
X78699924Y-49881985D01*
X78723900Y-49761449D01*
X78723900Y-49638551D01*
X78699924Y-49518015D01*
X78652893Y-49404472D01*
X78584615Y-49302287D01*
X78497713Y-49215385D01*
X78395528Y-49147107D01*
X78281985Y-49100076D01*
X78161449Y-49076100D01*
X78038551Y-49076100D01*
X77918015Y-49100076D01*
X77804472Y-49147107D01*
X77702287Y-49215385D01*
X77615385Y-49302287D01*
X77547107Y-49404472D01*
X77500076Y-49518015D01*
X77476100Y-49638551D01*
X65758843Y-49638551D01*
X68616394Y-46781000D01*
X93383606Y-46781000D01*
X99301303Y-52698697D01*
X99392466Y-52759610D01*
X99500000Y-52781000D01*
X102000000Y-52781000D01*
X102107534Y-52759610D01*
X102198697Y-52698697D01*
X102259610Y-52607534D01*
X102281000Y-52500000D01*
X102281000Y-43500000D01*
X102259610Y-43392466D01*
X102198697Y-43301303D01*
X99198697Y-40301303D01*
X99107534Y-40240390D01*
X99000000Y-40219000D01*
X98892466Y-40240390D01*
X98801303Y-40301303D01*
X95383606Y-43719000D01*
X58500000Y-43719000D01*
X58392466Y-43740390D01*
X58301303Y-43801303D01*
X58240390Y-43892466D01*
X58219000Y-44000000D01*
X54874688Y-44000000D01*
X54857200Y-43988315D01*
X54857200Y-43147957D01*
X55066606Y-42938551D01*
X79176100Y-42938551D01*
X79176100Y-43061449D01*
X79200076Y-43181985D01*
X79247107Y-43295528D01*
X79315385Y-43397713D01*
X79402287Y-43484615D01*
X79504472Y-43552893D01*
X79618015Y-43599924D01*
X79738551Y-43623900D01*
X79861449Y-43623900D01*
X79981985Y-43599924D01*
X80095528Y-43552893D01*
X80197713Y-43484615D01*
X80284615Y-43397713D01*
X80311685Y-43357200D01*
X80782464Y-43357200D01*
X80800000Y-43358927D01*
X80817536Y-43357200D01*
X80817544Y-43357200D01*
X80870023Y-43352031D01*
X80937356Y-43331606D01*
X80999410Y-43298438D01*
X81053800Y-43253800D01*
X81064982Y-43240175D01*
X83790763Y-40514394D01*
X83838551Y-40523900D01*
X83961449Y-40523900D01*
X84081985Y-40499924D01*
X84195528Y-40452893D01*
X84297713Y-40384615D01*
X84384615Y-40297713D01*
X84452893Y-40195528D01*
X84499924Y-40081985D01*
X84523900Y-39961449D01*
X84523900Y-39838551D01*
X84499924Y-39718015D01*
X84452893Y-39604472D01*
X84384615Y-39502287D01*
X84297713Y-39415385D01*
X84195528Y-39347107D01*
X84081985Y-39300076D01*
X83961449Y-39276100D01*
X83838551Y-39276100D01*
X83718015Y-39300076D01*
X83604472Y-39347107D01*
X83502287Y-39415385D01*
X83415385Y-39502287D01*
X83347107Y-39604472D01*
X83300076Y-39718015D01*
X83276100Y-39838551D01*
X83276100Y-39961449D01*
X83285606Y-40009237D01*
X80652043Y-42642800D01*
X80311685Y-42642800D01*
X80284615Y-42602287D01*
X80197713Y-42515385D01*
X80095528Y-42447107D01*
X79981985Y-42400076D01*
X79861449Y-42376100D01*
X79738551Y-42376100D01*
X79618015Y-42400076D01*
X79504472Y-42447107D01*
X79402287Y-42515385D01*
X79315385Y-42602287D01*
X79247107Y-42704472D01*
X79200076Y-42818015D01*
X79176100Y-42938551D01*
X55066606Y-42938551D01*
X56247957Y-41757200D01*
X72482464Y-41757200D01*
X72500000Y-41758927D01*
X72517536Y-41757200D01*
X72517544Y-41757200D01*
X72570023Y-41752031D01*
X72637356Y-41731606D01*
X72699410Y-41698438D01*
X72753800Y-41653800D01*
X72764984Y-41640173D01*
X74697280Y-39707877D01*
X74710900Y-39696699D01*
X74722079Y-39683078D01*
X74722085Y-39683072D01*
X74739738Y-39661562D01*
X74755539Y-39642309D01*
X74788707Y-39580255D01*
X74809132Y-39512922D01*
X74814301Y-39460443D01*
X74814301Y-39460435D01*
X74816028Y-39442899D01*
X74814301Y-39425363D01*
X74814301Y-38423900D01*
X74861449Y-38423900D01*
X74981985Y-38399924D01*
X75095528Y-38352893D01*
X75197713Y-38284615D01*
X75284615Y-38197713D01*
X75352893Y-38095528D01*
X75399924Y-37981985D01*
X75423900Y-37861449D01*
X75423900Y-37738551D01*
X75399924Y-37618015D01*
X75352893Y-37504472D01*
X75284615Y-37402287D01*
X75197713Y-37315385D01*
X75095528Y-37247107D01*
X74981985Y-37200076D01*
X74861449Y-37176100D01*
X74738551Y-37176100D01*
X74618015Y-37200076D01*
X74504472Y-37247107D01*
X74402287Y-37315385D01*
X74315385Y-37402287D01*
X74247107Y-37504472D01*
X74200076Y-37618015D01*
X74176100Y-37738551D01*
X74176100Y-37861449D01*
X74185833Y-37910383D01*
X74171676Y-37927634D01*
X74158664Y-37943489D01*
X74140935Y-37976658D01*
X74125495Y-38005544D01*
X74105070Y-38072876D01*
X74098174Y-38142899D01*
X74099902Y-38160445D01*
X74099901Y-39294942D01*
X72627000Y-40767843D01*
X72627000Y-30356000D01*
X90452541Y-30356000D01*
X98335919Y-38239380D01*
G04 #@! TO.N,+5V*
G36*
X101873000Y-43552606D02*
X101873000Y-52373000D01*
X99552606Y-52373000D01*
X93589803Y-46410197D01*
X93570557Y-46394403D01*
X93548601Y-46382667D01*
X93524776Y-46375440D01*
X93500000Y-46373000D01*
X68500000Y-46373000D01*
X68475224Y-46375440D01*
X68451399Y-46382667D01*
X68429443Y-46394403D01*
X68410197Y-46410197D01*
X63947394Y-50873000D01*
X58627000Y-50873000D01*
X58627000Y-44127000D01*
X95500000Y-44127000D01*
X95524776Y-44124560D01*
X95548601Y-44117333D01*
X95570557Y-44105597D01*
X95589803Y-44089803D01*
X99000000Y-40679606D01*
X101873000Y-43552606D01*
X101873000Y-43552606D01*
G37*
X101873000Y-43552606D02*
X101873000Y-52373000D01*
X99552606Y-52373000D01*
X93589803Y-46410197D01*
X93570557Y-46394403D01*
X93548601Y-46382667D01*
X93524776Y-46375440D01*
X93500000Y-46373000D01*
X68500000Y-46373000D01*
X68475224Y-46375440D01*
X68451399Y-46382667D01*
X68429443Y-46394403D01*
X68410197Y-46410197D01*
X63947394Y-50873000D01*
X58627000Y-50873000D01*
X58627000Y-44127000D01*
X95500000Y-44127000D01*
X95524776Y-44124560D01*
X95548601Y-44117333D01*
X95570557Y-44105597D01*
X95589803Y-44089803D01*
X99000000Y-40679606D01*
X101873000Y-43552606D01*
G04 #@! TO.N,+3V3*
G36*
X84873000Y-59947394D02*
X77947394Y-66873000D01*
X75127000Y-66873000D01*
X75127000Y-64627000D01*
X78000000Y-64627000D01*
X78024776Y-64624560D01*
X78048601Y-64617333D01*
X78070557Y-64605597D01*
X78089803Y-64589803D01*
X81589803Y-61089803D01*
X81605597Y-61070557D01*
X81617333Y-61048601D01*
X81624560Y-61024776D01*
X81627000Y-61000000D01*
X81627000Y-57678157D01*
X81678157Y-57627000D01*
X84873000Y-57627000D01*
X84873000Y-59947394D01*
X84873000Y-59947394D01*
G37*
X84873000Y-59947394D02*
X77947394Y-66873000D01*
X75127000Y-66873000D01*
X75127000Y-64627000D01*
X78000000Y-64627000D01*
X78024776Y-64624560D01*
X78048601Y-64617333D01*
X78070557Y-64605597D01*
X78089803Y-64589803D01*
X81589803Y-61089803D01*
X81605597Y-61070557D01*
X81617333Y-61048601D01*
X81624560Y-61024776D01*
X81627000Y-61000000D01*
X81627000Y-57678157D01*
X81678157Y-57627000D01*
X84873000Y-57627000D01*
X84873000Y-59947394D01*
G04 #@! TD*
M02*
