G04 #@! TF.GenerationSoftware,KiCad,Pcbnew,(5.0.1)-3*
G04 #@! TF.CreationDate,2019-03-22T12:18:06+08:00*
G04 #@! TF.ProjectId,tomu-fpga,746F6D752D667067612E6B696361645F,rev?*
G04 #@! TF.SameCoordinates,Original*
G04 #@! TF.FileFunction,Profile,NP*
%FSLAX45Y45*%
G04 Gerber Fmt 4.5, Leading zero omitted, Abs format (unit mm)*
G04 Created by KiCad (PCBNEW (5.0.1)-3) date 03/22/19 12:18:06*
%MOMM*%
%LPD*%
G01*
G04 APERTURE LIST*
%ADD10C,0.010000*%
%ADD11C,0.050000*%
G04 APERTURE END LIST*
D10*
X2932500Y-2265000D02*
G75*
G02X2812500Y-2265000I-60000J0D01*
G01*
X2932500Y-2095000D02*
G75*
G03X2812500Y-2095000I-60000J0D01*
G01*
X2812500Y-2095000D02*
G75*
G03X2812500Y-2265000I0J-85000D01*
G01*
D11*
X2850000Y-2650000D02*
G75*
G03X2690000Y-2650000I-80000J0D01*
G01*
X2850000Y-2650000D02*
X2952500Y-2650000D01*
D10*
X2932500Y-2095000D02*
X2932500Y-2265000D01*
D11*
X1752500Y-1710000D02*
G75*
G03X1702500Y-1760000I0J-50000D01*
G01*
X1702500Y-2600000D02*
G75*
G03X1752500Y-2650000I50000J0D01*
G01*
X1702500Y-1760000D02*
X1702500Y-2600000D01*
X2952500Y-1710000D02*
X1752500Y-1710000D01*
X1752500Y-2650000D02*
X2690000Y-2650000D01*
X3002500Y-2180000D02*
X3002500Y-2167000D01*
X3002500Y-2167000D02*
X3002500Y-2153000D01*
X3002500Y-2153000D02*
X3002500Y-2140000D01*
X3002500Y-2140000D02*
X3002500Y-2126000D01*
X3002500Y-2126000D02*
X3001500Y-2113000D01*
X3001500Y-2113000D02*
X3001500Y-2099000D01*
X3001500Y-2099000D02*
X3001500Y-2086000D01*
X3001500Y-2086000D02*
X3000500Y-2073000D01*
X3000500Y-2073000D02*
X3000500Y-2059000D01*
X3000500Y-2059000D02*
X2999500Y-2046000D01*
X2999500Y-2046000D02*
X2998500Y-2033000D01*
X2998500Y-2033000D02*
X2998500Y-2020000D01*
X2998500Y-2020000D02*
X2997500Y-2007000D01*
X2997500Y-2007000D02*
X2996500Y-1995000D01*
X2996500Y-1995000D02*
X2995500Y-1982000D01*
X2995500Y-1982000D02*
X2994500Y-1970000D01*
X2994500Y-1970000D02*
X2993500Y-1957000D01*
X2993500Y-1957000D02*
X2992500Y-1945000D01*
X2992500Y-1945000D02*
X2991500Y-1933000D01*
X2991500Y-1933000D02*
X2990500Y-1921000D01*
X2990500Y-1921000D02*
X2989500Y-1909000D01*
X2989500Y-1909000D02*
X2988500Y-1897000D01*
X2988500Y-1897000D02*
X2986500Y-1886000D01*
X2986500Y-1886000D02*
X2985500Y-1874000D01*
X2985500Y-1874000D02*
X2984500Y-1863000D01*
X2984500Y-1863000D02*
X2982500Y-1852000D01*
X2982500Y-1852000D02*
X2981500Y-1842000D01*
X2981500Y-1842000D02*
X2979500Y-1831000D01*
X2979500Y-1831000D02*
X2978500Y-1821000D01*
X2978500Y-1821000D02*
X2976500Y-1811000D01*
X2976500Y-1811000D02*
X2974500Y-1801000D01*
X2974500Y-1801000D02*
X2973500Y-1791000D01*
X2973500Y-1791000D02*
X2971500Y-1782000D01*
X2971500Y-1782000D02*
X2969500Y-1772000D01*
X2969500Y-1772000D02*
X2967500Y-1764000D01*
X2967500Y-1764000D02*
X2965500Y-1755000D01*
X2965500Y-1755000D02*
X2964500Y-1746000D01*
X2964500Y-1746000D02*
X2962500Y-1738000D01*
X2962500Y-1738000D02*
X2960500Y-1730000D01*
X2960500Y-1730000D02*
X2958500Y-1723000D01*
X2958500Y-1723000D02*
X2955500Y-1715000D01*
X2955500Y-1715000D02*
X2952500Y-1710000D01*
X2952500Y-2650000D02*
X2955500Y-2645000D01*
X2955500Y-2645000D02*
X2958500Y-2637000D01*
X2958500Y-2637000D02*
X2960500Y-2630000D01*
X2960500Y-2630000D02*
X2962500Y-2622000D01*
X2962500Y-2622000D02*
X2964500Y-2614000D01*
X2964500Y-2614000D02*
X2965500Y-2605000D01*
X2965500Y-2605000D02*
X2967500Y-2596000D01*
X2967500Y-2596000D02*
X2969500Y-2588000D01*
X2969500Y-2588000D02*
X2971500Y-2578000D01*
X2971500Y-2578000D02*
X2973500Y-2569000D01*
X2973500Y-2569000D02*
X2974500Y-2559000D01*
X2974500Y-2559000D02*
X2976500Y-2549000D01*
X2976500Y-2549000D02*
X2978500Y-2539000D01*
X2978500Y-2539000D02*
X2979500Y-2529000D01*
X2979500Y-2529000D02*
X2981500Y-2518000D01*
X2981500Y-2518000D02*
X2982500Y-2508000D01*
X2982500Y-2508000D02*
X2984500Y-2497000D01*
X2984500Y-2497000D02*
X2985500Y-2486000D01*
X2985500Y-2486000D02*
X2986500Y-2474000D01*
X2986500Y-2474000D02*
X2988500Y-2463000D01*
X2988500Y-2463000D02*
X2989500Y-2451000D01*
X2989500Y-2451000D02*
X2990500Y-2439000D01*
X2990500Y-2439000D02*
X2991500Y-2427000D01*
X2991500Y-2427000D02*
X2992500Y-2415000D01*
X2992500Y-2415000D02*
X2993500Y-2403000D01*
X2993500Y-2403000D02*
X2994500Y-2390000D01*
X2994500Y-2390000D02*
X2995500Y-2378000D01*
X2995500Y-2378000D02*
X2996500Y-2365000D01*
X2996500Y-2365000D02*
X2997500Y-2353000D01*
X2997500Y-2353000D02*
X2998500Y-2340000D01*
X2998500Y-2340000D02*
X2998500Y-2327000D01*
X2998500Y-2327000D02*
X2999500Y-2314000D01*
X2999500Y-2314000D02*
X3000500Y-2301000D01*
X3000500Y-2301000D02*
X3000500Y-2287000D01*
X3000500Y-2287000D02*
X3001500Y-2274000D01*
X3001500Y-2274000D02*
X3001500Y-2261000D01*
X3001500Y-2261000D02*
X3001500Y-2247000D01*
X3001500Y-2247000D02*
X3002500Y-2234000D01*
X3002500Y-2234000D02*
X3002500Y-2220000D01*
X3002500Y-2220000D02*
X3002500Y-2207000D01*
X3002500Y-2207000D02*
X3002500Y-2193000D01*
X3002500Y-2193000D02*
X3002500Y-2180000D01*
M02*
