G04 #@! TF.GenerationSoftware,KiCad,Pcbnew,(5.0.1)-3*
G04 #@! TF.CreationDate,2019-03-22T12:18:06+08:00*
G04 #@! TF.ProjectId,tomu-fpga,746F6D752D667067612E6B696361645F,rev?*
G04 #@! TF.SameCoordinates,Original*
G04 #@! TF.FileFunction,Paste,Bot*
G04 #@! TF.FilePolarity,Positive*
%FSLAX45Y45*%
G04 Gerber Fmt 4.5, Leading zero omitted, Abs format (unit mm)*
G04 Created by KiCad (PCBNEW (5.0.1)-3) date 03/22/19 12:18:06*
%MOMM*%
%LPD*%
G01*
G04 APERTURE LIST*
%ADD10R,0.800000X0.900000*%
%ADD11R,0.400000X0.400000*%
%ADD12C,0.200000*%
%ADD13C,0.230000*%
%ADD14C,0.100000*%
%ADD15C,0.590000*%
%ADD16C,0.318000*%
%ADD17C,0.140000*%
%ADD18R,0.200000X1.600000*%
%ADD19R,0.300000X0.250000*%
%ADD20C,0.450000*%
%ADD21C,0.148492*%
G04 APERTURE END LIST*
D10*
G04 #@! TO.C,U7*
X2277500Y-1979000D03*
X2132500Y-1979000D03*
X2132500Y-1794000D03*
X2277500Y-1794000D03*
G04 #@! TD*
D11*
G04 #@! TO.C,U10*
X2617000Y-2158000D03*
X2617000Y-2218000D03*
X2677000Y-2158000D03*
X2677000Y-2218000D03*
G04 #@! TD*
D12*
G04 #@! TO.C,U5*
X2520000Y-2170000D03*
D13*
X2480000Y-2170000D03*
D12*
X2520000Y-2210000D03*
D13*
X2480000Y-2210000D03*
D12*
X2480000Y-2090000D03*
D13*
X2480000Y-2130000D03*
D12*
X2520000Y-2130000D03*
X2520000Y-2090000D03*
X2480000Y-2290000D03*
D13*
X2480000Y-2250000D03*
D12*
X2520000Y-2290000D03*
X2520000Y-2250000D03*
X2360000Y-2090000D03*
X2360000Y-2130000D03*
X2360000Y-2170000D03*
X2360000Y-2290000D03*
X2360000Y-2250000D03*
X2360000Y-2210000D03*
X2400000Y-2090000D03*
D13*
X2400000Y-2130000D03*
X2400000Y-2170000D03*
D12*
X2400000Y-2290000D03*
D13*
X2400000Y-2250000D03*
X2400000Y-2210000D03*
X2440000Y-2090000D03*
D12*
X2440000Y-2130000D03*
D13*
X2440000Y-2170000D03*
X2440000Y-2290000D03*
D12*
X2440000Y-2250000D03*
D13*
X2440000Y-2210000D03*
G04 #@! TD*
D14*
G04 #@! TO.C,C22*
G36*
X2048696Y-2468071D02*
X2050128Y-2468283D01*
X2051532Y-2468635D01*
X2052895Y-2469123D01*
X2054203Y-2469742D01*
X2055445Y-2470486D01*
X2056607Y-2471348D01*
X2057680Y-2472320D01*
X2058652Y-2473393D01*
X2059514Y-2474555D01*
X2060258Y-2475797D01*
X2060877Y-2477105D01*
X2061365Y-2478468D01*
X2061717Y-2479872D01*
X2061929Y-2481304D01*
X2062000Y-2482750D01*
X2062000Y-2512250D01*
X2061929Y-2513696D01*
X2061717Y-2515128D01*
X2061365Y-2516532D01*
X2060877Y-2517895D01*
X2060258Y-2519203D01*
X2059514Y-2520445D01*
X2058652Y-2521607D01*
X2057680Y-2522680D01*
X2056607Y-2523652D01*
X2055445Y-2524514D01*
X2054203Y-2525258D01*
X2052895Y-2525877D01*
X2051532Y-2526365D01*
X2050128Y-2526717D01*
X2048696Y-2526929D01*
X2047250Y-2527000D01*
X2012750Y-2527000D01*
X2011304Y-2526929D01*
X2009872Y-2526717D01*
X2008468Y-2526365D01*
X2007105Y-2525877D01*
X2005797Y-2525258D01*
X2004555Y-2524514D01*
X2003393Y-2523652D01*
X2002320Y-2522680D01*
X2001348Y-2521607D01*
X2000486Y-2520445D01*
X1999742Y-2519203D01*
X1999123Y-2517895D01*
X1998635Y-2516532D01*
X1998283Y-2515128D01*
X1998071Y-2513696D01*
X1998000Y-2512250D01*
X1998000Y-2482750D01*
X1998071Y-2481304D01*
X1998283Y-2479872D01*
X1998635Y-2478468D01*
X1999123Y-2477105D01*
X1999742Y-2475797D01*
X2000486Y-2474555D01*
X2001348Y-2473393D01*
X2002320Y-2472320D01*
X2003393Y-2471348D01*
X2004555Y-2470486D01*
X2005797Y-2469742D01*
X2007105Y-2469123D01*
X2008468Y-2468635D01*
X2009872Y-2468283D01*
X2011304Y-2468071D01*
X2012750Y-2468000D01*
X2047250Y-2468000D01*
X2048696Y-2468071D01*
X2048696Y-2468071D01*
G37*
D15*
X2030000Y-2497500D03*
D14*
G36*
X2048696Y-2565071D02*
X2050128Y-2565283D01*
X2051532Y-2565635D01*
X2052895Y-2566123D01*
X2054203Y-2566742D01*
X2055445Y-2567486D01*
X2056607Y-2568348D01*
X2057680Y-2569320D01*
X2058652Y-2570393D01*
X2059514Y-2571555D01*
X2060258Y-2572797D01*
X2060877Y-2574105D01*
X2061365Y-2575468D01*
X2061717Y-2576872D01*
X2061929Y-2578304D01*
X2062000Y-2579750D01*
X2062000Y-2609250D01*
X2061929Y-2610696D01*
X2061717Y-2612128D01*
X2061365Y-2613532D01*
X2060877Y-2614895D01*
X2060258Y-2616203D01*
X2059514Y-2617445D01*
X2058652Y-2618607D01*
X2057680Y-2619680D01*
X2056607Y-2620652D01*
X2055445Y-2621514D01*
X2054203Y-2622258D01*
X2052895Y-2622877D01*
X2051532Y-2623365D01*
X2050128Y-2623717D01*
X2048696Y-2623929D01*
X2047250Y-2624000D01*
X2012750Y-2624000D01*
X2011304Y-2623929D01*
X2009872Y-2623717D01*
X2008468Y-2623365D01*
X2007105Y-2622877D01*
X2005797Y-2622258D01*
X2004555Y-2621514D01*
X2003393Y-2620652D01*
X2002320Y-2619680D01*
X2001348Y-2618607D01*
X2000486Y-2617445D01*
X1999742Y-2616203D01*
X1999123Y-2614895D01*
X1998635Y-2613532D01*
X1998283Y-2612128D01*
X1998071Y-2610696D01*
X1998000Y-2609250D01*
X1998000Y-2579750D01*
X1998071Y-2578304D01*
X1998283Y-2576872D01*
X1998635Y-2575468D01*
X1999123Y-2574105D01*
X1999742Y-2572797D01*
X2000486Y-2571555D01*
X2001348Y-2570393D01*
X2002320Y-2569320D01*
X2003393Y-2568348D01*
X2004555Y-2567486D01*
X2005797Y-2566742D01*
X2007105Y-2566123D01*
X2008468Y-2565635D01*
X2009872Y-2565283D01*
X2011304Y-2565071D01*
X2012750Y-2565000D01*
X2047250Y-2565000D01*
X2048696Y-2565071D01*
X2048696Y-2565071D01*
G37*
D15*
X2030000Y-2594500D03*
G04 #@! TD*
D14*
G04 #@! TO.C,C23*
G36*
X1885829Y-2533638D02*
X1886601Y-2533753D01*
X1887358Y-2533942D01*
X1888092Y-2534205D01*
X1888798Y-2534539D01*
X1889467Y-2534940D01*
X1890093Y-2535405D01*
X1890671Y-2535929D01*
X1891195Y-2536507D01*
X1891660Y-2537133D01*
X1892061Y-2537802D01*
X1892395Y-2538508D01*
X1892658Y-2539242D01*
X1892847Y-2539999D01*
X1892962Y-2540771D01*
X1893000Y-2541550D01*
X1893000Y-2557450D01*
X1892962Y-2558229D01*
X1892847Y-2559001D01*
X1892658Y-2559758D01*
X1892395Y-2560492D01*
X1892061Y-2561198D01*
X1891660Y-2561867D01*
X1891195Y-2562493D01*
X1890671Y-2563072D01*
X1890093Y-2563595D01*
X1889467Y-2564060D01*
X1888798Y-2564461D01*
X1888092Y-2564795D01*
X1887358Y-2565058D01*
X1886601Y-2565247D01*
X1885829Y-2565362D01*
X1885050Y-2565400D01*
X1864950Y-2565400D01*
X1864171Y-2565362D01*
X1863399Y-2565247D01*
X1862642Y-2565058D01*
X1861908Y-2564795D01*
X1861202Y-2564461D01*
X1860533Y-2564060D01*
X1859907Y-2563595D01*
X1859328Y-2563072D01*
X1858805Y-2562493D01*
X1858340Y-2561867D01*
X1857939Y-2561198D01*
X1857605Y-2560492D01*
X1857342Y-2559758D01*
X1857153Y-2559001D01*
X1857038Y-2558229D01*
X1857000Y-2557450D01*
X1857000Y-2541550D01*
X1857038Y-2540771D01*
X1857153Y-2539999D01*
X1857342Y-2539242D01*
X1857605Y-2538508D01*
X1857939Y-2537802D01*
X1858340Y-2537133D01*
X1858805Y-2536507D01*
X1859328Y-2535929D01*
X1859907Y-2535405D01*
X1860533Y-2534940D01*
X1861202Y-2534539D01*
X1861908Y-2534205D01*
X1862642Y-2533942D01*
X1863399Y-2533753D01*
X1864171Y-2533638D01*
X1864950Y-2533600D01*
X1885050Y-2533600D01*
X1885829Y-2533638D01*
X1885829Y-2533638D01*
G37*
D16*
X1875000Y-2549500D03*
D14*
G36*
X1885829Y-2464638D02*
X1886601Y-2464753D01*
X1887358Y-2464942D01*
X1888092Y-2465205D01*
X1888798Y-2465539D01*
X1889467Y-2465940D01*
X1890093Y-2466405D01*
X1890671Y-2466929D01*
X1891195Y-2467507D01*
X1891660Y-2468133D01*
X1892061Y-2468802D01*
X1892395Y-2469508D01*
X1892658Y-2470242D01*
X1892847Y-2470999D01*
X1892962Y-2471771D01*
X1893000Y-2472550D01*
X1893000Y-2488450D01*
X1892962Y-2489229D01*
X1892847Y-2490001D01*
X1892658Y-2490758D01*
X1892395Y-2491492D01*
X1892061Y-2492198D01*
X1891660Y-2492867D01*
X1891195Y-2493493D01*
X1890671Y-2494072D01*
X1890093Y-2494595D01*
X1889467Y-2495060D01*
X1888798Y-2495461D01*
X1888092Y-2495795D01*
X1887358Y-2496058D01*
X1886601Y-2496247D01*
X1885829Y-2496362D01*
X1885050Y-2496400D01*
X1864950Y-2496400D01*
X1864171Y-2496362D01*
X1863399Y-2496247D01*
X1862642Y-2496058D01*
X1861908Y-2495795D01*
X1861202Y-2495461D01*
X1860533Y-2495060D01*
X1859907Y-2494595D01*
X1859328Y-2494072D01*
X1858805Y-2493493D01*
X1858340Y-2492867D01*
X1857939Y-2492198D01*
X1857605Y-2491492D01*
X1857342Y-2490758D01*
X1857153Y-2490001D01*
X1857038Y-2489229D01*
X1857000Y-2488450D01*
X1857000Y-2472550D01*
X1857038Y-2471771D01*
X1857153Y-2470999D01*
X1857342Y-2470242D01*
X1857605Y-2469508D01*
X1857939Y-2468802D01*
X1858340Y-2468133D01*
X1858805Y-2467507D01*
X1859328Y-2466929D01*
X1859907Y-2466405D01*
X1860533Y-2465940D01*
X1861202Y-2465539D01*
X1861908Y-2465205D01*
X1862642Y-2464942D01*
X1863399Y-2464753D01*
X1864171Y-2464638D01*
X1864950Y-2464600D01*
X1885050Y-2464600D01*
X1885829Y-2464638D01*
X1885829Y-2464638D01*
G37*
D16*
X1875000Y-2480500D03*
G04 #@! TD*
D14*
G04 #@! TO.C,R10*
G36*
X1955829Y-2534138D02*
X1956601Y-2534253D01*
X1957358Y-2534442D01*
X1958092Y-2534705D01*
X1958798Y-2535039D01*
X1959467Y-2535440D01*
X1960093Y-2535905D01*
X1960671Y-2536429D01*
X1961195Y-2537007D01*
X1961660Y-2537633D01*
X1962061Y-2538302D01*
X1962395Y-2539008D01*
X1962658Y-2539742D01*
X1962847Y-2540499D01*
X1962962Y-2541271D01*
X1963000Y-2542050D01*
X1963000Y-2557950D01*
X1962962Y-2558729D01*
X1962847Y-2559501D01*
X1962658Y-2560258D01*
X1962395Y-2560992D01*
X1962061Y-2561698D01*
X1961660Y-2562367D01*
X1961195Y-2562993D01*
X1960671Y-2563572D01*
X1960093Y-2564095D01*
X1959467Y-2564560D01*
X1958798Y-2564961D01*
X1958092Y-2565295D01*
X1957358Y-2565558D01*
X1956601Y-2565747D01*
X1955829Y-2565862D01*
X1955050Y-2565900D01*
X1934950Y-2565900D01*
X1934171Y-2565862D01*
X1933399Y-2565747D01*
X1932642Y-2565558D01*
X1931908Y-2565295D01*
X1931202Y-2564961D01*
X1930533Y-2564560D01*
X1929907Y-2564095D01*
X1929328Y-2563572D01*
X1928805Y-2562993D01*
X1928340Y-2562367D01*
X1927939Y-2561698D01*
X1927605Y-2560992D01*
X1927342Y-2560258D01*
X1927153Y-2559501D01*
X1927038Y-2558729D01*
X1927000Y-2557950D01*
X1927000Y-2542050D01*
X1927038Y-2541271D01*
X1927153Y-2540499D01*
X1927342Y-2539742D01*
X1927605Y-2539008D01*
X1927939Y-2538302D01*
X1928340Y-2537633D01*
X1928805Y-2537007D01*
X1929328Y-2536429D01*
X1929907Y-2535905D01*
X1930533Y-2535440D01*
X1931202Y-2535039D01*
X1931908Y-2534705D01*
X1932642Y-2534442D01*
X1933399Y-2534253D01*
X1934171Y-2534138D01*
X1934950Y-2534100D01*
X1955050Y-2534100D01*
X1955829Y-2534138D01*
X1955829Y-2534138D01*
G37*
D16*
X1945000Y-2550000D03*
D14*
G36*
X1955829Y-2465138D02*
X1956601Y-2465253D01*
X1957358Y-2465442D01*
X1958092Y-2465705D01*
X1958798Y-2466039D01*
X1959467Y-2466440D01*
X1960093Y-2466905D01*
X1960671Y-2467429D01*
X1961195Y-2468007D01*
X1961660Y-2468633D01*
X1962061Y-2469302D01*
X1962395Y-2470008D01*
X1962658Y-2470742D01*
X1962847Y-2471499D01*
X1962962Y-2472271D01*
X1963000Y-2473050D01*
X1963000Y-2488950D01*
X1962962Y-2489729D01*
X1962847Y-2490501D01*
X1962658Y-2491258D01*
X1962395Y-2491992D01*
X1962061Y-2492698D01*
X1961660Y-2493367D01*
X1961195Y-2493993D01*
X1960671Y-2494572D01*
X1960093Y-2495095D01*
X1959467Y-2495560D01*
X1958798Y-2495961D01*
X1958092Y-2496295D01*
X1957358Y-2496558D01*
X1956601Y-2496747D01*
X1955829Y-2496862D01*
X1955050Y-2496900D01*
X1934950Y-2496900D01*
X1934171Y-2496862D01*
X1933399Y-2496747D01*
X1932642Y-2496558D01*
X1931908Y-2496295D01*
X1931202Y-2495961D01*
X1930533Y-2495560D01*
X1929907Y-2495095D01*
X1929328Y-2494572D01*
X1928805Y-2493993D01*
X1928340Y-2493367D01*
X1927939Y-2492698D01*
X1927605Y-2491992D01*
X1927342Y-2491258D01*
X1927153Y-2490501D01*
X1927038Y-2489729D01*
X1927000Y-2488950D01*
X1927000Y-2473050D01*
X1927038Y-2472271D01*
X1927153Y-2471499D01*
X1927342Y-2470742D01*
X1927605Y-2470008D01*
X1927939Y-2469302D01*
X1928340Y-2468633D01*
X1928805Y-2468007D01*
X1929328Y-2467429D01*
X1929907Y-2466905D01*
X1930533Y-2466440D01*
X1931202Y-2466039D01*
X1931908Y-2465705D01*
X1932642Y-2465442D01*
X1933399Y-2465253D01*
X1934171Y-2465138D01*
X1934950Y-2465100D01*
X1955050Y-2465100D01*
X1955829Y-2465138D01*
X1955829Y-2465138D01*
G37*
D16*
X1945000Y-2481000D03*
G04 #@! TD*
D14*
G04 #@! TO.C,D5*
G36*
X1928843Y-2600517D02*
X1929183Y-2600567D01*
X1929516Y-2600651D01*
X1929839Y-2600766D01*
X1930150Y-2600913D01*
X1930444Y-2601090D01*
X1930720Y-2601295D01*
X1930975Y-2601525D01*
X1931205Y-2601780D01*
X1931410Y-2602056D01*
X1931587Y-2602350D01*
X1931734Y-2602661D01*
X1931849Y-2602984D01*
X1931933Y-2603317D01*
X1931983Y-2603657D01*
X1932000Y-2604000D01*
X1932000Y-2621000D01*
X1931983Y-2621343D01*
X1931933Y-2621683D01*
X1931849Y-2622016D01*
X1931734Y-2622339D01*
X1931587Y-2622650D01*
X1931410Y-2622945D01*
X1931205Y-2623220D01*
X1930975Y-2623475D01*
X1930720Y-2623706D01*
X1930444Y-2623910D01*
X1930150Y-2624087D01*
X1929839Y-2624234D01*
X1929516Y-2624349D01*
X1929183Y-2624433D01*
X1928843Y-2624483D01*
X1928500Y-2624500D01*
X1921500Y-2624500D01*
X1921157Y-2624483D01*
X1920817Y-2624433D01*
X1920484Y-2624349D01*
X1920161Y-2624234D01*
X1919850Y-2624087D01*
X1919555Y-2623910D01*
X1919280Y-2623706D01*
X1919025Y-2623475D01*
X1918794Y-2623220D01*
X1918590Y-2622945D01*
X1918413Y-2622650D01*
X1918266Y-2622339D01*
X1918151Y-2622016D01*
X1918067Y-2621683D01*
X1918017Y-2621343D01*
X1918000Y-2621000D01*
X1918000Y-2604000D01*
X1918017Y-2603657D01*
X1918067Y-2603317D01*
X1918151Y-2602984D01*
X1918266Y-2602661D01*
X1918413Y-2602350D01*
X1918590Y-2602056D01*
X1918794Y-2601780D01*
X1919025Y-2601525D01*
X1919280Y-2601295D01*
X1919555Y-2601090D01*
X1919850Y-2600913D01*
X1920161Y-2600766D01*
X1920484Y-2600651D01*
X1920817Y-2600567D01*
X1921157Y-2600517D01*
X1921500Y-2600500D01*
X1928500Y-2600500D01*
X1928843Y-2600517D01*
X1928843Y-2600517D01*
G37*
D17*
X1925000Y-2612500D03*
D14*
G36*
X1888843Y-2600517D02*
X1889183Y-2600567D01*
X1889516Y-2600651D01*
X1889839Y-2600766D01*
X1890150Y-2600913D01*
X1890444Y-2601090D01*
X1890720Y-2601295D01*
X1890975Y-2601525D01*
X1891205Y-2601780D01*
X1891410Y-2602056D01*
X1891587Y-2602350D01*
X1891734Y-2602661D01*
X1891849Y-2602984D01*
X1891933Y-2603317D01*
X1891983Y-2603657D01*
X1892000Y-2604000D01*
X1892000Y-2621000D01*
X1891983Y-2621343D01*
X1891933Y-2621683D01*
X1891849Y-2622016D01*
X1891734Y-2622339D01*
X1891587Y-2622650D01*
X1891410Y-2622945D01*
X1891205Y-2623220D01*
X1890975Y-2623475D01*
X1890720Y-2623706D01*
X1890444Y-2623910D01*
X1890150Y-2624087D01*
X1889839Y-2624234D01*
X1889516Y-2624349D01*
X1889183Y-2624433D01*
X1888843Y-2624483D01*
X1888500Y-2624500D01*
X1881500Y-2624500D01*
X1881157Y-2624483D01*
X1880817Y-2624433D01*
X1880484Y-2624349D01*
X1880161Y-2624234D01*
X1879850Y-2624087D01*
X1879555Y-2623910D01*
X1879280Y-2623706D01*
X1879025Y-2623475D01*
X1878794Y-2623220D01*
X1878590Y-2622945D01*
X1878413Y-2622650D01*
X1878266Y-2622339D01*
X1878151Y-2622016D01*
X1878067Y-2621683D01*
X1878017Y-2621343D01*
X1878000Y-2621000D01*
X1878000Y-2604000D01*
X1878017Y-2603657D01*
X1878067Y-2603317D01*
X1878151Y-2602984D01*
X1878266Y-2602661D01*
X1878413Y-2602350D01*
X1878590Y-2602056D01*
X1878794Y-2601780D01*
X1879025Y-2601525D01*
X1879280Y-2601295D01*
X1879555Y-2601090D01*
X1879850Y-2600913D01*
X1880161Y-2600766D01*
X1880484Y-2600651D01*
X1880817Y-2600567D01*
X1881157Y-2600517D01*
X1881500Y-2600500D01*
X1888500Y-2600500D01*
X1888843Y-2600517D01*
X1888843Y-2600517D01*
G37*
D17*
X1885000Y-2612500D03*
G04 #@! TD*
D18*
G04 #@! TO.C,U4*
X2292500Y-2492500D03*
D19*
X2172500Y-2417500D03*
X2172500Y-2467500D03*
X2172500Y-2517500D03*
X2172500Y-2567500D03*
X2412500Y-2567500D03*
X2412500Y-2517500D03*
X2412500Y-2467500D03*
X2412500Y-2417500D03*
G04 #@! TD*
D14*
G04 #@! TO.C,D6*
G36*
X2079814Y-2170028D02*
X2080372Y-2170111D01*
X2080919Y-2170248D01*
X2081450Y-2170438D01*
X2081960Y-2170679D01*
X2082444Y-2170969D01*
X2082898Y-2171305D01*
X2083316Y-2171684D01*
X2083695Y-2172102D01*
X2084031Y-2172556D01*
X2084321Y-2173040D01*
X2084562Y-2173550D01*
X2084752Y-2174081D01*
X2084889Y-2174628D01*
X2084972Y-2175186D01*
X2085000Y-2175750D01*
X2085000Y-2194250D01*
X2084972Y-2194814D01*
X2084889Y-2195372D01*
X2084752Y-2195919D01*
X2084562Y-2196450D01*
X2084321Y-2196961D01*
X2084031Y-2197445D01*
X2083695Y-2197898D01*
X2083316Y-2198316D01*
X2082898Y-2198695D01*
X2082444Y-2199031D01*
X2081960Y-2199321D01*
X2081450Y-2199562D01*
X2080919Y-2199752D01*
X2080372Y-2199890D01*
X2079814Y-2199972D01*
X2079250Y-2200000D01*
X2067750Y-2200000D01*
X2067186Y-2199972D01*
X2066628Y-2199890D01*
X2066081Y-2199752D01*
X2065550Y-2199562D01*
X2065039Y-2199321D01*
X2064555Y-2199031D01*
X2064102Y-2198695D01*
X2063684Y-2198316D01*
X2063305Y-2197898D01*
X2062969Y-2197445D01*
X2062679Y-2196961D01*
X2062438Y-2196450D01*
X2062248Y-2195919D01*
X2062110Y-2195372D01*
X2062028Y-2194814D01*
X2062000Y-2194250D01*
X2062000Y-2175750D01*
X2062028Y-2175186D01*
X2062110Y-2174628D01*
X2062248Y-2174081D01*
X2062438Y-2173550D01*
X2062679Y-2173040D01*
X2062969Y-2172556D01*
X2063305Y-2172102D01*
X2063684Y-2171684D01*
X2064102Y-2171305D01*
X2064555Y-2170969D01*
X2065039Y-2170679D01*
X2065550Y-2170438D01*
X2066081Y-2170248D01*
X2066628Y-2170111D01*
X2067186Y-2170028D01*
X2067750Y-2170000D01*
X2079250Y-2170000D01*
X2079814Y-2170028D01*
X2079814Y-2170028D01*
G37*
D13*
X2073500Y-2185000D03*
D14*
G36*
X2117814Y-2170028D02*
X2118372Y-2170111D01*
X2118919Y-2170248D01*
X2119450Y-2170438D01*
X2119961Y-2170679D01*
X2120445Y-2170969D01*
X2120898Y-2171305D01*
X2121316Y-2171684D01*
X2121695Y-2172102D01*
X2122031Y-2172556D01*
X2122321Y-2173040D01*
X2122562Y-2173550D01*
X2122752Y-2174081D01*
X2122890Y-2174628D01*
X2122972Y-2175186D01*
X2123000Y-2175750D01*
X2123000Y-2194250D01*
X2122972Y-2194814D01*
X2122890Y-2195372D01*
X2122752Y-2195919D01*
X2122562Y-2196450D01*
X2122321Y-2196961D01*
X2122031Y-2197445D01*
X2121695Y-2197898D01*
X2121316Y-2198316D01*
X2120898Y-2198695D01*
X2120445Y-2199031D01*
X2119961Y-2199321D01*
X2119450Y-2199562D01*
X2118919Y-2199752D01*
X2118372Y-2199890D01*
X2117814Y-2199972D01*
X2117250Y-2200000D01*
X2105750Y-2200000D01*
X2105186Y-2199972D01*
X2104628Y-2199890D01*
X2104081Y-2199752D01*
X2103550Y-2199562D01*
X2103040Y-2199321D01*
X2102556Y-2199031D01*
X2102102Y-2198695D01*
X2101684Y-2198316D01*
X2101305Y-2197898D01*
X2100969Y-2197445D01*
X2100679Y-2196961D01*
X2100438Y-2196450D01*
X2100248Y-2195919D01*
X2100111Y-2195372D01*
X2100028Y-2194814D01*
X2100000Y-2194250D01*
X2100000Y-2175750D01*
X2100028Y-2175186D01*
X2100111Y-2174628D01*
X2100248Y-2174081D01*
X2100438Y-2173550D01*
X2100679Y-2173040D01*
X2100969Y-2172556D01*
X2101305Y-2172102D01*
X2101684Y-2171684D01*
X2102102Y-2171305D01*
X2102556Y-2170969D01*
X2103040Y-2170679D01*
X2103550Y-2170438D01*
X2104081Y-2170248D01*
X2104628Y-2170111D01*
X2105186Y-2170028D01*
X2105750Y-2170000D01*
X2117250Y-2170000D01*
X2117814Y-2170028D01*
X2117814Y-2170028D01*
G37*
D13*
X2111500Y-2185000D03*
G04 #@! TD*
D14*
G04 #@! TO.C,D7*
G36*
X1897814Y-2082528D02*
X1898372Y-2082610D01*
X1898919Y-2082748D01*
X1899450Y-2082938D01*
X1899960Y-2083179D01*
X1900444Y-2083469D01*
X1900898Y-2083805D01*
X1901316Y-2084184D01*
X1901695Y-2084602D01*
X1902031Y-2085055D01*
X1902321Y-2085539D01*
X1902562Y-2086050D01*
X1902752Y-2086581D01*
X1902889Y-2087128D01*
X1902972Y-2087686D01*
X1903000Y-2088250D01*
X1903000Y-2106750D01*
X1902972Y-2107314D01*
X1902889Y-2107872D01*
X1902752Y-2108419D01*
X1902562Y-2108950D01*
X1902321Y-2109461D01*
X1902031Y-2109945D01*
X1901695Y-2110398D01*
X1901316Y-2110816D01*
X1900898Y-2111195D01*
X1900444Y-2111531D01*
X1899960Y-2111821D01*
X1899450Y-2112062D01*
X1898919Y-2112252D01*
X1898372Y-2112390D01*
X1897814Y-2112472D01*
X1897250Y-2112500D01*
X1885750Y-2112500D01*
X1885186Y-2112472D01*
X1884628Y-2112390D01*
X1884081Y-2112252D01*
X1883550Y-2112062D01*
X1883039Y-2111821D01*
X1882555Y-2111531D01*
X1882102Y-2111195D01*
X1881684Y-2110816D01*
X1881305Y-2110398D01*
X1880969Y-2109945D01*
X1880679Y-2109461D01*
X1880438Y-2108950D01*
X1880248Y-2108419D01*
X1880110Y-2107872D01*
X1880028Y-2107314D01*
X1880000Y-2106750D01*
X1880000Y-2088250D01*
X1880028Y-2087686D01*
X1880110Y-2087128D01*
X1880248Y-2086581D01*
X1880438Y-2086050D01*
X1880679Y-2085539D01*
X1880969Y-2085055D01*
X1881305Y-2084602D01*
X1881684Y-2084184D01*
X1882102Y-2083805D01*
X1882555Y-2083469D01*
X1883039Y-2083179D01*
X1883550Y-2082938D01*
X1884081Y-2082748D01*
X1884628Y-2082610D01*
X1885186Y-2082528D01*
X1885750Y-2082500D01*
X1897250Y-2082500D01*
X1897814Y-2082528D01*
X1897814Y-2082528D01*
G37*
D13*
X1891500Y-2097500D03*
D14*
G36*
X1859814Y-2082528D02*
X1860372Y-2082610D01*
X1860919Y-2082748D01*
X1861450Y-2082938D01*
X1861960Y-2083179D01*
X1862444Y-2083469D01*
X1862898Y-2083805D01*
X1863316Y-2084184D01*
X1863695Y-2084602D01*
X1864031Y-2085055D01*
X1864321Y-2085539D01*
X1864562Y-2086050D01*
X1864752Y-2086581D01*
X1864889Y-2087128D01*
X1864972Y-2087686D01*
X1865000Y-2088250D01*
X1865000Y-2106750D01*
X1864972Y-2107314D01*
X1864889Y-2107872D01*
X1864752Y-2108419D01*
X1864562Y-2108950D01*
X1864321Y-2109461D01*
X1864031Y-2109945D01*
X1863695Y-2110398D01*
X1863316Y-2110816D01*
X1862898Y-2111195D01*
X1862444Y-2111531D01*
X1861960Y-2111821D01*
X1861450Y-2112062D01*
X1860919Y-2112252D01*
X1860372Y-2112390D01*
X1859814Y-2112472D01*
X1859250Y-2112500D01*
X1847750Y-2112500D01*
X1847186Y-2112472D01*
X1846628Y-2112390D01*
X1846081Y-2112252D01*
X1845550Y-2112062D01*
X1845039Y-2111821D01*
X1844555Y-2111531D01*
X1844102Y-2111195D01*
X1843684Y-2110816D01*
X1843305Y-2110398D01*
X1842969Y-2109945D01*
X1842679Y-2109461D01*
X1842438Y-2108950D01*
X1842248Y-2108419D01*
X1842110Y-2107872D01*
X1842028Y-2107314D01*
X1842000Y-2106750D01*
X1842000Y-2088250D01*
X1842028Y-2087686D01*
X1842110Y-2087128D01*
X1842248Y-2086581D01*
X1842438Y-2086050D01*
X1842679Y-2085539D01*
X1842969Y-2085055D01*
X1843305Y-2084602D01*
X1843684Y-2084184D01*
X1844102Y-2083805D01*
X1844555Y-2083469D01*
X1845039Y-2083179D01*
X1845550Y-2082938D01*
X1846081Y-2082748D01*
X1846628Y-2082610D01*
X1847186Y-2082528D01*
X1847750Y-2082500D01*
X1859250Y-2082500D01*
X1859814Y-2082528D01*
X1859814Y-2082528D01*
G37*
D13*
X1853500Y-2097500D03*
G04 #@! TD*
D14*
G04 #@! TO.C,D1*
G36*
X2722814Y-2420028D02*
X2723372Y-2420111D01*
X2723919Y-2420248D01*
X2724450Y-2420438D01*
X2724961Y-2420679D01*
X2725445Y-2420969D01*
X2725898Y-2421305D01*
X2726316Y-2421684D01*
X2726695Y-2422102D01*
X2727031Y-2422556D01*
X2727321Y-2423040D01*
X2727562Y-2423550D01*
X2727752Y-2424081D01*
X2727890Y-2424628D01*
X2727972Y-2425186D01*
X2728000Y-2425750D01*
X2728000Y-2444250D01*
X2727972Y-2444814D01*
X2727890Y-2445372D01*
X2727752Y-2445919D01*
X2727562Y-2446450D01*
X2727321Y-2446961D01*
X2727031Y-2447445D01*
X2726695Y-2447898D01*
X2726316Y-2448316D01*
X2725898Y-2448695D01*
X2725445Y-2449031D01*
X2724961Y-2449321D01*
X2724450Y-2449562D01*
X2723919Y-2449752D01*
X2723372Y-2449890D01*
X2722814Y-2449972D01*
X2722250Y-2450000D01*
X2710750Y-2450000D01*
X2710186Y-2449972D01*
X2709628Y-2449890D01*
X2709081Y-2449752D01*
X2708550Y-2449562D01*
X2708040Y-2449321D01*
X2707556Y-2449031D01*
X2707102Y-2448695D01*
X2706684Y-2448316D01*
X2706305Y-2447898D01*
X2705969Y-2447445D01*
X2705679Y-2446961D01*
X2705438Y-2446450D01*
X2705248Y-2445919D01*
X2705111Y-2445372D01*
X2705028Y-2444814D01*
X2705000Y-2444250D01*
X2705000Y-2425750D01*
X2705028Y-2425186D01*
X2705111Y-2424628D01*
X2705248Y-2424081D01*
X2705438Y-2423550D01*
X2705679Y-2423040D01*
X2705969Y-2422556D01*
X2706305Y-2422102D01*
X2706684Y-2421684D01*
X2707102Y-2421305D01*
X2707556Y-2420969D01*
X2708040Y-2420679D01*
X2708550Y-2420438D01*
X2709081Y-2420248D01*
X2709628Y-2420111D01*
X2710186Y-2420028D01*
X2710750Y-2420000D01*
X2722250Y-2420000D01*
X2722814Y-2420028D01*
X2722814Y-2420028D01*
G37*
D13*
X2716500Y-2435000D03*
D14*
G36*
X2684814Y-2420028D02*
X2685372Y-2420111D01*
X2685919Y-2420248D01*
X2686450Y-2420438D01*
X2686961Y-2420679D01*
X2687445Y-2420969D01*
X2687898Y-2421305D01*
X2688316Y-2421684D01*
X2688695Y-2422102D01*
X2689031Y-2422556D01*
X2689321Y-2423040D01*
X2689562Y-2423550D01*
X2689752Y-2424081D01*
X2689890Y-2424628D01*
X2689972Y-2425186D01*
X2690000Y-2425750D01*
X2690000Y-2444250D01*
X2689972Y-2444814D01*
X2689890Y-2445372D01*
X2689752Y-2445919D01*
X2689562Y-2446450D01*
X2689321Y-2446961D01*
X2689031Y-2447445D01*
X2688695Y-2447898D01*
X2688316Y-2448316D01*
X2687898Y-2448695D01*
X2687445Y-2449031D01*
X2686961Y-2449321D01*
X2686450Y-2449562D01*
X2685919Y-2449752D01*
X2685372Y-2449890D01*
X2684814Y-2449972D01*
X2684250Y-2450000D01*
X2672750Y-2450000D01*
X2672186Y-2449972D01*
X2671628Y-2449890D01*
X2671081Y-2449752D01*
X2670550Y-2449562D01*
X2670040Y-2449321D01*
X2669556Y-2449031D01*
X2669102Y-2448695D01*
X2668684Y-2448316D01*
X2668305Y-2447898D01*
X2667969Y-2447445D01*
X2667679Y-2446961D01*
X2667438Y-2446450D01*
X2667248Y-2445919D01*
X2667111Y-2445372D01*
X2667028Y-2444814D01*
X2667000Y-2444250D01*
X2667000Y-2425750D01*
X2667028Y-2425186D01*
X2667111Y-2424628D01*
X2667248Y-2424081D01*
X2667438Y-2423550D01*
X2667679Y-2423040D01*
X2667969Y-2422556D01*
X2668305Y-2422102D01*
X2668684Y-2421684D01*
X2669102Y-2421305D01*
X2669556Y-2420969D01*
X2670040Y-2420679D01*
X2670550Y-2420438D01*
X2671081Y-2420248D01*
X2671628Y-2420111D01*
X2672186Y-2420028D01*
X2672750Y-2420000D01*
X2684250Y-2420000D01*
X2684814Y-2420028D01*
X2684814Y-2420028D01*
G37*
D13*
X2678500Y-2435000D03*
G04 #@! TD*
D14*
G04 #@! TO.C,D2*
G36*
X2699814Y-2287028D02*
X2700372Y-2287111D01*
X2700919Y-2287248D01*
X2701450Y-2287438D01*
X2701961Y-2287679D01*
X2702445Y-2287969D01*
X2702898Y-2288305D01*
X2703316Y-2288684D01*
X2703695Y-2289102D01*
X2704031Y-2289556D01*
X2704321Y-2290040D01*
X2704562Y-2290550D01*
X2704752Y-2291081D01*
X2704890Y-2291628D01*
X2704972Y-2292186D01*
X2705000Y-2292750D01*
X2705000Y-2304250D01*
X2704972Y-2304814D01*
X2704890Y-2305372D01*
X2704752Y-2305919D01*
X2704562Y-2306450D01*
X2704321Y-2306961D01*
X2704031Y-2307445D01*
X2703695Y-2307898D01*
X2703316Y-2308316D01*
X2702898Y-2308695D01*
X2702445Y-2309031D01*
X2701961Y-2309321D01*
X2701450Y-2309562D01*
X2700919Y-2309752D01*
X2700372Y-2309890D01*
X2699814Y-2309972D01*
X2699250Y-2310000D01*
X2680750Y-2310000D01*
X2680186Y-2309972D01*
X2679628Y-2309890D01*
X2679081Y-2309752D01*
X2678550Y-2309562D01*
X2678040Y-2309321D01*
X2677556Y-2309031D01*
X2677102Y-2308695D01*
X2676684Y-2308316D01*
X2676305Y-2307898D01*
X2675969Y-2307445D01*
X2675679Y-2306961D01*
X2675438Y-2306450D01*
X2675248Y-2305919D01*
X2675111Y-2305372D01*
X2675028Y-2304814D01*
X2675000Y-2304250D01*
X2675000Y-2292750D01*
X2675028Y-2292186D01*
X2675111Y-2291628D01*
X2675248Y-2291081D01*
X2675438Y-2290550D01*
X2675679Y-2290040D01*
X2675969Y-2289556D01*
X2676305Y-2289102D01*
X2676684Y-2288684D01*
X2677102Y-2288305D01*
X2677556Y-2287969D01*
X2678040Y-2287679D01*
X2678550Y-2287438D01*
X2679081Y-2287248D01*
X2679628Y-2287111D01*
X2680186Y-2287028D01*
X2680750Y-2287000D01*
X2699250Y-2287000D01*
X2699814Y-2287028D01*
X2699814Y-2287028D01*
G37*
D13*
X2690000Y-2298500D03*
D14*
G36*
X2699814Y-2325028D02*
X2700372Y-2325111D01*
X2700919Y-2325248D01*
X2701450Y-2325438D01*
X2701961Y-2325679D01*
X2702445Y-2325969D01*
X2702898Y-2326305D01*
X2703316Y-2326684D01*
X2703695Y-2327102D01*
X2704031Y-2327556D01*
X2704321Y-2328040D01*
X2704562Y-2328550D01*
X2704752Y-2329081D01*
X2704890Y-2329628D01*
X2704972Y-2330186D01*
X2705000Y-2330750D01*
X2705000Y-2342250D01*
X2704972Y-2342814D01*
X2704890Y-2343372D01*
X2704752Y-2343919D01*
X2704562Y-2344450D01*
X2704321Y-2344961D01*
X2704031Y-2345445D01*
X2703695Y-2345898D01*
X2703316Y-2346316D01*
X2702898Y-2346695D01*
X2702445Y-2347031D01*
X2701961Y-2347321D01*
X2701450Y-2347562D01*
X2700919Y-2347752D01*
X2700372Y-2347890D01*
X2699814Y-2347972D01*
X2699250Y-2348000D01*
X2680750Y-2348000D01*
X2680186Y-2347972D01*
X2679628Y-2347890D01*
X2679081Y-2347752D01*
X2678550Y-2347562D01*
X2678040Y-2347321D01*
X2677556Y-2347031D01*
X2677102Y-2346695D01*
X2676684Y-2346316D01*
X2676305Y-2345898D01*
X2675969Y-2345445D01*
X2675679Y-2344961D01*
X2675438Y-2344450D01*
X2675248Y-2343919D01*
X2675111Y-2343372D01*
X2675028Y-2342814D01*
X2675000Y-2342250D01*
X2675000Y-2330750D01*
X2675028Y-2330186D01*
X2675111Y-2329628D01*
X2675248Y-2329081D01*
X2675438Y-2328550D01*
X2675679Y-2328040D01*
X2675969Y-2327556D01*
X2676305Y-2327102D01*
X2676684Y-2326684D01*
X2677102Y-2326305D01*
X2677556Y-2325969D01*
X2678040Y-2325679D01*
X2678550Y-2325438D01*
X2679081Y-2325248D01*
X2679628Y-2325111D01*
X2680186Y-2325028D01*
X2680750Y-2325000D01*
X2699250Y-2325000D01*
X2699814Y-2325028D01*
X2699814Y-2325028D01*
G37*
D13*
X2690000Y-2336500D03*
G04 #@! TD*
D14*
G04 #@! TO.C,D3*
G36*
X2609814Y-1877528D02*
X2610372Y-1877610D01*
X2610919Y-1877748D01*
X2611450Y-1877938D01*
X2611961Y-1878179D01*
X2612445Y-1878469D01*
X2612898Y-1878805D01*
X2613316Y-1879184D01*
X2613695Y-1879602D01*
X2614031Y-1880055D01*
X2614321Y-1880539D01*
X2614562Y-1881050D01*
X2614752Y-1881581D01*
X2614890Y-1882128D01*
X2614972Y-1882686D01*
X2615000Y-1883250D01*
X2615000Y-1901750D01*
X2614972Y-1902314D01*
X2614890Y-1902872D01*
X2614752Y-1903419D01*
X2614562Y-1903950D01*
X2614321Y-1904460D01*
X2614031Y-1904944D01*
X2613695Y-1905398D01*
X2613316Y-1905816D01*
X2612898Y-1906195D01*
X2612445Y-1906531D01*
X2611961Y-1906821D01*
X2611450Y-1907062D01*
X2610919Y-1907252D01*
X2610372Y-1907389D01*
X2609814Y-1907472D01*
X2609250Y-1907500D01*
X2597750Y-1907500D01*
X2597186Y-1907472D01*
X2596628Y-1907389D01*
X2596081Y-1907252D01*
X2595550Y-1907062D01*
X2595040Y-1906821D01*
X2594556Y-1906531D01*
X2594102Y-1906195D01*
X2593684Y-1905816D01*
X2593305Y-1905398D01*
X2592969Y-1904944D01*
X2592679Y-1904460D01*
X2592438Y-1903950D01*
X2592248Y-1903419D01*
X2592111Y-1902872D01*
X2592028Y-1902314D01*
X2592000Y-1901750D01*
X2592000Y-1883250D01*
X2592028Y-1882686D01*
X2592111Y-1882128D01*
X2592248Y-1881581D01*
X2592438Y-1881050D01*
X2592679Y-1880539D01*
X2592969Y-1880055D01*
X2593305Y-1879602D01*
X2593684Y-1879184D01*
X2594102Y-1878805D01*
X2594556Y-1878469D01*
X2595040Y-1878179D01*
X2595550Y-1877938D01*
X2596081Y-1877748D01*
X2596628Y-1877610D01*
X2597186Y-1877528D01*
X2597750Y-1877500D01*
X2609250Y-1877500D01*
X2609814Y-1877528D01*
X2609814Y-1877528D01*
G37*
D13*
X2603500Y-1892500D03*
D14*
G36*
X2647814Y-1877528D02*
X2648372Y-1877610D01*
X2648919Y-1877748D01*
X2649450Y-1877938D01*
X2649961Y-1878179D01*
X2650445Y-1878469D01*
X2650898Y-1878805D01*
X2651316Y-1879184D01*
X2651695Y-1879602D01*
X2652031Y-1880055D01*
X2652321Y-1880539D01*
X2652562Y-1881050D01*
X2652752Y-1881581D01*
X2652890Y-1882128D01*
X2652972Y-1882686D01*
X2653000Y-1883250D01*
X2653000Y-1901750D01*
X2652972Y-1902314D01*
X2652890Y-1902872D01*
X2652752Y-1903419D01*
X2652562Y-1903950D01*
X2652321Y-1904460D01*
X2652031Y-1904944D01*
X2651695Y-1905398D01*
X2651316Y-1905816D01*
X2650898Y-1906195D01*
X2650445Y-1906531D01*
X2649961Y-1906821D01*
X2649450Y-1907062D01*
X2648919Y-1907252D01*
X2648372Y-1907389D01*
X2647814Y-1907472D01*
X2647250Y-1907500D01*
X2635750Y-1907500D01*
X2635186Y-1907472D01*
X2634628Y-1907389D01*
X2634081Y-1907252D01*
X2633550Y-1907062D01*
X2633040Y-1906821D01*
X2632556Y-1906531D01*
X2632102Y-1906195D01*
X2631684Y-1905816D01*
X2631305Y-1905398D01*
X2630969Y-1904944D01*
X2630679Y-1904460D01*
X2630438Y-1903950D01*
X2630248Y-1903419D01*
X2630111Y-1902872D01*
X2630028Y-1902314D01*
X2630000Y-1901750D01*
X2630000Y-1883250D01*
X2630028Y-1882686D01*
X2630111Y-1882128D01*
X2630248Y-1881581D01*
X2630438Y-1881050D01*
X2630679Y-1880539D01*
X2630969Y-1880055D01*
X2631305Y-1879602D01*
X2631684Y-1879184D01*
X2632102Y-1878805D01*
X2632556Y-1878469D01*
X2633040Y-1878179D01*
X2633550Y-1877938D01*
X2634081Y-1877748D01*
X2634628Y-1877610D01*
X2635186Y-1877528D01*
X2635750Y-1877500D01*
X2647250Y-1877500D01*
X2647814Y-1877528D01*
X2647814Y-1877528D01*
G37*
D13*
X2641500Y-1892500D03*
G04 #@! TD*
D14*
G04 #@! TO.C,D4*
G36*
X2742314Y-2042528D02*
X2742872Y-2042610D01*
X2743419Y-2042748D01*
X2743950Y-2042938D01*
X2744461Y-2043179D01*
X2744945Y-2043469D01*
X2745398Y-2043805D01*
X2745816Y-2044184D01*
X2746195Y-2044602D01*
X2746531Y-2045055D01*
X2746821Y-2045539D01*
X2747062Y-2046050D01*
X2747252Y-2046581D01*
X2747390Y-2047128D01*
X2747472Y-2047686D01*
X2747500Y-2048250D01*
X2747500Y-2059750D01*
X2747472Y-2060314D01*
X2747390Y-2060872D01*
X2747252Y-2061419D01*
X2747062Y-2061950D01*
X2746821Y-2062460D01*
X2746531Y-2062944D01*
X2746195Y-2063398D01*
X2745816Y-2063816D01*
X2745398Y-2064195D01*
X2744945Y-2064531D01*
X2744461Y-2064821D01*
X2743950Y-2065062D01*
X2743419Y-2065252D01*
X2742872Y-2065389D01*
X2742314Y-2065472D01*
X2741750Y-2065500D01*
X2723250Y-2065500D01*
X2722686Y-2065472D01*
X2722128Y-2065389D01*
X2721581Y-2065252D01*
X2721050Y-2065062D01*
X2720540Y-2064821D01*
X2720056Y-2064531D01*
X2719602Y-2064195D01*
X2719184Y-2063816D01*
X2718805Y-2063398D01*
X2718469Y-2062944D01*
X2718179Y-2062460D01*
X2717938Y-2061950D01*
X2717748Y-2061419D01*
X2717611Y-2060872D01*
X2717528Y-2060314D01*
X2717500Y-2059750D01*
X2717500Y-2048250D01*
X2717528Y-2047686D01*
X2717611Y-2047128D01*
X2717748Y-2046581D01*
X2717938Y-2046050D01*
X2718179Y-2045539D01*
X2718469Y-2045055D01*
X2718805Y-2044602D01*
X2719184Y-2044184D01*
X2719602Y-2043805D01*
X2720056Y-2043469D01*
X2720540Y-2043179D01*
X2721050Y-2042938D01*
X2721581Y-2042748D01*
X2722128Y-2042610D01*
X2722686Y-2042528D01*
X2723250Y-2042500D01*
X2741750Y-2042500D01*
X2742314Y-2042528D01*
X2742314Y-2042528D01*
G37*
D13*
X2732500Y-2054000D03*
D14*
G36*
X2742314Y-2004528D02*
X2742872Y-2004610D01*
X2743419Y-2004748D01*
X2743950Y-2004938D01*
X2744461Y-2005179D01*
X2744945Y-2005469D01*
X2745398Y-2005805D01*
X2745816Y-2006184D01*
X2746195Y-2006602D01*
X2746531Y-2007055D01*
X2746821Y-2007539D01*
X2747062Y-2008050D01*
X2747252Y-2008581D01*
X2747390Y-2009128D01*
X2747472Y-2009686D01*
X2747500Y-2010250D01*
X2747500Y-2021750D01*
X2747472Y-2022314D01*
X2747390Y-2022872D01*
X2747252Y-2023419D01*
X2747062Y-2023950D01*
X2746821Y-2024460D01*
X2746531Y-2024944D01*
X2746195Y-2025398D01*
X2745816Y-2025816D01*
X2745398Y-2026195D01*
X2744945Y-2026531D01*
X2744461Y-2026821D01*
X2743950Y-2027062D01*
X2743419Y-2027252D01*
X2742872Y-2027389D01*
X2742314Y-2027472D01*
X2741750Y-2027500D01*
X2723250Y-2027500D01*
X2722686Y-2027472D01*
X2722128Y-2027389D01*
X2721581Y-2027252D01*
X2721050Y-2027062D01*
X2720540Y-2026821D01*
X2720056Y-2026531D01*
X2719602Y-2026195D01*
X2719184Y-2025816D01*
X2718805Y-2025398D01*
X2718469Y-2024944D01*
X2718179Y-2024460D01*
X2717938Y-2023950D01*
X2717748Y-2023419D01*
X2717611Y-2022872D01*
X2717528Y-2022314D01*
X2717500Y-2021750D01*
X2717500Y-2010250D01*
X2717528Y-2009686D01*
X2717611Y-2009128D01*
X2717748Y-2008581D01*
X2717938Y-2008050D01*
X2718179Y-2007539D01*
X2718469Y-2007055D01*
X2718805Y-2006602D01*
X2719184Y-2006184D01*
X2719602Y-2005805D01*
X2720056Y-2005469D01*
X2720540Y-2005179D01*
X2721050Y-2004938D01*
X2721581Y-2004748D01*
X2722128Y-2004610D01*
X2722686Y-2004528D01*
X2723250Y-2004500D01*
X2741750Y-2004500D01*
X2742314Y-2004528D01*
X2742314Y-2004528D01*
G37*
D13*
X2732500Y-2016000D03*
G04 #@! TD*
D20*
G04 #@! TO.C,U3*
X1900000Y-1970000D03*
D14*
G36*
X1931820Y-1970000D02*
X1900000Y-2001820D01*
X1868180Y-1970000D01*
X1900000Y-1938180D01*
X1931820Y-1970000D01*
X1931820Y-1970000D01*
G37*
D21*
X1943000Y-2002500D03*
D14*
G36*
X1925000Y-2010000D02*
X1943000Y-1992000D01*
X1965000Y-1992000D01*
X1965000Y-2013000D01*
X1925000Y-2013000D01*
X1925000Y-2010000D01*
X1925000Y-2010000D01*
G37*
D21*
X1857000Y-2002500D03*
D14*
G36*
X1835000Y-1992000D02*
X1857000Y-1992000D01*
X1875000Y-2010000D01*
X1875000Y-2013000D01*
X1835000Y-2013000D01*
X1835000Y-1992000D01*
X1835000Y-1992000D01*
G37*
D21*
X1857000Y-1937500D03*
D14*
G36*
X1835000Y-1927000D02*
X1875000Y-1927000D01*
X1875000Y-1930000D01*
X1857000Y-1948000D01*
X1835000Y-1948000D01*
X1835000Y-1927000D01*
X1835000Y-1927000D01*
G37*
D21*
X1943000Y-1937500D03*
D14*
G36*
X1925000Y-1930000D02*
X1925000Y-1927000D01*
X1965000Y-1927000D01*
X1965000Y-1948000D01*
X1943000Y-1948000D01*
X1925000Y-1930000D01*
X1925000Y-1930000D01*
G37*
G04 #@! TD*
G04 #@! TO.C,C28*
G36*
X2593229Y-2402038D02*
X2594001Y-2402153D01*
X2594758Y-2402342D01*
X2595492Y-2402605D01*
X2596198Y-2402939D01*
X2596867Y-2403340D01*
X2597493Y-2403805D01*
X2598072Y-2404329D01*
X2598595Y-2404907D01*
X2599060Y-2405533D01*
X2599461Y-2406202D01*
X2599795Y-2406908D01*
X2600058Y-2407642D01*
X2600247Y-2408399D01*
X2600362Y-2409171D01*
X2600400Y-2409950D01*
X2600400Y-2430050D01*
X2600362Y-2430829D01*
X2600247Y-2431601D01*
X2600058Y-2432358D01*
X2599795Y-2433092D01*
X2599461Y-2433798D01*
X2599060Y-2434467D01*
X2598595Y-2435093D01*
X2598072Y-2435672D01*
X2597493Y-2436195D01*
X2596867Y-2436660D01*
X2596198Y-2437061D01*
X2595492Y-2437395D01*
X2594758Y-2437658D01*
X2594001Y-2437847D01*
X2593229Y-2437962D01*
X2592450Y-2438000D01*
X2576550Y-2438000D01*
X2575771Y-2437962D01*
X2574999Y-2437847D01*
X2574242Y-2437658D01*
X2573508Y-2437395D01*
X2572802Y-2437061D01*
X2572133Y-2436660D01*
X2571507Y-2436195D01*
X2570929Y-2435672D01*
X2570405Y-2435093D01*
X2569940Y-2434467D01*
X2569539Y-2433798D01*
X2569205Y-2433092D01*
X2568942Y-2432358D01*
X2568753Y-2431601D01*
X2568638Y-2430829D01*
X2568600Y-2430050D01*
X2568600Y-2409950D01*
X2568638Y-2409171D01*
X2568753Y-2408399D01*
X2568942Y-2407642D01*
X2569205Y-2406908D01*
X2569539Y-2406202D01*
X2569940Y-2405533D01*
X2570405Y-2404907D01*
X2570929Y-2404329D01*
X2571507Y-2403805D01*
X2572133Y-2403340D01*
X2572802Y-2402939D01*
X2573508Y-2402605D01*
X2574242Y-2402342D01*
X2574999Y-2402153D01*
X2575771Y-2402038D01*
X2576550Y-2402000D01*
X2592450Y-2402000D01*
X2593229Y-2402038D01*
X2593229Y-2402038D01*
G37*
D16*
X2584500Y-2420000D03*
D14*
G36*
X2524229Y-2402038D02*
X2525001Y-2402153D01*
X2525758Y-2402342D01*
X2526492Y-2402605D01*
X2527198Y-2402939D01*
X2527867Y-2403340D01*
X2528493Y-2403805D01*
X2529072Y-2404329D01*
X2529595Y-2404907D01*
X2530060Y-2405533D01*
X2530461Y-2406202D01*
X2530795Y-2406908D01*
X2531058Y-2407642D01*
X2531247Y-2408399D01*
X2531362Y-2409171D01*
X2531400Y-2409950D01*
X2531400Y-2430050D01*
X2531362Y-2430829D01*
X2531247Y-2431601D01*
X2531058Y-2432358D01*
X2530795Y-2433092D01*
X2530461Y-2433798D01*
X2530060Y-2434467D01*
X2529595Y-2435093D01*
X2529072Y-2435672D01*
X2528493Y-2436195D01*
X2527867Y-2436660D01*
X2527198Y-2437061D01*
X2526492Y-2437395D01*
X2525758Y-2437658D01*
X2525001Y-2437847D01*
X2524229Y-2437962D01*
X2523450Y-2438000D01*
X2507550Y-2438000D01*
X2506771Y-2437962D01*
X2505999Y-2437847D01*
X2505242Y-2437658D01*
X2504508Y-2437395D01*
X2503802Y-2437061D01*
X2503133Y-2436660D01*
X2502507Y-2436195D01*
X2501929Y-2435672D01*
X2501405Y-2435093D01*
X2500940Y-2434467D01*
X2500539Y-2433798D01*
X2500205Y-2433092D01*
X2499942Y-2432358D01*
X2499753Y-2431601D01*
X2499638Y-2430829D01*
X2499600Y-2430050D01*
X2499600Y-2409950D01*
X2499638Y-2409171D01*
X2499753Y-2408399D01*
X2499942Y-2407642D01*
X2500205Y-2406908D01*
X2500539Y-2406202D01*
X2500940Y-2405533D01*
X2501405Y-2404907D01*
X2501929Y-2404329D01*
X2502507Y-2403805D01*
X2503133Y-2403340D01*
X2503802Y-2402939D01*
X2504508Y-2402605D01*
X2505242Y-2402342D01*
X2505999Y-2402153D01*
X2506771Y-2402038D01*
X2507550Y-2402000D01*
X2523450Y-2402000D01*
X2524229Y-2402038D01*
X2524229Y-2402038D01*
G37*
D16*
X2515500Y-2420000D03*
G04 #@! TD*
D20*
G04 #@! TO.C,U2*
X1890000Y-2370000D03*
D14*
G36*
X1921820Y-2370000D02*
X1890000Y-2401820D01*
X1858180Y-2370000D01*
X1890000Y-2338180D01*
X1921820Y-2370000D01*
X1921820Y-2370000D01*
G37*
D21*
X1933000Y-2402500D03*
D14*
G36*
X1915000Y-2410000D02*
X1933000Y-2392000D01*
X1955000Y-2392000D01*
X1955000Y-2413000D01*
X1915000Y-2413000D01*
X1915000Y-2410000D01*
X1915000Y-2410000D01*
G37*
D21*
X1847000Y-2402500D03*
D14*
G36*
X1825000Y-2392000D02*
X1847000Y-2392000D01*
X1865000Y-2410000D01*
X1865000Y-2413000D01*
X1825000Y-2413000D01*
X1825000Y-2392000D01*
X1825000Y-2392000D01*
G37*
D21*
X1847000Y-2337500D03*
D14*
G36*
X1825000Y-2327000D02*
X1865000Y-2327000D01*
X1865000Y-2330000D01*
X1847000Y-2348000D01*
X1825000Y-2348000D01*
X1825000Y-2327000D01*
X1825000Y-2327000D01*
G37*
D21*
X1933000Y-2337500D03*
D14*
G36*
X1915000Y-2330000D02*
X1915000Y-2327000D01*
X1955000Y-2327000D01*
X1955000Y-2348000D01*
X1933000Y-2348000D01*
X1915000Y-2330000D01*
X1915000Y-2330000D01*
G37*
G04 #@! TD*
G04 #@! TO.C,C1*
G36*
X1784829Y-1837138D02*
X1785601Y-1837253D01*
X1786358Y-1837442D01*
X1787092Y-1837705D01*
X1787798Y-1838039D01*
X1788467Y-1838440D01*
X1789093Y-1838905D01*
X1789671Y-1839428D01*
X1790195Y-1840007D01*
X1790660Y-1840633D01*
X1791061Y-1841302D01*
X1791395Y-1842008D01*
X1791658Y-1842742D01*
X1791847Y-1843499D01*
X1791962Y-1844271D01*
X1792000Y-1845050D01*
X1792000Y-1860950D01*
X1791962Y-1861729D01*
X1791847Y-1862501D01*
X1791658Y-1863258D01*
X1791395Y-1863992D01*
X1791061Y-1864698D01*
X1790660Y-1865367D01*
X1790195Y-1865993D01*
X1789671Y-1866571D01*
X1789093Y-1867095D01*
X1788467Y-1867560D01*
X1787798Y-1867961D01*
X1787092Y-1868295D01*
X1786358Y-1868558D01*
X1785601Y-1868747D01*
X1784829Y-1868862D01*
X1784050Y-1868900D01*
X1763950Y-1868900D01*
X1763171Y-1868862D01*
X1762399Y-1868747D01*
X1761642Y-1868558D01*
X1760908Y-1868295D01*
X1760202Y-1867961D01*
X1759533Y-1867560D01*
X1758907Y-1867095D01*
X1758328Y-1866571D01*
X1757805Y-1865993D01*
X1757340Y-1865367D01*
X1756939Y-1864698D01*
X1756605Y-1863992D01*
X1756342Y-1863258D01*
X1756153Y-1862501D01*
X1756038Y-1861729D01*
X1756000Y-1860950D01*
X1756000Y-1845050D01*
X1756038Y-1844271D01*
X1756153Y-1843499D01*
X1756342Y-1842742D01*
X1756605Y-1842008D01*
X1756939Y-1841302D01*
X1757340Y-1840633D01*
X1757805Y-1840007D01*
X1758328Y-1839428D01*
X1758907Y-1838905D01*
X1759533Y-1838440D01*
X1760202Y-1838039D01*
X1760908Y-1837705D01*
X1761642Y-1837442D01*
X1762399Y-1837253D01*
X1763171Y-1837138D01*
X1763950Y-1837100D01*
X1784050Y-1837100D01*
X1784829Y-1837138D01*
X1784829Y-1837138D01*
G37*
D16*
X1774000Y-1853000D03*
D14*
G36*
X1784829Y-1768138D02*
X1785601Y-1768253D01*
X1786358Y-1768442D01*
X1787092Y-1768705D01*
X1787798Y-1769039D01*
X1788467Y-1769440D01*
X1789093Y-1769905D01*
X1789671Y-1770428D01*
X1790195Y-1771007D01*
X1790660Y-1771633D01*
X1791061Y-1772302D01*
X1791395Y-1773008D01*
X1791658Y-1773742D01*
X1791847Y-1774499D01*
X1791962Y-1775271D01*
X1792000Y-1776050D01*
X1792000Y-1791950D01*
X1791962Y-1792729D01*
X1791847Y-1793501D01*
X1791658Y-1794258D01*
X1791395Y-1794992D01*
X1791061Y-1795698D01*
X1790660Y-1796367D01*
X1790195Y-1796993D01*
X1789671Y-1797571D01*
X1789093Y-1798095D01*
X1788467Y-1798560D01*
X1787798Y-1798961D01*
X1787092Y-1799295D01*
X1786358Y-1799558D01*
X1785601Y-1799747D01*
X1784829Y-1799862D01*
X1784050Y-1799900D01*
X1763950Y-1799900D01*
X1763171Y-1799862D01*
X1762399Y-1799747D01*
X1761642Y-1799558D01*
X1760908Y-1799295D01*
X1760202Y-1798961D01*
X1759533Y-1798560D01*
X1758907Y-1798095D01*
X1758328Y-1797571D01*
X1757805Y-1796993D01*
X1757340Y-1796367D01*
X1756939Y-1795698D01*
X1756605Y-1794992D01*
X1756342Y-1794258D01*
X1756153Y-1793501D01*
X1756038Y-1792729D01*
X1756000Y-1791950D01*
X1756000Y-1776050D01*
X1756038Y-1775271D01*
X1756153Y-1774499D01*
X1756342Y-1773742D01*
X1756605Y-1773008D01*
X1756939Y-1772302D01*
X1757340Y-1771633D01*
X1757805Y-1771007D01*
X1758328Y-1770428D01*
X1758907Y-1769905D01*
X1759533Y-1769440D01*
X1760202Y-1769039D01*
X1760908Y-1768705D01*
X1761642Y-1768442D01*
X1762399Y-1768253D01*
X1763171Y-1768138D01*
X1763950Y-1768100D01*
X1784050Y-1768100D01*
X1784829Y-1768138D01*
X1784829Y-1768138D01*
G37*
D16*
X1774000Y-1784000D03*
G04 #@! TD*
D14*
G04 #@! TO.C,C11*
G36*
X2454229Y-1756538D02*
X2455001Y-1756653D01*
X2455758Y-1756842D01*
X2456492Y-1757105D01*
X2457198Y-1757439D01*
X2457867Y-1757840D01*
X2458493Y-1758305D01*
X2459072Y-1758828D01*
X2459595Y-1759407D01*
X2460060Y-1760033D01*
X2460461Y-1760702D01*
X2460795Y-1761408D01*
X2461058Y-1762142D01*
X2461247Y-1762899D01*
X2461362Y-1763671D01*
X2461400Y-1764450D01*
X2461400Y-1784550D01*
X2461362Y-1785329D01*
X2461247Y-1786101D01*
X2461058Y-1786858D01*
X2460795Y-1787592D01*
X2460461Y-1788298D01*
X2460060Y-1788967D01*
X2459595Y-1789593D01*
X2459072Y-1790171D01*
X2458493Y-1790695D01*
X2457867Y-1791160D01*
X2457198Y-1791561D01*
X2456492Y-1791895D01*
X2455758Y-1792158D01*
X2455001Y-1792347D01*
X2454229Y-1792462D01*
X2453450Y-1792500D01*
X2437550Y-1792500D01*
X2436771Y-1792462D01*
X2435999Y-1792347D01*
X2435242Y-1792158D01*
X2434508Y-1791895D01*
X2433802Y-1791561D01*
X2433133Y-1791160D01*
X2432507Y-1790695D01*
X2431929Y-1790171D01*
X2431405Y-1789593D01*
X2430940Y-1788967D01*
X2430539Y-1788298D01*
X2430205Y-1787592D01*
X2429942Y-1786858D01*
X2429753Y-1786101D01*
X2429638Y-1785329D01*
X2429600Y-1784550D01*
X2429600Y-1764450D01*
X2429638Y-1763671D01*
X2429753Y-1762899D01*
X2429942Y-1762142D01*
X2430205Y-1761408D01*
X2430539Y-1760702D01*
X2430940Y-1760033D01*
X2431405Y-1759407D01*
X2431929Y-1758828D01*
X2432507Y-1758305D01*
X2433133Y-1757840D01*
X2433802Y-1757439D01*
X2434508Y-1757105D01*
X2435242Y-1756842D01*
X2435999Y-1756653D01*
X2436771Y-1756538D01*
X2437550Y-1756500D01*
X2453450Y-1756500D01*
X2454229Y-1756538D01*
X2454229Y-1756538D01*
G37*
D16*
X2445500Y-1774500D03*
D14*
G36*
X2385229Y-1756538D02*
X2386001Y-1756653D01*
X2386758Y-1756842D01*
X2387492Y-1757105D01*
X2388198Y-1757439D01*
X2388867Y-1757840D01*
X2389493Y-1758305D01*
X2390072Y-1758828D01*
X2390595Y-1759407D01*
X2391060Y-1760033D01*
X2391461Y-1760702D01*
X2391795Y-1761408D01*
X2392058Y-1762142D01*
X2392247Y-1762899D01*
X2392362Y-1763671D01*
X2392400Y-1764450D01*
X2392400Y-1784550D01*
X2392362Y-1785329D01*
X2392247Y-1786101D01*
X2392058Y-1786858D01*
X2391795Y-1787592D01*
X2391461Y-1788298D01*
X2391060Y-1788967D01*
X2390595Y-1789593D01*
X2390072Y-1790171D01*
X2389493Y-1790695D01*
X2388867Y-1791160D01*
X2388198Y-1791561D01*
X2387492Y-1791895D01*
X2386758Y-1792158D01*
X2386001Y-1792347D01*
X2385229Y-1792462D01*
X2384450Y-1792500D01*
X2368550Y-1792500D01*
X2367771Y-1792462D01*
X2366999Y-1792347D01*
X2366242Y-1792158D01*
X2365508Y-1791895D01*
X2364802Y-1791561D01*
X2364133Y-1791160D01*
X2363507Y-1790695D01*
X2362929Y-1790171D01*
X2362405Y-1789593D01*
X2361940Y-1788967D01*
X2361539Y-1788298D01*
X2361205Y-1787592D01*
X2360942Y-1786858D01*
X2360753Y-1786101D01*
X2360638Y-1785329D01*
X2360600Y-1784550D01*
X2360600Y-1764450D01*
X2360638Y-1763671D01*
X2360753Y-1762899D01*
X2360942Y-1762142D01*
X2361205Y-1761408D01*
X2361539Y-1760702D01*
X2361940Y-1760033D01*
X2362405Y-1759407D01*
X2362929Y-1758828D01*
X2363507Y-1758305D01*
X2364133Y-1757840D01*
X2364802Y-1757439D01*
X2365508Y-1757105D01*
X2366242Y-1756842D01*
X2366999Y-1756653D01*
X2367771Y-1756538D01*
X2368550Y-1756500D01*
X2384450Y-1756500D01*
X2385229Y-1756538D01*
X2385229Y-1756538D01*
G37*
D16*
X2376500Y-1774500D03*
G04 #@! TD*
D14*
G04 #@! TO.C,C17*
G36*
X2220829Y-2141138D02*
X2221601Y-2141253D01*
X2222358Y-2141442D01*
X2223092Y-2141705D01*
X2223798Y-2142039D01*
X2224467Y-2142440D01*
X2225093Y-2142905D01*
X2225672Y-2143429D01*
X2226195Y-2144007D01*
X2226660Y-2144633D01*
X2227061Y-2145302D01*
X2227395Y-2146008D01*
X2227658Y-2146742D01*
X2227847Y-2147499D01*
X2227962Y-2148271D01*
X2228000Y-2149050D01*
X2228000Y-2164950D01*
X2227962Y-2165729D01*
X2227847Y-2166501D01*
X2227658Y-2167258D01*
X2227395Y-2167992D01*
X2227061Y-2168698D01*
X2226660Y-2169367D01*
X2226195Y-2169993D01*
X2225672Y-2170572D01*
X2225093Y-2171095D01*
X2224467Y-2171560D01*
X2223798Y-2171961D01*
X2223092Y-2172295D01*
X2222358Y-2172558D01*
X2221601Y-2172747D01*
X2220829Y-2172862D01*
X2220050Y-2172900D01*
X2199950Y-2172900D01*
X2199171Y-2172862D01*
X2198399Y-2172747D01*
X2197642Y-2172558D01*
X2196908Y-2172295D01*
X2196202Y-2171961D01*
X2195533Y-2171560D01*
X2194907Y-2171095D01*
X2194329Y-2170572D01*
X2193805Y-2169993D01*
X2193340Y-2169367D01*
X2192939Y-2168698D01*
X2192605Y-2167992D01*
X2192342Y-2167258D01*
X2192153Y-2166501D01*
X2192038Y-2165729D01*
X2192000Y-2164950D01*
X2192000Y-2149050D01*
X2192038Y-2148271D01*
X2192153Y-2147499D01*
X2192342Y-2146742D01*
X2192605Y-2146008D01*
X2192939Y-2145302D01*
X2193340Y-2144633D01*
X2193805Y-2144007D01*
X2194329Y-2143429D01*
X2194907Y-2142905D01*
X2195533Y-2142440D01*
X2196202Y-2142039D01*
X2196908Y-2141705D01*
X2197642Y-2141442D01*
X2198399Y-2141253D01*
X2199171Y-2141138D01*
X2199950Y-2141100D01*
X2220050Y-2141100D01*
X2220829Y-2141138D01*
X2220829Y-2141138D01*
G37*
D16*
X2210000Y-2157000D03*
D14*
G36*
X2220829Y-2072138D02*
X2221601Y-2072253D01*
X2222358Y-2072442D01*
X2223092Y-2072705D01*
X2223798Y-2073039D01*
X2224467Y-2073440D01*
X2225093Y-2073905D01*
X2225672Y-2074428D01*
X2226195Y-2075007D01*
X2226660Y-2075633D01*
X2227061Y-2076302D01*
X2227395Y-2077008D01*
X2227658Y-2077742D01*
X2227847Y-2078499D01*
X2227962Y-2079271D01*
X2228000Y-2080050D01*
X2228000Y-2095950D01*
X2227962Y-2096729D01*
X2227847Y-2097501D01*
X2227658Y-2098258D01*
X2227395Y-2098992D01*
X2227061Y-2099698D01*
X2226660Y-2100367D01*
X2226195Y-2100993D01*
X2225672Y-2101572D01*
X2225093Y-2102095D01*
X2224467Y-2102560D01*
X2223798Y-2102961D01*
X2223092Y-2103295D01*
X2222358Y-2103558D01*
X2221601Y-2103747D01*
X2220829Y-2103862D01*
X2220050Y-2103900D01*
X2199950Y-2103900D01*
X2199171Y-2103862D01*
X2198399Y-2103747D01*
X2197642Y-2103558D01*
X2196908Y-2103295D01*
X2196202Y-2102961D01*
X2195533Y-2102560D01*
X2194907Y-2102095D01*
X2194329Y-2101572D01*
X2193805Y-2100993D01*
X2193340Y-2100367D01*
X2192939Y-2099698D01*
X2192605Y-2098992D01*
X2192342Y-2098258D01*
X2192153Y-2097501D01*
X2192038Y-2096729D01*
X2192000Y-2095950D01*
X2192000Y-2080050D01*
X2192038Y-2079271D01*
X2192153Y-2078499D01*
X2192342Y-2077742D01*
X2192605Y-2077008D01*
X2192939Y-2076302D01*
X2193340Y-2075633D01*
X2193805Y-2075007D01*
X2194329Y-2074428D01*
X2194907Y-2073905D01*
X2195533Y-2073440D01*
X2196202Y-2073039D01*
X2196908Y-2072705D01*
X2197642Y-2072442D01*
X2198399Y-2072253D01*
X2199171Y-2072138D01*
X2199950Y-2072100D01*
X2220050Y-2072100D01*
X2220829Y-2072138D01*
X2220829Y-2072138D01*
G37*
D16*
X2210000Y-2088000D03*
G04 #@! TD*
D14*
G04 #@! TO.C,C20*
G36*
X2290829Y-2141138D02*
X2291601Y-2141253D01*
X2292358Y-2141442D01*
X2293092Y-2141705D01*
X2293798Y-2142039D01*
X2294467Y-2142440D01*
X2295093Y-2142905D01*
X2295672Y-2143429D01*
X2296195Y-2144007D01*
X2296660Y-2144633D01*
X2297061Y-2145302D01*
X2297395Y-2146008D01*
X2297658Y-2146742D01*
X2297847Y-2147499D01*
X2297962Y-2148271D01*
X2298000Y-2149050D01*
X2298000Y-2164950D01*
X2297962Y-2165729D01*
X2297847Y-2166501D01*
X2297658Y-2167258D01*
X2297395Y-2167992D01*
X2297061Y-2168698D01*
X2296660Y-2169367D01*
X2296195Y-2169993D01*
X2295672Y-2170572D01*
X2295093Y-2171095D01*
X2294467Y-2171560D01*
X2293798Y-2171961D01*
X2293092Y-2172295D01*
X2292358Y-2172558D01*
X2291601Y-2172747D01*
X2290829Y-2172862D01*
X2290050Y-2172900D01*
X2269950Y-2172900D01*
X2269171Y-2172862D01*
X2268399Y-2172747D01*
X2267642Y-2172558D01*
X2266908Y-2172295D01*
X2266202Y-2171961D01*
X2265533Y-2171560D01*
X2264907Y-2171095D01*
X2264329Y-2170572D01*
X2263805Y-2169993D01*
X2263340Y-2169367D01*
X2262939Y-2168698D01*
X2262605Y-2167992D01*
X2262342Y-2167258D01*
X2262153Y-2166501D01*
X2262038Y-2165729D01*
X2262000Y-2164950D01*
X2262000Y-2149050D01*
X2262038Y-2148271D01*
X2262153Y-2147499D01*
X2262342Y-2146742D01*
X2262605Y-2146008D01*
X2262939Y-2145302D01*
X2263340Y-2144633D01*
X2263805Y-2144007D01*
X2264329Y-2143429D01*
X2264907Y-2142905D01*
X2265533Y-2142440D01*
X2266202Y-2142039D01*
X2266908Y-2141705D01*
X2267642Y-2141442D01*
X2268399Y-2141253D01*
X2269171Y-2141138D01*
X2269950Y-2141100D01*
X2290050Y-2141100D01*
X2290829Y-2141138D01*
X2290829Y-2141138D01*
G37*
D16*
X2280000Y-2157000D03*
D14*
G36*
X2290829Y-2072138D02*
X2291601Y-2072253D01*
X2292358Y-2072442D01*
X2293092Y-2072705D01*
X2293798Y-2073039D01*
X2294467Y-2073440D01*
X2295093Y-2073905D01*
X2295672Y-2074428D01*
X2296195Y-2075007D01*
X2296660Y-2075633D01*
X2297061Y-2076302D01*
X2297395Y-2077008D01*
X2297658Y-2077742D01*
X2297847Y-2078499D01*
X2297962Y-2079271D01*
X2298000Y-2080050D01*
X2298000Y-2095950D01*
X2297962Y-2096729D01*
X2297847Y-2097501D01*
X2297658Y-2098258D01*
X2297395Y-2098992D01*
X2297061Y-2099698D01*
X2296660Y-2100367D01*
X2296195Y-2100993D01*
X2295672Y-2101572D01*
X2295093Y-2102095D01*
X2294467Y-2102560D01*
X2293798Y-2102961D01*
X2293092Y-2103295D01*
X2292358Y-2103558D01*
X2291601Y-2103747D01*
X2290829Y-2103862D01*
X2290050Y-2103900D01*
X2269950Y-2103900D01*
X2269171Y-2103862D01*
X2268399Y-2103747D01*
X2267642Y-2103558D01*
X2266908Y-2103295D01*
X2266202Y-2102961D01*
X2265533Y-2102560D01*
X2264907Y-2102095D01*
X2264329Y-2101572D01*
X2263805Y-2100993D01*
X2263340Y-2100367D01*
X2262939Y-2099698D01*
X2262605Y-2098992D01*
X2262342Y-2098258D01*
X2262153Y-2097501D01*
X2262038Y-2096729D01*
X2262000Y-2095950D01*
X2262000Y-2080050D01*
X2262038Y-2079271D01*
X2262153Y-2078499D01*
X2262342Y-2077742D01*
X2262605Y-2077008D01*
X2262939Y-2076302D01*
X2263340Y-2075633D01*
X2263805Y-2075007D01*
X2264329Y-2074428D01*
X2264907Y-2073905D01*
X2265533Y-2073440D01*
X2266202Y-2073039D01*
X2266908Y-2072705D01*
X2267642Y-2072442D01*
X2268399Y-2072253D01*
X2269171Y-2072138D01*
X2269950Y-2072100D01*
X2290050Y-2072100D01*
X2290829Y-2072138D01*
X2290829Y-2072138D01*
G37*
D16*
X2280000Y-2088000D03*
G04 #@! TD*
D14*
G04 #@! TO.C,C21*
G36*
X2604229Y-2014538D02*
X2605001Y-2014653D01*
X2605758Y-2014842D01*
X2606492Y-2015105D01*
X2607198Y-2015439D01*
X2607867Y-2015840D01*
X2608493Y-2016305D01*
X2609072Y-2016828D01*
X2609595Y-2017407D01*
X2610060Y-2018033D01*
X2610461Y-2018702D01*
X2610795Y-2019408D01*
X2611058Y-2020142D01*
X2611247Y-2020899D01*
X2611362Y-2021671D01*
X2611400Y-2022450D01*
X2611400Y-2042550D01*
X2611362Y-2043329D01*
X2611247Y-2044101D01*
X2611058Y-2044858D01*
X2610795Y-2045592D01*
X2610461Y-2046298D01*
X2610060Y-2046967D01*
X2609595Y-2047593D01*
X2609072Y-2048171D01*
X2608493Y-2048695D01*
X2607867Y-2049160D01*
X2607198Y-2049561D01*
X2606492Y-2049895D01*
X2605758Y-2050158D01*
X2605001Y-2050347D01*
X2604229Y-2050462D01*
X2603450Y-2050500D01*
X2587550Y-2050500D01*
X2586771Y-2050462D01*
X2585999Y-2050347D01*
X2585242Y-2050158D01*
X2584508Y-2049895D01*
X2583802Y-2049561D01*
X2583133Y-2049160D01*
X2582507Y-2048695D01*
X2581929Y-2048171D01*
X2581405Y-2047593D01*
X2580940Y-2046967D01*
X2580539Y-2046298D01*
X2580205Y-2045592D01*
X2579942Y-2044858D01*
X2579753Y-2044101D01*
X2579638Y-2043329D01*
X2579600Y-2042550D01*
X2579600Y-2022450D01*
X2579638Y-2021671D01*
X2579753Y-2020899D01*
X2579942Y-2020142D01*
X2580205Y-2019408D01*
X2580539Y-2018702D01*
X2580940Y-2018033D01*
X2581405Y-2017407D01*
X2581929Y-2016828D01*
X2582507Y-2016305D01*
X2583133Y-2015840D01*
X2583802Y-2015439D01*
X2584508Y-2015105D01*
X2585242Y-2014842D01*
X2585999Y-2014653D01*
X2586771Y-2014538D01*
X2587550Y-2014500D01*
X2603450Y-2014500D01*
X2604229Y-2014538D01*
X2604229Y-2014538D01*
G37*
D16*
X2595500Y-2032500D03*
D14*
G36*
X2673229Y-2014538D02*
X2674001Y-2014653D01*
X2674758Y-2014842D01*
X2675492Y-2015105D01*
X2676198Y-2015439D01*
X2676867Y-2015840D01*
X2677493Y-2016305D01*
X2678072Y-2016828D01*
X2678595Y-2017407D01*
X2679060Y-2018033D01*
X2679461Y-2018702D01*
X2679795Y-2019408D01*
X2680058Y-2020142D01*
X2680247Y-2020899D01*
X2680362Y-2021671D01*
X2680400Y-2022450D01*
X2680400Y-2042550D01*
X2680362Y-2043329D01*
X2680247Y-2044101D01*
X2680058Y-2044858D01*
X2679795Y-2045592D01*
X2679461Y-2046298D01*
X2679060Y-2046967D01*
X2678595Y-2047593D01*
X2678072Y-2048171D01*
X2677493Y-2048695D01*
X2676867Y-2049160D01*
X2676198Y-2049561D01*
X2675492Y-2049895D01*
X2674758Y-2050158D01*
X2674001Y-2050347D01*
X2673229Y-2050462D01*
X2672450Y-2050500D01*
X2656550Y-2050500D01*
X2655771Y-2050462D01*
X2654999Y-2050347D01*
X2654242Y-2050158D01*
X2653508Y-2049895D01*
X2652802Y-2049561D01*
X2652133Y-2049160D01*
X2651507Y-2048695D01*
X2650929Y-2048171D01*
X2650405Y-2047593D01*
X2649940Y-2046967D01*
X2649539Y-2046298D01*
X2649205Y-2045592D01*
X2648942Y-2044858D01*
X2648753Y-2044101D01*
X2648638Y-2043329D01*
X2648600Y-2042550D01*
X2648600Y-2022450D01*
X2648638Y-2021671D01*
X2648753Y-2020899D01*
X2648942Y-2020142D01*
X2649205Y-2019408D01*
X2649539Y-2018702D01*
X2649940Y-2018033D01*
X2650405Y-2017407D01*
X2650929Y-2016828D01*
X2651507Y-2016305D01*
X2652133Y-2015840D01*
X2652802Y-2015439D01*
X2653508Y-2015105D01*
X2654242Y-2014842D01*
X2654999Y-2014653D01*
X2655771Y-2014538D01*
X2656550Y-2014500D01*
X2672450Y-2014500D01*
X2673229Y-2014538D01*
X2673229Y-2014538D01*
G37*
D16*
X2664500Y-2032500D03*
G04 #@! TD*
D14*
G04 #@! TO.C,C24*
G36*
X2593229Y-2472038D02*
X2594001Y-2472153D01*
X2594758Y-2472342D01*
X2595492Y-2472605D01*
X2596198Y-2472939D01*
X2596867Y-2473340D01*
X2597493Y-2473805D01*
X2598072Y-2474329D01*
X2598595Y-2474907D01*
X2599060Y-2475533D01*
X2599461Y-2476202D01*
X2599795Y-2476908D01*
X2600058Y-2477642D01*
X2600247Y-2478399D01*
X2600362Y-2479171D01*
X2600400Y-2479950D01*
X2600400Y-2500050D01*
X2600362Y-2500829D01*
X2600247Y-2501601D01*
X2600058Y-2502358D01*
X2599795Y-2503092D01*
X2599461Y-2503798D01*
X2599060Y-2504467D01*
X2598595Y-2505093D01*
X2598072Y-2505672D01*
X2597493Y-2506195D01*
X2596867Y-2506660D01*
X2596198Y-2507061D01*
X2595492Y-2507395D01*
X2594758Y-2507658D01*
X2594001Y-2507847D01*
X2593229Y-2507962D01*
X2592450Y-2508000D01*
X2576550Y-2508000D01*
X2575771Y-2507962D01*
X2574999Y-2507847D01*
X2574242Y-2507658D01*
X2573508Y-2507395D01*
X2572802Y-2507061D01*
X2572133Y-2506660D01*
X2571507Y-2506195D01*
X2570929Y-2505672D01*
X2570405Y-2505093D01*
X2569940Y-2504467D01*
X2569539Y-2503798D01*
X2569205Y-2503092D01*
X2568942Y-2502358D01*
X2568753Y-2501601D01*
X2568638Y-2500829D01*
X2568600Y-2500050D01*
X2568600Y-2479950D01*
X2568638Y-2479171D01*
X2568753Y-2478399D01*
X2568942Y-2477642D01*
X2569205Y-2476908D01*
X2569539Y-2476202D01*
X2569940Y-2475533D01*
X2570405Y-2474907D01*
X2570929Y-2474329D01*
X2571507Y-2473805D01*
X2572133Y-2473340D01*
X2572802Y-2472939D01*
X2573508Y-2472605D01*
X2574242Y-2472342D01*
X2574999Y-2472153D01*
X2575771Y-2472038D01*
X2576550Y-2472000D01*
X2592450Y-2472000D01*
X2593229Y-2472038D01*
X2593229Y-2472038D01*
G37*
D16*
X2584500Y-2490000D03*
D14*
G36*
X2524229Y-2472038D02*
X2525001Y-2472153D01*
X2525758Y-2472342D01*
X2526492Y-2472605D01*
X2527198Y-2472939D01*
X2527867Y-2473340D01*
X2528493Y-2473805D01*
X2529072Y-2474329D01*
X2529595Y-2474907D01*
X2530060Y-2475533D01*
X2530461Y-2476202D01*
X2530795Y-2476908D01*
X2531058Y-2477642D01*
X2531247Y-2478399D01*
X2531362Y-2479171D01*
X2531400Y-2479950D01*
X2531400Y-2500050D01*
X2531362Y-2500829D01*
X2531247Y-2501601D01*
X2531058Y-2502358D01*
X2530795Y-2503092D01*
X2530461Y-2503798D01*
X2530060Y-2504467D01*
X2529595Y-2505093D01*
X2529072Y-2505672D01*
X2528493Y-2506195D01*
X2527867Y-2506660D01*
X2527198Y-2507061D01*
X2526492Y-2507395D01*
X2525758Y-2507658D01*
X2525001Y-2507847D01*
X2524229Y-2507962D01*
X2523450Y-2508000D01*
X2507550Y-2508000D01*
X2506771Y-2507962D01*
X2505999Y-2507847D01*
X2505242Y-2507658D01*
X2504508Y-2507395D01*
X2503802Y-2507061D01*
X2503133Y-2506660D01*
X2502507Y-2506195D01*
X2501929Y-2505672D01*
X2501405Y-2505093D01*
X2500940Y-2504467D01*
X2500539Y-2503798D01*
X2500205Y-2503092D01*
X2499942Y-2502358D01*
X2499753Y-2501601D01*
X2499638Y-2500829D01*
X2499600Y-2500050D01*
X2499600Y-2479950D01*
X2499638Y-2479171D01*
X2499753Y-2478399D01*
X2499942Y-2477642D01*
X2500205Y-2476908D01*
X2500539Y-2476202D01*
X2500940Y-2475533D01*
X2501405Y-2474907D01*
X2501929Y-2474329D01*
X2502507Y-2473805D01*
X2503133Y-2473340D01*
X2503802Y-2472939D01*
X2504508Y-2472605D01*
X2505242Y-2472342D01*
X2505999Y-2472153D01*
X2506771Y-2472038D01*
X2507550Y-2472000D01*
X2523450Y-2472000D01*
X2524229Y-2472038D01*
X2524229Y-2472038D01*
G37*
D16*
X2515500Y-2490000D03*
G04 #@! TD*
D14*
G04 #@! TO.C,C25*
G36*
X2604229Y-1944538D02*
X2605001Y-1944653D01*
X2605758Y-1944842D01*
X2606492Y-1945105D01*
X2607198Y-1945439D01*
X2607867Y-1945840D01*
X2608493Y-1946305D01*
X2609072Y-1946828D01*
X2609595Y-1947407D01*
X2610060Y-1948033D01*
X2610461Y-1948702D01*
X2610795Y-1949408D01*
X2611058Y-1950142D01*
X2611247Y-1950899D01*
X2611362Y-1951671D01*
X2611400Y-1952450D01*
X2611400Y-1972550D01*
X2611362Y-1973329D01*
X2611247Y-1974101D01*
X2611058Y-1974858D01*
X2610795Y-1975592D01*
X2610461Y-1976298D01*
X2610060Y-1976967D01*
X2609595Y-1977593D01*
X2609072Y-1978171D01*
X2608493Y-1978695D01*
X2607867Y-1979160D01*
X2607198Y-1979561D01*
X2606492Y-1979895D01*
X2605758Y-1980158D01*
X2605001Y-1980347D01*
X2604229Y-1980462D01*
X2603450Y-1980500D01*
X2587550Y-1980500D01*
X2586771Y-1980462D01*
X2585999Y-1980347D01*
X2585242Y-1980158D01*
X2584508Y-1979895D01*
X2583802Y-1979561D01*
X2583133Y-1979160D01*
X2582507Y-1978695D01*
X2581929Y-1978171D01*
X2581405Y-1977593D01*
X2580940Y-1976967D01*
X2580539Y-1976298D01*
X2580205Y-1975592D01*
X2579942Y-1974858D01*
X2579753Y-1974101D01*
X2579638Y-1973329D01*
X2579600Y-1972550D01*
X2579600Y-1952450D01*
X2579638Y-1951671D01*
X2579753Y-1950899D01*
X2579942Y-1950142D01*
X2580205Y-1949408D01*
X2580539Y-1948702D01*
X2580940Y-1948033D01*
X2581405Y-1947407D01*
X2581929Y-1946828D01*
X2582507Y-1946305D01*
X2583133Y-1945840D01*
X2583802Y-1945439D01*
X2584508Y-1945105D01*
X2585242Y-1944842D01*
X2585999Y-1944653D01*
X2586771Y-1944538D01*
X2587550Y-1944500D01*
X2603450Y-1944500D01*
X2604229Y-1944538D01*
X2604229Y-1944538D01*
G37*
D16*
X2595500Y-1962500D03*
D14*
G36*
X2673229Y-1944538D02*
X2674001Y-1944653D01*
X2674758Y-1944842D01*
X2675492Y-1945105D01*
X2676198Y-1945439D01*
X2676867Y-1945840D01*
X2677493Y-1946305D01*
X2678072Y-1946828D01*
X2678595Y-1947407D01*
X2679060Y-1948033D01*
X2679461Y-1948702D01*
X2679795Y-1949408D01*
X2680058Y-1950142D01*
X2680247Y-1950899D01*
X2680362Y-1951671D01*
X2680400Y-1952450D01*
X2680400Y-1972550D01*
X2680362Y-1973329D01*
X2680247Y-1974101D01*
X2680058Y-1974858D01*
X2679795Y-1975592D01*
X2679461Y-1976298D01*
X2679060Y-1976967D01*
X2678595Y-1977593D01*
X2678072Y-1978171D01*
X2677493Y-1978695D01*
X2676867Y-1979160D01*
X2676198Y-1979561D01*
X2675492Y-1979895D01*
X2674758Y-1980158D01*
X2674001Y-1980347D01*
X2673229Y-1980462D01*
X2672450Y-1980500D01*
X2656550Y-1980500D01*
X2655771Y-1980462D01*
X2654999Y-1980347D01*
X2654242Y-1980158D01*
X2653508Y-1979895D01*
X2652802Y-1979561D01*
X2652133Y-1979160D01*
X2651507Y-1978695D01*
X2650929Y-1978171D01*
X2650405Y-1977593D01*
X2649940Y-1976967D01*
X2649539Y-1976298D01*
X2649205Y-1975592D01*
X2648942Y-1974858D01*
X2648753Y-1974101D01*
X2648638Y-1973329D01*
X2648600Y-1972550D01*
X2648600Y-1952450D01*
X2648638Y-1951671D01*
X2648753Y-1950899D01*
X2648942Y-1950142D01*
X2649205Y-1949408D01*
X2649539Y-1948702D01*
X2649940Y-1948033D01*
X2650405Y-1947407D01*
X2650929Y-1946828D01*
X2651507Y-1946305D01*
X2652133Y-1945840D01*
X2652802Y-1945439D01*
X2653508Y-1945105D01*
X2654242Y-1944842D01*
X2654999Y-1944653D01*
X2655771Y-1944538D01*
X2656550Y-1944500D01*
X2672450Y-1944500D01*
X2673229Y-1944538D01*
X2673229Y-1944538D01*
G37*
D16*
X2664500Y-1962500D03*
G04 #@! TD*
D14*
G04 #@! TO.C,C2*
G36*
X1815829Y-2464638D02*
X1816601Y-2464753D01*
X1817358Y-2464942D01*
X1818092Y-2465205D01*
X1818798Y-2465539D01*
X1819467Y-2465940D01*
X1820093Y-2466405D01*
X1820671Y-2466929D01*
X1821195Y-2467507D01*
X1821660Y-2468133D01*
X1822061Y-2468802D01*
X1822395Y-2469508D01*
X1822658Y-2470242D01*
X1822847Y-2470999D01*
X1822962Y-2471771D01*
X1823000Y-2472550D01*
X1823000Y-2488450D01*
X1822962Y-2489229D01*
X1822847Y-2490001D01*
X1822658Y-2490758D01*
X1822395Y-2491492D01*
X1822061Y-2492198D01*
X1821660Y-2492867D01*
X1821195Y-2493493D01*
X1820671Y-2494072D01*
X1820093Y-2494595D01*
X1819467Y-2495060D01*
X1818798Y-2495461D01*
X1818092Y-2495795D01*
X1817358Y-2496058D01*
X1816601Y-2496247D01*
X1815829Y-2496362D01*
X1815050Y-2496400D01*
X1794950Y-2496400D01*
X1794171Y-2496362D01*
X1793399Y-2496247D01*
X1792642Y-2496058D01*
X1791908Y-2495795D01*
X1791202Y-2495461D01*
X1790533Y-2495060D01*
X1789907Y-2494595D01*
X1789328Y-2494072D01*
X1788805Y-2493493D01*
X1788340Y-2492867D01*
X1787939Y-2492198D01*
X1787605Y-2491492D01*
X1787342Y-2490758D01*
X1787153Y-2490001D01*
X1787038Y-2489229D01*
X1787000Y-2488450D01*
X1787000Y-2472550D01*
X1787038Y-2471771D01*
X1787153Y-2470999D01*
X1787342Y-2470242D01*
X1787605Y-2469508D01*
X1787939Y-2468802D01*
X1788340Y-2468133D01*
X1788805Y-2467507D01*
X1789328Y-2466929D01*
X1789907Y-2466405D01*
X1790533Y-2465940D01*
X1791202Y-2465539D01*
X1791908Y-2465205D01*
X1792642Y-2464942D01*
X1793399Y-2464753D01*
X1794171Y-2464638D01*
X1794950Y-2464600D01*
X1815050Y-2464600D01*
X1815829Y-2464638D01*
X1815829Y-2464638D01*
G37*
D16*
X1805000Y-2480500D03*
D14*
G36*
X1815829Y-2533638D02*
X1816601Y-2533753D01*
X1817358Y-2533942D01*
X1818092Y-2534205D01*
X1818798Y-2534539D01*
X1819467Y-2534940D01*
X1820093Y-2535405D01*
X1820671Y-2535929D01*
X1821195Y-2536507D01*
X1821660Y-2537133D01*
X1822061Y-2537802D01*
X1822395Y-2538508D01*
X1822658Y-2539242D01*
X1822847Y-2539999D01*
X1822962Y-2540771D01*
X1823000Y-2541550D01*
X1823000Y-2557450D01*
X1822962Y-2558229D01*
X1822847Y-2559001D01*
X1822658Y-2559758D01*
X1822395Y-2560492D01*
X1822061Y-2561198D01*
X1821660Y-2561867D01*
X1821195Y-2562493D01*
X1820671Y-2563072D01*
X1820093Y-2563595D01*
X1819467Y-2564060D01*
X1818798Y-2564461D01*
X1818092Y-2564795D01*
X1817358Y-2565058D01*
X1816601Y-2565247D01*
X1815829Y-2565362D01*
X1815050Y-2565400D01*
X1794950Y-2565400D01*
X1794171Y-2565362D01*
X1793399Y-2565247D01*
X1792642Y-2565058D01*
X1791908Y-2564795D01*
X1791202Y-2564461D01*
X1790533Y-2564060D01*
X1789907Y-2563595D01*
X1789328Y-2563072D01*
X1788805Y-2562493D01*
X1788340Y-2561867D01*
X1787939Y-2561198D01*
X1787605Y-2560492D01*
X1787342Y-2559758D01*
X1787153Y-2559001D01*
X1787038Y-2558229D01*
X1787000Y-2557450D01*
X1787000Y-2541550D01*
X1787038Y-2540771D01*
X1787153Y-2539999D01*
X1787342Y-2539242D01*
X1787605Y-2538508D01*
X1787939Y-2537802D01*
X1788340Y-2537133D01*
X1788805Y-2536507D01*
X1789328Y-2535929D01*
X1789907Y-2535405D01*
X1790533Y-2534940D01*
X1791202Y-2534539D01*
X1791908Y-2534205D01*
X1792642Y-2533942D01*
X1793399Y-2533753D01*
X1794171Y-2533638D01*
X1794950Y-2533600D01*
X1815050Y-2533600D01*
X1815829Y-2533638D01*
X1815829Y-2533638D01*
G37*
D16*
X1805000Y-2549500D03*
G04 #@! TD*
D14*
G04 #@! TO.C,C3*
G36*
X1784829Y-1919138D02*
X1785601Y-1919253D01*
X1786358Y-1919442D01*
X1787092Y-1919705D01*
X1787798Y-1920039D01*
X1788467Y-1920440D01*
X1789093Y-1920905D01*
X1789671Y-1921428D01*
X1790195Y-1922007D01*
X1790660Y-1922633D01*
X1791061Y-1923302D01*
X1791395Y-1924008D01*
X1791658Y-1924742D01*
X1791847Y-1925499D01*
X1791962Y-1926271D01*
X1792000Y-1927050D01*
X1792000Y-1942950D01*
X1791962Y-1943729D01*
X1791847Y-1944501D01*
X1791658Y-1945258D01*
X1791395Y-1945992D01*
X1791061Y-1946698D01*
X1790660Y-1947367D01*
X1790195Y-1947993D01*
X1789671Y-1948571D01*
X1789093Y-1949095D01*
X1788467Y-1949560D01*
X1787798Y-1949961D01*
X1787092Y-1950295D01*
X1786358Y-1950558D01*
X1785601Y-1950747D01*
X1784829Y-1950862D01*
X1784050Y-1950900D01*
X1763950Y-1950900D01*
X1763171Y-1950862D01*
X1762399Y-1950747D01*
X1761642Y-1950558D01*
X1760908Y-1950295D01*
X1760202Y-1949961D01*
X1759533Y-1949560D01*
X1758907Y-1949095D01*
X1758328Y-1948571D01*
X1757805Y-1947993D01*
X1757340Y-1947367D01*
X1756939Y-1946698D01*
X1756605Y-1945992D01*
X1756342Y-1945258D01*
X1756153Y-1944501D01*
X1756038Y-1943729D01*
X1756000Y-1942950D01*
X1756000Y-1927050D01*
X1756038Y-1926271D01*
X1756153Y-1925499D01*
X1756342Y-1924742D01*
X1756605Y-1924008D01*
X1756939Y-1923302D01*
X1757340Y-1922633D01*
X1757805Y-1922007D01*
X1758328Y-1921428D01*
X1758907Y-1920905D01*
X1759533Y-1920440D01*
X1760202Y-1920039D01*
X1760908Y-1919705D01*
X1761642Y-1919442D01*
X1762399Y-1919253D01*
X1763171Y-1919138D01*
X1763950Y-1919100D01*
X1784050Y-1919100D01*
X1784829Y-1919138D01*
X1784829Y-1919138D01*
G37*
D16*
X1774000Y-1935000D03*
D14*
G36*
X1784829Y-1988138D02*
X1785601Y-1988253D01*
X1786358Y-1988442D01*
X1787092Y-1988705D01*
X1787798Y-1989039D01*
X1788467Y-1989440D01*
X1789093Y-1989905D01*
X1789671Y-1990428D01*
X1790195Y-1991007D01*
X1790660Y-1991633D01*
X1791061Y-1992302D01*
X1791395Y-1993008D01*
X1791658Y-1993742D01*
X1791847Y-1994499D01*
X1791962Y-1995271D01*
X1792000Y-1996050D01*
X1792000Y-2011950D01*
X1791962Y-2012729D01*
X1791847Y-2013501D01*
X1791658Y-2014258D01*
X1791395Y-2014992D01*
X1791061Y-2015698D01*
X1790660Y-2016367D01*
X1790195Y-2016993D01*
X1789671Y-2017571D01*
X1789093Y-2018095D01*
X1788467Y-2018560D01*
X1787798Y-2018961D01*
X1787092Y-2019295D01*
X1786358Y-2019558D01*
X1785601Y-2019747D01*
X1784829Y-2019862D01*
X1784050Y-2019900D01*
X1763950Y-2019900D01*
X1763171Y-2019862D01*
X1762399Y-2019747D01*
X1761642Y-2019558D01*
X1760908Y-2019295D01*
X1760202Y-2018961D01*
X1759533Y-2018560D01*
X1758907Y-2018095D01*
X1758328Y-2017571D01*
X1757805Y-2016993D01*
X1757340Y-2016367D01*
X1756939Y-2015698D01*
X1756605Y-2014992D01*
X1756342Y-2014258D01*
X1756153Y-2013501D01*
X1756038Y-2012729D01*
X1756000Y-2011950D01*
X1756000Y-1996050D01*
X1756038Y-1995271D01*
X1756153Y-1994499D01*
X1756342Y-1993742D01*
X1756605Y-1993008D01*
X1756939Y-1992302D01*
X1757340Y-1991633D01*
X1757805Y-1991007D01*
X1758328Y-1990428D01*
X1758907Y-1989905D01*
X1759533Y-1989440D01*
X1760202Y-1989039D01*
X1760908Y-1988705D01*
X1761642Y-1988442D01*
X1762399Y-1988253D01*
X1763171Y-1988138D01*
X1763950Y-1988100D01*
X1784050Y-1988100D01*
X1784829Y-1988138D01*
X1784829Y-1988138D01*
G37*
D16*
X1774000Y-2004000D03*
G04 #@! TD*
D14*
G04 #@! TO.C,C4*
G36*
X2069229Y-2236538D02*
X2070001Y-2236653D01*
X2070758Y-2236842D01*
X2071492Y-2237105D01*
X2072198Y-2237439D01*
X2072867Y-2237840D01*
X2073493Y-2238305D01*
X2074071Y-2238829D01*
X2074595Y-2239407D01*
X2075060Y-2240033D01*
X2075461Y-2240702D01*
X2075795Y-2241408D01*
X2076058Y-2242142D01*
X2076247Y-2242899D01*
X2076362Y-2243671D01*
X2076400Y-2244450D01*
X2076400Y-2264550D01*
X2076362Y-2265329D01*
X2076247Y-2266101D01*
X2076058Y-2266858D01*
X2075795Y-2267592D01*
X2075461Y-2268298D01*
X2075060Y-2268967D01*
X2074595Y-2269593D01*
X2074071Y-2270172D01*
X2073493Y-2270695D01*
X2072867Y-2271160D01*
X2072198Y-2271561D01*
X2071492Y-2271895D01*
X2070758Y-2272158D01*
X2070001Y-2272347D01*
X2069229Y-2272462D01*
X2068450Y-2272500D01*
X2052550Y-2272500D01*
X2051771Y-2272462D01*
X2050999Y-2272347D01*
X2050242Y-2272158D01*
X2049508Y-2271895D01*
X2048802Y-2271561D01*
X2048133Y-2271160D01*
X2047507Y-2270695D01*
X2046928Y-2270172D01*
X2046405Y-2269593D01*
X2045940Y-2268967D01*
X2045539Y-2268298D01*
X2045205Y-2267592D01*
X2044942Y-2266858D01*
X2044753Y-2266101D01*
X2044638Y-2265329D01*
X2044600Y-2264550D01*
X2044600Y-2244450D01*
X2044638Y-2243671D01*
X2044753Y-2242899D01*
X2044942Y-2242142D01*
X2045205Y-2241408D01*
X2045539Y-2240702D01*
X2045940Y-2240033D01*
X2046405Y-2239407D01*
X2046928Y-2238829D01*
X2047507Y-2238305D01*
X2048133Y-2237840D01*
X2048802Y-2237439D01*
X2049508Y-2237105D01*
X2050242Y-2236842D01*
X2050999Y-2236653D01*
X2051771Y-2236538D01*
X2052550Y-2236500D01*
X2068450Y-2236500D01*
X2069229Y-2236538D01*
X2069229Y-2236538D01*
G37*
D16*
X2060500Y-2254500D03*
D14*
G36*
X2138229Y-2236538D02*
X2139001Y-2236653D01*
X2139758Y-2236842D01*
X2140492Y-2237105D01*
X2141198Y-2237439D01*
X2141867Y-2237840D01*
X2142493Y-2238305D01*
X2143072Y-2238829D01*
X2143595Y-2239407D01*
X2144060Y-2240033D01*
X2144461Y-2240702D01*
X2144795Y-2241408D01*
X2145058Y-2242142D01*
X2145247Y-2242899D01*
X2145362Y-2243671D01*
X2145400Y-2244450D01*
X2145400Y-2264550D01*
X2145362Y-2265329D01*
X2145247Y-2266101D01*
X2145058Y-2266858D01*
X2144795Y-2267592D01*
X2144461Y-2268298D01*
X2144060Y-2268967D01*
X2143595Y-2269593D01*
X2143072Y-2270172D01*
X2142493Y-2270695D01*
X2141867Y-2271160D01*
X2141198Y-2271561D01*
X2140492Y-2271895D01*
X2139758Y-2272158D01*
X2139001Y-2272347D01*
X2138229Y-2272462D01*
X2137450Y-2272500D01*
X2121550Y-2272500D01*
X2120771Y-2272462D01*
X2119999Y-2272347D01*
X2119242Y-2272158D01*
X2118508Y-2271895D01*
X2117802Y-2271561D01*
X2117133Y-2271160D01*
X2116507Y-2270695D01*
X2115929Y-2270172D01*
X2115405Y-2269593D01*
X2114940Y-2268967D01*
X2114539Y-2268298D01*
X2114205Y-2267592D01*
X2113942Y-2266858D01*
X2113753Y-2266101D01*
X2113638Y-2265329D01*
X2113600Y-2264550D01*
X2113600Y-2244450D01*
X2113638Y-2243671D01*
X2113753Y-2242899D01*
X2113942Y-2242142D01*
X2114205Y-2241408D01*
X2114539Y-2240702D01*
X2114940Y-2240033D01*
X2115405Y-2239407D01*
X2115929Y-2238829D01*
X2116507Y-2238305D01*
X2117133Y-2237840D01*
X2117802Y-2237439D01*
X2118508Y-2237105D01*
X2119242Y-2236842D01*
X2119999Y-2236653D01*
X2120771Y-2236538D01*
X2121550Y-2236500D01*
X2137450Y-2236500D01*
X2138229Y-2236538D01*
X2138229Y-2236538D01*
G37*
D16*
X2129500Y-2254500D03*
G04 #@! TD*
D14*
G04 #@! TO.C,C5*
G36*
X2220829Y-2212138D02*
X2221601Y-2212253D01*
X2222358Y-2212442D01*
X2223092Y-2212705D01*
X2223798Y-2213039D01*
X2224467Y-2213440D01*
X2225093Y-2213905D01*
X2225672Y-2214429D01*
X2226195Y-2215007D01*
X2226660Y-2215633D01*
X2227061Y-2216302D01*
X2227395Y-2217008D01*
X2227658Y-2217742D01*
X2227847Y-2218499D01*
X2227962Y-2219271D01*
X2228000Y-2220050D01*
X2228000Y-2235950D01*
X2227962Y-2236729D01*
X2227847Y-2237501D01*
X2227658Y-2238258D01*
X2227395Y-2238992D01*
X2227061Y-2239698D01*
X2226660Y-2240367D01*
X2226195Y-2240993D01*
X2225672Y-2241572D01*
X2225093Y-2242095D01*
X2224467Y-2242560D01*
X2223798Y-2242961D01*
X2223092Y-2243295D01*
X2222358Y-2243558D01*
X2221601Y-2243747D01*
X2220829Y-2243862D01*
X2220050Y-2243900D01*
X2199950Y-2243900D01*
X2199171Y-2243862D01*
X2198399Y-2243747D01*
X2197642Y-2243558D01*
X2196908Y-2243295D01*
X2196202Y-2242961D01*
X2195533Y-2242560D01*
X2194907Y-2242095D01*
X2194329Y-2241572D01*
X2193805Y-2240993D01*
X2193340Y-2240367D01*
X2192939Y-2239698D01*
X2192605Y-2238992D01*
X2192342Y-2238258D01*
X2192153Y-2237501D01*
X2192038Y-2236729D01*
X2192000Y-2235950D01*
X2192000Y-2220050D01*
X2192038Y-2219271D01*
X2192153Y-2218499D01*
X2192342Y-2217742D01*
X2192605Y-2217008D01*
X2192939Y-2216302D01*
X2193340Y-2215633D01*
X2193805Y-2215007D01*
X2194329Y-2214429D01*
X2194907Y-2213905D01*
X2195533Y-2213440D01*
X2196202Y-2213039D01*
X2196908Y-2212705D01*
X2197642Y-2212442D01*
X2198399Y-2212253D01*
X2199171Y-2212138D01*
X2199950Y-2212100D01*
X2220050Y-2212100D01*
X2220829Y-2212138D01*
X2220829Y-2212138D01*
G37*
D16*
X2210000Y-2228000D03*
D14*
G36*
X2220829Y-2281138D02*
X2221601Y-2281253D01*
X2222358Y-2281442D01*
X2223092Y-2281705D01*
X2223798Y-2282039D01*
X2224467Y-2282440D01*
X2225093Y-2282905D01*
X2225672Y-2283429D01*
X2226195Y-2284007D01*
X2226660Y-2284633D01*
X2227061Y-2285302D01*
X2227395Y-2286008D01*
X2227658Y-2286742D01*
X2227847Y-2287499D01*
X2227962Y-2288271D01*
X2228000Y-2289050D01*
X2228000Y-2304950D01*
X2227962Y-2305729D01*
X2227847Y-2306501D01*
X2227658Y-2307258D01*
X2227395Y-2307992D01*
X2227061Y-2308698D01*
X2226660Y-2309367D01*
X2226195Y-2309993D01*
X2225672Y-2310572D01*
X2225093Y-2311095D01*
X2224467Y-2311560D01*
X2223798Y-2311961D01*
X2223092Y-2312295D01*
X2222358Y-2312558D01*
X2221601Y-2312747D01*
X2220829Y-2312862D01*
X2220050Y-2312900D01*
X2199950Y-2312900D01*
X2199171Y-2312862D01*
X2198399Y-2312747D01*
X2197642Y-2312558D01*
X2196908Y-2312295D01*
X2196202Y-2311961D01*
X2195533Y-2311560D01*
X2194907Y-2311095D01*
X2194329Y-2310572D01*
X2193805Y-2309993D01*
X2193340Y-2309367D01*
X2192939Y-2308698D01*
X2192605Y-2307992D01*
X2192342Y-2307258D01*
X2192153Y-2306501D01*
X2192038Y-2305729D01*
X2192000Y-2304950D01*
X2192000Y-2289050D01*
X2192038Y-2288271D01*
X2192153Y-2287499D01*
X2192342Y-2286742D01*
X2192605Y-2286008D01*
X2192939Y-2285302D01*
X2193340Y-2284633D01*
X2193805Y-2284007D01*
X2194329Y-2283429D01*
X2194907Y-2282905D01*
X2195533Y-2282440D01*
X2196202Y-2282039D01*
X2196908Y-2281705D01*
X2197642Y-2281442D01*
X2198399Y-2281253D01*
X2199171Y-2281138D01*
X2199950Y-2281100D01*
X2220050Y-2281100D01*
X2220829Y-2281138D01*
X2220829Y-2281138D01*
G37*
D16*
X2210000Y-2297000D03*
G04 #@! TD*
D14*
G04 #@! TO.C,C7*
G36*
X2290829Y-2212138D02*
X2291601Y-2212253D01*
X2292358Y-2212442D01*
X2293092Y-2212705D01*
X2293798Y-2213039D01*
X2294467Y-2213440D01*
X2295093Y-2213905D01*
X2295672Y-2214429D01*
X2296195Y-2215007D01*
X2296660Y-2215633D01*
X2297061Y-2216302D01*
X2297395Y-2217008D01*
X2297658Y-2217742D01*
X2297847Y-2218499D01*
X2297962Y-2219271D01*
X2298000Y-2220050D01*
X2298000Y-2235950D01*
X2297962Y-2236729D01*
X2297847Y-2237501D01*
X2297658Y-2238258D01*
X2297395Y-2238992D01*
X2297061Y-2239698D01*
X2296660Y-2240367D01*
X2296195Y-2240993D01*
X2295672Y-2241572D01*
X2295093Y-2242095D01*
X2294467Y-2242560D01*
X2293798Y-2242961D01*
X2293092Y-2243295D01*
X2292358Y-2243558D01*
X2291601Y-2243747D01*
X2290829Y-2243862D01*
X2290050Y-2243900D01*
X2269950Y-2243900D01*
X2269171Y-2243862D01*
X2268399Y-2243747D01*
X2267642Y-2243558D01*
X2266908Y-2243295D01*
X2266202Y-2242961D01*
X2265533Y-2242560D01*
X2264907Y-2242095D01*
X2264329Y-2241572D01*
X2263805Y-2240993D01*
X2263340Y-2240367D01*
X2262939Y-2239698D01*
X2262605Y-2238992D01*
X2262342Y-2238258D01*
X2262153Y-2237501D01*
X2262038Y-2236729D01*
X2262000Y-2235950D01*
X2262000Y-2220050D01*
X2262038Y-2219271D01*
X2262153Y-2218499D01*
X2262342Y-2217742D01*
X2262605Y-2217008D01*
X2262939Y-2216302D01*
X2263340Y-2215633D01*
X2263805Y-2215007D01*
X2264329Y-2214429D01*
X2264907Y-2213905D01*
X2265533Y-2213440D01*
X2266202Y-2213039D01*
X2266908Y-2212705D01*
X2267642Y-2212442D01*
X2268399Y-2212253D01*
X2269171Y-2212138D01*
X2269950Y-2212100D01*
X2290050Y-2212100D01*
X2290829Y-2212138D01*
X2290829Y-2212138D01*
G37*
D16*
X2280000Y-2228000D03*
D14*
G36*
X2290829Y-2281138D02*
X2291601Y-2281253D01*
X2292358Y-2281442D01*
X2293092Y-2281705D01*
X2293798Y-2282039D01*
X2294467Y-2282440D01*
X2295093Y-2282905D01*
X2295672Y-2283429D01*
X2296195Y-2284007D01*
X2296660Y-2284633D01*
X2297061Y-2285302D01*
X2297395Y-2286008D01*
X2297658Y-2286742D01*
X2297847Y-2287499D01*
X2297962Y-2288271D01*
X2298000Y-2289050D01*
X2298000Y-2304950D01*
X2297962Y-2305729D01*
X2297847Y-2306501D01*
X2297658Y-2307258D01*
X2297395Y-2307992D01*
X2297061Y-2308698D01*
X2296660Y-2309367D01*
X2296195Y-2309993D01*
X2295672Y-2310572D01*
X2295093Y-2311095D01*
X2294467Y-2311560D01*
X2293798Y-2311961D01*
X2293092Y-2312295D01*
X2292358Y-2312558D01*
X2291601Y-2312747D01*
X2290829Y-2312862D01*
X2290050Y-2312900D01*
X2269950Y-2312900D01*
X2269171Y-2312862D01*
X2268399Y-2312747D01*
X2267642Y-2312558D01*
X2266908Y-2312295D01*
X2266202Y-2311961D01*
X2265533Y-2311560D01*
X2264907Y-2311095D01*
X2264329Y-2310572D01*
X2263805Y-2309993D01*
X2263340Y-2309367D01*
X2262939Y-2308698D01*
X2262605Y-2307992D01*
X2262342Y-2307258D01*
X2262153Y-2306501D01*
X2262038Y-2305729D01*
X2262000Y-2304950D01*
X2262000Y-2289050D01*
X2262038Y-2288271D01*
X2262153Y-2287499D01*
X2262342Y-2286742D01*
X2262605Y-2286008D01*
X2262939Y-2285302D01*
X2263340Y-2284633D01*
X2263805Y-2284007D01*
X2264329Y-2283429D01*
X2264907Y-2282905D01*
X2265533Y-2282440D01*
X2266202Y-2282039D01*
X2266908Y-2281705D01*
X2267642Y-2281442D01*
X2268399Y-2281253D01*
X2269171Y-2281138D01*
X2269950Y-2281100D01*
X2290050Y-2281100D01*
X2290829Y-2281138D01*
X2290829Y-2281138D01*
G37*
D16*
X2280000Y-2297000D03*
G04 #@! TD*
D14*
G04 #@! TO.C,C8*
G36*
X2036829Y-1770138D02*
X2037601Y-1770253D01*
X2038358Y-1770442D01*
X2039092Y-1770705D01*
X2039798Y-1771039D01*
X2040467Y-1771440D01*
X2041093Y-1771905D01*
X2041671Y-1772428D01*
X2042195Y-1773007D01*
X2042660Y-1773633D01*
X2043061Y-1774302D01*
X2043395Y-1775008D01*
X2043658Y-1775742D01*
X2043847Y-1776499D01*
X2043962Y-1777271D01*
X2044000Y-1778050D01*
X2044000Y-1793950D01*
X2043962Y-1794729D01*
X2043847Y-1795501D01*
X2043658Y-1796258D01*
X2043395Y-1796992D01*
X2043061Y-1797698D01*
X2042660Y-1798367D01*
X2042195Y-1798993D01*
X2041671Y-1799571D01*
X2041093Y-1800095D01*
X2040467Y-1800560D01*
X2039798Y-1800961D01*
X2039092Y-1801295D01*
X2038358Y-1801558D01*
X2037601Y-1801747D01*
X2036829Y-1801862D01*
X2036050Y-1801900D01*
X2015950Y-1801900D01*
X2015171Y-1801862D01*
X2014399Y-1801747D01*
X2013642Y-1801558D01*
X2012908Y-1801295D01*
X2012202Y-1800961D01*
X2011533Y-1800560D01*
X2010907Y-1800095D01*
X2010328Y-1799571D01*
X2009805Y-1798993D01*
X2009340Y-1798367D01*
X2008939Y-1797698D01*
X2008605Y-1796992D01*
X2008342Y-1796258D01*
X2008153Y-1795501D01*
X2008038Y-1794729D01*
X2008000Y-1793950D01*
X2008000Y-1778050D01*
X2008038Y-1777271D01*
X2008153Y-1776499D01*
X2008342Y-1775742D01*
X2008605Y-1775008D01*
X2008939Y-1774302D01*
X2009340Y-1773633D01*
X2009805Y-1773007D01*
X2010328Y-1772428D01*
X2010907Y-1771905D01*
X2011533Y-1771440D01*
X2012202Y-1771039D01*
X2012908Y-1770705D01*
X2013642Y-1770442D01*
X2014399Y-1770253D01*
X2015171Y-1770138D01*
X2015950Y-1770100D01*
X2036050Y-1770100D01*
X2036829Y-1770138D01*
X2036829Y-1770138D01*
G37*
D16*
X2026000Y-1786000D03*
D14*
G36*
X2036829Y-1839138D02*
X2037601Y-1839253D01*
X2038358Y-1839442D01*
X2039092Y-1839705D01*
X2039798Y-1840039D01*
X2040467Y-1840440D01*
X2041093Y-1840905D01*
X2041671Y-1841428D01*
X2042195Y-1842007D01*
X2042660Y-1842633D01*
X2043061Y-1843302D01*
X2043395Y-1844008D01*
X2043658Y-1844742D01*
X2043847Y-1845499D01*
X2043962Y-1846271D01*
X2044000Y-1847050D01*
X2044000Y-1862950D01*
X2043962Y-1863729D01*
X2043847Y-1864501D01*
X2043658Y-1865258D01*
X2043395Y-1865992D01*
X2043061Y-1866698D01*
X2042660Y-1867367D01*
X2042195Y-1867993D01*
X2041671Y-1868571D01*
X2041093Y-1869095D01*
X2040467Y-1869560D01*
X2039798Y-1869961D01*
X2039092Y-1870295D01*
X2038358Y-1870558D01*
X2037601Y-1870747D01*
X2036829Y-1870862D01*
X2036050Y-1870900D01*
X2015950Y-1870900D01*
X2015171Y-1870862D01*
X2014399Y-1870747D01*
X2013642Y-1870558D01*
X2012908Y-1870295D01*
X2012202Y-1869961D01*
X2011533Y-1869560D01*
X2010907Y-1869095D01*
X2010328Y-1868571D01*
X2009805Y-1867993D01*
X2009340Y-1867367D01*
X2008939Y-1866698D01*
X2008605Y-1865992D01*
X2008342Y-1865258D01*
X2008153Y-1864501D01*
X2008038Y-1863729D01*
X2008000Y-1862950D01*
X2008000Y-1847050D01*
X2008038Y-1846271D01*
X2008153Y-1845499D01*
X2008342Y-1844742D01*
X2008605Y-1844008D01*
X2008939Y-1843302D01*
X2009340Y-1842633D01*
X2009805Y-1842007D01*
X2010328Y-1841428D01*
X2010907Y-1840905D01*
X2011533Y-1840440D01*
X2012202Y-1840039D01*
X2012908Y-1839705D01*
X2013642Y-1839442D01*
X2014399Y-1839253D01*
X2015171Y-1839138D01*
X2015950Y-1839100D01*
X2036050Y-1839100D01*
X2036829Y-1839138D01*
X2036829Y-1839138D01*
G37*
D16*
X2026000Y-1855000D03*
G04 #@! TD*
D14*
G04 #@! TO.C,C9*
G36*
X2025829Y-2309138D02*
X2026601Y-2309253D01*
X2027358Y-2309442D01*
X2028092Y-2309705D01*
X2028798Y-2310039D01*
X2029467Y-2310440D01*
X2030093Y-2310905D01*
X2030671Y-2311429D01*
X2031195Y-2312007D01*
X2031660Y-2312633D01*
X2032061Y-2313302D01*
X2032395Y-2314008D01*
X2032658Y-2314742D01*
X2032847Y-2315499D01*
X2032962Y-2316271D01*
X2033000Y-2317050D01*
X2033000Y-2332950D01*
X2032962Y-2333729D01*
X2032847Y-2334501D01*
X2032658Y-2335258D01*
X2032395Y-2335992D01*
X2032061Y-2336698D01*
X2031660Y-2337367D01*
X2031195Y-2337993D01*
X2030671Y-2338572D01*
X2030093Y-2339095D01*
X2029467Y-2339560D01*
X2028798Y-2339961D01*
X2028092Y-2340295D01*
X2027358Y-2340558D01*
X2026601Y-2340747D01*
X2025829Y-2340862D01*
X2025050Y-2340900D01*
X2004950Y-2340900D01*
X2004171Y-2340862D01*
X2003399Y-2340747D01*
X2002642Y-2340558D01*
X2001908Y-2340295D01*
X2001202Y-2339961D01*
X2000533Y-2339560D01*
X1999907Y-2339095D01*
X1999328Y-2338572D01*
X1998805Y-2337993D01*
X1998340Y-2337367D01*
X1997939Y-2336698D01*
X1997605Y-2335992D01*
X1997342Y-2335258D01*
X1997153Y-2334501D01*
X1997038Y-2333729D01*
X1997000Y-2332950D01*
X1997000Y-2317050D01*
X1997038Y-2316271D01*
X1997153Y-2315499D01*
X1997342Y-2314742D01*
X1997605Y-2314008D01*
X1997939Y-2313302D01*
X1998340Y-2312633D01*
X1998805Y-2312007D01*
X1999328Y-2311429D01*
X1999907Y-2310905D01*
X2000533Y-2310440D01*
X2001202Y-2310039D01*
X2001908Y-2309705D01*
X2002642Y-2309442D01*
X2003399Y-2309253D01*
X2004171Y-2309138D01*
X2004950Y-2309100D01*
X2025050Y-2309100D01*
X2025829Y-2309138D01*
X2025829Y-2309138D01*
G37*
D16*
X2015000Y-2325000D03*
D14*
G36*
X2025829Y-2378138D02*
X2026601Y-2378253D01*
X2027358Y-2378442D01*
X2028092Y-2378705D01*
X2028798Y-2379039D01*
X2029467Y-2379440D01*
X2030093Y-2379905D01*
X2030671Y-2380429D01*
X2031195Y-2381007D01*
X2031660Y-2381633D01*
X2032061Y-2382302D01*
X2032395Y-2383008D01*
X2032658Y-2383742D01*
X2032847Y-2384499D01*
X2032962Y-2385271D01*
X2033000Y-2386050D01*
X2033000Y-2401950D01*
X2032962Y-2402729D01*
X2032847Y-2403501D01*
X2032658Y-2404258D01*
X2032395Y-2404992D01*
X2032061Y-2405698D01*
X2031660Y-2406367D01*
X2031195Y-2406993D01*
X2030671Y-2407572D01*
X2030093Y-2408095D01*
X2029467Y-2408560D01*
X2028798Y-2408961D01*
X2028092Y-2409295D01*
X2027358Y-2409558D01*
X2026601Y-2409747D01*
X2025829Y-2409862D01*
X2025050Y-2409900D01*
X2004950Y-2409900D01*
X2004171Y-2409862D01*
X2003399Y-2409747D01*
X2002642Y-2409558D01*
X2001908Y-2409295D01*
X2001202Y-2408961D01*
X2000533Y-2408560D01*
X1999907Y-2408095D01*
X1999328Y-2407572D01*
X1998805Y-2406993D01*
X1998340Y-2406367D01*
X1997939Y-2405698D01*
X1997605Y-2404992D01*
X1997342Y-2404258D01*
X1997153Y-2403501D01*
X1997038Y-2402729D01*
X1997000Y-2401950D01*
X1997000Y-2386050D01*
X1997038Y-2385271D01*
X1997153Y-2384499D01*
X1997342Y-2383742D01*
X1997605Y-2383008D01*
X1997939Y-2382302D01*
X1998340Y-2381633D01*
X1998805Y-2381007D01*
X1999328Y-2380429D01*
X1999907Y-2379905D01*
X2000533Y-2379440D01*
X2001202Y-2379039D01*
X2001908Y-2378705D01*
X2002642Y-2378442D01*
X2003399Y-2378253D01*
X2004171Y-2378138D01*
X2004950Y-2378100D01*
X2025050Y-2378100D01*
X2025829Y-2378138D01*
X2025829Y-2378138D01*
G37*
D16*
X2015000Y-2394000D03*
G04 #@! TD*
D14*
G04 #@! TO.C,C10*
G36*
X2036829Y-1917638D02*
X2037601Y-1917753D01*
X2038358Y-1917942D01*
X2039092Y-1918205D01*
X2039798Y-1918539D01*
X2040467Y-1918940D01*
X2041093Y-1919405D01*
X2041671Y-1919928D01*
X2042195Y-1920507D01*
X2042660Y-1921133D01*
X2043061Y-1921802D01*
X2043395Y-1922508D01*
X2043658Y-1923242D01*
X2043847Y-1923999D01*
X2043962Y-1924771D01*
X2044000Y-1925550D01*
X2044000Y-1941450D01*
X2043962Y-1942229D01*
X2043847Y-1943001D01*
X2043658Y-1943758D01*
X2043395Y-1944492D01*
X2043061Y-1945198D01*
X2042660Y-1945867D01*
X2042195Y-1946493D01*
X2041671Y-1947071D01*
X2041093Y-1947595D01*
X2040467Y-1948060D01*
X2039798Y-1948461D01*
X2039092Y-1948795D01*
X2038358Y-1949058D01*
X2037601Y-1949247D01*
X2036829Y-1949362D01*
X2036050Y-1949400D01*
X2015950Y-1949400D01*
X2015171Y-1949362D01*
X2014399Y-1949247D01*
X2013642Y-1949058D01*
X2012908Y-1948795D01*
X2012202Y-1948461D01*
X2011533Y-1948060D01*
X2010907Y-1947595D01*
X2010328Y-1947071D01*
X2009805Y-1946493D01*
X2009340Y-1945867D01*
X2008939Y-1945198D01*
X2008605Y-1944492D01*
X2008342Y-1943758D01*
X2008153Y-1943001D01*
X2008038Y-1942229D01*
X2008000Y-1941450D01*
X2008000Y-1925550D01*
X2008038Y-1924771D01*
X2008153Y-1923999D01*
X2008342Y-1923242D01*
X2008605Y-1922508D01*
X2008939Y-1921802D01*
X2009340Y-1921133D01*
X2009805Y-1920507D01*
X2010328Y-1919928D01*
X2010907Y-1919405D01*
X2011533Y-1918940D01*
X2012202Y-1918539D01*
X2012908Y-1918205D01*
X2013642Y-1917942D01*
X2014399Y-1917753D01*
X2015171Y-1917638D01*
X2015950Y-1917600D01*
X2036050Y-1917600D01*
X2036829Y-1917638D01*
X2036829Y-1917638D01*
G37*
D16*
X2026000Y-1933500D03*
D14*
G36*
X2036829Y-1986638D02*
X2037601Y-1986753D01*
X2038358Y-1986942D01*
X2039092Y-1987205D01*
X2039798Y-1987539D01*
X2040467Y-1987940D01*
X2041093Y-1988405D01*
X2041671Y-1988928D01*
X2042195Y-1989507D01*
X2042660Y-1990133D01*
X2043061Y-1990802D01*
X2043395Y-1991508D01*
X2043658Y-1992242D01*
X2043847Y-1992999D01*
X2043962Y-1993771D01*
X2044000Y-1994550D01*
X2044000Y-2010450D01*
X2043962Y-2011229D01*
X2043847Y-2012001D01*
X2043658Y-2012758D01*
X2043395Y-2013492D01*
X2043061Y-2014198D01*
X2042660Y-2014867D01*
X2042195Y-2015493D01*
X2041671Y-2016071D01*
X2041093Y-2016595D01*
X2040467Y-2017060D01*
X2039798Y-2017461D01*
X2039092Y-2017795D01*
X2038358Y-2018058D01*
X2037601Y-2018247D01*
X2036829Y-2018362D01*
X2036050Y-2018400D01*
X2015950Y-2018400D01*
X2015171Y-2018362D01*
X2014399Y-2018247D01*
X2013642Y-2018058D01*
X2012908Y-2017795D01*
X2012202Y-2017461D01*
X2011533Y-2017060D01*
X2010907Y-2016595D01*
X2010328Y-2016071D01*
X2009805Y-2015493D01*
X2009340Y-2014867D01*
X2008939Y-2014198D01*
X2008605Y-2013492D01*
X2008342Y-2012758D01*
X2008153Y-2012001D01*
X2008038Y-2011229D01*
X2008000Y-2010450D01*
X2008000Y-1994550D01*
X2008038Y-1993771D01*
X2008153Y-1992999D01*
X2008342Y-1992242D01*
X2008605Y-1991508D01*
X2008939Y-1990802D01*
X2009340Y-1990133D01*
X2009805Y-1989507D01*
X2010328Y-1988928D01*
X2010907Y-1988405D01*
X2011533Y-1987940D01*
X2012202Y-1987539D01*
X2012908Y-1987205D01*
X2013642Y-1986942D01*
X2014399Y-1986753D01*
X2015171Y-1986638D01*
X2015950Y-1986600D01*
X2036050Y-1986600D01*
X2036829Y-1986638D01*
X2036829Y-1986638D01*
G37*
D16*
X2026000Y-2002500D03*
G04 #@! TD*
D14*
G04 #@! TO.C,R11*
G36*
X1860829Y-2238638D02*
X1861601Y-2238753D01*
X1862358Y-2238942D01*
X1863092Y-2239205D01*
X1863798Y-2239539D01*
X1864467Y-2239940D01*
X1865093Y-2240405D01*
X1865671Y-2240929D01*
X1866195Y-2241507D01*
X1866660Y-2242133D01*
X1867061Y-2242802D01*
X1867395Y-2243508D01*
X1867658Y-2244242D01*
X1867847Y-2244999D01*
X1867962Y-2245771D01*
X1868000Y-2246550D01*
X1868000Y-2262450D01*
X1867962Y-2263229D01*
X1867847Y-2264001D01*
X1867658Y-2264758D01*
X1867395Y-2265492D01*
X1867061Y-2266198D01*
X1866660Y-2266867D01*
X1866195Y-2267493D01*
X1865671Y-2268072D01*
X1865093Y-2268595D01*
X1864467Y-2269060D01*
X1863798Y-2269461D01*
X1863092Y-2269795D01*
X1862358Y-2270058D01*
X1861601Y-2270247D01*
X1860829Y-2270362D01*
X1860050Y-2270400D01*
X1839950Y-2270400D01*
X1839171Y-2270362D01*
X1838399Y-2270247D01*
X1837642Y-2270058D01*
X1836908Y-2269795D01*
X1836202Y-2269461D01*
X1835533Y-2269060D01*
X1834907Y-2268595D01*
X1834328Y-2268072D01*
X1833805Y-2267493D01*
X1833340Y-2266867D01*
X1832939Y-2266198D01*
X1832605Y-2265492D01*
X1832342Y-2264758D01*
X1832153Y-2264001D01*
X1832038Y-2263229D01*
X1832000Y-2262450D01*
X1832000Y-2246550D01*
X1832038Y-2245771D01*
X1832153Y-2244999D01*
X1832342Y-2244242D01*
X1832605Y-2243508D01*
X1832939Y-2242802D01*
X1833340Y-2242133D01*
X1833805Y-2241507D01*
X1834328Y-2240929D01*
X1834907Y-2240405D01*
X1835533Y-2239940D01*
X1836202Y-2239539D01*
X1836908Y-2239205D01*
X1837642Y-2238942D01*
X1838399Y-2238753D01*
X1839171Y-2238638D01*
X1839950Y-2238600D01*
X1860050Y-2238600D01*
X1860829Y-2238638D01*
X1860829Y-2238638D01*
G37*
D16*
X1850000Y-2254500D03*
D14*
G36*
X1860829Y-2169638D02*
X1861601Y-2169753D01*
X1862358Y-2169942D01*
X1863092Y-2170205D01*
X1863798Y-2170539D01*
X1864467Y-2170940D01*
X1865093Y-2171405D01*
X1865671Y-2171929D01*
X1866195Y-2172507D01*
X1866660Y-2173133D01*
X1867061Y-2173802D01*
X1867395Y-2174508D01*
X1867658Y-2175242D01*
X1867847Y-2175999D01*
X1867962Y-2176771D01*
X1868000Y-2177550D01*
X1868000Y-2193450D01*
X1867962Y-2194229D01*
X1867847Y-2195001D01*
X1867658Y-2195758D01*
X1867395Y-2196492D01*
X1867061Y-2197198D01*
X1866660Y-2197867D01*
X1866195Y-2198493D01*
X1865671Y-2199072D01*
X1865093Y-2199595D01*
X1864467Y-2200060D01*
X1863798Y-2200461D01*
X1863092Y-2200795D01*
X1862358Y-2201058D01*
X1861601Y-2201247D01*
X1860829Y-2201362D01*
X1860050Y-2201400D01*
X1839950Y-2201400D01*
X1839171Y-2201362D01*
X1838399Y-2201247D01*
X1837642Y-2201058D01*
X1836908Y-2200795D01*
X1836202Y-2200461D01*
X1835533Y-2200060D01*
X1834907Y-2199595D01*
X1834328Y-2199072D01*
X1833805Y-2198493D01*
X1833340Y-2197867D01*
X1832939Y-2197198D01*
X1832605Y-2196492D01*
X1832342Y-2195758D01*
X1832153Y-2195001D01*
X1832038Y-2194229D01*
X1832000Y-2193450D01*
X1832000Y-2177550D01*
X1832038Y-2176771D01*
X1832153Y-2175999D01*
X1832342Y-2175242D01*
X1832605Y-2174508D01*
X1832939Y-2173802D01*
X1833340Y-2173133D01*
X1833805Y-2172507D01*
X1834328Y-2171929D01*
X1834907Y-2171405D01*
X1835533Y-2170940D01*
X1836202Y-2170539D01*
X1836908Y-2170205D01*
X1837642Y-2169942D01*
X1838399Y-2169753D01*
X1839171Y-2169638D01*
X1839950Y-2169600D01*
X1860050Y-2169600D01*
X1860829Y-2169638D01*
X1860829Y-2169638D01*
G37*
D16*
X1850000Y-2185500D03*
G04 #@! TD*
D14*
G04 #@! TO.C,R1*
G36*
X1790829Y-2169638D02*
X1791601Y-2169753D01*
X1792358Y-2169942D01*
X1793092Y-2170205D01*
X1793798Y-2170539D01*
X1794467Y-2170940D01*
X1795093Y-2171405D01*
X1795671Y-2171929D01*
X1796195Y-2172507D01*
X1796660Y-2173133D01*
X1797061Y-2173802D01*
X1797395Y-2174508D01*
X1797658Y-2175242D01*
X1797847Y-2175999D01*
X1797962Y-2176771D01*
X1798000Y-2177550D01*
X1798000Y-2193450D01*
X1797962Y-2194229D01*
X1797847Y-2195001D01*
X1797658Y-2195758D01*
X1797395Y-2196492D01*
X1797061Y-2197198D01*
X1796660Y-2197867D01*
X1796195Y-2198493D01*
X1795671Y-2199072D01*
X1795093Y-2199595D01*
X1794467Y-2200060D01*
X1793798Y-2200461D01*
X1793092Y-2200795D01*
X1792358Y-2201058D01*
X1791601Y-2201247D01*
X1790829Y-2201362D01*
X1790050Y-2201400D01*
X1769950Y-2201400D01*
X1769171Y-2201362D01*
X1768399Y-2201247D01*
X1767642Y-2201058D01*
X1766908Y-2200795D01*
X1766202Y-2200461D01*
X1765533Y-2200060D01*
X1764907Y-2199595D01*
X1764328Y-2199072D01*
X1763805Y-2198493D01*
X1763340Y-2197867D01*
X1762939Y-2197198D01*
X1762605Y-2196492D01*
X1762342Y-2195758D01*
X1762153Y-2195001D01*
X1762038Y-2194229D01*
X1762000Y-2193450D01*
X1762000Y-2177550D01*
X1762038Y-2176771D01*
X1762153Y-2175999D01*
X1762342Y-2175242D01*
X1762605Y-2174508D01*
X1762939Y-2173802D01*
X1763340Y-2173133D01*
X1763805Y-2172507D01*
X1764328Y-2171929D01*
X1764907Y-2171405D01*
X1765533Y-2170940D01*
X1766202Y-2170539D01*
X1766908Y-2170205D01*
X1767642Y-2169942D01*
X1768399Y-2169753D01*
X1769171Y-2169638D01*
X1769950Y-2169600D01*
X1790050Y-2169600D01*
X1790829Y-2169638D01*
X1790829Y-2169638D01*
G37*
D16*
X1780000Y-2185500D03*
D14*
G36*
X1790829Y-2238638D02*
X1791601Y-2238753D01*
X1792358Y-2238942D01*
X1793092Y-2239205D01*
X1793798Y-2239539D01*
X1794467Y-2239940D01*
X1795093Y-2240405D01*
X1795671Y-2240929D01*
X1796195Y-2241507D01*
X1796660Y-2242133D01*
X1797061Y-2242802D01*
X1797395Y-2243508D01*
X1797658Y-2244242D01*
X1797847Y-2244999D01*
X1797962Y-2245771D01*
X1798000Y-2246550D01*
X1798000Y-2262450D01*
X1797962Y-2263229D01*
X1797847Y-2264001D01*
X1797658Y-2264758D01*
X1797395Y-2265492D01*
X1797061Y-2266198D01*
X1796660Y-2266867D01*
X1796195Y-2267493D01*
X1795671Y-2268072D01*
X1795093Y-2268595D01*
X1794467Y-2269060D01*
X1793798Y-2269461D01*
X1793092Y-2269795D01*
X1792358Y-2270058D01*
X1791601Y-2270247D01*
X1790829Y-2270362D01*
X1790050Y-2270400D01*
X1769950Y-2270400D01*
X1769171Y-2270362D01*
X1768399Y-2270247D01*
X1767642Y-2270058D01*
X1766908Y-2269795D01*
X1766202Y-2269461D01*
X1765533Y-2269060D01*
X1764907Y-2268595D01*
X1764328Y-2268072D01*
X1763805Y-2267493D01*
X1763340Y-2266867D01*
X1762939Y-2266198D01*
X1762605Y-2265492D01*
X1762342Y-2264758D01*
X1762153Y-2264001D01*
X1762038Y-2263229D01*
X1762000Y-2262450D01*
X1762000Y-2246550D01*
X1762038Y-2245771D01*
X1762153Y-2244999D01*
X1762342Y-2244242D01*
X1762605Y-2243508D01*
X1762939Y-2242802D01*
X1763340Y-2242133D01*
X1763805Y-2241507D01*
X1764328Y-2240929D01*
X1764907Y-2240405D01*
X1765533Y-2239940D01*
X1766202Y-2239539D01*
X1766908Y-2239205D01*
X1767642Y-2238942D01*
X1768399Y-2238753D01*
X1769171Y-2238638D01*
X1769950Y-2238600D01*
X1790050Y-2238600D01*
X1790829Y-2238638D01*
X1790829Y-2238638D01*
G37*
D16*
X1780000Y-2254500D03*
G04 #@! TD*
D14*
G04 #@! TO.C,R5*
G36*
X2593229Y-2542038D02*
X2594001Y-2542153D01*
X2594758Y-2542342D01*
X2595492Y-2542605D01*
X2596198Y-2542939D01*
X2596867Y-2543340D01*
X2597493Y-2543805D01*
X2598072Y-2544329D01*
X2598595Y-2544907D01*
X2599060Y-2545533D01*
X2599461Y-2546202D01*
X2599795Y-2546908D01*
X2600058Y-2547642D01*
X2600247Y-2548399D01*
X2600362Y-2549171D01*
X2600400Y-2549950D01*
X2600400Y-2570050D01*
X2600362Y-2570829D01*
X2600247Y-2571601D01*
X2600058Y-2572358D01*
X2599795Y-2573092D01*
X2599461Y-2573798D01*
X2599060Y-2574467D01*
X2598595Y-2575093D01*
X2598072Y-2575672D01*
X2597493Y-2576195D01*
X2596867Y-2576660D01*
X2596198Y-2577061D01*
X2595492Y-2577395D01*
X2594758Y-2577658D01*
X2594001Y-2577847D01*
X2593229Y-2577962D01*
X2592450Y-2578000D01*
X2576550Y-2578000D01*
X2575771Y-2577962D01*
X2574999Y-2577847D01*
X2574242Y-2577658D01*
X2573508Y-2577395D01*
X2572802Y-2577061D01*
X2572133Y-2576660D01*
X2571507Y-2576195D01*
X2570929Y-2575672D01*
X2570405Y-2575093D01*
X2569940Y-2574467D01*
X2569539Y-2573798D01*
X2569205Y-2573092D01*
X2568942Y-2572358D01*
X2568753Y-2571601D01*
X2568638Y-2570829D01*
X2568600Y-2570050D01*
X2568600Y-2549950D01*
X2568638Y-2549171D01*
X2568753Y-2548399D01*
X2568942Y-2547642D01*
X2569205Y-2546908D01*
X2569539Y-2546202D01*
X2569940Y-2545533D01*
X2570405Y-2544907D01*
X2570929Y-2544329D01*
X2571507Y-2543805D01*
X2572133Y-2543340D01*
X2572802Y-2542939D01*
X2573508Y-2542605D01*
X2574242Y-2542342D01*
X2574999Y-2542153D01*
X2575771Y-2542038D01*
X2576550Y-2542000D01*
X2592450Y-2542000D01*
X2593229Y-2542038D01*
X2593229Y-2542038D01*
G37*
D16*
X2584500Y-2560000D03*
D14*
G36*
X2524229Y-2542038D02*
X2525001Y-2542153D01*
X2525758Y-2542342D01*
X2526492Y-2542605D01*
X2527198Y-2542939D01*
X2527867Y-2543340D01*
X2528493Y-2543805D01*
X2529072Y-2544329D01*
X2529595Y-2544907D01*
X2530060Y-2545533D01*
X2530461Y-2546202D01*
X2530795Y-2546908D01*
X2531058Y-2547642D01*
X2531247Y-2548399D01*
X2531362Y-2549171D01*
X2531400Y-2549950D01*
X2531400Y-2570050D01*
X2531362Y-2570829D01*
X2531247Y-2571601D01*
X2531058Y-2572358D01*
X2530795Y-2573092D01*
X2530461Y-2573798D01*
X2530060Y-2574467D01*
X2529595Y-2575093D01*
X2529072Y-2575672D01*
X2528493Y-2576195D01*
X2527867Y-2576660D01*
X2527198Y-2577061D01*
X2526492Y-2577395D01*
X2525758Y-2577658D01*
X2525001Y-2577847D01*
X2524229Y-2577962D01*
X2523450Y-2578000D01*
X2507550Y-2578000D01*
X2506771Y-2577962D01*
X2505999Y-2577847D01*
X2505242Y-2577658D01*
X2504508Y-2577395D01*
X2503802Y-2577061D01*
X2503133Y-2576660D01*
X2502507Y-2576195D01*
X2501929Y-2575672D01*
X2501405Y-2575093D01*
X2500940Y-2574467D01*
X2500539Y-2573798D01*
X2500205Y-2573092D01*
X2499942Y-2572358D01*
X2499753Y-2571601D01*
X2499638Y-2570829D01*
X2499600Y-2570050D01*
X2499600Y-2549950D01*
X2499638Y-2549171D01*
X2499753Y-2548399D01*
X2499942Y-2547642D01*
X2500205Y-2546908D01*
X2500539Y-2546202D01*
X2500940Y-2545533D01*
X2501405Y-2544907D01*
X2501929Y-2544329D01*
X2502507Y-2543805D01*
X2503133Y-2543340D01*
X2503802Y-2542939D01*
X2504508Y-2542605D01*
X2505242Y-2542342D01*
X2505999Y-2542153D01*
X2506771Y-2542038D01*
X2507550Y-2542000D01*
X2523450Y-2542000D01*
X2524229Y-2542038D01*
X2524229Y-2542038D01*
G37*
D16*
X2515500Y-2560000D03*
G04 #@! TD*
D14*
G04 #@! TO.C,R12*
G36*
X1930829Y-2238638D02*
X1931601Y-2238753D01*
X1932358Y-2238942D01*
X1933092Y-2239205D01*
X1933798Y-2239539D01*
X1934467Y-2239940D01*
X1935093Y-2240405D01*
X1935671Y-2240929D01*
X1936195Y-2241507D01*
X1936660Y-2242133D01*
X1937061Y-2242802D01*
X1937395Y-2243508D01*
X1937658Y-2244242D01*
X1937847Y-2244999D01*
X1937962Y-2245771D01*
X1938000Y-2246550D01*
X1938000Y-2262450D01*
X1937962Y-2263229D01*
X1937847Y-2264001D01*
X1937658Y-2264758D01*
X1937395Y-2265492D01*
X1937061Y-2266198D01*
X1936660Y-2266867D01*
X1936195Y-2267493D01*
X1935671Y-2268072D01*
X1935093Y-2268595D01*
X1934467Y-2269060D01*
X1933798Y-2269461D01*
X1933092Y-2269795D01*
X1932358Y-2270058D01*
X1931601Y-2270247D01*
X1930829Y-2270362D01*
X1930050Y-2270400D01*
X1909950Y-2270400D01*
X1909171Y-2270362D01*
X1908399Y-2270247D01*
X1907642Y-2270058D01*
X1906908Y-2269795D01*
X1906202Y-2269461D01*
X1905533Y-2269060D01*
X1904907Y-2268595D01*
X1904328Y-2268072D01*
X1903805Y-2267493D01*
X1903340Y-2266867D01*
X1902939Y-2266198D01*
X1902605Y-2265492D01*
X1902342Y-2264758D01*
X1902153Y-2264001D01*
X1902038Y-2263229D01*
X1902000Y-2262450D01*
X1902000Y-2246550D01*
X1902038Y-2245771D01*
X1902153Y-2244999D01*
X1902342Y-2244242D01*
X1902605Y-2243508D01*
X1902939Y-2242802D01*
X1903340Y-2242133D01*
X1903805Y-2241507D01*
X1904328Y-2240929D01*
X1904907Y-2240405D01*
X1905533Y-2239940D01*
X1906202Y-2239539D01*
X1906908Y-2239205D01*
X1907642Y-2238942D01*
X1908399Y-2238753D01*
X1909171Y-2238638D01*
X1909950Y-2238600D01*
X1930050Y-2238600D01*
X1930829Y-2238638D01*
X1930829Y-2238638D01*
G37*
D16*
X1920000Y-2254500D03*
D14*
G36*
X1930829Y-2169638D02*
X1931601Y-2169753D01*
X1932358Y-2169942D01*
X1933092Y-2170205D01*
X1933798Y-2170539D01*
X1934467Y-2170940D01*
X1935093Y-2171405D01*
X1935671Y-2171929D01*
X1936195Y-2172507D01*
X1936660Y-2173133D01*
X1937061Y-2173802D01*
X1937395Y-2174508D01*
X1937658Y-2175242D01*
X1937847Y-2175999D01*
X1937962Y-2176771D01*
X1938000Y-2177550D01*
X1938000Y-2193450D01*
X1937962Y-2194229D01*
X1937847Y-2195001D01*
X1937658Y-2195758D01*
X1937395Y-2196492D01*
X1937061Y-2197198D01*
X1936660Y-2197867D01*
X1936195Y-2198493D01*
X1935671Y-2199072D01*
X1935093Y-2199595D01*
X1934467Y-2200060D01*
X1933798Y-2200461D01*
X1933092Y-2200795D01*
X1932358Y-2201058D01*
X1931601Y-2201247D01*
X1930829Y-2201362D01*
X1930050Y-2201400D01*
X1909950Y-2201400D01*
X1909171Y-2201362D01*
X1908399Y-2201247D01*
X1907642Y-2201058D01*
X1906908Y-2200795D01*
X1906202Y-2200461D01*
X1905533Y-2200060D01*
X1904907Y-2199595D01*
X1904328Y-2199072D01*
X1903805Y-2198493D01*
X1903340Y-2197867D01*
X1902939Y-2197198D01*
X1902605Y-2196492D01*
X1902342Y-2195758D01*
X1902153Y-2195001D01*
X1902038Y-2194229D01*
X1902000Y-2193450D01*
X1902000Y-2177550D01*
X1902038Y-2176771D01*
X1902153Y-2175999D01*
X1902342Y-2175242D01*
X1902605Y-2174508D01*
X1902939Y-2173802D01*
X1903340Y-2173133D01*
X1903805Y-2172507D01*
X1904328Y-2171929D01*
X1904907Y-2171405D01*
X1905533Y-2170940D01*
X1906202Y-2170539D01*
X1906908Y-2170205D01*
X1907642Y-2169942D01*
X1908399Y-2169753D01*
X1909171Y-2169638D01*
X1909950Y-2169600D01*
X1930050Y-2169600D01*
X1930829Y-2169638D01*
X1930829Y-2169638D01*
G37*
D16*
X1920000Y-2185500D03*
G04 #@! TD*
D14*
G04 #@! TO.C,R9*
G36*
X2000829Y-2238638D02*
X2001601Y-2238753D01*
X2002358Y-2238942D01*
X2003092Y-2239205D01*
X2003798Y-2239539D01*
X2004467Y-2239940D01*
X2005093Y-2240405D01*
X2005671Y-2240929D01*
X2006195Y-2241507D01*
X2006660Y-2242133D01*
X2007061Y-2242802D01*
X2007395Y-2243508D01*
X2007658Y-2244242D01*
X2007847Y-2244999D01*
X2007962Y-2245771D01*
X2008000Y-2246550D01*
X2008000Y-2262450D01*
X2007962Y-2263229D01*
X2007847Y-2264001D01*
X2007658Y-2264758D01*
X2007395Y-2265492D01*
X2007061Y-2266198D01*
X2006660Y-2266867D01*
X2006195Y-2267493D01*
X2005671Y-2268072D01*
X2005093Y-2268595D01*
X2004467Y-2269060D01*
X2003798Y-2269461D01*
X2003092Y-2269795D01*
X2002358Y-2270058D01*
X2001601Y-2270247D01*
X2000829Y-2270362D01*
X2000050Y-2270400D01*
X1979950Y-2270400D01*
X1979171Y-2270362D01*
X1978399Y-2270247D01*
X1977642Y-2270058D01*
X1976908Y-2269795D01*
X1976202Y-2269461D01*
X1975533Y-2269060D01*
X1974907Y-2268595D01*
X1974328Y-2268072D01*
X1973805Y-2267493D01*
X1973340Y-2266867D01*
X1972939Y-2266198D01*
X1972605Y-2265492D01*
X1972342Y-2264758D01*
X1972153Y-2264001D01*
X1972038Y-2263229D01*
X1972000Y-2262450D01*
X1972000Y-2246550D01*
X1972038Y-2245771D01*
X1972153Y-2244999D01*
X1972342Y-2244242D01*
X1972605Y-2243508D01*
X1972939Y-2242802D01*
X1973340Y-2242133D01*
X1973805Y-2241507D01*
X1974328Y-2240929D01*
X1974907Y-2240405D01*
X1975533Y-2239940D01*
X1976202Y-2239539D01*
X1976908Y-2239205D01*
X1977642Y-2238942D01*
X1978399Y-2238753D01*
X1979171Y-2238638D01*
X1979950Y-2238600D01*
X2000050Y-2238600D01*
X2000829Y-2238638D01*
X2000829Y-2238638D01*
G37*
D16*
X1990000Y-2254500D03*
D14*
G36*
X2000829Y-2169638D02*
X2001601Y-2169753D01*
X2002358Y-2169942D01*
X2003092Y-2170205D01*
X2003798Y-2170539D01*
X2004467Y-2170940D01*
X2005093Y-2171405D01*
X2005671Y-2171929D01*
X2006195Y-2172507D01*
X2006660Y-2173133D01*
X2007061Y-2173802D01*
X2007395Y-2174508D01*
X2007658Y-2175242D01*
X2007847Y-2175999D01*
X2007962Y-2176771D01*
X2008000Y-2177550D01*
X2008000Y-2193450D01*
X2007962Y-2194229D01*
X2007847Y-2195001D01*
X2007658Y-2195758D01*
X2007395Y-2196492D01*
X2007061Y-2197198D01*
X2006660Y-2197867D01*
X2006195Y-2198493D01*
X2005671Y-2199072D01*
X2005093Y-2199595D01*
X2004467Y-2200060D01*
X2003798Y-2200461D01*
X2003092Y-2200795D01*
X2002358Y-2201058D01*
X2001601Y-2201247D01*
X2000829Y-2201362D01*
X2000050Y-2201400D01*
X1979950Y-2201400D01*
X1979171Y-2201362D01*
X1978399Y-2201247D01*
X1977642Y-2201058D01*
X1976908Y-2200795D01*
X1976202Y-2200461D01*
X1975533Y-2200060D01*
X1974907Y-2199595D01*
X1974328Y-2199072D01*
X1973805Y-2198493D01*
X1973340Y-2197867D01*
X1972939Y-2197198D01*
X1972605Y-2196492D01*
X1972342Y-2195758D01*
X1972153Y-2195001D01*
X1972038Y-2194229D01*
X1972000Y-2193450D01*
X1972000Y-2177550D01*
X1972038Y-2176771D01*
X1972153Y-2175999D01*
X1972342Y-2175242D01*
X1972605Y-2174508D01*
X1972939Y-2173802D01*
X1973340Y-2173133D01*
X1973805Y-2172507D01*
X1974328Y-2171929D01*
X1974907Y-2171405D01*
X1975533Y-2170940D01*
X1976202Y-2170539D01*
X1976908Y-2170205D01*
X1977642Y-2169942D01*
X1978399Y-2169753D01*
X1979171Y-2169638D01*
X1979950Y-2169600D01*
X2000050Y-2169600D01*
X2000829Y-2169638D01*
X2000829Y-2169638D01*
G37*
D16*
X1990000Y-2185500D03*
G04 #@! TD*
D20*
G04 #@! TO.C,U1*
X1900000Y-1820000D03*
D14*
G36*
X1931820Y-1820000D02*
X1900000Y-1851820D01*
X1868180Y-1820000D01*
X1900000Y-1788180D01*
X1931820Y-1820000D01*
X1931820Y-1820000D01*
G37*
D21*
X1943000Y-1852500D03*
D14*
G36*
X1925000Y-1860000D02*
X1943000Y-1842000D01*
X1965000Y-1842000D01*
X1965000Y-1863000D01*
X1925000Y-1863000D01*
X1925000Y-1860000D01*
X1925000Y-1860000D01*
G37*
D21*
X1857000Y-1852500D03*
D14*
G36*
X1835000Y-1842000D02*
X1857000Y-1842000D01*
X1875000Y-1860000D01*
X1875000Y-1863000D01*
X1835000Y-1863000D01*
X1835000Y-1842000D01*
X1835000Y-1842000D01*
G37*
D21*
X1857000Y-1787500D03*
D14*
G36*
X1835000Y-1777000D02*
X1875000Y-1777000D01*
X1875000Y-1780000D01*
X1857000Y-1798000D01*
X1835000Y-1798000D01*
X1835000Y-1777000D01*
X1835000Y-1777000D01*
G37*
D21*
X1943000Y-1787500D03*
D14*
G36*
X1925000Y-1780000D02*
X1925000Y-1777000D01*
X1965000Y-1777000D01*
X1965000Y-1798000D01*
X1943000Y-1798000D01*
X1925000Y-1780000D01*
X1925000Y-1780000D01*
G37*
G04 #@! TD*
M02*
