%TF.GenerationSoftware,KiCad,Pcbnew,(5.0.1)-3*%
%TF.CreationDate,2018-11-18T15:57:04+08:00*%
%TF.ProjectId,tomu-fpga,746F6D752D667067612E6B696361645F,rev?*%
%TF.SameCoordinates,Original*%
%TF.FileFunction,Other,Comment*%
%FSLAX46Y46*%
G04 Gerber Fmt 4.6, Leading zero omitted, Abs format (unit mm)*
G04 Created by KiCad (PCBNEW (5.0.1)-3) date 11/18/18 15:57:04*
%MOMM*%
%LPD*%
G01*
G04 APERTURE LIST*
%ADD10C,0.300000*%
%ADD11C,0.050000*%
%ADD12C,0.035000*%
%ADD13C,0.037500*%
G04 APERTURE END LIST*
D10*
X17340238Y-32505952D02*
X17340238Y-30005952D01*
X18292619Y-30005952D01*
X18530714Y-30125000D01*
X18649761Y-30244047D01*
X18768809Y-30482142D01*
X18768809Y-30839285D01*
X18649761Y-31077380D01*
X18530714Y-31196428D01*
X18292619Y-31315476D01*
X17340238Y-31315476D01*
X21268809Y-32267857D02*
X21149761Y-32386904D01*
X20792619Y-32505952D01*
X20554523Y-32505952D01*
X20197380Y-32386904D01*
X19959285Y-32148809D01*
X19840238Y-31910714D01*
X19721190Y-31434523D01*
X19721190Y-31077380D01*
X19840238Y-30601190D01*
X19959285Y-30363095D01*
X20197380Y-30125000D01*
X20554523Y-30005952D01*
X20792619Y-30005952D01*
X21149761Y-30125000D01*
X21268809Y-30244047D01*
X23173571Y-31196428D02*
X23530714Y-31315476D01*
X23649761Y-31434523D01*
X23768809Y-31672619D01*
X23768809Y-32029761D01*
X23649761Y-32267857D01*
X23530714Y-32386904D01*
X23292619Y-32505952D01*
X22340238Y-32505952D01*
X22340238Y-30005952D01*
X23173571Y-30005952D01*
X23411666Y-30125000D01*
X23530714Y-30244047D01*
X23649761Y-30482142D01*
X23649761Y-30720238D01*
X23530714Y-30958333D01*
X23411666Y-31077380D01*
X23173571Y-31196428D01*
X22340238Y-31196428D01*
X26625952Y-32386904D02*
X26983095Y-32505952D01*
X27578333Y-32505952D01*
X27816428Y-32386904D01*
X27935476Y-32267857D01*
X28054523Y-32029761D01*
X28054523Y-31791666D01*
X27935476Y-31553571D01*
X27816428Y-31434523D01*
X27578333Y-31315476D01*
X27102142Y-31196428D01*
X26864047Y-31077380D01*
X26745000Y-30958333D01*
X26625952Y-30720238D01*
X26625952Y-30482142D01*
X26745000Y-30244047D01*
X26864047Y-30125000D01*
X27102142Y-30005952D01*
X27697380Y-30005952D01*
X28054523Y-30125000D01*
X29483095Y-32505952D02*
X29245000Y-32386904D01*
X29125952Y-32267857D01*
X29006904Y-32029761D01*
X29006904Y-31315476D01*
X29125952Y-31077380D01*
X29245000Y-30958333D01*
X29483095Y-30839285D01*
X29840238Y-30839285D01*
X30078333Y-30958333D01*
X30197380Y-31077380D01*
X30316428Y-31315476D01*
X30316428Y-32029761D01*
X30197380Y-32267857D01*
X30078333Y-32386904D01*
X29840238Y-32505952D01*
X29483095Y-32505952D01*
X31745000Y-32505952D02*
X31506904Y-32386904D01*
X31387857Y-32148809D01*
X31387857Y-30005952D01*
X33768809Y-32505952D02*
X33768809Y-30005952D01*
X33768809Y-32386904D02*
X33530714Y-32505952D01*
X33054523Y-32505952D01*
X32816428Y-32386904D01*
X32697380Y-32267857D01*
X32578333Y-32029761D01*
X32578333Y-31315476D01*
X32697380Y-31077380D01*
X32816428Y-30958333D01*
X33054523Y-30839285D01*
X33530714Y-30839285D01*
X33768809Y-30958333D01*
X35911666Y-32386904D02*
X35673571Y-32505952D01*
X35197380Y-32505952D01*
X34959285Y-32386904D01*
X34840238Y-32148809D01*
X34840238Y-31196428D01*
X34959285Y-30958333D01*
X35197380Y-30839285D01*
X35673571Y-30839285D01*
X35911666Y-30958333D01*
X36030714Y-31196428D01*
X36030714Y-31434523D01*
X34840238Y-31672619D01*
X37102142Y-32505952D02*
X37102142Y-30839285D01*
X37102142Y-31315476D02*
X37221190Y-31077380D01*
X37340238Y-30958333D01*
X37578333Y-30839285D01*
X37816428Y-30839285D01*
X38649761Y-32505952D02*
X38649761Y-30839285D01*
X38649761Y-31077380D02*
X38768809Y-30958333D01*
X39006904Y-30839285D01*
X39364047Y-30839285D01*
X39602142Y-30958333D01*
X39721190Y-31196428D01*
X39721190Y-32505952D01*
X39721190Y-31196428D02*
X39840238Y-30958333D01*
X40078333Y-30839285D01*
X40435476Y-30839285D01*
X40673571Y-30958333D01*
X40792619Y-31196428D01*
X40792619Y-32505952D01*
X43054523Y-32505952D02*
X43054523Y-31196428D01*
X42935476Y-30958333D01*
X42697380Y-30839285D01*
X42221190Y-30839285D01*
X41983095Y-30958333D01*
X43054523Y-32386904D02*
X42816428Y-32505952D01*
X42221190Y-32505952D01*
X41983095Y-32386904D01*
X41864047Y-32148809D01*
X41864047Y-31910714D01*
X41983095Y-31672619D01*
X42221190Y-31553571D01*
X42816428Y-31553571D01*
X43054523Y-31434523D01*
X44125952Y-32386904D02*
X44364047Y-32505952D01*
X44840238Y-32505952D01*
X45078333Y-32386904D01*
X45197380Y-32148809D01*
X45197380Y-32029761D01*
X45078333Y-31791666D01*
X44840238Y-31672619D01*
X44483095Y-31672619D01*
X44245000Y-31553571D01*
X44125952Y-31315476D01*
X44125952Y-31196428D01*
X44245000Y-30958333D01*
X44483095Y-30839285D01*
X44840238Y-30839285D01*
X45078333Y-30958333D01*
X46268809Y-32505952D02*
X46268809Y-30005952D01*
X46506904Y-31553571D02*
X47221190Y-32505952D01*
X47221190Y-30839285D02*
X46268809Y-31791666D01*
X48292619Y-32267857D02*
X48411666Y-32386904D01*
X48292619Y-32505952D01*
X48173571Y-32386904D01*
X48292619Y-32267857D01*
X48292619Y-32505952D01*
X48292619Y-30958333D02*
X48411666Y-31077380D01*
X48292619Y-31196428D01*
X48173571Y-31077380D01*
X48292619Y-30958333D01*
X48292619Y-31196428D01*
X51387857Y-32505952D02*
X51387857Y-30005952D01*
X51983095Y-30005952D01*
X52340238Y-30125000D01*
X52578333Y-30363095D01*
X52697380Y-30601190D01*
X52816428Y-31077380D01*
X52816428Y-31434523D01*
X52697380Y-31910714D01*
X52578333Y-32148809D01*
X52340238Y-32386904D01*
X51983095Y-32505952D01*
X51387857Y-32505952D01*
X54959285Y-32505952D02*
X54959285Y-31196428D01*
X54840238Y-30958333D01*
X54602142Y-30839285D01*
X54125952Y-30839285D01*
X53887857Y-30958333D01*
X54959285Y-32386904D02*
X54721190Y-32505952D01*
X54125952Y-32505952D01*
X53887857Y-32386904D01*
X53768809Y-32148809D01*
X53768809Y-31910714D01*
X53887857Y-31672619D01*
X54125952Y-31553571D01*
X54721190Y-31553571D01*
X54959285Y-31434523D01*
X56149761Y-32505952D02*
X56149761Y-30839285D01*
X56149761Y-31315476D02*
X56268809Y-31077380D01*
X56387857Y-30958333D01*
X56625952Y-30839285D01*
X56864047Y-30839285D01*
X57697380Y-32505952D02*
X57697380Y-30005952D01*
X57935476Y-31553571D02*
X58649761Y-32505952D01*
X58649761Y-30839285D02*
X57697380Y-31791666D01*
X62459285Y-31196428D02*
X62816428Y-31315476D01*
X62935476Y-31434523D01*
X63054523Y-31672619D01*
X63054523Y-32029761D01*
X62935476Y-32267857D01*
X62816428Y-32386904D01*
X62578333Y-32505952D01*
X61625952Y-32505952D01*
X61625952Y-30005952D01*
X62459285Y-30005952D01*
X62697380Y-30125000D01*
X62816428Y-30244047D01*
X62935476Y-30482142D01*
X62935476Y-30720238D01*
X62816428Y-30958333D01*
X62697380Y-31077380D01*
X62459285Y-31196428D01*
X61625952Y-31196428D01*
X64483095Y-32505952D02*
X64244999Y-32386904D01*
X64125952Y-32148809D01*
X64125952Y-30005952D01*
X66506904Y-30839285D02*
X66506904Y-32505952D01*
X65435476Y-30839285D02*
X65435476Y-32148809D01*
X65554523Y-32386904D01*
X65792619Y-32505952D01*
X66149761Y-32505952D01*
X66387857Y-32386904D01*
X66506904Y-32267857D01*
X68649761Y-32386904D02*
X68411666Y-32505952D01*
X67935476Y-32505952D01*
X67697380Y-32386904D01*
X67578333Y-32148809D01*
X67578333Y-31196428D01*
X67697380Y-30958333D01*
X67935476Y-30839285D01*
X68411666Y-30839285D01*
X68649761Y-30958333D01*
X68768809Y-31196428D01*
X68768809Y-31434523D01*
X67578333Y-31672619D01*
X17340238Y-36555952D02*
X17340238Y-34055952D01*
X18292619Y-34055952D01*
X18530714Y-34175000D01*
X18649761Y-34294047D01*
X18768809Y-34532142D01*
X18768809Y-34889285D01*
X18649761Y-35127380D01*
X18530714Y-35246428D01*
X18292619Y-35365476D01*
X17340238Y-35365476D01*
X21268809Y-36317857D02*
X21149761Y-36436904D01*
X20792619Y-36555952D01*
X20554523Y-36555952D01*
X20197380Y-36436904D01*
X19959285Y-36198809D01*
X19840238Y-35960714D01*
X19721190Y-35484523D01*
X19721190Y-35127380D01*
X19840238Y-34651190D01*
X19959285Y-34413095D01*
X20197380Y-34175000D01*
X20554523Y-34055952D01*
X20792619Y-34055952D01*
X21149761Y-34175000D01*
X21268809Y-34294047D01*
X23173571Y-35246428D02*
X23530714Y-35365476D01*
X23649761Y-35484523D01*
X23768809Y-35722619D01*
X23768809Y-36079761D01*
X23649761Y-36317857D01*
X23530714Y-36436904D01*
X23292619Y-36555952D01*
X22340238Y-36555952D01*
X22340238Y-34055952D01*
X23173571Y-34055952D01*
X23411666Y-34175000D01*
X23530714Y-34294047D01*
X23649761Y-34532142D01*
X23649761Y-34770238D01*
X23530714Y-35008333D01*
X23411666Y-35127380D01*
X23173571Y-35246428D01*
X22340238Y-35246428D01*
X26387857Y-34055952D02*
X27816428Y-34055952D01*
X27102142Y-36555952D02*
X27102142Y-34055952D01*
X28649761Y-36555952D02*
X28649761Y-34055952D01*
X29721190Y-36555952D02*
X29721190Y-35246428D01*
X29602142Y-35008333D01*
X29364047Y-34889285D01*
X29006904Y-34889285D01*
X28768809Y-35008333D01*
X28649761Y-35127380D01*
X30911666Y-36555952D02*
X30911666Y-34889285D01*
X30911666Y-34055952D02*
X30792619Y-34175000D01*
X30911666Y-34294047D01*
X31030714Y-34175000D01*
X30911666Y-34055952D01*
X30911666Y-34294047D01*
X33173571Y-36436904D02*
X32935476Y-36555952D01*
X32459285Y-36555952D01*
X32221190Y-36436904D01*
X32102142Y-36317857D01*
X31983095Y-36079761D01*
X31983095Y-35365476D01*
X32102142Y-35127380D01*
X32221190Y-35008333D01*
X32459285Y-34889285D01*
X32935476Y-34889285D01*
X33173571Y-35008333D01*
X34245000Y-36555952D02*
X34245000Y-34055952D01*
X34483095Y-35603571D02*
X35197380Y-36555952D01*
X35197380Y-34889285D02*
X34245000Y-35841666D01*
X36268809Y-34889285D02*
X36268809Y-36555952D01*
X36268809Y-35127380D02*
X36387857Y-35008333D01*
X36625952Y-34889285D01*
X36983095Y-34889285D01*
X37221190Y-35008333D01*
X37340238Y-35246428D01*
X37340238Y-36555952D01*
X39483095Y-36436904D02*
X39245000Y-36555952D01*
X38768809Y-36555952D01*
X38530714Y-36436904D01*
X38411666Y-36198809D01*
X38411666Y-35246428D01*
X38530714Y-35008333D01*
X38768809Y-34889285D01*
X39245000Y-34889285D01*
X39483095Y-35008333D01*
X39602142Y-35246428D01*
X39602142Y-35484523D01*
X38411666Y-35722619D01*
X40554523Y-36436904D02*
X40792619Y-36555952D01*
X41268809Y-36555952D01*
X41506904Y-36436904D01*
X41625952Y-36198809D01*
X41625952Y-36079761D01*
X41506904Y-35841666D01*
X41268809Y-35722619D01*
X40911666Y-35722619D01*
X40673571Y-35603571D01*
X40554523Y-35365476D01*
X40554523Y-35246428D01*
X40673571Y-35008333D01*
X40911666Y-34889285D01*
X41268809Y-34889285D01*
X41506904Y-35008333D01*
X42578333Y-36436904D02*
X42816428Y-36555952D01*
X43292619Y-36555952D01*
X43530714Y-36436904D01*
X43649761Y-36198809D01*
X43649761Y-36079761D01*
X43530714Y-35841666D01*
X43292619Y-35722619D01*
X42935476Y-35722619D01*
X42697380Y-35603571D01*
X42578333Y-35365476D01*
X42578333Y-35246428D01*
X42697380Y-35008333D01*
X42935476Y-34889285D01*
X43292619Y-34889285D01*
X43530714Y-35008333D01*
X44721190Y-36317857D02*
X44840238Y-36436904D01*
X44721190Y-36555952D01*
X44602142Y-36436904D01*
X44721190Y-36317857D01*
X44721190Y-36555952D01*
X44721190Y-35008333D02*
X44840238Y-35127380D01*
X44721190Y-35246428D01*
X44602142Y-35127380D01*
X44721190Y-35008333D01*
X44721190Y-35246428D01*
X48292619Y-34055952D02*
X48530714Y-34055952D01*
X48768809Y-34175000D01*
X48887857Y-34294047D01*
X49006904Y-34532142D01*
X49125952Y-35008333D01*
X49125952Y-35603571D01*
X49006904Y-36079761D01*
X48887857Y-36317857D01*
X48768809Y-36436904D01*
X48530714Y-36555952D01*
X48292619Y-36555952D01*
X48054523Y-36436904D01*
X47935476Y-36317857D01*
X47816428Y-36079761D01*
X47697380Y-35603571D01*
X47697380Y-35008333D01*
X47816428Y-34532142D01*
X47935476Y-34294047D01*
X48054523Y-34175000D01*
X48292619Y-34055952D01*
X50197380Y-36317857D02*
X50316428Y-36436904D01*
X50197380Y-36555952D01*
X50078333Y-36436904D01*
X50197380Y-36317857D01*
X50197380Y-36555952D01*
X52459285Y-34055952D02*
X51983095Y-34055952D01*
X51744999Y-34175000D01*
X51625952Y-34294047D01*
X51387857Y-34651190D01*
X51268809Y-35127380D01*
X51268809Y-36079761D01*
X51387857Y-36317857D01*
X51506904Y-36436904D01*
X51744999Y-36555952D01*
X52221190Y-36555952D01*
X52459285Y-36436904D01*
X52578333Y-36317857D01*
X52697380Y-36079761D01*
X52697380Y-35484523D01*
X52578333Y-35246428D01*
X52459285Y-35127380D01*
X52221190Y-35008333D01*
X51744999Y-35008333D01*
X51506904Y-35127380D01*
X51387857Y-35246428D01*
X51268809Y-35484523D01*
X53768809Y-36555952D02*
X53768809Y-34889285D01*
X53768809Y-35127380D02*
X53887857Y-35008333D01*
X54125952Y-34889285D01*
X54483095Y-34889285D01*
X54721190Y-35008333D01*
X54840238Y-35246428D01*
X54840238Y-36555952D01*
X54840238Y-35246428D02*
X54959285Y-35008333D01*
X55197380Y-34889285D01*
X55554523Y-34889285D01*
X55792619Y-35008333D01*
X55911666Y-35246428D01*
X55911666Y-36555952D01*
X57102142Y-36555952D02*
X57102142Y-34889285D01*
X57102142Y-35127380D02*
X57221190Y-35008333D01*
X57459285Y-34889285D01*
X57816428Y-34889285D01*
X58054523Y-35008333D01*
X58173571Y-35246428D01*
X58173571Y-36555952D01*
X58173571Y-35246428D02*
X58292619Y-35008333D01*
X58530714Y-34889285D01*
X58887857Y-34889285D01*
X59125952Y-35008333D01*
X59244999Y-35246428D01*
X59244999Y-36555952D01*
X17340238Y-40605952D02*
X17340238Y-38105952D01*
X17340238Y-39296428D02*
X18768809Y-39296428D01*
X18768809Y-40605952D02*
X18768809Y-38105952D01*
X21030714Y-40605952D02*
X21030714Y-39296428D01*
X20911666Y-39058333D01*
X20673571Y-38939285D01*
X20197380Y-38939285D01*
X19959285Y-39058333D01*
X21030714Y-40486904D02*
X20792619Y-40605952D01*
X20197380Y-40605952D01*
X19959285Y-40486904D01*
X19840238Y-40248809D01*
X19840238Y-40010714D01*
X19959285Y-39772619D01*
X20197380Y-39653571D01*
X20792619Y-39653571D01*
X21030714Y-39534523D01*
X22221190Y-40605952D02*
X22221190Y-38939285D01*
X22221190Y-39415476D02*
X22340238Y-39177380D01*
X22459285Y-39058333D01*
X22697380Y-38939285D01*
X22935476Y-38939285D01*
X24840238Y-40605952D02*
X24840238Y-38105952D01*
X24840238Y-40486904D02*
X24602142Y-40605952D01*
X24125952Y-40605952D01*
X23887857Y-40486904D01*
X23768809Y-40367857D01*
X23649761Y-40129761D01*
X23649761Y-39415476D01*
X23768809Y-39177380D01*
X23887857Y-39058333D01*
X24125952Y-38939285D01*
X24602142Y-38939285D01*
X24840238Y-39058333D01*
X29006904Y-38939285D02*
X29006904Y-40963095D01*
X28887857Y-41201190D01*
X28768809Y-41320238D01*
X28530714Y-41439285D01*
X28173571Y-41439285D01*
X27935476Y-41320238D01*
X29006904Y-40486904D02*
X28768809Y-40605952D01*
X28292619Y-40605952D01*
X28054523Y-40486904D01*
X27935476Y-40367857D01*
X27816428Y-40129761D01*
X27816428Y-39415476D01*
X27935476Y-39177380D01*
X28054523Y-39058333D01*
X28292619Y-38939285D01*
X28768809Y-38939285D01*
X29006904Y-39058333D01*
X30554523Y-40605952D02*
X30316428Y-40486904D01*
X30197380Y-40367857D01*
X30078333Y-40129761D01*
X30078333Y-39415476D01*
X30197380Y-39177380D01*
X30316428Y-39058333D01*
X30554523Y-38939285D01*
X30911666Y-38939285D01*
X31149761Y-39058333D01*
X31268809Y-39177380D01*
X31387857Y-39415476D01*
X31387857Y-40129761D01*
X31268809Y-40367857D01*
X31149761Y-40486904D01*
X30911666Y-40605952D01*
X30554523Y-40605952D01*
X32816428Y-40605952D02*
X32578333Y-40486904D01*
X32459285Y-40248809D01*
X32459285Y-38105952D01*
X34840238Y-40605952D02*
X34840238Y-38105952D01*
X34840238Y-40486904D02*
X34602142Y-40605952D01*
X34125952Y-40605952D01*
X33887857Y-40486904D01*
X33768809Y-40367857D01*
X33649761Y-40129761D01*
X33649761Y-39415476D01*
X33768809Y-39177380D01*
X33887857Y-39058333D01*
X34125952Y-38939285D01*
X34602142Y-38939285D01*
X34840238Y-39058333D01*
X37935476Y-38939285D02*
X37935476Y-41439285D01*
X37935476Y-39058333D02*
X38173571Y-38939285D01*
X38649761Y-38939285D01*
X38887857Y-39058333D01*
X39006904Y-39177380D01*
X39125952Y-39415476D01*
X39125952Y-40129761D01*
X39006904Y-40367857D01*
X38887857Y-40486904D01*
X38649761Y-40605952D01*
X38173571Y-40605952D01*
X37935476Y-40486904D01*
X40554523Y-40605952D02*
X40316428Y-40486904D01*
X40197380Y-40248809D01*
X40197380Y-38105952D01*
X42578333Y-40605952D02*
X42578333Y-39296428D01*
X42459285Y-39058333D01*
X42221190Y-38939285D01*
X41745000Y-38939285D01*
X41506904Y-39058333D01*
X42578333Y-40486904D02*
X42340238Y-40605952D01*
X41745000Y-40605952D01*
X41506904Y-40486904D01*
X41387857Y-40248809D01*
X41387857Y-40010714D01*
X41506904Y-39772619D01*
X41745000Y-39653571D01*
X42340238Y-39653571D01*
X42578333Y-39534523D01*
X43411666Y-38939285D02*
X44364047Y-38939285D01*
X43768809Y-38105952D02*
X43768809Y-40248809D01*
X43887857Y-40486904D01*
X44125952Y-40605952D01*
X44364047Y-40605952D01*
X45197380Y-40605952D02*
X45197380Y-38939285D01*
X45197380Y-38105952D02*
X45078333Y-38225000D01*
X45197380Y-38344047D01*
X45316428Y-38225000D01*
X45197380Y-38105952D01*
X45197380Y-38344047D01*
X46387857Y-38939285D02*
X46387857Y-40605952D01*
X46387857Y-39177380D02*
X46506904Y-39058333D01*
X46745000Y-38939285D01*
X47102142Y-38939285D01*
X47340238Y-39058333D01*
X47459285Y-39296428D01*
X47459285Y-40605952D01*
X49721190Y-38939285D02*
X49721190Y-40963095D01*
X49602142Y-41201190D01*
X49483095Y-41320238D01*
X49245000Y-41439285D01*
X48887857Y-41439285D01*
X48649761Y-41320238D01*
X49721190Y-40486904D02*
X49483095Y-40605952D01*
X49006904Y-40605952D01*
X48768809Y-40486904D01*
X48649761Y-40367857D01*
X48530714Y-40129761D01*
X48530714Y-39415476D01*
X48649761Y-39177380D01*
X48768809Y-39058333D01*
X49006904Y-38939285D01*
X49483095Y-38939285D01*
X49721190Y-39058333D01*
X53173571Y-40605952D02*
X52935476Y-40486904D01*
X52816428Y-40367857D01*
X52697380Y-40129761D01*
X52697380Y-39415476D01*
X52816428Y-39177380D01*
X52935476Y-39058333D01*
X53173571Y-38939285D01*
X53530714Y-38939285D01*
X53768809Y-39058333D01*
X53887857Y-39177380D01*
X54006904Y-39415476D01*
X54006904Y-40129761D01*
X53887857Y-40367857D01*
X53768809Y-40486904D01*
X53530714Y-40605952D01*
X53173571Y-40605952D01*
X55078333Y-38939285D02*
X55078333Y-40605952D01*
X55078333Y-39177380D02*
X55197380Y-39058333D01*
X55435476Y-38939285D01*
X55792619Y-38939285D01*
X56030714Y-39058333D01*
X56149761Y-39296428D01*
X56149761Y-40605952D01*
X58887857Y-38939285D02*
X59840238Y-38939285D01*
X59244999Y-40605952D02*
X59244999Y-38463095D01*
X59364047Y-38225000D01*
X59602142Y-38105952D01*
X59840238Y-38105952D01*
X60673571Y-40605952D02*
X60673571Y-38939285D01*
X60673571Y-38105952D02*
X60554523Y-38225000D01*
X60673571Y-38344047D01*
X60792619Y-38225000D01*
X60673571Y-38105952D01*
X60673571Y-38344047D01*
X61864047Y-38939285D02*
X61864047Y-40605952D01*
X61864047Y-39177380D02*
X61983095Y-39058333D01*
X62221190Y-38939285D01*
X62578333Y-38939285D01*
X62816428Y-39058333D01*
X62935476Y-39296428D01*
X62935476Y-40605952D01*
X65197380Y-38939285D02*
X65197380Y-40963095D01*
X65078333Y-41201190D01*
X64959285Y-41320238D01*
X64721190Y-41439285D01*
X64364047Y-41439285D01*
X64125952Y-41320238D01*
X65197380Y-40486904D02*
X64959285Y-40605952D01*
X64483095Y-40605952D01*
X64244999Y-40486904D01*
X64125952Y-40367857D01*
X64006904Y-40129761D01*
X64006904Y-39415476D01*
X64125952Y-39177380D01*
X64244999Y-39058333D01*
X64483095Y-38939285D01*
X64959285Y-38939285D01*
X65197380Y-39058333D01*
X67340238Y-40486904D02*
X67102142Y-40605952D01*
X66625952Y-40605952D01*
X66387857Y-40486904D01*
X66268809Y-40248809D01*
X66268809Y-39296428D01*
X66387857Y-39058333D01*
X66625952Y-38939285D01*
X67102142Y-38939285D01*
X67340238Y-39058333D01*
X67459285Y-39296428D01*
X67459285Y-39534523D01*
X66268809Y-39772619D01*
X68530714Y-40605952D02*
X68530714Y-38939285D01*
X68530714Y-39415476D02*
X68649761Y-39177380D01*
X68768809Y-39058333D01*
X69006904Y-38939285D01*
X69244999Y-38939285D01*
X69959285Y-40486904D02*
X70197380Y-40605952D01*
X70673571Y-40605952D01*
X70911666Y-40486904D01*
X71030714Y-40248809D01*
X71030714Y-40129761D01*
X70911666Y-39891666D01*
X70673571Y-39772619D01*
X70316428Y-39772619D01*
X70078333Y-39653571D01*
X69959285Y-39415476D01*
X69959285Y-39296428D01*
X70078333Y-39058333D01*
X70316428Y-38939285D01*
X70673571Y-38939285D01*
X70911666Y-39058333D01*
X72221190Y-40486904D02*
X72221190Y-40605952D01*
X72102142Y-40844047D01*
X71983095Y-40963095D01*
X75078333Y-40486904D02*
X75316428Y-40605952D01*
X75792619Y-40605952D01*
X76030714Y-40486904D01*
X76149761Y-40248809D01*
X76149761Y-40129761D01*
X76030714Y-39891666D01*
X75792619Y-39772619D01*
X75435476Y-39772619D01*
X75197380Y-39653571D01*
X75078333Y-39415476D01*
X75078333Y-39296428D01*
X75197380Y-39058333D01*
X75435476Y-38939285D01*
X75792619Y-38939285D01*
X76030714Y-39058333D01*
X77221190Y-40605952D02*
X77221190Y-38939285D01*
X77221190Y-38105952D02*
X77102142Y-38225000D01*
X77221190Y-38344047D01*
X77340238Y-38225000D01*
X77221190Y-38105952D01*
X77221190Y-38344047D01*
X79483095Y-40605952D02*
X79483095Y-38105952D01*
X79483095Y-40486904D02*
X79244999Y-40605952D01*
X78768809Y-40605952D01*
X78530714Y-40486904D01*
X78411666Y-40367857D01*
X78292619Y-40129761D01*
X78292619Y-39415476D01*
X78411666Y-39177380D01*
X78530714Y-39058333D01*
X78768809Y-38939285D01*
X79244999Y-38939285D01*
X79483095Y-39058333D01*
X81625952Y-40486904D02*
X81387857Y-40605952D01*
X80911666Y-40605952D01*
X80673571Y-40486904D01*
X80554523Y-40248809D01*
X80554523Y-39296428D01*
X80673571Y-39058333D01*
X80911666Y-38939285D01*
X81387857Y-38939285D01*
X81625952Y-39058333D01*
X81744999Y-39296428D01*
X81744999Y-39534523D01*
X80554523Y-39772619D01*
X17340238Y-43346428D02*
X18173571Y-43346428D01*
X18530714Y-44655952D02*
X17340238Y-44655952D01*
X17340238Y-42155952D01*
X18530714Y-42155952D01*
X19602142Y-44655952D02*
X19602142Y-42155952D01*
X21030714Y-44655952D01*
X21030714Y-42155952D01*
X22221190Y-44655952D02*
X22221190Y-42155952D01*
X24721190Y-42275000D02*
X24483095Y-42155952D01*
X24125952Y-42155952D01*
X23768809Y-42275000D01*
X23530714Y-42513095D01*
X23411666Y-42751190D01*
X23292619Y-43227380D01*
X23292619Y-43584523D01*
X23411666Y-44060714D01*
X23530714Y-44298809D01*
X23768809Y-44536904D01*
X24125952Y-44655952D01*
X24364047Y-44655952D01*
X24721190Y-44536904D01*
X24840238Y-44417857D01*
X24840238Y-43584523D01*
X24364047Y-43584523D01*
X28173571Y-44655952D02*
X27935476Y-44536904D01*
X27816428Y-44417857D01*
X27697380Y-44179761D01*
X27697380Y-43465476D01*
X27816428Y-43227380D01*
X27935476Y-43108333D01*
X28173571Y-42989285D01*
X28530714Y-42989285D01*
X28768809Y-43108333D01*
X28887857Y-43227380D01*
X29006904Y-43465476D01*
X29006904Y-44179761D01*
X28887857Y-44417857D01*
X28768809Y-44536904D01*
X28530714Y-44655952D01*
X28173571Y-44655952D01*
X30078333Y-42989285D02*
X30078333Y-44655952D01*
X30078333Y-43227380D02*
X30197380Y-43108333D01*
X30435476Y-42989285D01*
X30792619Y-42989285D01*
X31030714Y-43108333D01*
X31149761Y-43346428D01*
X31149761Y-44655952D01*
X34602142Y-44655952D02*
X34364047Y-44536904D01*
X34245000Y-44417857D01*
X34125952Y-44179761D01*
X34125952Y-43465476D01*
X34245000Y-43227380D01*
X34364047Y-43108333D01*
X34602142Y-42989285D01*
X34959285Y-42989285D01*
X35197380Y-43108333D01*
X35316428Y-43227380D01*
X35435476Y-43465476D01*
X35435476Y-44179761D01*
X35316428Y-44417857D01*
X35197380Y-44536904D01*
X34959285Y-44655952D01*
X34602142Y-44655952D01*
X36149761Y-42989285D02*
X37102142Y-42989285D01*
X36506904Y-42155952D02*
X36506904Y-44298809D01*
X36625952Y-44536904D01*
X36864047Y-44655952D01*
X37102142Y-44655952D01*
X37935476Y-44655952D02*
X37935476Y-42155952D01*
X39006904Y-44655952D02*
X39006904Y-43346428D01*
X38887857Y-43108333D01*
X38649761Y-42989285D01*
X38292619Y-42989285D01*
X38054523Y-43108333D01*
X37935476Y-43227380D01*
X41149761Y-44536904D02*
X40911666Y-44655952D01*
X40435476Y-44655952D01*
X40197380Y-44536904D01*
X40078333Y-44298809D01*
X40078333Y-43346428D01*
X40197380Y-43108333D01*
X40435476Y-42989285D01*
X40911666Y-42989285D01*
X41149761Y-43108333D01*
X41268809Y-43346428D01*
X41268809Y-43584523D01*
X40078333Y-43822619D01*
X42340238Y-44655952D02*
X42340238Y-42989285D01*
X42340238Y-43465476D02*
X42459285Y-43227380D01*
X42578333Y-43108333D01*
X42816428Y-42989285D01*
X43054523Y-42989285D01*
X45673571Y-44536904D02*
X45911666Y-44655952D01*
X46387857Y-44655952D01*
X46625952Y-44536904D01*
X46745000Y-44298809D01*
X46745000Y-44179761D01*
X46625952Y-43941666D01*
X46387857Y-43822619D01*
X46030714Y-43822619D01*
X45792619Y-43703571D01*
X45673571Y-43465476D01*
X45673571Y-43346428D01*
X45792619Y-43108333D01*
X46030714Y-42989285D01*
X46387857Y-42989285D01*
X46625952Y-43108333D01*
X48887857Y-42989285D02*
X48887857Y-44655952D01*
X47816428Y-42989285D02*
X47816428Y-44298809D01*
X47935476Y-44536904D01*
X48173571Y-44655952D01*
X48530714Y-44655952D01*
X48768809Y-44536904D01*
X48887857Y-44417857D01*
X50078333Y-44655952D02*
X50078333Y-42989285D01*
X50078333Y-43465476D02*
X50197380Y-43227380D01*
X50316428Y-43108333D01*
X50554523Y-42989285D01*
X50792619Y-42989285D01*
X51268809Y-42989285D02*
X52221190Y-42989285D01*
X51625952Y-44655952D02*
X51625952Y-42513095D01*
X51744999Y-42275000D01*
X51983095Y-42155952D01*
X52221190Y-42155952D01*
X54125952Y-44655952D02*
X54125952Y-43346428D01*
X54006904Y-43108333D01*
X53768809Y-42989285D01*
X53292619Y-42989285D01*
X53054523Y-43108333D01*
X54125952Y-44536904D02*
X53887857Y-44655952D01*
X53292619Y-44655952D01*
X53054523Y-44536904D01*
X52935476Y-44298809D01*
X52935476Y-44060714D01*
X53054523Y-43822619D01*
X53292619Y-43703571D01*
X53887857Y-43703571D01*
X54125952Y-43584523D01*
X56387857Y-44536904D02*
X56149761Y-44655952D01*
X55673571Y-44655952D01*
X55435476Y-44536904D01*
X55316428Y-44417857D01*
X55197380Y-44179761D01*
X55197380Y-43465476D01*
X55316428Y-43227380D01*
X55435476Y-43108333D01*
X55673571Y-42989285D01*
X56149761Y-42989285D01*
X56387857Y-43108333D01*
X58411666Y-44536904D02*
X58173571Y-44655952D01*
X57697380Y-44655952D01*
X57459285Y-44536904D01*
X57340238Y-44298809D01*
X57340238Y-43346428D01*
X57459285Y-43108333D01*
X57697380Y-42989285D01*
X58173571Y-42989285D01*
X58411666Y-43108333D01*
X58530714Y-43346428D01*
X58530714Y-43584523D01*
X57340238Y-43822619D01*
X59483095Y-44536904D02*
X59721190Y-44655952D01*
X60197380Y-44655952D01*
X60435476Y-44536904D01*
X60554523Y-44298809D01*
X60554523Y-44179761D01*
X60435476Y-43941666D01*
X60197380Y-43822619D01*
X59840238Y-43822619D01*
X59602142Y-43703571D01*
X59483095Y-43465476D01*
X59483095Y-43346428D01*
X59602142Y-43108333D01*
X59840238Y-42989285D01*
X60197380Y-42989285D01*
X60435476Y-43108333D01*
D11*
X15850000Y-21850000D02*
X16350000Y-21350000D01*
X15850000Y-21850000D02*
X15350000Y-21350000D01*
X15850000Y-19850000D02*
X15850000Y-21850000D01*
X15350000Y-20350000D02*
X15850000Y-19850000D01*
X15850000Y-19850000D02*
X16350000Y-20350000D01*
X15850000Y-19850000D02*
X15350000Y-20350000D01*
X16350000Y-20350000D02*
X15850000Y-19850000D01*
X15850000Y-23850000D02*
X16350000Y-23350000D01*
X15850000Y-23850000D02*
X15350000Y-23350000D01*
X15850000Y-21850000D02*
X15850000Y-23850000D01*
X16850000Y-21850000D02*
X14850000Y-21850000D01*
X15850000Y-21850000D02*
X16350000Y-22350000D01*
X15350000Y-22350000D02*
X15850000Y-21850000D01*
X15850000Y-21850000D02*
X15350000Y-22350000D01*
X16350000Y-22350000D02*
X15850000Y-21850000D01*
X16850000Y-27350000D02*
X14850000Y-27350000D01*
X16850000Y-23850000D02*
X14850000Y-23850000D01*
X16350000Y-24350000D02*
X15850000Y-23850000D01*
X15850000Y-23850000D02*
X16350000Y-24350000D01*
X15350000Y-24350000D02*
X15850000Y-23850000D01*
X15850000Y-23850000D02*
X15350000Y-24350000D01*
X15850000Y-27350000D02*
X15350000Y-26850000D01*
X15850000Y-23850000D02*
X15850000Y-27350000D01*
X15850000Y-27350000D02*
X16350000Y-26850000D01*
X16850000Y-19850000D02*
X14850000Y-19850000D01*
X16850000Y-16350000D02*
X14850000Y-16350000D01*
X15850000Y-19850000D02*
X15350000Y-19350000D01*
X15850000Y-16350000D02*
X15350000Y-16850000D01*
X16350000Y-16850000D02*
X15850000Y-16350000D01*
X15350000Y-16850000D02*
X15850000Y-16350000D01*
X15850000Y-16350000D02*
X16350000Y-16850000D01*
X15850000Y-16350000D02*
X15850000Y-19850000D01*
X15850000Y-19850000D02*
X16350000Y-19350000D01*
X30850000Y-26850000D02*
X30350000Y-27350000D01*
X30350000Y-27350000D02*
X29850000Y-26850000D01*
X29850000Y-26850000D02*
X30350000Y-27350000D01*
X30350000Y-27350000D02*
X30850000Y-26850000D01*
X28850000Y-27350000D02*
X30850000Y-27350000D01*
X30350000Y-16350000D02*
X30850000Y-16850000D01*
X30350000Y-16350000D02*
X29850000Y-16850000D01*
X28850000Y-16350000D02*
X30850000Y-16350000D01*
X30350000Y-27350000D02*
X30350000Y-16350000D01*
X28850000Y-16350000D02*
X28850000Y-14350000D01*
X28850000Y-15350000D02*
X28350000Y-14850000D01*
X28350000Y-14850000D02*
X28850000Y-15350000D01*
X28850000Y-15350000D02*
X28350000Y-15850000D01*
X28350000Y-15850000D02*
X28850000Y-15350000D01*
X28850000Y-15350000D02*
X16850000Y-15350000D01*
X16850000Y-15350000D02*
X17350000Y-14850000D01*
X16850000Y-15350000D02*
X17350000Y-15850000D01*
X16850000Y-16350000D02*
X16850000Y-14350000D01*
D12*
X15213095Y-18250000D02*
X15213095Y-18163333D01*
X15308333Y-18210000D01*
X15308333Y-18190000D01*
X15320238Y-18176666D01*
X15332142Y-18170000D01*
X15355952Y-18163333D01*
X15415476Y-18163333D01*
X15439285Y-18170000D01*
X15451190Y-18176666D01*
X15463095Y-18190000D01*
X15463095Y-18230000D01*
X15451190Y-18243333D01*
X15439285Y-18250000D01*
X15439285Y-18103333D02*
X15451190Y-18096666D01*
X15463095Y-18103333D01*
X15451190Y-18110000D01*
X15439285Y-18103333D01*
X15463095Y-18103333D01*
X15213095Y-17970000D02*
X15213095Y-18036666D01*
X15332142Y-18043333D01*
X15320238Y-18036666D01*
X15308333Y-18023333D01*
X15308333Y-17990000D01*
X15320238Y-17976666D01*
X15332142Y-17970000D01*
X15355952Y-17963333D01*
X15415476Y-17963333D01*
X15439285Y-17970000D01*
X15451190Y-17976666D01*
X15463095Y-17990000D01*
X15463095Y-18023333D01*
X15451190Y-18036666D01*
X15439285Y-18043333D01*
X15213095Y-17876666D02*
X15213095Y-17863333D01*
X15225000Y-17850000D01*
X15236904Y-17843333D01*
X15260714Y-17836666D01*
X15308333Y-17830000D01*
X15367857Y-17830000D01*
X15415476Y-17836666D01*
X15439285Y-17843333D01*
X15451190Y-17850000D01*
X15463095Y-17863333D01*
X15463095Y-17876666D01*
X15451190Y-17890000D01*
X15439285Y-17896666D01*
X15415476Y-17903333D01*
X15367857Y-17910000D01*
X15308333Y-17910000D01*
X15260714Y-17903333D01*
X15236904Y-17896666D01*
X15225000Y-17890000D01*
X15213095Y-17876666D01*
X15463095Y-17770000D02*
X15296428Y-17770000D01*
X15320238Y-17770000D02*
X15308333Y-17763333D01*
X15296428Y-17750000D01*
X15296428Y-17730000D01*
X15308333Y-17716666D01*
X15332142Y-17710000D01*
X15463095Y-17710000D01*
X15332142Y-17710000D02*
X15308333Y-17703333D01*
X15296428Y-17690000D01*
X15296428Y-17670000D01*
X15308333Y-17656666D01*
X15332142Y-17650000D01*
X15463095Y-17650000D01*
X15463095Y-17583333D02*
X15296428Y-17583333D01*
X15320238Y-17583333D02*
X15308333Y-17576666D01*
X15296428Y-17563333D01*
X15296428Y-17543333D01*
X15308333Y-17530000D01*
X15332142Y-17523333D01*
X15463095Y-17523333D01*
X15332142Y-17523333D02*
X15308333Y-17516666D01*
X15296428Y-17503333D01*
X15296428Y-17483333D01*
X15308333Y-17470000D01*
X15332142Y-17463333D01*
X15463095Y-17463333D01*
D13*
X15236904Y-21271428D02*
X15225000Y-21264285D01*
X15213095Y-21250000D01*
X15213095Y-21214285D01*
X15225000Y-21200000D01*
X15236904Y-21192857D01*
X15260714Y-21185714D01*
X15284523Y-21185714D01*
X15320238Y-21192857D01*
X15463095Y-21278571D01*
X15463095Y-21185714D01*
X15439285Y-21121428D02*
X15451190Y-21114285D01*
X15463095Y-21121428D01*
X15451190Y-21128571D01*
X15439285Y-21121428D01*
X15463095Y-21121428D01*
X15213095Y-21021428D02*
X15213095Y-21007142D01*
X15225000Y-20992857D01*
X15236904Y-20985714D01*
X15260714Y-20978571D01*
X15308333Y-20971428D01*
X15367857Y-20971428D01*
X15415476Y-20978571D01*
X15439285Y-20985714D01*
X15451190Y-20992857D01*
X15463095Y-21007142D01*
X15463095Y-21021428D01*
X15451190Y-21035714D01*
X15439285Y-21042857D01*
X15415476Y-21050000D01*
X15367857Y-21057142D01*
X15308333Y-21057142D01*
X15260714Y-21050000D01*
X15236904Y-21042857D01*
X15225000Y-21035714D01*
X15213095Y-21021428D01*
X15213095Y-20878571D02*
X15213095Y-20864285D01*
X15225000Y-20850000D01*
X15236904Y-20842857D01*
X15260714Y-20835714D01*
X15308333Y-20828571D01*
X15367857Y-20828571D01*
X15415476Y-20835714D01*
X15439285Y-20842857D01*
X15451190Y-20850000D01*
X15463095Y-20864285D01*
X15463095Y-20878571D01*
X15451190Y-20892857D01*
X15439285Y-20900000D01*
X15415476Y-20907142D01*
X15367857Y-20914285D01*
X15308333Y-20914285D01*
X15260714Y-20907142D01*
X15236904Y-20900000D01*
X15225000Y-20892857D01*
X15213095Y-20878571D01*
X15463095Y-20764285D02*
X15296428Y-20764285D01*
X15320238Y-20764285D02*
X15308333Y-20757142D01*
X15296428Y-20742857D01*
X15296428Y-20721428D01*
X15308333Y-20707142D01*
X15332142Y-20700000D01*
X15463095Y-20700000D01*
X15332142Y-20700000D02*
X15308333Y-20692857D01*
X15296428Y-20678571D01*
X15296428Y-20657142D01*
X15308333Y-20642857D01*
X15332142Y-20635714D01*
X15463095Y-20635714D01*
X15463095Y-20564285D02*
X15296428Y-20564285D01*
X15320238Y-20564285D02*
X15308333Y-20557142D01*
X15296428Y-20542857D01*
X15296428Y-20521428D01*
X15308333Y-20507142D01*
X15332142Y-20500000D01*
X15463095Y-20500000D01*
X15332142Y-20500000D02*
X15308333Y-20492857D01*
X15296428Y-20478571D01*
X15296428Y-20457142D01*
X15308333Y-20442857D01*
X15332142Y-20435714D01*
X15463095Y-20435714D01*
X15236904Y-23271428D02*
X15225000Y-23264285D01*
X15213095Y-23250000D01*
X15213095Y-23214285D01*
X15225000Y-23200000D01*
X15236904Y-23192857D01*
X15260714Y-23185714D01*
X15284523Y-23185714D01*
X15320238Y-23192857D01*
X15463095Y-23278571D01*
X15463095Y-23185714D01*
X15439285Y-23121428D02*
X15451190Y-23114285D01*
X15463095Y-23121428D01*
X15451190Y-23128571D01*
X15439285Y-23121428D01*
X15463095Y-23121428D01*
X15213095Y-23021428D02*
X15213095Y-23007142D01*
X15225000Y-22992857D01*
X15236904Y-22985714D01*
X15260714Y-22978571D01*
X15308333Y-22971428D01*
X15367857Y-22971428D01*
X15415476Y-22978571D01*
X15439285Y-22985714D01*
X15451190Y-22992857D01*
X15463095Y-23007142D01*
X15463095Y-23021428D01*
X15451190Y-23035714D01*
X15439285Y-23042857D01*
X15415476Y-23050000D01*
X15367857Y-23057142D01*
X15308333Y-23057142D01*
X15260714Y-23050000D01*
X15236904Y-23042857D01*
X15225000Y-23035714D01*
X15213095Y-23021428D01*
X15213095Y-22878571D02*
X15213095Y-22864285D01*
X15225000Y-22850000D01*
X15236904Y-22842857D01*
X15260714Y-22835714D01*
X15308333Y-22828571D01*
X15367857Y-22828571D01*
X15415476Y-22835714D01*
X15439285Y-22842857D01*
X15451190Y-22850000D01*
X15463095Y-22864285D01*
X15463095Y-22878571D01*
X15451190Y-22892857D01*
X15439285Y-22900000D01*
X15415476Y-22907142D01*
X15367857Y-22914285D01*
X15308333Y-22914285D01*
X15260714Y-22907142D01*
X15236904Y-22900000D01*
X15225000Y-22892857D01*
X15213095Y-22878571D01*
X15463095Y-22764285D02*
X15296428Y-22764285D01*
X15320238Y-22764285D02*
X15308333Y-22757142D01*
X15296428Y-22742857D01*
X15296428Y-22721428D01*
X15308333Y-22707142D01*
X15332142Y-22700000D01*
X15463095Y-22700000D01*
X15332142Y-22700000D02*
X15308333Y-22692857D01*
X15296428Y-22678571D01*
X15296428Y-22657142D01*
X15308333Y-22642857D01*
X15332142Y-22635714D01*
X15463095Y-22635714D01*
X15463095Y-22564285D02*
X15296428Y-22564285D01*
X15320238Y-22564285D02*
X15308333Y-22557142D01*
X15296428Y-22542857D01*
X15296428Y-22521428D01*
X15308333Y-22507142D01*
X15332142Y-22500000D01*
X15463095Y-22500000D01*
X15332142Y-22500000D02*
X15308333Y-22492857D01*
X15296428Y-22478571D01*
X15296428Y-22457142D01*
X15308333Y-22442857D01*
X15332142Y-22435714D01*
X15463095Y-22435714D01*
D12*
X15213095Y-25750000D02*
X15213095Y-25663333D01*
X15308333Y-25710000D01*
X15308333Y-25690000D01*
X15320238Y-25676666D01*
X15332142Y-25670000D01*
X15355952Y-25663333D01*
X15415476Y-25663333D01*
X15439285Y-25670000D01*
X15451190Y-25676666D01*
X15463095Y-25690000D01*
X15463095Y-25730000D01*
X15451190Y-25743333D01*
X15439285Y-25750000D01*
X15439285Y-25603333D02*
X15451190Y-25596666D01*
X15463095Y-25603333D01*
X15451190Y-25610000D01*
X15439285Y-25603333D01*
X15463095Y-25603333D01*
X15213095Y-25470000D02*
X15213095Y-25536666D01*
X15332142Y-25543333D01*
X15320238Y-25536666D01*
X15308333Y-25523333D01*
X15308333Y-25490000D01*
X15320238Y-25476666D01*
X15332142Y-25470000D01*
X15355952Y-25463333D01*
X15415476Y-25463333D01*
X15439285Y-25470000D01*
X15451190Y-25476666D01*
X15463095Y-25490000D01*
X15463095Y-25523333D01*
X15451190Y-25536666D01*
X15439285Y-25543333D01*
X15213095Y-25376666D02*
X15213095Y-25363333D01*
X15225000Y-25350000D01*
X15236904Y-25343333D01*
X15260714Y-25336666D01*
X15308333Y-25330000D01*
X15367857Y-25330000D01*
X15415476Y-25336666D01*
X15439285Y-25343333D01*
X15451190Y-25350000D01*
X15463095Y-25363333D01*
X15463095Y-25376666D01*
X15451190Y-25390000D01*
X15439285Y-25396666D01*
X15415476Y-25403333D01*
X15367857Y-25410000D01*
X15308333Y-25410000D01*
X15260714Y-25403333D01*
X15236904Y-25396666D01*
X15225000Y-25390000D01*
X15213095Y-25376666D01*
X15463095Y-25270000D02*
X15296428Y-25270000D01*
X15320238Y-25270000D02*
X15308333Y-25263333D01*
X15296428Y-25250000D01*
X15296428Y-25230000D01*
X15308333Y-25216666D01*
X15332142Y-25210000D01*
X15463095Y-25210000D01*
X15332142Y-25210000D02*
X15308333Y-25203333D01*
X15296428Y-25190000D01*
X15296428Y-25170000D01*
X15308333Y-25156666D01*
X15332142Y-25150000D01*
X15463095Y-25150000D01*
X15463095Y-25083333D02*
X15296428Y-25083333D01*
X15320238Y-25083333D02*
X15308333Y-25076666D01*
X15296428Y-25063333D01*
X15296428Y-25043333D01*
X15308333Y-25030000D01*
X15332142Y-25023333D01*
X15463095Y-25023333D01*
X15332142Y-25023333D02*
X15308333Y-25016666D01*
X15296428Y-25003333D01*
X15296428Y-24983333D01*
X15308333Y-24970000D01*
X15332142Y-24963333D01*
X15463095Y-24963333D01*
D11*
X30302380Y-25064285D02*
X30302380Y-25635714D01*
X30302380Y-25350000D02*
X29302380Y-25350000D01*
X29445238Y-25445238D01*
X29540476Y-25540476D01*
X29588095Y-25635714D01*
X30302380Y-24111904D02*
X30302380Y-24683333D01*
X30302380Y-24397619D02*
X29302380Y-24397619D01*
X29445238Y-24492857D01*
X29540476Y-24588095D01*
X29588095Y-24683333D01*
X30207142Y-23683333D02*
X30254761Y-23635714D01*
X30302380Y-23683333D01*
X30254761Y-23730952D01*
X30207142Y-23683333D01*
X30302380Y-23683333D01*
X29302380Y-23016666D02*
X29302380Y-22921428D01*
X29350000Y-22826190D01*
X29397619Y-22778571D01*
X29492857Y-22730952D01*
X29683333Y-22683333D01*
X29921428Y-22683333D01*
X30111904Y-22730952D01*
X30207142Y-22778571D01*
X30254761Y-22826190D01*
X30302380Y-22921428D01*
X30302380Y-23016666D01*
X30254761Y-23111904D01*
X30207142Y-23159523D01*
X30111904Y-23207142D01*
X29921428Y-23254761D01*
X29683333Y-23254761D01*
X29492857Y-23207142D01*
X29397619Y-23159523D01*
X29350000Y-23111904D01*
X29302380Y-23016666D01*
X29302380Y-22064285D02*
X29302380Y-21969047D01*
X29350000Y-21873809D01*
X29397619Y-21826190D01*
X29492857Y-21778571D01*
X29683333Y-21730952D01*
X29921428Y-21730952D01*
X30111904Y-21778571D01*
X30207142Y-21826190D01*
X30254761Y-21873809D01*
X30302380Y-21969047D01*
X30302380Y-22064285D01*
X30254761Y-22159523D01*
X30207142Y-22207142D01*
X30111904Y-22254761D01*
X29921428Y-22302380D01*
X29683333Y-22302380D01*
X29492857Y-22254761D01*
X29397619Y-22207142D01*
X29350000Y-22159523D01*
X29302380Y-22064285D01*
X30302380Y-21302380D02*
X29635714Y-21302380D01*
X29730952Y-21302380D02*
X29683333Y-21254761D01*
X29635714Y-21159523D01*
X29635714Y-21016666D01*
X29683333Y-20921428D01*
X29778571Y-20873809D01*
X30302380Y-20873809D01*
X29778571Y-20873809D02*
X29683333Y-20826190D01*
X29635714Y-20730952D01*
X29635714Y-20588095D01*
X29683333Y-20492857D01*
X29778571Y-20445238D01*
X30302380Y-20445238D01*
X30302380Y-19969047D02*
X29635714Y-19969047D01*
X29730952Y-19969047D02*
X29683333Y-19921428D01*
X29635714Y-19826190D01*
X29635714Y-19683333D01*
X29683333Y-19588095D01*
X29778571Y-19540476D01*
X30302380Y-19540476D01*
X29778571Y-19540476D02*
X29683333Y-19492857D01*
X29635714Y-19397619D01*
X29635714Y-19254761D01*
X29683333Y-19159523D01*
X29778571Y-19111904D01*
X30302380Y-19111904D01*
X20135714Y-15302380D02*
X19564285Y-15302380D01*
X19850000Y-15302380D02*
X19850000Y-14302380D01*
X19754761Y-14445238D01*
X19659523Y-14540476D01*
X19564285Y-14588095D01*
X20516666Y-14397619D02*
X20564285Y-14350000D01*
X20659523Y-14302380D01*
X20897619Y-14302380D01*
X20992857Y-14350000D01*
X21040476Y-14397619D01*
X21088095Y-14492857D01*
X21088095Y-14588095D01*
X21040476Y-14730952D01*
X20469047Y-15302380D01*
X21088095Y-15302380D01*
X21516666Y-15207142D02*
X21564285Y-15254761D01*
X21516666Y-15302380D01*
X21469047Y-15254761D01*
X21516666Y-15207142D01*
X21516666Y-15302380D01*
X22183333Y-14302380D02*
X22278571Y-14302380D01*
X22373809Y-14350000D01*
X22421428Y-14397619D01*
X22469047Y-14492857D01*
X22516666Y-14683333D01*
X22516666Y-14921428D01*
X22469047Y-15111904D01*
X22421428Y-15207142D01*
X22373809Y-15254761D01*
X22278571Y-15302380D01*
X22183333Y-15302380D01*
X22088095Y-15254761D01*
X22040476Y-15207142D01*
X21992857Y-15111904D01*
X21945238Y-14921428D01*
X21945238Y-14683333D01*
X21992857Y-14492857D01*
X22040476Y-14397619D01*
X22088095Y-14350000D01*
X22183333Y-14302380D01*
X23135714Y-14302380D02*
X23230952Y-14302380D01*
X23326190Y-14350000D01*
X23373809Y-14397619D01*
X23421428Y-14492857D01*
X23469047Y-14683333D01*
X23469047Y-14921428D01*
X23421428Y-15111904D01*
X23373809Y-15207142D01*
X23326190Y-15254761D01*
X23230952Y-15302380D01*
X23135714Y-15302380D01*
X23040476Y-15254761D01*
X22992857Y-15207142D01*
X22945238Y-15111904D01*
X22897619Y-14921428D01*
X22897619Y-14683333D01*
X22945238Y-14492857D01*
X22992857Y-14397619D01*
X23040476Y-14350000D01*
X23135714Y-14302380D01*
X23897619Y-15302380D02*
X23897619Y-14635714D01*
X23897619Y-14730952D02*
X23945238Y-14683333D01*
X24040476Y-14635714D01*
X24183333Y-14635714D01*
X24278571Y-14683333D01*
X24326190Y-14778571D01*
X24326190Y-15302380D01*
X24326190Y-14778571D02*
X24373809Y-14683333D01*
X24469047Y-14635714D01*
X24611904Y-14635714D01*
X24707142Y-14683333D01*
X24754761Y-14778571D01*
X24754761Y-15302380D01*
X25230952Y-15302380D02*
X25230952Y-14635714D01*
X25230952Y-14730952D02*
X25278571Y-14683333D01*
X25373809Y-14635714D01*
X25516666Y-14635714D01*
X25611904Y-14683333D01*
X25659523Y-14778571D01*
X25659523Y-15302380D01*
X25659523Y-14778571D02*
X25707142Y-14683333D01*
X25802380Y-14635714D01*
X25945238Y-14635714D01*
X26040476Y-14683333D01*
X26088095Y-14778571D01*
X26088095Y-15302380D01*
M02*
