%TF.GenerationSoftware,KiCad,Pcbnew,(5.0.1)-3*%
%TF.CreationDate,2018-11-18T15:57:04+08:00*%
%TF.ProjectId,tomu-fpga,746F6D752D667067612E6B696361645F,rev?*%
%TF.SameCoordinates,Original*%
%TF.FileFunction,Other,Fab,Bot*%
%FSLAX46Y46*%
G04 Gerber Fmt 4.6, Leading zero omitted, Abs format (unit mm)*
G04 Created by KiCad (PCBNEW (5.0.1)-3) date 11/18/18 15:57:04*
%MOMM*%
%LPD*%
G01*
G04 APERTURE LIST*
%ADD10C,0.050000*%
%ADD11C,0.100000*%
%ADD12C,0.025000*%
%ADD13C,0.040000*%
%ADD14C,0.031750*%
G04 APERTURE END LIST*
D10*
X24425000Y-25925000D02*
X24425000Y-23925000D01*
X21425000Y-25925000D02*
X24425000Y-25925000D01*
X21425000Y-23925000D02*
X21425000Y-25925000D01*
X24425000Y-23925000D02*
X21425000Y-23925000D01*
D11*
X18500000Y-19200000D02*
X18500000Y-20200000D01*
X19250000Y-19200000D02*
X18500000Y-19200000D01*
X19500000Y-19450000D02*
X19250000Y-19200000D01*
X19500000Y-20200000D02*
X19500000Y-19450000D01*
X18500000Y-20200000D02*
X19500000Y-20200000D01*
X25800000Y-24050000D02*
X25200000Y-24050000D01*
X25800000Y-24350000D02*
X25800000Y-24050000D01*
X25200000Y-24350000D02*
X25800000Y-24350000D01*
X25200000Y-24050000D02*
X25200000Y-24350000D01*
X18400000Y-23200000D02*
X18400000Y-24200000D01*
X19150000Y-23200000D02*
X18400000Y-23200000D01*
X19400000Y-23450000D02*
X19150000Y-23200000D01*
X19400000Y-24200000D02*
X19400000Y-23450000D01*
X18400000Y-24200000D02*
X19400000Y-24200000D01*
X17590000Y-17885000D02*
X17590000Y-18485000D01*
X17890000Y-17885000D02*
X17590000Y-17885000D01*
X17890000Y-18485000D02*
X17890000Y-17885000D01*
X17590000Y-18485000D02*
X17890000Y-18485000D01*
X23700000Y-17925000D02*
X24300000Y-17925000D01*
X23700000Y-17625000D02*
X23700000Y-17925000D01*
X24300000Y-17625000D02*
X23700000Y-17625000D01*
X24300000Y-17925000D02*
X24300000Y-17625000D01*
X17790000Y-25505000D02*
X17790000Y-24905000D01*
X17490000Y-25505000D02*
X17790000Y-25505000D01*
X17490000Y-24905000D02*
X17490000Y-25505000D01*
X17790000Y-24905000D02*
X17490000Y-24905000D01*
X21950000Y-20925000D02*
X21950000Y-21525000D01*
X22250000Y-20925000D02*
X21950000Y-20925000D01*
X22250000Y-21525000D02*
X22250000Y-20925000D01*
X21950000Y-21525000D02*
X22250000Y-21525000D01*
X20825000Y-25550000D02*
X20825000Y-24950000D01*
X20525000Y-25550000D02*
X20825000Y-25550000D01*
X20525000Y-24950000D02*
X20525000Y-25550000D01*
X20825000Y-24950000D02*
X20525000Y-24950000D01*
X22650000Y-20925000D02*
X22650000Y-21525000D01*
X22950000Y-20925000D02*
X22650000Y-20925000D01*
X22950000Y-21525000D02*
X22950000Y-20925000D01*
X22650000Y-21525000D02*
X22950000Y-21525000D01*
X26600000Y-20175000D02*
X26000000Y-20175000D01*
X26600000Y-20475000D02*
X26600000Y-20175000D01*
X26000000Y-20475000D02*
X26600000Y-20475000D01*
X26000000Y-20175000D02*
X26000000Y-20475000D01*
X25800000Y-24750000D02*
X25200000Y-24750000D01*
X25800000Y-25050000D02*
X25800000Y-24750000D01*
X25200000Y-25050000D02*
X25800000Y-25050000D01*
X25200000Y-24750000D02*
X25200000Y-25050000D01*
X26600000Y-19475000D02*
X26000000Y-19475000D01*
X26600000Y-19775000D02*
X26600000Y-19475000D01*
X26000000Y-19775000D02*
X26600000Y-19775000D01*
X26000000Y-19475000D02*
X26000000Y-19775000D01*
X17490000Y-23400000D02*
X17490000Y-24000000D01*
X17790000Y-23400000D02*
X17490000Y-23400000D01*
X17790000Y-24000000D02*
X17790000Y-23400000D01*
X17490000Y-24000000D02*
X17790000Y-24000000D01*
X17890000Y-19995000D02*
X17890000Y-19395000D01*
X17590000Y-19995000D02*
X17890000Y-19995000D01*
X17590000Y-19395000D02*
X17590000Y-19995000D01*
X17890000Y-19395000D02*
X17590000Y-19395000D01*
X21150000Y-22395000D02*
X20550000Y-22395000D01*
X21150000Y-22695000D02*
X21150000Y-22395000D01*
X20550000Y-22695000D02*
X21150000Y-22695000D01*
X20550000Y-22395000D02*
X20550000Y-22695000D01*
X22250000Y-22925000D02*
X22250000Y-22325000D01*
X21950000Y-22925000D02*
X22250000Y-22925000D01*
X21950000Y-22325000D02*
X21950000Y-22925000D01*
X22250000Y-22325000D02*
X21950000Y-22325000D01*
X22950000Y-22925000D02*
X22950000Y-22325000D01*
X22650000Y-22925000D02*
X22950000Y-22925000D01*
X22650000Y-22325000D02*
X22650000Y-22925000D01*
X22950000Y-22325000D02*
X22650000Y-22325000D01*
X20410000Y-18505000D02*
X20410000Y-17905000D01*
X20110000Y-18505000D02*
X20410000Y-18505000D01*
X20110000Y-17905000D02*
X20110000Y-18505000D01*
X20410000Y-17905000D02*
X20110000Y-17905000D01*
X20300000Y-23895000D02*
X20300000Y-23295000D01*
X20000000Y-23895000D02*
X20300000Y-23895000D01*
X20000000Y-23295000D02*
X20000000Y-23895000D01*
X20300000Y-23295000D02*
X20000000Y-23295000D01*
X20410000Y-19980000D02*
X20410000Y-19380000D01*
X20110000Y-19980000D02*
X20410000Y-19980000D01*
X20110000Y-19380000D02*
X20110000Y-19980000D01*
X20410000Y-19380000D02*
X20110000Y-19380000D01*
X18250000Y-21900000D02*
X18250000Y-22500000D01*
X18550000Y-21900000D02*
X18250000Y-21900000D01*
X18550000Y-22500000D02*
X18550000Y-21900000D01*
X18250000Y-22500000D02*
X18550000Y-22500000D01*
X17850000Y-22500000D02*
X17850000Y-21900000D01*
X17550000Y-22500000D02*
X17850000Y-22500000D01*
X17550000Y-21900000D02*
X17550000Y-22500000D01*
X17850000Y-21900000D02*
X17550000Y-21900000D01*
X25200000Y-25750000D02*
X25800000Y-25750000D01*
X25200000Y-25450000D02*
X25200000Y-25750000D01*
X25800000Y-25450000D02*
X25200000Y-25450000D01*
X25800000Y-25750000D02*
X25800000Y-25450000D01*
X18950000Y-21900000D02*
X18950000Y-22500000D01*
X19250000Y-21900000D02*
X18950000Y-21900000D01*
X19250000Y-22500000D02*
X19250000Y-21900000D01*
X18950000Y-22500000D02*
X19250000Y-22500000D01*
X19650000Y-21900000D02*
X19650000Y-22500000D01*
X19950000Y-21900000D02*
X19650000Y-21900000D01*
X19950000Y-22500000D02*
X19950000Y-21900000D01*
X19650000Y-22500000D02*
X19950000Y-22500000D01*
X18500000Y-17700000D02*
X18500000Y-18700000D01*
X19250000Y-17700000D02*
X18500000Y-17700000D01*
X19500000Y-17950000D02*
X19250000Y-17700000D01*
X19500000Y-18700000D02*
X19500000Y-17950000D01*
X18500000Y-18700000D02*
X19500000Y-18700000D01*
X18400000Y-24700000D02*
X18400000Y-25700000D01*
X19150000Y-24700000D02*
X18400000Y-24700000D01*
X19400000Y-24950000D02*
X19150000Y-24700000D01*
X19400000Y-25700000D02*
X19400000Y-24950000D01*
X18400000Y-25700000D02*
X19400000Y-25700000D01*
D12*
X20445238Y-21077380D02*
X20345238Y-21077380D01*
X20345238Y-21101190D01*
X20350000Y-21115476D01*
X20359523Y-21125000D01*
X20369047Y-21129761D01*
X20388095Y-21134523D01*
X20402380Y-21134523D01*
X20421428Y-21129761D01*
X20430952Y-21125000D01*
X20440476Y-21115476D01*
X20445238Y-21101190D01*
X20445238Y-21077380D01*
X20345238Y-21225000D02*
X20345238Y-21177380D01*
X20392857Y-21172619D01*
X20388095Y-21177380D01*
X20383333Y-21186904D01*
X20383333Y-21210714D01*
X20388095Y-21220238D01*
X20392857Y-21225000D01*
X20402380Y-21229761D01*
X20426190Y-21229761D01*
X20435714Y-21225000D01*
X20440476Y-21220238D01*
X20445238Y-21210714D01*
X20445238Y-21186904D01*
X20440476Y-21177380D01*
X20435714Y-21172619D01*
X20345238Y-21258333D02*
X20445238Y-21291666D01*
X20345238Y-21325000D01*
X20345238Y-21377380D02*
X20345238Y-21386904D01*
X20350000Y-21396428D01*
X20354761Y-21401190D01*
X20364285Y-21405952D01*
X20383333Y-21410714D01*
X20407142Y-21410714D01*
X20426190Y-21405952D01*
X20435714Y-21401190D01*
X20440476Y-21396428D01*
X20445238Y-21386904D01*
X20445238Y-21377380D01*
X20440476Y-21367857D01*
X20435714Y-21363095D01*
X20426190Y-21358333D01*
X20407142Y-21353571D01*
X20383333Y-21353571D01*
X20364285Y-21358333D01*
X20354761Y-21363095D01*
X20350000Y-21367857D01*
X20345238Y-21377380D01*
X20445238Y-21501190D02*
X20445238Y-21453571D01*
X20345238Y-21453571D01*
X20445238Y-21586904D02*
X20445238Y-21529761D01*
X20445238Y-21558333D02*
X20345238Y-21558333D01*
X20359523Y-21548809D01*
X20369047Y-21539285D01*
X20373809Y-21529761D01*
X20392857Y-21663095D02*
X20397619Y-21677380D01*
X20402380Y-21682142D01*
X20411904Y-21686904D01*
X20426190Y-21686904D01*
X20435714Y-21682142D01*
X20440476Y-21677380D01*
X20445238Y-21667857D01*
X20445238Y-21629761D01*
X20345238Y-21629761D01*
X20345238Y-21663095D01*
X20350000Y-21672619D01*
X20354761Y-21677380D01*
X20364285Y-21682142D01*
X20373809Y-21682142D01*
X20383333Y-21677380D01*
X20388095Y-21672619D01*
X20392857Y-21663095D01*
X20392857Y-21629761D01*
X20354761Y-21725000D02*
X20350000Y-21729761D01*
X20345238Y-21739285D01*
X20345238Y-21763095D01*
X20350000Y-21772619D01*
X20354761Y-21777380D01*
X20364285Y-21782142D01*
X20373809Y-21782142D01*
X20388095Y-21777380D01*
X20445238Y-21720238D01*
X20445238Y-21782142D01*
X20445238Y-21872619D02*
X20445238Y-21825000D01*
X20345238Y-21825000D01*
X20445238Y-21905952D02*
X20345238Y-21905952D01*
X20345238Y-21944047D01*
X20350000Y-21953571D01*
X20354761Y-21958333D01*
X20364285Y-21963095D01*
X20378571Y-21963095D01*
X20388095Y-21958333D01*
X20392857Y-21953571D01*
X20397619Y-21944047D01*
X20397619Y-21905952D01*
X20345238Y-21996428D02*
X20345238Y-22058333D01*
X20383333Y-22025000D01*
X20383333Y-22039285D01*
X20388095Y-22048809D01*
X20392857Y-22053571D01*
X20402380Y-22058333D01*
X20426190Y-22058333D01*
X20435714Y-22053571D01*
X20440476Y-22048809D01*
X20445238Y-22039285D01*
X20445238Y-22010714D01*
X20440476Y-22001190D01*
X20435714Y-21996428D01*
X20407142Y-22101190D02*
X20407142Y-22177380D01*
X20345238Y-22215476D02*
X20345238Y-22282142D01*
X20445238Y-22239285D01*
X18470238Y-20427380D02*
X18370238Y-20427380D01*
X18370238Y-20451190D01*
X18375000Y-20465476D01*
X18384523Y-20475000D01*
X18394047Y-20479761D01*
X18413095Y-20484523D01*
X18427380Y-20484523D01*
X18446428Y-20479761D01*
X18455952Y-20475000D01*
X18465476Y-20465476D01*
X18470238Y-20451190D01*
X18470238Y-20427380D01*
X18370238Y-20575000D02*
X18370238Y-20527380D01*
X18417857Y-20522619D01*
X18413095Y-20527380D01*
X18408333Y-20536904D01*
X18408333Y-20560714D01*
X18413095Y-20570238D01*
X18417857Y-20575000D01*
X18427380Y-20579761D01*
X18451190Y-20579761D01*
X18460714Y-20575000D01*
X18465476Y-20570238D01*
X18470238Y-20560714D01*
X18470238Y-20536904D01*
X18465476Y-20527380D01*
X18460714Y-20522619D01*
X18370238Y-20608333D02*
X18470238Y-20641666D01*
X18370238Y-20675000D01*
X18370238Y-20727380D02*
X18370238Y-20736904D01*
X18375000Y-20746428D01*
X18379761Y-20751190D01*
X18389285Y-20755952D01*
X18408333Y-20760714D01*
X18432142Y-20760714D01*
X18451190Y-20755952D01*
X18460714Y-20751190D01*
X18465476Y-20746428D01*
X18470238Y-20736904D01*
X18470238Y-20727380D01*
X18465476Y-20717857D01*
X18460714Y-20713095D01*
X18451190Y-20708333D01*
X18432142Y-20703571D01*
X18408333Y-20703571D01*
X18389285Y-20708333D01*
X18379761Y-20713095D01*
X18375000Y-20717857D01*
X18370238Y-20727380D01*
X18470238Y-20851190D02*
X18470238Y-20803571D01*
X18370238Y-20803571D01*
X18470238Y-20936904D02*
X18470238Y-20879761D01*
X18470238Y-20908333D02*
X18370238Y-20908333D01*
X18384523Y-20898809D01*
X18394047Y-20889285D01*
X18398809Y-20879761D01*
X18417857Y-21013095D02*
X18422619Y-21027380D01*
X18427380Y-21032142D01*
X18436904Y-21036904D01*
X18451190Y-21036904D01*
X18460714Y-21032142D01*
X18465476Y-21027380D01*
X18470238Y-21017857D01*
X18470238Y-20979761D01*
X18370238Y-20979761D01*
X18370238Y-21013095D01*
X18375000Y-21022619D01*
X18379761Y-21027380D01*
X18389285Y-21032142D01*
X18398809Y-21032142D01*
X18408333Y-21027380D01*
X18413095Y-21022619D01*
X18417857Y-21013095D01*
X18417857Y-20979761D01*
X18379761Y-21075000D02*
X18375000Y-21079761D01*
X18370238Y-21089285D01*
X18370238Y-21113095D01*
X18375000Y-21122619D01*
X18379761Y-21127380D01*
X18389285Y-21132142D01*
X18398809Y-21132142D01*
X18413095Y-21127380D01*
X18470238Y-21070238D01*
X18470238Y-21132142D01*
X18470238Y-21222619D02*
X18470238Y-21175000D01*
X18370238Y-21175000D01*
X18470238Y-21255952D02*
X18370238Y-21255952D01*
X18370238Y-21294047D01*
X18375000Y-21303571D01*
X18379761Y-21308333D01*
X18389285Y-21313095D01*
X18403571Y-21313095D01*
X18413095Y-21308333D01*
X18417857Y-21303571D01*
X18422619Y-21294047D01*
X18422619Y-21255952D01*
X18370238Y-21346428D02*
X18370238Y-21408333D01*
X18408333Y-21375000D01*
X18408333Y-21389285D01*
X18413095Y-21398809D01*
X18417857Y-21403571D01*
X18427380Y-21408333D01*
X18451190Y-21408333D01*
X18460714Y-21403571D01*
X18465476Y-21398809D01*
X18470238Y-21389285D01*
X18470238Y-21360714D01*
X18465476Y-21351190D01*
X18460714Y-21346428D01*
X18432142Y-21451190D02*
X18432142Y-21527380D01*
X18370238Y-21565476D02*
X18370238Y-21632142D01*
X18470238Y-21589285D01*
X27447619Y-24820238D02*
X27447619Y-24720238D01*
X27423809Y-24720238D01*
X27409523Y-24725000D01*
X27400000Y-24734523D01*
X27395238Y-24744047D01*
X27390476Y-24763095D01*
X27390476Y-24777380D01*
X27395238Y-24796428D01*
X27400000Y-24805952D01*
X27409523Y-24815476D01*
X27423809Y-24820238D01*
X27447619Y-24820238D01*
X27300000Y-24720238D02*
X27347619Y-24720238D01*
X27352380Y-24767857D01*
X27347619Y-24763095D01*
X27338095Y-24758333D01*
X27314285Y-24758333D01*
X27304761Y-24763095D01*
X27300000Y-24767857D01*
X27295238Y-24777380D01*
X27295238Y-24801190D01*
X27300000Y-24810714D01*
X27304761Y-24815476D01*
X27314285Y-24820238D01*
X27338095Y-24820238D01*
X27347619Y-24815476D01*
X27352380Y-24810714D01*
X27266666Y-24720238D02*
X27233333Y-24820238D01*
X27200000Y-24720238D01*
X27147619Y-24720238D02*
X27138095Y-24720238D01*
X27128571Y-24725000D01*
X27123809Y-24729761D01*
X27119047Y-24739285D01*
X27114285Y-24758333D01*
X27114285Y-24782142D01*
X27119047Y-24801190D01*
X27123809Y-24810714D01*
X27128571Y-24815476D01*
X27138095Y-24820238D01*
X27147619Y-24820238D01*
X27157142Y-24815476D01*
X27161904Y-24810714D01*
X27166666Y-24801190D01*
X27171428Y-24782142D01*
X27171428Y-24758333D01*
X27166666Y-24739285D01*
X27161904Y-24729761D01*
X27157142Y-24725000D01*
X27147619Y-24720238D01*
X27023809Y-24820238D02*
X27071428Y-24820238D01*
X27071428Y-24720238D01*
X26938095Y-24820238D02*
X26995238Y-24820238D01*
X26966666Y-24820238D02*
X26966666Y-24720238D01*
X26976190Y-24734523D01*
X26985714Y-24744047D01*
X26995238Y-24748809D01*
X26861904Y-24767857D02*
X26847619Y-24772619D01*
X26842857Y-24777380D01*
X26838095Y-24786904D01*
X26838095Y-24801190D01*
X26842857Y-24810714D01*
X26847619Y-24815476D01*
X26857142Y-24820238D01*
X26895238Y-24820238D01*
X26895238Y-24720238D01*
X26861904Y-24720238D01*
X26852380Y-24725000D01*
X26847619Y-24729761D01*
X26842857Y-24739285D01*
X26842857Y-24748809D01*
X26847619Y-24758333D01*
X26852380Y-24763095D01*
X26861904Y-24767857D01*
X26895238Y-24767857D01*
X26800000Y-24729761D02*
X26795238Y-24725000D01*
X26785714Y-24720238D01*
X26761904Y-24720238D01*
X26752380Y-24725000D01*
X26747619Y-24729761D01*
X26742857Y-24739285D01*
X26742857Y-24748809D01*
X26747619Y-24763095D01*
X26804761Y-24820238D01*
X26742857Y-24820238D01*
X26652380Y-24820238D02*
X26700000Y-24820238D01*
X26700000Y-24720238D01*
X26619047Y-24820238D02*
X26619047Y-24720238D01*
X26580952Y-24720238D01*
X26571428Y-24725000D01*
X26566666Y-24729761D01*
X26561904Y-24739285D01*
X26561904Y-24753571D01*
X26566666Y-24763095D01*
X26571428Y-24767857D01*
X26580952Y-24772619D01*
X26619047Y-24772619D01*
X26528571Y-24720238D02*
X26466666Y-24720238D01*
X26500000Y-24758333D01*
X26485714Y-24758333D01*
X26476190Y-24763095D01*
X26471428Y-24767857D01*
X26466666Y-24777380D01*
X26466666Y-24801190D01*
X26471428Y-24810714D01*
X26476190Y-24815476D01*
X26485714Y-24820238D01*
X26514285Y-24820238D01*
X26523809Y-24815476D01*
X26528571Y-24810714D01*
X26423809Y-24782142D02*
X26347619Y-24782142D01*
X26309523Y-24720238D02*
X26242857Y-24720238D01*
X26285714Y-24820238D01*
X27295238Y-22527380D02*
X27195238Y-22527380D01*
X27195238Y-22551190D01*
X27200000Y-22565476D01*
X27209523Y-22575000D01*
X27219047Y-22579761D01*
X27238095Y-22584523D01*
X27252380Y-22584523D01*
X27271428Y-22579761D01*
X27280952Y-22575000D01*
X27290476Y-22565476D01*
X27295238Y-22551190D01*
X27295238Y-22527380D01*
X27195238Y-22675000D02*
X27195238Y-22627380D01*
X27242857Y-22622619D01*
X27238095Y-22627380D01*
X27233333Y-22636904D01*
X27233333Y-22660714D01*
X27238095Y-22670238D01*
X27242857Y-22675000D01*
X27252380Y-22679761D01*
X27276190Y-22679761D01*
X27285714Y-22675000D01*
X27290476Y-22670238D01*
X27295238Y-22660714D01*
X27295238Y-22636904D01*
X27290476Y-22627380D01*
X27285714Y-22622619D01*
X27195238Y-22708333D02*
X27295238Y-22741666D01*
X27195238Y-22775000D01*
X27195238Y-22827380D02*
X27195238Y-22836904D01*
X27200000Y-22846428D01*
X27204761Y-22851190D01*
X27214285Y-22855952D01*
X27233333Y-22860714D01*
X27257142Y-22860714D01*
X27276190Y-22855952D01*
X27285714Y-22851190D01*
X27290476Y-22846428D01*
X27295238Y-22836904D01*
X27295238Y-22827380D01*
X27290476Y-22817857D01*
X27285714Y-22813095D01*
X27276190Y-22808333D01*
X27257142Y-22803571D01*
X27233333Y-22803571D01*
X27214285Y-22808333D01*
X27204761Y-22813095D01*
X27200000Y-22817857D01*
X27195238Y-22827380D01*
X27295238Y-22951190D02*
X27295238Y-22903571D01*
X27195238Y-22903571D01*
X27295238Y-23036904D02*
X27295238Y-22979761D01*
X27295238Y-23008333D02*
X27195238Y-23008333D01*
X27209523Y-22998809D01*
X27219047Y-22989285D01*
X27223809Y-22979761D01*
X27242857Y-23113095D02*
X27247619Y-23127380D01*
X27252380Y-23132142D01*
X27261904Y-23136904D01*
X27276190Y-23136904D01*
X27285714Y-23132142D01*
X27290476Y-23127380D01*
X27295238Y-23117857D01*
X27295238Y-23079761D01*
X27195238Y-23079761D01*
X27195238Y-23113095D01*
X27200000Y-23122619D01*
X27204761Y-23127380D01*
X27214285Y-23132142D01*
X27223809Y-23132142D01*
X27233333Y-23127380D01*
X27238095Y-23122619D01*
X27242857Y-23113095D01*
X27242857Y-23079761D01*
X27204761Y-23175000D02*
X27200000Y-23179761D01*
X27195238Y-23189285D01*
X27195238Y-23213095D01*
X27200000Y-23222619D01*
X27204761Y-23227380D01*
X27214285Y-23232142D01*
X27223809Y-23232142D01*
X27238095Y-23227380D01*
X27295238Y-23170238D01*
X27295238Y-23232142D01*
X27295238Y-23322619D02*
X27295238Y-23275000D01*
X27195238Y-23275000D01*
X27295238Y-23355952D02*
X27195238Y-23355952D01*
X27195238Y-23394047D01*
X27200000Y-23403571D01*
X27204761Y-23408333D01*
X27214285Y-23413095D01*
X27228571Y-23413095D01*
X27238095Y-23408333D01*
X27242857Y-23403571D01*
X27247619Y-23394047D01*
X27247619Y-23355952D01*
X27195238Y-23446428D02*
X27195238Y-23508333D01*
X27233333Y-23475000D01*
X27233333Y-23489285D01*
X27238095Y-23498809D01*
X27242857Y-23503571D01*
X27252380Y-23508333D01*
X27276190Y-23508333D01*
X27285714Y-23503571D01*
X27290476Y-23498809D01*
X27295238Y-23489285D01*
X27295238Y-23460714D01*
X27290476Y-23451190D01*
X27285714Y-23446428D01*
X27257142Y-23551190D02*
X27257142Y-23627380D01*
X27195238Y-23665476D02*
X27195238Y-23732142D01*
X27295238Y-23689285D01*
X26622619Y-19320238D02*
X26622619Y-19220238D01*
X26598809Y-19220238D01*
X26584523Y-19225000D01*
X26575000Y-19234523D01*
X26570238Y-19244047D01*
X26565476Y-19263095D01*
X26565476Y-19277380D01*
X26570238Y-19296428D01*
X26575000Y-19305952D01*
X26584523Y-19315476D01*
X26598809Y-19320238D01*
X26622619Y-19320238D01*
X26475000Y-19220238D02*
X26522619Y-19220238D01*
X26527380Y-19267857D01*
X26522619Y-19263095D01*
X26513095Y-19258333D01*
X26489285Y-19258333D01*
X26479761Y-19263095D01*
X26475000Y-19267857D01*
X26470238Y-19277380D01*
X26470238Y-19301190D01*
X26475000Y-19310714D01*
X26479761Y-19315476D01*
X26489285Y-19320238D01*
X26513095Y-19320238D01*
X26522619Y-19315476D01*
X26527380Y-19310714D01*
X26441666Y-19220238D02*
X26408333Y-19320238D01*
X26375000Y-19220238D01*
X26322619Y-19220238D02*
X26313095Y-19220238D01*
X26303571Y-19225000D01*
X26298809Y-19229761D01*
X26294047Y-19239285D01*
X26289285Y-19258333D01*
X26289285Y-19282142D01*
X26294047Y-19301190D01*
X26298809Y-19310714D01*
X26303571Y-19315476D01*
X26313095Y-19320238D01*
X26322619Y-19320238D01*
X26332142Y-19315476D01*
X26336904Y-19310714D01*
X26341666Y-19301190D01*
X26346428Y-19282142D01*
X26346428Y-19258333D01*
X26341666Y-19239285D01*
X26336904Y-19229761D01*
X26332142Y-19225000D01*
X26322619Y-19220238D01*
X26198809Y-19320238D02*
X26246428Y-19320238D01*
X26246428Y-19220238D01*
X26113095Y-19320238D02*
X26170238Y-19320238D01*
X26141666Y-19320238D02*
X26141666Y-19220238D01*
X26151190Y-19234523D01*
X26160714Y-19244047D01*
X26170238Y-19248809D01*
X26036904Y-19267857D02*
X26022619Y-19272619D01*
X26017857Y-19277380D01*
X26013095Y-19286904D01*
X26013095Y-19301190D01*
X26017857Y-19310714D01*
X26022619Y-19315476D01*
X26032142Y-19320238D01*
X26070238Y-19320238D01*
X26070238Y-19220238D01*
X26036904Y-19220238D01*
X26027380Y-19225000D01*
X26022619Y-19229761D01*
X26017857Y-19239285D01*
X26017857Y-19248809D01*
X26022619Y-19258333D01*
X26027380Y-19263095D01*
X26036904Y-19267857D01*
X26070238Y-19267857D01*
X25975000Y-19229761D02*
X25970238Y-19225000D01*
X25960714Y-19220238D01*
X25936904Y-19220238D01*
X25927380Y-19225000D01*
X25922619Y-19229761D01*
X25917857Y-19239285D01*
X25917857Y-19248809D01*
X25922619Y-19263095D01*
X25979761Y-19320238D01*
X25917857Y-19320238D01*
X25827380Y-19320238D02*
X25875000Y-19320238D01*
X25875000Y-19220238D01*
X25794047Y-19320238D02*
X25794047Y-19220238D01*
X25755952Y-19220238D01*
X25746428Y-19225000D01*
X25741666Y-19229761D01*
X25736904Y-19239285D01*
X25736904Y-19253571D01*
X25741666Y-19263095D01*
X25746428Y-19267857D01*
X25755952Y-19272619D01*
X25794047Y-19272619D01*
X25703571Y-19220238D02*
X25641666Y-19220238D01*
X25675000Y-19258333D01*
X25660714Y-19258333D01*
X25651190Y-19263095D01*
X25646428Y-19267857D01*
X25641666Y-19277380D01*
X25641666Y-19301190D01*
X25646428Y-19310714D01*
X25651190Y-19315476D01*
X25660714Y-19320238D01*
X25689285Y-19320238D01*
X25698809Y-19315476D01*
X25703571Y-19310714D01*
X25598809Y-19282142D02*
X25522619Y-19282142D01*
X25484523Y-19220238D02*
X25417857Y-19220238D01*
X25460714Y-19320238D01*
X27645238Y-19852380D02*
X27545238Y-19852380D01*
X27545238Y-19876190D01*
X27550000Y-19890476D01*
X27559523Y-19900000D01*
X27569047Y-19904761D01*
X27588095Y-19909523D01*
X27602380Y-19909523D01*
X27621428Y-19904761D01*
X27630952Y-19900000D01*
X27640476Y-19890476D01*
X27645238Y-19876190D01*
X27645238Y-19852380D01*
X27545238Y-20000000D02*
X27545238Y-19952380D01*
X27592857Y-19947619D01*
X27588095Y-19952380D01*
X27583333Y-19961904D01*
X27583333Y-19985714D01*
X27588095Y-19995238D01*
X27592857Y-20000000D01*
X27602380Y-20004761D01*
X27626190Y-20004761D01*
X27635714Y-20000000D01*
X27640476Y-19995238D01*
X27645238Y-19985714D01*
X27645238Y-19961904D01*
X27640476Y-19952380D01*
X27635714Y-19947619D01*
X27545238Y-20033333D02*
X27645238Y-20066666D01*
X27545238Y-20100000D01*
X27545238Y-20152380D02*
X27545238Y-20161904D01*
X27550000Y-20171428D01*
X27554761Y-20176190D01*
X27564285Y-20180952D01*
X27583333Y-20185714D01*
X27607142Y-20185714D01*
X27626190Y-20180952D01*
X27635714Y-20176190D01*
X27640476Y-20171428D01*
X27645238Y-20161904D01*
X27645238Y-20152380D01*
X27640476Y-20142857D01*
X27635714Y-20138095D01*
X27626190Y-20133333D01*
X27607142Y-20128571D01*
X27583333Y-20128571D01*
X27564285Y-20133333D01*
X27554761Y-20138095D01*
X27550000Y-20142857D01*
X27545238Y-20152380D01*
X27645238Y-20276190D02*
X27645238Y-20228571D01*
X27545238Y-20228571D01*
X27645238Y-20361904D02*
X27645238Y-20304761D01*
X27645238Y-20333333D02*
X27545238Y-20333333D01*
X27559523Y-20323809D01*
X27569047Y-20314285D01*
X27573809Y-20304761D01*
X27592857Y-20438095D02*
X27597619Y-20452380D01*
X27602380Y-20457142D01*
X27611904Y-20461904D01*
X27626190Y-20461904D01*
X27635714Y-20457142D01*
X27640476Y-20452380D01*
X27645238Y-20442857D01*
X27645238Y-20404761D01*
X27545238Y-20404761D01*
X27545238Y-20438095D01*
X27550000Y-20447619D01*
X27554761Y-20452380D01*
X27564285Y-20457142D01*
X27573809Y-20457142D01*
X27583333Y-20452380D01*
X27588095Y-20447619D01*
X27592857Y-20438095D01*
X27592857Y-20404761D01*
X27554761Y-20500000D02*
X27550000Y-20504761D01*
X27545238Y-20514285D01*
X27545238Y-20538095D01*
X27550000Y-20547619D01*
X27554761Y-20552380D01*
X27564285Y-20557142D01*
X27573809Y-20557142D01*
X27588095Y-20552380D01*
X27645238Y-20495238D01*
X27645238Y-20557142D01*
X27645238Y-20647619D02*
X27645238Y-20600000D01*
X27545238Y-20600000D01*
X27645238Y-20680952D02*
X27545238Y-20680952D01*
X27545238Y-20719047D01*
X27550000Y-20728571D01*
X27554761Y-20733333D01*
X27564285Y-20738095D01*
X27578571Y-20738095D01*
X27588095Y-20733333D01*
X27592857Y-20728571D01*
X27597619Y-20719047D01*
X27597619Y-20680952D01*
X27545238Y-20771428D02*
X27545238Y-20833333D01*
X27583333Y-20800000D01*
X27583333Y-20814285D01*
X27588095Y-20823809D01*
X27592857Y-20828571D01*
X27602380Y-20833333D01*
X27626190Y-20833333D01*
X27635714Y-20828571D01*
X27640476Y-20823809D01*
X27645238Y-20814285D01*
X27645238Y-20785714D01*
X27640476Y-20776190D01*
X27635714Y-20771428D01*
X27607142Y-20876190D02*
X27607142Y-20952380D01*
X27545238Y-20990476D02*
X27545238Y-21057142D01*
X27645238Y-21014285D01*
X20120238Y-25102380D02*
X20020238Y-25102380D01*
X20020238Y-25126190D01*
X20025000Y-25140476D01*
X20034523Y-25150000D01*
X20044047Y-25154761D01*
X20063095Y-25159523D01*
X20077380Y-25159523D01*
X20096428Y-25154761D01*
X20105952Y-25150000D01*
X20115476Y-25140476D01*
X20120238Y-25126190D01*
X20120238Y-25102380D01*
X20020238Y-25250000D02*
X20020238Y-25202380D01*
X20067857Y-25197619D01*
X20063095Y-25202380D01*
X20058333Y-25211904D01*
X20058333Y-25235714D01*
X20063095Y-25245238D01*
X20067857Y-25250000D01*
X20077380Y-25254761D01*
X20101190Y-25254761D01*
X20110714Y-25250000D01*
X20115476Y-25245238D01*
X20120238Y-25235714D01*
X20120238Y-25211904D01*
X20115476Y-25202380D01*
X20110714Y-25197619D01*
X20020238Y-25283333D02*
X20120238Y-25316666D01*
X20020238Y-25350000D01*
X20020238Y-25402380D02*
X20020238Y-25411904D01*
X20025000Y-25421428D01*
X20029761Y-25426190D01*
X20039285Y-25430952D01*
X20058333Y-25435714D01*
X20082142Y-25435714D01*
X20101190Y-25430952D01*
X20110714Y-25426190D01*
X20115476Y-25421428D01*
X20120238Y-25411904D01*
X20120238Y-25402380D01*
X20115476Y-25392857D01*
X20110714Y-25388095D01*
X20101190Y-25383333D01*
X20082142Y-25378571D01*
X20058333Y-25378571D01*
X20039285Y-25383333D01*
X20029761Y-25388095D01*
X20025000Y-25392857D01*
X20020238Y-25402380D01*
X20120238Y-25526190D02*
X20120238Y-25478571D01*
X20020238Y-25478571D01*
X20120238Y-25611904D02*
X20120238Y-25554761D01*
X20120238Y-25583333D02*
X20020238Y-25583333D01*
X20034523Y-25573809D01*
X20044047Y-25564285D01*
X20048809Y-25554761D01*
X20067857Y-25688095D02*
X20072619Y-25702380D01*
X20077380Y-25707142D01*
X20086904Y-25711904D01*
X20101190Y-25711904D01*
X20110714Y-25707142D01*
X20115476Y-25702380D01*
X20120238Y-25692857D01*
X20120238Y-25654761D01*
X20020238Y-25654761D01*
X20020238Y-25688095D01*
X20025000Y-25697619D01*
X20029761Y-25702380D01*
X20039285Y-25707142D01*
X20048809Y-25707142D01*
X20058333Y-25702380D01*
X20063095Y-25697619D01*
X20067857Y-25688095D01*
X20067857Y-25654761D01*
X20029761Y-25750000D02*
X20025000Y-25754761D01*
X20020238Y-25764285D01*
X20020238Y-25788095D01*
X20025000Y-25797619D01*
X20029761Y-25802380D01*
X20039285Y-25807142D01*
X20048809Y-25807142D01*
X20063095Y-25802380D01*
X20120238Y-25745238D01*
X20120238Y-25807142D01*
X20120238Y-25897619D02*
X20120238Y-25850000D01*
X20020238Y-25850000D01*
X20120238Y-25930952D02*
X20020238Y-25930952D01*
X20020238Y-25969047D01*
X20025000Y-25978571D01*
X20029761Y-25983333D01*
X20039285Y-25988095D01*
X20053571Y-25988095D01*
X20063095Y-25983333D01*
X20067857Y-25978571D01*
X20072619Y-25969047D01*
X20072619Y-25930952D01*
X20020238Y-26021428D02*
X20020238Y-26083333D01*
X20058333Y-26050000D01*
X20058333Y-26064285D01*
X20063095Y-26073809D01*
X20067857Y-26078571D01*
X20077380Y-26083333D01*
X20101190Y-26083333D01*
X20110714Y-26078571D01*
X20115476Y-26073809D01*
X20120238Y-26064285D01*
X20120238Y-26035714D01*
X20115476Y-26026190D01*
X20110714Y-26021428D01*
X20082142Y-26126190D02*
X20082142Y-26202380D01*
X20020238Y-26240476D02*
X20020238Y-26307142D01*
X20120238Y-26264285D01*
X19604761Y-21245238D02*
X19652380Y-21245238D01*
X19652380Y-21145238D01*
X19571428Y-21245238D02*
X19571428Y-21145238D01*
X19547619Y-21145238D01*
X19533333Y-21150000D01*
X19523809Y-21159523D01*
X19519047Y-21169047D01*
X19514285Y-21188095D01*
X19514285Y-21202380D01*
X19519047Y-21221428D01*
X19523809Y-21230952D01*
X19533333Y-21240476D01*
X19547619Y-21245238D01*
X19571428Y-21245238D01*
X19452380Y-21145238D02*
X19433333Y-21145238D01*
X19423809Y-21150000D01*
X19414285Y-21159523D01*
X19409523Y-21178571D01*
X19409523Y-21211904D01*
X19414285Y-21230952D01*
X19423809Y-21240476D01*
X19433333Y-21245238D01*
X19452380Y-21245238D01*
X19461904Y-21240476D01*
X19471428Y-21230952D01*
X19476190Y-21211904D01*
X19476190Y-21178571D01*
X19471428Y-21159523D01*
X19461904Y-21150000D01*
X19452380Y-21145238D01*
X19366666Y-21207142D02*
X19290476Y-21207142D01*
X19252380Y-21145238D02*
X19185714Y-21245238D01*
X19185714Y-21145238D02*
X19252380Y-21245238D01*
X19152380Y-21154761D02*
X19147619Y-21150000D01*
X19138095Y-21145238D01*
X19114285Y-21145238D01*
X19104761Y-21150000D01*
X19100000Y-21154761D01*
X19095238Y-21164285D01*
X19095238Y-21173809D01*
X19100000Y-21188095D01*
X19157142Y-21245238D01*
X19095238Y-21245238D01*
X19057142Y-21240476D02*
X19042857Y-21245238D01*
X19019047Y-21245238D01*
X19009523Y-21240476D01*
X19004761Y-21235714D01*
X19000000Y-21226190D01*
X19000000Y-21216666D01*
X19004761Y-21207142D01*
X19009523Y-21202380D01*
X19019047Y-21197619D01*
X19038095Y-21192857D01*
X19047619Y-21188095D01*
X19052380Y-21183333D01*
X19057142Y-21173809D01*
X19057142Y-21164285D01*
X19052380Y-21154761D01*
X19047619Y-21150000D01*
X19038095Y-21145238D01*
X19014285Y-21145238D01*
X19000000Y-21150000D01*
X18938095Y-21145238D02*
X18919047Y-21145238D01*
X18909523Y-21150000D01*
X18900000Y-21159523D01*
X18895238Y-21178571D01*
X18895238Y-21211904D01*
X18900000Y-21230952D01*
X18909523Y-21240476D01*
X18919047Y-21245238D01*
X18938095Y-21245238D01*
X18947619Y-21240476D01*
X18957142Y-21230952D01*
X18961904Y-21211904D01*
X18961904Y-21178571D01*
X18957142Y-21159523D01*
X18947619Y-21150000D01*
X18938095Y-21145238D01*
X18852380Y-21245238D02*
X18852380Y-21145238D01*
X18795238Y-21245238D01*
X18795238Y-21145238D01*
X18747619Y-21207142D02*
X18671428Y-21207142D01*
X18628571Y-21154761D02*
X18623809Y-21150000D01*
X18614285Y-21145238D01*
X18590476Y-21145238D01*
X18580952Y-21150000D01*
X18576190Y-21154761D01*
X18571428Y-21164285D01*
X18571428Y-21173809D01*
X18576190Y-21188095D01*
X18633333Y-21245238D01*
X18571428Y-21245238D01*
X18528571Y-21235714D02*
X18523809Y-21240476D01*
X18528571Y-21245238D01*
X18533333Y-21240476D01*
X18528571Y-21235714D01*
X18528571Y-21245238D01*
X18433333Y-21145238D02*
X18480952Y-21145238D01*
X18485714Y-21192857D01*
X18480952Y-21188095D01*
X18471428Y-21183333D01*
X18447619Y-21183333D01*
X18438095Y-21188095D01*
X18433333Y-21192857D01*
X18428571Y-21202380D01*
X18428571Y-21226190D01*
X18433333Y-21235714D01*
X18438095Y-21240476D01*
X18447619Y-21245238D01*
X18471428Y-21245238D01*
X18480952Y-21240476D01*
X18485714Y-21235714D01*
X18400000Y-21145238D02*
X18366666Y-21245238D01*
X18333333Y-21145238D01*
D13*
X19152380Y-19590476D02*
X19152380Y-19752380D01*
X19142857Y-19771428D01*
X19133333Y-19780952D01*
X19114285Y-19790476D01*
X19076190Y-19790476D01*
X19057142Y-19780952D01*
X19047619Y-19771428D01*
X19038095Y-19752380D01*
X19038095Y-19590476D01*
X18961904Y-19590476D02*
X18838095Y-19590476D01*
X18904761Y-19666666D01*
X18876190Y-19666666D01*
X18857142Y-19676190D01*
X18847619Y-19685714D01*
X18838095Y-19704761D01*
X18838095Y-19752380D01*
X18847619Y-19771428D01*
X18857142Y-19780952D01*
X18876190Y-19790476D01*
X18933333Y-19790476D01*
X18952380Y-19780952D01*
X18961904Y-19771428D01*
D14*
X24496761Y-20330452D02*
X24496761Y-20433261D01*
X24490714Y-20445357D01*
X24484666Y-20451404D01*
X24472571Y-20457452D01*
X24448380Y-20457452D01*
X24436285Y-20451404D01*
X24430238Y-20445357D01*
X24424190Y-20433261D01*
X24424190Y-20330452D01*
X24303238Y-20330452D02*
X24363714Y-20330452D01*
X24369761Y-20390928D01*
X24363714Y-20384880D01*
X24351619Y-20378833D01*
X24321380Y-20378833D01*
X24309285Y-20384880D01*
X24303238Y-20390928D01*
X24297190Y-20403023D01*
X24297190Y-20433261D01*
X24303238Y-20445357D01*
X24309285Y-20451404D01*
X24321380Y-20457452D01*
X24351619Y-20457452D01*
X24363714Y-20451404D01*
X24369761Y-20445357D01*
D12*
X25107142Y-23445238D02*
X25107142Y-23345238D01*
X25002380Y-23435714D02*
X25007142Y-23440476D01*
X25021428Y-23445238D01*
X25030952Y-23445238D01*
X25045238Y-23440476D01*
X25054761Y-23430952D01*
X25059523Y-23421428D01*
X25064285Y-23402380D01*
X25064285Y-23388095D01*
X25059523Y-23369047D01*
X25054761Y-23359523D01*
X25045238Y-23350000D01*
X25030952Y-23345238D01*
X25021428Y-23345238D01*
X25007142Y-23350000D01*
X25002380Y-23354761D01*
X24959523Y-23392857D02*
X24926190Y-23392857D01*
X24911904Y-23445238D02*
X24959523Y-23445238D01*
X24959523Y-23345238D01*
X24911904Y-23345238D01*
X24826190Y-23378571D02*
X24826190Y-23445238D01*
X24850000Y-23340476D02*
X24873809Y-23411904D01*
X24811904Y-23411904D01*
X24754761Y-23345238D02*
X24745238Y-23345238D01*
X24735714Y-23350000D01*
X24730952Y-23354761D01*
X24726190Y-23364285D01*
X24721428Y-23383333D01*
X24721428Y-23407142D01*
X24726190Y-23426190D01*
X24730952Y-23435714D01*
X24735714Y-23440476D01*
X24745238Y-23445238D01*
X24754761Y-23445238D01*
X24764285Y-23440476D01*
X24769047Y-23435714D01*
X24773809Y-23426190D01*
X24778571Y-23407142D01*
X24778571Y-23383333D01*
X24773809Y-23364285D01*
X24769047Y-23354761D01*
X24764285Y-23350000D01*
X24754761Y-23345238D01*
X24678571Y-23345238D02*
X24678571Y-23426190D01*
X24673809Y-23435714D01*
X24669047Y-23440476D01*
X24659523Y-23445238D01*
X24640476Y-23445238D01*
X24630952Y-23440476D01*
X24626190Y-23435714D01*
X24621428Y-23426190D01*
X24621428Y-23345238D01*
X24573809Y-23445238D02*
X24573809Y-23345238D01*
X24535714Y-23345238D01*
X24526190Y-23350000D01*
X24521428Y-23354761D01*
X24516666Y-23364285D01*
X24516666Y-23378571D01*
X24521428Y-23388095D01*
X24526190Y-23392857D01*
X24535714Y-23397619D01*
X24573809Y-23397619D01*
X24426190Y-23345238D02*
X24473809Y-23345238D01*
X24478571Y-23392857D01*
X24473809Y-23388095D01*
X24464285Y-23383333D01*
X24440476Y-23383333D01*
X24430952Y-23388095D01*
X24426190Y-23392857D01*
X24421428Y-23402380D01*
X24421428Y-23426190D01*
X24426190Y-23435714D01*
X24430952Y-23440476D01*
X24440476Y-23445238D01*
X24464285Y-23445238D01*
X24473809Y-23440476D01*
X24478571Y-23435714D01*
X24378571Y-23445238D02*
X24378571Y-23345238D01*
X24321428Y-23445238D02*
X24364285Y-23388095D01*
X24321428Y-23345238D02*
X24378571Y-23402380D01*
X24278571Y-23407142D02*
X24202380Y-23407142D01*
X24154761Y-23345238D02*
X24154761Y-23426190D01*
X24150000Y-23435714D01*
X24145238Y-23440476D01*
X24135714Y-23445238D01*
X24116666Y-23445238D01*
X24107142Y-23440476D01*
X24102380Y-23435714D01*
X24097619Y-23426190D01*
X24097619Y-23345238D01*
X24059523Y-23345238D02*
X24035714Y-23445238D01*
X24016666Y-23373809D01*
X23997619Y-23445238D01*
X23973809Y-23345238D01*
X23883333Y-23350000D02*
X23892857Y-23345238D01*
X23907142Y-23345238D01*
X23921428Y-23350000D01*
X23930952Y-23359523D01*
X23935714Y-23369047D01*
X23940476Y-23388095D01*
X23940476Y-23402380D01*
X23935714Y-23421428D01*
X23930952Y-23430952D01*
X23921428Y-23440476D01*
X23907142Y-23445238D01*
X23897619Y-23445238D01*
X23883333Y-23440476D01*
X23878571Y-23435714D01*
X23878571Y-23402380D01*
X23897619Y-23402380D01*
X23845238Y-23345238D02*
X23783333Y-23345238D01*
X23816666Y-23383333D01*
X23802380Y-23383333D01*
X23792857Y-23388095D01*
X23788095Y-23392857D01*
X23783333Y-23402380D01*
X23783333Y-23426190D01*
X23788095Y-23435714D01*
X23792857Y-23440476D01*
X23802380Y-23445238D01*
X23830952Y-23445238D01*
X23840476Y-23440476D01*
X23845238Y-23435714D01*
X23721428Y-23345238D02*
X23711904Y-23345238D01*
X23702380Y-23350000D01*
X23697619Y-23354761D01*
X23692857Y-23364285D01*
X23688095Y-23383333D01*
X23688095Y-23407142D01*
X23692857Y-23426190D01*
X23697619Y-23435714D01*
X23702380Y-23440476D01*
X23711904Y-23445238D01*
X23721428Y-23445238D01*
X23730952Y-23440476D01*
X23735714Y-23435714D01*
X23740476Y-23426190D01*
X23745238Y-23407142D01*
X23745238Y-23383333D01*
X23740476Y-23364285D01*
X23735714Y-23354761D01*
X23730952Y-23350000D01*
X23721428Y-23345238D01*
X26536904Y-24420238D02*
X26527380Y-24420238D01*
X26517857Y-24425000D01*
X26513095Y-24429761D01*
X26508333Y-24439285D01*
X26503571Y-24458333D01*
X26503571Y-24482142D01*
X26508333Y-24501190D01*
X26513095Y-24510714D01*
X26517857Y-24515476D01*
X26527380Y-24520238D01*
X26536904Y-24520238D01*
X26546428Y-24515476D01*
X26551190Y-24510714D01*
X26555952Y-24501190D01*
X26560714Y-24482142D01*
X26560714Y-24458333D01*
X26555952Y-24439285D01*
X26551190Y-24429761D01*
X26546428Y-24425000D01*
X26536904Y-24420238D01*
X26465476Y-24429761D02*
X26460714Y-24425000D01*
X26451190Y-24420238D01*
X26427380Y-24420238D01*
X26417857Y-24425000D01*
X26413095Y-24429761D01*
X26408333Y-24439285D01*
X26408333Y-24448809D01*
X26413095Y-24463095D01*
X26470238Y-24520238D01*
X26408333Y-24520238D01*
X26346428Y-24420238D02*
X26336904Y-24420238D01*
X26327380Y-24425000D01*
X26322619Y-24429761D01*
X26317857Y-24439285D01*
X26313095Y-24458333D01*
X26313095Y-24482142D01*
X26317857Y-24501190D01*
X26322619Y-24510714D01*
X26327380Y-24515476D01*
X26336904Y-24520238D01*
X26346428Y-24520238D01*
X26355952Y-24515476D01*
X26360714Y-24510714D01*
X26365476Y-24501190D01*
X26370238Y-24482142D01*
X26370238Y-24458333D01*
X26365476Y-24439285D01*
X26360714Y-24429761D01*
X26355952Y-24425000D01*
X26346428Y-24420238D01*
X26217857Y-24520238D02*
X26275000Y-24520238D01*
X26246428Y-24520238D02*
X26246428Y-24420238D01*
X26255952Y-24434523D01*
X26265476Y-24444047D01*
X26275000Y-24448809D01*
X26170238Y-24515476D02*
X26170238Y-24520238D01*
X26175000Y-24529761D01*
X26179761Y-24534523D01*
X25998809Y-24520238D02*
X26055952Y-24520238D01*
X26027380Y-24520238D02*
X26027380Y-24420238D01*
X26036904Y-24434523D01*
X26046428Y-24444047D01*
X26055952Y-24448809D01*
X25936904Y-24420238D02*
X25927380Y-24420238D01*
X25917857Y-24425000D01*
X25913095Y-24429761D01*
X25908333Y-24439285D01*
X25903571Y-24458333D01*
X25903571Y-24482142D01*
X25908333Y-24501190D01*
X25913095Y-24510714D01*
X25917857Y-24515476D01*
X25927380Y-24520238D01*
X25936904Y-24520238D01*
X25946428Y-24515476D01*
X25951190Y-24510714D01*
X25955952Y-24501190D01*
X25960714Y-24482142D01*
X25960714Y-24458333D01*
X25955952Y-24439285D01*
X25951190Y-24429761D01*
X25946428Y-24425000D01*
X25936904Y-24420238D01*
X25841666Y-24420238D02*
X25832142Y-24420238D01*
X25822619Y-24425000D01*
X25817857Y-24429761D01*
X25813095Y-24439285D01*
X25808333Y-24458333D01*
X25808333Y-24482142D01*
X25813095Y-24501190D01*
X25817857Y-24510714D01*
X25822619Y-24515476D01*
X25832142Y-24520238D01*
X25841666Y-24520238D01*
X25851190Y-24515476D01*
X25855952Y-24510714D01*
X25860714Y-24501190D01*
X25865476Y-24482142D01*
X25865476Y-24458333D01*
X25860714Y-24439285D01*
X25855952Y-24429761D01*
X25851190Y-24425000D01*
X25841666Y-24420238D01*
X25765476Y-24453571D02*
X25765476Y-24520238D01*
X25765476Y-24463095D02*
X25760714Y-24458333D01*
X25751190Y-24453571D01*
X25736904Y-24453571D01*
X25727380Y-24458333D01*
X25722619Y-24467857D01*
X25722619Y-24520238D01*
X25641666Y-24467857D02*
X25675000Y-24467857D01*
X25675000Y-24520238D02*
X25675000Y-24420238D01*
X25627380Y-24420238D01*
X25584523Y-24515476D02*
X25584523Y-24520238D01*
X25589285Y-24529761D01*
X25594047Y-24534523D01*
X25413095Y-24520238D02*
X25470238Y-24520238D01*
X25441666Y-24520238D02*
X25441666Y-24420238D01*
X25451190Y-24434523D01*
X25460714Y-24444047D01*
X25470238Y-24448809D01*
X25351190Y-24420238D02*
X25341666Y-24420238D01*
X25332142Y-24425000D01*
X25327380Y-24429761D01*
X25322619Y-24439285D01*
X25317857Y-24458333D01*
X25317857Y-24482142D01*
X25322619Y-24501190D01*
X25327380Y-24510714D01*
X25332142Y-24515476D01*
X25341666Y-24520238D01*
X25351190Y-24520238D01*
X25360714Y-24515476D01*
X25365476Y-24510714D01*
X25370238Y-24501190D01*
X25375000Y-24482142D01*
X25375000Y-24458333D01*
X25370238Y-24439285D01*
X25365476Y-24429761D01*
X25360714Y-24425000D01*
X25351190Y-24420238D01*
X25289285Y-24420238D02*
X25255952Y-24520238D01*
X25222619Y-24420238D01*
X25184523Y-24515476D02*
X25184523Y-24520238D01*
X25189285Y-24529761D01*
X25194047Y-24534523D01*
X25075000Y-24420238D02*
X25008333Y-24520238D01*
X25008333Y-24420238D02*
X25075000Y-24520238D01*
X24922619Y-24420238D02*
X24970238Y-24420238D01*
X24975000Y-24467857D01*
X24970238Y-24463095D01*
X24960714Y-24458333D01*
X24936904Y-24458333D01*
X24927380Y-24463095D01*
X24922619Y-24467857D01*
X24917857Y-24477380D01*
X24917857Y-24501190D01*
X24922619Y-24510714D01*
X24927380Y-24515476D01*
X24936904Y-24520238D01*
X24960714Y-24520238D01*
X24970238Y-24515476D01*
X24975000Y-24510714D01*
X24817857Y-24520238D02*
X24851190Y-24472619D01*
X24875000Y-24520238D02*
X24875000Y-24420238D01*
X24836904Y-24420238D01*
X24827380Y-24425000D01*
X24822619Y-24429761D01*
X24817857Y-24439285D01*
X24817857Y-24453571D01*
X24822619Y-24463095D01*
X24827380Y-24467857D01*
X24836904Y-24472619D01*
X24875000Y-24472619D01*
X24770238Y-24515476D02*
X24770238Y-24520238D01*
X24775000Y-24529761D01*
X24779761Y-24534523D01*
X24655952Y-24429761D02*
X24651190Y-24425000D01*
X24641666Y-24420238D01*
X24617857Y-24420238D01*
X24608333Y-24425000D01*
X24603571Y-24429761D01*
X24598809Y-24439285D01*
X24598809Y-24448809D01*
X24603571Y-24463095D01*
X24660714Y-24520238D01*
X24598809Y-24520238D01*
X24536904Y-24420238D02*
X24527380Y-24420238D01*
X24517857Y-24425000D01*
X24513095Y-24429761D01*
X24508333Y-24439285D01*
X24503571Y-24458333D01*
X24503571Y-24482142D01*
X24508333Y-24501190D01*
X24513095Y-24510714D01*
X24517857Y-24515476D01*
X24527380Y-24520238D01*
X24536904Y-24520238D01*
X24546428Y-24515476D01*
X24551190Y-24510714D01*
X24555952Y-24501190D01*
X24560714Y-24482142D01*
X24560714Y-24458333D01*
X24555952Y-24439285D01*
X24551190Y-24429761D01*
X24546428Y-24425000D01*
X24536904Y-24420238D01*
X24465476Y-24520238D02*
X24389285Y-24420238D01*
X24451190Y-24420238D02*
X24441666Y-24425000D01*
X24436904Y-24434523D01*
X24441666Y-24444047D01*
X24451190Y-24448809D01*
X24460714Y-24444047D01*
X24465476Y-24434523D01*
X24460714Y-24425000D01*
X24451190Y-24420238D01*
X24394047Y-24515476D02*
X24389285Y-24505952D01*
X24394047Y-24496428D01*
X24403571Y-24491666D01*
X24413095Y-24496428D01*
X24417857Y-24505952D01*
X24413095Y-24515476D01*
X24403571Y-24520238D01*
X24394047Y-24515476D01*
D13*
X25635714Y-24289285D02*
X25647619Y-24301190D01*
X25683333Y-24313095D01*
X25707142Y-24313095D01*
X25742857Y-24301190D01*
X25766666Y-24277380D01*
X25778571Y-24253571D01*
X25790476Y-24205952D01*
X25790476Y-24170238D01*
X25778571Y-24122619D01*
X25766666Y-24098809D01*
X25742857Y-24075000D01*
X25707142Y-24063095D01*
X25683333Y-24063095D01*
X25647619Y-24075000D01*
X25635714Y-24086904D01*
X25540476Y-24086904D02*
X25528571Y-24075000D01*
X25504761Y-24063095D01*
X25445238Y-24063095D01*
X25421428Y-24075000D01*
X25409523Y-24086904D01*
X25397619Y-24110714D01*
X25397619Y-24134523D01*
X25409523Y-24170238D01*
X25552380Y-24313095D01*
X25397619Y-24313095D01*
X25254761Y-24170238D02*
X25278571Y-24158333D01*
X25290476Y-24146428D01*
X25302380Y-24122619D01*
X25302380Y-24110714D01*
X25290476Y-24086904D01*
X25278571Y-24075000D01*
X25254761Y-24063095D01*
X25207142Y-24063095D01*
X25183333Y-24075000D01*
X25171428Y-24086904D01*
X25159523Y-24110714D01*
X25159523Y-24122619D01*
X25171428Y-24146428D01*
X25183333Y-24158333D01*
X25207142Y-24170238D01*
X25254761Y-24170238D01*
X25278571Y-24182142D01*
X25290476Y-24194047D01*
X25302380Y-24217857D01*
X25302380Y-24265476D01*
X25290476Y-24289285D01*
X25278571Y-24301190D01*
X25254761Y-24313095D01*
X25207142Y-24313095D01*
X25183333Y-24301190D01*
X25171428Y-24289285D01*
X25159523Y-24265476D01*
X25159523Y-24217857D01*
X25171428Y-24194047D01*
X25183333Y-24182142D01*
X25207142Y-24170238D01*
D12*
X19579761Y-24395238D02*
X19627380Y-24395238D01*
X19627380Y-24295238D01*
X19546428Y-24395238D02*
X19546428Y-24295238D01*
X19522619Y-24295238D01*
X19508333Y-24300000D01*
X19498809Y-24309523D01*
X19494047Y-24319047D01*
X19489285Y-24338095D01*
X19489285Y-24352380D01*
X19494047Y-24371428D01*
X19498809Y-24380952D01*
X19508333Y-24390476D01*
X19522619Y-24395238D01*
X19546428Y-24395238D01*
X19427380Y-24295238D02*
X19408333Y-24295238D01*
X19398809Y-24300000D01*
X19389285Y-24309523D01*
X19384523Y-24328571D01*
X19384523Y-24361904D01*
X19389285Y-24380952D01*
X19398809Y-24390476D01*
X19408333Y-24395238D01*
X19427380Y-24395238D01*
X19436904Y-24390476D01*
X19446428Y-24380952D01*
X19451190Y-24361904D01*
X19451190Y-24328571D01*
X19446428Y-24309523D01*
X19436904Y-24300000D01*
X19427380Y-24295238D01*
X19341666Y-24357142D02*
X19265476Y-24357142D01*
X19227380Y-24295238D02*
X19160714Y-24395238D01*
X19160714Y-24295238D02*
X19227380Y-24395238D01*
X19127380Y-24304761D02*
X19122619Y-24300000D01*
X19113095Y-24295238D01*
X19089285Y-24295238D01*
X19079761Y-24300000D01*
X19075000Y-24304761D01*
X19070238Y-24314285D01*
X19070238Y-24323809D01*
X19075000Y-24338095D01*
X19132142Y-24395238D01*
X19070238Y-24395238D01*
X19032142Y-24390476D02*
X19017857Y-24395238D01*
X18994047Y-24395238D01*
X18984523Y-24390476D01*
X18979761Y-24385714D01*
X18975000Y-24376190D01*
X18975000Y-24366666D01*
X18979761Y-24357142D01*
X18984523Y-24352380D01*
X18994047Y-24347619D01*
X19013095Y-24342857D01*
X19022619Y-24338095D01*
X19027380Y-24333333D01*
X19032142Y-24323809D01*
X19032142Y-24314285D01*
X19027380Y-24304761D01*
X19022619Y-24300000D01*
X19013095Y-24295238D01*
X18989285Y-24295238D01*
X18975000Y-24300000D01*
X18913095Y-24295238D02*
X18894047Y-24295238D01*
X18884523Y-24300000D01*
X18875000Y-24309523D01*
X18870238Y-24328571D01*
X18870238Y-24361904D01*
X18875000Y-24380952D01*
X18884523Y-24390476D01*
X18894047Y-24395238D01*
X18913095Y-24395238D01*
X18922619Y-24390476D01*
X18932142Y-24380952D01*
X18936904Y-24361904D01*
X18936904Y-24328571D01*
X18932142Y-24309523D01*
X18922619Y-24300000D01*
X18913095Y-24295238D01*
X18827380Y-24395238D02*
X18827380Y-24295238D01*
X18770238Y-24395238D01*
X18770238Y-24295238D01*
X18722619Y-24357142D02*
X18646428Y-24357142D01*
X18608333Y-24295238D02*
X18546428Y-24295238D01*
X18579761Y-24333333D01*
X18565476Y-24333333D01*
X18555952Y-24338095D01*
X18551190Y-24342857D01*
X18546428Y-24352380D01*
X18546428Y-24376190D01*
X18551190Y-24385714D01*
X18555952Y-24390476D01*
X18565476Y-24395238D01*
X18594047Y-24395238D01*
X18603571Y-24390476D01*
X18608333Y-24385714D01*
X18503571Y-24385714D02*
X18498809Y-24390476D01*
X18503571Y-24395238D01*
X18508333Y-24390476D01*
X18503571Y-24385714D01*
X18503571Y-24395238D01*
X18465476Y-24295238D02*
X18403571Y-24295238D01*
X18436904Y-24333333D01*
X18422619Y-24333333D01*
X18413095Y-24338095D01*
X18408333Y-24342857D01*
X18403571Y-24352380D01*
X18403571Y-24376190D01*
X18408333Y-24385714D01*
X18413095Y-24390476D01*
X18422619Y-24395238D01*
X18451190Y-24395238D01*
X18460714Y-24390476D01*
X18465476Y-24385714D01*
X18375000Y-24295238D02*
X18341666Y-24395238D01*
X18308333Y-24295238D01*
D13*
X19052380Y-23590476D02*
X19052380Y-23752380D01*
X19042857Y-23771428D01*
X19033333Y-23780952D01*
X19014285Y-23790476D01*
X18976190Y-23790476D01*
X18957142Y-23780952D01*
X18947619Y-23771428D01*
X18938095Y-23752380D01*
X18938095Y-23590476D01*
X18852380Y-23609523D02*
X18842857Y-23600000D01*
X18823809Y-23590476D01*
X18776190Y-23590476D01*
X18757142Y-23600000D01*
X18747619Y-23609523D01*
X18738095Y-23628571D01*
X18738095Y-23647619D01*
X18747619Y-23676190D01*
X18861904Y-23790476D01*
X18738095Y-23790476D01*
D12*
X27215238Y-21513333D02*
X27167619Y-21480000D01*
X27215238Y-21456190D02*
X27115238Y-21456190D01*
X27115238Y-21494285D01*
X27120000Y-21503809D01*
X27124761Y-21508571D01*
X27134285Y-21513333D01*
X27148571Y-21513333D01*
X27158095Y-21508571D01*
X27162857Y-21503809D01*
X27167619Y-21494285D01*
X27167619Y-21456190D01*
X27120000Y-21608571D02*
X27115238Y-21599047D01*
X27115238Y-21584761D01*
X27120000Y-21570476D01*
X27129523Y-21560952D01*
X27139047Y-21556190D01*
X27158095Y-21551428D01*
X27172380Y-21551428D01*
X27191428Y-21556190D01*
X27200952Y-21560952D01*
X27210476Y-21570476D01*
X27215238Y-21584761D01*
X27215238Y-21594285D01*
X27210476Y-21608571D01*
X27205714Y-21613333D01*
X27172380Y-21613333D01*
X27172380Y-21594285D01*
X27162857Y-21689523D02*
X27167619Y-21703809D01*
X27172380Y-21708571D01*
X27181904Y-21713333D01*
X27196190Y-21713333D01*
X27205714Y-21708571D01*
X27210476Y-21703809D01*
X27215238Y-21694285D01*
X27215238Y-21656190D01*
X27115238Y-21656190D01*
X27115238Y-21689523D01*
X27120000Y-21699047D01*
X27124761Y-21703809D01*
X27134285Y-21708571D01*
X27143809Y-21708571D01*
X27153333Y-21703809D01*
X27158095Y-21699047D01*
X27162857Y-21689523D01*
X27162857Y-21656190D01*
X27177142Y-21756190D02*
X27177142Y-21832380D01*
X27215238Y-21927619D02*
X27215238Y-21880000D01*
X27115238Y-21880000D01*
X27162857Y-21960952D02*
X27162857Y-21994285D01*
X27215238Y-22008571D02*
X27215238Y-21960952D01*
X27115238Y-21960952D01*
X27115238Y-22008571D01*
X27215238Y-22051428D02*
X27115238Y-22051428D01*
X27115238Y-22075238D01*
X27120000Y-22089523D01*
X27129523Y-22099047D01*
X27139047Y-22103809D01*
X27158095Y-22108571D01*
X27172380Y-22108571D01*
X27191428Y-22103809D01*
X27200952Y-22099047D01*
X27210476Y-22089523D01*
X27215238Y-22075238D01*
X27215238Y-22051428D01*
X17420238Y-17308333D02*
X17420238Y-17317857D01*
X17425000Y-17327380D01*
X17429761Y-17332142D01*
X17439285Y-17336904D01*
X17458333Y-17341666D01*
X17482142Y-17341666D01*
X17501190Y-17336904D01*
X17510714Y-17332142D01*
X17515476Y-17327380D01*
X17520238Y-17317857D01*
X17520238Y-17308333D01*
X17515476Y-17298809D01*
X17510714Y-17294047D01*
X17501190Y-17289285D01*
X17482142Y-17284523D01*
X17458333Y-17284523D01*
X17439285Y-17289285D01*
X17429761Y-17294047D01*
X17425000Y-17298809D01*
X17420238Y-17308333D01*
X17429761Y-17379761D02*
X17425000Y-17384523D01*
X17420238Y-17394047D01*
X17420238Y-17417857D01*
X17425000Y-17427380D01*
X17429761Y-17432142D01*
X17439285Y-17436904D01*
X17448809Y-17436904D01*
X17463095Y-17432142D01*
X17520238Y-17375000D01*
X17520238Y-17436904D01*
X17420238Y-17498809D02*
X17420238Y-17508333D01*
X17425000Y-17517857D01*
X17429761Y-17522619D01*
X17439285Y-17527380D01*
X17458333Y-17532142D01*
X17482142Y-17532142D01*
X17501190Y-17527380D01*
X17510714Y-17522619D01*
X17515476Y-17517857D01*
X17520238Y-17508333D01*
X17520238Y-17498809D01*
X17515476Y-17489285D01*
X17510714Y-17484523D01*
X17501190Y-17479761D01*
X17482142Y-17475000D01*
X17458333Y-17475000D01*
X17439285Y-17479761D01*
X17429761Y-17484523D01*
X17425000Y-17489285D01*
X17420238Y-17498809D01*
X17520238Y-17627380D02*
X17520238Y-17570238D01*
X17520238Y-17598809D02*
X17420238Y-17598809D01*
X17434523Y-17589285D01*
X17444047Y-17579761D01*
X17448809Y-17570238D01*
X17515476Y-17675000D02*
X17520238Y-17675000D01*
X17529761Y-17670238D01*
X17534523Y-17665476D01*
X17520238Y-17846428D02*
X17520238Y-17789285D01*
X17520238Y-17817857D02*
X17420238Y-17817857D01*
X17434523Y-17808333D01*
X17444047Y-17798809D01*
X17448809Y-17789285D01*
X17453571Y-17932142D02*
X17520238Y-17932142D01*
X17453571Y-17889285D02*
X17505952Y-17889285D01*
X17515476Y-17894047D01*
X17520238Y-17903571D01*
X17520238Y-17917857D01*
X17515476Y-17927380D01*
X17510714Y-17932142D01*
X17467857Y-18013095D02*
X17467857Y-17979761D01*
X17520238Y-17979761D02*
X17420238Y-17979761D01*
X17420238Y-18027380D01*
X17515476Y-18070238D02*
X17520238Y-18070238D01*
X17529761Y-18065476D01*
X17534523Y-18060714D01*
X17520238Y-18241666D02*
X17520238Y-18184523D01*
X17520238Y-18213095D02*
X17420238Y-18213095D01*
X17434523Y-18203571D01*
X17444047Y-18194047D01*
X17448809Y-18184523D01*
X17420238Y-18303571D02*
X17420238Y-18313095D01*
X17425000Y-18322619D01*
X17429761Y-18327380D01*
X17439285Y-18332142D01*
X17458333Y-18336904D01*
X17482142Y-18336904D01*
X17501190Y-18332142D01*
X17510714Y-18327380D01*
X17515476Y-18322619D01*
X17520238Y-18313095D01*
X17520238Y-18303571D01*
X17515476Y-18294047D01*
X17510714Y-18289285D01*
X17501190Y-18284523D01*
X17482142Y-18279761D01*
X17458333Y-18279761D01*
X17439285Y-18284523D01*
X17429761Y-18289285D01*
X17425000Y-18294047D01*
X17420238Y-18303571D01*
X17420238Y-18365476D02*
X17520238Y-18398809D01*
X17420238Y-18432142D01*
X17515476Y-18470238D02*
X17520238Y-18470238D01*
X17529761Y-18465476D01*
X17534523Y-18460714D01*
X17420238Y-18579761D02*
X17520238Y-18646428D01*
X17420238Y-18646428D02*
X17520238Y-18579761D01*
X17420238Y-18732142D02*
X17420238Y-18684523D01*
X17467857Y-18679761D01*
X17463095Y-18684523D01*
X17458333Y-18694047D01*
X17458333Y-18717857D01*
X17463095Y-18727380D01*
X17467857Y-18732142D01*
X17477380Y-18736904D01*
X17501190Y-18736904D01*
X17510714Y-18732142D01*
X17515476Y-18727380D01*
X17520238Y-18717857D01*
X17520238Y-18694047D01*
X17515476Y-18684523D01*
X17510714Y-18679761D01*
X17520238Y-18836904D02*
X17472619Y-18803571D01*
X17520238Y-18779761D02*
X17420238Y-18779761D01*
X17420238Y-18817857D01*
X17425000Y-18827380D01*
X17429761Y-18832142D01*
X17439285Y-18836904D01*
X17453571Y-18836904D01*
X17463095Y-18832142D01*
X17467857Y-18827380D01*
X17472619Y-18817857D01*
X17472619Y-18779761D01*
X17515476Y-18884523D02*
X17520238Y-18884523D01*
X17529761Y-18879761D01*
X17534523Y-18875000D01*
X17429761Y-18998809D02*
X17425000Y-19003571D01*
X17420238Y-19013095D01*
X17420238Y-19036904D01*
X17425000Y-19046428D01*
X17429761Y-19051190D01*
X17439285Y-19055952D01*
X17448809Y-19055952D01*
X17463095Y-19051190D01*
X17520238Y-18994047D01*
X17520238Y-19055952D01*
X17420238Y-19117857D02*
X17420238Y-19127380D01*
X17425000Y-19136904D01*
X17429761Y-19141666D01*
X17439285Y-19146428D01*
X17458333Y-19151190D01*
X17482142Y-19151190D01*
X17501190Y-19146428D01*
X17510714Y-19141666D01*
X17515476Y-19136904D01*
X17520238Y-19127380D01*
X17520238Y-19117857D01*
X17515476Y-19108333D01*
X17510714Y-19103571D01*
X17501190Y-19098809D01*
X17482142Y-19094047D01*
X17458333Y-19094047D01*
X17439285Y-19098809D01*
X17429761Y-19103571D01*
X17425000Y-19108333D01*
X17420238Y-19117857D01*
X17520238Y-19189285D02*
X17420238Y-19265476D01*
X17420238Y-19203571D02*
X17425000Y-19213095D01*
X17434523Y-19217857D01*
X17444047Y-19213095D01*
X17448809Y-19203571D01*
X17444047Y-19194047D01*
X17434523Y-19189285D01*
X17425000Y-19194047D01*
X17420238Y-19203571D01*
X17515476Y-19260714D02*
X17505952Y-19265476D01*
X17496428Y-19260714D01*
X17491666Y-19251190D01*
X17496428Y-19241666D01*
X17505952Y-19236904D01*
X17515476Y-19241666D01*
X17520238Y-19251190D01*
X17515476Y-19260714D01*
D13*
X17839285Y-18133333D02*
X17851190Y-18121428D01*
X17863095Y-18085714D01*
X17863095Y-18061904D01*
X17851190Y-18026190D01*
X17827380Y-18002380D01*
X17803571Y-17990476D01*
X17755952Y-17978571D01*
X17720238Y-17978571D01*
X17672619Y-17990476D01*
X17648809Y-18002380D01*
X17625000Y-18026190D01*
X17613095Y-18061904D01*
X17613095Y-18085714D01*
X17625000Y-18121428D01*
X17636904Y-18133333D01*
X17863095Y-18371428D02*
X17863095Y-18228571D01*
X17863095Y-18300000D02*
X17613095Y-18300000D01*
X17648809Y-18276190D01*
X17672619Y-18252380D01*
X17684523Y-18228571D01*
D12*
X25086904Y-18245238D02*
X25077380Y-18245238D01*
X25067857Y-18250000D01*
X25063095Y-18254761D01*
X25058333Y-18264285D01*
X25053571Y-18283333D01*
X25053571Y-18307142D01*
X25058333Y-18326190D01*
X25063095Y-18335714D01*
X25067857Y-18340476D01*
X25077380Y-18345238D01*
X25086904Y-18345238D01*
X25096428Y-18340476D01*
X25101190Y-18335714D01*
X25105952Y-18326190D01*
X25110714Y-18307142D01*
X25110714Y-18283333D01*
X25105952Y-18264285D01*
X25101190Y-18254761D01*
X25096428Y-18250000D01*
X25086904Y-18245238D01*
X25015476Y-18254761D02*
X25010714Y-18250000D01*
X25001190Y-18245238D01*
X24977380Y-18245238D01*
X24967857Y-18250000D01*
X24963095Y-18254761D01*
X24958333Y-18264285D01*
X24958333Y-18273809D01*
X24963095Y-18288095D01*
X25020238Y-18345238D01*
X24958333Y-18345238D01*
X24896428Y-18245238D02*
X24886904Y-18245238D01*
X24877380Y-18250000D01*
X24872619Y-18254761D01*
X24867857Y-18264285D01*
X24863095Y-18283333D01*
X24863095Y-18307142D01*
X24867857Y-18326190D01*
X24872619Y-18335714D01*
X24877380Y-18340476D01*
X24886904Y-18345238D01*
X24896428Y-18345238D01*
X24905952Y-18340476D01*
X24910714Y-18335714D01*
X24915476Y-18326190D01*
X24920238Y-18307142D01*
X24920238Y-18283333D01*
X24915476Y-18264285D01*
X24910714Y-18254761D01*
X24905952Y-18250000D01*
X24896428Y-18245238D01*
X24767857Y-18345238D02*
X24825000Y-18345238D01*
X24796428Y-18345238D02*
X24796428Y-18245238D01*
X24805952Y-18259523D01*
X24815476Y-18269047D01*
X24825000Y-18273809D01*
X24720238Y-18340476D02*
X24720238Y-18345238D01*
X24725000Y-18354761D01*
X24729761Y-18359523D01*
X24548809Y-18345238D02*
X24605952Y-18345238D01*
X24577380Y-18345238D02*
X24577380Y-18245238D01*
X24586904Y-18259523D01*
X24596428Y-18269047D01*
X24605952Y-18273809D01*
X24486904Y-18245238D02*
X24477380Y-18245238D01*
X24467857Y-18250000D01*
X24463095Y-18254761D01*
X24458333Y-18264285D01*
X24453571Y-18283333D01*
X24453571Y-18307142D01*
X24458333Y-18326190D01*
X24463095Y-18335714D01*
X24467857Y-18340476D01*
X24477380Y-18345238D01*
X24486904Y-18345238D01*
X24496428Y-18340476D01*
X24501190Y-18335714D01*
X24505952Y-18326190D01*
X24510714Y-18307142D01*
X24510714Y-18283333D01*
X24505952Y-18264285D01*
X24501190Y-18254761D01*
X24496428Y-18250000D01*
X24486904Y-18245238D01*
X24391666Y-18245238D02*
X24382142Y-18245238D01*
X24372619Y-18250000D01*
X24367857Y-18254761D01*
X24363095Y-18264285D01*
X24358333Y-18283333D01*
X24358333Y-18307142D01*
X24363095Y-18326190D01*
X24367857Y-18335714D01*
X24372619Y-18340476D01*
X24382142Y-18345238D01*
X24391666Y-18345238D01*
X24401190Y-18340476D01*
X24405952Y-18335714D01*
X24410714Y-18326190D01*
X24415476Y-18307142D01*
X24415476Y-18283333D01*
X24410714Y-18264285D01*
X24405952Y-18254761D01*
X24401190Y-18250000D01*
X24391666Y-18245238D01*
X24315476Y-18278571D02*
X24315476Y-18345238D01*
X24315476Y-18288095D02*
X24310714Y-18283333D01*
X24301190Y-18278571D01*
X24286904Y-18278571D01*
X24277380Y-18283333D01*
X24272619Y-18292857D01*
X24272619Y-18345238D01*
X24191666Y-18292857D02*
X24225000Y-18292857D01*
X24225000Y-18345238D02*
X24225000Y-18245238D01*
X24177380Y-18245238D01*
X24134523Y-18340476D02*
X24134523Y-18345238D01*
X24139285Y-18354761D01*
X24144047Y-18359523D01*
X23963095Y-18345238D02*
X24020238Y-18345238D01*
X23991666Y-18345238D02*
X23991666Y-18245238D01*
X24001190Y-18259523D01*
X24010714Y-18269047D01*
X24020238Y-18273809D01*
X23901190Y-18245238D02*
X23891666Y-18245238D01*
X23882142Y-18250000D01*
X23877380Y-18254761D01*
X23872619Y-18264285D01*
X23867857Y-18283333D01*
X23867857Y-18307142D01*
X23872619Y-18326190D01*
X23877380Y-18335714D01*
X23882142Y-18340476D01*
X23891666Y-18345238D01*
X23901190Y-18345238D01*
X23910714Y-18340476D01*
X23915476Y-18335714D01*
X23920238Y-18326190D01*
X23925000Y-18307142D01*
X23925000Y-18283333D01*
X23920238Y-18264285D01*
X23915476Y-18254761D01*
X23910714Y-18250000D01*
X23901190Y-18245238D01*
X23839285Y-18245238D02*
X23805952Y-18345238D01*
X23772619Y-18245238D01*
X23734523Y-18340476D02*
X23734523Y-18345238D01*
X23739285Y-18354761D01*
X23744047Y-18359523D01*
X23625000Y-18245238D02*
X23558333Y-18345238D01*
X23558333Y-18245238D02*
X23625000Y-18345238D01*
X23472619Y-18245238D02*
X23520238Y-18245238D01*
X23525000Y-18292857D01*
X23520238Y-18288095D01*
X23510714Y-18283333D01*
X23486904Y-18283333D01*
X23477380Y-18288095D01*
X23472619Y-18292857D01*
X23467857Y-18302380D01*
X23467857Y-18326190D01*
X23472619Y-18335714D01*
X23477380Y-18340476D01*
X23486904Y-18345238D01*
X23510714Y-18345238D01*
X23520238Y-18340476D01*
X23525000Y-18335714D01*
X23367857Y-18345238D02*
X23401190Y-18297619D01*
X23425000Y-18345238D02*
X23425000Y-18245238D01*
X23386904Y-18245238D01*
X23377380Y-18250000D01*
X23372619Y-18254761D01*
X23367857Y-18264285D01*
X23367857Y-18278571D01*
X23372619Y-18288095D01*
X23377380Y-18292857D01*
X23386904Y-18297619D01*
X23425000Y-18297619D01*
X23320238Y-18340476D02*
X23320238Y-18345238D01*
X23325000Y-18354761D01*
X23329761Y-18359523D01*
X23205952Y-18254761D02*
X23201190Y-18250000D01*
X23191666Y-18245238D01*
X23167857Y-18245238D01*
X23158333Y-18250000D01*
X23153571Y-18254761D01*
X23148809Y-18264285D01*
X23148809Y-18273809D01*
X23153571Y-18288095D01*
X23210714Y-18345238D01*
X23148809Y-18345238D01*
X23086904Y-18245238D02*
X23077380Y-18245238D01*
X23067857Y-18250000D01*
X23063095Y-18254761D01*
X23058333Y-18264285D01*
X23053571Y-18283333D01*
X23053571Y-18307142D01*
X23058333Y-18326190D01*
X23063095Y-18335714D01*
X23067857Y-18340476D01*
X23077380Y-18345238D01*
X23086904Y-18345238D01*
X23096428Y-18340476D01*
X23101190Y-18335714D01*
X23105952Y-18326190D01*
X23110714Y-18307142D01*
X23110714Y-18283333D01*
X23105952Y-18264285D01*
X23101190Y-18254761D01*
X23096428Y-18250000D01*
X23086904Y-18245238D01*
X23015476Y-18345238D02*
X22939285Y-18245238D01*
X23001190Y-18245238D02*
X22991666Y-18250000D01*
X22986904Y-18259523D01*
X22991666Y-18269047D01*
X23001190Y-18273809D01*
X23010714Y-18269047D01*
X23015476Y-18259523D01*
X23010714Y-18250000D01*
X23001190Y-18245238D01*
X22944047Y-18340476D02*
X22939285Y-18330952D01*
X22944047Y-18321428D01*
X22953571Y-18316666D01*
X22963095Y-18321428D01*
X22967857Y-18330952D01*
X22963095Y-18340476D01*
X22953571Y-18345238D01*
X22944047Y-18340476D01*
D13*
X24160714Y-17889285D02*
X24172619Y-17901190D01*
X24208333Y-17913095D01*
X24232142Y-17913095D01*
X24267857Y-17901190D01*
X24291666Y-17877380D01*
X24303571Y-17853571D01*
X24315476Y-17805952D01*
X24315476Y-17770238D01*
X24303571Y-17722619D01*
X24291666Y-17698809D01*
X24267857Y-17675000D01*
X24232142Y-17663095D01*
X24208333Y-17663095D01*
X24172619Y-17675000D01*
X24160714Y-17686904D01*
X23922619Y-17913095D02*
X24065476Y-17913095D01*
X23994047Y-17913095D02*
X23994047Y-17663095D01*
X24017857Y-17698809D01*
X24041666Y-17722619D01*
X24065476Y-17734523D01*
X23684523Y-17913095D02*
X23827380Y-17913095D01*
X23755952Y-17913095D02*
X23755952Y-17663095D01*
X23779761Y-17698809D01*
X23803571Y-17722619D01*
X23827380Y-17734523D01*
D12*
X17295238Y-24383333D02*
X17295238Y-24392857D01*
X17300000Y-24402380D01*
X17304761Y-24407142D01*
X17314285Y-24411904D01*
X17333333Y-24416666D01*
X17357142Y-24416666D01*
X17376190Y-24411904D01*
X17385714Y-24407142D01*
X17390476Y-24402380D01*
X17395238Y-24392857D01*
X17395238Y-24383333D01*
X17390476Y-24373809D01*
X17385714Y-24369047D01*
X17376190Y-24364285D01*
X17357142Y-24359523D01*
X17333333Y-24359523D01*
X17314285Y-24364285D01*
X17304761Y-24369047D01*
X17300000Y-24373809D01*
X17295238Y-24383333D01*
X17304761Y-24454761D02*
X17300000Y-24459523D01*
X17295238Y-24469047D01*
X17295238Y-24492857D01*
X17300000Y-24502380D01*
X17304761Y-24507142D01*
X17314285Y-24511904D01*
X17323809Y-24511904D01*
X17338095Y-24507142D01*
X17395238Y-24450000D01*
X17395238Y-24511904D01*
X17295238Y-24573809D02*
X17295238Y-24583333D01*
X17300000Y-24592857D01*
X17304761Y-24597619D01*
X17314285Y-24602380D01*
X17333333Y-24607142D01*
X17357142Y-24607142D01*
X17376190Y-24602380D01*
X17385714Y-24597619D01*
X17390476Y-24592857D01*
X17395238Y-24583333D01*
X17395238Y-24573809D01*
X17390476Y-24564285D01*
X17385714Y-24559523D01*
X17376190Y-24554761D01*
X17357142Y-24550000D01*
X17333333Y-24550000D01*
X17314285Y-24554761D01*
X17304761Y-24559523D01*
X17300000Y-24564285D01*
X17295238Y-24573809D01*
X17395238Y-24702380D02*
X17395238Y-24645238D01*
X17395238Y-24673809D02*
X17295238Y-24673809D01*
X17309523Y-24664285D01*
X17319047Y-24654761D01*
X17323809Y-24645238D01*
X17390476Y-24750000D02*
X17395238Y-24750000D01*
X17404761Y-24745238D01*
X17409523Y-24740476D01*
X17395238Y-24921428D02*
X17395238Y-24864285D01*
X17395238Y-24892857D02*
X17295238Y-24892857D01*
X17309523Y-24883333D01*
X17319047Y-24873809D01*
X17323809Y-24864285D01*
X17328571Y-25007142D02*
X17395238Y-25007142D01*
X17328571Y-24964285D02*
X17380952Y-24964285D01*
X17390476Y-24969047D01*
X17395238Y-24978571D01*
X17395238Y-24992857D01*
X17390476Y-25002380D01*
X17385714Y-25007142D01*
X17342857Y-25088095D02*
X17342857Y-25054761D01*
X17395238Y-25054761D02*
X17295238Y-25054761D01*
X17295238Y-25102380D01*
X17390476Y-25145238D02*
X17395238Y-25145238D01*
X17404761Y-25140476D01*
X17409523Y-25135714D01*
X17395238Y-25316666D02*
X17395238Y-25259523D01*
X17395238Y-25288095D02*
X17295238Y-25288095D01*
X17309523Y-25278571D01*
X17319047Y-25269047D01*
X17323809Y-25259523D01*
X17295238Y-25378571D02*
X17295238Y-25388095D01*
X17300000Y-25397619D01*
X17304761Y-25402380D01*
X17314285Y-25407142D01*
X17333333Y-25411904D01*
X17357142Y-25411904D01*
X17376190Y-25407142D01*
X17385714Y-25402380D01*
X17390476Y-25397619D01*
X17395238Y-25388095D01*
X17395238Y-25378571D01*
X17390476Y-25369047D01*
X17385714Y-25364285D01*
X17376190Y-25359523D01*
X17357142Y-25354761D01*
X17333333Y-25354761D01*
X17314285Y-25359523D01*
X17304761Y-25364285D01*
X17300000Y-25369047D01*
X17295238Y-25378571D01*
X17295238Y-25440476D02*
X17395238Y-25473809D01*
X17295238Y-25507142D01*
X17390476Y-25545238D02*
X17395238Y-25545238D01*
X17404761Y-25540476D01*
X17409523Y-25535714D01*
X17295238Y-25654761D02*
X17395238Y-25721428D01*
X17295238Y-25721428D02*
X17395238Y-25654761D01*
X17295238Y-25807142D02*
X17295238Y-25759523D01*
X17342857Y-25754761D01*
X17338095Y-25759523D01*
X17333333Y-25769047D01*
X17333333Y-25792857D01*
X17338095Y-25802380D01*
X17342857Y-25807142D01*
X17352380Y-25811904D01*
X17376190Y-25811904D01*
X17385714Y-25807142D01*
X17390476Y-25802380D01*
X17395238Y-25792857D01*
X17395238Y-25769047D01*
X17390476Y-25759523D01*
X17385714Y-25754761D01*
X17395238Y-25911904D02*
X17347619Y-25878571D01*
X17395238Y-25854761D02*
X17295238Y-25854761D01*
X17295238Y-25892857D01*
X17300000Y-25902380D01*
X17304761Y-25907142D01*
X17314285Y-25911904D01*
X17328571Y-25911904D01*
X17338095Y-25907142D01*
X17342857Y-25902380D01*
X17347619Y-25892857D01*
X17347619Y-25854761D01*
X17390476Y-25959523D02*
X17395238Y-25959523D01*
X17404761Y-25954761D01*
X17409523Y-25950000D01*
X17304761Y-26073809D02*
X17300000Y-26078571D01*
X17295238Y-26088095D01*
X17295238Y-26111904D01*
X17300000Y-26121428D01*
X17304761Y-26126190D01*
X17314285Y-26130952D01*
X17323809Y-26130952D01*
X17338095Y-26126190D01*
X17395238Y-26069047D01*
X17395238Y-26130952D01*
X17295238Y-26192857D02*
X17295238Y-26202380D01*
X17300000Y-26211904D01*
X17304761Y-26216666D01*
X17314285Y-26221428D01*
X17333333Y-26226190D01*
X17357142Y-26226190D01*
X17376190Y-26221428D01*
X17385714Y-26216666D01*
X17390476Y-26211904D01*
X17395238Y-26202380D01*
X17395238Y-26192857D01*
X17390476Y-26183333D01*
X17385714Y-26178571D01*
X17376190Y-26173809D01*
X17357142Y-26169047D01*
X17333333Y-26169047D01*
X17314285Y-26173809D01*
X17304761Y-26178571D01*
X17300000Y-26183333D01*
X17295238Y-26192857D01*
X17395238Y-26264285D02*
X17295238Y-26340476D01*
X17295238Y-26278571D02*
X17300000Y-26288095D01*
X17309523Y-26292857D01*
X17319047Y-26288095D01*
X17323809Y-26278571D01*
X17319047Y-26269047D01*
X17309523Y-26264285D01*
X17300000Y-26269047D01*
X17295238Y-26278571D01*
X17390476Y-26335714D02*
X17380952Y-26340476D01*
X17371428Y-26335714D01*
X17366666Y-26326190D01*
X17371428Y-26316666D01*
X17380952Y-26311904D01*
X17390476Y-26316666D01*
X17395238Y-26326190D01*
X17390476Y-26335714D01*
D13*
X17714285Y-24989285D02*
X17726190Y-24977380D01*
X17738095Y-24941666D01*
X17738095Y-24917857D01*
X17726190Y-24882142D01*
X17702380Y-24858333D01*
X17678571Y-24846428D01*
X17630952Y-24834523D01*
X17595238Y-24834523D01*
X17547619Y-24846428D01*
X17523809Y-24858333D01*
X17500000Y-24882142D01*
X17488095Y-24917857D01*
X17488095Y-24941666D01*
X17500000Y-24977380D01*
X17511904Y-24989285D01*
X17738095Y-25227380D02*
X17738095Y-25084523D01*
X17738095Y-25155952D02*
X17488095Y-25155952D01*
X17523809Y-25132142D01*
X17547619Y-25108333D01*
X17559523Y-25084523D01*
X17488095Y-25441666D02*
X17488095Y-25394047D01*
X17500000Y-25370238D01*
X17511904Y-25358333D01*
X17547619Y-25334523D01*
X17595238Y-25322619D01*
X17690476Y-25322619D01*
X17714285Y-25334523D01*
X17726190Y-25346428D01*
X17738095Y-25370238D01*
X17738095Y-25417857D01*
X17726190Y-25441666D01*
X17714285Y-25453571D01*
X17690476Y-25465476D01*
X17630952Y-25465476D01*
X17607142Y-25453571D01*
X17595238Y-25441666D01*
X17583333Y-25417857D01*
X17583333Y-25370238D01*
X17595238Y-25346428D01*
X17607142Y-25334523D01*
X17630952Y-25322619D01*
D12*
X21620238Y-20258333D02*
X21620238Y-20267857D01*
X21625000Y-20277380D01*
X21629761Y-20282142D01*
X21639285Y-20286904D01*
X21658333Y-20291666D01*
X21682142Y-20291666D01*
X21701190Y-20286904D01*
X21710714Y-20282142D01*
X21715476Y-20277380D01*
X21720238Y-20267857D01*
X21720238Y-20258333D01*
X21715476Y-20248809D01*
X21710714Y-20244047D01*
X21701190Y-20239285D01*
X21682142Y-20234523D01*
X21658333Y-20234523D01*
X21639285Y-20239285D01*
X21629761Y-20244047D01*
X21625000Y-20248809D01*
X21620238Y-20258333D01*
X21629761Y-20329761D02*
X21625000Y-20334523D01*
X21620238Y-20344047D01*
X21620238Y-20367857D01*
X21625000Y-20377380D01*
X21629761Y-20382142D01*
X21639285Y-20386904D01*
X21648809Y-20386904D01*
X21663095Y-20382142D01*
X21720238Y-20325000D01*
X21720238Y-20386904D01*
X21620238Y-20448809D02*
X21620238Y-20458333D01*
X21625000Y-20467857D01*
X21629761Y-20472619D01*
X21639285Y-20477380D01*
X21658333Y-20482142D01*
X21682142Y-20482142D01*
X21701190Y-20477380D01*
X21710714Y-20472619D01*
X21715476Y-20467857D01*
X21720238Y-20458333D01*
X21720238Y-20448809D01*
X21715476Y-20439285D01*
X21710714Y-20434523D01*
X21701190Y-20429761D01*
X21682142Y-20425000D01*
X21658333Y-20425000D01*
X21639285Y-20429761D01*
X21629761Y-20434523D01*
X21625000Y-20439285D01*
X21620238Y-20448809D01*
X21720238Y-20577380D02*
X21720238Y-20520238D01*
X21720238Y-20548809D02*
X21620238Y-20548809D01*
X21634523Y-20539285D01*
X21644047Y-20529761D01*
X21648809Y-20520238D01*
X21715476Y-20625000D02*
X21720238Y-20625000D01*
X21729761Y-20620238D01*
X21734523Y-20615476D01*
X21720238Y-20796428D02*
X21720238Y-20739285D01*
X21720238Y-20767857D02*
X21620238Y-20767857D01*
X21634523Y-20758333D01*
X21644047Y-20748809D01*
X21648809Y-20739285D01*
X21653571Y-20882142D02*
X21720238Y-20882142D01*
X21653571Y-20839285D02*
X21705952Y-20839285D01*
X21715476Y-20844047D01*
X21720238Y-20853571D01*
X21720238Y-20867857D01*
X21715476Y-20877380D01*
X21710714Y-20882142D01*
X21667857Y-20963095D02*
X21667857Y-20929761D01*
X21720238Y-20929761D02*
X21620238Y-20929761D01*
X21620238Y-20977380D01*
X21715476Y-21020238D02*
X21720238Y-21020238D01*
X21729761Y-21015476D01*
X21734523Y-21010714D01*
X21720238Y-21191666D02*
X21720238Y-21134523D01*
X21720238Y-21163095D02*
X21620238Y-21163095D01*
X21634523Y-21153571D01*
X21644047Y-21144047D01*
X21648809Y-21134523D01*
X21620238Y-21253571D02*
X21620238Y-21263095D01*
X21625000Y-21272619D01*
X21629761Y-21277380D01*
X21639285Y-21282142D01*
X21658333Y-21286904D01*
X21682142Y-21286904D01*
X21701190Y-21282142D01*
X21710714Y-21277380D01*
X21715476Y-21272619D01*
X21720238Y-21263095D01*
X21720238Y-21253571D01*
X21715476Y-21244047D01*
X21710714Y-21239285D01*
X21701190Y-21234523D01*
X21682142Y-21229761D01*
X21658333Y-21229761D01*
X21639285Y-21234523D01*
X21629761Y-21239285D01*
X21625000Y-21244047D01*
X21620238Y-21253571D01*
X21620238Y-21315476D02*
X21720238Y-21348809D01*
X21620238Y-21382142D01*
X21715476Y-21420238D02*
X21720238Y-21420238D01*
X21729761Y-21415476D01*
X21734523Y-21410714D01*
X21620238Y-21529761D02*
X21720238Y-21596428D01*
X21620238Y-21596428D02*
X21720238Y-21529761D01*
X21620238Y-21682142D02*
X21620238Y-21634523D01*
X21667857Y-21629761D01*
X21663095Y-21634523D01*
X21658333Y-21644047D01*
X21658333Y-21667857D01*
X21663095Y-21677380D01*
X21667857Y-21682142D01*
X21677380Y-21686904D01*
X21701190Y-21686904D01*
X21710714Y-21682142D01*
X21715476Y-21677380D01*
X21720238Y-21667857D01*
X21720238Y-21644047D01*
X21715476Y-21634523D01*
X21710714Y-21629761D01*
X21720238Y-21786904D02*
X21672619Y-21753571D01*
X21720238Y-21729761D02*
X21620238Y-21729761D01*
X21620238Y-21767857D01*
X21625000Y-21777380D01*
X21629761Y-21782142D01*
X21639285Y-21786904D01*
X21653571Y-21786904D01*
X21663095Y-21782142D01*
X21667857Y-21777380D01*
X21672619Y-21767857D01*
X21672619Y-21729761D01*
X21715476Y-21834523D02*
X21720238Y-21834523D01*
X21729761Y-21829761D01*
X21734523Y-21825000D01*
X21629761Y-21948809D02*
X21625000Y-21953571D01*
X21620238Y-21963095D01*
X21620238Y-21986904D01*
X21625000Y-21996428D01*
X21629761Y-22001190D01*
X21639285Y-22005952D01*
X21648809Y-22005952D01*
X21663095Y-22001190D01*
X21720238Y-21944047D01*
X21720238Y-22005952D01*
X21620238Y-22067857D02*
X21620238Y-22077380D01*
X21625000Y-22086904D01*
X21629761Y-22091666D01*
X21639285Y-22096428D01*
X21658333Y-22101190D01*
X21682142Y-22101190D01*
X21701190Y-22096428D01*
X21710714Y-22091666D01*
X21715476Y-22086904D01*
X21720238Y-22077380D01*
X21720238Y-22067857D01*
X21715476Y-22058333D01*
X21710714Y-22053571D01*
X21701190Y-22048809D01*
X21682142Y-22044047D01*
X21658333Y-22044047D01*
X21639285Y-22048809D01*
X21629761Y-22053571D01*
X21625000Y-22058333D01*
X21620238Y-22067857D01*
X21720238Y-22139285D02*
X21620238Y-22215476D01*
X21620238Y-22153571D02*
X21625000Y-22163095D01*
X21634523Y-22167857D01*
X21644047Y-22163095D01*
X21648809Y-22153571D01*
X21644047Y-22144047D01*
X21634523Y-22139285D01*
X21625000Y-22144047D01*
X21620238Y-22153571D01*
X21715476Y-22210714D02*
X21705952Y-22215476D01*
X21696428Y-22210714D01*
X21691666Y-22201190D01*
X21696428Y-22191666D01*
X21705952Y-22186904D01*
X21715476Y-22191666D01*
X21720238Y-22201190D01*
X21715476Y-22210714D01*
D13*
X22214285Y-21064285D02*
X22226190Y-21052380D01*
X22238095Y-21016666D01*
X22238095Y-20992857D01*
X22226190Y-20957142D01*
X22202380Y-20933333D01*
X22178571Y-20921428D01*
X22130952Y-20909523D01*
X22095238Y-20909523D01*
X22047619Y-20921428D01*
X22023809Y-20933333D01*
X22000000Y-20957142D01*
X21988095Y-20992857D01*
X21988095Y-21016666D01*
X22000000Y-21052380D01*
X22011904Y-21064285D01*
X22238095Y-21302380D02*
X22238095Y-21159523D01*
X22238095Y-21230952D02*
X21988095Y-21230952D01*
X22023809Y-21207142D01*
X22047619Y-21183333D01*
X22059523Y-21159523D01*
X21988095Y-21385714D02*
X21988095Y-21552380D01*
X22238095Y-21445238D01*
D12*
X20695238Y-24383333D02*
X20695238Y-24392857D01*
X20700000Y-24402380D01*
X20704761Y-24407142D01*
X20714285Y-24411904D01*
X20733333Y-24416666D01*
X20757142Y-24416666D01*
X20776190Y-24411904D01*
X20785714Y-24407142D01*
X20790476Y-24402380D01*
X20795238Y-24392857D01*
X20795238Y-24383333D01*
X20790476Y-24373809D01*
X20785714Y-24369047D01*
X20776190Y-24364285D01*
X20757142Y-24359523D01*
X20733333Y-24359523D01*
X20714285Y-24364285D01*
X20704761Y-24369047D01*
X20700000Y-24373809D01*
X20695238Y-24383333D01*
X20704761Y-24454761D02*
X20700000Y-24459523D01*
X20695238Y-24469047D01*
X20695238Y-24492857D01*
X20700000Y-24502380D01*
X20704761Y-24507142D01*
X20714285Y-24511904D01*
X20723809Y-24511904D01*
X20738095Y-24507142D01*
X20795238Y-24450000D01*
X20795238Y-24511904D01*
X20695238Y-24573809D02*
X20695238Y-24583333D01*
X20700000Y-24592857D01*
X20704761Y-24597619D01*
X20714285Y-24602380D01*
X20733333Y-24607142D01*
X20757142Y-24607142D01*
X20776190Y-24602380D01*
X20785714Y-24597619D01*
X20790476Y-24592857D01*
X20795238Y-24583333D01*
X20795238Y-24573809D01*
X20790476Y-24564285D01*
X20785714Y-24559523D01*
X20776190Y-24554761D01*
X20757142Y-24550000D01*
X20733333Y-24550000D01*
X20714285Y-24554761D01*
X20704761Y-24559523D01*
X20700000Y-24564285D01*
X20695238Y-24573809D01*
X20795238Y-24702380D02*
X20795238Y-24645238D01*
X20795238Y-24673809D02*
X20695238Y-24673809D01*
X20709523Y-24664285D01*
X20719047Y-24654761D01*
X20723809Y-24645238D01*
X20790476Y-24750000D02*
X20795238Y-24750000D01*
X20804761Y-24745238D01*
X20809523Y-24740476D01*
X20795238Y-24921428D02*
X20795238Y-24864285D01*
X20795238Y-24892857D02*
X20695238Y-24892857D01*
X20709523Y-24883333D01*
X20719047Y-24873809D01*
X20723809Y-24864285D01*
X20728571Y-25007142D02*
X20795238Y-25007142D01*
X20728571Y-24964285D02*
X20780952Y-24964285D01*
X20790476Y-24969047D01*
X20795238Y-24978571D01*
X20795238Y-24992857D01*
X20790476Y-25002380D01*
X20785714Y-25007142D01*
X20742857Y-25088095D02*
X20742857Y-25054761D01*
X20795238Y-25054761D02*
X20695238Y-25054761D01*
X20695238Y-25102380D01*
X20790476Y-25145238D02*
X20795238Y-25145238D01*
X20804761Y-25140476D01*
X20809523Y-25135714D01*
X20795238Y-25316666D02*
X20795238Y-25259523D01*
X20795238Y-25288095D02*
X20695238Y-25288095D01*
X20709523Y-25278571D01*
X20719047Y-25269047D01*
X20723809Y-25259523D01*
X20695238Y-25378571D02*
X20695238Y-25388095D01*
X20700000Y-25397619D01*
X20704761Y-25402380D01*
X20714285Y-25407142D01*
X20733333Y-25411904D01*
X20757142Y-25411904D01*
X20776190Y-25407142D01*
X20785714Y-25402380D01*
X20790476Y-25397619D01*
X20795238Y-25388095D01*
X20795238Y-25378571D01*
X20790476Y-25369047D01*
X20785714Y-25364285D01*
X20776190Y-25359523D01*
X20757142Y-25354761D01*
X20733333Y-25354761D01*
X20714285Y-25359523D01*
X20704761Y-25364285D01*
X20700000Y-25369047D01*
X20695238Y-25378571D01*
X20695238Y-25440476D02*
X20795238Y-25473809D01*
X20695238Y-25507142D01*
X20790476Y-25545238D02*
X20795238Y-25545238D01*
X20804761Y-25540476D01*
X20809523Y-25535714D01*
X20695238Y-25654761D02*
X20795238Y-25721428D01*
X20695238Y-25721428D02*
X20795238Y-25654761D01*
X20695238Y-25807142D02*
X20695238Y-25759523D01*
X20742857Y-25754761D01*
X20738095Y-25759523D01*
X20733333Y-25769047D01*
X20733333Y-25792857D01*
X20738095Y-25802380D01*
X20742857Y-25807142D01*
X20752380Y-25811904D01*
X20776190Y-25811904D01*
X20785714Y-25807142D01*
X20790476Y-25802380D01*
X20795238Y-25792857D01*
X20795238Y-25769047D01*
X20790476Y-25759523D01*
X20785714Y-25754761D01*
X20795238Y-25911904D02*
X20747619Y-25878571D01*
X20795238Y-25854761D02*
X20695238Y-25854761D01*
X20695238Y-25892857D01*
X20700000Y-25902380D01*
X20704761Y-25907142D01*
X20714285Y-25911904D01*
X20728571Y-25911904D01*
X20738095Y-25907142D01*
X20742857Y-25902380D01*
X20747619Y-25892857D01*
X20747619Y-25854761D01*
X20790476Y-25959523D02*
X20795238Y-25959523D01*
X20804761Y-25954761D01*
X20809523Y-25950000D01*
X20704761Y-26073809D02*
X20700000Y-26078571D01*
X20695238Y-26088095D01*
X20695238Y-26111904D01*
X20700000Y-26121428D01*
X20704761Y-26126190D01*
X20714285Y-26130952D01*
X20723809Y-26130952D01*
X20738095Y-26126190D01*
X20795238Y-26069047D01*
X20795238Y-26130952D01*
X20695238Y-26192857D02*
X20695238Y-26202380D01*
X20700000Y-26211904D01*
X20704761Y-26216666D01*
X20714285Y-26221428D01*
X20733333Y-26226190D01*
X20757142Y-26226190D01*
X20776190Y-26221428D01*
X20785714Y-26216666D01*
X20790476Y-26211904D01*
X20795238Y-26202380D01*
X20795238Y-26192857D01*
X20790476Y-26183333D01*
X20785714Y-26178571D01*
X20776190Y-26173809D01*
X20757142Y-26169047D01*
X20733333Y-26169047D01*
X20714285Y-26173809D01*
X20704761Y-26178571D01*
X20700000Y-26183333D01*
X20695238Y-26192857D01*
X20795238Y-26264285D02*
X20695238Y-26340476D01*
X20695238Y-26278571D02*
X20700000Y-26288095D01*
X20709523Y-26292857D01*
X20719047Y-26288095D01*
X20723809Y-26278571D01*
X20719047Y-26269047D01*
X20709523Y-26264285D01*
X20700000Y-26269047D01*
X20695238Y-26278571D01*
X20790476Y-26335714D02*
X20780952Y-26340476D01*
X20771428Y-26335714D01*
X20766666Y-26326190D01*
X20771428Y-26316666D01*
X20780952Y-26311904D01*
X20790476Y-26316666D01*
X20795238Y-26326190D01*
X20790476Y-26335714D01*
D13*
X20764285Y-25089285D02*
X20776190Y-25077380D01*
X20788095Y-25041666D01*
X20788095Y-25017857D01*
X20776190Y-24982142D01*
X20752380Y-24958333D01*
X20728571Y-24946428D01*
X20680952Y-24934523D01*
X20645238Y-24934523D01*
X20597619Y-24946428D01*
X20573809Y-24958333D01*
X20550000Y-24982142D01*
X20538095Y-25017857D01*
X20538095Y-25041666D01*
X20550000Y-25077380D01*
X20561904Y-25089285D01*
X20788095Y-25327380D02*
X20788095Y-25184523D01*
X20788095Y-25255952D02*
X20538095Y-25255952D01*
X20573809Y-25232142D01*
X20597619Y-25208333D01*
X20609523Y-25184523D01*
X20788095Y-25446428D02*
X20788095Y-25494047D01*
X20776190Y-25517857D01*
X20764285Y-25529761D01*
X20728571Y-25553571D01*
X20680952Y-25565476D01*
X20585714Y-25565476D01*
X20561904Y-25553571D01*
X20550000Y-25541666D01*
X20538095Y-25517857D01*
X20538095Y-25470238D01*
X20550000Y-25446428D01*
X20561904Y-25434523D01*
X20585714Y-25422619D01*
X20645238Y-25422619D01*
X20669047Y-25434523D01*
X20680952Y-25446428D01*
X20692857Y-25470238D01*
X20692857Y-25517857D01*
X20680952Y-25541666D01*
X20669047Y-25553571D01*
X20645238Y-25565476D01*
D12*
X23020238Y-20063095D02*
X23020238Y-20072619D01*
X23025000Y-20082142D01*
X23029761Y-20086904D01*
X23039285Y-20091666D01*
X23058333Y-20096428D01*
X23082142Y-20096428D01*
X23101190Y-20091666D01*
X23110714Y-20086904D01*
X23115476Y-20082142D01*
X23120238Y-20072619D01*
X23120238Y-20063095D01*
X23115476Y-20053571D01*
X23110714Y-20048809D01*
X23101190Y-20044047D01*
X23082142Y-20039285D01*
X23058333Y-20039285D01*
X23039285Y-20044047D01*
X23029761Y-20048809D01*
X23025000Y-20053571D01*
X23020238Y-20063095D01*
X23029761Y-20134523D02*
X23025000Y-20139285D01*
X23020238Y-20148809D01*
X23020238Y-20172619D01*
X23025000Y-20182142D01*
X23029761Y-20186904D01*
X23039285Y-20191666D01*
X23048809Y-20191666D01*
X23063095Y-20186904D01*
X23120238Y-20129761D01*
X23120238Y-20191666D01*
X23020238Y-20253571D02*
X23020238Y-20263095D01*
X23025000Y-20272619D01*
X23029761Y-20277380D01*
X23039285Y-20282142D01*
X23058333Y-20286904D01*
X23082142Y-20286904D01*
X23101190Y-20282142D01*
X23110714Y-20277380D01*
X23115476Y-20272619D01*
X23120238Y-20263095D01*
X23120238Y-20253571D01*
X23115476Y-20244047D01*
X23110714Y-20239285D01*
X23101190Y-20234523D01*
X23082142Y-20229761D01*
X23058333Y-20229761D01*
X23039285Y-20234523D01*
X23029761Y-20239285D01*
X23025000Y-20244047D01*
X23020238Y-20253571D01*
X23120238Y-20382142D02*
X23120238Y-20324999D01*
X23120238Y-20353571D02*
X23020238Y-20353571D01*
X23034523Y-20344047D01*
X23044047Y-20334523D01*
X23048809Y-20324999D01*
X23115476Y-20429761D02*
X23120238Y-20429761D01*
X23129761Y-20424999D01*
X23134523Y-20420238D01*
X23120238Y-20601190D02*
X23120238Y-20544047D01*
X23120238Y-20572619D02*
X23020238Y-20572619D01*
X23034523Y-20563095D01*
X23044047Y-20553571D01*
X23048809Y-20544047D01*
X23020238Y-20663095D02*
X23020238Y-20672619D01*
X23025000Y-20682142D01*
X23029761Y-20686904D01*
X23039285Y-20691666D01*
X23058333Y-20696428D01*
X23082142Y-20696428D01*
X23101190Y-20691666D01*
X23110714Y-20686904D01*
X23115476Y-20682142D01*
X23120238Y-20672619D01*
X23120238Y-20663095D01*
X23115476Y-20653571D01*
X23110714Y-20648809D01*
X23101190Y-20644047D01*
X23082142Y-20639285D01*
X23058333Y-20639285D01*
X23039285Y-20644047D01*
X23029761Y-20648809D01*
X23025000Y-20653571D01*
X23020238Y-20663095D01*
X23020238Y-20758333D02*
X23020238Y-20767857D01*
X23025000Y-20777380D01*
X23029761Y-20782142D01*
X23039285Y-20786904D01*
X23058333Y-20791666D01*
X23082142Y-20791666D01*
X23101190Y-20786904D01*
X23110714Y-20782142D01*
X23115476Y-20777380D01*
X23120238Y-20767857D01*
X23120238Y-20758333D01*
X23115476Y-20748809D01*
X23110714Y-20744047D01*
X23101190Y-20739285D01*
X23082142Y-20734523D01*
X23058333Y-20734523D01*
X23039285Y-20739285D01*
X23029761Y-20744047D01*
X23025000Y-20748809D01*
X23020238Y-20758333D01*
X23053571Y-20834523D02*
X23120238Y-20834523D01*
X23063095Y-20834523D02*
X23058333Y-20839285D01*
X23053571Y-20848809D01*
X23053571Y-20863095D01*
X23058333Y-20872619D01*
X23067857Y-20877380D01*
X23120238Y-20877380D01*
X23067857Y-20958333D02*
X23067857Y-20924999D01*
X23120238Y-20924999D02*
X23020238Y-20924999D01*
X23020238Y-20972619D01*
X23115476Y-21015476D02*
X23120238Y-21015476D01*
X23129761Y-21010714D01*
X23134523Y-21005952D01*
X23120238Y-21186904D02*
X23120238Y-21129761D01*
X23120238Y-21158333D02*
X23020238Y-21158333D01*
X23034523Y-21148809D01*
X23044047Y-21139285D01*
X23048809Y-21129761D01*
X23020238Y-21248809D02*
X23020238Y-21258333D01*
X23025000Y-21267857D01*
X23029761Y-21272619D01*
X23039285Y-21277380D01*
X23058333Y-21282142D01*
X23082142Y-21282142D01*
X23101190Y-21277380D01*
X23110714Y-21272619D01*
X23115476Y-21267857D01*
X23120238Y-21258333D01*
X23120238Y-21248809D01*
X23115476Y-21239285D01*
X23110714Y-21234523D01*
X23101190Y-21229761D01*
X23082142Y-21224999D01*
X23058333Y-21224999D01*
X23039285Y-21229761D01*
X23029761Y-21234523D01*
X23025000Y-21239285D01*
X23020238Y-21248809D01*
X23020238Y-21310714D02*
X23120238Y-21344047D01*
X23020238Y-21377380D01*
X23115476Y-21415476D02*
X23120238Y-21415476D01*
X23129761Y-21410714D01*
X23134523Y-21405952D01*
X23020238Y-21524999D02*
X23120238Y-21591666D01*
X23020238Y-21591666D02*
X23120238Y-21524999D01*
X23020238Y-21677380D02*
X23020238Y-21629761D01*
X23067857Y-21624999D01*
X23063095Y-21629761D01*
X23058333Y-21639285D01*
X23058333Y-21663095D01*
X23063095Y-21672619D01*
X23067857Y-21677380D01*
X23077380Y-21682142D01*
X23101190Y-21682142D01*
X23110714Y-21677380D01*
X23115476Y-21672619D01*
X23120238Y-21663095D01*
X23120238Y-21639285D01*
X23115476Y-21629761D01*
X23110714Y-21624999D01*
X23120238Y-21782142D02*
X23072619Y-21748809D01*
X23120238Y-21724999D02*
X23020238Y-21724999D01*
X23020238Y-21763095D01*
X23025000Y-21772619D01*
X23029761Y-21777380D01*
X23039285Y-21782142D01*
X23053571Y-21782142D01*
X23063095Y-21777380D01*
X23067857Y-21772619D01*
X23072619Y-21763095D01*
X23072619Y-21724999D01*
X23115476Y-21829761D02*
X23120238Y-21829761D01*
X23129761Y-21824999D01*
X23134523Y-21820238D01*
X23029761Y-21944047D02*
X23025000Y-21948809D01*
X23020238Y-21958333D01*
X23020238Y-21982142D01*
X23025000Y-21991666D01*
X23029761Y-21996428D01*
X23039285Y-22001190D01*
X23048809Y-22001190D01*
X23063095Y-21996428D01*
X23120238Y-21939285D01*
X23120238Y-22001190D01*
X23020238Y-22063095D02*
X23020238Y-22072619D01*
X23025000Y-22082142D01*
X23029761Y-22086904D01*
X23039285Y-22091666D01*
X23058333Y-22096428D01*
X23082142Y-22096428D01*
X23101190Y-22091666D01*
X23110714Y-22086904D01*
X23115476Y-22082142D01*
X23120238Y-22072619D01*
X23120238Y-22063095D01*
X23115476Y-22053571D01*
X23110714Y-22048809D01*
X23101190Y-22044047D01*
X23082142Y-22039285D01*
X23058333Y-22039285D01*
X23039285Y-22044047D01*
X23029761Y-22048809D01*
X23025000Y-22053571D01*
X23020238Y-22063095D01*
X23120238Y-22134523D02*
X23020238Y-22210714D01*
X23020238Y-22148809D02*
X23025000Y-22158333D01*
X23034523Y-22163095D01*
X23044047Y-22158333D01*
X23048809Y-22148809D01*
X23044047Y-22139285D01*
X23034523Y-22134523D01*
X23025000Y-22139285D01*
X23020238Y-22148809D01*
X23115476Y-22205952D02*
X23105952Y-22210714D01*
X23096428Y-22205952D01*
X23091666Y-22196428D01*
X23096428Y-22186904D01*
X23105952Y-22182142D01*
X23115476Y-22186904D01*
X23120238Y-22196428D01*
X23115476Y-22205952D01*
D13*
X22889285Y-21064285D02*
X22901190Y-21052380D01*
X22913095Y-21016666D01*
X22913095Y-20992857D01*
X22901190Y-20957142D01*
X22877380Y-20933333D01*
X22853571Y-20921428D01*
X22805952Y-20909523D01*
X22770238Y-20909523D01*
X22722619Y-20921428D01*
X22698809Y-20933333D01*
X22675000Y-20957142D01*
X22663095Y-20992857D01*
X22663095Y-21016666D01*
X22675000Y-21052380D01*
X22686904Y-21064285D01*
X22686904Y-21159523D02*
X22675000Y-21171428D01*
X22663095Y-21195238D01*
X22663095Y-21254761D01*
X22675000Y-21278571D01*
X22686904Y-21290476D01*
X22710714Y-21302380D01*
X22734523Y-21302380D01*
X22770238Y-21290476D01*
X22913095Y-21147619D01*
X22913095Y-21302380D01*
X22663095Y-21457142D02*
X22663095Y-21480952D01*
X22675000Y-21504761D01*
X22686904Y-21516666D01*
X22710714Y-21528571D01*
X22758333Y-21540476D01*
X22817857Y-21540476D01*
X22865476Y-21528571D01*
X22889285Y-21516666D01*
X22901190Y-21504761D01*
X22913095Y-21480952D01*
X22913095Y-21457142D01*
X22901190Y-21433333D01*
X22889285Y-21421428D01*
X22865476Y-21409523D01*
X22817857Y-21397619D01*
X22758333Y-21397619D01*
X22710714Y-21409523D01*
X22686904Y-21421428D01*
X22675000Y-21433333D01*
X22663095Y-21457142D01*
D12*
X27086904Y-20595238D02*
X27077380Y-20595238D01*
X27067857Y-20600000D01*
X27063095Y-20604761D01*
X27058333Y-20614285D01*
X27053571Y-20633333D01*
X27053571Y-20657142D01*
X27058333Y-20676190D01*
X27063095Y-20685714D01*
X27067857Y-20690476D01*
X27077380Y-20695238D01*
X27086904Y-20695238D01*
X27096428Y-20690476D01*
X27101190Y-20685714D01*
X27105952Y-20676190D01*
X27110714Y-20657142D01*
X27110714Y-20633333D01*
X27105952Y-20614285D01*
X27101190Y-20604761D01*
X27096428Y-20600000D01*
X27086904Y-20595238D01*
X27015476Y-20604761D02*
X27010714Y-20600000D01*
X27001190Y-20595238D01*
X26977380Y-20595238D01*
X26967857Y-20600000D01*
X26963095Y-20604761D01*
X26958333Y-20614285D01*
X26958333Y-20623809D01*
X26963095Y-20638095D01*
X27020238Y-20695238D01*
X26958333Y-20695238D01*
X26896428Y-20595238D02*
X26886904Y-20595238D01*
X26877380Y-20600000D01*
X26872619Y-20604761D01*
X26867857Y-20614285D01*
X26863095Y-20633333D01*
X26863095Y-20657142D01*
X26867857Y-20676190D01*
X26872619Y-20685714D01*
X26877380Y-20690476D01*
X26886904Y-20695238D01*
X26896428Y-20695238D01*
X26905952Y-20690476D01*
X26910714Y-20685714D01*
X26915476Y-20676190D01*
X26920238Y-20657142D01*
X26920238Y-20633333D01*
X26915476Y-20614285D01*
X26910714Y-20604761D01*
X26905952Y-20600000D01*
X26896428Y-20595238D01*
X26767857Y-20695238D02*
X26825000Y-20695238D01*
X26796428Y-20695238D02*
X26796428Y-20595238D01*
X26805952Y-20609523D01*
X26815476Y-20619047D01*
X26825000Y-20623809D01*
X26720238Y-20690476D02*
X26720238Y-20695238D01*
X26725000Y-20704761D01*
X26729761Y-20709523D01*
X26548809Y-20695238D02*
X26605952Y-20695238D01*
X26577380Y-20695238D02*
X26577380Y-20595238D01*
X26586904Y-20609523D01*
X26596428Y-20619047D01*
X26605952Y-20623809D01*
X26486904Y-20595238D02*
X26477380Y-20595238D01*
X26467857Y-20600000D01*
X26463095Y-20604761D01*
X26458333Y-20614285D01*
X26453571Y-20633333D01*
X26453571Y-20657142D01*
X26458333Y-20676190D01*
X26463095Y-20685714D01*
X26467857Y-20690476D01*
X26477380Y-20695238D01*
X26486904Y-20695238D01*
X26496428Y-20690476D01*
X26501190Y-20685714D01*
X26505952Y-20676190D01*
X26510714Y-20657142D01*
X26510714Y-20633333D01*
X26505952Y-20614285D01*
X26501190Y-20604761D01*
X26496428Y-20600000D01*
X26486904Y-20595238D01*
X26391666Y-20595238D02*
X26382142Y-20595238D01*
X26372619Y-20600000D01*
X26367857Y-20604761D01*
X26363095Y-20614285D01*
X26358333Y-20633333D01*
X26358333Y-20657142D01*
X26363095Y-20676190D01*
X26367857Y-20685714D01*
X26372619Y-20690476D01*
X26382142Y-20695238D01*
X26391666Y-20695238D01*
X26401190Y-20690476D01*
X26405952Y-20685714D01*
X26410714Y-20676190D01*
X26415476Y-20657142D01*
X26415476Y-20633333D01*
X26410714Y-20614285D01*
X26405952Y-20604761D01*
X26401190Y-20600000D01*
X26391666Y-20595238D01*
X26315476Y-20628571D02*
X26315476Y-20695238D01*
X26315476Y-20638095D02*
X26310714Y-20633333D01*
X26301190Y-20628571D01*
X26286904Y-20628571D01*
X26277380Y-20633333D01*
X26272619Y-20642857D01*
X26272619Y-20695238D01*
X26191666Y-20642857D02*
X26225000Y-20642857D01*
X26225000Y-20695238D02*
X26225000Y-20595238D01*
X26177380Y-20595238D01*
X26134523Y-20690476D02*
X26134523Y-20695238D01*
X26139285Y-20704761D01*
X26144047Y-20709523D01*
X25963095Y-20695238D02*
X26020238Y-20695238D01*
X25991666Y-20695238D02*
X25991666Y-20595238D01*
X26001190Y-20609523D01*
X26010714Y-20619047D01*
X26020238Y-20623809D01*
X25901190Y-20595238D02*
X25891666Y-20595238D01*
X25882142Y-20600000D01*
X25877380Y-20604761D01*
X25872619Y-20614285D01*
X25867857Y-20633333D01*
X25867857Y-20657142D01*
X25872619Y-20676190D01*
X25877380Y-20685714D01*
X25882142Y-20690476D01*
X25891666Y-20695238D01*
X25901190Y-20695238D01*
X25910714Y-20690476D01*
X25915476Y-20685714D01*
X25920238Y-20676190D01*
X25925000Y-20657142D01*
X25925000Y-20633333D01*
X25920238Y-20614285D01*
X25915476Y-20604761D01*
X25910714Y-20600000D01*
X25901190Y-20595238D01*
X25839285Y-20595238D02*
X25805952Y-20695238D01*
X25772619Y-20595238D01*
X25734523Y-20690476D02*
X25734523Y-20695238D01*
X25739285Y-20704761D01*
X25744047Y-20709523D01*
X25625000Y-20595238D02*
X25558333Y-20695238D01*
X25558333Y-20595238D02*
X25625000Y-20695238D01*
X25472619Y-20595238D02*
X25520238Y-20595238D01*
X25525000Y-20642857D01*
X25520238Y-20638095D01*
X25510714Y-20633333D01*
X25486904Y-20633333D01*
X25477380Y-20638095D01*
X25472619Y-20642857D01*
X25467857Y-20652380D01*
X25467857Y-20676190D01*
X25472619Y-20685714D01*
X25477380Y-20690476D01*
X25486904Y-20695238D01*
X25510714Y-20695238D01*
X25520238Y-20690476D01*
X25525000Y-20685714D01*
X25367857Y-20695238D02*
X25401190Y-20647619D01*
X25425000Y-20695238D02*
X25425000Y-20595238D01*
X25386904Y-20595238D01*
X25377380Y-20600000D01*
X25372619Y-20604761D01*
X25367857Y-20614285D01*
X25367857Y-20628571D01*
X25372619Y-20638095D01*
X25377380Y-20642857D01*
X25386904Y-20647619D01*
X25425000Y-20647619D01*
X25320238Y-20690476D02*
X25320238Y-20695238D01*
X25325000Y-20704761D01*
X25329761Y-20709523D01*
X25205952Y-20604761D02*
X25201190Y-20600000D01*
X25191666Y-20595238D01*
X25167857Y-20595238D01*
X25158333Y-20600000D01*
X25153571Y-20604761D01*
X25148809Y-20614285D01*
X25148809Y-20623809D01*
X25153571Y-20638095D01*
X25210714Y-20695238D01*
X25148809Y-20695238D01*
X25086904Y-20595238D02*
X25077380Y-20595238D01*
X25067857Y-20600000D01*
X25063095Y-20604761D01*
X25058333Y-20614285D01*
X25053571Y-20633333D01*
X25053571Y-20657142D01*
X25058333Y-20676190D01*
X25063095Y-20685714D01*
X25067857Y-20690476D01*
X25077380Y-20695238D01*
X25086904Y-20695238D01*
X25096428Y-20690476D01*
X25101190Y-20685714D01*
X25105952Y-20676190D01*
X25110714Y-20657142D01*
X25110714Y-20633333D01*
X25105952Y-20614285D01*
X25101190Y-20604761D01*
X25096428Y-20600000D01*
X25086904Y-20595238D01*
X25015476Y-20695238D02*
X24939285Y-20595238D01*
X25001190Y-20595238D02*
X24991666Y-20600000D01*
X24986904Y-20609523D01*
X24991666Y-20619047D01*
X25001190Y-20623809D01*
X25010714Y-20619047D01*
X25015476Y-20609523D01*
X25010714Y-20600000D01*
X25001190Y-20595238D01*
X24944047Y-20690476D02*
X24939285Y-20680952D01*
X24944047Y-20671428D01*
X24953571Y-20666666D01*
X24963095Y-20671428D01*
X24967857Y-20680952D01*
X24963095Y-20690476D01*
X24953571Y-20695238D01*
X24944047Y-20690476D01*
D13*
X26460714Y-20439285D02*
X26472619Y-20451190D01*
X26508333Y-20463095D01*
X26532142Y-20463095D01*
X26567857Y-20451190D01*
X26591666Y-20427380D01*
X26603571Y-20403571D01*
X26615476Y-20355952D01*
X26615476Y-20320238D01*
X26603571Y-20272619D01*
X26591666Y-20248809D01*
X26567857Y-20225000D01*
X26532142Y-20213095D01*
X26508333Y-20213095D01*
X26472619Y-20225000D01*
X26460714Y-20236904D01*
X26365476Y-20236904D02*
X26353571Y-20225000D01*
X26329761Y-20213095D01*
X26270238Y-20213095D01*
X26246428Y-20225000D01*
X26234523Y-20236904D01*
X26222619Y-20260714D01*
X26222619Y-20284523D01*
X26234523Y-20320238D01*
X26377380Y-20463095D01*
X26222619Y-20463095D01*
X25984523Y-20463095D02*
X26127380Y-20463095D01*
X26055952Y-20463095D02*
X26055952Y-20213095D01*
X26079761Y-20248809D01*
X26103571Y-20272619D01*
X26127380Y-20284523D01*
D12*
X26466666Y-25120238D02*
X26457142Y-25120238D01*
X26447619Y-25125000D01*
X26442857Y-25129761D01*
X26438095Y-25139285D01*
X26433333Y-25158333D01*
X26433333Y-25182142D01*
X26438095Y-25201190D01*
X26442857Y-25210714D01*
X26447619Y-25215476D01*
X26457142Y-25220238D01*
X26466666Y-25220238D01*
X26476190Y-25215476D01*
X26480952Y-25210714D01*
X26485714Y-25201190D01*
X26490476Y-25182142D01*
X26490476Y-25158333D01*
X26485714Y-25139285D01*
X26480952Y-25129761D01*
X26476190Y-25125000D01*
X26466666Y-25120238D01*
X26395238Y-25129761D02*
X26390476Y-25125000D01*
X26380952Y-25120238D01*
X26357142Y-25120238D01*
X26347619Y-25125000D01*
X26342857Y-25129761D01*
X26338095Y-25139285D01*
X26338095Y-25148809D01*
X26342857Y-25163095D01*
X26400000Y-25220238D01*
X26338095Y-25220238D01*
X26276190Y-25120238D02*
X26266666Y-25120238D01*
X26257142Y-25125000D01*
X26252380Y-25129761D01*
X26247619Y-25139285D01*
X26242857Y-25158333D01*
X26242857Y-25182142D01*
X26247619Y-25201190D01*
X26252380Y-25210714D01*
X26257142Y-25215476D01*
X26266666Y-25220238D01*
X26276190Y-25220238D01*
X26285714Y-25215476D01*
X26290476Y-25210714D01*
X26295238Y-25201190D01*
X26300000Y-25182142D01*
X26300000Y-25158333D01*
X26295238Y-25139285D01*
X26290476Y-25129761D01*
X26285714Y-25125000D01*
X26276190Y-25120238D01*
X26147619Y-25220238D02*
X26204761Y-25220238D01*
X26176190Y-25220238D02*
X26176190Y-25120238D01*
X26185714Y-25134523D01*
X26195238Y-25144047D01*
X26204761Y-25148809D01*
X26100000Y-25215476D02*
X26100000Y-25220238D01*
X26104761Y-25229761D01*
X26109523Y-25234523D01*
X25928571Y-25220238D02*
X25985714Y-25220238D01*
X25957142Y-25220238D02*
X25957142Y-25120238D01*
X25966666Y-25134523D01*
X25976190Y-25144047D01*
X25985714Y-25148809D01*
X25842857Y-25153571D02*
X25842857Y-25220238D01*
X25885714Y-25153571D02*
X25885714Y-25205952D01*
X25880952Y-25215476D01*
X25871428Y-25220238D01*
X25857142Y-25220238D01*
X25847619Y-25215476D01*
X25842857Y-25210714D01*
X25761904Y-25167857D02*
X25795238Y-25167857D01*
X25795238Y-25220238D02*
X25795238Y-25120238D01*
X25747619Y-25120238D01*
X25704761Y-25215476D02*
X25704761Y-25220238D01*
X25709523Y-25229761D01*
X25714285Y-25234523D01*
X25533333Y-25220238D02*
X25590476Y-25220238D01*
X25561904Y-25220238D02*
X25561904Y-25120238D01*
X25571428Y-25134523D01*
X25580952Y-25144047D01*
X25590476Y-25148809D01*
X25471428Y-25120238D02*
X25461904Y-25120238D01*
X25452380Y-25125000D01*
X25447619Y-25129761D01*
X25442857Y-25139285D01*
X25438095Y-25158333D01*
X25438095Y-25182142D01*
X25442857Y-25201190D01*
X25447619Y-25210714D01*
X25452380Y-25215476D01*
X25461904Y-25220238D01*
X25471428Y-25220238D01*
X25480952Y-25215476D01*
X25485714Y-25210714D01*
X25490476Y-25201190D01*
X25495238Y-25182142D01*
X25495238Y-25158333D01*
X25490476Y-25139285D01*
X25485714Y-25129761D01*
X25480952Y-25125000D01*
X25471428Y-25120238D01*
X25409523Y-25120238D02*
X25376190Y-25220238D01*
X25342857Y-25120238D01*
X25304761Y-25215476D02*
X25304761Y-25220238D01*
X25309523Y-25229761D01*
X25314285Y-25234523D01*
X25195238Y-25120238D02*
X25128571Y-25220238D01*
X25128571Y-25120238D02*
X25195238Y-25220238D01*
X25042857Y-25120238D02*
X25090476Y-25120238D01*
X25095238Y-25167857D01*
X25090476Y-25163095D01*
X25080952Y-25158333D01*
X25057142Y-25158333D01*
X25047619Y-25163095D01*
X25042857Y-25167857D01*
X25038095Y-25177380D01*
X25038095Y-25201190D01*
X25042857Y-25210714D01*
X25047619Y-25215476D01*
X25057142Y-25220238D01*
X25080952Y-25220238D01*
X25090476Y-25215476D01*
X25095238Y-25210714D01*
X24938095Y-25220238D02*
X24971428Y-25172619D01*
X24995238Y-25220238D02*
X24995238Y-25120238D01*
X24957142Y-25120238D01*
X24947619Y-25125000D01*
X24942857Y-25129761D01*
X24938095Y-25139285D01*
X24938095Y-25153571D01*
X24942857Y-25163095D01*
X24947619Y-25167857D01*
X24957142Y-25172619D01*
X24995238Y-25172619D01*
X24890476Y-25215476D02*
X24890476Y-25220238D01*
X24895238Y-25229761D01*
X24900000Y-25234523D01*
X24776190Y-25129761D02*
X24771428Y-25125000D01*
X24761904Y-25120238D01*
X24738095Y-25120238D01*
X24728571Y-25125000D01*
X24723809Y-25129761D01*
X24719047Y-25139285D01*
X24719047Y-25148809D01*
X24723809Y-25163095D01*
X24780952Y-25220238D01*
X24719047Y-25220238D01*
X24657142Y-25120238D02*
X24647619Y-25120238D01*
X24638095Y-25125000D01*
X24633333Y-25129761D01*
X24628571Y-25139285D01*
X24623809Y-25158333D01*
X24623809Y-25182142D01*
X24628571Y-25201190D01*
X24633333Y-25210714D01*
X24638095Y-25215476D01*
X24647619Y-25220238D01*
X24657142Y-25220238D01*
X24666666Y-25215476D01*
X24671428Y-25210714D01*
X24676190Y-25201190D01*
X24680952Y-25182142D01*
X24680952Y-25158333D01*
X24676190Y-25139285D01*
X24671428Y-25129761D01*
X24666666Y-25125000D01*
X24657142Y-25120238D01*
X24585714Y-25220238D02*
X24509523Y-25120238D01*
X24571428Y-25120238D02*
X24561904Y-25125000D01*
X24557142Y-25134523D01*
X24561904Y-25144047D01*
X24571428Y-25148809D01*
X24580952Y-25144047D01*
X24585714Y-25134523D01*
X24580952Y-25125000D01*
X24571428Y-25120238D01*
X24514285Y-25215476D02*
X24509523Y-25205952D01*
X24514285Y-25196428D01*
X24523809Y-25191666D01*
X24533333Y-25196428D01*
X24538095Y-25205952D01*
X24533333Y-25215476D01*
X24523809Y-25220238D01*
X24514285Y-25215476D01*
D13*
X25660714Y-25014285D02*
X25672619Y-25026190D01*
X25708333Y-25038095D01*
X25732142Y-25038095D01*
X25767857Y-25026190D01*
X25791666Y-25002380D01*
X25803571Y-24978571D01*
X25815476Y-24930952D01*
X25815476Y-24895238D01*
X25803571Y-24847619D01*
X25791666Y-24823809D01*
X25767857Y-24800000D01*
X25732142Y-24788095D01*
X25708333Y-24788095D01*
X25672619Y-24800000D01*
X25660714Y-24811904D01*
X25565476Y-24811904D02*
X25553571Y-24800000D01*
X25529761Y-24788095D01*
X25470238Y-24788095D01*
X25446428Y-24800000D01*
X25434523Y-24811904D01*
X25422619Y-24835714D01*
X25422619Y-24859523D01*
X25434523Y-24895238D01*
X25577380Y-25038095D01*
X25422619Y-25038095D01*
X25208333Y-24871428D02*
X25208333Y-25038095D01*
X25267857Y-24776190D02*
X25327380Y-24954761D01*
X25172619Y-24954761D01*
D12*
X27141666Y-19870238D02*
X27132142Y-19870238D01*
X27122619Y-19875000D01*
X27117857Y-19879761D01*
X27113095Y-19889285D01*
X27108333Y-19908333D01*
X27108333Y-19932142D01*
X27113095Y-19951190D01*
X27117857Y-19960714D01*
X27122619Y-19965476D01*
X27132142Y-19970238D01*
X27141666Y-19970238D01*
X27151190Y-19965476D01*
X27155952Y-19960714D01*
X27160714Y-19951190D01*
X27165476Y-19932142D01*
X27165476Y-19908333D01*
X27160714Y-19889285D01*
X27155952Y-19879761D01*
X27151190Y-19875000D01*
X27141666Y-19870238D01*
X27070238Y-19879761D02*
X27065476Y-19875000D01*
X27055952Y-19870238D01*
X27032142Y-19870238D01*
X27022619Y-19875000D01*
X27017857Y-19879761D01*
X27013095Y-19889285D01*
X27013095Y-19898809D01*
X27017857Y-19913095D01*
X27075000Y-19970238D01*
X27013095Y-19970238D01*
X26951190Y-19870238D02*
X26941666Y-19870238D01*
X26932142Y-19875000D01*
X26927380Y-19879761D01*
X26922619Y-19889285D01*
X26917857Y-19908333D01*
X26917857Y-19932142D01*
X26922619Y-19951190D01*
X26927380Y-19960714D01*
X26932142Y-19965476D01*
X26941666Y-19970238D01*
X26951190Y-19970238D01*
X26960714Y-19965476D01*
X26965476Y-19960714D01*
X26970238Y-19951190D01*
X26975000Y-19932142D01*
X26975000Y-19908333D01*
X26970238Y-19889285D01*
X26965476Y-19879761D01*
X26960714Y-19875000D01*
X26951190Y-19870238D01*
X26822619Y-19970238D02*
X26879761Y-19970238D01*
X26851190Y-19970238D02*
X26851190Y-19870238D01*
X26860714Y-19884523D01*
X26870238Y-19894047D01*
X26879761Y-19898809D01*
X26775000Y-19965476D02*
X26775000Y-19970238D01*
X26779761Y-19979761D01*
X26784523Y-19984523D01*
X26603571Y-19970238D02*
X26660714Y-19970238D01*
X26632142Y-19970238D02*
X26632142Y-19870238D01*
X26641666Y-19884523D01*
X26651190Y-19894047D01*
X26660714Y-19898809D01*
X26517857Y-19903571D02*
X26517857Y-19970238D01*
X26560714Y-19903571D02*
X26560714Y-19955952D01*
X26555952Y-19965476D01*
X26546428Y-19970238D01*
X26532142Y-19970238D01*
X26522619Y-19965476D01*
X26517857Y-19960714D01*
X26436904Y-19917857D02*
X26470238Y-19917857D01*
X26470238Y-19970238D02*
X26470238Y-19870238D01*
X26422619Y-19870238D01*
X26379761Y-19965476D02*
X26379761Y-19970238D01*
X26384523Y-19979761D01*
X26389285Y-19984523D01*
X26208333Y-19970238D02*
X26265476Y-19970238D01*
X26236904Y-19970238D02*
X26236904Y-19870238D01*
X26246428Y-19884523D01*
X26255952Y-19894047D01*
X26265476Y-19898809D01*
X26146428Y-19870238D02*
X26136904Y-19870238D01*
X26127380Y-19875000D01*
X26122619Y-19879761D01*
X26117857Y-19889285D01*
X26113095Y-19908333D01*
X26113095Y-19932142D01*
X26117857Y-19951190D01*
X26122619Y-19960714D01*
X26127380Y-19965476D01*
X26136904Y-19970238D01*
X26146428Y-19970238D01*
X26155952Y-19965476D01*
X26160714Y-19960714D01*
X26165476Y-19951190D01*
X26170238Y-19932142D01*
X26170238Y-19908333D01*
X26165476Y-19889285D01*
X26160714Y-19879761D01*
X26155952Y-19875000D01*
X26146428Y-19870238D01*
X26084523Y-19870238D02*
X26051190Y-19970238D01*
X26017857Y-19870238D01*
X25979761Y-19965476D02*
X25979761Y-19970238D01*
X25984523Y-19979761D01*
X25989285Y-19984523D01*
X25870238Y-19870238D02*
X25803571Y-19970238D01*
X25803571Y-19870238D02*
X25870238Y-19970238D01*
X25717857Y-19870238D02*
X25765476Y-19870238D01*
X25770238Y-19917857D01*
X25765476Y-19913095D01*
X25755952Y-19908333D01*
X25732142Y-19908333D01*
X25722619Y-19913095D01*
X25717857Y-19917857D01*
X25713095Y-19927380D01*
X25713095Y-19951190D01*
X25717857Y-19960714D01*
X25722619Y-19965476D01*
X25732142Y-19970238D01*
X25755952Y-19970238D01*
X25765476Y-19965476D01*
X25770238Y-19960714D01*
X25613095Y-19970238D02*
X25646428Y-19922619D01*
X25670238Y-19970238D02*
X25670238Y-19870238D01*
X25632142Y-19870238D01*
X25622619Y-19875000D01*
X25617857Y-19879761D01*
X25613095Y-19889285D01*
X25613095Y-19903571D01*
X25617857Y-19913095D01*
X25622619Y-19917857D01*
X25632142Y-19922619D01*
X25670238Y-19922619D01*
X25565476Y-19965476D02*
X25565476Y-19970238D01*
X25570238Y-19979761D01*
X25575000Y-19984523D01*
X25451190Y-19879761D02*
X25446428Y-19875000D01*
X25436904Y-19870238D01*
X25413095Y-19870238D01*
X25403571Y-19875000D01*
X25398809Y-19879761D01*
X25394047Y-19889285D01*
X25394047Y-19898809D01*
X25398809Y-19913095D01*
X25455952Y-19970238D01*
X25394047Y-19970238D01*
X25332142Y-19870238D02*
X25322619Y-19870238D01*
X25313095Y-19875000D01*
X25308333Y-19879761D01*
X25303571Y-19889285D01*
X25298809Y-19908333D01*
X25298809Y-19932142D01*
X25303571Y-19951190D01*
X25308333Y-19960714D01*
X25313095Y-19965476D01*
X25322619Y-19970238D01*
X25332142Y-19970238D01*
X25341666Y-19965476D01*
X25346428Y-19960714D01*
X25351190Y-19951190D01*
X25355952Y-19932142D01*
X25355952Y-19908333D01*
X25351190Y-19889285D01*
X25346428Y-19879761D01*
X25341666Y-19875000D01*
X25332142Y-19870238D01*
X25260714Y-19970238D02*
X25184523Y-19870238D01*
X25246428Y-19870238D02*
X25236904Y-19875000D01*
X25232142Y-19884523D01*
X25236904Y-19894047D01*
X25246428Y-19898809D01*
X25255952Y-19894047D01*
X25260714Y-19884523D01*
X25255952Y-19875000D01*
X25246428Y-19870238D01*
X25189285Y-19965476D02*
X25184523Y-19955952D01*
X25189285Y-19946428D01*
X25198809Y-19941666D01*
X25208333Y-19946428D01*
X25213095Y-19955952D01*
X25208333Y-19965476D01*
X25198809Y-19970238D01*
X25189285Y-19965476D01*
D13*
X26435714Y-19739285D02*
X26447619Y-19751190D01*
X26483333Y-19763095D01*
X26507142Y-19763095D01*
X26542857Y-19751190D01*
X26566666Y-19727380D01*
X26578571Y-19703571D01*
X26590476Y-19655952D01*
X26590476Y-19620238D01*
X26578571Y-19572619D01*
X26566666Y-19548809D01*
X26542857Y-19525000D01*
X26507142Y-19513095D01*
X26483333Y-19513095D01*
X26447619Y-19525000D01*
X26435714Y-19536904D01*
X26340476Y-19536904D02*
X26328571Y-19525000D01*
X26304761Y-19513095D01*
X26245238Y-19513095D01*
X26221428Y-19525000D01*
X26209523Y-19536904D01*
X26197619Y-19560714D01*
X26197619Y-19584523D01*
X26209523Y-19620238D01*
X26352380Y-19763095D01*
X26197619Y-19763095D01*
X25971428Y-19513095D02*
X26090476Y-19513095D01*
X26102380Y-19632142D01*
X26090476Y-19620238D01*
X26066666Y-19608333D01*
X26007142Y-19608333D01*
X25983333Y-19620238D01*
X25971428Y-19632142D01*
X25959523Y-19655952D01*
X25959523Y-19715476D01*
X25971428Y-19739285D01*
X25983333Y-19751190D01*
X26007142Y-19763095D01*
X26066666Y-19763095D01*
X26090476Y-19751190D01*
X26102380Y-19739285D01*
D12*
X17120238Y-22783333D02*
X17120238Y-22792857D01*
X17125000Y-22802380D01*
X17129761Y-22807142D01*
X17139285Y-22811904D01*
X17158333Y-22816666D01*
X17182142Y-22816666D01*
X17201190Y-22811904D01*
X17210714Y-22807142D01*
X17215476Y-22802380D01*
X17220238Y-22792857D01*
X17220238Y-22783333D01*
X17215476Y-22773809D01*
X17210714Y-22769047D01*
X17201190Y-22764285D01*
X17182142Y-22759523D01*
X17158333Y-22759523D01*
X17139285Y-22764285D01*
X17129761Y-22769047D01*
X17125000Y-22773809D01*
X17120238Y-22783333D01*
X17129761Y-22854761D02*
X17125000Y-22859523D01*
X17120238Y-22869047D01*
X17120238Y-22892857D01*
X17125000Y-22902380D01*
X17129761Y-22907142D01*
X17139285Y-22911904D01*
X17148809Y-22911904D01*
X17163095Y-22907142D01*
X17220238Y-22850000D01*
X17220238Y-22911904D01*
X17120238Y-22973809D02*
X17120238Y-22983333D01*
X17125000Y-22992857D01*
X17129761Y-22997619D01*
X17139285Y-23002380D01*
X17158333Y-23007142D01*
X17182142Y-23007142D01*
X17201190Y-23002380D01*
X17210714Y-22997619D01*
X17215476Y-22992857D01*
X17220238Y-22983333D01*
X17220238Y-22973809D01*
X17215476Y-22964285D01*
X17210714Y-22959523D01*
X17201190Y-22954761D01*
X17182142Y-22950000D01*
X17158333Y-22950000D01*
X17139285Y-22954761D01*
X17129761Y-22959523D01*
X17125000Y-22964285D01*
X17120238Y-22973809D01*
X17220238Y-23102380D02*
X17220238Y-23045238D01*
X17220238Y-23073809D02*
X17120238Y-23073809D01*
X17134523Y-23064285D01*
X17144047Y-23054761D01*
X17148809Y-23045238D01*
X17215476Y-23150000D02*
X17220238Y-23150000D01*
X17229761Y-23145238D01*
X17234523Y-23140476D01*
X17220238Y-23321428D02*
X17220238Y-23264285D01*
X17220238Y-23292857D02*
X17120238Y-23292857D01*
X17134523Y-23283333D01*
X17144047Y-23273809D01*
X17148809Y-23264285D01*
X17153571Y-23407142D02*
X17220238Y-23407142D01*
X17153571Y-23364285D02*
X17205952Y-23364285D01*
X17215476Y-23369047D01*
X17220238Y-23378571D01*
X17220238Y-23392857D01*
X17215476Y-23402380D01*
X17210714Y-23407142D01*
X17167857Y-23488095D02*
X17167857Y-23454761D01*
X17220238Y-23454761D02*
X17120238Y-23454761D01*
X17120238Y-23502380D01*
X17215476Y-23545238D02*
X17220238Y-23545238D01*
X17229761Y-23540476D01*
X17234523Y-23535714D01*
X17220238Y-23716666D02*
X17220238Y-23659523D01*
X17220238Y-23688095D02*
X17120238Y-23688095D01*
X17134523Y-23678571D01*
X17144047Y-23669047D01*
X17148809Y-23659523D01*
X17120238Y-23778571D02*
X17120238Y-23788095D01*
X17125000Y-23797619D01*
X17129761Y-23802380D01*
X17139285Y-23807142D01*
X17158333Y-23811904D01*
X17182142Y-23811904D01*
X17201190Y-23807142D01*
X17210714Y-23802380D01*
X17215476Y-23797619D01*
X17220238Y-23788095D01*
X17220238Y-23778571D01*
X17215476Y-23769047D01*
X17210714Y-23764285D01*
X17201190Y-23759523D01*
X17182142Y-23754761D01*
X17158333Y-23754761D01*
X17139285Y-23759523D01*
X17129761Y-23764285D01*
X17125000Y-23769047D01*
X17120238Y-23778571D01*
X17120238Y-23840476D02*
X17220238Y-23873809D01*
X17120238Y-23907142D01*
X17215476Y-23945238D02*
X17220238Y-23945238D01*
X17229761Y-23940476D01*
X17234523Y-23935714D01*
X17120238Y-24054761D02*
X17220238Y-24121428D01*
X17120238Y-24121428D02*
X17220238Y-24054761D01*
X17120238Y-24207142D02*
X17120238Y-24159523D01*
X17167857Y-24154761D01*
X17163095Y-24159523D01*
X17158333Y-24169047D01*
X17158333Y-24192857D01*
X17163095Y-24202380D01*
X17167857Y-24207142D01*
X17177380Y-24211904D01*
X17201190Y-24211904D01*
X17210714Y-24207142D01*
X17215476Y-24202380D01*
X17220238Y-24192857D01*
X17220238Y-24169047D01*
X17215476Y-24159523D01*
X17210714Y-24154761D01*
X17220238Y-24311904D02*
X17172619Y-24278571D01*
X17220238Y-24254761D02*
X17120238Y-24254761D01*
X17120238Y-24292857D01*
X17125000Y-24302380D01*
X17129761Y-24307142D01*
X17139285Y-24311904D01*
X17153571Y-24311904D01*
X17163095Y-24307142D01*
X17167857Y-24302380D01*
X17172619Y-24292857D01*
X17172619Y-24254761D01*
X17215476Y-24359523D02*
X17220238Y-24359523D01*
X17229761Y-24354761D01*
X17234523Y-24350000D01*
X17129761Y-24473809D02*
X17125000Y-24478571D01*
X17120238Y-24488095D01*
X17120238Y-24511904D01*
X17125000Y-24521428D01*
X17129761Y-24526190D01*
X17139285Y-24530952D01*
X17148809Y-24530952D01*
X17163095Y-24526190D01*
X17220238Y-24469047D01*
X17220238Y-24530952D01*
X17120238Y-24592857D02*
X17120238Y-24602380D01*
X17125000Y-24611904D01*
X17129761Y-24616666D01*
X17139285Y-24621428D01*
X17158333Y-24626190D01*
X17182142Y-24626190D01*
X17201190Y-24621428D01*
X17210714Y-24616666D01*
X17215476Y-24611904D01*
X17220238Y-24602380D01*
X17220238Y-24592857D01*
X17215476Y-24583333D01*
X17210714Y-24578571D01*
X17201190Y-24573809D01*
X17182142Y-24569047D01*
X17158333Y-24569047D01*
X17139285Y-24573809D01*
X17129761Y-24578571D01*
X17125000Y-24583333D01*
X17120238Y-24592857D01*
X17220238Y-24664285D02*
X17120238Y-24740476D01*
X17120238Y-24678571D02*
X17125000Y-24688095D01*
X17134523Y-24692857D01*
X17144047Y-24688095D01*
X17148809Y-24678571D01*
X17144047Y-24669047D01*
X17134523Y-24664285D01*
X17125000Y-24669047D01*
X17120238Y-24678571D01*
X17215476Y-24735714D02*
X17205952Y-24740476D01*
X17196428Y-24735714D01*
X17191666Y-24726190D01*
X17196428Y-24716666D01*
X17205952Y-24711904D01*
X17215476Y-24716666D01*
X17220238Y-24726190D01*
X17215476Y-24735714D01*
D13*
X17739285Y-23658333D02*
X17751190Y-23646428D01*
X17763095Y-23610714D01*
X17763095Y-23586904D01*
X17751190Y-23551190D01*
X17727380Y-23527380D01*
X17703571Y-23515476D01*
X17655952Y-23503571D01*
X17620238Y-23503571D01*
X17572619Y-23515476D01*
X17548809Y-23527380D01*
X17525000Y-23551190D01*
X17513095Y-23586904D01*
X17513095Y-23610714D01*
X17525000Y-23646428D01*
X17536904Y-23658333D01*
X17536904Y-23753571D02*
X17525000Y-23765476D01*
X17513095Y-23789285D01*
X17513095Y-23848809D01*
X17525000Y-23872619D01*
X17536904Y-23884523D01*
X17560714Y-23896428D01*
X17584523Y-23896428D01*
X17620238Y-23884523D01*
X17763095Y-23741666D01*
X17763095Y-23896428D01*
D12*
X17920238Y-18758333D02*
X17920238Y-18767857D01*
X17925000Y-18777380D01*
X17929761Y-18782142D01*
X17939285Y-18786904D01*
X17958333Y-18791666D01*
X17982142Y-18791666D01*
X18001190Y-18786904D01*
X18010714Y-18782142D01*
X18015476Y-18777380D01*
X18020238Y-18767857D01*
X18020238Y-18758333D01*
X18015476Y-18748809D01*
X18010714Y-18744047D01*
X18001190Y-18739285D01*
X17982142Y-18734523D01*
X17958333Y-18734523D01*
X17939285Y-18739285D01*
X17929761Y-18744047D01*
X17925000Y-18748809D01*
X17920238Y-18758333D01*
X17929761Y-18829761D02*
X17925000Y-18834523D01*
X17920238Y-18844047D01*
X17920238Y-18867857D01*
X17925000Y-18877380D01*
X17929761Y-18882142D01*
X17939285Y-18886904D01*
X17948809Y-18886904D01*
X17963095Y-18882142D01*
X18020238Y-18825000D01*
X18020238Y-18886904D01*
X17920238Y-18948809D02*
X17920238Y-18958333D01*
X17925000Y-18967857D01*
X17929761Y-18972619D01*
X17939285Y-18977380D01*
X17958333Y-18982142D01*
X17982142Y-18982142D01*
X18001190Y-18977380D01*
X18010714Y-18972619D01*
X18015476Y-18967857D01*
X18020238Y-18958333D01*
X18020238Y-18948809D01*
X18015476Y-18939285D01*
X18010714Y-18934523D01*
X18001190Y-18929761D01*
X17982142Y-18925000D01*
X17958333Y-18925000D01*
X17939285Y-18929761D01*
X17929761Y-18934523D01*
X17925000Y-18939285D01*
X17920238Y-18948809D01*
X18020238Y-19077380D02*
X18020238Y-19020238D01*
X18020238Y-19048809D02*
X17920238Y-19048809D01*
X17934523Y-19039285D01*
X17944047Y-19029761D01*
X17948809Y-19020238D01*
X18015476Y-19125000D02*
X18020238Y-19125000D01*
X18029761Y-19120238D01*
X18034523Y-19115476D01*
X18020238Y-19296428D02*
X18020238Y-19239285D01*
X18020238Y-19267857D02*
X17920238Y-19267857D01*
X17934523Y-19258333D01*
X17944047Y-19248809D01*
X17948809Y-19239285D01*
X17953571Y-19382142D02*
X18020238Y-19382142D01*
X17953571Y-19339285D02*
X18005952Y-19339285D01*
X18015476Y-19344047D01*
X18020238Y-19353571D01*
X18020238Y-19367857D01*
X18015476Y-19377380D01*
X18010714Y-19382142D01*
X17967857Y-19463095D02*
X17967857Y-19429761D01*
X18020238Y-19429761D02*
X17920238Y-19429761D01*
X17920238Y-19477380D01*
X18015476Y-19520238D02*
X18020238Y-19520238D01*
X18029761Y-19515476D01*
X18034523Y-19510714D01*
X18020238Y-19691666D02*
X18020238Y-19634523D01*
X18020238Y-19663095D02*
X17920238Y-19663095D01*
X17934523Y-19653571D01*
X17944047Y-19644047D01*
X17948809Y-19634523D01*
X17920238Y-19753571D02*
X17920238Y-19763095D01*
X17925000Y-19772619D01*
X17929761Y-19777380D01*
X17939285Y-19782142D01*
X17958333Y-19786904D01*
X17982142Y-19786904D01*
X18001190Y-19782142D01*
X18010714Y-19777380D01*
X18015476Y-19772619D01*
X18020238Y-19763095D01*
X18020238Y-19753571D01*
X18015476Y-19744047D01*
X18010714Y-19739285D01*
X18001190Y-19734523D01*
X17982142Y-19729761D01*
X17958333Y-19729761D01*
X17939285Y-19734523D01*
X17929761Y-19739285D01*
X17925000Y-19744047D01*
X17920238Y-19753571D01*
X17920238Y-19815476D02*
X18020238Y-19848809D01*
X17920238Y-19882142D01*
X18015476Y-19920238D02*
X18020238Y-19920238D01*
X18029761Y-19915476D01*
X18034523Y-19910714D01*
X17920238Y-20029761D02*
X18020238Y-20096428D01*
X17920238Y-20096428D02*
X18020238Y-20029761D01*
X17920238Y-20182142D02*
X17920238Y-20134523D01*
X17967857Y-20129761D01*
X17963095Y-20134523D01*
X17958333Y-20144047D01*
X17958333Y-20167857D01*
X17963095Y-20177380D01*
X17967857Y-20182142D01*
X17977380Y-20186904D01*
X18001190Y-20186904D01*
X18010714Y-20182142D01*
X18015476Y-20177380D01*
X18020238Y-20167857D01*
X18020238Y-20144047D01*
X18015476Y-20134523D01*
X18010714Y-20129761D01*
X18020238Y-20286904D02*
X17972619Y-20253571D01*
X18020238Y-20229761D02*
X17920238Y-20229761D01*
X17920238Y-20267857D01*
X17925000Y-20277380D01*
X17929761Y-20282142D01*
X17939285Y-20286904D01*
X17953571Y-20286904D01*
X17963095Y-20282142D01*
X17967857Y-20277380D01*
X17972619Y-20267857D01*
X17972619Y-20229761D01*
X18015476Y-20334523D02*
X18020238Y-20334523D01*
X18029761Y-20329761D01*
X18034523Y-20325000D01*
X17929761Y-20448809D02*
X17925000Y-20453571D01*
X17920238Y-20463095D01*
X17920238Y-20486904D01*
X17925000Y-20496428D01*
X17929761Y-20501190D01*
X17939285Y-20505952D01*
X17948809Y-20505952D01*
X17963095Y-20501190D01*
X18020238Y-20444047D01*
X18020238Y-20505952D01*
X17920238Y-20567857D02*
X17920238Y-20577380D01*
X17925000Y-20586904D01*
X17929761Y-20591666D01*
X17939285Y-20596428D01*
X17958333Y-20601190D01*
X17982142Y-20601190D01*
X18001190Y-20596428D01*
X18010714Y-20591666D01*
X18015476Y-20586904D01*
X18020238Y-20577380D01*
X18020238Y-20567857D01*
X18015476Y-20558333D01*
X18010714Y-20553571D01*
X18001190Y-20548809D01*
X17982142Y-20544047D01*
X17958333Y-20544047D01*
X17939285Y-20548809D01*
X17929761Y-20553571D01*
X17925000Y-20558333D01*
X17920238Y-20567857D01*
X18020238Y-20639285D02*
X17920238Y-20715476D01*
X17920238Y-20653571D02*
X17925000Y-20663095D01*
X17934523Y-20667857D01*
X17944047Y-20663095D01*
X17948809Y-20653571D01*
X17944047Y-20644047D01*
X17934523Y-20639285D01*
X17925000Y-20644047D01*
X17920238Y-20653571D01*
X18015476Y-20710714D02*
X18005952Y-20715476D01*
X17996428Y-20710714D01*
X17991666Y-20701190D01*
X17996428Y-20691666D01*
X18005952Y-20686904D01*
X18015476Y-20691666D01*
X18020238Y-20701190D01*
X18015476Y-20710714D01*
D13*
X17839285Y-19633333D02*
X17851190Y-19621428D01*
X17863095Y-19585714D01*
X17863095Y-19561904D01*
X17851190Y-19526190D01*
X17827380Y-19502380D01*
X17803571Y-19490476D01*
X17755952Y-19478571D01*
X17720238Y-19478571D01*
X17672619Y-19490476D01*
X17648809Y-19502380D01*
X17625000Y-19526190D01*
X17613095Y-19561904D01*
X17613095Y-19585714D01*
X17625000Y-19621428D01*
X17636904Y-19633333D01*
X17613095Y-19716666D02*
X17613095Y-19871428D01*
X17708333Y-19788095D01*
X17708333Y-19823809D01*
X17720238Y-19847619D01*
X17732142Y-19859523D01*
X17755952Y-19871428D01*
X17815476Y-19871428D01*
X17839285Y-19859523D01*
X17851190Y-19847619D01*
X17863095Y-19823809D01*
X17863095Y-19752380D01*
X17851190Y-19728571D01*
X17839285Y-19716666D01*
D12*
X21786904Y-22795238D02*
X21777380Y-22795238D01*
X21767857Y-22800000D01*
X21763095Y-22804761D01*
X21758333Y-22814285D01*
X21753571Y-22833333D01*
X21753571Y-22857142D01*
X21758333Y-22876190D01*
X21763095Y-22885714D01*
X21767857Y-22890476D01*
X21777380Y-22895238D01*
X21786904Y-22895238D01*
X21796428Y-22890476D01*
X21801190Y-22885714D01*
X21805952Y-22876190D01*
X21810714Y-22857142D01*
X21810714Y-22833333D01*
X21805952Y-22814285D01*
X21801190Y-22804761D01*
X21796428Y-22800000D01*
X21786904Y-22795238D01*
X21715476Y-22804761D02*
X21710714Y-22800000D01*
X21701190Y-22795238D01*
X21677380Y-22795238D01*
X21667857Y-22800000D01*
X21663095Y-22804761D01*
X21658333Y-22814285D01*
X21658333Y-22823809D01*
X21663095Y-22838095D01*
X21720238Y-22895238D01*
X21658333Y-22895238D01*
X21596428Y-22795238D02*
X21586904Y-22795238D01*
X21577380Y-22800000D01*
X21572619Y-22804761D01*
X21567857Y-22814285D01*
X21563095Y-22833333D01*
X21563095Y-22857142D01*
X21567857Y-22876190D01*
X21572619Y-22885714D01*
X21577380Y-22890476D01*
X21586904Y-22895238D01*
X21596428Y-22895238D01*
X21605952Y-22890476D01*
X21610714Y-22885714D01*
X21615476Y-22876190D01*
X21620238Y-22857142D01*
X21620238Y-22833333D01*
X21615476Y-22814285D01*
X21610714Y-22804761D01*
X21605952Y-22800000D01*
X21596428Y-22795238D01*
X21467857Y-22895238D02*
X21525000Y-22895238D01*
X21496428Y-22895238D02*
X21496428Y-22795238D01*
X21505952Y-22809523D01*
X21515476Y-22819047D01*
X21525000Y-22823809D01*
X21420238Y-22890476D02*
X21420238Y-22895238D01*
X21425000Y-22904761D01*
X21429761Y-22909523D01*
X21248809Y-22895238D02*
X21305952Y-22895238D01*
X21277380Y-22895238D02*
X21277380Y-22795238D01*
X21286904Y-22809523D01*
X21296428Y-22819047D01*
X21305952Y-22823809D01*
X21186904Y-22795238D02*
X21177380Y-22795238D01*
X21167857Y-22800000D01*
X21163095Y-22804761D01*
X21158333Y-22814285D01*
X21153571Y-22833333D01*
X21153571Y-22857142D01*
X21158333Y-22876190D01*
X21163095Y-22885714D01*
X21167857Y-22890476D01*
X21177380Y-22895238D01*
X21186904Y-22895238D01*
X21196428Y-22890476D01*
X21201190Y-22885714D01*
X21205952Y-22876190D01*
X21210714Y-22857142D01*
X21210714Y-22833333D01*
X21205952Y-22814285D01*
X21201190Y-22804761D01*
X21196428Y-22800000D01*
X21186904Y-22795238D01*
X21091666Y-22795238D02*
X21082142Y-22795238D01*
X21072619Y-22800000D01*
X21067857Y-22804761D01*
X21063095Y-22814285D01*
X21058333Y-22833333D01*
X21058333Y-22857142D01*
X21063095Y-22876190D01*
X21067857Y-22885714D01*
X21072619Y-22890476D01*
X21082142Y-22895238D01*
X21091666Y-22895238D01*
X21101190Y-22890476D01*
X21105952Y-22885714D01*
X21110714Y-22876190D01*
X21115476Y-22857142D01*
X21115476Y-22833333D01*
X21110714Y-22814285D01*
X21105952Y-22804761D01*
X21101190Y-22800000D01*
X21091666Y-22795238D01*
X21015476Y-22828571D02*
X21015476Y-22895238D01*
X21015476Y-22838095D02*
X21010714Y-22833333D01*
X21001190Y-22828571D01*
X20986904Y-22828571D01*
X20977380Y-22833333D01*
X20972619Y-22842857D01*
X20972619Y-22895238D01*
X20891666Y-22842857D02*
X20925000Y-22842857D01*
X20925000Y-22895238D02*
X20925000Y-22795238D01*
X20877380Y-22795238D01*
X20834523Y-22890476D02*
X20834523Y-22895238D01*
X20839285Y-22904761D01*
X20844047Y-22909523D01*
X20663095Y-22895238D02*
X20720238Y-22895238D01*
X20691666Y-22895238D02*
X20691666Y-22795238D01*
X20701190Y-22809523D01*
X20710714Y-22819047D01*
X20720238Y-22823809D01*
X20601190Y-22795238D02*
X20591666Y-22795238D01*
X20582142Y-22800000D01*
X20577380Y-22804761D01*
X20572619Y-22814285D01*
X20567857Y-22833333D01*
X20567857Y-22857142D01*
X20572619Y-22876190D01*
X20577380Y-22885714D01*
X20582142Y-22890476D01*
X20591666Y-22895238D01*
X20601190Y-22895238D01*
X20610714Y-22890476D01*
X20615476Y-22885714D01*
X20620238Y-22876190D01*
X20625000Y-22857142D01*
X20625000Y-22833333D01*
X20620238Y-22814285D01*
X20615476Y-22804761D01*
X20610714Y-22800000D01*
X20601190Y-22795238D01*
X20539285Y-22795238D02*
X20505952Y-22895238D01*
X20472619Y-22795238D01*
X20434523Y-22890476D02*
X20434523Y-22895238D01*
X20439285Y-22904761D01*
X20444047Y-22909523D01*
X20325000Y-22795238D02*
X20258333Y-22895238D01*
X20258333Y-22795238D02*
X20325000Y-22895238D01*
X20172619Y-22795238D02*
X20220238Y-22795238D01*
X20225000Y-22842857D01*
X20220238Y-22838095D01*
X20210714Y-22833333D01*
X20186904Y-22833333D01*
X20177380Y-22838095D01*
X20172619Y-22842857D01*
X20167857Y-22852380D01*
X20167857Y-22876190D01*
X20172619Y-22885714D01*
X20177380Y-22890476D01*
X20186904Y-22895238D01*
X20210714Y-22895238D01*
X20220238Y-22890476D01*
X20225000Y-22885714D01*
X20067857Y-22895238D02*
X20101190Y-22847619D01*
X20125000Y-22895238D02*
X20125000Y-22795238D01*
X20086904Y-22795238D01*
X20077380Y-22800000D01*
X20072619Y-22804761D01*
X20067857Y-22814285D01*
X20067857Y-22828571D01*
X20072619Y-22838095D01*
X20077380Y-22842857D01*
X20086904Y-22847619D01*
X20125000Y-22847619D01*
X20020238Y-22890476D02*
X20020238Y-22895238D01*
X20025000Y-22904761D01*
X20029761Y-22909523D01*
X19905952Y-22804761D02*
X19901190Y-22800000D01*
X19891666Y-22795238D01*
X19867857Y-22795238D01*
X19858333Y-22800000D01*
X19853571Y-22804761D01*
X19848809Y-22814285D01*
X19848809Y-22823809D01*
X19853571Y-22838095D01*
X19910714Y-22895238D01*
X19848809Y-22895238D01*
X19786904Y-22795238D02*
X19777380Y-22795238D01*
X19767857Y-22800000D01*
X19763095Y-22804761D01*
X19758333Y-22814285D01*
X19753571Y-22833333D01*
X19753571Y-22857142D01*
X19758333Y-22876190D01*
X19763095Y-22885714D01*
X19767857Y-22890476D01*
X19777380Y-22895238D01*
X19786904Y-22895238D01*
X19796428Y-22890476D01*
X19801190Y-22885714D01*
X19805952Y-22876190D01*
X19810714Y-22857142D01*
X19810714Y-22833333D01*
X19805952Y-22814285D01*
X19801190Y-22804761D01*
X19796428Y-22800000D01*
X19786904Y-22795238D01*
X19715476Y-22895238D02*
X19639285Y-22795238D01*
X19701190Y-22795238D02*
X19691666Y-22800000D01*
X19686904Y-22809523D01*
X19691666Y-22819047D01*
X19701190Y-22823809D01*
X19710714Y-22819047D01*
X19715476Y-22809523D01*
X19710714Y-22800000D01*
X19701190Y-22795238D01*
X19644047Y-22890476D02*
X19639285Y-22880952D01*
X19644047Y-22871428D01*
X19653571Y-22866666D01*
X19663095Y-22871428D01*
X19667857Y-22880952D01*
X19663095Y-22890476D01*
X19653571Y-22895238D01*
X19644047Y-22890476D01*
D13*
X20916666Y-22664285D02*
X20928571Y-22676190D01*
X20964285Y-22688095D01*
X20988095Y-22688095D01*
X21023809Y-22676190D01*
X21047619Y-22652380D01*
X21059523Y-22628571D01*
X21071428Y-22580952D01*
X21071428Y-22545238D01*
X21059523Y-22497619D01*
X21047619Y-22473809D01*
X21023809Y-22450000D01*
X20988095Y-22438095D01*
X20964285Y-22438095D01*
X20928571Y-22450000D01*
X20916666Y-22461904D01*
X20702380Y-22521428D02*
X20702380Y-22688095D01*
X20761904Y-22426190D02*
X20821428Y-22604761D01*
X20666666Y-22604761D01*
D12*
X21745238Y-21683333D02*
X21745238Y-21692857D01*
X21750000Y-21702380D01*
X21754761Y-21707142D01*
X21764285Y-21711904D01*
X21783333Y-21716666D01*
X21807142Y-21716666D01*
X21826190Y-21711904D01*
X21835714Y-21707142D01*
X21840476Y-21702380D01*
X21845238Y-21692857D01*
X21845238Y-21683333D01*
X21840476Y-21673809D01*
X21835714Y-21669047D01*
X21826190Y-21664285D01*
X21807142Y-21659523D01*
X21783333Y-21659523D01*
X21764285Y-21664285D01*
X21754761Y-21669047D01*
X21750000Y-21673809D01*
X21745238Y-21683333D01*
X21754761Y-21754761D02*
X21750000Y-21759523D01*
X21745238Y-21769047D01*
X21745238Y-21792857D01*
X21750000Y-21802380D01*
X21754761Y-21807142D01*
X21764285Y-21811904D01*
X21773809Y-21811904D01*
X21788095Y-21807142D01*
X21845238Y-21750000D01*
X21845238Y-21811904D01*
X21745238Y-21873809D02*
X21745238Y-21883333D01*
X21750000Y-21892857D01*
X21754761Y-21897619D01*
X21764285Y-21902380D01*
X21783333Y-21907142D01*
X21807142Y-21907142D01*
X21826190Y-21902380D01*
X21835714Y-21897619D01*
X21840476Y-21892857D01*
X21845238Y-21883333D01*
X21845238Y-21873809D01*
X21840476Y-21864285D01*
X21835714Y-21859523D01*
X21826190Y-21854761D01*
X21807142Y-21850000D01*
X21783333Y-21850000D01*
X21764285Y-21854761D01*
X21754761Y-21859523D01*
X21750000Y-21864285D01*
X21745238Y-21873809D01*
X21845238Y-22002380D02*
X21845238Y-21945238D01*
X21845238Y-21973809D02*
X21745238Y-21973809D01*
X21759523Y-21964285D01*
X21769047Y-21954761D01*
X21773809Y-21945238D01*
X21840476Y-22050000D02*
X21845238Y-22050000D01*
X21854761Y-22045238D01*
X21859523Y-22040476D01*
X21845238Y-22221428D02*
X21845238Y-22164285D01*
X21845238Y-22192857D02*
X21745238Y-22192857D01*
X21759523Y-22183333D01*
X21769047Y-22173809D01*
X21773809Y-22164285D01*
X21778571Y-22307142D02*
X21845238Y-22307142D01*
X21778571Y-22264285D02*
X21830952Y-22264285D01*
X21840476Y-22269047D01*
X21845238Y-22278571D01*
X21845238Y-22292857D01*
X21840476Y-22302380D01*
X21835714Y-22307142D01*
X21792857Y-22388095D02*
X21792857Y-22354761D01*
X21845238Y-22354761D02*
X21745238Y-22354761D01*
X21745238Y-22402380D01*
X21840476Y-22445238D02*
X21845238Y-22445238D01*
X21854761Y-22440476D01*
X21859523Y-22435714D01*
X21845238Y-22616666D02*
X21845238Y-22559523D01*
X21845238Y-22588095D02*
X21745238Y-22588095D01*
X21759523Y-22578571D01*
X21769047Y-22569047D01*
X21773809Y-22559523D01*
X21745238Y-22678571D02*
X21745238Y-22688095D01*
X21750000Y-22697619D01*
X21754761Y-22702380D01*
X21764285Y-22707142D01*
X21783333Y-22711904D01*
X21807142Y-22711904D01*
X21826190Y-22707142D01*
X21835714Y-22702380D01*
X21840476Y-22697619D01*
X21845238Y-22688095D01*
X21845238Y-22678571D01*
X21840476Y-22669047D01*
X21835714Y-22664285D01*
X21826190Y-22659523D01*
X21807142Y-22654761D01*
X21783333Y-22654761D01*
X21764285Y-22659523D01*
X21754761Y-22664285D01*
X21750000Y-22669047D01*
X21745238Y-22678571D01*
X21745238Y-22740476D02*
X21845238Y-22773809D01*
X21745238Y-22807142D01*
X21840476Y-22845238D02*
X21845238Y-22845238D01*
X21854761Y-22840476D01*
X21859523Y-22835714D01*
X21745238Y-22954761D02*
X21845238Y-23021428D01*
X21745238Y-23021428D02*
X21845238Y-22954761D01*
X21745238Y-23107142D02*
X21745238Y-23059523D01*
X21792857Y-23054761D01*
X21788095Y-23059523D01*
X21783333Y-23069047D01*
X21783333Y-23092857D01*
X21788095Y-23102380D01*
X21792857Y-23107142D01*
X21802380Y-23111904D01*
X21826190Y-23111904D01*
X21835714Y-23107142D01*
X21840476Y-23102380D01*
X21845238Y-23092857D01*
X21845238Y-23069047D01*
X21840476Y-23059523D01*
X21835714Y-23054761D01*
X21845238Y-23211904D02*
X21797619Y-23178571D01*
X21845238Y-23154761D02*
X21745238Y-23154761D01*
X21745238Y-23192857D01*
X21750000Y-23202380D01*
X21754761Y-23207142D01*
X21764285Y-23211904D01*
X21778571Y-23211904D01*
X21788095Y-23207142D01*
X21792857Y-23202380D01*
X21797619Y-23192857D01*
X21797619Y-23154761D01*
X21840476Y-23259523D02*
X21845238Y-23259523D01*
X21854761Y-23254761D01*
X21859523Y-23250000D01*
X21754761Y-23373809D02*
X21750000Y-23378571D01*
X21745238Y-23388095D01*
X21745238Y-23411904D01*
X21750000Y-23421428D01*
X21754761Y-23426190D01*
X21764285Y-23430952D01*
X21773809Y-23430952D01*
X21788095Y-23426190D01*
X21845238Y-23369047D01*
X21845238Y-23430952D01*
X21745238Y-23492857D02*
X21745238Y-23502380D01*
X21750000Y-23511904D01*
X21754761Y-23516666D01*
X21764285Y-23521428D01*
X21783333Y-23526190D01*
X21807142Y-23526190D01*
X21826190Y-23521428D01*
X21835714Y-23516666D01*
X21840476Y-23511904D01*
X21845238Y-23502380D01*
X21845238Y-23492857D01*
X21840476Y-23483333D01*
X21835714Y-23478571D01*
X21826190Y-23473809D01*
X21807142Y-23469047D01*
X21783333Y-23469047D01*
X21764285Y-23473809D01*
X21754761Y-23478571D01*
X21750000Y-23483333D01*
X21745238Y-23492857D01*
X21845238Y-23564285D02*
X21745238Y-23640476D01*
X21745238Y-23578571D02*
X21750000Y-23588095D01*
X21759523Y-23592857D01*
X21769047Y-23588095D01*
X21773809Y-23578571D01*
X21769047Y-23569047D01*
X21759523Y-23564285D01*
X21750000Y-23569047D01*
X21745238Y-23578571D01*
X21840476Y-23635714D02*
X21830952Y-23640476D01*
X21821428Y-23635714D01*
X21816666Y-23626190D01*
X21821428Y-23616666D01*
X21830952Y-23611904D01*
X21840476Y-23616666D01*
X21845238Y-23626190D01*
X21840476Y-23635714D01*
D13*
X22214285Y-22583333D02*
X22226190Y-22571428D01*
X22238095Y-22535714D01*
X22238095Y-22511904D01*
X22226190Y-22476190D01*
X22202380Y-22452380D01*
X22178571Y-22440476D01*
X22130952Y-22428571D01*
X22095238Y-22428571D01*
X22047619Y-22440476D01*
X22023809Y-22452380D01*
X22000000Y-22476190D01*
X21988095Y-22511904D01*
X21988095Y-22535714D01*
X22000000Y-22571428D01*
X22011904Y-22583333D01*
X21988095Y-22809523D02*
X21988095Y-22690476D01*
X22107142Y-22678571D01*
X22095238Y-22690476D01*
X22083333Y-22714285D01*
X22083333Y-22773809D01*
X22095238Y-22797619D01*
X22107142Y-22809523D01*
X22130952Y-22821428D01*
X22190476Y-22821428D01*
X22214285Y-22809523D01*
X22226190Y-22797619D01*
X22238095Y-22773809D01*
X22238095Y-22714285D01*
X22226190Y-22690476D01*
X22214285Y-22678571D01*
D12*
X22495238Y-21538095D02*
X22495238Y-21547619D01*
X22500000Y-21557142D01*
X22504761Y-21561904D01*
X22514285Y-21566666D01*
X22533333Y-21571428D01*
X22557142Y-21571428D01*
X22576190Y-21566666D01*
X22585714Y-21561904D01*
X22590476Y-21557142D01*
X22595238Y-21547619D01*
X22595238Y-21538095D01*
X22590476Y-21528571D01*
X22585714Y-21523809D01*
X22576190Y-21519047D01*
X22557142Y-21514285D01*
X22533333Y-21514285D01*
X22514285Y-21519047D01*
X22504761Y-21523809D01*
X22500000Y-21528571D01*
X22495238Y-21538095D01*
X22504761Y-21609523D02*
X22500000Y-21614285D01*
X22495238Y-21623809D01*
X22495238Y-21647619D01*
X22500000Y-21657142D01*
X22504761Y-21661904D01*
X22514285Y-21666666D01*
X22523809Y-21666666D01*
X22538095Y-21661904D01*
X22595238Y-21604761D01*
X22595238Y-21666666D01*
X22495238Y-21728571D02*
X22495238Y-21738095D01*
X22500000Y-21747619D01*
X22504761Y-21752380D01*
X22514285Y-21757142D01*
X22533333Y-21761904D01*
X22557142Y-21761904D01*
X22576190Y-21757142D01*
X22585714Y-21752380D01*
X22590476Y-21747619D01*
X22595238Y-21738095D01*
X22595238Y-21728571D01*
X22590476Y-21719047D01*
X22585714Y-21714285D01*
X22576190Y-21709523D01*
X22557142Y-21704761D01*
X22533333Y-21704761D01*
X22514285Y-21709523D01*
X22504761Y-21714285D01*
X22500000Y-21719047D01*
X22495238Y-21728571D01*
X22595238Y-21857142D02*
X22595238Y-21799999D01*
X22595238Y-21828571D02*
X22495238Y-21828571D01*
X22509523Y-21819047D01*
X22519047Y-21809523D01*
X22523809Y-21799999D01*
X22590476Y-21904761D02*
X22595238Y-21904761D01*
X22604761Y-21899999D01*
X22609523Y-21895238D01*
X22595238Y-22076190D02*
X22595238Y-22019047D01*
X22595238Y-22047619D02*
X22495238Y-22047619D01*
X22509523Y-22038095D01*
X22519047Y-22028571D01*
X22523809Y-22019047D01*
X22495238Y-22138095D02*
X22495238Y-22147619D01*
X22500000Y-22157142D01*
X22504761Y-22161904D01*
X22514285Y-22166666D01*
X22533333Y-22171428D01*
X22557142Y-22171428D01*
X22576190Y-22166666D01*
X22585714Y-22161904D01*
X22590476Y-22157142D01*
X22595238Y-22147619D01*
X22595238Y-22138095D01*
X22590476Y-22128571D01*
X22585714Y-22123809D01*
X22576190Y-22119047D01*
X22557142Y-22114285D01*
X22533333Y-22114285D01*
X22514285Y-22119047D01*
X22504761Y-22123809D01*
X22500000Y-22128571D01*
X22495238Y-22138095D01*
X22495238Y-22233333D02*
X22495238Y-22242857D01*
X22500000Y-22252380D01*
X22504761Y-22257142D01*
X22514285Y-22261904D01*
X22533333Y-22266666D01*
X22557142Y-22266666D01*
X22576190Y-22261904D01*
X22585714Y-22257142D01*
X22590476Y-22252380D01*
X22595238Y-22242857D01*
X22595238Y-22233333D01*
X22590476Y-22223809D01*
X22585714Y-22219047D01*
X22576190Y-22214285D01*
X22557142Y-22209523D01*
X22533333Y-22209523D01*
X22514285Y-22214285D01*
X22504761Y-22219047D01*
X22500000Y-22223809D01*
X22495238Y-22233333D01*
X22528571Y-22309523D02*
X22595238Y-22309523D01*
X22538095Y-22309523D02*
X22533333Y-22314285D01*
X22528571Y-22323809D01*
X22528571Y-22338095D01*
X22533333Y-22347619D01*
X22542857Y-22352380D01*
X22595238Y-22352380D01*
X22542857Y-22433333D02*
X22542857Y-22399999D01*
X22595238Y-22399999D02*
X22495238Y-22399999D01*
X22495238Y-22447619D01*
X22590476Y-22490476D02*
X22595238Y-22490476D01*
X22604761Y-22485714D01*
X22609523Y-22480952D01*
X22595238Y-22661904D02*
X22595238Y-22604761D01*
X22595238Y-22633333D02*
X22495238Y-22633333D01*
X22509523Y-22623809D01*
X22519047Y-22614285D01*
X22523809Y-22604761D01*
X22495238Y-22723809D02*
X22495238Y-22733333D01*
X22500000Y-22742857D01*
X22504761Y-22747619D01*
X22514285Y-22752380D01*
X22533333Y-22757142D01*
X22557142Y-22757142D01*
X22576190Y-22752380D01*
X22585714Y-22747619D01*
X22590476Y-22742857D01*
X22595238Y-22733333D01*
X22595238Y-22723809D01*
X22590476Y-22714285D01*
X22585714Y-22709523D01*
X22576190Y-22704761D01*
X22557142Y-22699999D01*
X22533333Y-22699999D01*
X22514285Y-22704761D01*
X22504761Y-22709523D01*
X22500000Y-22714285D01*
X22495238Y-22723809D01*
X22495238Y-22785714D02*
X22595238Y-22819047D01*
X22495238Y-22852380D01*
X22590476Y-22890476D02*
X22595238Y-22890476D01*
X22604761Y-22885714D01*
X22609523Y-22880952D01*
X22495238Y-22999999D02*
X22595238Y-23066666D01*
X22495238Y-23066666D02*
X22595238Y-22999999D01*
X22495238Y-23152380D02*
X22495238Y-23104761D01*
X22542857Y-23099999D01*
X22538095Y-23104761D01*
X22533333Y-23114285D01*
X22533333Y-23138095D01*
X22538095Y-23147619D01*
X22542857Y-23152380D01*
X22552380Y-23157142D01*
X22576190Y-23157142D01*
X22585714Y-23152380D01*
X22590476Y-23147619D01*
X22595238Y-23138095D01*
X22595238Y-23114285D01*
X22590476Y-23104761D01*
X22585714Y-23099999D01*
X22595238Y-23257142D02*
X22547619Y-23223809D01*
X22595238Y-23199999D02*
X22495238Y-23199999D01*
X22495238Y-23238095D01*
X22500000Y-23247619D01*
X22504761Y-23252380D01*
X22514285Y-23257142D01*
X22528571Y-23257142D01*
X22538095Y-23252380D01*
X22542857Y-23247619D01*
X22547619Y-23238095D01*
X22547619Y-23199999D01*
X22590476Y-23304761D02*
X22595238Y-23304761D01*
X22604761Y-23299999D01*
X22609523Y-23295238D01*
X22504761Y-23419047D02*
X22500000Y-23423809D01*
X22495238Y-23433333D01*
X22495238Y-23457142D01*
X22500000Y-23466666D01*
X22504761Y-23471428D01*
X22514285Y-23476190D01*
X22523809Y-23476190D01*
X22538095Y-23471428D01*
X22595238Y-23414285D01*
X22595238Y-23476190D01*
X22495238Y-23538095D02*
X22495238Y-23547619D01*
X22500000Y-23557142D01*
X22504761Y-23561904D01*
X22514285Y-23566666D01*
X22533333Y-23571428D01*
X22557142Y-23571428D01*
X22576190Y-23566666D01*
X22585714Y-23561904D01*
X22590476Y-23557142D01*
X22595238Y-23547619D01*
X22595238Y-23538095D01*
X22590476Y-23528571D01*
X22585714Y-23523809D01*
X22576190Y-23519047D01*
X22557142Y-23514285D01*
X22533333Y-23514285D01*
X22514285Y-23519047D01*
X22504761Y-23523809D01*
X22500000Y-23528571D01*
X22495238Y-23538095D01*
X22595238Y-23609523D02*
X22495238Y-23685714D01*
X22495238Y-23623809D02*
X22500000Y-23633333D01*
X22509523Y-23638095D01*
X22519047Y-23633333D01*
X22523809Y-23623809D01*
X22519047Y-23614285D01*
X22509523Y-23609523D01*
X22500000Y-23614285D01*
X22495238Y-23623809D01*
X22590476Y-23680952D02*
X22580952Y-23685714D01*
X22571428Y-23680952D01*
X22566666Y-23671428D01*
X22571428Y-23661904D01*
X22580952Y-23657142D01*
X22590476Y-23661904D01*
X22595238Y-23671428D01*
X22590476Y-23680952D01*
D13*
X22914285Y-22583333D02*
X22926190Y-22571428D01*
X22938095Y-22535714D01*
X22938095Y-22511904D01*
X22926190Y-22476190D01*
X22902380Y-22452380D01*
X22878571Y-22440476D01*
X22830952Y-22428571D01*
X22795238Y-22428571D01*
X22747619Y-22440476D01*
X22723809Y-22452380D01*
X22700000Y-22476190D01*
X22688095Y-22511904D01*
X22688095Y-22535714D01*
X22700000Y-22571428D01*
X22711904Y-22583333D01*
X22688095Y-22666666D02*
X22688095Y-22833333D01*
X22938095Y-22726190D01*
D12*
X20470238Y-17233333D02*
X20470238Y-17242857D01*
X20475000Y-17252380D01*
X20479761Y-17257142D01*
X20489285Y-17261904D01*
X20508333Y-17266666D01*
X20532142Y-17266666D01*
X20551190Y-17261904D01*
X20560714Y-17257142D01*
X20565476Y-17252380D01*
X20570238Y-17242857D01*
X20570238Y-17233333D01*
X20565476Y-17223809D01*
X20560714Y-17219047D01*
X20551190Y-17214285D01*
X20532142Y-17209523D01*
X20508333Y-17209523D01*
X20489285Y-17214285D01*
X20479761Y-17219047D01*
X20475000Y-17223809D01*
X20470238Y-17233333D01*
X20479761Y-17304761D02*
X20475000Y-17309523D01*
X20470238Y-17319047D01*
X20470238Y-17342857D01*
X20475000Y-17352380D01*
X20479761Y-17357142D01*
X20489285Y-17361904D01*
X20498809Y-17361904D01*
X20513095Y-17357142D01*
X20570238Y-17300000D01*
X20570238Y-17361904D01*
X20470238Y-17423809D02*
X20470238Y-17433333D01*
X20475000Y-17442857D01*
X20479761Y-17447619D01*
X20489285Y-17452380D01*
X20508333Y-17457142D01*
X20532142Y-17457142D01*
X20551190Y-17452380D01*
X20560714Y-17447619D01*
X20565476Y-17442857D01*
X20570238Y-17433333D01*
X20570238Y-17423809D01*
X20565476Y-17414285D01*
X20560714Y-17409523D01*
X20551190Y-17404761D01*
X20532142Y-17400000D01*
X20508333Y-17400000D01*
X20489285Y-17404761D01*
X20479761Y-17409523D01*
X20475000Y-17414285D01*
X20470238Y-17423809D01*
X20570238Y-17552380D02*
X20570238Y-17495238D01*
X20570238Y-17523809D02*
X20470238Y-17523809D01*
X20484523Y-17514285D01*
X20494047Y-17504761D01*
X20498809Y-17495238D01*
X20565476Y-17600000D02*
X20570238Y-17600000D01*
X20579761Y-17595238D01*
X20584523Y-17590476D01*
X20570238Y-17771428D02*
X20570238Y-17714285D01*
X20570238Y-17742857D02*
X20470238Y-17742857D01*
X20484523Y-17733333D01*
X20494047Y-17723809D01*
X20498809Y-17714285D01*
X20503571Y-17857142D02*
X20570238Y-17857142D01*
X20503571Y-17814285D02*
X20555952Y-17814285D01*
X20565476Y-17819047D01*
X20570238Y-17828571D01*
X20570238Y-17842857D01*
X20565476Y-17852380D01*
X20560714Y-17857142D01*
X20517857Y-17938095D02*
X20517857Y-17904761D01*
X20570238Y-17904761D02*
X20470238Y-17904761D01*
X20470238Y-17952380D01*
X20565476Y-17995238D02*
X20570238Y-17995238D01*
X20579761Y-17990476D01*
X20584523Y-17985714D01*
X20570238Y-18166666D02*
X20570238Y-18109523D01*
X20570238Y-18138095D02*
X20470238Y-18138095D01*
X20484523Y-18128571D01*
X20494047Y-18119047D01*
X20498809Y-18109523D01*
X20470238Y-18228571D02*
X20470238Y-18238095D01*
X20475000Y-18247619D01*
X20479761Y-18252380D01*
X20489285Y-18257142D01*
X20508333Y-18261904D01*
X20532142Y-18261904D01*
X20551190Y-18257142D01*
X20560714Y-18252380D01*
X20565476Y-18247619D01*
X20570238Y-18238095D01*
X20570238Y-18228571D01*
X20565476Y-18219047D01*
X20560714Y-18214285D01*
X20551190Y-18209523D01*
X20532142Y-18204761D01*
X20508333Y-18204761D01*
X20489285Y-18209523D01*
X20479761Y-18214285D01*
X20475000Y-18219047D01*
X20470238Y-18228571D01*
X20470238Y-18290476D02*
X20570238Y-18323809D01*
X20470238Y-18357142D01*
X20565476Y-18395238D02*
X20570238Y-18395238D01*
X20579761Y-18390476D01*
X20584523Y-18385714D01*
X20470238Y-18504761D02*
X20570238Y-18571428D01*
X20470238Y-18571428D02*
X20570238Y-18504761D01*
X20470238Y-18657142D02*
X20470238Y-18609523D01*
X20517857Y-18604761D01*
X20513095Y-18609523D01*
X20508333Y-18619047D01*
X20508333Y-18642857D01*
X20513095Y-18652380D01*
X20517857Y-18657142D01*
X20527380Y-18661904D01*
X20551190Y-18661904D01*
X20560714Y-18657142D01*
X20565476Y-18652380D01*
X20570238Y-18642857D01*
X20570238Y-18619047D01*
X20565476Y-18609523D01*
X20560714Y-18604761D01*
X20570238Y-18761904D02*
X20522619Y-18728571D01*
X20570238Y-18704761D02*
X20470238Y-18704761D01*
X20470238Y-18742857D01*
X20475000Y-18752380D01*
X20479761Y-18757142D01*
X20489285Y-18761904D01*
X20503571Y-18761904D01*
X20513095Y-18757142D01*
X20517857Y-18752380D01*
X20522619Y-18742857D01*
X20522619Y-18704761D01*
X20565476Y-18809523D02*
X20570238Y-18809523D01*
X20579761Y-18804761D01*
X20584523Y-18800000D01*
X20479761Y-18923809D02*
X20475000Y-18928571D01*
X20470238Y-18938095D01*
X20470238Y-18961904D01*
X20475000Y-18971428D01*
X20479761Y-18976190D01*
X20489285Y-18980952D01*
X20498809Y-18980952D01*
X20513095Y-18976190D01*
X20570238Y-18919047D01*
X20570238Y-18980952D01*
X20470238Y-19042857D02*
X20470238Y-19052380D01*
X20475000Y-19061904D01*
X20479761Y-19066666D01*
X20489285Y-19071428D01*
X20508333Y-19076190D01*
X20532142Y-19076190D01*
X20551190Y-19071428D01*
X20560714Y-19066666D01*
X20565476Y-19061904D01*
X20570238Y-19052380D01*
X20570238Y-19042857D01*
X20565476Y-19033333D01*
X20560714Y-19028571D01*
X20551190Y-19023809D01*
X20532142Y-19019047D01*
X20508333Y-19019047D01*
X20489285Y-19023809D01*
X20479761Y-19028571D01*
X20475000Y-19033333D01*
X20470238Y-19042857D01*
X20570238Y-19114285D02*
X20470238Y-19190476D01*
X20470238Y-19128571D02*
X20475000Y-19138095D01*
X20484523Y-19142857D01*
X20494047Y-19138095D01*
X20498809Y-19128571D01*
X20494047Y-19119047D01*
X20484523Y-19114285D01*
X20475000Y-19119047D01*
X20470238Y-19128571D01*
X20565476Y-19185714D02*
X20555952Y-19190476D01*
X20546428Y-19185714D01*
X20541666Y-19176190D01*
X20546428Y-19166666D01*
X20555952Y-19161904D01*
X20565476Y-19166666D01*
X20570238Y-19176190D01*
X20565476Y-19185714D01*
D13*
X20364285Y-18158333D02*
X20376190Y-18146428D01*
X20388095Y-18110714D01*
X20388095Y-18086904D01*
X20376190Y-18051190D01*
X20352380Y-18027380D01*
X20328571Y-18015476D01*
X20280952Y-18003571D01*
X20245238Y-18003571D01*
X20197619Y-18015476D01*
X20173809Y-18027380D01*
X20150000Y-18051190D01*
X20138095Y-18086904D01*
X20138095Y-18110714D01*
X20150000Y-18146428D01*
X20161904Y-18158333D01*
X20245238Y-18301190D02*
X20233333Y-18277380D01*
X20221428Y-18265476D01*
X20197619Y-18253571D01*
X20185714Y-18253571D01*
X20161904Y-18265476D01*
X20150000Y-18277380D01*
X20138095Y-18301190D01*
X20138095Y-18348809D01*
X20150000Y-18372619D01*
X20161904Y-18384523D01*
X20185714Y-18396428D01*
X20197619Y-18396428D01*
X20221428Y-18384523D01*
X20233333Y-18372619D01*
X20245238Y-18348809D01*
X20245238Y-18301190D01*
X20257142Y-18277380D01*
X20269047Y-18265476D01*
X20292857Y-18253571D01*
X20340476Y-18253571D01*
X20364285Y-18265476D01*
X20376190Y-18277380D01*
X20388095Y-18301190D01*
X20388095Y-18348809D01*
X20376190Y-18372619D01*
X20364285Y-18384523D01*
X20340476Y-18396428D01*
X20292857Y-18396428D01*
X20269047Y-18384523D01*
X20257142Y-18372619D01*
X20245238Y-18348809D01*
D12*
X20395238Y-22708333D02*
X20395238Y-22717857D01*
X20400000Y-22727380D01*
X20404761Y-22732142D01*
X20414285Y-22736904D01*
X20433333Y-22741666D01*
X20457142Y-22741666D01*
X20476190Y-22736904D01*
X20485714Y-22732142D01*
X20490476Y-22727380D01*
X20495238Y-22717857D01*
X20495238Y-22708333D01*
X20490476Y-22698809D01*
X20485714Y-22694047D01*
X20476190Y-22689285D01*
X20457142Y-22684523D01*
X20433333Y-22684523D01*
X20414285Y-22689285D01*
X20404761Y-22694047D01*
X20400000Y-22698809D01*
X20395238Y-22708333D01*
X20404761Y-22779761D02*
X20400000Y-22784523D01*
X20395238Y-22794047D01*
X20395238Y-22817857D01*
X20400000Y-22827380D01*
X20404761Y-22832142D01*
X20414285Y-22836904D01*
X20423809Y-22836904D01*
X20438095Y-22832142D01*
X20495238Y-22775000D01*
X20495238Y-22836904D01*
X20395238Y-22898809D02*
X20395238Y-22908333D01*
X20400000Y-22917857D01*
X20404761Y-22922619D01*
X20414285Y-22927380D01*
X20433333Y-22932142D01*
X20457142Y-22932142D01*
X20476190Y-22927380D01*
X20485714Y-22922619D01*
X20490476Y-22917857D01*
X20495238Y-22908333D01*
X20495238Y-22898809D01*
X20490476Y-22889285D01*
X20485714Y-22884523D01*
X20476190Y-22879761D01*
X20457142Y-22875000D01*
X20433333Y-22875000D01*
X20414285Y-22879761D01*
X20404761Y-22884523D01*
X20400000Y-22889285D01*
X20395238Y-22898809D01*
X20495238Y-23027380D02*
X20495238Y-22970238D01*
X20495238Y-22998809D02*
X20395238Y-22998809D01*
X20409523Y-22989285D01*
X20419047Y-22979761D01*
X20423809Y-22970238D01*
X20490476Y-23075000D02*
X20495238Y-23075000D01*
X20504761Y-23070238D01*
X20509523Y-23065476D01*
X20495238Y-23246428D02*
X20495238Y-23189285D01*
X20495238Y-23217857D02*
X20395238Y-23217857D01*
X20409523Y-23208333D01*
X20419047Y-23198809D01*
X20423809Y-23189285D01*
X20428571Y-23332142D02*
X20495238Y-23332142D01*
X20428571Y-23289285D02*
X20480952Y-23289285D01*
X20490476Y-23294047D01*
X20495238Y-23303571D01*
X20495238Y-23317857D01*
X20490476Y-23327380D01*
X20485714Y-23332142D01*
X20442857Y-23413095D02*
X20442857Y-23379761D01*
X20495238Y-23379761D02*
X20395238Y-23379761D01*
X20395238Y-23427380D01*
X20490476Y-23470238D02*
X20495238Y-23470238D01*
X20504761Y-23465476D01*
X20509523Y-23460714D01*
X20495238Y-23641666D02*
X20495238Y-23584523D01*
X20495238Y-23613095D02*
X20395238Y-23613095D01*
X20409523Y-23603571D01*
X20419047Y-23594047D01*
X20423809Y-23584523D01*
X20395238Y-23703571D02*
X20395238Y-23713095D01*
X20400000Y-23722619D01*
X20404761Y-23727380D01*
X20414285Y-23732142D01*
X20433333Y-23736904D01*
X20457142Y-23736904D01*
X20476190Y-23732142D01*
X20485714Y-23727380D01*
X20490476Y-23722619D01*
X20495238Y-23713095D01*
X20495238Y-23703571D01*
X20490476Y-23694047D01*
X20485714Y-23689285D01*
X20476190Y-23684523D01*
X20457142Y-23679761D01*
X20433333Y-23679761D01*
X20414285Y-23684523D01*
X20404761Y-23689285D01*
X20400000Y-23694047D01*
X20395238Y-23703571D01*
X20395238Y-23765476D02*
X20495238Y-23798809D01*
X20395238Y-23832142D01*
X20490476Y-23870238D02*
X20495238Y-23870238D01*
X20504761Y-23865476D01*
X20509523Y-23860714D01*
X20395238Y-23979761D02*
X20495238Y-24046428D01*
X20395238Y-24046428D02*
X20495238Y-23979761D01*
X20395238Y-24132142D02*
X20395238Y-24084523D01*
X20442857Y-24079761D01*
X20438095Y-24084523D01*
X20433333Y-24094047D01*
X20433333Y-24117857D01*
X20438095Y-24127380D01*
X20442857Y-24132142D01*
X20452380Y-24136904D01*
X20476190Y-24136904D01*
X20485714Y-24132142D01*
X20490476Y-24127380D01*
X20495238Y-24117857D01*
X20495238Y-24094047D01*
X20490476Y-24084523D01*
X20485714Y-24079761D01*
X20495238Y-24236904D02*
X20447619Y-24203571D01*
X20495238Y-24179761D02*
X20395238Y-24179761D01*
X20395238Y-24217857D01*
X20400000Y-24227380D01*
X20404761Y-24232142D01*
X20414285Y-24236904D01*
X20428571Y-24236904D01*
X20438095Y-24232142D01*
X20442857Y-24227380D01*
X20447619Y-24217857D01*
X20447619Y-24179761D01*
X20490476Y-24284523D02*
X20495238Y-24284523D01*
X20504761Y-24279761D01*
X20509523Y-24275000D01*
X20404761Y-24398809D02*
X20400000Y-24403571D01*
X20395238Y-24413095D01*
X20395238Y-24436904D01*
X20400000Y-24446428D01*
X20404761Y-24451190D01*
X20414285Y-24455952D01*
X20423809Y-24455952D01*
X20438095Y-24451190D01*
X20495238Y-24394047D01*
X20495238Y-24455952D01*
X20395238Y-24517857D02*
X20395238Y-24527380D01*
X20400000Y-24536904D01*
X20404761Y-24541666D01*
X20414285Y-24546428D01*
X20433333Y-24551190D01*
X20457142Y-24551190D01*
X20476190Y-24546428D01*
X20485714Y-24541666D01*
X20490476Y-24536904D01*
X20495238Y-24527380D01*
X20495238Y-24517857D01*
X20490476Y-24508333D01*
X20485714Y-24503571D01*
X20476190Y-24498809D01*
X20457142Y-24494047D01*
X20433333Y-24494047D01*
X20414285Y-24498809D01*
X20404761Y-24503571D01*
X20400000Y-24508333D01*
X20395238Y-24517857D01*
X20495238Y-24589285D02*
X20395238Y-24665476D01*
X20395238Y-24603571D02*
X20400000Y-24613095D01*
X20409523Y-24617857D01*
X20419047Y-24613095D01*
X20423809Y-24603571D01*
X20419047Y-24594047D01*
X20409523Y-24589285D01*
X20400000Y-24594047D01*
X20395238Y-24603571D01*
X20490476Y-24660714D02*
X20480952Y-24665476D01*
X20471428Y-24660714D01*
X20466666Y-24651190D01*
X20471428Y-24641666D01*
X20480952Y-24636904D01*
X20490476Y-24641666D01*
X20495238Y-24651190D01*
X20490476Y-24660714D01*
D13*
X20264285Y-23558333D02*
X20276190Y-23546428D01*
X20288095Y-23510714D01*
X20288095Y-23486904D01*
X20276190Y-23451190D01*
X20252380Y-23427380D01*
X20228571Y-23415476D01*
X20180952Y-23403571D01*
X20145238Y-23403571D01*
X20097619Y-23415476D01*
X20073809Y-23427380D01*
X20050000Y-23451190D01*
X20038095Y-23486904D01*
X20038095Y-23510714D01*
X20050000Y-23546428D01*
X20061904Y-23558333D01*
X20288095Y-23677380D02*
X20288095Y-23725000D01*
X20276190Y-23748809D01*
X20264285Y-23760714D01*
X20228571Y-23784523D01*
X20180952Y-23796428D01*
X20085714Y-23796428D01*
X20061904Y-23784523D01*
X20050000Y-23772619D01*
X20038095Y-23748809D01*
X20038095Y-23701190D01*
X20050000Y-23677380D01*
X20061904Y-23665476D01*
X20085714Y-23653571D01*
X20145238Y-23653571D01*
X20169047Y-23665476D01*
X20180952Y-23677380D01*
X20192857Y-23701190D01*
X20192857Y-23748809D01*
X20180952Y-23772619D01*
X20169047Y-23784523D01*
X20145238Y-23796428D01*
D12*
X19970238Y-18783333D02*
X19970238Y-18792857D01*
X19975000Y-18802380D01*
X19979761Y-18807142D01*
X19989285Y-18811904D01*
X20008333Y-18816666D01*
X20032142Y-18816666D01*
X20051190Y-18811904D01*
X20060714Y-18807142D01*
X20065476Y-18802380D01*
X20070238Y-18792857D01*
X20070238Y-18783333D01*
X20065476Y-18773809D01*
X20060714Y-18769047D01*
X20051190Y-18764285D01*
X20032142Y-18759523D01*
X20008333Y-18759523D01*
X19989285Y-18764285D01*
X19979761Y-18769047D01*
X19975000Y-18773809D01*
X19970238Y-18783333D01*
X19979761Y-18854761D02*
X19975000Y-18859523D01*
X19970238Y-18869047D01*
X19970238Y-18892857D01*
X19975000Y-18902380D01*
X19979761Y-18907142D01*
X19989285Y-18911904D01*
X19998809Y-18911904D01*
X20013095Y-18907142D01*
X20070238Y-18850000D01*
X20070238Y-18911904D01*
X19970238Y-18973809D02*
X19970238Y-18983333D01*
X19975000Y-18992857D01*
X19979761Y-18997619D01*
X19989285Y-19002380D01*
X20008333Y-19007142D01*
X20032142Y-19007142D01*
X20051190Y-19002380D01*
X20060714Y-18997619D01*
X20065476Y-18992857D01*
X20070238Y-18983333D01*
X20070238Y-18973809D01*
X20065476Y-18964285D01*
X20060714Y-18959523D01*
X20051190Y-18954761D01*
X20032142Y-18950000D01*
X20008333Y-18950000D01*
X19989285Y-18954761D01*
X19979761Y-18959523D01*
X19975000Y-18964285D01*
X19970238Y-18973809D01*
X20070238Y-19102380D02*
X20070238Y-19045238D01*
X20070238Y-19073809D02*
X19970238Y-19073809D01*
X19984523Y-19064285D01*
X19994047Y-19054761D01*
X19998809Y-19045238D01*
X20065476Y-19150000D02*
X20070238Y-19150000D01*
X20079761Y-19145238D01*
X20084523Y-19140476D01*
X20070238Y-19321428D02*
X20070238Y-19264285D01*
X20070238Y-19292857D02*
X19970238Y-19292857D01*
X19984523Y-19283333D01*
X19994047Y-19273809D01*
X19998809Y-19264285D01*
X20003571Y-19407142D02*
X20070238Y-19407142D01*
X20003571Y-19364285D02*
X20055952Y-19364285D01*
X20065476Y-19369047D01*
X20070238Y-19378571D01*
X20070238Y-19392857D01*
X20065476Y-19402380D01*
X20060714Y-19407142D01*
X20017857Y-19488095D02*
X20017857Y-19454761D01*
X20070238Y-19454761D02*
X19970238Y-19454761D01*
X19970238Y-19502380D01*
X20065476Y-19545238D02*
X20070238Y-19545238D01*
X20079761Y-19540476D01*
X20084523Y-19535714D01*
X20070238Y-19716666D02*
X20070238Y-19659523D01*
X20070238Y-19688095D02*
X19970238Y-19688095D01*
X19984523Y-19678571D01*
X19994047Y-19669047D01*
X19998809Y-19659523D01*
X19970238Y-19778571D02*
X19970238Y-19788095D01*
X19975000Y-19797619D01*
X19979761Y-19802380D01*
X19989285Y-19807142D01*
X20008333Y-19811904D01*
X20032142Y-19811904D01*
X20051190Y-19807142D01*
X20060714Y-19802380D01*
X20065476Y-19797619D01*
X20070238Y-19788095D01*
X20070238Y-19778571D01*
X20065476Y-19769047D01*
X20060714Y-19764285D01*
X20051190Y-19759523D01*
X20032142Y-19754761D01*
X20008333Y-19754761D01*
X19989285Y-19759523D01*
X19979761Y-19764285D01*
X19975000Y-19769047D01*
X19970238Y-19778571D01*
X19970238Y-19840476D02*
X20070238Y-19873809D01*
X19970238Y-19907142D01*
X20065476Y-19945238D02*
X20070238Y-19945238D01*
X20079761Y-19940476D01*
X20084523Y-19935714D01*
X19970238Y-20054761D02*
X20070238Y-20121428D01*
X19970238Y-20121428D02*
X20070238Y-20054761D01*
X19970238Y-20207142D02*
X19970238Y-20159523D01*
X20017857Y-20154761D01*
X20013095Y-20159523D01*
X20008333Y-20169047D01*
X20008333Y-20192857D01*
X20013095Y-20202380D01*
X20017857Y-20207142D01*
X20027380Y-20211904D01*
X20051190Y-20211904D01*
X20060714Y-20207142D01*
X20065476Y-20202380D01*
X20070238Y-20192857D01*
X20070238Y-20169047D01*
X20065476Y-20159523D01*
X20060714Y-20154761D01*
X20070238Y-20311904D02*
X20022619Y-20278571D01*
X20070238Y-20254761D02*
X19970238Y-20254761D01*
X19970238Y-20292857D01*
X19975000Y-20302380D01*
X19979761Y-20307142D01*
X19989285Y-20311904D01*
X20003571Y-20311904D01*
X20013095Y-20307142D01*
X20017857Y-20302380D01*
X20022619Y-20292857D01*
X20022619Y-20254761D01*
X20065476Y-20359523D02*
X20070238Y-20359523D01*
X20079761Y-20354761D01*
X20084523Y-20350000D01*
X19979761Y-20473809D02*
X19975000Y-20478571D01*
X19970238Y-20488095D01*
X19970238Y-20511904D01*
X19975000Y-20521428D01*
X19979761Y-20526190D01*
X19989285Y-20530952D01*
X19998809Y-20530952D01*
X20013095Y-20526190D01*
X20070238Y-20469047D01*
X20070238Y-20530952D01*
X19970238Y-20592857D02*
X19970238Y-20602380D01*
X19975000Y-20611904D01*
X19979761Y-20616666D01*
X19989285Y-20621428D01*
X20008333Y-20626190D01*
X20032142Y-20626190D01*
X20051190Y-20621428D01*
X20060714Y-20616666D01*
X20065476Y-20611904D01*
X20070238Y-20602380D01*
X20070238Y-20592857D01*
X20065476Y-20583333D01*
X20060714Y-20578571D01*
X20051190Y-20573809D01*
X20032142Y-20569047D01*
X20008333Y-20569047D01*
X19989285Y-20573809D01*
X19979761Y-20578571D01*
X19975000Y-20583333D01*
X19970238Y-20592857D01*
X20070238Y-20664285D02*
X19970238Y-20740476D01*
X19970238Y-20678571D02*
X19975000Y-20688095D01*
X19984523Y-20692857D01*
X19994047Y-20688095D01*
X19998809Y-20678571D01*
X19994047Y-20669047D01*
X19984523Y-20664285D01*
X19975000Y-20669047D01*
X19970238Y-20678571D01*
X20065476Y-20735714D02*
X20055952Y-20740476D01*
X20046428Y-20735714D01*
X20041666Y-20726190D01*
X20046428Y-20716666D01*
X20055952Y-20711904D01*
X20065476Y-20716666D01*
X20070238Y-20726190D01*
X20065476Y-20735714D01*
D13*
X20339285Y-19489285D02*
X20351190Y-19477380D01*
X20363095Y-19441666D01*
X20363095Y-19417857D01*
X20351190Y-19382142D01*
X20327380Y-19358333D01*
X20303571Y-19346428D01*
X20255952Y-19334523D01*
X20220238Y-19334523D01*
X20172619Y-19346428D01*
X20148809Y-19358333D01*
X20125000Y-19382142D01*
X20113095Y-19417857D01*
X20113095Y-19441666D01*
X20125000Y-19477380D01*
X20136904Y-19489285D01*
X20363095Y-19727380D02*
X20363095Y-19584523D01*
X20363095Y-19655952D02*
X20113095Y-19655952D01*
X20148809Y-19632142D01*
X20172619Y-19608333D01*
X20184523Y-19584523D01*
X20113095Y-19882142D02*
X20113095Y-19905952D01*
X20125000Y-19929761D01*
X20136904Y-19941666D01*
X20160714Y-19953571D01*
X20208333Y-19965476D01*
X20267857Y-19965476D01*
X20315476Y-19953571D01*
X20339285Y-19941666D01*
X20351190Y-19929761D01*
X20363095Y-19905952D01*
X20363095Y-19882142D01*
X20351190Y-19858333D01*
X20339285Y-19846428D01*
X20315476Y-19834523D01*
X20267857Y-19822619D01*
X20208333Y-19822619D01*
X20160714Y-19834523D01*
X20136904Y-19846428D01*
X20125000Y-19858333D01*
X20113095Y-19882142D01*
D12*
X18095238Y-21257142D02*
X18095238Y-21266666D01*
X18100000Y-21276190D01*
X18104761Y-21280952D01*
X18114285Y-21285714D01*
X18133333Y-21290476D01*
X18157142Y-21290476D01*
X18176190Y-21285714D01*
X18185714Y-21280952D01*
X18190476Y-21276190D01*
X18195238Y-21266666D01*
X18195238Y-21257142D01*
X18190476Y-21247619D01*
X18185714Y-21242857D01*
X18176190Y-21238095D01*
X18157142Y-21233333D01*
X18133333Y-21233333D01*
X18114285Y-21238095D01*
X18104761Y-21242857D01*
X18100000Y-21247619D01*
X18095238Y-21257142D01*
X18104761Y-21328571D02*
X18100000Y-21333333D01*
X18095238Y-21342857D01*
X18095238Y-21366666D01*
X18100000Y-21376190D01*
X18104761Y-21380952D01*
X18114285Y-21385714D01*
X18123809Y-21385714D01*
X18138095Y-21380952D01*
X18195238Y-21323809D01*
X18195238Y-21385714D01*
X18095238Y-21447619D02*
X18095238Y-21457142D01*
X18100000Y-21466666D01*
X18104761Y-21471428D01*
X18114285Y-21476190D01*
X18133333Y-21480952D01*
X18157142Y-21480952D01*
X18176190Y-21476190D01*
X18185714Y-21471428D01*
X18190476Y-21466666D01*
X18195238Y-21457142D01*
X18195238Y-21447619D01*
X18190476Y-21438095D01*
X18185714Y-21433333D01*
X18176190Y-21428571D01*
X18157142Y-21423809D01*
X18133333Y-21423809D01*
X18114285Y-21428571D01*
X18104761Y-21433333D01*
X18100000Y-21438095D01*
X18095238Y-21447619D01*
X18195238Y-21576190D02*
X18195238Y-21519047D01*
X18195238Y-21547619D02*
X18095238Y-21547619D01*
X18109523Y-21538095D01*
X18119047Y-21528571D01*
X18123809Y-21519047D01*
X18190476Y-21623809D02*
X18195238Y-21623809D01*
X18204761Y-21619047D01*
X18209523Y-21614285D01*
X18104761Y-21738095D02*
X18100000Y-21742857D01*
X18095238Y-21752380D01*
X18095238Y-21776190D01*
X18100000Y-21785714D01*
X18104761Y-21790476D01*
X18114285Y-21795238D01*
X18123809Y-21795238D01*
X18138095Y-21790476D01*
X18195238Y-21733333D01*
X18195238Y-21795238D01*
X18104761Y-21833333D02*
X18100000Y-21838095D01*
X18095238Y-21847619D01*
X18095238Y-21871428D01*
X18100000Y-21880952D01*
X18104761Y-21885714D01*
X18114285Y-21890476D01*
X18123809Y-21890476D01*
X18138095Y-21885714D01*
X18195238Y-21828571D01*
X18195238Y-21890476D01*
X18195238Y-21947619D02*
X18190476Y-21938095D01*
X18185714Y-21933333D01*
X18176190Y-21928571D01*
X18147619Y-21928571D01*
X18138095Y-21933333D01*
X18133333Y-21938095D01*
X18128571Y-21947619D01*
X18128571Y-21961904D01*
X18133333Y-21971428D01*
X18138095Y-21976190D01*
X18147619Y-21980952D01*
X18176190Y-21980952D01*
X18185714Y-21976190D01*
X18190476Y-21971428D01*
X18195238Y-21961904D01*
X18195238Y-21947619D01*
X18195238Y-22023809D02*
X18095238Y-22023809D01*
X18195238Y-22066666D02*
X18142857Y-22066666D01*
X18133333Y-22061904D01*
X18128571Y-22052380D01*
X18128571Y-22038095D01*
X18133333Y-22028571D01*
X18138095Y-22023809D01*
X18195238Y-22114285D02*
X18128571Y-22114285D01*
X18138095Y-22114285D02*
X18133333Y-22119047D01*
X18128571Y-22128571D01*
X18128571Y-22142857D01*
X18133333Y-22152380D01*
X18142857Y-22157142D01*
X18195238Y-22157142D01*
X18142857Y-22157142D02*
X18133333Y-22161904D01*
X18128571Y-22171428D01*
X18128571Y-22185714D01*
X18133333Y-22195238D01*
X18142857Y-22200000D01*
X18195238Y-22200000D01*
X18190476Y-22252380D02*
X18195238Y-22252380D01*
X18204761Y-22247619D01*
X18209523Y-22242857D01*
X18195238Y-22423809D02*
X18195238Y-22366666D01*
X18195238Y-22395238D02*
X18095238Y-22395238D01*
X18109523Y-22385714D01*
X18119047Y-22376190D01*
X18123809Y-22366666D01*
X18090476Y-22538095D02*
X18219047Y-22452380D01*
X18195238Y-22623809D02*
X18195238Y-22566666D01*
X18195238Y-22595238D02*
X18095238Y-22595238D01*
X18109523Y-22585714D01*
X18119047Y-22576190D01*
X18123809Y-22566666D01*
X18095238Y-22709523D02*
X18095238Y-22690476D01*
X18100000Y-22680952D01*
X18104761Y-22676190D01*
X18119047Y-22666666D01*
X18138095Y-22661904D01*
X18176190Y-22661904D01*
X18185714Y-22666666D01*
X18190476Y-22671428D01*
X18195238Y-22680952D01*
X18195238Y-22700000D01*
X18190476Y-22709523D01*
X18185714Y-22714285D01*
X18176190Y-22719047D01*
X18152380Y-22719047D01*
X18142857Y-22714285D01*
X18138095Y-22709523D01*
X18133333Y-22700000D01*
X18133333Y-22680952D01*
X18138095Y-22671428D01*
X18142857Y-22666666D01*
X18152380Y-22661904D01*
X18095238Y-22752380D02*
X18195238Y-22776190D01*
X18123809Y-22795238D01*
X18195238Y-22814285D01*
X18095238Y-22838095D01*
X18190476Y-22880952D02*
X18195238Y-22880952D01*
X18204761Y-22876190D01*
X18209523Y-22871428D01*
X18195238Y-23052380D02*
X18195238Y-22995238D01*
X18195238Y-23023809D02*
X18095238Y-23023809D01*
X18109523Y-23014285D01*
X18119047Y-23004761D01*
X18123809Y-22995238D01*
X18195238Y-23090476D02*
X18095238Y-23166666D01*
X18095238Y-23104761D02*
X18100000Y-23114285D01*
X18109523Y-23119047D01*
X18119047Y-23114285D01*
X18123809Y-23104761D01*
X18119047Y-23095238D01*
X18109523Y-23090476D01*
X18100000Y-23095238D01*
X18095238Y-23104761D01*
X18190476Y-23161904D02*
X18180952Y-23166666D01*
X18171428Y-23161904D01*
X18166666Y-23152380D01*
X18171428Y-23142857D01*
X18180952Y-23138095D01*
X18190476Y-23142857D01*
X18195238Y-23152380D01*
X18190476Y-23161904D01*
D13*
X18513095Y-22064285D02*
X18394047Y-21980952D01*
X18513095Y-21921428D02*
X18263095Y-21921428D01*
X18263095Y-22016666D01*
X18275000Y-22040476D01*
X18286904Y-22052380D01*
X18310714Y-22064285D01*
X18346428Y-22064285D01*
X18370238Y-22052380D01*
X18382142Y-22040476D01*
X18394047Y-22016666D01*
X18394047Y-21921428D01*
X18513095Y-22302380D02*
X18513095Y-22159523D01*
X18513095Y-22230952D02*
X18263095Y-22230952D01*
X18298809Y-22207142D01*
X18322619Y-22183333D01*
X18334523Y-22159523D01*
X18513095Y-22540476D02*
X18513095Y-22397619D01*
X18513095Y-22469047D02*
X18263095Y-22469047D01*
X18298809Y-22445238D01*
X18322619Y-22421428D01*
X18334523Y-22397619D01*
D12*
X17295238Y-21540476D02*
X17295238Y-21550000D01*
X17300000Y-21559523D01*
X17304761Y-21564285D01*
X17314285Y-21569047D01*
X17333333Y-21573809D01*
X17357142Y-21573809D01*
X17376190Y-21569047D01*
X17385714Y-21564285D01*
X17390476Y-21559523D01*
X17395238Y-21550000D01*
X17395238Y-21540476D01*
X17390476Y-21530952D01*
X17385714Y-21526190D01*
X17376190Y-21521428D01*
X17357142Y-21516666D01*
X17333333Y-21516666D01*
X17314285Y-21521428D01*
X17304761Y-21526190D01*
X17300000Y-21530952D01*
X17295238Y-21540476D01*
X17304761Y-21611904D02*
X17300000Y-21616666D01*
X17295238Y-21626190D01*
X17295238Y-21650000D01*
X17300000Y-21659523D01*
X17304761Y-21664285D01*
X17314285Y-21669047D01*
X17323809Y-21669047D01*
X17338095Y-21664285D01*
X17395238Y-21607142D01*
X17395238Y-21669047D01*
X17295238Y-21730952D02*
X17295238Y-21740476D01*
X17300000Y-21750000D01*
X17304761Y-21754761D01*
X17314285Y-21759523D01*
X17333333Y-21764285D01*
X17357142Y-21764285D01*
X17376190Y-21759523D01*
X17385714Y-21754761D01*
X17390476Y-21750000D01*
X17395238Y-21740476D01*
X17395238Y-21730952D01*
X17390476Y-21721428D01*
X17385714Y-21716666D01*
X17376190Y-21711904D01*
X17357142Y-21707142D01*
X17333333Y-21707142D01*
X17314285Y-21711904D01*
X17304761Y-21716666D01*
X17300000Y-21721428D01*
X17295238Y-21730952D01*
X17395238Y-21859523D02*
X17395238Y-21802380D01*
X17395238Y-21830952D02*
X17295238Y-21830952D01*
X17309523Y-21821428D01*
X17319047Y-21811904D01*
X17323809Y-21802380D01*
X17390476Y-21907142D02*
X17395238Y-21907142D01*
X17404761Y-21902380D01*
X17409523Y-21897619D01*
X17395238Y-22078571D02*
X17395238Y-22021428D01*
X17395238Y-22050000D02*
X17295238Y-22050000D01*
X17309523Y-22040476D01*
X17319047Y-22030952D01*
X17323809Y-22021428D01*
X17295238Y-22140476D02*
X17295238Y-22150000D01*
X17300000Y-22159523D01*
X17304761Y-22164285D01*
X17314285Y-22169047D01*
X17333333Y-22173809D01*
X17357142Y-22173809D01*
X17376190Y-22169047D01*
X17385714Y-22164285D01*
X17390476Y-22159523D01*
X17395238Y-22150000D01*
X17395238Y-22140476D01*
X17390476Y-22130952D01*
X17385714Y-22126190D01*
X17376190Y-22121428D01*
X17357142Y-22116666D01*
X17333333Y-22116666D01*
X17314285Y-22121428D01*
X17304761Y-22126190D01*
X17300000Y-22130952D01*
X17295238Y-22140476D01*
X17395238Y-22216666D02*
X17295238Y-22216666D01*
X17357142Y-22226190D02*
X17395238Y-22254761D01*
X17328571Y-22254761D02*
X17366666Y-22216666D01*
X17390476Y-22302380D02*
X17395238Y-22302380D01*
X17404761Y-22297619D01*
X17409523Y-22292857D01*
X17395238Y-22473809D02*
X17395238Y-22416666D01*
X17395238Y-22445238D02*
X17295238Y-22445238D01*
X17309523Y-22435714D01*
X17319047Y-22426190D01*
X17323809Y-22416666D01*
X17290476Y-22588095D02*
X17419047Y-22502380D01*
X17395238Y-22673809D02*
X17395238Y-22616666D01*
X17395238Y-22645238D02*
X17295238Y-22645238D01*
X17309523Y-22635714D01*
X17319047Y-22626190D01*
X17323809Y-22616666D01*
X17295238Y-22759523D02*
X17295238Y-22740476D01*
X17300000Y-22730952D01*
X17304761Y-22726190D01*
X17319047Y-22716666D01*
X17338095Y-22711904D01*
X17376190Y-22711904D01*
X17385714Y-22716666D01*
X17390476Y-22721428D01*
X17395238Y-22730952D01*
X17395238Y-22750000D01*
X17390476Y-22759523D01*
X17385714Y-22764285D01*
X17376190Y-22769047D01*
X17352380Y-22769047D01*
X17342857Y-22764285D01*
X17338095Y-22759523D01*
X17333333Y-22750000D01*
X17333333Y-22730952D01*
X17338095Y-22721428D01*
X17342857Y-22716666D01*
X17352380Y-22711904D01*
X17295238Y-22802380D02*
X17395238Y-22826190D01*
X17323809Y-22845238D01*
X17395238Y-22864285D01*
X17295238Y-22888095D01*
D13*
X17813095Y-22208333D02*
X17694047Y-22125000D01*
X17813095Y-22065476D02*
X17563095Y-22065476D01*
X17563095Y-22160714D01*
X17575000Y-22184523D01*
X17586904Y-22196428D01*
X17610714Y-22208333D01*
X17646428Y-22208333D01*
X17670238Y-22196428D01*
X17682142Y-22184523D01*
X17694047Y-22160714D01*
X17694047Y-22065476D01*
X17813095Y-22446428D02*
X17813095Y-22303571D01*
X17813095Y-22375000D02*
X17563095Y-22375000D01*
X17598809Y-22351190D01*
X17622619Y-22327380D01*
X17634523Y-22303571D01*
D12*
X26209523Y-26020238D02*
X26200000Y-26020238D01*
X26190476Y-26025000D01*
X26185714Y-26029761D01*
X26180952Y-26039285D01*
X26176190Y-26058333D01*
X26176190Y-26082142D01*
X26180952Y-26101190D01*
X26185714Y-26110714D01*
X26190476Y-26115476D01*
X26200000Y-26120238D01*
X26209523Y-26120238D01*
X26219047Y-26115476D01*
X26223809Y-26110714D01*
X26228571Y-26101190D01*
X26233333Y-26082142D01*
X26233333Y-26058333D01*
X26228571Y-26039285D01*
X26223809Y-26029761D01*
X26219047Y-26025000D01*
X26209523Y-26020238D01*
X26138095Y-26029761D02*
X26133333Y-26025000D01*
X26123809Y-26020238D01*
X26100000Y-26020238D01*
X26090476Y-26025000D01*
X26085714Y-26029761D01*
X26080952Y-26039285D01*
X26080952Y-26048809D01*
X26085714Y-26063095D01*
X26142857Y-26120238D01*
X26080952Y-26120238D01*
X26019047Y-26020238D02*
X26009523Y-26020238D01*
X26000000Y-26025000D01*
X25995238Y-26029761D01*
X25990476Y-26039285D01*
X25985714Y-26058333D01*
X25985714Y-26082142D01*
X25990476Y-26101190D01*
X25995238Y-26110714D01*
X26000000Y-26115476D01*
X26009523Y-26120238D01*
X26019047Y-26120238D01*
X26028571Y-26115476D01*
X26033333Y-26110714D01*
X26038095Y-26101190D01*
X26042857Y-26082142D01*
X26042857Y-26058333D01*
X26038095Y-26039285D01*
X26033333Y-26029761D01*
X26028571Y-26025000D01*
X26019047Y-26020238D01*
X25890476Y-26120238D02*
X25947619Y-26120238D01*
X25919047Y-26120238D02*
X25919047Y-26020238D01*
X25928571Y-26034523D01*
X25938095Y-26044047D01*
X25947619Y-26048809D01*
X25842857Y-26115476D02*
X25842857Y-26120238D01*
X25847619Y-26129761D01*
X25852380Y-26134523D01*
X25671428Y-26120238D02*
X25728571Y-26120238D01*
X25700000Y-26120238D02*
X25700000Y-26020238D01*
X25709523Y-26034523D01*
X25719047Y-26044047D01*
X25728571Y-26048809D01*
X25609523Y-26020238D02*
X25600000Y-26020238D01*
X25590476Y-26025000D01*
X25585714Y-26029761D01*
X25580952Y-26039285D01*
X25576190Y-26058333D01*
X25576190Y-26082142D01*
X25580952Y-26101190D01*
X25585714Y-26110714D01*
X25590476Y-26115476D01*
X25600000Y-26120238D01*
X25609523Y-26120238D01*
X25619047Y-26115476D01*
X25623809Y-26110714D01*
X25628571Y-26101190D01*
X25633333Y-26082142D01*
X25633333Y-26058333D01*
X25628571Y-26039285D01*
X25623809Y-26029761D01*
X25619047Y-26025000D01*
X25609523Y-26020238D01*
X25533333Y-26120238D02*
X25533333Y-26020238D01*
X25523809Y-26082142D02*
X25495238Y-26120238D01*
X25495238Y-26053571D02*
X25533333Y-26091666D01*
X25447619Y-26115476D02*
X25447619Y-26120238D01*
X25452380Y-26129761D01*
X25457142Y-26134523D01*
X25276190Y-26120238D02*
X25333333Y-26120238D01*
X25304761Y-26120238D02*
X25304761Y-26020238D01*
X25314285Y-26034523D01*
X25323809Y-26044047D01*
X25333333Y-26048809D01*
X25161904Y-26015476D02*
X25247619Y-26144047D01*
X25076190Y-26120238D02*
X25133333Y-26120238D01*
X25104761Y-26120238D02*
X25104761Y-26020238D01*
X25114285Y-26034523D01*
X25123809Y-26044047D01*
X25133333Y-26048809D01*
X24990476Y-26020238D02*
X25009523Y-26020238D01*
X25019047Y-26025000D01*
X25023809Y-26029761D01*
X25033333Y-26044047D01*
X25038095Y-26063095D01*
X25038095Y-26101190D01*
X25033333Y-26110714D01*
X25028571Y-26115476D01*
X25019047Y-26120238D01*
X25000000Y-26120238D01*
X24990476Y-26115476D01*
X24985714Y-26110714D01*
X24980952Y-26101190D01*
X24980952Y-26077380D01*
X24985714Y-26067857D01*
X24990476Y-26063095D01*
X25000000Y-26058333D01*
X25019047Y-26058333D01*
X25028571Y-26063095D01*
X25033333Y-26067857D01*
X25038095Y-26077380D01*
X24947619Y-26020238D02*
X24923809Y-26120238D01*
X24904761Y-26048809D01*
X24885714Y-26120238D01*
X24861904Y-26020238D01*
D13*
X25541666Y-25738095D02*
X25625000Y-25619047D01*
X25684523Y-25738095D02*
X25684523Y-25488095D01*
X25589285Y-25488095D01*
X25565476Y-25500000D01*
X25553571Y-25511904D01*
X25541666Y-25535714D01*
X25541666Y-25571428D01*
X25553571Y-25595238D01*
X25565476Y-25607142D01*
X25589285Y-25619047D01*
X25684523Y-25619047D01*
X25315476Y-25488095D02*
X25434523Y-25488095D01*
X25446428Y-25607142D01*
X25434523Y-25595238D01*
X25410714Y-25583333D01*
X25351190Y-25583333D01*
X25327380Y-25595238D01*
X25315476Y-25607142D01*
X25303571Y-25630952D01*
X25303571Y-25690476D01*
X25315476Y-25714285D01*
X25327380Y-25726190D01*
X25351190Y-25738095D01*
X25410714Y-25738095D01*
X25434523Y-25726190D01*
X25446428Y-25714285D01*
D12*
X18745238Y-21257142D02*
X18745238Y-21266666D01*
X18750000Y-21276190D01*
X18754761Y-21280952D01*
X18764285Y-21285714D01*
X18783333Y-21290476D01*
X18807142Y-21290476D01*
X18826190Y-21285714D01*
X18835714Y-21280952D01*
X18840476Y-21276190D01*
X18845238Y-21266666D01*
X18845238Y-21257142D01*
X18840476Y-21247619D01*
X18835714Y-21242857D01*
X18826190Y-21238095D01*
X18807142Y-21233333D01*
X18783333Y-21233333D01*
X18764285Y-21238095D01*
X18754761Y-21242857D01*
X18750000Y-21247619D01*
X18745238Y-21257142D01*
X18754761Y-21328571D02*
X18750000Y-21333333D01*
X18745238Y-21342857D01*
X18745238Y-21366666D01*
X18750000Y-21376190D01*
X18754761Y-21380952D01*
X18764285Y-21385714D01*
X18773809Y-21385714D01*
X18788095Y-21380952D01*
X18845238Y-21323809D01*
X18845238Y-21385714D01*
X18745238Y-21447619D02*
X18745238Y-21457142D01*
X18750000Y-21466666D01*
X18754761Y-21471428D01*
X18764285Y-21476190D01*
X18783333Y-21480952D01*
X18807142Y-21480952D01*
X18826190Y-21476190D01*
X18835714Y-21471428D01*
X18840476Y-21466666D01*
X18845238Y-21457142D01*
X18845238Y-21447619D01*
X18840476Y-21438095D01*
X18835714Y-21433333D01*
X18826190Y-21428571D01*
X18807142Y-21423809D01*
X18783333Y-21423809D01*
X18764285Y-21428571D01*
X18754761Y-21433333D01*
X18750000Y-21438095D01*
X18745238Y-21447619D01*
X18845238Y-21576190D02*
X18845238Y-21519047D01*
X18845238Y-21547619D02*
X18745238Y-21547619D01*
X18759523Y-21538095D01*
X18769047Y-21528571D01*
X18773809Y-21519047D01*
X18840476Y-21623809D02*
X18845238Y-21623809D01*
X18854761Y-21619047D01*
X18859523Y-21614285D01*
X18754761Y-21738095D02*
X18750000Y-21742857D01*
X18745238Y-21752380D01*
X18745238Y-21776190D01*
X18750000Y-21785714D01*
X18754761Y-21790476D01*
X18764285Y-21795238D01*
X18773809Y-21795238D01*
X18788095Y-21790476D01*
X18845238Y-21733333D01*
X18845238Y-21795238D01*
X18754761Y-21833333D02*
X18750000Y-21838095D01*
X18745238Y-21847619D01*
X18745238Y-21871428D01*
X18750000Y-21880952D01*
X18754761Y-21885714D01*
X18764285Y-21890476D01*
X18773809Y-21890476D01*
X18788095Y-21885714D01*
X18845238Y-21828571D01*
X18845238Y-21890476D01*
X18845238Y-21947619D02*
X18840476Y-21938095D01*
X18835714Y-21933333D01*
X18826190Y-21928571D01*
X18797619Y-21928571D01*
X18788095Y-21933333D01*
X18783333Y-21938095D01*
X18778571Y-21947619D01*
X18778571Y-21961904D01*
X18783333Y-21971428D01*
X18788095Y-21976190D01*
X18797619Y-21980952D01*
X18826190Y-21980952D01*
X18835714Y-21976190D01*
X18840476Y-21971428D01*
X18845238Y-21961904D01*
X18845238Y-21947619D01*
X18845238Y-22023809D02*
X18745238Y-22023809D01*
X18845238Y-22066666D02*
X18792857Y-22066666D01*
X18783333Y-22061904D01*
X18778571Y-22052380D01*
X18778571Y-22038095D01*
X18783333Y-22028571D01*
X18788095Y-22023809D01*
X18845238Y-22114285D02*
X18778571Y-22114285D01*
X18788095Y-22114285D02*
X18783333Y-22119047D01*
X18778571Y-22128571D01*
X18778571Y-22142857D01*
X18783333Y-22152380D01*
X18792857Y-22157142D01*
X18845238Y-22157142D01*
X18792857Y-22157142D02*
X18783333Y-22161904D01*
X18778571Y-22171428D01*
X18778571Y-22185714D01*
X18783333Y-22195238D01*
X18792857Y-22200000D01*
X18845238Y-22200000D01*
X18840476Y-22252380D02*
X18845238Y-22252380D01*
X18854761Y-22247619D01*
X18859523Y-22242857D01*
X18845238Y-22423809D02*
X18845238Y-22366666D01*
X18845238Y-22395238D02*
X18745238Y-22395238D01*
X18759523Y-22385714D01*
X18769047Y-22376190D01*
X18773809Y-22366666D01*
X18740476Y-22538095D02*
X18869047Y-22452380D01*
X18845238Y-22623809D02*
X18845238Y-22566666D01*
X18845238Y-22595238D02*
X18745238Y-22595238D01*
X18759523Y-22585714D01*
X18769047Y-22576190D01*
X18773809Y-22566666D01*
X18745238Y-22709523D02*
X18745238Y-22690476D01*
X18750000Y-22680952D01*
X18754761Y-22676190D01*
X18769047Y-22666666D01*
X18788095Y-22661904D01*
X18826190Y-22661904D01*
X18835714Y-22666666D01*
X18840476Y-22671428D01*
X18845238Y-22680952D01*
X18845238Y-22700000D01*
X18840476Y-22709523D01*
X18835714Y-22714285D01*
X18826190Y-22719047D01*
X18802380Y-22719047D01*
X18792857Y-22714285D01*
X18788095Y-22709523D01*
X18783333Y-22700000D01*
X18783333Y-22680952D01*
X18788095Y-22671428D01*
X18792857Y-22666666D01*
X18802380Y-22661904D01*
X18745238Y-22752380D02*
X18845238Y-22776190D01*
X18773809Y-22795238D01*
X18845238Y-22814285D01*
X18745238Y-22838095D01*
X18840476Y-22880952D02*
X18845238Y-22880952D01*
X18854761Y-22876190D01*
X18859523Y-22871428D01*
X18845238Y-23052380D02*
X18845238Y-22995238D01*
X18845238Y-23023809D02*
X18745238Y-23023809D01*
X18759523Y-23014285D01*
X18769047Y-23004761D01*
X18773809Y-22995238D01*
X18845238Y-23090476D02*
X18745238Y-23166666D01*
X18745238Y-23104761D02*
X18750000Y-23114285D01*
X18759523Y-23119047D01*
X18769047Y-23114285D01*
X18773809Y-23104761D01*
X18769047Y-23095238D01*
X18759523Y-23090476D01*
X18750000Y-23095238D01*
X18745238Y-23104761D01*
X18840476Y-23161904D02*
X18830952Y-23166666D01*
X18821428Y-23161904D01*
X18816666Y-23152380D01*
X18821428Y-23142857D01*
X18830952Y-23138095D01*
X18840476Y-23142857D01*
X18845238Y-23152380D01*
X18840476Y-23161904D01*
D13*
X19213095Y-22039285D02*
X19094047Y-21955952D01*
X19213095Y-21896428D02*
X18963095Y-21896428D01*
X18963095Y-21991666D01*
X18975000Y-22015476D01*
X18986904Y-22027380D01*
X19010714Y-22039285D01*
X19046428Y-22039285D01*
X19070238Y-22027380D01*
X19082142Y-22015476D01*
X19094047Y-21991666D01*
X19094047Y-21896428D01*
X19213095Y-22277380D02*
X19213095Y-22134523D01*
X19213095Y-22205952D02*
X18963095Y-22205952D01*
X18998809Y-22182142D01*
X19022619Y-22158333D01*
X19034523Y-22134523D01*
X18986904Y-22372619D02*
X18975000Y-22384523D01*
X18963095Y-22408333D01*
X18963095Y-22467857D01*
X18975000Y-22491666D01*
X18986904Y-22503571D01*
X19010714Y-22515476D01*
X19034523Y-22515476D01*
X19070238Y-22503571D01*
X19213095Y-22360714D01*
X19213095Y-22515476D01*
D12*
X19470238Y-21350000D02*
X19470238Y-21359523D01*
X19475000Y-21369047D01*
X19479761Y-21373809D01*
X19489285Y-21378571D01*
X19508333Y-21383333D01*
X19532142Y-21383333D01*
X19551190Y-21378571D01*
X19560714Y-21373809D01*
X19565476Y-21369047D01*
X19570238Y-21359523D01*
X19570238Y-21350000D01*
X19565476Y-21340476D01*
X19560714Y-21335714D01*
X19551190Y-21330952D01*
X19532142Y-21326190D01*
X19508333Y-21326190D01*
X19489285Y-21330952D01*
X19479761Y-21335714D01*
X19475000Y-21340476D01*
X19470238Y-21350000D01*
X19479761Y-21421428D02*
X19475000Y-21426190D01*
X19470238Y-21435714D01*
X19470238Y-21459523D01*
X19475000Y-21469047D01*
X19479761Y-21473809D01*
X19489285Y-21478571D01*
X19498809Y-21478571D01*
X19513095Y-21473809D01*
X19570238Y-21416666D01*
X19570238Y-21478571D01*
X19470238Y-21540476D02*
X19470238Y-21550000D01*
X19475000Y-21559523D01*
X19479761Y-21564285D01*
X19489285Y-21569047D01*
X19508333Y-21573809D01*
X19532142Y-21573809D01*
X19551190Y-21569047D01*
X19560714Y-21564285D01*
X19565476Y-21559523D01*
X19570238Y-21550000D01*
X19570238Y-21540476D01*
X19565476Y-21530952D01*
X19560714Y-21526190D01*
X19551190Y-21521428D01*
X19532142Y-21516666D01*
X19508333Y-21516666D01*
X19489285Y-21521428D01*
X19479761Y-21526190D01*
X19475000Y-21530952D01*
X19470238Y-21540476D01*
X19570238Y-21669047D02*
X19570238Y-21611904D01*
X19570238Y-21640476D02*
X19470238Y-21640476D01*
X19484523Y-21630952D01*
X19494047Y-21621428D01*
X19498809Y-21611904D01*
X19565476Y-21716666D02*
X19570238Y-21716666D01*
X19579761Y-21711904D01*
X19584523Y-21707142D01*
X19570238Y-21888095D02*
X19570238Y-21830952D01*
X19570238Y-21859523D02*
X19470238Y-21859523D01*
X19484523Y-21850000D01*
X19494047Y-21840476D01*
X19498809Y-21830952D01*
X19560714Y-21930952D02*
X19565476Y-21935714D01*
X19570238Y-21930952D01*
X19565476Y-21926190D01*
X19560714Y-21930952D01*
X19570238Y-21930952D01*
X19470238Y-22026190D02*
X19470238Y-21978571D01*
X19517857Y-21973809D01*
X19513095Y-21978571D01*
X19508333Y-21988095D01*
X19508333Y-22011904D01*
X19513095Y-22021428D01*
X19517857Y-22026190D01*
X19527380Y-22030952D01*
X19551190Y-22030952D01*
X19560714Y-22026190D01*
X19565476Y-22021428D01*
X19570238Y-22011904D01*
X19570238Y-21988095D01*
X19565476Y-21978571D01*
X19560714Y-21973809D01*
X19570238Y-22073809D02*
X19470238Y-22073809D01*
X19532142Y-22083333D02*
X19570238Y-22111904D01*
X19503571Y-22111904D02*
X19541666Y-22073809D01*
X19565476Y-22159523D02*
X19570238Y-22159523D01*
X19579761Y-22154761D01*
X19584523Y-22150000D01*
X19570238Y-22330952D02*
X19570238Y-22273809D01*
X19570238Y-22302380D02*
X19470238Y-22302380D01*
X19484523Y-22292857D01*
X19494047Y-22283333D01*
X19498809Y-22273809D01*
X19465476Y-22445238D02*
X19594047Y-22359523D01*
X19570238Y-22530952D02*
X19570238Y-22473809D01*
X19570238Y-22502380D02*
X19470238Y-22502380D01*
X19484523Y-22492857D01*
X19494047Y-22483333D01*
X19498809Y-22473809D01*
X19470238Y-22616666D02*
X19470238Y-22597619D01*
X19475000Y-22588095D01*
X19479761Y-22583333D01*
X19494047Y-22573809D01*
X19513095Y-22569047D01*
X19551190Y-22569047D01*
X19560714Y-22573809D01*
X19565476Y-22578571D01*
X19570238Y-22588095D01*
X19570238Y-22607142D01*
X19565476Y-22616666D01*
X19560714Y-22621428D01*
X19551190Y-22626190D01*
X19527380Y-22626190D01*
X19517857Y-22621428D01*
X19513095Y-22616666D01*
X19508333Y-22607142D01*
X19508333Y-22588095D01*
X19513095Y-22578571D01*
X19517857Y-22573809D01*
X19527380Y-22569047D01*
X19470238Y-22659523D02*
X19570238Y-22683333D01*
X19498809Y-22702380D01*
X19570238Y-22721428D01*
X19470238Y-22745238D01*
X19565476Y-22788095D02*
X19570238Y-22788095D01*
X19579761Y-22783333D01*
X19584523Y-22778571D01*
X19570238Y-22959523D02*
X19570238Y-22902380D01*
X19570238Y-22930952D02*
X19470238Y-22930952D01*
X19484523Y-22921428D01*
X19494047Y-22911904D01*
X19498809Y-22902380D01*
X19570238Y-22997619D02*
X19470238Y-23073809D01*
X19470238Y-23011904D02*
X19475000Y-23021428D01*
X19484523Y-23026190D01*
X19494047Y-23021428D01*
X19498809Y-23011904D01*
X19494047Y-23002380D01*
X19484523Y-22997619D01*
X19475000Y-23002380D01*
X19470238Y-23011904D01*
X19565476Y-23069047D02*
X19555952Y-23073809D01*
X19546428Y-23069047D01*
X19541666Y-23059523D01*
X19546428Y-23050000D01*
X19555952Y-23045238D01*
X19565476Y-23050000D01*
X19570238Y-23059523D01*
X19565476Y-23069047D01*
D13*
X19938095Y-22158333D02*
X19819047Y-22075000D01*
X19938095Y-22015476D02*
X19688095Y-22015476D01*
X19688095Y-22110714D01*
X19700000Y-22134523D01*
X19711904Y-22146428D01*
X19735714Y-22158333D01*
X19771428Y-22158333D01*
X19795238Y-22146428D01*
X19807142Y-22134523D01*
X19819047Y-22110714D01*
X19819047Y-22015476D01*
X19938095Y-22277380D02*
X19938095Y-22325000D01*
X19926190Y-22348809D01*
X19914285Y-22360714D01*
X19878571Y-22384523D01*
X19830952Y-22396428D01*
X19735714Y-22396428D01*
X19711904Y-22384523D01*
X19700000Y-22372619D01*
X19688095Y-22348809D01*
X19688095Y-22301190D01*
X19700000Y-22277380D01*
X19711904Y-22265476D01*
X19735714Y-22253571D01*
X19795238Y-22253571D01*
X19819047Y-22265476D01*
X19830952Y-22277380D01*
X19842857Y-22301190D01*
X19842857Y-22348809D01*
X19830952Y-22372619D01*
X19819047Y-22384523D01*
X19795238Y-22396428D01*
D12*
X19629761Y-18920238D02*
X19677380Y-18920238D01*
X19677380Y-18820238D01*
X19596428Y-18920238D02*
X19596428Y-18820238D01*
X19572619Y-18820238D01*
X19558333Y-18825000D01*
X19548809Y-18834523D01*
X19544047Y-18844047D01*
X19539285Y-18863095D01*
X19539285Y-18877380D01*
X19544047Y-18896428D01*
X19548809Y-18905952D01*
X19558333Y-18915476D01*
X19572619Y-18920238D01*
X19596428Y-18920238D01*
X19477380Y-18820238D02*
X19458333Y-18820238D01*
X19448809Y-18825000D01*
X19439285Y-18834523D01*
X19434523Y-18853571D01*
X19434523Y-18886904D01*
X19439285Y-18905952D01*
X19448809Y-18915476D01*
X19458333Y-18920238D01*
X19477380Y-18920238D01*
X19486904Y-18915476D01*
X19496428Y-18905952D01*
X19501190Y-18886904D01*
X19501190Y-18853571D01*
X19496428Y-18834523D01*
X19486904Y-18825000D01*
X19477380Y-18820238D01*
X19391666Y-18882142D02*
X19315476Y-18882142D01*
X19277380Y-18820238D02*
X19210714Y-18920238D01*
X19210714Y-18820238D02*
X19277380Y-18920238D01*
X19177380Y-18829761D02*
X19172619Y-18825000D01*
X19163095Y-18820238D01*
X19139285Y-18820238D01*
X19129761Y-18825000D01*
X19125000Y-18829761D01*
X19120238Y-18839285D01*
X19120238Y-18848809D01*
X19125000Y-18863095D01*
X19182142Y-18920238D01*
X19120238Y-18920238D01*
X19082142Y-18915476D02*
X19067857Y-18920238D01*
X19044047Y-18920238D01*
X19034523Y-18915476D01*
X19029761Y-18910714D01*
X19025000Y-18901190D01*
X19025000Y-18891666D01*
X19029761Y-18882142D01*
X19034523Y-18877380D01*
X19044047Y-18872619D01*
X19063095Y-18867857D01*
X19072619Y-18863095D01*
X19077380Y-18858333D01*
X19082142Y-18848809D01*
X19082142Y-18839285D01*
X19077380Y-18829761D01*
X19072619Y-18825000D01*
X19063095Y-18820238D01*
X19039285Y-18820238D01*
X19025000Y-18825000D01*
X18963095Y-18820238D02*
X18944047Y-18820238D01*
X18934523Y-18825000D01*
X18925000Y-18834523D01*
X18920238Y-18853571D01*
X18920238Y-18886904D01*
X18925000Y-18905952D01*
X18934523Y-18915476D01*
X18944047Y-18920238D01*
X18963095Y-18920238D01*
X18972619Y-18915476D01*
X18982142Y-18905952D01*
X18986904Y-18886904D01*
X18986904Y-18853571D01*
X18982142Y-18834523D01*
X18972619Y-18825000D01*
X18963095Y-18820238D01*
X18877380Y-18920238D02*
X18877380Y-18820238D01*
X18820238Y-18920238D01*
X18820238Y-18820238D01*
X18772619Y-18882142D02*
X18696428Y-18882142D01*
X18596428Y-18920238D02*
X18653571Y-18920238D01*
X18625000Y-18920238D02*
X18625000Y-18820238D01*
X18634523Y-18834523D01*
X18644047Y-18844047D01*
X18653571Y-18848809D01*
X18553571Y-18910714D02*
X18548809Y-18915476D01*
X18553571Y-18920238D01*
X18558333Y-18915476D01*
X18553571Y-18910714D01*
X18553571Y-18920238D01*
X18510714Y-18829761D02*
X18505952Y-18825000D01*
X18496428Y-18820238D01*
X18472619Y-18820238D01*
X18463095Y-18825000D01*
X18458333Y-18829761D01*
X18453571Y-18839285D01*
X18453571Y-18848809D01*
X18458333Y-18863095D01*
X18515476Y-18920238D01*
X18453571Y-18920238D01*
X18425000Y-18820238D02*
X18391666Y-18920238D01*
X18358333Y-18820238D01*
D13*
X19152380Y-18090476D02*
X19152380Y-18252380D01*
X19142857Y-18271428D01*
X19133333Y-18280952D01*
X19114285Y-18290476D01*
X19076190Y-18290476D01*
X19057142Y-18280952D01*
X19047619Y-18271428D01*
X19038095Y-18252380D01*
X19038095Y-18090476D01*
X18838095Y-18290476D02*
X18952380Y-18290476D01*
X18895238Y-18290476D02*
X18895238Y-18090476D01*
X18914285Y-18119047D01*
X18933333Y-18138095D01*
X18952380Y-18147619D01*
D12*
X19629761Y-25895238D02*
X19677380Y-25895238D01*
X19677380Y-25795238D01*
X19596428Y-25895238D02*
X19596428Y-25795238D01*
X19572619Y-25795238D01*
X19558333Y-25800000D01*
X19548809Y-25809523D01*
X19544047Y-25819047D01*
X19539285Y-25838095D01*
X19539285Y-25852380D01*
X19544047Y-25871428D01*
X19548809Y-25880952D01*
X19558333Y-25890476D01*
X19572619Y-25895238D01*
X19596428Y-25895238D01*
X19477380Y-25795238D02*
X19458333Y-25795238D01*
X19448809Y-25800000D01*
X19439285Y-25809523D01*
X19434523Y-25828571D01*
X19434523Y-25861904D01*
X19439285Y-25880952D01*
X19448809Y-25890476D01*
X19458333Y-25895238D01*
X19477380Y-25895238D01*
X19486904Y-25890476D01*
X19496428Y-25880952D01*
X19501190Y-25861904D01*
X19501190Y-25828571D01*
X19496428Y-25809523D01*
X19486904Y-25800000D01*
X19477380Y-25795238D01*
X19391666Y-25857142D02*
X19315476Y-25857142D01*
X19277380Y-25795238D02*
X19210714Y-25895238D01*
X19210714Y-25795238D02*
X19277380Y-25895238D01*
X19177380Y-25804761D02*
X19172619Y-25800000D01*
X19163095Y-25795238D01*
X19139285Y-25795238D01*
X19129761Y-25800000D01*
X19125000Y-25804761D01*
X19120238Y-25814285D01*
X19120238Y-25823809D01*
X19125000Y-25838095D01*
X19182142Y-25895238D01*
X19120238Y-25895238D01*
X19082142Y-25890476D02*
X19067857Y-25895238D01*
X19044047Y-25895238D01*
X19034523Y-25890476D01*
X19029761Y-25885714D01*
X19025000Y-25876190D01*
X19025000Y-25866666D01*
X19029761Y-25857142D01*
X19034523Y-25852380D01*
X19044047Y-25847619D01*
X19063095Y-25842857D01*
X19072619Y-25838095D01*
X19077380Y-25833333D01*
X19082142Y-25823809D01*
X19082142Y-25814285D01*
X19077380Y-25804761D01*
X19072619Y-25800000D01*
X19063095Y-25795238D01*
X19039285Y-25795238D01*
X19025000Y-25800000D01*
X18963095Y-25795238D02*
X18944047Y-25795238D01*
X18934523Y-25800000D01*
X18925000Y-25809523D01*
X18920238Y-25828571D01*
X18920238Y-25861904D01*
X18925000Y-25880952D01*
X18934523Y-25890476D01*
X18944047Y-25895238D01*
X18963095Y-25895238D01*
X18972619Y-25890476D01*
X18982142Y-25880952D01*
X18986904Y-25861904D01*
X18986904Y-25828571D01*
X18982142Y-25809523D01*
X18972619Y-25800000D01*
X18963095Y-25795238D01*
X18877380Y-25895238D02*
X18877380Y-25795238D01*
X18820238Y-25895238D01*
X18820238Y-25795238D01*
X18772619Y-25857142D02*
X18696428Y-25857142D01*
X18596428Y-25895238D02*
X18653571Y-25895238D01*
X18625000Y-25895238D02*
X18625000Y-25795238D01*
X18634523Y-25809523D01*
X18644047Y-25819047D01*
X18653571Y-25823809D01*
X18553571Y-25885714D02*
X18548809Y-25890476D01*
X18553571Y-25895238D01*
X18558333Y-25890476D01*
X18553571Y-25885714D01*
X18553571Y-25895238D01*
X18510714Y-25804761D02*
X18505952Y-25800000D01*
X18496428Y-25795238D01*
X18472619Y-25795238D01*
X18463095Y-25800000D01*
X18458333Y-25804761D01*
X18453571Y-25814285D01*
X18453571Y-25823809D01*
X18458333Y-25838095D01*
X18515476Y-25895238D01*
X18453571Y-25895238D01*
X18425000Y-25795238D02*
X18391666Y-25895238D01*
X18358333Y-25795238D01*
D13*
X19052380Y-25090476D02*
X19052380Y-25252380D01*
X19042857Y-25271428D01*
X19033333Y-25280952D01*
X19014285Y-25290476D01*
X18976190Y-25290476D01*
X18957142Y-25280952D01*
X18947619Y-25271428D01*
X18938095Y-25252380D01*
X18938095Y-25090476D01*
X18757142Y-25090476D02*
X18795238Y-25090476D01*
X18814285Y-25100000D01*
X18823809Y-25109523D01*
X18842857Y-25138095D01*
X18852380Y-25176190D01*
X18852380Y-25252380D01*
X18842857Y-25271428D01*
X18833333Y-25280952D01*
X18814285Y-25290476D01*
X18776190Y-25290476D01*
X18757142Y-25280952D01*
X18747619Y-25271428D01*
X18738095Y-25252380D01*
X18738095Y-25204761D01*
X18747619Y-25185714D01*
X18757142Y-25176190D01*
X18776190Y-25166666D01*
X18814285Y-25166666D01*
X18833333Y-25176190D01*
X18842857Y-25185714D01*
X18852380Y-25204761D01*
D12*
X23410714Y-18321428D02*
X23415476Y-18316666D01*
X23420238Y-18302380D01*
X23420238Y-18292857D01*
X23415476Y-18278571D01*
X23405952Y-18269047D01*
X23396428Y-18264285D01*
X23377380Y-18259523D01*
X23363095Y-18259523D01*
X23344047Y-18264285D01*
X23334523Y-18269047D01*
X23325000Y-18278571D01*
X23320238Y-18292857D01*
X23320238Y-18302380D01*
X23325000Y-18316666D01*
X23329761Y-18321428D01*
X23420238Y-18364285D02*
X23353571Y-18364285D01*
X23372619Y-18364285D02*
X23363095Y-18369047D01*
X23358333Y-18373809D01*
X23353571Y-18383333D01*
X23353571Y-18392857D01*
X23353571Y-18416666D02*
X23420238Y-18440476D01*
X23353571Y-18464285D02*
X23420238Y-18440476D01*
X23444047Y-18430952D01*
X23448809Y-18426190D01*
X23453571Y-18416666D01*
X23415476Y-18497619D02*
X23420238Y-18507142D01*
X23420238Y-18526190D01*
X23415476Y-18535714D01*
X23405952Y-18540476D01*
X23401190Y-18540476D01*
X23391666Y-18535714D01*
X23386904Y-18526190D01*
X23386904Y-18511904D01*
X23382142Y-18502380D01*
X23372619Y-18497619D01*
X23367857Y-18497619D01*
X23358333Y-18502380D01*
X23353571Y-18511904D01*
X23353571Y-18526190D01*
X23358333Y-18535714D01*
X23353571Y-18569047D02*
X23353571Y-18607142D01*
X23320238Y-18583333D02*
X23405952Y-18583333D01*
X23415476Y-18588095D01*
X23420238Y-18597619D01*
X23420238Y-18607142D01*
X23420238Y-18683333D02*
X23367857Y-18683333D01*
X23358333Y-18678571D01*
X23353571Y-18669047D01*
X23353571Y-18650000D01*
X23358333Y-18640476D01*
X23415476Y-18683333D02*
X23420238Y-18673809D01*
X23420238Y-18650000D01*
X23415476Y-18640476D01*
X23405952Y-18635714D01*
X23396428Y-18635714D01*
X23386904Y-18640476D01*
X23382142Y-18650000D01*
X23382142Y-18673809D01*
X23377380Y-18683333D01*
X23420238Y-18745238D02*
X23415476Y-18735714D01*
X23405952Y-18730952D01*
X23320238Y-18730952D01*
X23320238Y-18878571D02*
X23320238Y-18897619D01*
X23325000Y-18907142D01*
X23334523Y-18916666D01*
X23353571Y-18921428D01*
X23386904Y-18921428D01*
X23405952Y-18916666D01*
X23415476Y-18907142D01*
X23420238Y-18897619D01*
X23420238Y-18878571D01*
X23415476Y-18869047D01*
X23405952Y-18859523D01*
X23386904Y-18854761D01*
X23353571Y-18854761D01*
X23334523Y-18859523D01*
X23325000Y-18869047D01*
X23320238Y-18878571D01*
X23415476Y-18959523D02*
X23420238Y-18969047D01*
X23420238Y-18988095D01*
X23415476Y-18997619D01*
X23405952Y-19002380D01*
X23401190Y-19002380D01*
X23391666Y-18997619D01*
X23386904Y-18988095D01*
X23386904Y-18973809D01*
X23382142Y-18964285D01*
X23372619Y-18959523D01*
X23367857Y-18959523D01*
X23358333Y-18964285D01*
X23353571Y-18973809D01*
X23353571Y-18988095D01*
X23358333Y-18997619D01*
X23415476Y-19088095D02*
X23420238Y-19078571D01*
X23420238Y-19059523D01*
X23415476Y-19050000D01*
X23410714Y-19045238D01*
X23401190Y-19040476D01*
X23372619Y-19040476D01*
X23363095Y-19045238D01*
X23358333Y-19050000D01*
X23353571Y-19059523D01*
X23353571Y-19078571D01*
X23358333Y-19088095D01*
X23420238Y-19130952D02*
X23353571Y-19130952D01*
X23320238Y-19130952D02*
X23325000Y-19126190D01*
X23329761Y-19130952D01*
X23325000Y-19135714D01*
X23320238Y-19130952D01*
X23329761Y-19130952D01*
X23420238Y-19192857D02*
X23415476Y-19183333D01*
X23405952Y-19178571D01*
X23320238Y-19178571D01*
X23420238Y-19245238D02*
X23415476Y-19235714D01*
X23405952Y-19230952D01*
X23320238Y-19230952D01*
X23420238Y-19326190D02*
X23367857Y-19326190D01*
X23358333Y-19321428D01*
X23353571Y-19311904D01*
X23353571Y-19292857D01*
X23358333Y-19283333D01*
X23415476Y-19326190D02*
X23420238Y-19316666D01*
X23420238Y-19292857D01*
X23415476Y-19283333D01*
X23405952Y-19278571D01*
X23396428Y-19278571D01*
X23386904Y-19283333D01*
X23382142Y-19292857D01*
X23382142Y-19316666D01*
X23377380Y-19326190D01*
X23353571Y-19359523D02*
X23353571Y-19397619D01*
X23320238Y-19373809D02*
X23405952Y-19373809D01*
X23415476Y-19378571D01*
X23420238Y-19388095D01*
X23420238Y-19397619D01*
X23420238Y-19445238D02*
X23415476Y-19435714D01*
X23410714Y-19430952D01*
X23401190Y-19426190D01*
X23372619Y-19426190D01*
X23363095Y-19430952D01*
X23358333Y-19435714D01*
X23353571Y-19445238D01*
X23353571Y-19459523D01*
X23358333Y-19469047D01*
X23363095Y-19473809D01*
X23372619Y-19478571D01*
X23401190Y-19478571D01*
X23410714Y-19473809D01*
X23415476Y-19469047D01*
X23420238Y-19459523D01*
X23420238Y-19445238D01*
X23420238Y-19521428D02*
X23353571Y-19521428D01*
X23372619Y-19521428D02*
X23363095Y-19526190D01*
X23358333Y-19530952D01*
X23353571Y-19540476D01*
X23353571Y-19550000D01*
M02*
