%FSLAX45Y45*%
G04 Gerber Fmt 4.5, Leading zero omitted, Abs format (unit mm)*
G04 Created by KiCad (PCBNEW (5.0.0)) date 11/20/18 23:38:03*
%MOMM*%
%LPD*%
G01*
G04 APERTURE LIST*
%ADD10C,0.010000*%
%ADD11C,0.050000*%
%ADD12C,0.200000*%
%ADD13C,0.300000*%
G04 APERTURE END LIST*
D10*
X2932500Y-2265000D02*
G75*
G02X2812500Y-2265000I-60000J0D01*
G01*
X2932500Y-2095000D02*
G75*
G03X2812500Y-2095000I-60000J0D01*
G01*
X2812500Y-2095000D02*
G75*
G03X2812500Y-2265000I0J-85000D01*
G01*
D11*
X2850000Y-2650000D02*
G75*
G03X2690000Y-2650000I-80000J0D01*
G01*
X2850000Y-2650000D02*
X2952500Y-2650000D01*
D10*
X2932500Y-2095000D02*
X2932500Y-2265000D01*
D11*
X1752500Y-1710000D02*
G75*
G03X1702500Y-1760000I0J-50000D01*
G01*
X1702500Y-2600000D02*
G75*
G03X1752500Y-2650000I50000J0D01*
G01*
X1702500Y-1760000D02*
X1702500Y-2600000D01*
X2952500Y-1710000D02*
X1752500Y-1710000D01*
X1752500Y-2650000D02*
X2690000Y-2650000D01*
X3002500Y-2180000D02*
X3002500Y-2167000D01*
X3002500Y-2167000D02*
X3002500Y-2153000D01*
X3002500Y-2153000D02*
X3002500Y-2140000D01*
X3002500Y-2140000D02*
X3002500Y-2126000D01*
X3002500Y-2126000D02*
X3001500Y-2113000D01*
X3001500Y-2113000D02*
X3001500Y-2099000D01*
X3001500Y-2099000D02*
X3001500Y-2086000D01*
X3001500Y-2086000D02*
X3000500Y-2073000D01*
X3000500Y-2073000D02*
X3000500Y-2059000D01*
X3000500Y-2059000D02*
X2999500Y-2046000D01*
X2999500Y-2046000D02*
X2998500Y-2033000D01*
X2998500Y-2033000D02*
X2998500Y-2020000D01*
X2998500Y-2020000D02*
X2997500Y-2007000D01*
X2997500Y-2007000D02*
X2996500Y-1995000D01*
X2996500Y-1995000D02*
X2995500Y-1982000D01*
X2995500Y-1982000D02*
X2994500Y-1970000D01*
X2994500Y-1970000D02*
X2993500Y-1957000D01*
X2993500Y-1957000D02*
X2992500Y-1945000D01*
X2992500Y-1945000D02*
X2991500Y-1933000D01*
X2991500Y-1933000D02*
X2990500Y-1921000D01*
X2990500Y-1921000D02*
X2989500Y-1909000D01*
X2989500Y-1909000D02*
X2988500Y-1897000D01*
X2988500Y-1897000D02*
X2986500Y-1886000D01*
X2986500Y-1886000D02*
X2985500Y-1874000D01*
X2985500Y-1874000D02*
X2984500Y-1863000D01*
X2984500Y-1863000D02*
X2982500Y-1852000D01*
X2982500Y-1852000D02*
X2981500Y-1842000D01*
X2981500Y-1842000D02*
X2979500Y-1831000D01*
X2979500Y-1831000D02*
X2978500Y-1821000D01*
X2978500Y-1821000D02*
X2976500Y-1811000D01*
X2976500Y-1811000D02*
X2974500Y-1801000D01*
X2974500Y-1801000D02*
X2973500Y-1791000D01*
X2973500Y-1791000D02*
X2971500Y-1782000D01*
X2971500Y-1782000D02*
X2969500Y-1772000D01*
X2969500Y-1772000D02*
X2967500Y-1764000D01*
X2967500Y-1764000D02*
X2965500Y-1755000D01*
X2965500Y-1755000D02*
X2964500Y-1746000D01*
X2964500Y-1746000D02*
X2962500Y-1738000D01*
X2962500Y-1738000D02*
X2960500Y-1730000D01*
X2960500Y-1730000D02*
X2958500Y-1723000D01*
X2958500Y-1723000D02*
X2955500Y-1715000D01*
X2955500Y-1715000D02*
X2952500Y-1710000D01*
X2952500Y-2650000D02*
X2955500Y-2645000D01*
X2955500Y-2645000D02*
X2958500Y-2637000D01*
X2958500Y-2637000D02*
X2960500Y-2630000D01*
X2960500Y-2630000D02*
X2962500Y-2622000D01*
X2962500Y-2622000D02*
X2964500Y-2614000D01*
X2964500Y-2614000D02*
X2965500Y-2605000D01*
X2965500Y-2605000D02*
X2967500Y-2596000D01*
X2967500Y-2596000D02*
X2969500Y-2588000D01*
X2969500Y-2588000D02*
X2971500Y-2578000D01*
X2971500Y-2578000D02*
X2973500Y-2569000D01*
X2973500Y-2569000D02*
X2974500Y-2559000D01*
X2974500Y-2559000D02*
X2976500Y-2549000D01*
X2976500Y-2549000D02*
X2978500Y-2539000D01*
X2978500Y-2539000D02*
X2979500Y-2529000D01*
X2979500Y-2529000D02*
X2981500Y-2518000D01*
X2981500Y-2518000D02*
X2982500Y-2508000D01*
X2982500Y-2508000D02*
X2984500Y-2497000D01*
X2984500Y-2497000D02*
X2985500Y-2486000D01*
X2985500Y-2486000D02*
X2986500Y-2474000D01*
X2986500Y-2474000D02*
X2988500Y-2463000D01*
X2988500Y-2463000D02*
X2989500Y-2451000D01*
X2989500Y-2451000D02*
X2990500Y-2439000D01*
X2990500Y-2439000D02*
X2991500Y-2427000D01*
X2991500Y-2427000D02*
X2992500Y-2415000D01*
X2992500Y-2415000D02*
X2993500Y-2403000D01*
X2993500Y-2403000D02*
X2994500Y-2390000D01*
X2994500Y-2390000D02*
X2995500Y-2378000D01*
X2995500Y-2378000D02*
X2996500Y-2365000D01*
X2996500Y-2365000D02*
X2997500Y-2353000D01*
X2997500Y-2353000D02*
X2998500Y-2340000D01*
X2998500Y-2340000D02*
X2998500Y-2327000D01*
X2998500Y-2327000D02*
X2999500Y-2314000D01*
X2999500Y-2314000D02*
X3000500Y-2301000D01*
X3000500Y-2301000D02*
X3000500Y-2287000D01*
X3000500Y-2287000D02*
X3001500Y-2274000D01*
X3001500Y-2274000D02*
X3001500Y-2261000D01*
X3001500Y-2261000D02*
X3001500Y-2247000D01*
X3001500Y-2247000D02*
X3002500Y-2234000D01*
X3002500Y-2234000D02*
X3002500Y-2220000D01*
X3002500Y-2220000D02*
X3002500Y-2207000D01*
X3002500Y-2207000D02*
X3002500Y-2193000D01*
X3002500Y-2193000D02*
X3002500Y-2180000D01*
D12*
X1735000Y-2487500D02*
X1745000Y-2497500D01*
X1745000Y-2487500D02*
X1735000Y-2497500D01*
X1735000Y-2527500D02*
X1745000Y-2537500D01*
X1745000Y-2527500D02*
X1735000Y-2537500D01*
X1775000Y-2487500D02*
X1785000Y-2497500D01*
X1785000Y-2487500D02*
X1775000Y-2497500D01*
X1775000Y-2527500D02*
X1785000Y-2537500D01*
X1785000Y-2527500D02*
X1775000Y-2537500D01*
X1775000Y-2567500D02*
X1785000Y-2577500D01*
X1785000Y-2567500D02*
X1775000Y-2577500D01*
X1815000Y-2487500D02*
X1825000Y-2497500D01*
X1825000Y-2487500D02*
X1815000Y-2497500D01*
X1815000Y-2527500D02*
X1825000Y-2537500D01*
X1825000Y-2527500D02*
X1815000Y-2537500D01*
X1815000Y-2602500D02*
X1825000Y-2612500D01*
X1825000Y-2602500D02*
X1815000Y-2612500D01*
X1855000Y-2602500D02*
X1865000Y-2612500D01*
X1865000Y-2602500D02*
X1855000Y-2612500D01*
X1915000Y-2210000D02*
X1925000Y-2220000D01*
X1925000Y-2210000D02*
X1915000Y-2220000D01*
X1942500Y-2112500D02*
X1952500Y-2122500D01*
X1952500Y-2112500D02*
X1942500Y-2122500D01*
X2155000Y-1855000D02*
X2165000Y-1865000D01*
X2165000Y-1855000D02*
X2155000Y-1865000D01*
X2157500Y-1832500D02*
X2167500Y-1842500D01*
X2167500Y-1832500D02*
X2157500Y-1842500D01*
X2180000Y-1855000D02*
X2190000Y-1865000D01*
X2190000Y-1855000D02*
X2180000Y-1865000D01*
X2247500Y-1845000D02*
X2257500Y-1855000D01*
X2257500Y-1845000D02*
X2247500Y-1855000D01*
X2260000Y-1857500D02*
X2270000Y-1867500D01*
X2270000Y-1857500D02*
X2260000Y-1867500D01*
X2280000Y-1852500D02*
X2290000Y-1862500D01*
X2290000Y-1852500D02*
X2280000Y-1862500D01*
X2302500Y-1850000D02*
X2312500Y-1860000D01*
X2312500Y-1850000D02*
X2302500Y-1860000D01*
X2327500Y-1850000D02*
X2337500Y-1860000D01*
X2337500Y-1850000D02*
X2327500Y-1860000D01*
X2359000Y-1862500D02*
X2369000Y-1872500D01*
X2369000Y-1862500D02*
X2359000Y-1872500D01*
X2402500Y-1855000D02*
X2412500Y-1865000D01*
X2412500Y-1855000D02*
X2402500Y-1865000D01*
X2425000Y-1852500D02*
X2435000Y-1862500D01*
X2435000Y-1852500D02*
X2425000Y-1862500D01*
X2505000Y-1847500D02*
X2515000Y-1857500D01*
X2515000Y-1847500D02*
X2505000Y-1857500D01*
X2522500Y-1855000D02*
X2532500Y-1865000D01*
X2532500Y-1855000D02*
X2522500Y-1865000D01*
X2765000Y-2002500D02*
X2775000Y-2012500D01*
X2775000Y-2002500D02*
X2765000Y-2012500D01*
X2800000Y-1840000D02*
X2810000Y-1850000D01*
X2810000Y-1840000D02*
X2800000Y-1850000D01*
X2910000Y-2342500D02*
X2920000Y-2352500D01*
X2920000Y-2342500D02*
X2910000Y-2352500D01*
X2945000Y-2487500D02*
X2955000Y-2497500D01*
X2955000Y-2487500D02*
X2945000Y-2497500D01*
D13*
X1986428Y-3118214D02*
X1986428Y-2818214D01*
X2057857Y-2818214D01*
X2100714Y-2832500D01*
X2129286Y-2861071D01*
X2143571Y-2889643D01*
X2157857Y-2946786D01*
X2157857Y-2989643D01*
X2143571Y-3046786D01*
X2129286Y-3075357D01*
X2100714Y-3103929D01*
X2057857Y-3118214D01*
X1986428Y-3118214D01*
X2286428Y-3118214D02*
X2286428Y-2918214D01*
X2286428Y-2975357D02*
X2300714Y-2946786D01*
X2315000Y-2932500D01*
X2343571Y-2918214D01*
X2372143Y-2918214D01*
X2472143Y-3118214D02*
X2472143Y-2918214D01*
X2472143Y-2818214D02*
X2457857Y-2832500D01*
X2472143Y-2846786D01*
X2486428Y-2832500D01*
X2472143Y-2818214D01*
X2472143Y-2846786D01*
X2657857Y-3118214D02*
X2629286Y-3103929D01*
X2615000Y-3075357D01*
X2615000Y-2818214D01*
X2815000Y-3118214D02*
X2786428Y-3103929D01*
X2772143Y-3075357D01*
X2772143Y-2818214D01*
X3157857Y-3118214D02*
X3157857Y-2818214D01*
X3257857Y-3032500D01*
X3357857Y-2818214D01*
X3357857Y-3118214D01*
X3629286Y-3118214D02*
X3629286Y-2961071D01*
X3615000Y-2932500D01*
X3586428Y-2918214D01*
X3529286Y-2918214D01*
X3500714Y-2932500D01*
X3629286Y-3103929D02*
X3600714Y-3118214D01*
X3529286Y-3118214D01*
X3500714Y-3103929D01*
X3486428Y-3075357D01*
X3486428Y-3046786D01*
X3500714Y-3018214D01*
X3529286Y-3003929D01*
X3600714Y-3003929D01*
X3629286Y-2989643D01*
X3772143Y-2918214D02*
X3772143Y-3218214D01*
X3772143Y-2932500D02*
X3800714Y-2918214D01*
X3857857Y-2918214D01*
X3886428Y-2932500D01*
X3900714Y-2946786D01*
X3915000Y-2975357D01*
X3915000Y-3061071D01*
X3900714Y-3089643D01*
X3886428Y-3103929D01*
X3857857Y-3118214D01*
X3800714Y-3118214D01*
X3772143Y-3103929D01*
X4043571Y-3089643D02*
X4057857Y-3103929D01*
X4043571Y-3118214D01*
X4029286Y-3103929D01*
X4043571Y-3089643D01*
X4043571Y-3118214D01*
X4043571Y-2932500D02*
X4057857Y-2946786D01*
X4043571Y-2961071D01*
X4029286Y-2946786D01*
X4043571Y-2932500D01*
X4043571Y-2961071D01*
X1690000Y-3607500D02*
X1700000Y-3617500D01*
X1700000Y-3607500D02*
X1690000Y-3617500D01*
X2043571Y-3448214D02*
X2072143Y-3448214D01*
X2100714Y-3462500D01*
X2115000Y-3476786D01*
X2129286Y-3505357D01*
X2143571Y-3562500D01*
X2143571Y-3633929D01*
X2129286Y-3691071D01*
X2115000Y-3719643D01*
X2100714Y-3733929D01*
X2072143Y-3748214D01*
X2043571Y-3748214D01*
X2015000Y-3733929D01*
X2000714Y-3719643D01*
X1986428Y-3691071D01*
X1972143Y-3633929D01*
X1972143Y-3562500D01*
X1986428Y-3505357D01*
X2000714Y-3476786D01*
X2015000Y-3462500D01*
X2043571Y-3448214D01*
X2272143Y-3719643D02*
X2286428Y-3733929D01*
X2272143Y-3748214D01*
X2257857Y-3733929D01*
X2272143Y-3719643D01*
X2272143Y-3748214D01*
X2572143Y-3748214D02*
X2400714Y-3748214D01*
X2486428Y-3748214D02*
X2486428Y-3448214D01*
X2457857Y-3491071D01*
X2429286Y-3519643D01*
X2400714Y-3533929D01*
X2757857Y-3448214D02*
X2786428Y-3448214D01*
X2815000Y-3462500D01*
X2829286Y-3476786D01*
X2843571Y-3505357D01*
X2857857Y-3562500D01*
X2857857Y-3633929D01*
X2843571Y-3691071D01*
X2829286Y-3719643D01*
X2815000Y-3733929D01*
X2786428Y-3748214D01*
X2757857Y-3748214D01*
X2729286Y-3733929D01*
X2715000Y-3719643D01*
X2700714Y-3691071D01*
X2686428Y-3633929D01*
X2686428Y-3562500D01*
X2700714Y-3505357D01*
X2715000Y-3476786D01*
X2729286Y-3462500D01*
X2757857Y-3448214D01*
X2986428Y-3748214D02*
X2986428Y-3548214D01*
X2986428Y-3576786D02*
X3000714Y-3562500D01*
X3029286Y-3548214D01*
X3072143Y-3548214D01*
X3100714Y-3562500D01*
X3115000Y-3591071D01*
X3115000Y-3748214D01*
X3115000Y-3591071D02*
X3129286Y-3562500D01*
X3157857Y-3548214D01*
X3200714Y-3548214D01*
X3229286Y-3562500D01*
X3243571Y-3591071D01*
X3243571Y-3748214D01*
X3386428Y-3748214D02*
X3386428Y-3548214D01*
X3386428Y-3576786D02*
X3400714Y-3562500D01*
X3429286Y-3548214D01*
X3472143Y-3548214D01*
X3500714Y-3562500D01*
X3515000Y-3591071D01*
X3515000Y-3748214D01*
X3515000Y-3591071D02*
X3529286Y-3562500D01*
X3557857Y-3548214D01*
X3600714Y-3548214D01*
X3629286Y-3562500D01*
X3643571Y-3591071D01*
X3643571Y-3748214D01*
X4229286Y-3433929D02*
X3972143Y-3819643D01*
X4615000Y-3448214D02*
X4643571Y-3448214D01*
X4672143Y-3462500D01*
X4686428Y-3476786D01*
X4700714Y-3505357D01*
X4715000Y-3562500D01*
X4715000Y-3633929D01*
X4700714Y-3691071D01*
X4686428Y-3719643D01*
X4672143Y-3733929D01*
X4643571Y-3748214D01*
X4615000Y-3748214D01*
X4586428Y-3733929D01*
X4572143Y-3719643D01*
X4557857Y-3691071D01*
X4543571Y-3633929D01*
X4543571Y-3562500D01*
X4557857Y-3505357D01*
X4572143Y-3476786D01*
X4586428Y-3462500D01*
X4615000Y-3448214D01*
X4843571Y-3719643D02*
X4857857Y-3733929D01*
X4843571Y-3748214D01*
X4829286Y-3733929D01*
X4843571Y-3719643D01*
X4843571Y-3748214D01*
X5043571Y-3448214D02*
X5072143Y-3448214D01*
X5100714Y-3462500D01*
X5115000Y-3476786D01*
X5129286Y-3505357D01*
X5143571Y-3562500D01*
X5143571Y-3633929D01*
X5129286Y-3691071D01*
X5115000Y-3719643D01*
X5100714Y-3733929D01*
X5072143Y-3748214D01*
X5043571Y-3748214D01*
X5015000Y-3733929D01*
X5000714Y-3719643D01*
X4986428Y-3691071D01*
X4972143Y-3633929D01*
X4972143Y-3562500D01*
X4986428Y-3505357D01*
X5000714Y-3476786D01*
X5015000Y-3462500D01*
X5043571Y-3448214D01*
X5329286Y-3448214D02*
X5357857Y-3448214D01*
X5386428Y-3462500D01*
X5400714Y-3476786D01*
X5415000Y-3505357D01*
X5429286Y-3562500D01*
X5429286Y-3633929D01*
X5415000Y-3691071D01*
X5400714Y-3719643D01*
X5386428Y-3733929D01*
X5357857Y-3748214D01*
X5329286Y-3748214D01*
X5300714Y-3733929D01*
X5286428Y-3719643D01*
X5272143Y-3691071D01*
X5257857Y-3633929D01*
X5257857Y-3562500D01*
X5272143Y-3505357D01*
X5286428Y-3476786D01*
X5300714Y-3462500D01*
X5329286Y-3448214D01*
X5686428Y-3548214D02*
X5686428Y-3748214D01*
X5615000Y-3433929D02*
X5543571Y-3648214D01*
X5729286Y-3648214D01*
X5829286Y-3448214D02*
X5829286Y-3505357D01*
X5943571Y-3448214D02*
X5943571Y-3505357D01*
X6386428Y-3862500D02*
X6372143Y-3848214D01*
X6343571Y-3805357D01*
X6329286Y-3776786D01*
X6315000Y-3733929D01*
X6300714Y-3662500D01*
X6300714Y-3605357D01*
X6315000Y-3533929D01*
X6329286Y-3491071D01*
X6343571Y-3462500D01*
X6372143Y-3419643D01*
X6386428Y-3405357D01*
X6486428Y-3476786D02*
X6500714Y-3462500D01*
X6529286Y-3448214D01*
X6600714Y-3448214D01*
X6629286Y-3462500D01*
X6643571Y-3476786D01*
X6657857Y-3505357D01*
X6657857Y-3533929D01*
X6643571Y-3576786D01*
X6472143Y-3748214D01*
X6657857Y-3748214D01*
X6829286Y-3576786D02*
X6800714Y-3562500D01*
X6786428Y-3548214D01*
X6772143Y-3519643D01*
X6772143Y-3505357D01*
X6786428Y-3476786D01*
X6800714Y-3462500D01*
X6829286Y-3448214D01*
X6886428Y-3448214D01*
X6915000Y-3462500D01*
X6929286Y-3476786D01*
X6943571Y-3505357D01*
X6943571Y-3519643D01*
X6929286Y-3548214D01*
X6915000Y-3562500D01*
X6886428Y-3576786D01*
X6829286Y-3576786D01*
X6800714Y-3591071D01*
X6786428Y-3605357D01*
X6772143Y-3633929D01*
X6772143Y-3691071D01*
X6786428Y-3719643D01*
X6800714Y-3733929D01*
X6829286Y-3748214D01*
X6886428Y-3748214D01*
X6915000Y-3733929D01*
X6929286Y-3719643D01*
X6943571Y-3691071D01*
X6943571Y-3633929D01*
X6929286Y-3605357D01*
X6915000Y-3591071D01*
X6886428Y-3576786D01*
X7300714Y-3748214D02*
X7300714Y-3448214D01*
X7429286Y-3748214D02*
X7429286Y-3591071D01*
X7415000Y-3562500D01*
X7386428Y-3548214D01*
X7343571Y-3548214D01*
X7315000Y-3562500D01*
X7300714Y-3576786D01*
X7615000Y-3748214D02*
X7586428Y-3733929D01*
X7572143Y-3719643D01*
X7557857Y-3691071D01*
X7557857Y-3605357D01*
X7572143Y-3576786D01*
X7586428Y-3562500D01*
X7615000Y-3548214D01*
X7657857Y-3548214D01*
X7686428Y-3562500D01*
X7700714Y-3576786D01*
X7715000Y-3605357D01*
X7715000Y-3691071D01*
X7700714Y-3719643D01*
X7686428Y-3733929D01*
X7657857Y-3748214D01*
X7615000Y-3748214D01*
X7886428Y-3748214D02*
X7857857Y-3733929D01*
X7843571Y-3705357D01*
X7843571Y-3448214D01*
X8115000Y-3733929D02*
X8086428Y-3748214D01*
X8029286Y-3748214D01*
X8000714Y-3733929D01*
X7986428Y-3705357D01*
X7986428Y-3591071D01*
X8000714Y-3562500D01*
X8029286Y-3548214D01*
X8086428Y-3548214D01*
X8115000Y-3562500D01*
X8129286Y-3591071D01*
X8129286Y-3619643D01*
X7986428Y-3648214D01*
X8243571Y-3733929D02*
X8272143Y-3748214D01*
X8329286Y-3748214D01*
X8357857Y-3733929D01*
X8372143Y-3705357D01*
X8372143Y-3691071D01*
X8357857Y-3662500D01*
X8329286Y-3648214D01*
X8286428Y-3648214D01*
X8257857Y-3633929D01*
X8243571Y-3605357D01*
X8243571Y-3591071D01*
X8257857Y-3562500D01*
X8286428Y-3548214D01*
X8329286Y-3548214D01*
X8357857Y-3562500D01*
X8472143Y-3862500D02*
X8486428Y-3848214D01*
X8515000Y-3805357D01*
X8529286Y-3776786D01*
X8543571Y-3733929D01*
X8557857Y-3662500D01*
X8557857Y-3605357D01*
X8543571Y-3533929D01*
X8529286Y-3491071D01*
X8515000Y-3462500D01*
X8486428Y-3419643D01*
X8472143Y-3405357D01*
M02*
