%TF.GenerationSoftware,KiCad,Pcbnew,(5.0.1)-3*%
%TF.CreationDate,2018-11-17T17:16:18+08:00*%
%TF.ProjectId,tomu-fpga,746F6D752D667067612E6B696361645F,rev?*%
%TF.SameCoordinates,Original*%
%TF.FileFunction,Plated,2,3,Buried,Drill*%
%TF.FilePolarity,Positive*%
%FSLAX46Y46*%
G04 Gerber Fmt 4.6, Leading zero omitted, Abs format (unit mm)*
G04 Created by KiCad (PCBNEW (5.0.1)-3) date 11/17/18 17:16:18*
%MOMM*%
%LPD*%
G01*
G04 APERTURE LIST*
%TA.AperFunction,ViaDrill*%
%ADD10C,0.200000*%
%TD*%
G04 APERTURE END LIST*
D10*
X17450000Y-22225000D03*
X18200000Y-25725000D03*
X18400000Y-19625000D03*
X18425000Y-20275000D03*
X18580000Y-23825000D03*
X18600000Y-25325000D03*
X18600000Y-25725000D03*
X18700000Y-21950000D03*
X19075000Y-21450000D03*
X19560000Y-24795000D03*
X19700000Y-23345000D03*
X19875000Y-18100000D03*
X19920000Y-24765000D03*
X20225000Y-22775000D03*
X20300000Y-18100000D03*
X20300000Y-23575000D03*
X20875000Y-25425000D03*
X21100000Y-23900000D03*
X21700000Y-23200000D03*
X21725000Y-21500000D03*
X21750000Y-19325000D03*
X21800000Y-22450000D03*
X22000000Y-17925000D03*
X22300000Y-18575000D03*
X22400000Y-21575000D03*
X22450000Y-22475000D03*
X23000000Y-21575000D03*
X23200000Y-17925000D03*
X23375000Y-21050000D03*
X23525000Y-25375000D03*
X23700000Y-17925000D03*
X23775000Y-19925000D03*
X24300000Y-23300000D03*
X24350000Y-22425000D03*
X24550000Y-23900000D03*
X24650000Y-18575000D03*
X25075000Y-25625000D03*
X25150000Y-22150000D03*
X25200000Y-21500000D03*
X25275000Y-24800000D03*
X25650000Y-17775000D03*
X26025000Y-21700000D03*
X26050000Y-18575000D03*
X26100000Y-19415000D03*
X26100000Y-20115000D03*
X26275000Y-22250000D03*
X26525000Y-25750000D03*
X26825000Y-18275000D03*
X27500000Y-23825000D03*
X27700000Y-20550000D03*
X28450000Y-18275000D03*
X28900000Y-23625000D03*
X29110000Y-25485000D03*
M02*
