G04 #@! TF.GenerationSoftware,KiCad,Pcbnew,(5.0.0)*
G04 #@! TF.CreationDate,2018-11-20T23:37:55+08:00*
G04 #@! TF.ProjectId,tomu-fpga,746F6D752D667067612E6B696361645F,rev?*
G04 #@! TF.SameCoordinates,Original*
G04 #@! TF.FileFunction,Copper,L1,Top,Signal*
G04 #@! TF.FilePolarity,Positive*
%FSLAX46Y46*%
G04 Gerber Fmt 4.6, Leading zero omitted, Abs format (unit mm)*
G04 Created by KiCad (PCBNEW (5.0.0)) date 11/20/18 23:37:55*
%MOMM*%
%LPD*%
G01*
G04 APERTURE LIST*
G04 #@! TA.AperFunction,NonConductor*
%ADD10C,0.075000*%
G04 #@! TD*
G04 #@! TA.AperFunction,NonConductor*
%ADD11C,0.100000*%
G04 #@! TD*
G04 #@! TA.AperFunction,BGAPad,CuDef*
%ADD12C,0.100000*%
G04 #@! TD*
G04 #@! TA.AperFunction,ConnectorPad*
%ADD13R,1.000000X1.000000*%
G04 #@! TD*
G04 #@! TA.AperFunction,ConnectorPad*
%ADD14C,0.883882*%
G04 #@! TD*
G04 #@! TA.AperFunction,Conductor*
%ADD15C,0.100000*%
G04 #@! TD*
G04 #@! TA.AperFunction,ConnectorPad*
%ADD16R,7.500000X1.750000*%
G04 #@! TD*
G04 #@! TA.AperFunction,ConnectorPad*
%ADD17R,7.500000X2.250000*%
G04 #@! TD*
G04 #@! TA.AperFunction,ViaPad*
%ADD18C,0.200000*%
G04 #@! TD*
G04 #@! TA.AperFunction,Conductor*
%ADD19C,0.152400*%
G04 #@! TD*
G04 #@! TA.AperFunction,Conductor*
%ADD20C,0.600000*%
G04 #@! TD*
G04 #@! TA.AperFunction,Conductor*
%ADD21C,0.254000*%
G04 #@! TD*
G04 APERTURE END LIST*
D10*
X17730952Y-23589285D02*
X17330952Y-23589285D01*
X17330952Y-23517857D01*
X17350000Y-23475000D01*
X17388095Y-23446428D01*
X17426190Y-23432142D01*
X17502380Y-23417857D01*
X17559523Y-23417857D01*
X17635714Y-23432142D01*
X17673809Y-23446428D01*
X17711904Y-23475000D01*
X17730952Y-23517857D01*
X17730952Y-23589285D01*
X17330952Y-23332142D02*
X17730952Y-23232142D01*
X17330952Y-23132142D01*
X17330952Y-23075000D02*
X17330952Y-22903571D01*
X17730952Y-22989285D02*
X17330952Y-22989285D01*
X17730952Y-22646428D02*
X17730952Y-22817857D01*
X17730952Y-22732142D02*
X17330952Y-22732142D01*
X17388095Y-22760714D01*
X17426190Y-22789285D01*
X17445238Y-22817857D01*
X17730952Y-22132142D02*
X17730952Y-22303571D01*
X17730952Y-22217857D02*
X17330952Y-22217857D01*
X17388095Y-22246428D01*
X17426190Y-22275000D01*
X17445238Y-22303571D01*
X17730952Y-21846428D02*
X17730952Y-22017857D01*
X17730952Y-21932142D02*
X17330952Y-21932142D01*
X17388095Y-21960714D01*
X17426190Y-21989285D01*
X17445238Y-22017857D01*
X17311904Y-21503571D02*
X17826190Y-21760714D01*
X17730952Y-21246428D02*
X17730952Y-21417857D01*
X17730952Y-21332142D02*
X17330952Y-21332142D01*
X17388095Y-21360714D01*
X17426190Y-21389285D01*
X17445238Y-21417857D01*
X17502380Y-21075000D02*
X17483333Y-21103571D01*
X17464285Y-21117857D01*
X17426190Y-21132142D01*
X17407142Y-21132142D01*
X17369047Y-21117857D01*
X17350000Y-21103571D01*
X17330952Y-21075000D01*
X17330952Y-21017857D01*
X17350000Y-20989285D01*
X17369047Y-20975000D01*
X17407142Y-20960714D01*
X17426190Y-20960714D01*
X17464285Y-20975000D01*
X17483333Y-20989285D01*
X17502380Y-21017857D01*
X17502380Y-21075000D01*
X17521428Y-21103571D01*
X17540476Y-21117857D01*
X17578571Y-21132142D01*
X17654761Y-21132142D01*
X17692857Y-21117857D01*
X17711904Y-21103571D01*
X17730952Y-21075000D01*
X17730952Y-21017857D01*
X17711904Y-20989285D01*
X17692857Y-20975000D01*
X17654761Y-20960714D01*
X17578571Y-20960714D01*
X17540476Y-20975000D01*
X17521428Y-20989285D01*
X17502380Y-21017857D01*
X17711904Y-20617857D02*
X17730952Y-20575000D01*
X17730952Y-20503571D01*
X17711904Y-20475000D01*
X17692857Y-20460714D01*
X17654761Y-20446428D01*
X17616666Y-20446428D01*
X17578571Y-20460714D01*
X17559523Y-20475000D01*
X17540476Y-20503571D01*
X17521428Y-20560714D01*
X17502380Y-20589285D01*
X17483333Y-20603571D01*
X17445238Y-20617857D01*
X17407142Y-20617857D01*
X17369047Y-20603571D01*
X17350000Y-20589285D01*
X17330952Y-20560714D01*
X17330952Y-20489285D01*
X17350000Y-20446428D01*
X17350000Y-20160714D02*
X17330952Y-20189285D01*
X17330952Y-20232142D01*
X17350000Y-20275000D01*
X17388095Y-20303571D01*
X17426190Y-20317857D01*
X17502380Y-20332142D01*
X17559523Y-20332142D01*
X17635714Y-20317857D01*
X17673809Y-20303571D01*
X17711904Y-20275000D01*
X17730952Y-20232142D01*
X17730952Y-20203571D01*
X17711904Y-20160714D01*
X17692857Y-20146428D01*
X17559523Y-20146428D01*
X17559523Y-20203571D01*
D11*
X26300000Y-26080000D02*
X26300000Y-25760000D01*
X26066666Y-25960000D02*
X26666666Y-25960000D01*
X26733333Y-25920000D01*
X26766666Y-25840000D01*
X26766666Y-25760000D01*
X26766666Y-25360000D02*
X26733333Y-25440000D01*
X26700000Y-25480000D01*
X26633333Y-25520000D01*
X26433333Y-25520000D01*
X26366666Y-25480000D01*
X26333333Y-25440000D01*
X26300000Y-25360000D01*
X26300000Y-25240000D01*
X26333333Y-25160000D01*
X26366666Y-25120000D01*
X26433333Y-25080000D01*
X26633333Y-25080000D01*
X26700000Y-25120000D01*
X26733333Y-25160000D01*
X26766666Y-25240000D01*
X26766666Y-25360000D01*
X26766666Y-24720000D02*
X26300000Y-24720000D01*
X26366666Y-24720000D02*
X26333333Y-24680000D01*
X26300000Y-24600000D01*
X26300000Y-24480000D01*
X26333333Y-24400000D01*
X26400000Y-24360000D01*
X26766666Y-24360000D01*
X26400000Y-24360000D02*
X26333333Y-24320000D01*
X26300000Y-24240000D01*
X26300000Y-24120000D01*
X26333333Y-24040000D01*
X26400000Y-24000000D01*
X26766666Y-24000000D01*
X26300000Y-23240000D02*
X26766666Y-23240000D01*
X26300000Y-23600000D02*
X26666666Y-23600000D01*
X26733333Y-23560000D01*
X26766666Y-23480000D01*
X26766666Y-23360000D01*
X26733333Y-23280000D01*
X26700000Y-23240000D01*
X26700000Y-22840000D02*
X26733333Y-22800000D01*
X26766666Y-22840000D01*
X26733333Y-22880000D01*
X26700000Y-22840000D01*
X26766666Y-22840000D01*
X26766666Y-22440000D02*
X26300000Y-22440000D01*
X26066666Y-22440000D02*
X26100000Y-22480000D01*
X26133333Y-22440000D01*
X26100000Y-22400000D01*
X26066666Y-22440000D01*
X26133333Y-22440000D01*
X26766666Y-22040000D02*
X26300000Y-22040000D01*
X26366666Y-22040000D02*
X26333333Y-22000000D01*
X26300000Y-21920000D01*
X26300000Y-21800000D01*
X26333333Y-21720000D01*
X26400000Y-21680000D01*
X26766666Y-21680000D01*
X26400000Y-21680000D02*
X26333333Y-21640000D01*
X26300000Y-21560000D01*
X26300000Y-21440000D01*
X26333333Y-21360000D01*
X26400000Y-21320000D01*
X26766666Y-21320000D01*
X26400000Y-20000000D02*
X26400000Y-20280000D01*
X26766666Y-20280000D02*
X26066666Y-20280000D01*
X26066666Y-19880000D01*
X26766666Y-19560000D02*
X26066666Y-19560000D01*
X26066666Y-19240000D01*
X26100000Y-19160000D01*
X26133333Y-19120000D01*
X26200000Y-19080000D01*
X26300000Y-19080000D01*
X26366666Y-19120000D01*
X26400000Y-19160000D01*
X26433333Y-19240000D01*
X26433333Y-19560000D01*
X26100000Y-18280000D02*
X26066666Y-18360000D01*
X26066666Y-18480000D01*
X26100000Y-18600000D01*
X26166666Y-18680000D01*
X26233333Y-18720000D01*
X26366666Y-18760000D01*
X26466666Y-18760000D01*
X26600000Y-18720000D01*
X26666666Y-18680000D01*
X26733333Y-18600000D01*
X26766666Y-18480000D01*
X26766666Y-18400000D01*
X26733333Y-18280000D01*
X26700000Y-18240000D01*
X26466666Y-18240000D01*
X26466666Y-18400000D01*
X26566666Y-17920000D02*
X26566666Y-17520000D01*
X26766666Y-18000000D02*
X26066666Y-17720000D01*
X26766666Y-17440000D01*
D12*
G04 #@! TO.P,SW2,4*
G04 #@! TO.N,/TOUCH_4*
X28100000Y-18300000D03*
G04 #@! TO.P,SW2,3*
G04 #@! TO.N,/TOUCH_3*
X28100000Y-20500000D03*
G04 #@! TO.P,SW2,2*
G04 #@! TO.N,/TOUCH_2*
X28100000Y-23100000D03*
G04 #@! TO.P,SW2,1*
G04 #@! TO.N,/TOUCH_1*
X28100000Y-25300000D03*
G04 #@! TD*
D13*
G04 #@! TO.P,U9,4*
G04 #@! TO.N,GND*
X17600000Y-19225000D03*
G04 #@! TO.P,U9,1*
G04 #@! TO.N,+5V*
X17600000Y-24475000D03*
D14*
G04 #@! TO.P,U9,4*
G04 #@! TO.N,GND*
X17600000Y-18600000D03*
D15*
G04 #@! TD*
G04 #@! TO.N,GND*
G04 #@! TO.C,U9*
G36*
X18100000Y-17475000D02*
X18100000Y-19725000D01*
X17100000Y-18725000D01*
X17100000Y-18475000D01*
X18100000Y-17475000D01*
X18100000Y-17475000D01*
G37*
D14*
G04 #@! TO.P,U9,1*
G04 #@! TO.N,+5V*
X17600000Y-25100000D03*
D15*
G04 #@! TD*
G04 #@! TO.N,+5V*
G04 #@! TO.C,U9*
G36*
X18100000Y-23975000D02*
X18100000Y-26225000D01*
X17100000Y-25225000D01*
X17100000Y-24975000D01*
X18100000Y-23975000D01*
X18100000Y-23975000D01*
G37*
D16*
G04 #@! TO.P,U9,3*
G04 #@! TO.N,/USB_P*
X21850000Y-20850000D03*
G04 #@! TO.P,U9,2*
G04 #@! TO.N,/USB_N*
X21850000Y-22850000D03*
D17*
G04 #@! TO.P,U9,4*
G04 #@! TO.N,GND*
X21850000Y-18600000D03*
G04 #@! TO.P,U9,1*
G04 #@! TO.N,+5V*
X21850000Y-25100000D03*
G04 #@! TD*
D18*
G04 #@! TO.N,GND*
X21850000Y-18600000D03*
X23075000Y-18550000D03*
X23325000Y-18550000D03*
X21600000Y-18600000D03*
X21625000Y-18375000D03*
X22650000Y-18625000D03*
X24075000Y-18600000D03*
X24300000Y-18575000D03*
X25100000Y-18525000D03*
X22525000Y-18500000D03*
X23640000Y-18675000D03*
X22850000Y-18575000D03*
X25275000Y-18600000D03*
G04 #@! TO.N,+5V*
X18200000Y-26075000D03*
X18600000Y-26075000D03*
X17800000Y-24925000D03*
X17800000Y-25325000D03*
X17800000Y-25725000D03*
X18200000Y-25325000D03*
X17400000Y-24925000D03*
X18200000Y-24925000D03*
X17400000Y-25325000D03*
G04 #@! TO.N,/TOUCH_4*
X28050000Y-18450000D03*
G04 #@! TO.N,/TOUCH_1*
X29500000Y-24925000D03*
G04 #@! TO.N,/TOUCH_2*
X29150000Y-23475000D03*
G04 #@! TO.N,/TOUCH_3*
X27700000Y-20075000D03*
G04 #@! TO.N,/USB_P*
X19475000Y-21175000D03*
G04 #@! TO.N,/USB_N*
X19200000Y-22150000D03*
G04 #@! TD*
D19*
G04 #@! TO.N,GND*
X17450000Y-19200000D02*
X18225000Y-18425000D01*
X17600000Y-18450000D02*
X18200000Y-18450000D01*
X18200000Y-18450000D02*
X18225000Y-18425000D01*
X18225000Y-18425000D02*
X18225000Y-18600000D01*
X18225000Y-18600000D02*
X17600000Y-19225000D01*
X21700000Y-18600000D02*
X21525000Y-18425000D01*
X21525000Y-18425000D02*
X18225000Y-18425000D01*
G04 #@! TO.N,+5V*
X17775000Y-25200000D02*
X22025000Y-25200000D01*
X17775000Y-24425000D02*
X17775000Y-25200000D01*
X17800000Y-25175000D02*
X17775000Y-25200000D01*
D15*
G04 #@! TO.N,/TOUCH_4*
X27850000Y-18450000D02*
X27700000Y-18300000D01*
X28050000Y-18450000D02*
X27850000Y-18450000D01*
G04 #@! TO.N,/TOUCH_1*
X27750000Y-25250000D02*
X27700000Y-25300000D01*
X27850000Y-25250000D02*
X27750000Y-25250000D01*
X27650000Y-25050000D02*
X27850000Y-25250000D01*
X27650000Y-24500000D02*
X27650000Y-25050000D01*
X28475000Y-24625000D02*
X27850000Y-25250000D01*
X29500000Y-24925000D02*
X28475000Y-24625000D01*
G04 #@! TO.N,/TOUCH_2*
X27950000Y-22875000D02*
X27950000Y-23350000D01*
X27950000Y-23350000D02*
X27700000Y-23100000D01*
G04 #@! TO.N,/TOUCH_3*
X27850000Y-20350000D02*
X27700000Y-20500000D01*
X27700000Y-20075000D02*
X27850000Y-20350000D01*
D20*
G04 #@! TO.N,/USB_N*
X21675000Y-22450000D02*
X22025000Y-22800000D01*
G04 #@! TD*
D21*
G04 #@! TO.N,/TOUCH_4*
G36*
X29440529Y-17277638D02*
X29458155Y-17339329D01*
X29473909Y-17402344D01*
X29473909Y-17402346D01*
X29495058Y-17486942D01*
X29503189Y-17560115D01*
X29503373Y-17568363D01*
X29504838Y-17574955D01*
X29505583Y-17581660D01*
X29508074Y-17589517D01*
X29523811Y-17660330D01*
X29523909Y-17662346D01*
X29527058Y-17674941D01*
X29529867Y-17687582D01*
X29530679Y-17689424D01*
X29546659Y-17753346D01*
X29563337Y-17836732D01*
X29563373Y-17838363D01*
X29566270Y-17851400D01*
X29568887Y-17864484D01*
X29569512Y-17865989D01*
X29584656Y-17934134D01*
X29593009Y-18017668D01*
X29593017Y-18025134D01*
X29594495Y-18032522D01*
X29595244Y-18040016D01*
X29597421Y-18047155D01*
X29613017Y-18125134D01*
X29634495Y-18232525D01*
X29642876Y-18316337D01*
X29642775Y-18322465D01*
X29644362Y-18331191D01*
X29645244Y-18340016D01*
X29647032Y-18345879D01*
X29664363Y-18441198D01*
X29672876Y-18526337D01*
X29672775Y-18532465D01*
X29674362Y-18541191D01*
X29675244Y-18550016D01*
X29677032Y-18555879D01*
X29694240Y-18650522D01*
X29703572Y-18753181D01*
X29712897Y-18865082D01*
X29712775Y-18872465D01*
X29714136Y-18879949D01*
X29714768Y-18887537D01*
X29716807Y-18894641D01*
X29734137Y-18989957D01*
X29744768Y-19117537D01*
X29744769Y-19117540D01*
X29749390Y-19173000D01*
X27402000Y-19173000D01*
X27402000Y-17252000D01*
X29430915Y-17252000D01*
X29440529Y-17277638D01*
X29440529Y-17277638D01*
G37*
X29440529Y-17277638D02*
X29458155Y-17339329D01*
X29473909Y-17402344D01*
X29473909Y-17402346D01*
X29495058Y-17486942D01*
X29503189Y-17560115D01*
X29503373Y-17568363D01*
X29504838Y-17574955D01*
X29505583Y-17581660D01*
X29508074Y-17589517D01*
X29523811Y-17660330D01*
X29523909Y-17662346D01*
X29527058Y-17674941D01*
X29529867Y-17687582D01*
X29530679Y-17689424D01*
X29546659Y-17753346D01*
X29563337Y-17836732D01*
X29563373Y-17838363D01*
X29566270Y-17851400D01*
X29568887Y-17864484D01*
X29569512Y-17865989D01*
X29584656Y-17934134D01*
X29593009Y-18017668D01*
X29593017Y-18025134D01*
X29594495Y-18032522D01*
X29595244Y-18040016D01*
X29597421Y-18047155D01*
X29613017Y-18125134D01*
X29634495Y-18232525D01*
X29642876Y-18316337D01*
X29642775Y-18322465D01*
X29644362Y-18331191D01*
X29645244Y-18340016D01*
X29647032Y-18345879D01*
X29664363Y-18441198D01*
X29672876Y-18526337D01*
X29672775Y-18532465D01*
X29674362Y-18541191D01*
X29675244Y-18550016D01*
X29677032Y-18555879D01*
X29694240Y-18650522D01*
X29703572Y-18753181D01*
X29712897Y-18865082D01*
X29712775Y-18872465D01*
X29714136Y-18879949D01*
X29714768Y-18887537D01*
X29716807Y-18894641D01*
X29734137Y-18989957D01*
X29744768Y-19117537D01*
X29744769Y-19117540D01*
X29749390Y-19173000D01*
X27402000Y-19173000D01*
X27402000Y-17252000D01*
X29430915Y-17252000D01*
X29440529Y-17277638D01*
G04 #@! TO.N,/TOUCH_3*
G36*
X29792338Y-19697226D02*
X29792283Y-19697709D01*
X29793482Y-19712102D01*
X29794596Y-19726579D01*
X29794728Y-19727050D01*
X29803485Y-19832136D01*
X29812338Y-19947226D01*
X29812283Y-19947709D01*
X29813482Y-19962102D01*
X29814596Y-19976579D01*
X29814728Y-19977050D01*
X29823485Y-20082136D01*
X29833000Y-20205832D01*
X29833000Y-20320911D01*
X29832300Y-20326736D01*
X29833000Y-20335836D01*
X29833000Y-20344965D01*
X29834145Y-20350722D01*
X29842300Y-20456734D01*
X29842300Y-20456736D01*
X29853000Y-20595832D01*
X29853000Y-20720911D01*
X29852300Y-20726736D01*
X29853000Y-20735836D01*
X29853000Y-20744965D01*
X29854145Y-20750722D01*
X29863000Y-20865832D01*
X29863000Y-21120911D01*
X29862300Y-21126736D01*
X29863000Y-21135836D01*
X29863000Y-21144965D01*
X29864145Y-21150722D01*
X29873000Y-21265832D01*
X29873000Y-21423000D01*
X29457000Y-21423000D01*
X29457000Y-20937000D01*
X29454464Y-20924251D01*
X29454464Y-20924248D01*
X29408792Y-20694638D01*
X29389082Y-20647055D01*
X29259018Y-20452401D01*
X29241640Y-20435023D01*
X29222600Y-20415982D01*
X29027945Y-20285918D01*
X29018124Y-20281850D01*
X28980362Y-20266208D01*
X28750752Y-20220536D01*
X28725000Y-20220537D01*
X28699248Y-20220536D01*
X28469638Y-20266208D01*
X28422055Y-20285918D01*
X28227401Y-20415982D01*
X28190982Y-20452400D01*
X28060918Y-20647055D01*
X28041208Y-20694638D01*
X28012743Y-20837743D01*
X27773967Y-20885238D01*
X27726384Y-20904948D01*
X27450624Y-21089205D01*
X27414205Y-21125624D01*
X27402000Y-21143890D01*
X27402000Y-19677000D01*
X29790782Y-19677000D01*
X29792338Y-19697226D01*
X29792338Y-19697226D01*
G37*
X29792338Y-19697226D02*
X29792283Y-19697709D01*
X29793482Y-19712102D01*
X29794596Y-19726579D01*
X29794728Y-19727050D01*
X29803485Y-19832136D01*
X29812338Y-19947226D01*
X29812283Y-19947709D01*
X29813482Y-19962102D01*
X29814596Y-19976579D01*
X29814728Y-19977050D01*
X29823485Y-20082136D01*
X29833000Y-20205832D01*
X29833000Y-20320911D01*
X29832300Y-20326736D01*
X29833000Y-20335836D01*
X29833000Y-20344965D01*
X29834145Y-20350722D01*
X29842300Y-20456734D01*
X29842300Y-20456736D01*
X29853000Y-20595832D01*
X29853000Y-20720911D01*
X29852300Y-20726736D01*
X29853000Y-20735836D01*
X29853000Y-20744965D01*
X29854145Y-20750722D01*
X29863000Y-20865832D01*
X29863000Y-21120911D01*
X29862300Y-21126736D01*
X29863000Y-21135836D01*
X29863000Y-21144965D01*
X29864145Y-21150722D01*
X29873000Y-21265832D01*
X29873000Y-21423000D01*
X29457000Y-21423000D01*
X29457000Y-20937000D01*
X29454464Y-20924251D01*
X29454464Y-20924248D01*
X29408792Y-20694638D01*
X29389082Y-20647055D01*
X29259018Y-20452401D01*
X29241640Y-20435023D01*
X29222600Y-20415982D01*
X29027945Y-20285918D01*
X29018124Y-20281850D01*
X28980362Y-20266208D01*
X28750752Y-20220536D01*
X28725000Y-20220537D01*
X28699248Y-20220536D01*
X28469638Y-20266208D01*
X28422055Y-20285918D01*
X28227401Y-20415982D01*
X28190982Y-20452400D01*
X28060918Y-20647055D01*
X28041208Y-20694638D01*
X28012743Y-20837743D01*
X27773967Y-20885238D01*
X27726384Y-20904948D01*
X27450624Y-21089205D01*
X27414205Y-21125624D01*
X27402000Y-21143890D01*
X27402000Y-19677000D01*
X29790782Y-19677000D01*
X29792338Y-19697226D01*
G04 #@! TO.N,/TOUCH_1*
G36*
X29744769Y-24482460D02*
X29744768Y-24482463D01*
X29734137Y-24610043D01*
X29716807Y-24705359D01*
X29714768Y-24712463D01*
X29714136Y-24720051D01*
X29712775Y-24727535D01*
X29712897Y-24734918D01*
X29703572Y-24846819D01*
X29694240Y-24949478D01*
X29677032Y-25044121D01*
X29675244Y-25049984D01*
X29674362Y-25058809D01*
X29672775Y-25067535D01*
X29672876Y-25073663D01*
X29664363Y-25158802D01*
X29647032Y-25254121D01*
X29645244Y-25259984D01*
X29644362Y-25268809D01*
X29642775Y-25277535D01*
X29642876Y-25283663D01*
X29634495Y-25367475D01*
X29618887Y-25445516D01*
X29597421Y-25552845D01*
X29595244Y-25559984D01*
X29594495Y-25567478D01*
X29593017Y-25574866D01*
X29593009Y-25582332D01*
X29584656Y-25665866D01*
X29569512Y-25734011D01*
X29568887Y-25735516D01*
X29566270Y-25748600D01*
X29563373Y-25761637D01*
X29563337Y-25763268D01*
X29546659Y-25846654D01*
X29530679Y-25910576D01*
X29529867Y-25912418D01*
X29527058Y-25925059D01*
X29523909Y-25937654D01*
X29523811Y-25939670D01*
X29508074Y-26010483D01*
X29505583Y-26018340D01*
X29504838Y-26025045D01*
X29503373Y-26031637D01*
X29503189Y-26039885D01*
X29495058Y-26113058D01*
X29481169Y-26168616D01*
X29458155Y-26260671D01*
X29440529Y-26322362D01*
X29430915Y-26348000D01*
X28624743Y-26348000D01*
X28588183Y-26164199D01*
X28587144Y-26161689D01*
X28578270Y-26140266D01*
X28565488Y-26109406D01*
X28565485Y-26109403D01*
X28392069Y-25849869D01*
X28392069Y-25849868D01*
X28350132Y-25807932D01*
X28090597Y-25634515D01*
X28090594Y-25634512D01*
X28063198Y-25623165D01*
X28035801Y-25611816D01*
X28035796Y-25611816D01*
X27729659Y-25550922D01*
X27729654Y-25550920D01*
X27700000Y-25550921D01*
X27670346Y-25550920D01*
X27670340Y-25550922D01*
X27364199Y-25611817D01*
X27364198Y-25611817D01*
X27355179Y-25615553D01*
X27327000Y-25627225D01*
X27327000Y-24452000D01*
X29747307Y-24452000D01*
X29744769Y-24482460D01*
X29744769Y-24482460D01*
G37*
X29744769Y-24482460D02*
X29744768Y-24482463D01*
X29734137Y-24610043D01*
X29716807Y-24705359D01*
X29714768Y-24712463D01*
X29714136Y-24720051D01*
X29712775Y-24727535D01*
X29712897Y-24734918D01*
X29703572Y-24846819D01*
X29694240Y-24949478D01*
X29677032Y-25044121D01*
X29675244Y-25049984D01*
X29674362Y-25058809D01*
X29672775Y-25067535D01*
X29672876Y-25073663D01*
X29664363Y-25158802D01*
X29647032Y-25254121D01*
X29645244Y-25259984D01*
X29644362Y-25268809D01*
X29642775Y-25277535D01*
X29642876Y-25283663D01*
X29634495Y-25367475D01*
X29618887Y-25445516D01*
X29597421Y-25552845D01*
X29595244Y-25559984D01*
X29594495Y-25567478D01*
X29593017Y-25574866D01*
X29593009Y-25582332D01*
X29584656Y-25665866D01*
X29569512Y-25734011D01*
X29568887Y-25735516D01*
X29566270Y-25748600D01*
X29563373Y-25761637D01*
X29563337Y-25763268D01*
X29546659Y-25846654D01*
X29530679Y-25910576D01*
X29529867Y-25912418D01*
X29527058Y-25925059D01*
X29523909Y-25937654D01*
X29523811Y-25939670D01*
X29508074Y-26010483D01*
X29505583Y-26018340D01*
X29504838Y-26025045D01*
X29503373Y-26031637D01*
X29503189Y-26039885D01*
X29495058Y-26113058D01*
X29481169Y-26168616D01*
X29458155Y-26260671D01*
X29440529Y-26322362D01*
X29430915Y-26348000D01*
X28624743Y-26348000D01*
X28588183Y-26164199D01*
X28587144Y-26161689D01*
X28578270Y-26140266D01*
X28565488Y-26109406D01*
X28565485Y-26109403D01*
X28392069Y-25849869D01*
X28392069Y-25849868D01*
X28350132Y-25807932D01*
X28090597Y-25634515D01*
X28090594Y-25634512D01*
X28063198Y-25623165D01*
X28035801Y-25611816D01*
X28035796Y-25611816D01*
X27729659Y-25550922D01*
X27729654Y-25550920D01*
X27700000Y-25550921D01*
X27670346Y-25550920D01*
X27670340Y-25550922D01*
X27364199Y-25611817D01*
X27364198Y-25611817D01*
X27355179Y-25615553D01*
X27327000Y-25627225D01*
X27327000Y-24452000D01*
X29747307Y-24452000D01*
X29744769Y-24482460D01*
G04 #@! TO.N,/TOUCH_2*
G36*
X29873000Y-22334168D02*
X29864145Y-22449276D01*
X29863000Y-22455034D01*
X29863000Y-22464164D01*
X29862300Y-22473264D01*
X29863000Y-22479089D01*
X29863000Y-22734168D01*
X29854145Y-22849276D01*
X29853000Y-22855034D01*
X29853000Y-22864164D01*
X29852300Y-22873264D01*
X29853000Y-22879089D01*
X29853000Y-23004168D01*
X29843565Y-23126820D01*
X29834145Y-23249276D01*
X29833000Y-23255034D01*
X29833000Y-23264164D01*
X29832300Y-23273264D01*
X29833000Y-23279089D01*
X29833000Y-23394168D01*
X29823485Y-23517864D01*
X29814728Y-23622950D01*
X29814596Y-23623421D01*
X29813482Y-23637898D01*
X29812283Y-23652291D01*
X29812338Y-23652774D01*
X29803485Y-23767864D01*
X29794728Y-23872950D01*
X29794596Y-23873421D01*
X29793482Y-23887898D01*
X29792283Y-23902291D01*
X29792338Y-23902774D01*
X29790782Y-23923000D01*
X27402000Y-23923000D01*
X27402000Y-22456110D01*
X27414205Y-22474376D01*
X27450624Y-22510795D01*
X27726384Y-22695052D01*
X27773967Y-22714762D01*
X28012743Y-22762257D01*
X28041208Y-22905362D01*
X28055509Y-22939887D01*
X28060918Y-22952945D01*
X28190982Y-23147600D01*
X28209962Y-23166579D01*
X28227401Y-23184018D01*
X28422055Y-23314082D01*
X28469638Y-23333792D01*
X28699248Y-23379464D01*
X28750752Y-23379464D01*
X28980362Y-23333792D01*
X29027945Y-23314082D01*
X29222600Y-23184018D01*
X29259018Y-23147599D01*
X29389082Y-22952945D01*
X29408792Y-22905362D01*
X29454464Y-22675752D01*
X29454464Y-22675749D01*
X29457000Y-22663000D01*
X29457000Y-22177000D01*
X29873000Y-22177000D01*
X29873000Y-22334168D01*
X29873000Y-22334168D01*
G37*
X29873000Y-22334168D02*
X29864145Y-22449276D01*
X29863000Y-22455034D01*
X29863000Y-22464164D01*
X29862300Y-22473264D01*
X29863000Y-22479089D01*
X29863000Y-22734168D01*
X29854145Y-22849276D01*
X29853000Y-22855034D01*
X29853000Y-22864164D01*
X29852300Y-22873264D01*
X29853000Y-22879089D01*
X29853000Y-23004168D01*
X29843565Y-23126820D01*
X29834145Y-23249276D01*
X29833000Y-23255034D01*
X29833000Y-23264164D01*
X29832300Y-23273264D01*
X29833000Y-23279089D01*
X29833000Y-23394168D01*
X29823485Y-23517864D01*
X29814728Y-23622950D01*
X29814596Y-23623421D01*
X29813482Y-23637898D01*
X29812283Y-23652291D01*
X29812338Y-23652774D01*
X29803485Y-23767864D01*
X29794728Y-23872950D01*
X29794596Y-23873421D01*
X29793482Y-23887898D01*
X29792283Y-23902291D01*
X29792338Y-23902774D01*
X29790782Y-23923000D01*
X27402000Y-23923000D01*
X27402000Y-22456110D01*
X27414205Y-22474376D01*
X27450624Y-22510795D01*
X27726384Y-22695052D01*
X27773967Y-22714762D01*
X28012743Y-22762257D01*
X28041208Y-22905362D01*
X28055509Y-22939887D01*
X28060918Y-22952945D01*
X28190982Y-23147600D01*
X28209962Y-23166579D01*
X28227401Y-23184018D01*
X28422055Y-23314082D01*
X28469638Y-23333792D01*
X28699248Y-23379464D01*
X28750752Y-23379464D01*
X28980362Y-23333792D01*
X29027945Y-23314082D01*
X29222600Y-23184018D01*
X29259018Y-23147599D01*
X29389082Y-22952945D01*
X29408792Y-22905362D01*
X29454464Y-22675752D01*
X29454464Y-22675749D01*
X29457000Y-22663000D01*
X29457000Y-22177000D01*
X29873000Y-22177000D01*
X29873000Y-22334168D01*
G04 #@! TD*
M02*
