%TF.GenerationSoftware,KiCad,Pcbnew,(5.0.1)-3*%
%TF.CreationDate,2018-11-18T15:57:04+08:00*%
%TF.ProjectId,tomu-fpga,746F6D752D667067612E6B696361645F,rev?*%
%TF.SameCoordinates,Original*%
%TF.FileFunction,Copper,L4,Bot,Signal*%
%TF.FilePolarity,Positive*%
%FSLAX46Y46*%
G04 Gerber Fmt 4.6, Leading zero omitted, Abs format (unit mm)*
G04 Created by KiCad (PCBNEW (5.0.1)-3) date 11/18/18 15:57:04*
%MOMM*%
%LPD*%
G01*
G04 APERTURE LIST*
%ADD10R,0.200000X1.600000*%
%ADD11R,0.300000X0.250000*%
%ADD12R,0.300000X0.230000*%
%ADD13R,0.230000X0.300000*%
%ADD14C,0.580000*%
%ADD15C,0.100000*%
%ADD16C,0.148492*%
%ADD17C,0.200000*%
%ADD18C,0.400000*%
%ADD19R,0.400000X0.400000*%
%ADD20C,0.700000*%
%ADD21R,0.800000X0.900000*%
%ADD22C,0.200000*%
%ADD23C,0.400000*%
%ADD24C,1.000000*%
%ADD25C,0.254000*%
G04 APERTURE END LIST*
D10*
X22925000Y-24925000D03*
D11*
X21725000Y-24175000D03*
X21725000Y-24675000D03*
X21725000Y-25175000D03*
X21725000Y-25675000D03*
X24125000Y-25675000D03*
X24125000Y-25175000D03*
X24125000Y-24675000D03*
X24125000Y-24175000D03*
D12*
X20400000Y-21605000D03*
X20400000Y-21985000D03*
X18450000Y-21285000D03*
X18450000Y-20905000D03*
D13*
X26800000Y-24415000D03*
X26420000Y-24415000D03*
D12*
X26900000Y-22935000D03*
X26900000Y-23315000D03*
D13*
X25810000Y-19025000D03*
X26190000Y-19025000D03*
D12*
X27250000Y-20625000D03*
X27250000Y-20245000D03*
X20075000Y-25740000D03*
X20075000Y-25360000D03*
D14*
X19000000Y-19700000D03*
D15*
G36*
X19410122Y-19700000D02*
X19000000Y-20110122D01*
X18589878Y-19700000D01*
X19000000Y-19289878D01*
X19410122Y-19700000D01*
X19410122Y-19700000D01*
G37*
D16*
X19430000Y-20025000D03*
D15*
G36*
X19200000Y-20079289D02*
X19409289Y-19870000D01*
X19660000Y-19870000D01*
X19660000Y-20180000D01*
X19200000Y-20180000D01*
X19200000Y-20079289D01*
X19200000Y-20079289D01*
G37*
D16*
X18570000Y-20025000D03*
D15*
G36*
X18340000Y-19870000D02*
X18590711Y-19870000D01*
X18800000Y-20079289D01*
X18800000Y-20180000D01*
X18340000Y-20180000D01*
X18340000Y-19870000D01*
X18340000Y-19870000D01*
G37*
D16*
X18570000Y-19375000D03*
D15*
G36*
X18340000Y-19220000D02*
X18800000Y-19220000D01*
X18800000Y-19320711D01*
X18590711Y-19530000D01*
X18340000Y-19530000D01*
X18340000Y-19220000D01*
X18340000Y-19220000D01*
G37*
D16*
X19430000Y-19375000D03*
D15*
G36*
X19200000Y-19320711D02*
X19200000Y-19220000D01*
X19660000Y-19220000D01*
X19660000Y-19530000D01*
X19409289Y-19530000D01*
X19200000Y-19320711D01*
X19200000Y-19320711D01*
G37*
D17*
X25200000Y-21700000D03*
X24800000Y-21700000D03*
X25200000Y-22100000D03*
X24800000Y-22100000D03*
X24800000Y-20900000D03*
X24800000Y-21300000D03*
X25200000Y-21300000D03*
X25200000Y-20900000D03*
X24800000Y-22900000D03*
X24800000Y-22500000D03*
X25200000Y-22900000D03*
X25200000Y-22500000D03*
X23600000Y-20900000D03*
X23600000Y-21300000D03*
X23600000Y-21700000D03*
X23600000Y-22900000D03*
X23600000Y-22500000D03*
X23600000Y-22100000D03*
X24000000Y-20900000D03*
X24000000Y-21300000D03*
X24000000Y-21700000D03*
X24000000Y-22900000D03*
X24000000Y-22500000D03*
X24000000Y-22100000D03*
X24400000Y-20900000D03*
X24400000Y-21300000D03*
X24400000Y-21700000D03*
X24400000Y-22900000D03*
X24400000Y-22500000D03*
X24400000Y-22100000D03*
D15*
G36*
X25959802Y-24000482D02*
X25969509Y-24001921D01*
X25979028Y-24004306D01*
X25988268Y-24007612D01*
X25997140Y-24011808D01*
X26005557Y-24016853D01*
X26013439Y-24022699D01*
X26020711Y-24029289D01*
X26027301Y-24036561D01*
X26033147Y-24044443D01*
X26038192Y-24052860D01*
X26042388Y-24061732D01*
X26045694Y-24070972D01*
X26048079Y-24080491D01*
X26049518Y-24090198D01*
X26050000Y-24100000D01*
X26050000Y-24300000D01*
X26049518Y-24309802D01*
X26048079Y-24319509D01*
X26045694Y-24329028D01*
X26042388Y-24338268D01*
X26038192Y-24347140D01*
X26033147Y-24355557D01*
X26027301Y-24363439D01*
X26020711Y-24370711D01*
X26013439Y-24377301D01*
X26005557Y-24383147D01*
X25997140Y-24388192D01*
X25988268Y-24392388D01*
X25979028Y-24395694D01*
X25969509Y-24398079D01*
X25959802Y-24399518D01*
X25950000Y-24400000D01*
X25690000Y-24400000D01*
X25680198Y-24399518D01*
X25670491Y-24398079D01*
X25660972Y-24395694D01*
X25651732Y-24392388D01*
X25642860Y-24388192D01*
X25634443Y-24383147D01*
X25626561Y-24377301D01*
X25619289Y-24370711D01*
X25612699Y-24363439D01*
X25606853Y-24355557D01*
X25601808Y-24347140D01*
X25597612Y-24338268D01*
X25594306Y-24329028D01*
X25591921Y-24319509D01*
X25590482Y-24309802D01*
X25590000Y-24300000D01*
X25590000Y-24100000D01*
X25590482Y-24090198D01*
X25591921Y-24080491D01*
X25594306Y-24070972D01*
X25597612Y-24061732D01*
X25601808Y-24052860D01*
X25606853Y-24044443D01*
X25612699Y-24036561D01*
X25619289Y-24029289D01*
X25626561Y-24022699D01*
X25634443Y-24016853D01*
X25642860Y-24011808D01*
X25651732Y-24007612D01*
X25660972Y-24004306D01*
X25670491Y-24001921D01*
X25680198Y-24000482D01*
X25690000Y-24000000D01*
X25950000Y-24000000D01*
X25959802Y-24000482D01*
X25959802Y-24000482D01*
G37*
D18*
X25820000Y-24200000D03*
D15*
G36*
X25319802Y-24000482D02*
X25329509Y-24001921D01*
X25339028Y-24004306D01*
X25348268Y-24007612D01*
X25357140Y-24011808D01*
X25365557Y-24016853D01*
X25373439Y-24022699D01*
X25380711Y-24029289D01*
X25387301Y-24036561D01*
X25393147Y-24044443D01*
X25398192Y-24052860D01*
X25402388Y-24061732D01*
X25405694Y-24070972D01*
X25408079Y-24080491D01*
X25409518Y-24090198D01*
X25410000Y-24100000D01*
X25410000Y-24300000D01*
X25409518Y-24309802D01*
X25408079Y-24319509D01*
X25405694Y-24329028D01*
X25402388Y-24338268D01*
X25398192Y-24347140D01*
X25393147Y-24355557D01*
X25387301Y-24363439D01*
X25380711Y-24370711D01*
X25373439Y-24377301D01*
X25365557Y-24383147D01*
X25357140Y-24388192D01*
X25348268Y-24392388D01*
X25339028Y-24395694D01*
X25329509Y-24398079D01*
X25319802Y-24399518D01*
X25310000Y-24400000D01*
X25050000Y-24400000D01*
X25040198Y-24399518D01*
X25030491Y-24398079D01*
X25020972Y-24395694D01*
X25011732Y-24392388D01*
X25002860Y-24388192D01*
X24994443Y-24383147D01*
X24986561Y-24377301D01*
X24979289Y-24370711D01*
X24972699Y-24363439D01*
X24966853Y-24355557D01*
X24961808Y-24347140D01*
X24957612Y-24338268D01*
X24954306Y-24329028D01*
X24951921Y-24319509D01*
X24950482Y-24309802D01*
X24950000Y-24300000D01*
X24950000Y-24100000D01*
X24950482Y-24090198D01*
X24951921Y-24080491D01*
X24954306Y-24070972D01*
X24957612Y-24061732D01*
X24961808Y-24052860D01*
X24966853Y-24044443D01*
X24972699Y-24036561D01*
X24979289Y-24029289D01*
X24986561Y-24022699D01*
X24994443Y-24016853D01*
X25002860Y-24011808D01*
X25011732Y-24007612D01*
X25020972Y-24004306D01*
X25030491Y-24001921D01*
X25040198Y-24000482D01*
X25050000Y-24000000D01*
X25310000Y-24000000D01*
X25319802Y-24000482D01*
X25319802Y-24000482D01*
G37*
D18*
X25180000Y-24200000D03*
D14*
X18900000Y-23700000D03*
D15*
G36*
X19310122Y-23700000D02*
X18900000Y-24110122D01*
X18489878Y-23700000D01*
X18900000Y-23289878D01*
X19310122Y-23700000D01*
X19310122Y-23700000D01*
G37*
D16*
X19330000Y-24025000D03*
D15*
G36*
X19100000Y-24079289D02*
X19309289Y-23870000D01*
X19560000Y-23870000D01*
X19560000Y-24180000D01*
X19100000Y-24180000D01*
X19100000Y-24079289D01*
X19100000Y-24079289D01*
G37*
D16*
X18470000Y-24025000D03*
D15*
G36*
X18240000Y-23870000D02*
X18490711Y-23870000D01*
X18700000Y-24079289D01*
X18700000Y-24180000D01*
X18240000Y-24180000D01*
X18240000Y-23870000D01*
X18240000Y-23870000D01*
G37*
D16*
X18470000Y-23375000D03*
D15*
G36*
X18240000Y-23220000D02*
X18700000Y-23220000D01*
X18700000Y-23320711D01*
X18490711Y-23530000D01*
X18240000Y-23530000D01*
X18240000Y-23220000D01*
X18240000Y-23220000D01*
G37*
D16*
X19330000Y-23375000D03*
D15*
G36*
X19100000Y-23320711D02*
X19100000Y-23220000D01*
X19560000Y-23220000D01*
X19560000Y-23530000D01*
X19309289Y-23530000D01*
X19100000Y-23320711D01*
X19100000Y-23320711D01*
G37*
D19*
X26170000Y-21580000D03*
X26170000Y-22180000D03*
X26770000Y-21580000D03*
X26770000Y-22180000D03*
D20*
X26300000Y-17825000D03*
D15*
G36*
X17849802Y-17635482D02*
X17859509Y-17636921D01*
X17869028Y-17639306D01*
X17878268Y-17642612D01*
X17887140Y-17646808D01*
X17895557Y-17651853D01*
X17903439Y-17657699D01*
X17910711Y-17664289D01*
X17917301Y-17671561D01*
X17923147Y-17679443D01*
X17928192Y-17687860D01*
X17932388Y-17696732D01*
X17935694Y-17705972D01*
X17938079Y-17715491D01*
X17939518Y-17725198D01*
X17940000Y-17735000D01*
X17940000Y-17995000D01*
X17939518Y-18004802D01*
X17938079Y-18014509D01*
X17935694Y-18024028D01*
X17932388Y-18033268D01*
X17928192Y-18042140D01*
X17923147Y-18050557D01*
X17917301Y-18058439D01*
X17910711Y-18065711D01*
X17903439Y-18072301D01*
X17895557Y-18078147D01*
X17887140Y-18083192D01*
X17878268Y-18087388D01*
X17869028Y-18090694D01*
X17859509Y-18093079D01*
X17849802Y-18094518D01*
X17840000Y-18095000D01*
X17640000Y-18095000D01*
X17630198Y-18094518D01*
X17620491Y-18093079D01*
X17610972Y-18090694D01*
X17601732Y-18087388D01*
X17592860Y-18083192D01*
X17584443Y-18078147D01*
X17576561Y-18072301D01*
X17569289Y-18065711D01*
X17562699Y-18058439D01*
X17556853Y-18050557D01*
X17551808Y-18042140D01*
X17547612Y-18033268D01*
X17544306Y-18024028D01*
X17541921Y-18014509D01*
X17540482Y-18004802D01*
X17540000Y-17995000D01*
X17540000Y-17735000D01*
X17540482Y-17725198D01*
X17541921Y-17715491D01*
X17544306Y-17705972D01*
X17547612Y-17696732D01*
X17551808Y-17687860D01*
X17556853Y-17679443D01*
X17562699Y-17671561D01*
X17569289Y-17664289D01*
X17576561Y-17657699D01*
X17584443Y-17651853D01*
X17592860Y-17646808D01*
X17601732Y-17642612D01*
X17610972Y-17639306D01*
X17620491Y-17636921D01*
X17630198Y-17635482D01*
X17640000Y-17635000D01*
X17840000Y-17635000D01*
X17849802Y-17635482D01*
X17849802Y-17635482D01*
G37*
D18*
X17740000Y-17865000D03*
D15*
G36*
X17849802Y-18275482D02*
X17859509Y-18276921D01*
X17869028Y-18279306D01*
X17878268Y-18282612D01*
X17887140Y-18286808D01*
X17895557Y-18291853D01*
X17903439Y-18297699D01*
X17910711Y-18304289D01*
X17917301Y-18311561D01*
X17923147Y-18319443D01*
X17928192Y-18327860D01*
X17932388Y-18336732D01*
X17935694Y-18345972D01*
X17938079Y-18355491D01*
X17939518Y-18365198D01*
X17940000Y-18375000D01*
X17940000Y-18635000D01*
X17939518Y-18644802D01*
X17938079Y-18654509D01*
X17935694Y-18664028D01*
X17932388Y-18673268D01*
X17928192Y-18682140D01*
X17923147Y-18690557D01*
X17917301Y-18698439D01*
X17910711Y-18705711D01*
X17903439Y-18712301D01*
X17895557Y-18718147D01*
X17887140Y-18723192D01*
X17878268Y-18727388D01*
X17869028Y-18730694D01*
X17859509Y-18733079D01*
X17849802Y-18734518D01*
X17840000Y-18735000D01*
X17640000Y-18735000D01*
X17630198Y-18734518D01*
X17620491Y-18733079D01*
X17610972Y-18730694D01*
X17601732Y-18727388D01*
X17592860Y-18723192D01*
X17584443Y-18718147D01*
X17576561Y-18712301D01*
X17569289Y-18705711D01*
X17562699Y-18698439D01*
X17556853Y-18690557D01*
X17551808Y-18682140D01*
X17547612Y-18673268D01*
X17544306Y-18664028D01*
X17541921Y-18654509D01*
X17540482Y-18644802D01*
X17540000Y-18635000D01*
X17540000Y-18375000D01*
X17540482Y-18365198D01*
X17541921Y-18355491D01*
X17544306Y-18345972D01*
X17547612Y-18336732D01*
X17551808Y-18327860D01*
X17556853Y-18319443D01*
X17562699Y-18311561D01*
X17569289Y-18304289D01*
X17576561Y-18297699D01*
X17584443Y-18291853D01*
X17592860Y-18286808D01*
X17601732Y-18282612D01*
X17610972Y-18279306D01*
X17620491Y-18276921D01*
X17630198Y-18275482D01*
X17640000Y-18275000D01*
X17840000Y-18275000D01*
X17849802Y-18275482D01*
X17849802Y-18275482D01*
G37*
D18*
X17740000Y-18505000D03*
D15*
G36*
X23819802Y-17575482D02*
X23829509Y-17576921D01*
X23839028Y-17579306D01*
X23848268Y-17582612D01*
X23857140Y-17586808D01*
X23865557Y-17591853D01*
X23873439Y-17597699D01*
X23880711Y-17604289D01*
X23887301Y-17611561D01*
X23893147Y-17619443D01*
X23898192Y-17627860D01*
X23902388Y-17636732D01*
X23905694Y-17645972D01*
X23908079Y-17655491D01*
X23909518Y-17665198D01*
X23910000Y-17675000D01*
X23910000Y-17875000D01*
X23909518Y-17884802D01*
X23908079Y-17894509D01*
X23905694Y-17904028D01*
X23902388Y-17913268D01*
X23898192Y-17922140D01*
X23893147Y-17930557D01*
X23887301Y-17938439D01*
X23880711Y-17945711D01*
X23873439Y-17952301D01*
X23865557Y-17958147D01*
X23857140Y-17963192D01*
X23848268Y-17967388D01*
X23839028Y-17970694D01*
X23829509Y-17973079D01*
X23819802Y-17974518D01*
X23810000Y-17975000D01*
X23550000Y-17975000D01*
X23540198Y-17974518D01*
X23530491Y-17973079D01*
X23520972Y-17970694D01*
X23511732Y-17967388D01*
X23502860Y-17963192D01*
X23494443Y-17958147D01*
X23486561Y-17952301D01*
X23479289Y-17945711D01*
X23472699Y-17938439D01*
X23466853Y-17930557D01*
X23461808Y-17922140D01*
X23457612Y-17913268D01*
X23454306Y-17904028D01*
X23451921Y-17894509D01*
X23450482Y-17884802D01*
X23450000Y-17875000D01*
X23450000Y-17675000D01*
X23450482Y-17665198D01*
X23451921Y-17655491D01*
X23454306Y-17645972D01*
X23457612Y-17636732D01*
X23461808Y-17627860D01*
X23466853Y-17619443D01*
X23472699Y-17611561D01*
X23479289Y-17604289D01*
X23486561Y-17597699D01*
X23494443Y-17591853D01*
X23502860Y-17586808D01*
X23511732Y-17582612D01*
X23520972Y-17579306D01*
X23530491Y-17576921D01*
X23540198Y-17575482D01*
X23550000Y-17575000D01*
X23810000Y-17575000D01*
X23819802Y-17575482D01*
X23819802Y-17575482D01*
G37*
D18*
X23680000Y-17775000D03*
D15*
G36*
X24459802Y-17575482D02*
X24469509Y-17576921D01*
X24479028Y-17579306D01*
X24488268Y-17582612D01*
X24497140Y-17586808D01*
X24505557Y-17591853D01*
X24513439Y-17597699D01*
X24520711Y-17604289D01*
X24527301Y-17611561D01*
X24533147Y-17619443D01*
X24538192Y-17627860D01*
X24542388Y-17636732D01*
X24545694Y-17645972D01*
X24548079Y-17655491D01*
X24549518Y-17665198D01*
X24550000Y-17675000D01*
X24550000Y-17875000D01*
X24549518Y-17884802D01*
X24548079Y-17894509D01*
X24545694Y-17904028D01*
X24542388Y-17913268D01*
X24538192Y-17922140D01*
X24533147Y-17930557D01*
X24527301Y-17938439D01*
X24520711Y-17945711D01*
X24513439Y-17952301D01*
X24505557Y-17958147D01*
X24497140Y-17963192D01*
X24488268Y-17967388D01*
X24479028Y-17970694D01*
X24469509Y-17973079D01*
X24459802Y-17974518D01*
X24450000Y-17975000D01*
X24190000Y-17975000D01*
X24180198Y-17974518D01*
X24170491Y-17973079D01*
X24160972Y-17970694D01*
X24151732Y-17967388D01*
X24142860Y-17963192D01*
X24134443Y-17958147D01*
X24126561Y-17952301D01*
X24119289Y-17945711D01*
X24112699Y-17938439D01*
X24106853Y-17930557D01*
X24101808Y-17922140D01*
X24097612Y-17913268D01*
X24094306Y-17904028D01*
X24091921Y-17894509D01*
X24090482Y-17884802D01*
X24090000Y-17875000D01*
X24090000Y-17675000D01*
X24090482Y-17665198D01*
X24091921Y-17655491D01*
X24094306Y-17645972D01*
X24097612Y-17636732D01*
X24101808Y-17627860D01*
X24106853Y-17619443D01*
X24112699Y-17611561D01*
X24119289Y-17604289D01*
X24126561Y-17597699D01*
X24134443Y-17591853D01*
X24142860Y-17586808D01*
X24151732Y-17582612D01*
X24160972Y-17579306D01*
X24170491Y-17576921D01*
X24180198Y-17575482D01*
X24190000Y-17575000D01*
X24450000Y-17575000D01*
X24459802Y-17575482D01*
X24459802Y-17575482D01*
G37*
D18*
X24320000Y-17775000D03*
D15*
G36*
X17749802Y-25295482D02*
X17759509Y-25296921D01*
X17769028Y-25299306D01*
X17778268Y-25302612D01*
X17787140Y-25306808D01*
X17795557Y-25311853D01*
X17803439Y-25317699D01*
X17810711Y-25324289D01*
X17817301Y-25331561D01*
X17823147Y-25339443D01*
X17828192Y-25347860D01*
X17832388Y-25356732D01*
X17835694Y-25365972D01*
X17838079Y-25375491D01*
X17839518Y-25385198D01*
X17840000Y-25395000D01*
X17840000Y-25655000D01*
X17839518Y-25664802D01*
X17838079Y-25674509D01*
X17835694Y-25684028D01*
X17832388Y-25693268D01*
X17828192Y-25702140D01*
X17823147Y-25710557D01*
X17817301Y-25718439D01*
X17810711Y-25725711D01*
X17803439Y-25732301D01*
X17795557Y-25738147D01*
X17787140Y-25743192D01*
X17778268Y-25747388D01*
X17769028Y-25750694D01*
X17759509Y-25753079D01*
X17749802Y-25754518D01*
X17740000Y-25755000D01*
X17540000Y-25755000D01*
X17530198Y-25754518D01*
X17520491Y-25753079D01*
X17510972Y-25750694D01*
X17501732Y-25747388D01*
X17492860Y-25743192D01*
X17484443Y-25738147D01*
X17476561Y-25732301D01*
X17469289Y-25725711D01*
X17462699Y-25718439D01*
X17456853Y-25710557D01*
X17451808Y-25702140D01*
X17447612Y-25693268D01*
X17444306Y-25684028D01*
X17441921Y-25674509D01*
X17440482Y-25664802D01*
X17440000Y-25655000D01*
X17440000Y-25395000D01*
X17440482Y-25385198D01*
X17441921Y-25375491D01*
X17444306Y-25365972D01*
X17447612Y-25356732D01*
X17451808Y-25347860D01*
X17456853Y-25339443D01*
X17462699Y-25331561D01*
X17469289Y-25324289D01*
X17476561Y-25317699D01*
X17484443Y-25311853D01*
X17492860Y-25306808D01*
X17501732Y-25302612D01*
X17510972Y-25299306D01*
X17520491Y-25296921D01*
X17530198Y-25295482D01*
X17540000Y-25295000D01*
X17740000Y-25295000D01*
X17749802Y-25295482D01*
X17749802Y-25295482D01*
G37*
D18*
X17640000Y-25525000D03*
D15*
G36*
X17749802Y-24655482D02*
X17759509Y-24656921D01*
X17769028Y-24659306D01*
X17778268Y-24662612D01*
X17787140Y-24666808D01*
X17795557Y-24671853D01*
X17803439Y-24677699D01*
X17810711Y-24684289D01*
X17817301Y-24691561D01*
X17823147Y-24699443D01*
X17828192Y-24707860D01*
X17832388Y-24716732D01*
X17835694Y-24725972D01*
X17838079Y-24735491D01*
X17839518Y-24745198D01*
X17840000Y-24755000D01*
X17840000Y-25015000D01*
X17839518Y-25024802D01*
X17838079Y-25034509D01*
X17835694Y-25044028D01*
X17832388Y-25053268D01*
X17828192Y-25062140D01*
X17823147Y-25070557D01*
X17817301Y-25078439D01*
X17810711Y-25085711D01*
X17803439Y-25092301D01*
X17795557Y-25098147D01*
X17787140Y-25103192D01*
X17778268Y-25107388D01*
X17769028Y-25110694D01*
X17759509Y-25113079D01*
X17749802Y-25114518D01*
X17740000Y-25115000D01*
X17540000Y-25115000D01*
X17530198Y-25114518D01*
X17520491Y-25113079D01*
X17510972Y-25110694D01*
X17501732Y-25107388D01*
X17492860Y-25103192D01*
X17484443Y-25098147D01*
X17476561Y-25092301D01*
X17469289Y-25085711D01*
X17462699Y-25078439D01*
X17456853Y-25070557D01*
X17451808Y-25062140D01*
X17447612Y-25053268D01*
X17444306Y-25044028D01*
X17441921Y-25034509D01*
X17440482Y-25024802D01*
X17440000Y-25015000D01*
X17440000Y-24755000D01*
X17440482Y-24745198D01*
X17441921Y-24735491D01*
X17444306Y-24725972D01*
X17447612Y-24716732D01*
X17451808Y-24707860D01*
X17456853Y-24699443D01*
X17462699Y-24691561D01*
X17469289Y-24684289D01*
X17476561Y-24677699D01*
X17484443Y-24671853D01*
X17492860Y-24666808D01*
X17501732Y-24662612D01*
X17510972Y-24659306D01*
X17520491Y-24656921D01*
X17530198Y-24655482D01*
X17540000Y-24655000D01*
X17740000Y-24655000D01*
X17749802Y-24655482D01*
X17749802Y-24655482D01*
G37*
D18*
X17640000Y-24885000D03*
D15*
G36*
X22209802Y-20675482D02*
X22219509Y-20676921D01*
X22229028Y-20679306D01*
X22238268Y-20682612D01*
X22247140Y-20686808D01*
X22255557Y-20691853D01*
X22263439Y-20697699D01*
X22270711Y-20704289D01*
X22277301Y-20711561D01*
X22283147Y-20719443D01*
X22288192Y-20727860D01*
X22292388Y-20736732D01*
X22295694Y-20745972D01*
X22298079Y-20755491D01*
X22299518Y-20765198D01*
X22300000Y-20775000D01*
X22300000Y-21035000D01*
X22299518Y-21044802D01*
X22298079Y-21054509D01*
X22295694Y-21064028D01*
X22292388Y-21073268D01*
X22288192Y-21082140D01*
X22283147Y-21090557D01*
X22277301Y-21098439D01*
X22270711Y-21105711D01*
X22263439Y-21112301D01*
X22255557Y-21118147D01*
X22247140Y-21123192D01*
X22238268Y-21127388D01*
X22229028Y-21130694D01*
X22219509Y-21133079D01*
X22209802Y-21134518D01*
X22200000Y-21135000D01*
X22000000Y-21135000D01*
X21990198Y-21134518D01*
X21980491Y-21133079D01*
X21970972Y-21130694D01*
X21961732Y-21127388D01*
X21952860Y-21123192D01*
X21944443Y-21118147D01*
X21936561Y-21112301D01*
X21929289Y-21105711D01*
X21922699Y-21098439D01*
X21916853Y-21090557D01*
X21911808Y-21082140D01*
X21907612Y-21073268D01*
X21904306Y-21064028D01*
X21901921Y-21054509D01*
X21900482Y-21044802D01*
X21900000Y-21035000D01*
X21900000Y-20775000D01*
X21900482Y-20765198D01*
X21901921Y-20755491D01*
X21904306Y-20745972D01*
X21907612Y-20736732D01*
X21911808Y-20727860D01*
X21916853Y-20719443D01*
X21922699Y-20711561D01*
X21929289Y-20704289D01*
X21936561Y-20697699D01*
X21944443Y-20691853D01*
X21952860Y-20686808D01*
X21961732Y-20682612D01*
X21970972Y-20679306D01*
X21980491Y-20676921D01*
X21990198Y-20675482D01*
X22000000Y-20675000D01*
X22200000Y-20675000D01*
X22209802Y-20675482D01*
X22209802Y-20675482D01*
G37*
D18*
X22100000Y-20905000D03*
D15*
G36*
X22209802Y-21315482D02*
X22219509Y-21316921D01*
X22229028Y-21319306D01*
X22238268Y-21322612D01*
X22247140Y-21326808D01*
X22255557Y-21331853D01*
X22263439Y-21337699D01*
X22270711Y-21344289D01*
X22277301Y-21351561D01*
X22283147Y-21359443D01*
X22288192Y-21367860D01*
X22292388Y-21376732D01*
X22295694Y-21385972D01*
X22298079Y-21395491D01*
X22299518Y-21405198D01*
X22300000Y-21415000D01*
X22300000Y-21675000D01*
X22299518Y-21684802D01*
X22298079Y-21694509D01*
X22295694Y-21704028D01*
X22292388Y-21713268D01*
X22288192Y-21722140D01*
X22283147Y-21730557D01*
X22277301Y-21738439D01*
X22270711Y-21745711D01*
X22263439Y-21752301D01*
X22255557Y-21758147D01*
X22247140Y-21763192D01*
X22238268Y-21767388D01*
X22229028Y-21770694D01*
X22219509Y-21773079D01*
X22209802Y-21774518D01*
X22200000Y-21775000D01*
X22000000Y-21775000D01*
X21990198Y-21774518D01*
X21980491Y-21773079D01*
X21970972Y-21770694D01*
X21961732Y-21767388D01*
X21952860Y-21763192D01*
X21944443Y-21758147D01*
X21936561Y-21752301D01*
X21929289Y-21745711D01*
X21922699Y-21738439D01*
X21916853Y-21730557D01*
X21911808Y-21722140D01*
X21907612Y-21713268D01*
X21904306Y-21704028D01*
X21901921Y-21694509D01*
X21900482Y-21684802D01*
X21900000Y-21675000D01*
X21900000Y-21415000D01*
X21900482Y-21405198D01*
X21901921Y-21395491D01*
X21904306Y-21385972D01*
X21907612Y-21376732D01*
X21911808Y-21367860D01*
X21916853Y-21359443D01*
X21922699Y-21351561D01*
X21929289Y-21344289D01*
X21936561Y-21337699D01*
X21944443Y-21331853D01*
X21952860Y-21326808D01*
X21961732Y-21322612D01*
X21970972Y-21319306D01*
X21980491Y-21316921D01*
X21990198Y-21315482D01*
X22000000Y-21315000D01*
X22200000Y-21315000D01*
X22209802Y-21315482D01*
X22209802Y-21315482D01*
G37*
D18*
X22100000Y-21545000D03*
D15*
G36*
X20784802Y-25340482D02*
X20794509Y-25341921D01*
X20804028Y-25344306D01*
X20813268Y-25347612D01*
X20822140Y-25351808D01*
X20830557Y-25356853D01*
X20838439Y-25362699D01*
X20845711Y-25369289D01*
X20852301Y-25376561D01*
X20858147Y-25384443D01*
X20863192Y-25392860D01*
X20867388Y-25401732D01*
X20870694Y-25410972D01*
X20873079Y-25420491D01*
X20874518Y-25430198D01*
X20875000Y-25440000D01*
X20875000Y-25700000D01*
X20874518Y-25709802D01*
X20873079Y-25719509D01*
X20870694Y-25729028D01*
X20867388Y-25738268D01*
X20863192Y-25747140D01*
X20858147Y-25755557D01*
X20852301Y-25763439D01*
X20845711Y-25770711D01*
X20838439Y-25777301D01*
X20830557Y-25783147D01*
X20822140Y-25788192D01*
X20813268Y-25792388D01*
X20804028Y-25795694D01*
X20794509Y-25798079D01*
X20784802Y-25799518D01*
X20775000Y-25800000D01*
X20575000Y-25800000D01*
X20565198Y-25799518D01*
X20555491Y-25798079D01*
X20545972Y-25795694D01*
X20536732Y-25792388D01*
X20527860Y-25788192D01*
X20519443Y-25783147D01*
X20511561Y-25777301D01*
X20504289Y-25770711D01*
X20497699Y-25763439D01*
X20491853Y-25755557D01*
X20486808Y-25747140D01*
X20482612Y-25738268D01*
X20479306Y-25729028D01*
X20476921Y-25719509D01*
X20475482Y-25709802D01*
X20475000Y-25700000D01*
X20475000Y-25440000D01*
X20475482Y-25430198D01*
X20476921Y-25420491D01*
X20479306Y-25410972D01*
X20482612Y-25401732D01*
X20486808Y-25392860D01*
X20491853Y-25384443D01*
X20497699Y-25376561D01*
X20504289Y-25369289D01*
X20511561Y-25362699D01*
X20519443Y-25356853D01*
X20527860Y-25351808D01*
X20536732Y-25347612D01*
X20545972Y-25344306D01*
X20555491Y-25341921D01*
X20565198Y-25340482D01*
X20575000Y-25340000D01*
X20775000Y-25340000D01*
X20784802Y-25340482D01*
X20784802Y-25340482D01*
G37*
D18*
X20675000Y-25570000D03*
D15*
G36*
X20784802Y-24700482D02*
X20794509Y-24701921D01*
X20804028Y-24704306D01*
X20813268Y-24707612D01*
X20822140Y-24711808D01*
X20830557Y-24716853D01*
X20838439Y-24722699D01*
X20845711Y-24729289D01*
X20852301Y-24736561D01*
X20858147Y-24744443D01*
X20863192Y-24752860D01*
X20867388Y-24761732D01*
X20870694Y-24770972D01*
X20873079Y-24780491D01*
X20874518Y-24790198D01*
X20875000Y-24800000D01*
X20875000Y-25060000D01*
X20874518Y-25069802D01*
X20873079Y-25079509D01*
X20870694Y-25089028D01*
X20867388Y-25098268D01*
X20863192Y-25107140D01*
X20858147Y-25115557D01*
X20852301Y-25123439D01*
X20845711Y-25130711D01*
X20838439Y-25137301D01*
X20830557Y-25143147D01*
X20822140Y-25148192D01*
X20813268Y-25152388D01*
X20804028Y-25155694D01*
X20794509Y-25158079D01*
X20784802Y-25159518D01*
X20775000Y-25160000D01*
X20575000Y-25160000D01*
X20565198Y-25159518D01*
X20555491Y-25158079D01*
X20545972Y-25155694D01*
X20536732Y-25152388D01*
X20527860Y-25148192D01*
X20519443Y-25143147D01*
X20511561Y-25137301D01*
X20504289Y-25130711D01*
X20497699Y-25123439D01*
X20491853Y-25115557D01*
X20486808Y-25107140D01*
X20482612Y-25098268D01*
X20479306Y-25089028D01*
X20476921Y-25079509D01*
X20475482Y-25069802D01*
X20475000Y-25060000D01*
X20475000Y-24800000D01*
X20475482Y-24790198D01*
X20476921Y-24780491D01*
X20479306Y-24770972D01*
X20482612Y-24761732D01*
X20486808Y-24752860D01*
X20491853Y-24744443D01*
X20497699Y-24736561D01*
X20504289Y-24729289D01*
X20511561Y-24722699D01*
X20519443Y-24716853D01*
X20527860Y-24711808D01*
X20536732Y-24707612D01*
X20545972Y-24704306D01*
X20555491Y-24701921D01*
X20565198Y-24700482D01*
X20575000Y-24700000D01*
X20775000Y-24700000D01*
X20784802Y-24700482D01*
X20784802Y-24700482D01*
G37*
D18*
X20675000Y-24930000D03*
D15*
G36*
X22909802Y-20675482D02*
X22919509Y-20676921D01*
X22929028Y-20679306D01*
X22938268Y-20682612D01*
X22947140Y-20686808D01*
X22955557Y-20691853D01*
X22963439Y-20697699D01*
X22970711Y-20704289D01*
X22977301Y-20711561D01*
X22983147Y-20719443D01*
X22988192Y-20727860D01*
X22992388Y-20736732D01*
X22995694Y-20745972D01*
X22998079Y-20755491D01*
X22999518Y-20765198D01*
X23000000Y-20775000D01*
X23000000Y-21035000D01*
X22999518Y-21044802D01*
X22998079Y-21054509D01*
X22995694Y-21064028D01*
X22992388Y-21073268D01*
X22988192Y-21082140D01*
X22983147Y-21090557D01*
X22977301Y-21098439D01*
X22970711Y-21105711D01*
X22963439Y-21112301D01*
X22955557Y-21118147D01*
X22947140Y-21123192D01*
X22938268Y-21127388D01*
X22929028Y-21130694D01*
X22919509Y-21133079D01*
X22909802Y-21134518D01*
X22900000Y-21135000D01*
X22700000Y-21135000D01*
X22690198Y-21134518D01*
X22680491Y-21133079D01*
X22670972Y-21130694D01*
X22661732Y-21127388D01*
X22652860Y-21123192D01*
X22644443Y-21118147D01*
X22636561Y-21112301D01*
X22629289Y-21105711D01*
X22622699Y-21098439D01*
X22616853Y-21090557D01*
X22611808Y-21082140D01*
X22607612Y-21073268D01*
X22604306Y-21064028D01*
X22601921Y-21054509D01*
X22600482Y-21044802D01*
X22600000Y-21035000D01*
X22600000Y-20775000D01*
X22600482Y-20765198D01*
X22601921Y-20755491D01*
X22604306Y-20745972D01*
X22607612Y-20736732D01*
X22611808Y-20727860D01*
X22616853Y-20719443D01*
X22622699Y-20711561D01*
X22629289Y-20704289D01*
X22636561Y-20697699D01*
X22644443Y-20691853D01*
X22652860Y-20686808D01*
X22661732Y-20682612D01*
X22670972Y-20679306D01*
X22680491Y-20676921D01*
X22690198Y-20675482D01*
X22700000Y-20675000D01*
X22900000Y-20675000D01*
X22909802Y-20675482D01*
X22909802Y-20675482D01*
G37*
D18*
X22800000Y-20905000D03*
D15*
G36*
X22909802Y-21315482D02*
X22919509Y-21316921D01*
X22929028Y-21319306D01*
X22938268Y-21322612D01*
X22947140Y-21326808D01*
X22955557Y-21331853D01*
X22963439Y-21337699D01*
X22970711Y-21344289D01*
X22977301Y-21351561D01*
X22983147Y-21359443D01*
X22988192Y-21367860D01*
X22992388Y-21376732D01*
X22995694Y-21385972D01*
X22998079Y-21395491D01*
X22999518Y-21405198D01*
X23000000Y-21415000D01*
X23000000Y-21675000D01*
X22999518Y-21684802D01*
X22998079Y-21694509D01*
X22995694Y-21704028D01*
X22992388Y-21713268D01*
X22988192Y-21722140D01*
X22983147Y-21730557D01*
X22977301Y-21738439D01*
X22970711Y-21745711D01*
X22963439Y-21752301D01*
X22955557Y-21758147D01*
X22947140Y-21763192D01*
X22938268Y-21767388D01*
X22929028Y-21770694D01*
X22919509Y-21773079D01*
X22909802Y-21774518D01*
X22900000Y-21775000D01*
X22700000Y-21775000D01*
X22690198Y-21774518D01*
X22680491Y-21773079D01*
X22670972Y-21770694D01*
X22661732Y-21767388D01*
X22652860Y-21763192D01*
X22644443Y-21758147D01*
X22636561Y-21752301D01*
X22629289Y-21745711D01*
X22622699Y-21738439D01*
X22616853Y-21730557D01*
X22611808Y-21722140D01*
X22607612Y-21713268D01*
X22604306Y-21704028D01*
X22601921Y-21694509D01*
X22600482Y-21684802D01*
X22600000Y-21675000D01*
X22600000Y-21415000D01*
X22600482Y-21405198D01*
X22601921Y-21395491D01*
X22604306Y-21385972D01*
X22607612Y-21376732D01*
X22611808Y-21367860D01*
X22616853Y-21359443D01*
X22622699Y-21351561D01*
X22629289Y-21344289D01*
X22636561Y-21337699D01*
X22644443Y-21331853D01*
X22652860Y-21326808D01*
X22661732Y-21322612D01*
X22670972Y-21319306D01*
X22680491Y-21316921D01*
X22690198Y-21315482D01*
X22700000Y-21315000D01*
X22900000Y-21315000D01*
X22909802Y-21315482D01*
X22909802Y-21315482D01*
G37*
D18*
X22800000Y-21545000D03*
D15*
G36*
X26759802Y-20125482D02*
X26769509Y-20126921D01*
X26779028Y-20129306D01*
X26788268Y-20132612D01*
X26797140Y-20136808D01*
X26805557Y-20141853D01*
X26813439Y-20147699D01*
X26820711Y-20154289D01*
X26827301Y-20161561D01*
X26833147Y-20169443D01*
X26838192Y-20177860D01*
X26842388Y-20186732D01*
X26845694Y-20195972D01*
X26848079Y-20205491D01*
X26849518Y-20215198D01*
X26850000Y-20225000D01*
X26850000Y-20425000D01*
X26849518Y-20434802D01*
X26848079Y-20444509D01*
X26845694Y-20454028D01*
X26842388Y-20463268D01*
X26838192Y-20472140D01*
X26833147Y-20480557D01*
X26827301Y-20488439D01*
X26820711Y-20495711D01*
X26813439Y-20502301D01*
X26805557Y-20508147D01*
X26797140Y-20513192D01*
X26788268Y-20517388D01*
X26779028Y-20520694D01*
X26769509Y-20523079D01*
X26759802Y-20524518D01*
X26750000Y-20525000D01*
X26490000Y-20525000D01*
X26480198Y-20524518D01*
X26470491Y-20523079D01*
X26460972Y-20520694D01*
X26451732Y-20517388D01*
X26442860Y-20513192D01*
X26434443Y-20508147D01*
X26426561Y-20502301D01*
X26419289Y-20495711D01*
X26412699Y-20488439D01*
X26406853Y-20480557D01*
X26401808Y-20472140D01*
X26397612Y-20463268D01*
X26394306Y-20454028D01*
X26391921Y-20444509D01*
X26390482Y-20434802D01*
X26390000Y-20425000D01*
X26390000Y-20225000D01*
X26390482Y-20215198D01*
X26391921Y-20205491D01*
X26394306Y-20195972D01*
X26397612Y-20186732D01*
X26401808Y-20177860D01*
X26406853Y-20169443D01*
X26412699Y-20161561D01*
X26419289Y-20154289D01*
X26426561Y-20147699D01*
X26434443Y-20141853D01*
X26442860Y-20136808D01*
X26451732Y-20132612D01*
X26460972Y-20129306D01*
X26470491Y-20126921D01*
X26480198Y-20125482D01*
X26490000Y-20125000D01*
X26750000Y-20125000D01*
X26759802Y-20125482D01*
X26759802Y-20125482D01*
G37*
D18*
X26620000Y-20325000D03*
D15*
G36*
X26119802Y-20125482D02*
X26129509Y-20126921D01*
X26139028Y-20129306D01*
X26148268Y-20132612D01*
X26157140Y-20136808D01*
X26165557Y-20141853D01*
X26173439Y-20147699D01*
X26180711Y-20154289D01*
X26187301Y-20161561D01*
X26193147Y-20169443D01*
X26198192Y-20177860D01*
X26202388Y-20186732D01*
X26205694Y-20195972D01*
X26208079Y-20205491D01*
X26209518Y-20215198D01*
X26210000Y-20225000D01*
X26210000Y-20425000D01*
X26209518Y-20434802D01*
X26208079Y-20444509D01*
X26205694Y-20454028D01*
X26202388Y-20463268D01*
X26198192Y-20472140D01*
X26193147Y-20480557D01*
X26187301Y-20488439D01*
X26180711Y-20495711D01*
X26173439Y-20502301D01*
X26165557Y-20508147D01*
X26157140Y-20513192D01*
X26148268Y-20517388D01*
X26139028Y-20520694D01*
X26129509Y-20523079D01*
X26119802Y-20524518D01*
X26110000Y-20525000D01*
X25850000Y-20525000D01*
X25840198Y-20524518D01*
X25830491Y-20523079D01*
X25820972Y-20520694D01*
X25811732Y-20517388D01*
X25802860Y-20513192D01*
X25794443Y-20508147D01*
X25786561Y-20502301D01*
X25779289Y-20495711D01*
X25772699Y-20488439D01*
X25766853Y-20480557D01*
X25761808Y-20472140D01*
X25757612Y-20463268D01*
X25754306Y-20454028D01*
X25751921Y-20444509D01*
X25750482Y-20434802D01*
X25750000Y-20425000D01*
X25750000Y-20225000D01*
X25750482Y-20215198D01*
X25751921Y-20205491D01*
X25754306Y-20195972D01*
X25757612Y-20186732D01*
X25761808Y-20177860D01*
X25766853Y-20169443D01*
X25772699Y-20161561D01*
X25779289Y-20154289D01*
X25786561Y-20147699D01*
X25794443Y-20141853D01*
X25802860Y-20136808D01*
X25811732Y-20132612D01*
X25820972Y-20129306D01*
X25830491Y-20126921D01*
X25840198Y-20125482D01*
X25850000Y-20125000D01*
X26110000Y-20125000D01*
X26119802Y-20125482D01*
X26119802Y-20125482D01*
G37*
D18*
X25980000Y-20325000D03*
D15*
G36*
X25959802Y-24700482D02*
X25969509Y-24701921D01*
X25979028Y-24704306D01*
X25988268Y-24707612D01*
X25997140Y-24711808D01*
X26005557Y-24716853D01*
X26013439Y-24722699D01*
X26020711Y-24729289D01*
X26027301Y-24736561D01*
X26033147Y-24744443D01*
X26038192Y-24752860D01*
X26042388Y-24761732D01*
X26045694Y-24770972D01*
X26048079Y-24780491D01*
X26049518Y-24790198D01*
X26050000Y-24800000D01*
X26050000Y-25000000D01*
X26049518Y-25009802D01*
X26048079Y-25019509D01*
X26045694Y-25029028D01*
X26042388Y-25038268D01*
X26038192Y-25047140D01*
X26033147Y-25055557D01*
X26027301Y-25063439D01*
X26020711Y-25070711D01*
X26013439Y-25077301D01*
X26005557Y-25083147D01*
X25997140Y-25088192D01*
X25988268Y-25092388D01*
X25979028Y-25095694D01*
X25969509Y-25098079D01*
X25959802Y-25099518D01*
X25950000Y-25100000D01*
X25690000Y-25100000D01*
X25680198Y-25099518D01*
X25670491Y-25098079D01*
X25660972Y-25095694D01*
X25651732Y-25092388D01*
X25642860Y-25088192D01*
X25634443Y-25083147D01*
X25626561Y-25077301D01*
X25619289Y-25070711D01*
X25612699Y-25063439D01*
X25606853Y-25055557D01*
X25601808Y-25047140D01*
X25597612Y-25038268D01*
X25594306Y-25029028D01*
X25591921Y-25019509D01*
X25590482Y-25009802D01*
X25590000Y-25000000D01*
X25590000Y-24800000D01*
X25590482Y-24790198D01*
X25591921Y-24780491D01*
X25594306Y-24770972D01*
X25597612Y-24761732D01*
X25601808Y-24752860D01*
X25606853Y-24744443D01*
X25612699Y-24736561D01*
X25619289Y-24729289D01*
X25626561Y-24722699D01*
X25634443Y-24716853D01*
X25642860Y-24711808D01*
X25651732Y-24707612D01*
X25660972Y-24704306D01*
X25670491Y-24701921D01*
X25680198Y-24700482D01*
X25690000Y-24700000D01*
X25950000Y-24700000D01*
X25959802Y-24700482D01*
X25959802Y-24700482D01*
G37*
D18*
X25820000Y-24900000D03*
D15*
G36*
X25319802Y-24700482D02*
X25329509Y-24701921D01*
X25339028Y-24704306D01*
X25348268Y-24707612D01*
X25357140Y-24711808D01*
X25365557Y-24716853D01*
X25373439Y-24722699D01*
X25380711Y-24729289D01*
X25387301Y-24736561D01*
X25393147Y-24744443D01*
X25398192Y-24752860D01*
X25402388Y-24761732D01*
X25405694Y-24770972D01*
X25408079Y-24780491D01*
X25409518Y-24790198D01*
X25410000Y-24800000D01*
X25410000Y-25000000D01*
X25409518Y-25009802D01*
X25408079Y-25019509D01*
X25405694Y-25029028D01*
X25402388Y-25038268D01*
X25398192Y-25047140D01*
X25393147Y-25055557D01*
X25387301Y-25063439D01*
X25380711Y-25070711D01*
X25373439Y-25077301D01*
X25365557Y-25083147D01*
X25357140Y-25088192D01*
X25348268Y-25092388D01*
X25339028Y-25095694D01*
X25329509Y-25098079D01*
X25319802Y-25099518D01*
X25310000Y-25100000D01*
X25050000Y-25100000D01*
X25040198Y-25099518D01*
X25030491Y-25098079D01*
X25020972Y-25095694D01*
X25011732Y-25092388D01*
X25002860Y-25088192D01*
X24994443Y-25083147D01*
X24986561Y-25077301D01*
X24979289Y-25070711D01*
X24972699Y-25063439D01*
X24966853Y-25055557D01*
X24961808Y-25047140D01*
X24957612Y-25038268D01*
X24954306Y-25029028D01*
X24951921Y-25019509D01*
X24950482Y-25009802D01*
X24950000Y-25000000D01*
X24950000Y-24800000D01*
X24950482Y-24790198D01*
X24951921Y-24780491D01*
X24954306Y-24770972D01*
X24957612Y-24761732D01*
X24961808Y-24752860D01*
X24966853Y-24744443D01*
X24972699Y-24736561D01*
X24979289Y-24729289D01*
X24986561Y-24722699D01*
X24994443Y-24716853D01*
X25002860Y-24711808D01*
X25011732Y-24707612D01*
X25020972Y-24704306D01*
X25030491Y-24701921D01*
X25040198Y-24700482D01*
X25050000Y-24700000D01*
X25310000Y-24700000D01*
X25319802Y-24700482D01*
X25319802Y-24700482D01*
G37*
D18*
X25180000Y-24900000D03*
D15*
G36*
X26759802Y-19425482D02*
X26769509Y-19426921D01*
X26779028Y-19429306D01*
X26788268Y-19432612D01*
X26797140Y-19436808D01*
X26805557Y-19441853D01*
X26813439Y-19447699D01*
X26820711Y-19454289D01*
X26827301Y-19461561D01*
X26833147Y-19469443D01*
X26838192Y-19477860D01*
X26842388Y-19486732D01*
X26845694Y-19495972D01*
X26848079Y-19505491D01*
X26849518Y-19515198D01*
X26850000Y-19525000D01*
X26850000Y-19725000D01*
X26849518Y-19734802D01*
X26848079Y-19744509D01*
X26845694Y-19754028D01*
X26842388Y-19763268D01*
X26838192Y-19772140D01*
X26833147Y-19780557D01*
X26827301Y-19788439D01*
X26820711Y-19795711D01*
X26813439Y-19802301D01*
X26805557Y-19808147D01*
X26797140Y-19813192D01*
X26788268Y-19817388D01*
X26779028Y-19820694D01*
X26769509Y-19823079D01*
X26759802Y-19824518D01*
X26750000Y-19825000D01*
X26490000Y-19825000D01*
X26480198Y-19824518D01*
X26470491Y-19823079D01*
X26460972Y-19820694D01*
X26451732Y-19817388D01*
X26442860Y-19813192D01*
X26434443Y-19808147D01*
X26426561Y-19802301D01*
X26419289Y-19795711D01*
X26412699Y-19788439D01*
X26406853Y-19780557D01*
X26401808Y-19772140D01*
X26397612Y-19763268D01*
X26394306Y-19754028D01*
X26391921Y-19744509D01*
X26390482Y-19734802D01*
X26390000Y-19725000D01*
X26390000Y-19525000D01*
X26390482Y-19515198D01*
X26391921Y-19505491D01*
X26394306Y-19495972D01*
X26397612Y-19486732D01*
X26401808Y-19477860D01*
X26406853Y-19469443D01*
X26412699Y-19461561D01*
X26419289Y-19454289D01*
X26426561Y-19447699D01*
X26434443Y-19441853D01*
X26442860Y-19436808D01*
X26451732Y-19432612D01*
X26460972Y-19429306D01*
X26470491Y-19426921D01*
X26480198Y-19425482D01*
X26490000Y-19425000D01*
X26750000Y-19425000D01*
X26759802Y-19425482D01*
X26759802Y-19425482D01*
G37*
D18*
X26620000Y-19625000D03*
D15*
G36*
X26119802Y-19425482D02*
X26129509Y-19426921D01*
X26139028Y-19429306D01*
X26148268Y-19432612D01*
X26157140Y-19436808D01*
X26165557Y-19441853D01*
X26173439Y-19447699D01*
X26180711Y-19454289D01*
X26187301Y-19461561D01*
X26193147Y-19469443D01*
X26198192Y-19477860D01*
X26202388Y-19486732D01*
X26205694Y-19495972D01*
X26208079Y-19505491D01*
X26209518Y-19515198D01*
X26210000Y-19525000D01*
X26210000Y-19725000D01*
X26209518Y-19734802D01*
X26208079Y-19744509D01*
X26205694Y-19754028D01*
X26202388Y-19763268D01*
X26198192Y-19772140D01*
X26193147Y-19780557D01*
X26187301Y-19788439D01*
X26180711Y-19795711D01*
X26173439Y-19802301D01*
X26165557Y-19808147D01*
X26157140Y-19813192D01*
X26148268Y-19817388D01*
X26139028Y-19820694D01*
X26129509Y-19823079D01*
X26119802Y-19824518D01*
X26110000Y-19825000D01*
X25850000Y-19825000D01*
X25840198Y-19824518D01*
X25830491Y-19823079D01*
X25820972Y-19820694D01*
X25811732Y-19817388D01*
X25802860Y-19813192D01*
X25794443Y-19808147D01*
X25786561Y-19802301D01*
X25779289Y-19795711D01*
X25772699Y-19788439D01*
X25766853Y-19780557D01*
X25761808Y-19772140D01*
X25757612Y-19763268D01*
X25754306Y-19754028D01*
X25751921Y-19744509D01*
X25750482Y-19734802D01*
X25750000Y-19725000D01*
X25750000Y-19525000D01*
X25750482Y-19515198D01*
X25751921Y-19505491D01*
X25754306Y-19495972D01*
X25757612Y-19486732D01*
X25761808Y-19477860D01*
X25766853Y-19469443D01*
X25772699Y-19461561D01*
X25779289Y-19454289D01*
X25786561Y-19447699D01*
X25794443Y-19441853D01*
X25802860Y-19436808D01*
X25811732Y-19432612D01*
X25820972Y-19429306D01*
X25830491Y-19426921D01*
X25840198Y-19425482D01*
X25850000Y-19425000D01*
X26110000Y-19425000D01*
X26119802Y-19425482D01*
X26119802Y-19425482D01*
G37*
D18*
X25980000Y-19625000D03*
D15*
G36*
X17749802Y-23150482D02*
X17759509Y-23151921D01*
X17769028Y-23154306D01*
X17778268Y-23157612D01*
X17787140Y-23161808D01*
X17795557Y-23166853D01*
X17803439Y-23172699D01*
X17810711Y-23179289D01*
X17817301Y-23186561D01*
X17823147Y-23194443D01*
X17828192Y-23202860D01*
X17832388Y-23211732D01*
X17835694Y-23220972D01*
X17838079Y-23230491D01*
X17839518Y-23240198D01*
X17840000Y-23250000D01*
X17840000Y-23510000D01*
X17839518Y-23519802D01*
X17838079Y-23529509D01*
X17835694Y-23539028D01*
X17832388Y-23548268D01*
X17828192Y-23557140D01*
X17823147Y-23565557D01*
X17817301Y-23573439D01*
X17810711Y-23580711D01*
X17803439Y-23587301D01*
X17795557Y-23593147D01*
X17787140Y-23598192D01*
X17778268Y-23602388D01*
X17769028Y-23605694D01*
X17759509Y-23608079D01*
X17749802Y-23609518D01*
X17740000Y-23610000D01*
X17540000Y-23610000D01*
X17530198Y-23609518D01*
X17520491Y-23608079D01*
X17510972Y-23605694D01*
X17501732Y-23602388D01*
X17492860Y-23598192D01*
X17484443Y-23593147D01*
X17476561Y-23587301D01*
X17469289Y-23580711D01*
X17462699Y-23573439D01*
X17456853Y-23565557D01*
X17451808Y-23557140D01*
X17447612Y-23548268D01*
X17444306Y-23539028D01*
X17441921Y-23529509D01*
X17440482Y-23519802D01*
X17440000Y-23510000D01*
X17440000Y-23250000D01*
X17440482Y-23240198D01*
X17441921Y-23230491D01*
X17444306Y-23220972D01*
X17447612Y-23211732D01*
X17451808Y-23202860D01*
X17456853Y-23194443D01*
X17462699Y-23186561D01*
X17469289Y-23179289D01*
X17476561Y-23172699D01*
X17484443Y-23166853D01*
X17492860Y-23161808D01*
X17501732Y-23157612D01*
X17510972Y-23154306D01*
X17520491Y-23151921D01*
X17530198Y-23150482D01*
X17540000Y-23150000D01*
X17740000Y-23150000D01*
X17749802Y-23150482D01*
X17749802Y-23150482D01*
G37*
D18*
X17640000Y-23380000D03*
D15*
G36*
X17749802Y-23790482D02*
X17759509Y-23791921D01*
X17769028Y-23794306D01*
X17778268Y-23797612D01*
X17787140Y-23801808D01*
X17795557Y-23806853D01*
X17803439Y-23812699D01*
X17810711Y-23819289D01*
X17817301Y-23826561D01*
X17823147Y-23834443D01*
X17828192Y-23842860D01*
X17832388Y-23851732D01*
X17835694Y-23860972D01*
X17838079Y-23870491D01*
X17839518Y-23880198D01*
X17840000Y-23890000D01*
X17840000Y-24150000D01*
X17839518Y-24159802D01*
X17838079Y-24169509D01*
X17835694Y-24179028D01*
X17832388Y-24188268D01*
X17828192Y-24197140D01*
X17823147Y-24205557D01*
X17817301Y-24213439D01*
X17810711Y-24220711D01*
X17803439Y-24227301D01*
X17795557Y-24233147D01*
X17787140Y-24238192D01*
X17778268Y-24242388D01*
X17769028Y-24245694D01*
X17759509Y-24248079D01*
X17749802Y-24249518D01*
X17740000Y-24250000D01*
X17540000Y-24250000D01*
X17530198Y-24249518D01*
X17520491Y-24248079D01*
X17510972Y-24245694D01*
X17501732Y-24242388D01*
X17492860Y-24238192D01*
X17484443Y-24233147D01*
X17476561Y-24227301D01*
X17469289Y-24220711D01*
X17462699Y-24213439D01*
X17456853Y-24205557D01*
X17451808Y-24197140D01*
X17447612Y-24188268D01*
X17444306Y-24179028D01*
X17441921Y-24169509D01*
X17440482Y-24159802D01*
X17440000Y-24150000D01*
X17440000Y-23890000D01*
X17440482Y-23880198D01*
X17441921Y-23870491D01*
X17444306Y-23860972D01*
X17447612Y-23851732D01*
X17451808Y-23842860D01*
X17456853Y-23834443D01*
X17462699Y-23826561D01*
X17469289Y-23819289D01*
X17476561Y-23812699D01*
X17484443Y-23806853D01*
X17492860Y-23801808D01*
X17501732Y-23797612D01*
X17510972Y-23794306D01*
X17520491Y-23791921D01*
X17530198Y-23790482D01*
X17540000Y-23790000D01*
X17740000Y-23790000D01*
X17749802Y-23790482D01*
X17749802Y-23790482D01*
G37*
D18*
X17640000Y-24020000D03*
D15*
G36*
X17849802Y-19785482D02*
X17859509Y-19786921D01*
X17869028Y-19789306D01*
X17878268Y-19792612D01*
X17887140Y-19796808D01*
X17895557Y-19801853D01*
X17903439Y-19807699D01*
X17910711Y-19814289D01*
X17917301Y-19821561D01*
X17923147Y-19829443D01*
X17928192Y-19837860D01*
X17932388Y-19846732D01*
X17935694Y-19855972D01*
X17938079Y-19865491D01*
X17939518Y-19875198D01*
X17940000Y-19885000D01*
X17940000Y-20145000D01*
X17939518Y-20154802D01*
X17938079Y-20164509D01*
X17935694Y-20174028D01*
X17932388Y-20183268D01*
X17928192Y-20192140D01*
X17923147Y-20200557D01*
X17917301Y-20208439D01*
X17910711Y-20215711D01*
X17903439Y-20222301D01*
X17895557Y-20228147D01*
X17887140Y-20233192D01*
X17878268Y-20237388D01*
X17869028Y-20240694D01*
X17859509Y-20243079D01*
X17849802Y-20244518D01*
X17840000Y-20245000D01*
X17640000Y-20245000D01*
X17630198Y-20244518D01*
X17620491Y-20243079D01*
X17610972Y-20240694D01*
X17601732Y-20237388D01*
X17592860Y-20233192D01*
X17584443Y-20228147D01*
X17576561Y-20222301D01*
X17569289Y-20215711D01*
X17562699Y-20208439D01*
X17556853Y-20200557D01*
X17551808Y-20192140D01*
X17547612Y-20183268D01*
X17544306Y-20174028D01*
X17541921Y-20164509D01*
X17540482Y-20154802D01*
X17540000Y-20145000D01*
X17540000Y-19885000D01*
X17540482Y-19875198D01*
X17541921Y-19865491D01*
X17544306Y-19855972D01*
X17547612Y-19846732D01*
X17551808Y-19837860D01*
X17556853Y-19829443D01*
X17562699Y-19821561D01*
X17569289Y-19814289D01*
X17576561Y-19807699D01*
X17584443Y-19801853D01*
X17592860Y-19796808D01*
X17601732Y-19792612D01*
X17610972Y-19789306D01*
X17620491Y-19786921D01*
X17630198Y-19785482D01*
X17640000Y-19785000D01*
X17840000Y-19785000D01*
X17849802Y-19785482D01*
X17849802Y-19785482D01*
G37*
D18*
X17740000Y-20015000D03*
D15*
G36*
X17849802Y-19145482D02*
X17859509Y-19146921D01*
X17869028Y-19149306D01*
X17878268Y-19152612D01*
X17887140Y-19156808D01*
X17895557Y-19161853D01*
X17903439Y-19167699D01*
X17910711Y-19174289D01*
X17917301Y-19181561D01*
X17923147Y-19189443D01*
X17928192Y-19197860D01*
X17932388Y-19206732D01*
X17935694Y-19215972D01*
X17938079Y-19225491D01*
X17939518Y-19235198D01*
X17940000Y-19245000D01*
X17940000Y-19505000D01*
X17939518Y-19514802D01*
X17938079Y-19524509D01*
X17935694Y-19534028D01*
X17932388Y-19543268D01*
X17928192Y-19552140D01*
X17923147Y-19560557D01*
X17917301Y-19568439D01*
X17910711Y-19575711D01*
X17903439Y-19582301D01*
X17895557Y-19588147D01*
X17887140Y-19593192D01*
X17878268Y-19597388D01*
X17869028Y-19600694D01*
X17859509Y-19603079D01*
X17849802Y-19604518D01*
X17840000Y-19605000D01*
X17640000Y-19605000D01*
X17630198Y-19604518D01*
X17620491Y-19603079D01*
X17610972Y-19600694D01*
X17601732Y-19597388D01*
X17592860Y-19593192D01*
X17584443Y-19588147D01*
X17576561Y-19582301D01*
X17569289Y-19575711D01*
X17562699Y-19568439D01*
X17556853Y-19560557D01*
X17551808Y-19552140D01*
X17547612Y-19543268D01*
X17544306Y-19534028D01*
X17541921Y-19524509D01*
X17540482Y-19514802D01*
X17540000Y-19505000D01*
X17540000Y-19245000D01*
X17540482Y-19235198D01*
X17541921Y-19225491D01*
X17544306Y-19215972D01*
X17547612Y-19206732D01*
X17551808Y-19197860D01*
X17556853Y-19189443D01*
X17562699Y-19181561D01*
X17569289Y-19174289D01*
X17576561Y-19167699D01*
X17584443Y-19161853D01*
X17592860Y-19156808D01*
X17601732Y-19152612D01*
X17610972Y-19149306D01*
X17620491Y-19146921D01*
X17630198Y-19145482D01*
X17640000Y-19145000D01*
X17840000Y-19145000D01*
X17849802Y-19145482D01*
X17849802Y-19145482D01*
G37*
D18*
X17740000Y-19375000D03*
D15*
G36*
X21309802Y-22345482D02*
X21319509Y-22346921D01*
X21329028Y-22349306D01*
X21338268Y-22352612D01*
X21347140Y-22356808D01*
X21355557Y-22361853D01*
X21363439Y-22367699D01*
X21370711Y-22374289D01*
X21377301Y-22381561D01*
X21383147Y-22389443D01*
X21388192Y-22397860D01*
X21392388Y-22406732D01*
X21395694Y-22415972D01*
X21398079Y-22425491D01*
X21399518Y-22435198D01*
X21400000Y-22445000D01*
X21400000Y-22645000D01*
X21399518Y-22654802D01*
X21398079Y-22664509D01*
X21395694Y-22674028D01*
X21392388Y-22683268D01*
X21388192Y-22692140D01*
X21383147Y-22700557D01*
X21377301Y-22708439D01*
X21370711Y-22715711D01*
X21363439Y-22722301D01*
X21355557Y-22728147D01*
X21347140Y-22733192D01*
X21338268Y-22737388D01*
X21329028Y-22740694D01*
X21319509Y-22743079D01*
X21309802Y-22744518D01*
X21300000Y-22745000D01*
X21040000Y-22745000D01*
X21030198Y-22744518D01*
X21020491Y-22743079D01*
X21010972Y-22740694D01*
X21001732Y-22737388D01*
X20992860Y-22733192D01*
X20984443Y-22728147D01*
X20976561Y-22722301D01*
X20969289Y-22715711D01*
X20962699Y-22708439D01*
X20956853Y-22700557D01*
X20951808Y-22692140D01*
X20947612Y-22683268D01*
X20944306Y-22674028D01*
X20941921Y-22664509D01*
X20940482Y-22654802D01*
X20940000Y-22645000D01*
X20940000Y-22445000D01*
X20940482Y-22435198D01*
X20941921Y-22425491D01*
X20944306Y-22415972D01*
X20947612Y-22406732D01*
X20951808Y-22397860D01*
X20956853Y-22389443D01*
X20962699Y-22381561D01*
X20969289Y-22374289D01*
X20976561Y-22367699D01*
X20984443Y-22361853D01*
X20992860Y-22356808D01*
X21001732Y-22352612D01*
X21010972Y-22349306D01*
X21020491Y-22346921D01*
X21030198Y-22345482D01*
X21040000Y-22345000D01*
X21300000Y-22345000D01*
X21309802Y-22345482D01*
X21309802Y-22345482D01*
G37*
D18*
X21170000Y-22545000D03*
D15*
G36*
X20669802Y-22345482D02*
X20679509Y-22346921D01*
X20689028Y-22349306D01*
X20698268Y-22352612D01*
X20707140Y-22356808D01*
X20715557Y-22361853D01*
X20723439Y-22367699D01*
X20730711Y-22374289D01*
X20737301Y-22381561D01*
X20743147Y-22389443D01*
X20748192Y-22397860D01*
X20752388Y-22406732D01*
X20755694Y-22415972D01*
X20758079Y-22425491D01*
X20759518Y-22435198D01*
X20760000Y-22445000D01*
X20760000Y-22645000D01*
X20759518Y-22654802D01*
X20758079Y-22664509D01*
X20755694Y-22674028D01*
X20752388Y-22683268D01*
X20748192Y-22692140D01*
X20743147Y-22700557D01*
X20737301Y-22708439D01*
X20730711Y-22715711D01*
X20723439Y-22722301D01*
X20715557Y-22728147D01*
X20707140Y-22733192D01*
X20698268Y-22737388D01*
X20689028Y-22740694D01*
X20679509Y-22743079D01*
X20669802Y-22744518D01*
X20660000Y-22745000D01*
X20400000Y-22745000D01*
X20390198Y-22744518D01*
X20380491Y-22743079D01*
X20370972Y-22740694D01*
X20361732Y-22737388D01*
X20352860Y-22733192D01*
X20344443Y-22728147D01*
X20336561Y-22722301D01*
X20329289Y-22715711D01*
X20322699Y-22708439D01*
X20316853Y-22700557D01*
X20311808Y-22692140D01*
X20307612Y-22683268D01*
X20304306Y-22674028D01*
X20301921Y-22664509D01*
X20300482Y-22654802D01*
X20300000Y-22645000D01*
X20300000Y-22445000D01*
X20300482Y-22435198D01*
X20301921Y-22425491D01*
X20304306Y-22415972D01*
X20307612Y-22406732D01*
X20311808Y-22397860D01*
X20316853Y-22389443D01*
X20322699Y-22381561D01*
X20329289Y-22374289D01*
X20336561Y-22367699D01*
X20344443Y-22361853D01*
X20352860Y-22356808D01*
X20361732Y-22352612D01*
X20370972Y-22349306D01*
X20380491Y-22346921D01*
X20390198Y-22345482D01*
X20400000Y-22345000D01*
X20660000Y-22345000D01*
X20669802Y-22345482D01*
X20669802Y-22345482D01*
G37*
D18*
X20530000Y-22545000D03*
D15*
G36*
X22209802Y-22715482D02*
X22219509Y-22716921D01*
X22229028Y-22719306D01*
X22238268Y-22722612D01*
X22247140Y-22726808D01*
X22255557Y-22731853D01*
X22263439Y-22737699D01*
X22270711Y-22744289D01*
X22277301Y-22751561D01*
X22283147Y-22759443D01*
X22288192Y-22767860D01*
X22292388Y-22776732D01*
X22295694Y-22785972D01*
X22298079Y-22795491D01*
X22299518Y-22805198D01*
X22300000Y-22815000D01*
X22300000Y-23075000D01*
X22299518Y-23084802D01*
X22298079Y-23094509D01*
X22295694Y-23104028D01*
X22292388Y-23113268D01*
X22288192Y-23122140D01*
X22283147Y-23130557D01*
X22277301Y-23138439D01*
X22270711Y-23145711D01*
X22263439Y-23152301D01*
X22255557Y-23158147D01*
X22247140Y-23163192D01*
X22238268Y-23167388D01*
X22229028Y-23170694D01*
X22219509Y-23173079D01*
X22209802Y-23174518D01*
X22200000Y-23175000D01*
X22000000Y-23175000D01*
X21990198Y-23174518D01*
X21980491Y-23173079D01*
X21970972Y-23170694D01*
X21961732Y-23167388D01*
X21952860Y-23163192D01*
X21944443Y-23158147D01*
X21936561Y-23152301D01*
X21929289Y-23145711D01*
X21922699Y-23138439D01*
X21916853Y-23130557D01*
X21911808Y-23122140D01*
X21907612Y-23113268D01*
X21904306Y-23104028D01*
X21901921Y-23094509D01*
X21900482Y-23084802D01*
X21900000Y-23075000D01*
X21900000Y-22815000D01*
X21900482Y-22805198D01*
X21901921Y-22795491D01*
X21904306Y-22785972D01*
X21907612Y-22776732D01*
X21911808Y-22767860D01*
X21916853Y-22759443D01*
X21922699Y-22751561D01*
X21929289Y-22744289D01*
X21936561Y-22737699D01*
X21944443Y-22731853D01*
X21952860Y-22726808D01*
X21961732Y-22722612D01*
X21970972Y-22719306D01*
X21980491Y-22716921D01*
X21990198Y-22715482D01*
X22000000Y-22715000D01*
X22200000Y-22715000D01*
X22209802Y-22715482D01*
X22209802Y-22715482D01*
G37*
D18*
X22100000Y-22945000D03*
D15*
G36*
X22209802Y-22075482D02*
X22219509Y-22076921D01*
X22229028Y-22079306D01*
X22238268Y-22082612D01*
X22247140Y-22086808D01*
X22255557Y-22091853D01*
X22263439Y-22097699D01*
X22270711Y-22104289D01*
X22277301Y-22111561D01*
X22283147Y-22119443D01*
X22288192Y-22127860D01*
X22292388Y-22136732D01*
X22295694Y-22145972D01*
X22298079Y-22155491D01*
X22299518Y-22165198D01*
X22300000Y-22175000D01*
X22300000Y-22435000D01*
X22299518Y-22444802D01*
X22298079Y-22454509D01*
X22295694Y-22464028D01*
X22292388Y-22473268D01*
X22288192Y-22482140D01*
X22283147Y-22490557D01*
X22277301Y-22498439D01*
X22270711Y-22505711D01*
X22263439Y-22512301D01*
X22255557Y-22518147D01*
X22247140Y-22523192D01*
X22238268Y-22527388D01*
X22229028Y-22530694D01*
X22219509Y-22533079D01*
X22209802Y-22534518D01*
X22200000Y-22535000D01*
X22000000Y-22535000D01*
X21990198Y-22534518D01*
X21980491Y-22533079D01*
X21970972Y-22530694D01*
X21961732Y-22527388D01*
X21952860Y-22523192D01*
X21944443Y-22518147D01*
X21936561Y-22512301D01*
X21929289Y-22505711D01*
X21922699Y-22498439D01*
X21916853Y-22490557D01*
X21911808Y-22482140D01*
X21907612Y-22473268D01*
X21904306Y-22464028D01*
X21901921Y-22454509D01*
X21900482Y-22444802D01*
X21900000Y-22435000D01*
X21900000Y-22175000D01*
X21900482Y-22165198D01*
X21901921Y-22155491D01*
X21904306Y-22145972D01*
X21907612Y-22136732D01*
X21911808Y-22127860D01*
X21916853Y-22119443D01*
X21922699Y-22111561D01*
X21929289Y-22104289D01*
X21936561Y-22097699D01*
X21944443Y-22091853D01*
X21952860Y-22086808D01*
X21961732Y-22082612D01*
X21970972Y-22079306D01*
X21980491Y-22076921D01*
X21990198Y-22075482D01*
X22000000Y-22075000D01*
X22200000Y-22075000D01*
X22209802Y-22075482D01*
X22209802Y-22075482D01*
G37*
D18*
X22100000Y-22305000D03*
D15*
G36*
X22909802Y-22715482D02*
X22919509Y-22716921D01*
X22929028Y-22719306D01*
X22938268Y-22722612D01*
X22947140Y-22726808D01*
X22955557Y-22731853D01*
X22963439Y-22737699D01*
X22970711Y-22744289D01*
X22977301Y-22751561D01*
X22983147Y-22759443D01*
X22988192Y-22767860D01*
X22992388Y-22776732D01*
X22995694Y-22785972D01*
X22998079Y-22795491D01*
X22999518Y-22805198D01*
X23000000Y-22815000D01*
X23000000Y-23075000D01*
X22999518Y-23084802D01*
X22998079Y-23094509D01*
X22995694Y-23104028D01*
X22992388Y-23113268D01*
X22988192Y-23122140D01*
X22983147Y-23130557D01*
X22977301Y-23138439D01*
X22970711Y-23145711D01*
X22963439Y-23152301D01*
X22955557Y-23158147D01*
X22947140Y-23163192D01*
X22938268Y-23167388D01*
X22929028Y-23170694D01*
X22919509Y-23173079D01*
X22909802Y-23174518D01*
X22900000Y-23175000D01*
X22700000Y-23175000D01*
X22690198Y-23174518D01*
X22680491Y-23173079D01*
X22670972Y-23170694D01*
X22661732Y-23167388D01*
X22652860Y-23163192D01*
X22644443Y-23158147D01*
X22636561Y-23152301D01*
X22629289Y-23145711D01*
X22622699Y-23138439D01*
X22616853Y-23130557D01*
X22611808Y-23122140D01*
X22607612Y-23113268D01*
X22604306Y-23104028D01*
X22601921Y-23094509D01*
X22600482Y-23084802D01*
X22600000Y-23075000D01*
X22600000Y-22815000D01*
X22600482Y-22805198D01*
X22601921Y-22795491D01*
X22604306Y-22785972D01*
X22607612Y-22776732D01*
X22611808Y-22767860D01*
X22616853Y-22759443D01*
X22622699Y-22751561D01*
X22629289Y-22744289D01*
X22636561Y-22737699D01*
X22644443Y-22731853D01*
X22652860Y-22726808D01*
X22661732Y-22722612D01*
X22670972Y-22719306D01*
X22680491Y-22716921D01*
X22690198Y-22715482D01*
X22700000Y-22715000D01*
X22900000Y-22715000D01*
X22909802Y-22715482D01*
X22909802Y-22715482D01*
G37*
D18*
X22800000Y-22945000D03*
D15*
G36*
X22909802Y-22075482D02*
X22919509Y-22076921D01*
X22929028Y-22079306D01*
X22938268Y-22082612D01*
X22947140Y-22086808D01*
X22955557Y-22091853D01*
X22963439Y-22097699D01*
X22970711Y-22104289D01*
X22977301Y-22111561D01*
X22983147Y-22119443D01*
X22988192Y-22127860D01*
X22992388Y-22136732D01*
X22995694Y-22145972D01*
X22998079Y-22155491D01*
X22999518Y-22165198D01*
X23000000Y-22175000D01*
X23000000Y-22435000D01*
X22999518Y-22444802D01*
X22998079Y-22454509D01*
X22995694Y-22464028D01*
X22992388Y-22473268D01*
X22988192Y-22482140D01*
X22983147Y-22490557D01*
X22977301Y-22498439D01*
X22970711Y-22505711D01*
X22963439Y-22512301D01*
X22955557Y-22518147D01*
X22947140Y-22523192D01*
X22938268Y-22527388D01*
X22929028Y-22530694D01*
X22919509Y-22533079D01*
X22909802Y-22534518D01*
X22900000Y-22535000D01*
X22700000Y-22535000D01*
X22690198Y-22534518D01*
X22680491Y-22533079D01*
X22670972Y-22530694D01*
X22661732Y-22527388D01*
X22652860Y-22523192D01*
X22644443Y-22518147D01*
X22636561Y-22512301D01*
X22629289Y-22505711D01*
X22622699Y-22498439D01*
X22616853Y-22490557D01*
X22611808Y-22482140D01*
X22607612Y-22473268D01*
X22604306Y-22464028D01*
X22601921Y-22454509D01*
X22600482Y-22444802D01*
X22600000Y-22435000D01*
X22600000Y-22175000D01*
X22600482Y-22165198D01*
X22601921Y-22155491D01*
X22604306Y-22145972D01*
X22607612Y-22136732D01*
X22611808Y-22127860D01*
X22616853Y-22119443D01*
X22622699Y-22111561D01*
X22629289Y-22104289D01*
X22636561Y-22097699D01*
X22644443Y-22091853D01*
X22652860Y-22086808D01*
X22661732Y-22082612D01*
X22670972Y-22079306D01*
X22680491Y-22076921D01*
X22690198Y-22075482D01*
X22700000Y-22075000D01*
X22900000Y-22075000D01*
X22909802Y-22075482D01*
X22909802Y-22075482D01*
G37*
D18*
X22800000Y-22305000D03*
D15*
G36*
X20369802Y-18295482D02*
X20379509Y-18296921D01*
X20389028Y-18299306D01*
X20398268Y-18302612D01*
X20407140Y-18306808D01*
X20415557Y-18311853D01*
X20423439Y-18317699D01*
X20430711Y-18324289D01*
X20437301Y-18331561D01*
X20443147Y-18339443D01*
X20448192Y-18347860D01*
X20452388Y-18356732D01*
X20455694Y-18365972D01*
X20458079Y-18375491D01*
X20459518Y-18385198D01*
X20460000Y-18395000D01*
X20460000Y-18655000D01*
X20459518Y-18664802D01*
X20458079Y-18674509D01*
X20455694Y-18684028D01*
X20452388Y-18693268D01*
X20448192Y-18702140D01*
X20443147Y-18710557D01*
X20437301Y-18718439D01*
X20430711Y-18725711D01*
X20423439Y-18732301D01*
X20415557Y-18738147D01*
X20407140Y-18743192D01*
X20398268Y-18747388D01*
X20389028Y-18750694D01*
X20379509Y-18753079D01*
X20369802Y-18754518D01*
X20360000Y-18755000D01*
X20160000Y-18755000D01*
X20150198Y-18754518D01*
X20140491Y-18753079D01*
X20130972Y-18750694D01*
X20121732Y-18747388D01*
X20112860Y-18743192D01*
X20104443Y-18738147D01*
X20096561Y-18732301D01*
X20089289Y-18725711D01*
X20082699Y-18718439D01*
X20076853Y-18710557D01*
X20071808Y-18702140D01*
X20067612Y-18693268D01*
X20064306Y-18684028D01*
X20061921Y-18674509D01*
X20060482Y-18664802D01*
X20060000Y-18655000D01*
X20060000Y-18395000D01*
X20060482Y-18385198D01*
X20061921Y-18375491D01*
X20064306Y-18365972D01*
X20067612Y-18356732D01*
X20071808Y-18347860D01*
X20076853Y-18339443D01*
X20082699Y-18331561D01*
X20089289Y-18324289D01*
X20096561Y-18317699D01*
X20104443Y-18311853D01*
X20112860Y-18306808D01*
X20121732Y-18302612D01*
X20130972Y-18299306D01*
X20140491Y-18296921D01*
X20150198Y-18295482D01*
X20160000Y-18295000D01*
X20360000Y-18295000D01*
X20369802Y-18295482D01*
X20369802Y-18295482D01*
G37*
D18*
X20260000Y-18525000D03*
D15*
G36*
X20369802Y-17655482D02*
X20379509Y-17656921D01*
X20389028Y-17659306D01*
X20398268Y-17662612D01*
X20407140Y-17666808D01*
X20415557Y-17671853D01*
X20423439Y-17677699D01*
X20430711Y-17684289D01*
X20437301Y-17691561D01*
X20443147Y-17699443D01*
X20448192Y-17707860D01*
X20452388Y-17716732D01*
X20455694Y-17725972D01*
X20458079Y-17735491D01*
X20459518Y-17745198D01*
X20460000Y-17755000D01*
X20460000Y-18015000D01*
X20459518Y-18024802D01*
X20458079Y-18034509D01*
X20455694Y-18044028D01*
X20452388Y-18053268D01*
X20448192Y-18062140D01*
X20443147Y-18070557D01*
X20437301Y-18078439D01*
X20430711Y-18085711D01*
X20423439Y-18092301D01*
X20415557Y-18098147D01*
X20407140Y-18103192D01*
X20398268Y-18107388D01*
X20389028Y-18110694D01*
X20379509Y-18113079D01*
X20369802Y-18114518D01*
X20360000Y-18115000D01*
X20160000Y-18115000D01*
X20150198Y-18114518D01*
X20140491Y-18113079D01*
X20130972Y-18110694D01*
X20121732Y-18107388D01*
X20112860Y-18103192D01*
X20104443Y-18098147D01*
X20096561Y-18092301D01*
X20089289Y-18085711D01*
X20082699Y-18078439D01*
X20076853Y-18070557D01*
X20071808Y-18062140D01*
X20067612Y-18053268D01*
X20064306Y-18044028D01*
X20061921Y-18034509D01*
X20060482Y-18024802D01*
X20060000Y-18015000D01*
X20060000Y-17755000D01*
X20060482Y-17745198D01*
X20061921Y-17735491D01*
X20064306Y-17725972D01*
X20067612Y-17716732D01*
X20071808Y-17707860D01*
X20076853Y-17699443D01*
X20082699Y-17691561D01*
X20089289Y-17684289D01*
X20096561Y-17677699D01*
X20104443Y-17671853D01*
X20112860Y-17666808D01*
X20121732Y-17662612D01*
X20130972Y-17659306D01*
X20140491Y-17656921D01*
X20150198Y-17655482D01*
X20160000Y-17655000D01*
X20360000Y-17655000D01*
X20369802Y-17655482D01*
X20369802Y-17655482D01*
G37*
D18*
X20260000Y-17885000D03*
D15*
G36*
X20259802Y-23685482D02*
X20269509Y-23686921D01*
X20279028Y-23689306D01*
X20288268Y-23692612D01*
X20297140Y-23696808D01*
X20305557Y-23701853D01*
X20313439Y-23707699D01*
X20320711Y-23714289D01*
X20327301Y-23721561D01*
X20333147Y-23729443D01*
X20338192Y-23737860D01*
X20342388Y-23746732D01*
X20345694Y-23755972D01*
X20348079Y-23765491D01*
X20349518Y-23775198D01*
X20350000Y-23785000D01*
X20350000Y-24045000D01*
X20349518Y-24054802D01*
X20348079Y-24064509D01*
X20345694Y-24074028D01*
X20342388Y-24083268D01*
X20338192Y-24092140D01*
X20333147Y-24100557D01*
X20327301Y-24108439D01*
X20320711Y-24115711D01*
X20313439Y-24122301D01*
X20305557Y-24128147D01*
X20297140Y-24133192D01*
X20288268Y-24137388D01*
X20279028Y-24140694D01*
X20269509Y-24143079D01*
X20259802Y-24144518D01*
X20250000Y-24145000D01*
X20050000Y-24145000D01*
X20040198Y-24144518D01*
X20030491Y-24143079D01*
X20020972Y-24140694D01*
X20011732Y-24137388D01*
X20002860Y-24133192D01*
X19994443Y-24128147D01*
X19986561Y-24122301D01*
X19979289Y-24115711D01*
X19972699Y-24108439D01*
X19966853Y-24100557D01*
X19961808Y-24092140D01*
X19957612Y-24083268D01*
X19954306Y-24074028D01*
X19951921Y-24064509D01*
X19950482Y-24054802D01*
X19950000Y-24045000D01*
X19950000Y-23785000D01*
X19950482Y-23775198D01*
X19951921Y-23765491D01*
X19954306Y-23755972D01*
X19957612Y-23746732D01*
X19961808Y-23737860D01*
X19966853Y-23729443D01*
X19972699Y-23721561D01*
X19979289Y-23714289D01*
X19986561Y-23707699D01*
X19994443Y-23701853D01*
X20002860Y-23696808D01*
X20011732Y-23692612D01*
X20020972Y-23689306D01*
X20030491Y-23686921D01*
X20040198Y-23685482D01*
X20050000Y-23685000D01*
X20250000Y-23685000D01*
X20259802Y-23685482D01*
X20259802Y-23685482D01*
G37*
D18*
X20150000Y-23915000D03*
D15*
G36*
X20259802Y-23045482D02*
X20269509Y-23046921D01*
X20279028Y-23049306D01*
X20288268Y-23052612D01*
X20297140Y-23056808D01*
X20305557Y-23061853D01*
X20313439Y-23067699D01*
X20320711Y-23074289D01*
X20327301Y-23081561D01*
X20333147Y-23089443D01*
X20338192Y-23097860D01*
X20342388Y-23106732D01*
X20345694Y-23115972D01*
X20348079Y-23125491D01*
X20349518Y-23135198D01*
X20350000Y-23145000D01*
X20350000Y-23405000D01*
X20349518Y-23414802D01*
X20348079Y-23424509D01*
X20345694Y-23434028D01*
X20342388Y-23443268D01*
X20338192Y-23452140D01*
X20333147Y-23460557D01*
X20327301Y-23468439D01*
X20320711Y-23475711D01*
X20313439Y-23482301D01*
X20305557Y-23488147D01*
X20297140Y-23493192D01*
X20288268Y-23497388D01*
X20279028Y-23500694D01*
X20269509Y-23503079D01*
X20259802Y-23504518D01*
X20250000Y-23505000D01*
X20050000Y-23505000D01*
X20040198Y-23504518D01*
X20030491Y-23503079D01*
X20020972Y-23500694D01*
X20011732Y-23497388D01*
X20002860Y-23493192D01*
X19994443Y-23488147D01*
X19986561Y-23482301D01*
X19979289Y-23475711D01*
X19972699Y-23468439D01*
X19966853Y-23460557D01*
X19961808Y-23452140D01*
X19957612Y-23443268D01*
X19954306Y-23434028D01*
X19951921Y-23424509D01*
X19950482Y-23414802D01*
X19950000Y-23405000D01*
X19950000Y-23145000D01*
X19950482Y-23135198D01*
X19951921Y-23125491D01*
X19954306Y-23115972D01*
X19957612Y-23106732D01*
X19961808Y-23097860D01*
X19966853Y-23089443D01*
X19972699Y-23081561D01*
X19979289Y-23074289D01*
X19986561Y-23067699D01*
X19994443Y-23061853D01*
X20002860Y-23056808D01*
X20011732Y-23052612D01*
X20020972Y-23049306D01*
X20030491Y-23046921D01*
X20040198Y-23045482D01*
X20050000Y-23045000D01*
X20250000Y-23045000D01*
X20259802Y-23045482D01*
X20259802Y-23045482D01*
G37*
D18*
X20150000Y-23275000D03*
D15*
G36*
X20369802Y-19770482D02*
X20379509Y-19771921D01*
X20389028Y-19774306D01*
X20398268Y-19777612D01*
X20407140Y-19781808D01*
X20415557Y-19786853D01*
X20423439Y-19792699D01*
X20430711Y-19799289D01*
X20437301Y-19806561D01*
X20443147Y-19814443D01*
X20448192Y-19822860D01*
X20452388Y-19831732D01*
X20455694Y-19840972D01*
X20458079Y-19850491D01*
X20459518Y-19860198D01*
X20460000Y-19870000D01*
X20460000Y-20130000D01*
X20459518Y-20139802D01*
X20458079Y-20149509D01*
X20455694Y-20159028D01*
X20452388Y-20168268D01*
X20448192Y-20177140D01*
X20443147Y-20185557D01*
X20437301Y-20193439D01*
X20430711Y-20200711D01*
X20423439Y-20207301D01*
X20415557Y-20213147D01*
X20407140Y-20218192D01*
X20398268Y-20222388D01*
X20389028Y-20225694D01*
X20379509Y-20228079D01*
X20369802Y-20229518D01*
X20360000Y-20230000D01*
X20160000Y-20230000D01*
X20150198Y-20229518D01*
X20140491Y-20228079D01*
X20130972Y-20225694D01*
X20121732Y-20222388D01*
X20112860Y-20218192D01*
X20104443Y-20213147D01*
X20096561Y-20207301D01*
X20089289Y-20200711D01*
X20082699Y-20193439D01*
X20076853Y-20185557D01*
X20071808Y-20177140D01*
X20067612Y-20168268D01*
X20064306Y-20159028D01*
X20061921Y-20149509D01*
X20060482Y-20139802D01*
X20060000Y-20130000D01*
X20060000Y-19870000D01*
X20060482Y-19860198D01*
X20061921Y-19850491D01*
X20064306Y-19840972D01*
X20067612Y-19831732D01*
X20071808Y-19822860D01*
X20076853Y-19814443D01*
X20082699Y-19806561D01*
X20089289Y-19799289D01*
X20096561Y-19792699D01*
X20104443Y-19786853D01*
X20112860Y-19781808D01*
X20121732Y-19777612D01*
X20130972Y-19774306D01*
X20140491Y-19771921D01*
X20150198Y-19770482D01*
X20160000Y-19770000D01*
X20360000Y-19770000D01*
X20369802Y-19770482D01*
X20369802Y-19770482D01*
G37*
D18*
X20260000Y-20000000D03*
D15*
G36*
X20369802Y-19130482D02*
X20379509Y-19131921D01*
X20389028Y-19134306D01*
X20398268Y-19137612D01*
X20407140Y-19141808D01*
X20415557Y-19146853D01*
X20423439Y-19152699D01*
X20430711Y-19159289D01*
X20437301Y-19166561D01*
X20443147Y-19174443D01*
X20448192Y-19182860D01*
X20452388Y-19191732D01*
X20455694Y-19200972D01*
X20458079Y-19210491D01*
X20459518Y-19220198D01*
X20460000Y-19230000D01*
X20460000Y-19490000D01*
X20459518Y-19499802D01*
X20458079Y-19509509D01*
X20455694Y-19519028D01*
X20452388Y-19528268D01*
X20448192Y-19537140D01*
X20443147Y-19545557D01*
X20437301Y-19553439D01*
X20430711Y-19560711D01*
X20423439Y-19567301D01*
X20415557Y-19573147D01*
X20407140Y-19578192D01*
X20398268Y-19582388D01*
X20389028Y-19585694D01*
X20379509Y-19588079D01*
X20369802Y-19589518D01*
X20360000Y-19590000D01*
X20160000Y-19590000D01*
X20150198Y-19589518D01*
X20140491Y-19588079D01*
X20130972Y-19585694D01*
X20121732Y-19582388D01*
X20112860Y-19578192D01*
X20104443Y-19573147D01*
X20096561Y-19567301D01*
X20089289Y-19560711D01*
X20082699Y-19553439D01*
X20076853Y-19545557D01*
X20071808Y-19537140D01*
X20067612Y-19528268D01*
X20064306Y-19519028D01*
X20061921Y-19509509D01*
X20060482Y-19499802D01*
X20060000Y-19490000D01*
X20060000Y-19230000D01*
X20060482Y-19220198D01*
X20061921Y-19210491D01*
X20064306Y-19200972D01*
X20067612Y-19191732D01*
X20071808Y-19182860D01*
X20076853Y-19174443D01*
X20082699Y-19166561D01*
X20089289Y-19159289D01*
X20096561Y-19152699D01*
X20104443Y-19146853D01*
X20112860Y-19141808D01*
X20121732Y-19137612D01*
X20130972Y-19134306D01*
X20140491Y-19131921D01*
X20150198Y-19130482D01*
X20160000Y-19130000D01*
X20360000Y-19130000D01*
X20369802Y-19130482D01*
X20369802Y-19130482D01*
G37*
D18*
X20260000Y-19360000D03*
D15*
G36*
X18509802Y-21650482D02*
X18519509Y-21651921D01*
X18529028Y-21654306D01*
X18538268Y-21657612D01*
X18547140Y-21661808D01*
X18555557Y-21666853D01*
X18563439Y-21672699D01*
X18570711Y-21679289D01*
X18577301Y-21686561D01*
X18583147Y-21694443D01*
X18588192Y-21702860D01*
X18592388Y-21711732D01*
X18595694Y-21720972D01*
X18598079Y-21730491D01*
X18599518Y-21740198D01*
X18600000Y-21750000D01*
X18600000Y-22010000D01*
X18599518Y-22019802D01*
X18598079Y-22029509D01*
X18595694Y-22039028D01*
X18592388Y-22048268D01*
X18588192Y-22057140D01*
X18583147Y-22065557D01*
X18577301Y-22073439D01*
X18570711Y-22080711D01*
X18563439Y-22087301D01*
X18555557Y-22093147D01*
X18547140Y-22098192D01*
X18538268Y-22102388D01*
X18529028Y-22105694D01*
X18519509Y-22108079D01*
X18509802Y-22109518D01*
X18500000Y-22110000D01*
X18300000Y-22110000D01*
X18290198Y-22109518D01*
X18280491Y-22108079D01*
X18270972Y-22105694D01*
X18261732Y-22102388D01*
X18252860Y-22098192D01*
X18244443Y-22093147D01*
X18236561Y-22087301D01*
X18229289Y-22080711D01*
X18222699Y-22073439D01*
X18216853Y-22065557D01*
X18211808Y-22057140D01*
X18207612Y-22048268D01*
X18204306Y-22039028D01*
X18201921Y-22029509D01*
X18200482Y-22019802D01*
X18200000Y-22010000D01*
X18200000Y-21750000D01*
X18200482Y-21740198D01*
X18201921Y-21730491D01*
X18204306Y-21720972D01*
X18207612Y-21711732D01*
X18211808Y-21702860D01*
X18216853Y-21694443D01*
X18222699Y-21686561D01*
X18229289Y-21679289D01*
X18236561Y-21672699D01*
X18244443Y-21666853D01*
X18252860Y-21661808D01*
X18261732Y-21657612D01*
X18270972Y-21654306D01*
X18280491Y-21651921D01*
X18290198Y-21650482D01*
X18300000Y-21650000D01*
X18500000Y-21650000D01*
X18509802Y-21650482D01*
X18509802Y-21650482D01*
G37*
D18*
X18400000Y-21880000D03*
D15*
G36*
X18509802Y-22290482D02*
X18519509Y-22291921D01*
X18529028Y-22294306D01*
X18538268Y-22297612D01*
X18547140Y-22301808D01*
X18555557Y-22306853D01*
X18563439Y-22312699D01*
X18570711Y-22319289D01*
X18577301Y-22326561D01*
X18583147Y-22334443D01*
X18588192Y-22342860D01*
X18592388Y-22351732D01*
X18595694Y-22360972D01*
X18598079Y-22370491D01*
X18599518Y-22380198D01*
X18600000Y-22390000D01*
X18600000Y-22650000D01*
X18599518Y-22659802D01*
X18598079Y-22669509D01*
X18595694Y-22679028D01*
X18592388Y-22688268D01*
X18588192Y-22697140D01*
X18583147Y-22705557D01*
X18577301Y-22713439D01*
X18570711Y-22720711D01*
X18563439Y-22727301D01*
X18555557Y-22733147D01*
X18547140Y-22738192D01*
X18538268Y-22742388D01*
X18529028Y-22745694D01*
X18519509Y-22748079D01*
X18509802Y-22749518D01*
X18500000Y-22750000D01*
X18300000Y-22750000D01*
X18290198Y-22749518D01*
X18280491Y-22748079D01*
X18270972Y-22745694D01*
X18261732Y-22742388D01*
X18252860Y-22738192D01*
X18244443Y-22733147D01*
X18236561Y-22727301D01*
X18229289Y-22720711D01*
X18222699Y-22713439D01*
X18216853Y-22705557D01*
X18211808Y-22697140D01*
X18207612Y-22688268D01*
X18204306Y-22679028D01*
X18201921Y-22669509D01*
X18200482Y-22659802D01*
X18200000Y-22650000D01*
X18200000Y-22390000D01*
X18200482Y-22380198D01*
X18201921Y-22370491D01*
X18204306Y-22360972D01*
X18207612Y-22351732D01*
X18211808Y-22342860D01*
X18216853Y-22334443D01*
X18222699Y-22326561D01*
X18229289Y-22319289D01*
X18236561Y-22312699D01*
X18244443Y-22306853D01*
X18252860Y-22301808D01*
X18261732Y-22297612D01*
X18270972Y-22294306D01*
X18280491Y-22291921D01*
X18290198Y-22290482D01*
X18300000Y-22290000D01*
X18500000Y-22290000D01*
X18509802Y-22290482D01*
X18509802Y-22290482D01*
G37*
D18*
X18400000Y-22520000D03*
D15*
G36*
X17809802Y-22290482D02*
X17819509Y-22291921D01*
X17829028Y-22294306D01*
X17838268Y-22297612D01*
X17847140Y-22301808D01*
X17855557Y-22306853D01*
X17863439Y-22312699D01*
X17870711Y-22319289D01*
X17877301Y-22326561D01*
X17883147Y-22334443D01*
X17888192Y-22342860D01*
X17892388Y-22351732D01*
X17895694Y-22360972D01*
X17898079Y-22370491D01*
X17899518Y-22380198D01*
X17900000Y-22390000D01*
X17900000Y-22650000D01*
X17899518Y-22659802D01*
X17898079Y-22669509D01*
X17895694Y-22679028D01*
X17892388Y-22688268D01*
X17888192Y-22697140D01*
X17883147Y-22705557D01*
X17877301Y-22713439D01*
X17870711Y-22720711D01*
X17863439Y-22727301D01*
X17855557Y-22733147D01*
X17847140Y-22738192D01*
X17838268Y-22742388D01*
X17829028Y-22745694D01*
X17819509Y-22748079D01*
X17809802Y-22749518D01*
X17800000Y-22750000D01*
X17600000Y-22750000D01*
X17590198Y-22749518D01*
X17580491Y-22748079D01*
X17570972Y-22745694D01*
X17561732Y-22742388D01*
X17552860Y-22738192D01*
X17544443Y-22733147D01*
X17536561Y-22727301D01*
X17529289Y-22720711D01*
X17522699Y-22713439D01*
X17516853Y-22705557D01*
X17511808Y-22697140D01*
X17507612Y-22688268D01*
X17504306Y-22679028D01*
X17501921Y-22669509D01*
X17500482Y-22659802D01*
X17500000Y-22650000D01*
X17500000Y-22390000D01*
X17500482Y-22380198D01*
X17501921Y-22370491D01*
X17504306Y-22360972D01*
X17507612Y-22351732D01*
X17511808Y-22342860D01*
X17516853Y-22334443D01*
X17522699Y-22326561D01*
X17529289Y-22319289D01*
X17536561Y-22312699D01*
X17544443Y-22306853D01*
X17552860Y-22301808D01*
X17561732Y-22297612D01*
X17570972Y-22294306D01*
X17580491Y-22291921D01*
X17590198Y-22290482D01*
X17600000Y-22290000D01*
X17800000Y-22290000D01*
X17809802Y-22290482D01*
X17809802Y-22290482D01*
G37*
D18*
X17700000Y-22520000D03*
D15*
G36*
X17809802Y-21650482D02*
X17819509Y-21651921D01*
X17829028Y-21654306D01*
X17838268Y-21657612D01*
X17847140Y-21661808D01*
X17855557Y-21666853D01*
X17863439Y-21672699D01*
X17870711Y-21679289D01*
X17877301Y-21686561D01*
X17883147Y-21694443D01*
X17888192Y-21702860D01*
X17892388Y-21711732D01*
X17895694Y-21720972D01*
X17898079Y-21730491D01*
X17899518Y-21740198D01*
X17900000Y-21750000D01*
X17900000Y-22010000D01*
X17899518Y-22019802D01*
X17898079Y-22029509D01*
X17895694Y-22039028D01*
X17892388Y-22048268D01*
X17888192Y-22057140D01*
X17883147Y-22065557D01*
X17877301Y-22073439D01*
X17870711Y-22080711D01*
X17863439Y-22087301D01*
X17855557Y-22093147D01*
X17847140Y-22098192D01*
X17838268Y-22102388D01*
X17829028Y-22105694D01*
X17819509Y-22108079D01*
X17809802Y-22109518D01*
X17800000Y-22110000D01*
X17600000Y-22110000D01*
X17590198Y-22109518D01*
X17580491Y-22108079D01*
X17570972Y-22105694D01*
X17561732Y-22102388D01*
X17552860Y-22098192D01*
X17544443Y-22093147D01*
X17536561Y-22087301D01*
X17529289Y-22080711D01*
X17522699Y-22073439D01*
X17516853Y-22065557D01*
X17511808Y-22057140D01*
X17507612Y-22048268D01*
X17504306Y-22039028D01*
X17501921Y-22029509D01*
X17500482Y-22019802D01*
X17500000Y-22010000D01*
X17500000Y-21750000D01*
X17500482Y-21740198D01*
X17501921Y-21730491D01*
X17504306Y-21720972D01*
X17507612Y-21711732D01*
X17511808Y-21702860D01*
X17516853Y-21694443D01*
X17522699Y-21686561D01*
X17529289Y-21679289D01*
X17536561Y-21672699D01*
X17544443Y-21666853D01*
X17552860Y-21661808D01*
X17561732Y-21657612D01*
X17570972Y-21654306D01*
X17580491Y-21651921D01*
X17590198Y-21650482D01*
X17600000Y-21650000D01*
X17800000Y-21650000D01*
X17809802Y-21650482D01*
X17809802Y-21650482D01*
G37*
D18*
X17700000Y-21880000D03*
D15*
G36*
X25319802Y-25400482D02*
X25329509Y-25401921D01*
X25339028Y-25404306D01*
X25348268Y-25407612D01*
X25357140Y-25411808D01*
X25365557Y-25416853D01*
X25373439Y-25422699D01*
X25380711Y-25429289D01*
X25387301Y-25436561D01*
X25393147Y-25444443D01*
X25398192Y-25452860D01*
X25402388Y-25461732D01*
X25405694Y-25470972D01*
X25408079Y-25480491D01*
X25409518Y-25490198D01*
X25410000Y-25500000D01*
X25410000Y-25700000D01*
X25409518Y-25709802D01*
X25408079Y-25719509D01*
X25405694Y-25729028D01*
X25402388Y-25738268D01*
X25398192Y-25747140D01*
X25393147Y-25755557D01*
X25387301Y-25763439D01*
X25380711Y-25770711D01*
X25373439Y-25777301D01*
X25365557Y-25783147D01*
X25357140Y-25788192D01*
X25348268Y-25792388D01*
X25339028Y-25795694D01*
X25329509Y-25798079D01*
X25319802Y-25799518D01*
X25310000Y-25800000D01*
X25050000Y-25800000D01*
X25040198Y-25799518D01*
X25030491Y-25798079D01*
X25020972Y-25795694D01*
X25011732Y-25792388D01*
X25002860Y-25788192D01*
X24994443Y-25783147D01*
X24986561Y-25777301D01*
X24979289Y-25770711D01*
X24972699Y-25763439D01*
X24966853Y-25755557D01*
X24961808Y-25747140D01*
X24957612Y-25738268D01*
X24954306Y-25729028D01*
X24951921Y-25719509D01*
X24950482Y-25709802D01*
X24950000Y-25700000D01*
X24950000Y-25500000D01*
X24950482Y-25490198D01*
X24951921Y-25480491D01*
X24954306Y-25470972D01*
X24957612Y-25461732D01*
X24961808Y-25452860D01*
X24966853Y-25444443D01*
X24972699Y-25436561D01*
X24979289Y-25429289D01*
X24986561Y-25422699D01*
X24994443Y-25416853D01*
X25002860Y-25411808D01*
X25011732Y-25407612D01*
X25020972Y-25404306D01*
X25030491Y-25401921D01*
X25040198Y-25400482D01*
X25050000Y-25400000D01*
X25310000Y-25400000D01*
X25319802Y-25400482D01*
X25319802Y-25400482D01*
G37*
D18*
X25180000Y-25600000D03*
D15*
G36*
X25959802Y-25400482D02*
X25969509Y-25401921D01*
X25979028Y-25404306D01*
X25988268Y-25407612D01*
X25997140Y-25411808D01*
X26005557Y-25416853D01*
X26013439Y-25422699D01*
X26020711Y-25429289D01*
X26027301Y-25436561D01*
X26033147Y-25444443D01*
X26038192Y-25452860D01*
X26042388Y-25461732D01*
X26045694Y-25470972D01*
X26048079Y-25480491D01*
X26049518Y-25490198D01*
X26050000Y-25500000D01*
X26050000Y-25700000D01*
X26049518Y-25709802D01*
X26048079Y-25719509D01*
X26045694Y-25729028D01*
X26042388Y-25738268D01*
X26038192Y-25747140D01*
X26033147Y-25755557D01*
X26027301Y-25763439D01*
X26020711Y-25770711D01*
X26013439Y-25777301D01*
X26005557Y-25783147D01*
X25997140Y-25788192D01*
X25988268Y-25792388D01*
X25979028Y-25795694D01*
X25969509Y-25798079D01*
X25959802Y-25799518D01*
X25950000Y-25800000D01*
X25690000Y-25800000D01*
X25680198Y-25799518D01*
X25670491Y-25798079D01*
X25660972Y-25795694D01*
X25651732Y-25792388D01*
X25642860Y-25788192D01*
X25634443Y-25783147D01*
X25626561Y-25777301D01*
X25619289Y-25770711D01*
X25612699Y-25763439D01*
X25606853Y-25755557D01*
X25601808Y-25747140D01*
X25597612Y-25738268D01*
X25594306Y-25729028D01*
X25591921Y-25719509D01*
X25590482Y-25709802D01*
X25590000Y-25700000D01*
X25590000Y-25500000D01*
X25590482Y-25490198D01*
X25591921Y-25480491D01*
X25594306Y-25470972D01*
X25597612Y-25461732D01*
X25601808Y-25452860D01*
X25606853Y-25444443D01*
X25612699Y-25436561D01*
X25619289Y-25429289D01*
X25626561Y-25422699D01*
X25634443Y-25416853D01*
X25642860Y-25411808D01*
X25651732Y-25407612D01*
X25660972Y-25404306D01*
X25670491Y-25401921D01*
X25680198Y-25400482D01*
X25690000Y-25400000D01*
X25950000Y-25400000D01*
X25959802Y-25400482D01*
X25959802Y-25400482D01*
G37*
D18*
X25820000Y-25600000D03*
D15*
G36*
X19209802Y-21650482D02*
X19219509Y-21651921D01*
X19229028Y-21654306D01*
X19238268Y-21657612D01*
X19247140Y-21661808D01*
X19255557Y-21666853D01*
X19263439Y-21672699D01*
X19270711Y-21679289D01*
X19277301Y-21686561D01*
X19283147Y-21694443D01*
X19288192Y-21702860D01*
X19292388Y-21711732D01*
X19295694Y-21720972D01*
X19298079Y-21730491D01*
X19299518Y-21740198D01*
X19300000Y-21750000D01*
X19300000Y-22010000D01*
X19299518Y-22019802D01*
X19298079Y-22029509D01*
X19295694Y-22039028D01*
X19292388Y-22048268D01*
X19288192Y-22057140D01*
X19283147Y-22065557D01*
X19277301Y-22073439D01*
X19270711Y-22080711D01*
X19263439Y-22087301D01*
X19255557Y-22093147D01*
X19247140Y-22098192D01*
X19238268Y-22102388D01*
X19229028Y-22105694D01*
X19219509Y-22108079D01*
X19209802Y-22109518D01*
X19200000Y-22110000D01*
X19000000Y-22110000D01*
X18990198Y-22109518D01*
X18980491Y-22108079D01*
X18970972Y-22105694D01*
X18961732Y-22102388D01*
X18952860Y-22098192D01*
X18944443Y-22093147D01*
X18936561Y-22087301D01*
X18929289Y-22080711D01*
X18922699Y-22073439D01*
X18916853Y-22065557D01*
X18911808Y-22057140D01*
X18907612Y-22048268D01*
X18904306Y-22039028D01*
X18901921Y-22029509D01*
X18900482Y-22019802D01*
X18900000Y-22010000D01*
X18900000Y-21750000D01*
X18900482Y-21740198D01*
X18901921Y-21730491D01*
X18904306Y-21720972D01*
X18907612Y-21711732D01*
X18911808Y-21702860D01*
X18916853Y-21694443D01*
X18922699Y-21686561D01*
X18929289Y-21679289D01*
X18936561Y-21672699D01*
X18944443Y-21666853D01*
X18952860Y-21661808D01*
X18961732Y-21657612D01*
X18970972Y-21654306D01*
X18980491Y-21651921D01*
X18990198Y-21650482D01*
X19000000Y-21650000D01*
X19200000Y-21650000D01*
X19209802Y-21650482D01*
X19209802Y-21650482D01*
G37*
D18*
X19100000Y-21880000D03*
D15*
G36*
X19209802Y-22290482D02*
X19219509Y-22291921D01*
X19229028Y-22294306D01*
X19238268Y-22297612D01*
X19247140Y-22301808D01*
X19255557Y-22306853D01*
X19263439Y-22312699D01*
X19270711Y-22319289D01*
X19277301Y-22326561D01*
X19283147Y-22334443D01*
X19288192Y-22342860D01*
X19292388Y-22351732D01*
X19295694Y-22360972D01*
X19298079Y-22370491D01*
X19299518Y-22380198D01*
X19300000Y-22390000D01*
X19300000Y-22650000D01*
X19299518Y-22659802D01*
X19298079Y-22669509D01*
X19295694Y-22679028D01*
X19292388Y-22688268D01*
X19288192Y-22697140D01*
X19283147Y-22705557D01*
X19277301Y-22713439D01*
X19270711Y-22720711D01*
X19263439Y-22727301D01*
X19255557Y-22733147D01*
X19247140Y-22738192D01*
X19238268Y-22742388D01*
X19229028Y-22745694D01*
X19219509Y-22748079D01*
X19209802Y-22749518D01*
X19200000Y-22750000D01*
X19000000Y-22750000D01*
X18990198Y-22749518D01*
X18980491Y-22748079D01*
X18970972Y-22745694D01*
X18961732Y-22742388D01*
X18952860Y-22738192D01*
X18944443Y-22733147D01*
X18936561Y-22727301D01*
X18929289Y-22720711D01*
X18922699Y-22713439D01*
X18916853Y-22705557D01*
X18911808Y-22697140D01*
X18907612Y-22688268D01*
X18904306Y-22679028D01*
X18901921Y-22669509D01*
X18900482Y-22659802D01*
X18900000Y-22650000D01*
X18900000Y-22390000D01*
X18900482Y-22380198D01*
X18901921Y-22370491D01*
X18904306Y-22360972D01*
X18907612Y-22351732D01*
X18911808Y-22342860D01*
X18916853Y-22334443D01*
X18922699Y-22326561D01*
X18929289Y-22319289D01*
X18936561Y-22312699D01*
X18944443Y-22306853D01*
X18952860Y-22301808D01*
X18961732Y-22297612D01*
X18970972Y-22294306D01*
X18980491Y-22291921D01*
X18990198Y-22290482D01*
X19000000Y-22290000D01*
X19200000Y-22290000D01*
X19209802Y-22290482D01*
X19209802Y-22290482D01*
G37*
D18*
X19100000Y-22520000D03*
D15*
G36*
X19909802Y-21650482D02*
X19919509Y-21651921D01*
X19929028Y-21654306D01*
X19938268Y-21657612D01*
X19947140Y-21661808D01*
X19955557Y-21666853D01*
X19963439Y-21672699D01*
X19970711Y-21679289D01*
X19977301Y-21686561D01*
X19983147Y-21694443D01*
X19988192Y-21702860D01*
X19992388Y-21711732D01*
X19995694Y-21720972D01*
X19998079Y-21730491D01*
X19999518Y-21740198D01*
X20000000Y-21750000D01*
X20000000Y-22010000D01*
X19999518Y-22019802D01*
X19998079Y-22029509D01*
X19995694Y-22039028D01*
X19992388Y-22048268D01*
X19988192Y-22057140D01*
X19983147Y-22065557D01*
X19977301Y-22073439D01*
X19970711Y-22080711D01*
X19963439Y-22087301D01*
X19955557Y-22093147D01*
X19947140Y-22098192D01*
X19938268Y-22102388D01*
X19929028Y-22105694D01*
X19919509Y-22108079D01*
X19909802Y-22109518D01*
X19900000Y-22110000D01*
X19700000Y-22110000D01*
X19690198Y-22109518D01*
X19680491Y-22108079D01*
X19670972Y-22105694D01*
X19661732Y-22102388D01*
X19652860Y-22098192D01*
X19644443Y-22093147D01*
X19636561Y-22087301D01*
X19629289Y-22080711D01*
X19622699Y-22073439D01*
X19616853Y-22065557D01*
X19611808Y-22057140D01*
X19607612Y-22048268D01*
X19604306Y-22039028D01*
X19601921Y-22029509D01*
X19600482Y-22019802D01*
X19600000Y-22010000D01*
X19600000Y-21750000D01*
X19600482Y-21740198D01*
X19601921Y-21730491D01*
X19604306Y-21720972D01*
X19607612Y-21711732D01*
X19611808Y-21702860D01*
X19616853Y-21694443D01*
X19622699Y-21686561D01*
X19629289Y-21679289D01*
X19636561Y-21672699D01*
X19644443Y-21666853D01*
X19652860Y-21661808D01*
X19661732Y-21657612D01*
X19670972Y-21654306D01*
X19680491Y-21651921D01*
X19690198Y-21650482D01*
X19700000Y-21650000D01*
X19900000Y-21650000D01*
X19909802Y-21650482D01*
X19909802Y-21650482D01*
G37*
D18*
X19800000Y-21880000D03*
D15*
G36*
X19909802Y-22290482D02*
X19919509Y-22291921D01*
X19929028Y-22294306D01*
X19938268Y-22297612D01*
X19947140Y-22301808D01*
X19955557Y-22306853D01*
X19963439Y-22312699D01*
X19970711Y-22319289D01*
X19977301Y-22326561D01*
X19983147Y-22334443D01*
X19988192Y-22342860D01*
X19992388Y-22351732D01*
X19995694Y-22360972D01*
X19998079Y-22370491D01*
X19999518Y-22380198D01*
X20000000Y-22390000D01*
X20000000Y-22650000D01*
X19999518Y-22659802D01*
X19998079Y-22669509D01*
X19995694Y-22679028D01*
X19992388Y-22688268D01*
X19988192Y-22697140D01*
X19983147Y-22705557D01*
X19977301Y-22713439D01*
X19970711Y-22720711D01*
X19963439Y-22727301D01*
X19955557Y-22733147D01*
X19947140Y-22738192D01*
X19938268Y-22742388D01*
X19929028Y-22745694D01*
X19919509Y-22748079D01*
X19909802Y-22749518D01*
X19900000Y-22750000D01*
X19700000Y-22750000D01*
X19690198Y-22749518D01*
X19680491Y-22748079D01*
X19670972Y-22745694D01*
X19661732Y-22742388D01*
X19652860Y-22738192D01*
X19644443Y-22733147D01*
X19636561Y-22727301D01*
X19629289Y-22720711D01*
X19622699Y-22713439D01*
X19616853Y-22705557D01*
X19611808Y-22697140D01*
X19607612Y-22688268D01*
X19604306Y-22679028D01*
X19601921Y-22669509D01*
X19600482Y-22659802D01*
X19600000Y-22650000D01*
X19600000Y-22390000D01*
X19600482Y-22380198D01*
X19601921Y-22370491D01*
X19604306Y-22360972D01*
X19607612Y-22351732D01*
X19611808Y-22342860D01*
X19616853Y-22334443D01*
X19622699Y-22326561D01*
X19629289Y-22319289D01*
X19636561Y-22312699D01*
X19644443Y-22306853D01*
X19652860Y-22301808D01*
X19661732Y-22297612D01*
X19670972Y-22294306D01*
X19680491Y-22291921D01*
X19690198Y-22290482D01*
X19700000Y-22290000D01*
X19900000Y-22290000D01*
X19909802Y-22290482D01*
X19909802Y-22290482D01*
G37*
D18*
X19800000Y-22520000D03*
D14*
X19000000Y-18200000D03*
D15*
G36*
X19410122Y-18200000D02*
X19000000Y-18610122D01*
X18589878Y-18200000D01*
X19000000Y-17789878D01*
X19410122Y-18200000D01*
X19410122Y-18200000D01*
G37*
D16*
X19430000Y-18525000D03*
D15*
G36*
X19200000Y-18579289D02*
X19409289Y-18370000D01*
X19660000Y-18370000D01*
X19660000Y-18680000D01*
X19200000Y-18680000D01*
X19200000Y-18579289D01*
X19200000Y-18579289D01*
G37*
D16*
X18570000Y-18525000D03*
D15*
G36*
X18340000Y-18370000D02*
X18590711Y-18370000D01*
X18800000Y-18579289D01*
X18800000Y-18680000D01*
X18340000Y-18680000D01*
X18340000Y-18370000D01*
X18340000Y-18370000D01*
G37*
D16*
X18570000Y-17875000D03*
D15*
G36*
X18340000Y-17720000D02*
X18800000Y-17720000D01*
X18800000Y-17820711D01*
X18590711Y-18030000D01*
X18340000Y-18030000D01*
X18340000Y-17720000D01*
X18340000Y-17720000D01*
G37*
D16*
X19430000Y-17875000D03*
D15*
G36*
X19200000Y-17820711D02*
X19200000Y-17720000D01*
X19660000Y-17720000D01*
X19660000Y-18030000D01*
X19409289Y-18030000D01*
X19200000Y-17820711D01*
X19200000Y-17820711D01*
G37*
D14*
X18900000Y-25200000D03*
D15*
G36*
X19310122Y-25200000D02*
X18900000Y-25610122D01*
X18489878Y-25200000D01*
X18900000Y-24789878D01*
X19310122Y-25200000D01*
X19310122Y-25200000D01*
G37*
D16*
X19330000Y-25525000D03*
D15*
G36*
X19100000Y-25579289D02*
X19309289Y-25370000D01*
X19560000Y-25370000D01*
X19560000Y-25680000D01*
X19100000Y-25680000D01*
X19100000Y-25579289D01*
X19100000Y-25579289D01*
G37*
D16*
X18470000Y-25525000D03*
D15*
G36*
X18240000Y-25370000D02*
X18490711Y-25370000D01*
X18700000Y-25579289D01*
X18700000Y-25680000D01*
X18240000Y-25680000D01*
X18240000Y-25370000D01*
X18240000Y-25370000D01*
G37*
D16*
X18470000Y-24875000D03*
D15*
G36*
X18240000Y-24720000D02*
X18700000Y-24720000D01*
X18700000Y-24820711D01*
X18490711Y-25030000D01*
X18240000Y-25030000D01*
X18240000Y-24720000D01*
X18240000Y-24720000D01*
G37*
D16*
X19330000Y-24875000D03*
D15*
G36*
X19100000Y-24820711D02*
X19100000Y-24720000D01*
X19560000Y-24720000D01*
X19560000Y-25030000D01*
X19309289Y-25030000D01*
X19100000Y-24820711D01*
X19100000Y-24820711D01*
G37*
D21*
X22725000Y-18000000D03*
X21275000Y-18000000D03*
X21275000Y-19850000D03*
X22725000Y-19850000D03*
D20*
X25300000Y-17825000D03*
X17600000Y-20950000D03*
X26100000Y-23300000D03*
X20725000Y-20900000D03*
X19350000Y-20950000D03*
X25050000Y-20000000D03*
X23975000Y-18950000D03*
X26925000Y-25200000D03*
X23950000Y-20000000D03*
X27300000Y-17825000D03*
X25050000Y-18950000D03*
D17*
X20100000Y-25400000D03*
X19500000Y-25600000D03*
X18900000Y-24950000D03*
X19150000Y-25200000D03*
X19350000Y-25450000D03*
X19500000Y-24100000D03*
X19250000Y-24100000D03*
X19350000Y-23950000D03*
X19150000Y-23700000D03*
X19600000Y-20100000D03*
X19300000Y-20100000D03*
X19450000Y-20000000D03*
X19000000Y-19950000D03*
X19000000Y-19500000D03*
X19200000Y-19700000D03*
X20350000Y-20100000D03*
X20200000Y-19900000D03*
X19350000Y-18600000D03*
X19500000Y-18450000D03*
X19000000Y-18450000D03*
X19000000Y-18050000D03*
X18800000Y-18200000D03*
X17890000Y-17865000D03*
X17640000Y-17945000D03*
X17800000Y-20150000D03*
X26600000Y-18850000D03*
X26850000Y-19050000D03*
X26600000Y-19600000D03*
X26900000Y-19750000D03*
X26600000Y-20250000D03*
X26850000Y-20500000D03*
X22200000Y-23100000D03*
X21200000Y-20200000D03*
X21600000Y-20200000D03*
X21600000Y-19800000D03*
X21200000Y-19800000D03*
X22200000Y-20975000D03*
X21975000Y-21000000D03*
X20000000Y-23925000D03*
X24350000Y-17975000D03*
X24450000Y-17850000D03*
X26100000Y-24550000D03*
X26075000Y-24325000D03*
X19200000Y-18200000D03*
X22700000Y-23125000D03*
X18850000Y-19725000D03*
X24800000Y-22500000D03*
X25930000Y-23285000D03*
X24000000Y-21300000D03*
X22340000Y-26035000D03*
X21940000Y-26035000D03*
X21325000Y-26150000D03*
X21650000Y-26150000D03*
X26050000Y-23875000D03*
X22150000Y-25950000D03*
X23075000Y-26075000D03*
X22650000Y-26075000D03*
X17630000Y-23465000D03*
X17620000Y-23265000D03*
X17670000Y-25665000D03*
X17570000Y-25425000D03*
X25900000Y-23625000D03*
X22900000Y-20925000D03*
X22600000Y-20925000D03*
X18450000Y-20905000D03*
X21680000Y-20975000D03*
X17650000Y-19875000D03*
X20925000Y-26150000D03*
X20200000Y-26150000D03*
X20550000Y-26150000D03*
X20450000Y-25800000D03*
X26725000Y-23800000D03*
X20375000Y-25400000D03*
X22500000Y-17800000D03*
X18450000Y-20000000D03*
X20400000Y-22600000D03*
X22200000Y-22300000D03*
X24000000Y-21700000D03*
X24400000Y-22900000D03*
X18650000Y-20050000D03*
X24800000Y-22100000D03*
X21030000Y-24050000D03*
X21280000Y-24050000D03*
X21100000Y-17800000D03*
X22750000Y-18100000D03*
X22450000Y-18100000D03*
X22850000Y-17800000D03*
X23650000Y-17850000D03*
X21575000Y-17875000D03*
X22650000Y-17925000D03*
X17625000Y-22400000D03*
X19450000Y-23325000D03*
X19450000Y-23475000D03*
X20200000Y-23125000D03*
X25225000Y-23900000D03*
X26025000Y-21500000D03*
X26275000Y-21625000D03*
X25025000Y-23925000D03*
X22750000Y-22425000D03*
X22600000Y-22275000D03*
X22050000Y-22425000D03*
X20450000Y-22475000D03*
X25100000Y-24100000D03*
X26400000Y-17675000D03*
X20850000Y-22925000D03*
X23925000Y-24700000D03*
X25475000Y-18525000D03*
X23300000Y-22425000D03*
X23550000Y-24175000D03*
X25936706Y-25716706D03*
X23253562Y-22053562D03*
X22250000Y-24900000D03*
X27400000Y-17825000D03*
X24500000Y-24875000D03*
X24075000Y-20075000D03*
X23300000Y-22825000D03*
X22450000Y-24550000D03*
X26900000Y-25350000D03*
X22625000Y-25775000D03*
X17575000Y-21725000D03*
X24400000Y-20900000D03*
X24750000Y-19525000D03*
X24100000Y-18665000D03*
X25100000Y-20400000D03*
X24400000Y-21700000D03*
X18200000Y-25125000D03*
X18400000Y-24725000D03*
X18200000Y-24915000D03*
X18550000Y-23250000D03*
X18740000Y-23075000D03*
X18380000Y-23135000D03*
X18360000Y-23375000D03*
X18850000Y-25825000D03*
X18200000Y-25325000D03*
X18450000Y-25825000D03*
X18400000Y-24925000D03*
X18200000Y-24725000D03*
X18200000Y-25500000D03*
X18400000Y-25500000D03*
X25250000Y-17815000D03*
X22250000Y-25250000D03*
X19975000Y-22350000D03*
X22550000Y-24050000D03*
X24000000Y-22500000D03*
X20030000Y-24885000D03*
X19780000Y-24905000D03*
X19760000Y-25085000D03*
X19400000Y-24925000D03*
X24000000Y-22100000D03*
X20075000Y-17825000D03*
X20425000Y-17775000D03*
X22000000Y-21400000D03*
X22200000Y-21400000D03*
X22700000Y-21400000D03*
X22900000Y-21400000D03*
X19360000Y-17835000D03*
X19530000Y-17915000D03*
X18460000Y-24085000D03*
X20400000Y-19450000D03*
X20275000Y-19275000D03*
X26190000Y-19785000D03*
X26010000Y-19775000D03*
X26120000Y-19615000D03*
X24800000Y-21700000D03*
X27975000Y-18350000D03*
X24797506Y-21298753D03*
X28320000Y-25365000D03*
X27400000Y-24175000D03*
X28500000Y-23625000D03*
X28100000Y-20275000D03*
X20175000Y-21650000D03*
X19000000Y-21275000D03*
D15*
X19455000Y-20000000D02*
X19430000Y-20025000D01*
X20300000Y-20000000D02*
X19455000Y-20000000D01*
X21250000Y-20000000D02*
X21325000Y-19925000D01*
X20300000Y-20000000D02*
X21250000Y-20000000D01*
X19420000Y-18525000D02*
X19430000Y-18525000D01*
D22*
X25952095Y-23733434D02*
X25952095Y-25133434D01*
X19445000Y-18540000D02*
X19430000Y-18525000D01*
X20300000Y-18540000D02*
X19445000Y-18540000D01*
X19100000Y-23700000D02*
X19350000Y-23950000D01*
X18900000Y-23700000D02*
X19100000Y-23700000D01*
X18900000Y-25250000D02*
X19250000Y-25600000D01*
X18900000Y-25200000D02*
X18900000Y-25250000D01*
D23*
X19200000Y-24000000D02*
X19200000Y-24050000D01*
X18900000Y-23700000D02*
X19200000Y-24000000D01*
X19150000Y-25450000D02*
X19350000Y-25450000D01*
X18900000Y-25200000D02*
X19150000Y-25450000D01*
X19450000Y-20000000D02*
X20300000Y-20000000D01*
X20375000Y-19925000D02*
X20300000Y-20000000D01*
X21275000Y-19925000D02*
X20375000Y-19925000D01*
X19105000Y-18200000D02*
X19430000Y-18525000D01*
X19000000Y-18200000D02*
X19105000Y-18200000D01*
D22*
X19330000Y-20025000D02*
X19430000Y-20025000D01*
D23*
X19000000Y-19700000D02*
X19300000Y-20000000D01*
X19300000Y-20000000D02*
X19300000Y-20225000D01*
X19325000Y-20025000D02*
X19000000Y-19700000D01*
X19430000Y-20025000D02*
X19325000Y-20025000D01*
X19050001Y-19857999D02*
X19050001Y-19905009D01*
X19000000Y-19807998D02*
X19050001Y-19857999D01*
X19000000Y-19700000D02*
X19000000Y-19807998D01*
X19275771Y-20079229D02*
X19180000Y-20175000D01*
X19275771Y-19975771D02*
X19275771Y-20079229D01*
X19000000Y-19700000D02*
X19275771Y-19975771D01*
D22*
X18450000Y-20905000D02*
X19180000Y-20175000D01*
X19180000Y-20175000D02*
X19330000Y-20025000D01*
X19335000Y-23380000D02*
X19330000Y-23375000D01*
D15*
X25312095Y-25133434D02*
X25312095Y-25222095D01*
D23*
X22950000Y-17850000D02*
X22725000Y-18075000D01*
X23650000Y-17850000D02*
X22950000Y-17850000D01*
D24*
X21275000Y-18000000D02*
X22725000Y-18000000D01*
D23*
X22775000Y-17950000D02*
X22725000Y-18000000D01*
X23780000Y-17950000D02*
X22775000Y-17950000D01*
X22100000Y-22305000D02*
X22800000Y-22305000D01*
D15*
X25180000Y-25133434D02*
X25180000Y-25195000D01*
D23*
X25180000Y-24425000D02*
X25180000Y-25133434D01*
X25180000Y-24125000D02*
X25175000Y-24120000D01*
X25180000Y-24425000D02*
X25180000Y-24125000D01*
X25175000Y-24120000D02*
X25175000Y-24015012D01*
X25115011Y-23955023D02*
X25175000Y-24015012D01*
D15*
X21405000Y-24175000D02*
X21280000Y-24050000D01*
X21725000Y-24175000D02*
X21405000Y-24175000D01*
D23*
X25180000Y-25600000D02*
X25180000Y-24200000D01*
D22*
X20500000Y-22520000D02*
X20150000Y-22870000D01*
X20150000Y-22870000D02*
X20150000Y-23275000D01*
D15*
X24100000Y-24700000D02*
X24125000Y-24675000D01*
X23925000Y-24700000D02*
X24100000Y-24700000D01*
X21150000Y-23025000D02*
X20949999Y-23024999D01*
X21700000Y-23175000D02*
X21300000Y-23175000D01*
X23600000Y-21300000D02*
X23500001Y-21399999D01*
X20949999Y-23024999D02*
X20850000Y-22925000D01*
X23500001Y-21399999D02*
X23500001Y-21428569D01*
X23500001Y-21428569D02*
X23003570Y-21925000D01*
X21300000Y-23175000D02*
X21150000Y-23025000D01*
X23003570Y-21925000D02*
X21800000Y-21925000D01*
X21800000Y-21925000D02*
X21700000Y-22025000D01*
X21700000Y-22025000D02*
X21700000Y-23175000D01*
X25050000Y-18950000D02*
X25475000Y-18525000D01*
X23600000Y-22125000D02*
X23300000Y-22425000D01*
X23600000Y-22100000D02*
X23600000Y-22125000D01*
X24765001Y-24565001D02*
X24765001Y-24600000D01*
X24375000Y-24175000D02*
X24765001Y-24565001D01*
X24125000Y-24175000D02*
X24375000Y-24175000D01*
X24125000Y-24175000D02*
X23550000Y-24175000D01*
X24765001Y-25768571D02*
X24765001Y-25575000D01*
X24946440Y-25950010D02*
X24765001Y-25768571D01*
X25469990Y-25950010D02*
X24946440Y-25950010D01*
X25820000Y-25600000D02*
X25469990Y-25950010D01*
X24765001Y-25725000D02*
X24765001Y-25575000D01*
X24765001Y-25575000D02*
X24765001Y-24600000D01*
X23600000Y-21707124D02*
X23253562Y-22053562D01*
X23600000Y-21700000D02*
X23600000Y-21707124D01*
X22000000Y-24900000D02*
X22250000Y-24900000D01*
X21725000Y-25175000D02*
X22000000Y-24900000D01*
X24325000Y-25050000D02*
X24500000Y-24875000D01*
X24200000Y-25175000D02*
X24500000Y-24875000D01*
X24125000Y-25175000D02*
X24200000Y-25175000D01*
X24000000Y-20900000D02*
X24125000Y-20775000D01*
X24125000Y-20775000D02*
X24125000Y-20475000D01*
X24075000Y-20425000D02*
X24075000Y-20075000D01*
X24125000Y-20475000D02*
X24075000Y-20425000D01*
X23300000Y-22800000D02*
X23600000Y-22500000D01*
X23300000Y-22825000D02*
X23300000Y-22800000D01*
X21850000Y-24550000D02*
X22450000Y-24550000D01*
X21725000Y-24675000D02*
X21850000Y-24550000D01*
X22625000Y-24725000D02*
X22450000Y-24550000D01*
X22625000Y-25775000D02*
X22625000Y-24725000D01*
X24750000Y-19525000D02*
X24225000Y-18950000D01*
X24225000Y-18950000D02*
X23975000Y-18950000D01*
X25100000Y-20050000D02*
X25050000Y-20000000D01*
X25100000Y-20400000D02*
X25100000Y-20050000D01*
X18089990Y-22830010D02*
X18400000Y-22520000D01*
X18089990Y-24242138D02*
X18089990Y-22830010D01*
X19500000Y-24400010D02*
X18247862Y-24400010D01*
X19595010Y-24495020D02*
X19500000Y-24400010D01*
X20464979Y-24495020D02*
X19595010Y-24495020D01*
X20734999Y-24225000D02*
X20464979Y-24495020D01*
X21032826Y-23600020D02*
X20734999Y-23897847D01*
X24125010Y-23025010D02*
X24125010Y-23407836D01*
X20734999Y-23897847D02*
X20734999Y-24225000D01*
X24000000Y-22900000D02*
X24125010Y-23025010D01*
X24125010Y-23407836D02*
X24007846Y-23525000D01*
X24007846Y-23525000D02*
X23500000Y-23525000D01*
X18247862Y-24400010D02*
X18089990Y-24242138D01*
X23500000Y-23525000D02*
X23424980Y-23600020D01*
X23424980Y-23600020D02*
X21032826Y-23600020D01*
X19100000Y-23069990D02*
X19100000Y-22520000D01*
X19260010Y-23069990D02*
X19100000Y-23069990D01*
X19571430Y-22875000D02*
X19455000Y-22875000D01*
X19710010Y-23013580D02*
X19571430Y-22875000D01*
X19750001Y-23975001D02*
X19710010Y-23935010D01*
X19750001Y-24098571D02*
X19750001Y-23975001D01*
X19946440Y-24295010D02*
X19750001Y-24098571D01*
X20500010Y-23050000D02*
X20500010Y-24148560D01*
X20550000Y-23000010D02*
X20500010Y-23050000D01*
X19710010Y-23935010D02*
X19710010Y-23013580D01*
X20550000Y-23000000D02*
X20550000Y-23000010D01*
X20500010Y-24148560D02*
X20353560Y-24295010D01*
X20767154Y-23217154D02*
X20550000Y-23000000D01*
X20767154Y-23499990D02*
X20767154Y-23217154D01*
X19455000Y-22875000D02*
X19260010Y-23069990D01*
X23650000Y-23275000D02*
X23590000Y-23225000D01*
X23417154Y-23324990D02*
X23342134Y-23400010D01*
X23700000Y-23325000D02*
X23650000Y-23275000D01*
X23590000Y-23225000D02*
X23450000Y-23175000D01*
X23417154Y-23207846D02*
X23417154Y-23324990D01*
X23924990Y-23325000D02*
X23700000Y-23325000D01*
X20353560Y-24295010D02*
X19946440Y-24295010D01*
X23925000Y-23324990D02*
X23924990Y-23325000D01*
X23342134Y-23400010D02*
X21196440Y-23400010D01*
X21053581Y-23349989D02*
X20978560Y-23349989D01*
X23600000Y-22900000D02*
X23925000Y-23225000D01*
X23925000Y-23225000D02*
X23925000Y-23324990D01*
X21100000Y-23303570D02*
X21053581Y-23349989D01*
X23450000Y-23175000D02*
X23417154Y-23207846D01*
X21196440Y-23400010D02*
X21100000Y-23303570D01*
X20978560Y-23349989D02*
X20850000Y-23499990D01*
X20850000Y-23499990D02*
X20767154Y-23499990D01*
X18545000Y-18500000D02*
X18570000Y-18525000D01*
D22*
X20015000Y-25740000D02*
X19630000Y-26125000D01*
X20050000Y-25740000D02*
X20015000Y-25740000D01*
X19070000Y-26125000D02*
X18470000Y-25525000D01*
X19630000Y-26125000D02*
X19070000Y-26125000D01*
X20040000Y-25740000D02*
X19630000Y-26150000D01*
X20075000Y-25740000D02*
X20040000Y-25740000D01*
X18850000Y-26150000D02*
X18200000Y-25500000D01*
X19630000Y-26150000D02*
X18850000Y-26150000D01*
D15*
X21950000Y-25550000D02*
X22250000Y-25250000D01*
X21825000Y-25675000D02*
X22250000Y-25250000D01*
X21725000Y-25675000D02*
X21825000Y-25675000D01*
X25049990Y-18300010D02*
X25400000Y-17950000D01*
X23050000Y-19025000D02*
X23774990Y-18300010D01*
X23774990Y-18300010D02*
X25049990Y-18300010D01*
X23600000Y-20900000D02*
X23150001Y-20450001D01*
X25400000Y-17950000D02*
X25500000Y-17950000D01*
X23150001Y-20450001D02*
X22204999Y-20450001D01*
X25500000Y-17950000D02*
X25500000Y-17875000D01*
X22204999Y-20450001D02*
X22124998Y-20370000D01*
X22124998Y-20370000D02*
X22124998Y-19330000D01*
X22124998Y-19330000D02*
X22429998Y-19025000D01*
X22429998Y-19025000D02*
X23050000Y-19025000D01*
X22775000Y-19925000D02*
X23275000Y-19925000D01*
X23275000Y-19925000D02*
X23700001Y-19499999D01*
X23700001Y-19499999D02*
X24190001Y-19499999D01*
X24190001Y-19499999D02*
X24480000Y-19789998D01*
X24480000Y-19789998D02*
X24480000Y-20170002D01*
X24800000Y-20758579D02*
X24791421Y-20750000D01*
X24800000Y-20900000D02*
X24800000Y-20758579D01*
X24791421Y-20750000D02*
X24791421Y-20741421D01*
X24700000Y-20650000D02*
X24700000Y-20390002D01*
X24791421Y-20741421D02*
X24700000Y-20650000D01*
X24480000Y-20170002D02*
X24700000Y-20390002D01*
X19805000Y-22520000D02*
X19975000Y-22350000D01*
X19800000Y-22520000D02*
X19805000Y-22520000D01*
X22625001Y-23974999D02*
X22550000Y-24050000D01*
X23370001Y-23974999D02*
X22625001Y-23974999D01*
X23620000Y-23725000D02*
X23370001Y-23974999D01*
X24116421Y-23725000D02*
X23620000Y-23725000D01*
X24800000Y-22900000D02*
X24800000Y-23041421D01*
X24800000Y-23041421D02*
X24116421Y-23725000D01*
D22*
X20195000Y-24875000D02*
X20200000Y-24880000D01*
X19330000Y-24875000D02*
X20195000Y-24875000D01*
X19760000Y-24925000D02*
X19780000Y-24905000D01*
X19760000Y-25085000D02*
X19760000Y-24925000D01*
D23*
X20625000Y-24905000D02*
X20650000Y-24930000D01*
X19780000Y-24905000D02*
X20625000Y-24905000D01*
D22*
X20275000Y-17875000D02*
X20300000Y-17900000D01*
X19430000Y-17875000D02*
X20275000Y-17875000D01*
D15*
X22800000Y-21500000D02*
X22900000Y-21400000D01*
X22800000Y-21500000D02*
X22700000Y-21400000D01*
X22800000Y-21545000D02*
X22800000Y-21500000D01*
X19445000Y-19360000D02*
X19430000Y-19375000D01*
D22*
X20285000Y-19375000D02*
X20300000Y-19360000D01*
X19430000Y-19375000D02*
X20285000Y-19375000D01*
D23*
X25980000Y-19625000D02*
X25980000Y-20325000D01*
D15*
X26190000Y-20115000D02*
X25980000Y-20325000D01*
X26190000Y-19785000D02*
X26190000Y-20115000D01*
X27975000Y-18350000D02*
X28475000Y-18350000D01*
X25200000Y-20900000D02*
X25460000Y-20640000D01*
X25460000Y-20640000D02*
X25460000Y-20330002D01*
X25460000Y-20330002D02*
X25550001Y-20240001D01*
X25550001Y-19069999D02*
X25550001Y-19225000D01*
X25595000Y-19025000D02*
X25550001Y-19069999D01*
X25810000Y-19025000D02*
X25595000Y-19025000D01*
X25550001Y-20240001D02*
X25550001Y-19225000D01*
X25550001Y-19125000D02*
X25550001Y-19225000D01*
X26325001Y-18350000D02*
X25550001Y-19125000D01*
X27975000Y-18350000D02*
X26325001Y-18350000D01*
X24800000Y-21300000D02*
X24798753Y-21300000D01*
X24798753Y-21300000D02*
X24797506Y-21298753D01*
X28350000Y-25335000D02*
X28320000Y-25365000D01*
X27040000Y-24175000D02*
X26800000Y-24415000D01*
X27400000Y-24175000D02*
X27040000Y-24175000D01*
D22*
X26800000Y-24450000D02*
X26800000Y-24415000D01*
X28195000Y-25240000D02*
X28320000Y-25365000D01*
D15*
X28320000Y-25365000D02*
X28320000Y-24495000D01*
X28240000Y-24415000D02*
X26800000Y-24415000D01*
X28320000Y-24495000D02*
X28240000Y-24415000D01*
X27603560Y-22674990D02*
X27577462Y-22674990D01*
X28200001Y-23300001D02*
X28200001Y-23271431D01*
X28500000Y-23625000D02*
X28200001Y-23300001D01*
X27800000Y-22900000D02*
X28500000Y-23625000D01*
X28100000Y-23200000D02*
X28500000Y-23625000D01*
X28200001Y-23271431D02*
X27603560Y-22674990D01*
D22*
X27815000Y-22915000D02*
X26830000Y-22915000D01*
X28500000Y-23625000D02*
X27815000Y-22915000D01*
D15*
X27120001Y-22589999D02*
X26830000Y-22880000D01*
X25547142Y-21352858D02*
X25547142Y-21250000D01*
X25547142Y-21250000D02*
X25767153Y-21029989D01*
X25767153Y-21029989D02*
X26904990Y-21029989D01*
X26904990Y-21029989D02*
X27120001Y-21245000D01*
X26830000Y-22880000D02*
X26830000Y-22915000D01*
X27120001Y-21245000D02*
X27120001Y-22589999D01*
X25200000Y-21700000D02*
X25547142Y-21352858D01*
D22*
X27646428Y-20625000D02*
X27700000Y-20571428D01*
D15*
X28100000Y-20275000D02*
X27700000Y-20571428D01*
D22*
X27750000Y-20625000D02*
X28100000Y-20275000D01*
X27250000Y-20625000D02*
X27750000Y-20625000D01*
D15*
X27140000Y-20820000D02*
X27270000Y-20690000D01*
X25680000Y-20820000D02*
X27140000Y-20820000D01*
X25200000Y-21300000D02*
X25680000Y-20820000D01*
X25569999Y-22530001D02*
X25200000Y-22900000D01*
X26490001Y-22530001D02*
X25569999Y-22530001D01*
X26770000Y-22250002D02*
X26490001Y-22530001D01*
X26770000Y-22180000D02*
X26770000Y-22250002D01*
X26770000Y-21580000D02*
X26730000Y-21580000D01*
X26770000Y-21280000D02*
X26770000Y-21580000D01*
X26719999Y-21229999D02*
X26770000Y-21280000D01*
X25849999Y-21229999D02*
X26719999Y-21229999D01*
X25775000Y-21304998D02*
X25849999Y-21229999D01*
X25775000Y-21525000D02*
X25775000Y-21304998D01*
X25200000Y-22100000D02*
X25775000Y-21525000D01*
X26130000Y-22180000D02*
X26170000Y-22180000D01*
X25950000Y-22000000D02*
X26130000Y-22180000D01*
X25700000Y-22000000D02*
X25950000Y-22000000D01*
X25200000Y-22500000D02*
X25700000Y-22000000D01*
D23*
X19100000Y-21880000D02*
X19800000Y-21880000D01*
D22*
X20075000Y-21605000D02*
X19800000Y-21880000D01*
X20400000Y-21605000D02*
X20075000Y-21605000D01*
D15*
X20475000Y-21530000D02*
X20400000Y-21605000D01*
X20475000Y-20875000D02*
X20475000Y-21530000D01*
X19100000Y-21744272D02*
X19100000Y-21880000D01*
X20175000Y-21650000D02*
X19100000Y-21744272D01*
X18400000Y-21550000D02*
X18400000Y-21880000D01*
X18400000Y-21405026D02*
X18400000Y-21550000D01*
X19015000Y-21285000D02*
X19350000Y-20950000D01*
X18450000Y-21285000D02*
X19015000Y-21285000D01*
X18450000Y-21285000D02*
X18450000Y-21830000D01*
X18450000Y-21830000D02*
X18400000Y-21880000D01*
X18400000Y-21800000D02*
X18400000Y-21880000D01*
D25*
G36*
X29440529Y-17277638D02*
X29458155Y-17339329D01*
X29473909Y-17402344D01*
X29473909Y-17402346D01*
X29495058Y-17486942D01*
X29503189Y-17560115D01*
X29503373Y-17568363D01*
X29504838Y-17574955D01*
X29505583Y-17581660D01*
X29508074Y-17589517D01*
X29523811Y-17660330D01*
X29523909Y-17662346D01*
X29527058Y-17674941D01*
X29529867Y-17687582D01*
X29530679Y-17689424D01*
X29546659Y-17753346D01*
X29563337Y-17836732D01*
X29563373Y-17838363D01*
X29566270Y-17851400D01*
X29568887Y-17864484D01*
X29569512Y-17865989D01*
X29584656Y-17934134D01*
X29593009Y-18017668D01*
X29593017Y-18025134D01*
X29594495Y-18032522D01*
X29595244Y-18040016D01*
X29597421Y-18047155D01*
X29613017Y-18125134D01*
X29634495Y-18232525D01*
X29642876Y-18316337D01*
X29642775Y-18322465D01*
X29644362Y-18331191D01*
X29645244Y-18340016D01*
X29647032Y-18345879D01*
X29664363Y-18441198D01*
X29672876Y-18526337D01*
X29672775Y-18532465D01*
X29674362Y-18541191D01*
X29675244Y-18550016D01*
X29677032Y-18555879D01*
X29694240Y-18650522D01*
X29703572Y-18753181D01*
X29712897Y-18865082D01*
X29712775Y-18872465D01*
X29714136Y-18879949D01*
X29714768Y-18887537D01*
X29716807Y-18894641D01*
X29734137Y-18989957D01*
X29744768Y-19117537D01*
X29744769Y-19117540D01*
X29749390Y-19173000D01*
X28152000Y-19173000D01*
X28152000Y-17252000D01*
X29430915Y-17252000D01*
X29440529Y-17277638D01*
X29440529Y-17277638D01*
G37*
X29440529Y-17277638D02*
X29458155Y-17339329D01*
X29473909Y-17402344D01*
X29473909Y-17402346D01*
X29495058Y-17486942D01*
X29503189Y-17560115D01*
X29503373Y-17568363D01*
X29504838Y-17574955D01*
X29505583Y-17581660D01*
X29508074Y-17589517D01*
X29523811Y-17660330D01*
X29523909Y-17662346D01*
X29527058Y-17674941D01*
X29529867Y-17687582D01*
X29530679Y-17689424D01*
X29546659Y-17753346D01*
X29563337Y-17836732D01*
X29563373Y-17838363D01*
X29566270Y-17851400D01*
X29568887Y-17864484D01*
X29569512Y-17865989D01*
X29584656Y-17934134D01*
X29593009Y-18017668D01*
X29593017Y-18025134D01*
X29594495Y-18032522D01*
X29595244Y-18040016D01*
X29597421Y-18047155D01*
X29613017Y-18125134D01*
X29634495Y-18232525D01*
X29642876Y-18316337D01*
X29642775Y-18322465D01*
X29644362Y-18331191D01*
X29645244Y-18340016D01*
X29647032Y-18345879D01*
X29664363Y-18441198D01*
X29672876Y-18526337D01*
X29672775Y-18532465D01*
X29674362Y-18541191D01*
X29675244Y-18550016D01*
X29677032Y-18555879D01*
X29694240Y-18650522D01*
X29703572Y-18753181D01*
X29712897Y-18865082D01*
X29712775Y-18872465D01*
X29714136Y-18879949D01*
X29714768Y-18887537D01*
X29716807Y-18894641D01*
X29734137Y-18989957D01*
X29744768Y-19117537D01*
X29744769Y-19117540D01*
X29749390Y-19173000D01*
X28152000Y-19173000D01*
X28152000Y-17252000D01*
X29430915Y-17252000D01*
X29440529Y-17277638D01*
G36*
X29873000Y-22173660D02*
X29873000Y-22334168D01*
X29864145Y-22449276D01*
X29863000Y-22455034D01*
X29863000Y-22464164D01*
X29862300Y-22473264D01*
X29863000Y-22479089D01*
X29863000Y-22734168D01*
X29854145Y-22849276D01*
X29853000Y-22855034D01*
X29853000Y-22864164D01*
X29852300Y-22873264D01*
X29853000Y-22879089D01*
X29853000Y-23004168D01*
X29843565Y-23126820D01*
X29834145Y-23249276D01*
X29833000Y-23255034D01*
X29833000Y-23264164D01*
X29832300Y-23273264D01*
X29833000Y-23279089D01*
X29833000Y-23394168D01*
X29823485Y-23517864D01*
X29814728Y-23622950D01*
X29814596Y-23623421D01*
X29813482Y-23637898D01*
X29812283Y-23652291D01*
X29812338Y-23652774D01*
X29803485Y-23767864D01*
X29794728Y-23872950D01*
X29794596Y-23873421D01*
X29793482Y-23887898D01*
X29792283Y-23902291D01*
X29792338Y-23902774D01*
X29791092Y-23918970D01*
X27588089Y-23900642D01*
X27585230Y-23897783D01*
X27465044Y-23848000D01*
X27397000Y-23848000D01*
X27397000Y-22448627D01*
X27414205Y-22474376D01*
X27450624Y-22510795D01*
X27726384Y-22695052D01*
X27773967Y-22714762D01*
X28012743Y-22762257D01*
X28041208Y-22905362D01*
X28055509Y-22939887D01*
X28060918Y-22952945D01*
X28190982Y-23147600D01*
X28209962Y-23166579D01*
X28227401Y-23184018D01*
X28422055Y-23314082D01*
X28469638Y-23333792D01*
X28699248Y-23379464D01*
X28750752Y-23379464D01*
X28980362Y-23333792D01*
X29027945Y-23314082D01*
X29222600Y-23184018D01*
X29259018Y-23147599D01*
X29389082Y-22952945D01*
X29408792Y-22905362D01*
X29454464Y-22675752D01*
X29454464Y-22675749D01*
X29457000Y-22663000D01*
X29457000Y-22170199D01*
X29873000Y-22173660D01*
X29873000Y-22173660D01*
G37*
X29873000Y-22173660D02*
X29873000Y-22334168D01*
X29864145Y-22449276D01*
X29863000Y-22455034D01*
X29863000Y-22464164D01*
X29862300Y-22473264D01*
X29863000Y-22479089D01*
X29863000Y-22734168D01*
X29854145Y-22849276D01*
X29853000Y-22855034D01*
X29853000Y-22864164D01*
X29852300Y-22873264D01*
X29853000Y-22879089D01*
X29853000Y-23004168D01*
X29843565Y-23126820D01*
X29834145Y-23249276D01*
X29833000Y-23255034D01*
X29833000Y-23264164D01*
X29832300Y-23273264D01*
X29833000Y-23279089D01*
X29833000Y-23394168D01*
X29823485Y-23517864D01*
X29814728Y-23622950D01*
X29814596Y-23623421D01*
X29813482Y-23637898D01*
X29812283Y-23652291D01*
X29812338Y-23652774D01*
X29803485Y-23767864D01*
X29794728Y-23872950D01*
X29794596Y-23873421D01*
X29793482Y-23887898D01*
X29792283Y-23902291D01*
X29792338Y-23902774D01*
X29791092Y-23918970D01*
X27588089Y-23900642D01*
X27585230Y-23897783D01*
X27465044Y-23848000D01*
X27397000Y-23848000D01*
X27397000Y-22448627D01*
X27414205Y-22474376D01*
X27450624Y-22510795D01*
X27726384Y-22695052D01*
X27773967Y-22714762D01*
X28012743Y-22762257D01*
X28041208Y-22905362D01*
X28055509Y-22939887D01*
X28060918Y-22952945D01*
X28190982Y-23147600D01*
X28209962Y-23166579D01*
X28227401Y-23184018D01*
X28422055Y-23314082D01*
X28469638Y-23333792D01*
X28699248Y-23379464D01*
X28750752Y-23379464D01*
X28980362Y-23333792D01*
X29027945Y-23314082D01*
X29222600Y-23184018D01*
X29259018Y-23147599D01*
X29389082Y-22952945D01*
X29408792Y-22905362D01*
X29454464Y-22675752D01*
X29454464Y-22675749D01*
X29457000Y-22663000D01*
X29457000Y-22170199D01*
X29873000Y-22173660D01*
G36*
X29744769Y-24482460D02*
X29744768Y-24482463D01*
X29734137Y-24610043D01*
X29716807Y-24705359D01*
X29714768Y-24712463D01*
X29714136Y-24720051D01*
X29712775Y-24727535D01*
X29712897Y-24734918D01*
X29703572Y-24846819D01*
X29694240Y-24949478D01*
X29677032Y-25044121D01*
X29675244Y-25049984D01*
X29674362Y-25058809D01*
X29672775Y-25067535D01*
X29672876Y-25073663D01*
X29664363Y-25158802D01*
X29647032Y-25254121D01*
X29645244Y-25259984D01*
X29644362Y-25268809D01*
X29642775Y-25277535D01*
X29642876Y-25283663D01*
X29634495Y-25367475D01*
X29618887Y-25445516D01*
X29597421Y-25552845D01*
X29595244Y-25559984D01*
X29594495Y-25567478D01*
X29593017Y-25574866D01*
X29593009Y-25582332D01*
X29584656Y-25665866D01*
X29569512Y-25734011D01*
X29568887Y-25735516D01*
X29566270Y-25748600D01*
X29563373Y-25761637D01*
X29563337Y-25763268D01*
X29546659Y-25846654D01*
X29530679Y-25910576D01*
X29529867Y-25912418D01*
X29527058Y-25925059D01*
X29523909Y-25937654D01*
X29523811Y-25939670D01*
X29508074Y-26010483D01*
X29505583Y-26018340D01*
X29504838Y-26025045D01*
X29503373Y-26031637D01*
X29503189Y-26039885D01*
X29495058Y-26113058D01*
X29481169Y-26168616D01*
X29458155Y-26260671D01*
X29440529Y-26322362D01*
X29430915Y-26348000D01*
X28624743Y-26348000D01*
X28588183Y-26164199D01*
X28587144Y-26161689D01*
X28578270Y-26140266D01*
X28565488Y-26109406D01*
X28565485Y-26109403D01*
X28392069Y-25849869D01*
X28392069Y-25849868D01*
X28350132Y-25807932D01*
X28090597Y-25634515D01*
X28090594Y-25634512D01*
X28063198Y-25623165D01*
X28035801Y-25611816D01*
X28035796Y-25611816D01*
X27729659Y-25550922D01*
X27729654Y-25550920D01*
X27727000Y-25550920D01*
X27727000Y-24452000D01*
X29747307Y-24452000D01*
X29744769Y-24482460D01*
X29744769Y-24482460D01*
G37*
X29744769Y-24482460D02*
X29744768Y-24482463D01*
X29734137Y-24610043D01*
X29716807Y-24705359D01*
X29714768Y-24712463D01*
X29714136Y-24720051D01*
X29712775Y-24727535D01*
X29712897Y-24734918D01*
X29703572Y-24846819D01*
X29694240Y-24949478D01*
X29677032Y-25044121D01*
X29675244Y-25049984D01*
X29674362Y-25058809D01*
X29672775Y-25067535D01*
X29672876Y-25073663D01*
X29664363Y-25158802D01*
X29647032Y-25254121D01*
X29645244Y-25259984D01*
X29644362Y-25268809D01*
X29642775Y-25277535D01*
X29642876Y-25283663D01*
X29634495Y-25367475D01*
X29618887Y-25445516D01*
X29597421Y-25552845D01*
X29595244Y-25559984D01*
X29594495Y-25567478D01*
X29593017Y-25574866D01*
X29593009Y-25582332D01*
X29584656Y-25665866D01*
X29569512Y-25734011D01*
X29568887Y-25735516D01*
X29566270Y-25748600D01*
X29563373Y-25761637D01*
X29563337Y-25763268D01*
X29546659Y-25846654D01*
X29530679Y-25910576D01*
X29529867Y-25912418D01*
X29527058Y-25925059D01*
X29523909Y-25937654D01*
X29523811Y-25939670D01*
X29508074Y-26010483D01*
X29505583Y-26018340D01*
X29504838Y-26025045D01*
X29503373Y-26031637D01*
X29503189Y-26039885D01*
X29495058Y-26113058D01*
X29481169Y-26168616D01*
X29458155Y-26260671D01*
X29440529Y-26322362D01*
X29430915Y-26348000D01*
X28624743Y-26348000D01*
X28588183Y-26164199D01*
X28587144Y-26161689D01*
X28578270Y-26140266D01*
X28565488Y-26109406D01*
X28565485Y-26109403D01*
X28392069Y-25849869D01*
X28392069Y-25849868D01*
X28350132Y-25807932D01*
X28090597Y-25634515D01*
X28090594Y-25634512D01*
X28063198Y-25623165D01*
X28035801Y-25611816D01*
X28035796Y-25611816D01*
X27729659Y-25550922D01*
X27729654Y-25550920D01*
X27727000Y-25550920D01*
X27727000Y-24452000D01*
X29747307Y-24452000D01*
X29744769Y-24482460D01*
D15*
G36*
X18950000Y-17646886D02*
X18941473Y-17648582D01*
X18891857Y-17681735D01*
X18481735Y-18091857D01*
X18448582Y-18141473D01*
X18436940Y-18200000D01*
X18448582Y-18258527D01*
X18481735Y-18308143D01*
X18891857Y-18718265D01*
X18941473Y-18751418D01*
X18950000Y-18753114D01*
X18950000Y-19146886D01*
X18941473Y-19148582D01*
X18891857Y-19181735D01*
X18481735Y-19591857D01*
X18448582Y-19641473D01*
X18436940Y-19700000D01*
X18440334Y-19717061D01*
X18340000Y-19717061D01*
X18281473Y-19728703D01*
X18231856Y-19761856D01*
X18198703Y-19811473D01*
X18187061Y-19870000D01*
X18187061Y-20180000D01*
X18198703Y-20238527D01*
X18231856Y-20288144D01*
X18281473Y-20321297D01*
X18340000Y-20332939D01*
X18668508Y-20332939D01*
X18364386Y-20637062D01*
X18300000Y-20637062D01*
X18241473Y-20648704D01*
X18191857Y-20681857D01*
X18158704Y-20731473D01*
X18147062Y-20790000D01*
X18147062Y-21020000D01*
X18158704Y-21078527D01*
X18169711Y-21095000D01*
X18158704Y-21111473D01*
X18147062Y-21170000D01*
X18147062Y-21400000D01*
X18158704Y-21458527D01*
X18191857Y-21508143D01*
X18200000Y-21513584D01*
X18200000Y-21518458D01*
X18121146Y-21571146D01*
X18066316Y-21653205D01*
X18050000Y-21735230D01*
X18033684Y-21653205D01*
X17978854Y-21571146D01*
X17896795Y-21516316D01*
X17800000Y-21497062D01*
X17677991Y-21497062D01*
X17624728Y-21475000D01*
X17525272Y-21475000D01*
X17433386Y-21513060D01*
X17363060Y-21583386D01*
X17325000Y-21675272D01*
X17325000Y-21774728D01*
X17347062Y-21827991D01*
X17347062Y-22010000D01*
X17366316Y-22106795D01*
X17421146Y-22188854D01*
X17437827Y-22200000D01*
X17421146Y-22211146D01*
X17366316Y-22293205D01*
X17347062Y-22390000D01*
X17347062Y-22650000D01*
X17366316Y-22746795D01*
X17421146Y-22828854D01*
X17503205Y-22883684D01*
X17600000Y-22902938D01*
X17800000Y-22902938D01*
X17889991Y-22885037D01*
X17889991Y-23051860D01*
X17836795Y-23016316D01*
X17740000Y-22997062D01*
X17540000Y-22997062D01*
X17443205Y-23016316D01*
X17361146Y-23071146D01*
X17306316Y-23153205D01*
X17287062Y-23250000D01*
X17287062Y-23510000D01*
X17306316Y-23606795D01*
X17361146Y-23688854D01*
X17443205Y-23743684D01*
X17540000Y-23762938D01*
X17740000Y-23762938D01*
X17836795Y-23743684D01*
X17889990Y-23708140D01*
X17889990Y-24222442D01*
X17886072Y-24242138D01*
X17889990Y-24261834D01*
X17889990Y-24261835D01*
X17901594Y-24320173D01*
X17945798Y-24386330D01*
X17962502Y-24397491D01*
X18092512Y-24527502D01*
X18103670Y-24544202D01*
X18120369Y-24555360D01*
X18169825Y-24588406D01*
X18247862Y-24603928D01*
X18267560Y-24600010D01*
X18950000Y-24600010D01*
X18950000Y-24646886D01*
X18900000Y-24636940D01*
X18841473Y-24648582D01*
X18791857Y-24681735D01*
X18381735Y-25091857D01*
X18348582Y-25141473D01*
X18336940Y-25200000D01*
X18348582Y-25258527D01*
X18381735Y-25308143D01*
X18791857Y-25718265D01*
X18841473Y-25751418D01*
X18900000Y-25763060D01*
X18950000Y-25753114D01*
X18950000Y-26425000D01*
X17532388Y-26425000D01*
X17362921Y-26391291D01*
X17225519Y-26299481D01*
X17133708Y-26162078D01*
X17100000Y-25992612D01*
X17100000Y-25395000D01*
X17287062Y-25395000D01*
X17287062Y-25655000D01*
X17306316Y-25751795D01*
X17361146Y-25833854D01*
X17443205Y-25888684D01*
X17540000Y-25907938D01*
X17603223Y-25907938D01*
X17620272Y-25915000D01*
X17719728Y-25915000D01*
X17736777Y-25907938D01*
X17740000Y-25907938D01*
X17836795Y-25888684D01*
X17918854Y-25833854D01*
X17973684Y-25751795D01*
X17992938Y-25655000D01*
X17992938Y-25395000D01*
X17973684Y-25298205D01*
X17918854Y-25216146D01*
X17836795Y-25161316D01*
X17740000Y-25142062D01*
X17540000Y-25142062D01*
X17443205Y-25161316D01*
X17361146Y-25216146D01*
X17306316Y-25298205D01*
X17287062Y-25395000D01*
X17100000Y-25395000D01*
X17100000Y-19885000D01*
X17387062Y-19885000D01*
X17387062Y-20145000D01*
X17406316Y-20241795D01*
X17461146Y-20323854D01*
X17543205Y-20378684D01*
X17640000Y-20397938D01*
X17745294Y-20397938D01*
X17750272Y-20400000D01*
X17849728Y-20400000D01*
X17868294Y-20392310D01*
X17936795Y-20378684D01*
X18018854Y-20323854D01*
X18073684Y-20241795D01*
X18092938Y-20145000D01*
X18092938Y-19885000D01*
X18073684Y-19788205D01*
X18018854Y-19706146D01*
X17936795Y-19651316D01*
X17840000Y-19632062D01*
X17716777Y-19632062D01*
X17699728Y-19625000D01*
X17600272Y-19625000D01*
X17508386Y-19663060D01*
X17473665Y-19697781D01*
X17461146Y-19706146D01*
X17452781Y-19718665D01*
X17438060Y-19733386D01*
X17430093Y-19752620D01*
X17406316Y-19788205D01*
X17387062Y-19885000D01*
X17100000Y-19885000D01*
X17100000Y-17735000D01*
X17387062Y-17735000D01*
X17387062Y-17995000D01*
X17406316Y-18091795D01*
X17461146Y-18173854D01*
X17543205Y-18228684D01*
X17640000Y-18247938D01*
X17840000Y-18247938D01*
X17936795Y-18228684D01*
X18018854Y-18173854D01*
X18073684Y-18091795D01*
X18087819Y-18020735D01*
X18101940Y-18006614D01*
X18140000Y-17914728D01*
X18140000Y-17815272D01*
X18101940Y-17723386D01*
X18087819Y-17709265D01*
X18073684Y-17638205D01*
X18018854Y-17556146D01*
X17936795Y-17501316D01*
X17840000Y-17482062D01*
X17640000Y-17482062D01*
X17543205Y-17501316D01*
X17461146Y-17556146D01*
X17406316Y-17638205D01*
X17387062Y-17735000D01*
X17100000Y-17735000D01*
X17100000Y-17607388D01*
X17133708Y-17437922D01*
X17225519Y-17300519D01*
X17362921Y-17208709D01*
X17532388Y-17175000D01*
X18950000Y-17175000D01*
X18950000Y-17646886D01*
X18950000Y-17646886D01*
G37*
X18950000Y-17646886D02*
X18941473Y-17648582D01*
X18891857Y-17681735D01*
X18481735Y-18091857D01*
X18448582Y-18141473D01*
X18436940Y-18200000D01*
X18448582Y-18258527D01*
X18481735Y-18308143D01*
X18891857Y-18718265D01*
X18941473Y-18751418D01*
X18950000Y-18753114D01*
X18950000Y-19146886D01*
X18941473Y-19148582D01*
X18891857Y-19181735D01*
X18481735Y-19591857D01*
X18448582Y-19641473D01*
X18436940Y-19700000D01*
X18440334Y-19717061D01*
X18340000Y-19717061D01*
X18281473Y-19728703D01*
X18231856Y-19761856D01*
X18198703Y-19811473D01*
X18187061Y-19870000D01*
X18187061Y-20180000D01*
X18198703Y-20238527D01*
X18231856Y-20288144D01*
X18281473Y-20321297D01*
X18340000Y-20332939D01*
X18668508Y-20332939D01*
X18364386Y-20637062D01*
X18300000Y-20637062D01*
X18241473Y-20648704D01*
X18191857Y-20681857D01*
X18158704Y-20731473D01*
X18147062Y-20790000D01*
X18147062Y-21020000D01*
X18158704Y-21078527D01*
X18169711Y-21095000D01*
X18158704Y-21111473D01*
X18147062Y-21170000D01*
X18147062Y-21400000D01*
X18158704Y-21458527D01*
X18191857Y-21508143D01*
X18200000Y-21513584D01*
X18200000Y-21518458D01*
X18121146Y-21571146D01*
X18066316Y-21653205D01*
X18050000Y-21735230D01*
X18033684Y-21653205D01*
X17978854Y-21571146D01*
X17896795Y-21516316D01*
X17800000Y-21497062D01*
X17677991Y-21497062D01*
X17624728Y-21475000D01*
X17525272Y-21475000D01*
X17433386Y-21513060D01*
X17363060Y-21583386D01*
X17325000Y-21675272D01*
X17325000Y-21774728D01*
X17347062Y-21827991D01*
X17347062Y-22010000D01*
X17366316Y-22106795D01*
X17421146Y-22188854D01*
X17437827Y-22200000D01*
X17421146Y-22211146D01*
X17366316Y-22293205D01*
X17347062Y-22390000D01*
X17347062Y-22650000D01*
X17366316Y-22746795D01*
X17421146Y-22828854D01*
X17503205Y-22883684D01*
X17600000Y-22902938D01*
X17800000Y-22902938D01*
X17889991Y-22885037D01*
X17889991Y-23051860D01*
X17836795Y-23016316D01*
X17740000Y-22997062D01*
X17540000Y-22997062D01*
X17443205Y-23016316D01*
X17361146Y-23071146D01*
X17306316Y-23153205D01*
X17287062Y-23250000D01*
X17287062Y-23510000D01*
X17306316Y-23606795D01*
X17361146Y-23688854D01*
X17443205Y-23743684D01*
X17540000Y-23762938D01*
X17740000Y-23762938D01*
X17836795Y-23743684D01*
X17889990Y-23708140D01*
X17889990Y-24222442D01*
X17886072Y-24242138D01*
X17889990Y-24261834D01*
X17889990Y-24261835D01*
X17901594Y-24320173D01*
X17945798Y-24386330D01*
X17962502Y-24397491D01*
X18092512Y-24527502D01*
X18103670Y-24544202D01*
X18120369Y-24555360D01*
X18169825Y-24588406D01*
X18247862Y-24603928D01*
X18267560Y-24600010D01*
X18950000Y-24600010D01*
X18950000Y-24646886D01*
X18900000Y-24636940D01*
X18841473Y-24648582D01*
X18791857Y-24681735D01*
X18381735Y-25091857D01*
X18348582Y-25141473D01*
X18336940Y-25200000D01*
X18348582Y-25258527D01*
X18381735Y-25308143D01*
X18791857Y-25718265D01*
X18841473Y-25751418D01*
X18900000Y-25763060D01*
X18950000Y-25753114D01*
X18950000Y-26425000D01*
X17532388Y-26425000D01*
X17362921Y-26391291D01*
X17225519Y-26299481D01*
X17133708Y-26162078D01*
X17100000Y-25992612D01*
X17100000Y-25395000D01*
X17287062Y-25395000D01*
X17287062Y-25655000D01*
X17306316Y-25751795D01*
X17361146Y-25833854D01*
X17443205Y-25888684D01*
X17540000Y-25907938D01*
X17603223Y-25907938D01*
X17620272Y-25915000D01*
X17719728Y-25915000D01*
X17736777Y-25907938D01*
X17740000Y-25907938D01*
X17836795Y-25888684D01*
X17918854Y-25833854D01*
X17973684Y-25751795D01*
X17992938Y-25655000D01*
X17992938Y-25395000D01*
X17973684Y-25298205D01*
X17918854Y-25216146D01*
X17836795Y-25161316D01*
X17740000Y-25142062D01*
X17540000Y-25142062D01*
X17443205Y-25161316D01*
X17361146Y-25216146D01*
X17306316Y-25298205D01*
X17287062Y-25395000D01*
X17100000Y-25395000D01*
X17100000Y-19885000D01*
X17387062Y-19885000D01*
X17387062Y-20145000D01*
X17406316Y-20241795D01*
X17461146Y-20323854D01*
X17543205Y-20378684D01*
X17640000Y-20397938D01*
X17745294Y-20397938D01*
X17750272Y-20400000D01*
X17849728Y-20400000D01*
X17868294Y-20392310D01*
X17936795Y-20378684D01*
X18018854Y-20323854D01*
X18073684Y-20241795D01*
X18092938Y-20145000D01*
X18092938Y-19885000D01*
X18073684Y-19788205D01*
X18018854Y-19706146D01*
X17936795Y-19651316D01*
X17840000Y-19632062D01*
X17716777Y-19632062D01*
X17699728Y-19625000D01*
X17600272Y-19625000D01*
X17508386Y-19663060D01*
X17473665Y-19697781D01*
X17461146Y-19706146D01*
X17452781Y-19718665D01*
X17438060Y-19733386D01*
X17430093Y-19752620D01*
X17406316Y-19788205D01*
X17387062Y-19885000D01*
X17100000Y-19885000D01*
X17100000Y-17735000D01*
X17387062Y-17735000D01*
X17387062Y-17995000D01*
X17406316Y-18091795D01*
X17461146Y-18173854D01*
X17543205Y-18228684D01*
X17640000Y-18247938D01*
X17840000Y-18247938D01*
X17936795Y-18228684D01*
X18018854Y-18173854D01*
X18073684Y-18091795D01*
X18087819Y-18020735D01*
X18101940Y-18006614D01*
X18140000Y-17914728D01*
X18140000Y-17815272D01*
X18101940Y-17723386D01*
X18087819Y-17709265D01*
X18073684Y-17638205D01*
X18018854Y-17556146D01*
X17936795Y-17501316D01*
X17840000Y-17482062D01*
X17640000Y-17482062D01*
X17543205Y-17501316D01*
X17461146Y-17556146D01*
X17406316Y-17638205D01*
X17387062Y-17735000D01*
X17100000Y-17735000D01*
X17100000Y-17607388D01*
X17133708Y-17437922D01*
X17225519Y-17300519D01*
X17362921Y-17208709D01*
X17532388Y-17175000D01*
X18950000Y-17175000D01*
X18950000Y-17646886D01*
G36*
X18766316Y-22746795D02*
X18821146Y-22828854D01*
X18900000Y-22881543D01*
X18900000Y-23050292D01*
X18896082Y-23069990D01*
X18909786Y-23138887D01*
X18900000Y-23136940D01*
X18841473Y-23148582D01*
X18791857Y-23181735D01*
X18381735Y-23591857D01*
X18348582Y-23641473D01*
X18336940Y-23700000D01*
X18340334Y-23717061D01*
X18289990Y-23717061D01*
X18289990Y-22912851D01*
X18299920Y-22902922D01*
X18300000Y-22902938D01*
X18500000Y-22902938D01*
X18596795Y-22883684D01*
X18678854Y-22828854D01*
X18733684Y-22746795D01*
X18750000Y-22664770D01*
X18766316Y-22746795D01*
X18766316Y-22746795D01*
G37*
X18766316Y-22746795D02*
X18821146Y-22828854D01*
X18900000Y-22881543D01*
X18900000Y-23050292D01*
X18896082Y-23069990D01*
X18909786Y-23138887D01*
X18900000Y-23136940D01*
X18841473Y-23148582D01*
X18791857Y-23181735D01*
X18381735Y-23591857D01*
X18348582Y-23641473D01*
X18336940Y-23700000D01*
X18340334Y-23717061D01*
X18289990Y-23717061D01*
X18289990Y-22912851D01*
X18299920Y-22902922D01*
X18300000Y-22902938D01*
X18500000Y-22902938D01*
X18596795Y-22883684D01*
X18678854Y-22828854D01*
X18733684Y-22746795D01*
X18750000Y-22664770D01*
X18766316Y-22746795D01*
D25*
G36*
X29792338Y-19697226D02*
X29792283Y-19697709D01*
X29793482Y-19712102D01*
X29794596Y-19726579D01*
X29794728Y-19727050D01*
X29803485Y-19832136D01*
X29812338Y-19947226D01*
X29812283Y-19947709D01*
X29813482Y-19962102D01*
X29814596Y-19976579D01*
X29814728Y-19977050D01*
X29823485Y-20082136D01*
X29833000Y-20205832D01*
X29833000Y-20320911D01*
X29832300Y-20326736D01*
X29833000Y-20335836D01*
X29833000Y-20344965D01*
X29834145Y-20350722D01*
X29842300Y-20456734D01*
X29842300Y-20456736D01*
X29853000Y-20595832D01*
X29853000Y-20720911D01*
X29852300Y-20726736D01*
X29853000Y-20735836D01*
X29853000Y-20744965D01*
X29854145Y-20750722D01*
X29863000Y-20865832D01*
X29863000Y-21120911D01*
X29862300Y-21126736D01*
X29863000Y-21135836D01*
X29863000Y-21144965D01*
X29864145Y-21150722D01*
X29873000Y-21265832D01*
X29873000Y-21423000D01*
X29457000Y-21423000D01*
X29457000Y-20937000D01*
X29454464Y-20924251D01*
X29454464Y-20924248D01*
X29408792Y-20694638D01*
X29389082Y-20647055D01*
X29259018Y-20452401D01*
X29241640Y-20435023D01*
X29222600Y-20415982D01*
X29027945Y-20285918D01*
X29018124Y-20281850D01*
X28980362Y-20266208D01*
X28750752Y-20220536D01*
X28725000Y-20220537D01*
X28699248Y-20220536D01*
X28469638Y-20266208D01*
X28422055Y-20285918D01*
X28227401Y-20415982D01*
X28190982Y-20452400D01*
X28060918Y-20647055D01*
X28041208Y-20694638D01*
X28012743Y-20837743D01*
X27777000Y-20884635D01*
X27777000Y-19677000D01*
X29790782Y-19677000D01*
X29792338Y-19697226D01*
X29792338Y-19697226D01*
G37*
X29792338Y-19697226D02*
X29792283Y-19697709D01*
X29793482Y-19712102D01*
X29794596Y-19726579D01*
X29794728Y-19727050D01*
X29803485Y-19832136D01*
X29812338Y-19947226D01*
X29812283Y-19947709D01*
X29813482Y-19962102D01*
X29814596Y-19976579D01*
X29814728Y-19977050D01*
X29823485Y-20082136D01*
X29833000Y-20205832D01*
X29833000Y-20320911D01*
X29832300Y-20326736D01*
X29833000Y-20335836D01*
X29833000Y-20344965D01*
X29834145Y-20350722D01*
X29842300Y-20456734D01*
X29842300Y-20456736D01*
X29853000Y-20595832D01*
X29853000Y-20720911D01*
X29852300Y-20726736D01*
X29853000Y-20735836D01*
X29853000Y-20744965D01*
X29854145Y-20750722D01*
X29863000Y-20865832D01*
X29863000Y-21120911D01*
X29862300Y-21126736D01*
X29863000Y-21135836D01*
X29863000Y-21144965D01*
X29864145Y-21150722D01*
X29873000Y-21265832D01*
X29873000Y-21423000D01*
X29457000Y-21423000D01*
X29457000Y-20937000D01*
X29454464Y-20924251D01*
X29454464Y-20924248D01*
X29408792Y-20694638D01*
X29389082Y-20647055D01*
X29259018Y-20452401D01*
X29241640Y-20435023D01*
X29222600Y-20415982D01*
X29027945Y-20285918D01*
X29018124Y-20281850D01*
X28980362Y-20266208D01*
X28750752Y-20220536D01*
X28725000Y-20220537D01*
X28699248Y-20220536D01*
X28469638Y-20266208D01*
X28422055Y-20285918D01*
X28227401Y-20415982D01*
X28190982Y-20452400D01*
X28060918Y-20647055D01*
X28041208Y-20694638D01*
X28012743Y-20837743D01*
X27777000Y-20884635D01*
X27777000Y-19677000D01*
X29790782Y-19677000D01*
X29792338Y-19697226D01*
G36*
X26496594Y-22915000D02*
X26518553Y-23025395D01*
X26518553Y-23050000D01*
X26536171Y-23138571D01*
X26586342Y-23213658D01*
X26661429Y-23263829D01*
X26750000Y-23281447D01*
X27043000Y-23281447D01*
X27043000Y-23893172D01*
X27039999Y-23892575D01*
X27012725Y-23898000D01*
X27012721Y-23898000D01*
X26931920Y-23914072D01*
X26902991Y-23933402D01*
X26865652Y-23958352D01*
X26840295Y-23975295D01*
X26824843Y-23998420D01*
X26789710Y-24033553D01*
X26685000Y-24033553D01*
X26596429Y-24051171D01*
X26521342Y-24101342D01*
X26471171Y-24176429D01*
X26453553Y-24265000D01*
X26453553Y-24565000D01*
X26471171Y-24653571D01*
X26521342Y-24728658D01*
X26556709Y-24752290D01*
X26435843Y-24873156D01*
X26348000Y-25085228D01*
X26348000Y-25314772D01*
X26435843Y-25526844D01*
X26598156Y-25689157D01*
X26810228Y-25777000D01*
X27039772Y-25777000D01*
X27188128Y-25715549D01*
X27049872Y-25807929D01*
X27049868Y-25807931D01*
X27007932Y-25849868D01*
X26834515Y-26109403D01*
X26834512Y-26109406D01*
X26823164Y-26136803D01*
X26811816Y-26164199D01*
X26811816Y-26164204D01*
X26775257Y-26348000D01*
X19894447Y-26348000D01*
X20156001Y-26086447D01*
X20225000Y-26086447D01*
X20313571Y-26068829D01*
X20388658Y-26018658D01*
X20438829Y-25943571D01*
X20456447Y-25855000D01*
X20456447Y-25625000D01*
X20438829Y-25536429D01*
X20388658Y-25461342D01*
X20313571Y-25411171D01*
X20225000Y-25393553D01*
X19925000Y-25393553D01*
X19836429Y-25411171D01*
X19761342Y-25461342D01*
X19711171Y-25536429D01*
X19700009Y-25592543D01*
X19494553Y-25798000D01*
X19227000Y-25798000D01*
X19227000Y-25245079D01*
X19309289Y-25261447D01*
X19479145Y-25261447D01*
X19482783Y-25270230D01*
X19506001Y-25293448D01*
X19524246Y-25320754D01*
X19551552Y-25338999D01*
X19574770Y-25362217D01*
X19605107Y-25374783D01*
X19632411Y-25393027D01*
X19664617Y-25399433D01*
X19694956Y-25412000D01*
X19727795Y-25412000D01*
X19760000Y-25418406D01*
X19792205Y-25412000D01*
X19825044Y-25412000D01*
X19855383Y-25399433D01*
X19887588Y-25393027D01*
X19914891Y-25374784D01*
X19945230Y-25362217D01*
X19968448Y-25338999D01*
X19978923Y-25332000D01*
X20396952Y-25332000D01*
X20448161Y-25366217D01*
X20575000Y-25391447D01*
X20775000Y-25391447D01*
X20901839Y-25366217D01*
X21009368Y-25294368D01*
X21081217Y-25186839D01*
X21106447Y-25060000D01*
X21106447Y-24800000D01*
X21081217Y-24673161D01*
X21009368Y-24565632D01*
X20901839Y-24493783D01*
X20865234Y-24486502D01*
X20911579Y-24440157D01*
X20934704Y-24424705D01*
X20966580Y-24377000D01*
X21095044Y-24377000D01*
X21155000Y-24352165D01*
X21203718Y-24372345D01*
X21205295Y-24374705D01*
X21296920Y-24435928D01*
X21368674Y-24450200D01*
X21361171Y-24461429D01*
X21343553Y-24550000D01*
X21343553Y-24800000D01*
X21361171Y-24888571D01*
X21385512Y-24925000D01*
X21361171Y-24961429D01*
X21343553Y-25050000D01*
X21343553Y-25300000D01*
X21361171Y-25388571D01*
X21385512Y-25425000D01*
X21361171Y-25461429D01*
X21343553Y-25550000D01*
X21343553Y-25800000D01*
X21361171Y-25888571D01*
X21411342Y-25963658D01*
X21486429Y-26013829D01*
X21575000Y-26031447D01*
X21875000Y-26031447D01*
X21963571Y-26013829D01*
X22038658Y-25963658D01*
X22088829Y-25888571D01*
X22106447Y-25800000D01*
X22106447Y-25785289D01*
X22314737Y-25577000D01*
X22315044Y-25577000D01*
X22348000Y-25563349D01*
X22348000Y-25589553D01*
X22347783Y-25589770D01*
X22298000Y-25709956D01*
X22298000Y-25840044D01*
X22347783Y-25960230D01*
X22439770Y-26052217D01*
X22559956Y-26102000D01*
X22690044Y-26102000D01*
X22810230Y-26052217D01*
X22902217Y-25960230D01*
X22903784Y-25956447D01*
X23025000Y-25956447D01*
X23113571Y-25938829D01*
X23188658Y-25888658D01*
X23238829Y-25813571D01*
X23256447Y-25725000D01*
X23256447Y-24320792D01*
X23272783Y-24360230D01*
X23364770Y-24452217D01*
X23484956Y-24502000D01*
X23615044Y-24502000D01*
X23692733Y-24469820D01*
X23647783Y-24514770D01*
X23598000Y-24634956D01*
X23598000Y-24765044D01*
X23647783Y-24885230D01*
X23739770Y-24977217D01*
X23756641Y-24984205D01*
X23743553Y-25050000D01*
X23743553Y-25300000D01*
X23761171Y-25388571D01*
X23811342Y-25463658D01*
X23886429Y-25513829D01*
X23975000Y-25531447D01*
X24275000Y-25531447D01*
X24363571Y-25513829D01*
X24438658Y-25463658D01*
X24488001Y-25389810D01*
X24488001Y-25741296D01*
X24482576Y-25768571D01*
X24488001Y-25795846D01*
X24488001Y-25795849D01*
X24504073Y-25876650D01*
X24565296Y-25968276D01*
X24588423Y-25983729D01*
X24731283Y-26126590D01*
X24746735Y-26149715D01*
X24838360Y-26210938D01*
X24919161Y-26227010D01*
X24919165Y-26227010D01*
X24946439Y-26232435D01*
X24973713Y-26227010D01*
X25442715Y-26227010D01*
X25469990Y-26232435D01*
X25497265Y-26227010D01*
X25497269Y-26227010D01*
X25578070Y-26210938D01*
X25669695Y-26149715D01*
X25685149Y-26126588D01*
X25780289Y-26031447D01*
X25842066Y-26031447D01*
X25871662Y-26043706D01*
X26001750Y-26043706D01*
X26121936Y-25993923D01*
X26175698Y-25940161D01*
X26184368Y-25934368D01*
X26190161Y-25925698D01*
X26213923Y-25901936D01*
X26226783Y-25870891D01*
X26256217Y-25826839D01*
X26281447Y-25700000D01*
X26281447Y-25500000D01*
X26256217Y-25373161D01*
X26184368Y-25265632D01*
X26076839Y-25193783D01*
X25950000Y-25168553D01*
X25690000Y-25168553D01*
X25607000Y-25185063D01*
X25607000Y-25140633D01*
X25616217Y-25126839D01*
X25641447Y-25000000D01*
X25641447Y-24800000D01*
X25616217Y-24673161D01*
X25607000Y-24659367D01*
X25607000Y-24440633D01*
X25616217Y-24426839D01*
X25641447Y-24300000D01*
X25641447Y-24100000D01*
X25616217Y-23973161D01*
X25596031Y-23942951D01*
X25577225Y-23848405D01*
X25525514Y-23771014D01*
X25502217Y-23714770D01*
X25410230Y-23622783D01*
X25347418Y-23596765D01*
X25281618Y-23552799D01*
X25115011Y-23519658D01*
X24948404Y-23552799D01*
X24807162Y-23647174D01*
X24712787Y-23788416D01*
X24699071Y-23857371D01*
X24698000Y-23859956D01*
X24698000Y-23862753D01*
X24679646Y-23955023D01*
X24712643Y-24120907D01*
X24590159Y-23998422D01*
X24574705Y-23975295D01*
X24483080Y-23914072D01*
X24453218Y-23908132D01*
X24438658Y-23886342D01*
X24383602Y-23849555D01*
X24976580Y-23256578D01*
X24999705Y-23241126D01*
X25015157Y-23218001D01*
X25025849Y-23202000D01*
X25074601Y-23202000D01*
X25134956Y-23227000D01*
X25265044Y-23227000D01*
X25385230Y-23177217D01*
X25477217Y-23085230D01*
X25527000Y-22965044D01*
X25527000Y-22964737D01*
X25684737Y-22807001D01*
X26462726Y-22807001D01*
X26490001Y-22812426D01*
X26517276Y-22807001D01*
X26517280Y-22807001D01*
X26518109Y-22806836D01*
X26496594Y-22915000D01*
X26496594Y-22915000D01*
G37*
X26496594Y-22915000D02*
X26518553Y-23025395D01*
X26518553Y-23050000D01*
X26536171Y-23138571D01*
X26586342Y-23213658D01*
X26661429Y-23263829D01*
X26750000Y-23281447D01*
X27043000Y-23281447D01*
X27043000Y-23893172D01*
X27039999Y-23892575D01*
X27012725Y-23898000D01*
X27012721Y-23898000D01*
X26931920Y-23914072D01*
X26902991Y-23933402D01*
X26865652Y-23958352D01*
X26840295Y-23975295D01*
X26824843Y-23998420D01*
X26789710Y-24033553D01*
X26685000Y-24033553D01*
X26596429Y-24051171D01*
X26521342Y-24101342D01*
X26471171Y-24176429D01*
X26453553Y-24265000D01*
X26453553Y-24565000D01*
X26471171Y-24653571D01*
X26521342Y-24728658D01*
X26556709Y-24752290D01*
X26435843Y-24873156D01*
X26348000Y-25085228D01*
X26348000Y-25314772D01*
X26435843Y-25526844D01*
X26598156Y-25689157D01*
X26810228Y-25777000D01*
X27039772Y-25777000D01*
X27188128Y-25715549D01*
X27049872Y-25807929D01*
X27049868Y-25807931D01*
X27007932Y-25849868D01*
X26834515Y-26109403D01*
X26834512Y-26109406D01*
X26823164Y-26136803D01*
X26811816Y-26164199D01*
X26811816Y-26164204D01*
X26775257Y-26348000D01*
X19894447Y-26348000D01*
X20156001Y-26086447D01*
X20225000Y-26086447D01*
X20313571Y-26068829D01*
X20388658Y-26018658D01*
X20438829Y-25943571D01*
X20456447Y-25855000D01*
X20456447Y-25625000D01*
X20438829Y-25536429D01*
X20388658Y-25461342D01*
X20313571Y-25411171D01*
X20225000Y-25393553D01*
X19925000Y-25393553D01*
X19836429Y-25411171D01*
X19761342Y-25461342D01*
X19711171Y-25536429D01*
X19700009Y-25592543D01*
X19494553Y-25798000D01*
X19227000Y-25798000D01*
X19227000Y-25245079D01*
X19309289Y-25261447D01*
X19479145Y-25261447D01*
X19482783Y-25270230D01*
X19506001Y-25293448D01*
X19524246Y-25320754D01*
X19551552Y-25338999D01*
X19574770Y-25362217D01*
X19605107Y-25374783D01*
X19632411Y-25393027D01*
X19664617Y-25399433D01*
X19694956Y-25412000D01*
X19727795Y-25412000D01*
X19760000Y-25418406D01*
X19792205Y-25412000D01*
X19825044Y-25412000D01*
X19855383Y-25399433D01*
X19887588Y-25393027D01*
X19914891Y-25374784D01*
X19945230Y-25362217D01*
X19968448Y-25338999D01*
X19978923Y-25332000D01*
X20396952Y-25332000D01*
X20448161Y-25366217D01*
X20575000Y-25391447D01*
X20775000Y-25391447D01*
X20901839Y-25366217D01*
X21009368Y-25294368D01*
X21081217Y-25186839D01*
X21106447Y-25060000D01*
X21106447Y-24800000D01*
X21081217Y-24673161D01*
X21009368Y-24565632D01*
X20901839Y-24493783D01*
X20865234Y-24486502D01*
X20911579Y-24440157D01*
X20934704Y-24424705D01*
X20966580Y-24377000D01*
X21095044Y-24377000D01*
X21155000Y-24352165D01*
X21203718Y-24372345D01*
X21205295Y-24374705D01*
X21296920Y-24435928D01*
X21368674Y-24450200D01*
X21361171Y-24461429D01*
X21343553Y-24550000D01*
X21343553Y-24800000D01*
X21361171Y-24888571D01*
X21385512Y-24925000D01*
X21361171Y-24961429D01*
X21343553Y-25050000D01*
X21343553Y-25300000D01*
X21361171Y-25388571D01*
X21385512Y-25425000D01*
X21361171Y-25461429D01*
X21343553Y-25550000D01*
X21343553Y-25800000D01*
X21361171Y-25888571D01*
X21411342Y-25963658D01*
X21486429Y-26013829D01*
X21575000Y-26031447D01*
X21875000Y-26031447D01*
X21963571Y-26013829D01*
X22038658Y-25963658D01*
X22088829Y-25888571D01*
X22106447Y-25800000D01*
X22106447Y-25785289D01*
X22314737Y-25577000D01*
X22315044Y-25577000D01*
X22348000Y-25563349D01*
X22348000Y-25589553D01*
X22347783Y-25589770D01*
X22298000Y-25709956D01*
X22298000Y-25840044D01*
X22347783Y-25960230D01*
X22439770Y-26052217D01*
X22559956Y-26102000D01*
X22690044Y-26102000D01*
X22810230Y-26052217D01*
X22902217Y-25960230D01*
X22903784Y-25956447D01*
X23025000Y-25956447D01*
X23113571Y-25938829D01*
X23188658Y-25888658D01*
X23238829Y-25813571D01*
X23256447Y-25725000D01*
X23256447Y-24320792D01*
X23272783Y-24360230D01*
X23364770Y-24452217D01*
X23484956Y-24502000D01*
X23615044Y-24502000D01*
X23692733Y-24469820D01*
X23647783Y-24514770D01*
X23598000Y-24634956D01*
X23598000Y-24765044D01*
X23647783Y-24885230D01*
X23739770Y-24977217D01*
X23756641Y-24984205D01*
X23743553Y-25050000D01*
X23743553Y-25300000D01*
X23761171Y-25388571D01*
X23811342Y-25463658D01*
X23886429Y-25513829D01*
X23975000Y-25531447D01*
X24275000Y-25531447D01*
X24363571Y-25513829D01*
X24438658Y-25463658D01*
X24488001Y-25389810D01*
X24488001Y-25741296D01*
X24482576Y-25768571D01*
X24488001Y-25795846D01*
X24488001Y-25795849D01*
X24504073Y-25876650D01*
X24565296Y-25968276D01*
X24588423Y-25983729D01*
X24731283Y-26126590D01*
X24746735Y-26149715D01*
X24838360Y-26210938D01*
X24919161Y-26227010D01*
X24919165Y-26227010D01*
X24946439Y-26232435D01*
X24973713Y-26227010D01*
X25442715Y-26227010D01*
X25469990Y-26232435D01*
X25497265Y-26227010D01*
X25497269Y-26227010D01*
X25578070Y-26210938D01*
X25669695Y-26149715D01*
X25685149Y-26126588D01*
X25780289Y-26031447D01*
X25842066Y-26031447D01*
X25871662Y-26043706D01*
X26001750Y-26043706D01*
X26121936Y-25993923D01*
X26175698Y-25940161D01*
X26184368Y-25934368D01*
X26190161Y-25925698D01*
X26213923Y-25901936D01*
X26226783Y-25870891D01*
X26256217Y-25826839D01*
X26281447Y-25700000D01*
X26281447Y-25500000D01*
X26256217Y-25373161D01*
X26184368Y-25265632D01*
X26076839Y-25193783D01*
X25950000Y-25168553D01*
X25690000Y-25168553D01*
X25607000Y-25185063D01*
X25607000Y-25140633D01*
X25616217Y-25126839D01*
X25641447Y-25000000D01*
X25641447Y-24800000D01*
X25616217Y-24673161D01*
X25607000Y-24659367D01*
X25607000Y-24440633D01*
X25616217Y-24426839D01*
X25641447Y-24300000D01*
X25641447Y-24100000D01*
X25616217Y-23973161D01*
X25596031Y-23942951D01*
X25577225Y-23848405D01*
X25525514Y-23771014D01*
X25502217Y-23714770D01*
X25410230Y-23622783D01*
X25347418Y-23596765D01*
X25281618Y-23552799D01*
X25115011Y-23519658D01*
X24948404Y-23552799D01*
X24807162Y-23647174D01*
X24712787Y-23788416D01*
X24699071Y-23857371D01*
X24698000Y-23859956D01*
X24698000Y-23862753D01*
X24679646Y-23955023D01*
X24712643Y-24120907D01*
X24590159Y-23998422D01*
X24574705Y-23975295D01*
X24483080Y-23914072D01*
X24453218Y-23908132D01*
X24438658Y-23886342D01*
X24383602Y-23849555D01*
X24976580Y-23256578D01*
X24999705Y-23241126D01*
X25015157Y-23218001D01*
X25025849Y-23202000D01*
X25074601Y-23202000D01*
X25134956Y-23227000D01*
X25265044Y-23227000D01*
X25385230Y-23177217D01*
X25477217Y-23085230D01*
X25527000Y-22965044D01*
X25527000Y-22964737D01*
X25684737Y-22807001D01*
X26462726Y-22807001D01*
X26490001Y-22812426D01*
X26517276Y-22807001D01*
X26517280Y-22807001D01*
X26518109Y-22806836D01*
X26496594Y-22915000D01*
G36*
X19266510Y-23752938D02*
X19384956Y-23802000D01*
X19433010Y-23802000D01*
X19433010Y-23907735D01*
X19427585Y-23935010D01*
X19433010Y-23962285D01*
X19433010Y-23962288D01*
X19449082Y-24043089D01*
X19471838Y-24077145D01*
X19467576Y-24098571D01*
X19472437Y-24123010D01*
X19227000Y-24123010D01*
X19227000Y-23745079D01*
X19266510Y-23752938D01*
X19266510Y-23752938D01*
G37*
X19266510Y-23752938D02*
X19384956Y-23802000D01*
X19433010Y-23802000D01*
X19433010Y-23907735D01*
X19427585Y-23935010D01*
X19433010Y-23962285D01*
X19433010Y-23962288D01*
X19449082Y-24043089D01*
X19471838Y-24077145D01*
X19467576Y-24098571D01*
X19472437Y-24123010D01*
X19227000Y-24123010D01*
X19227000Y-23745079D01*
X19266510Y-23752938D01*
G36*
X20050000Y-23736447D02*
X20223011Y-23736447D01*
X20223011Y-24018010D01*
X20061177Y-24018010D01*
X20030060Y-23986894D01*
X20032426Y-23975001D01*
X20027001Y-23947726D01*
X20027001Y-23947723D01*
X20010929Y-23866922D01*
X19987010Y-23831125D01*
X19987010Y-23723917D01*
X20050000Y-23736447D01*
X20050000Y-23736447D01*
G37*
X20050000Y-23736447D02*
X20223011Y-23736447D01*
X20223011Y-24018010D01*
X20061177Y-24018010D01*
X20030060Y-23986894D01*
X20032426Y-23975001D01*
X20027001Y-23947726D01*
X20027001Y-23947723D01*
X20010929Y-23866922D01*
X19987010Y-23831125D01*
X19987010Y-23723917D01*
X20050000Y-23736447D01*
G36*
X22573161Y-22741217D02*
X22700000Y-22766447D01*
X22900000Y-22766447D01*
X22976625Y-22751205D01*
X22973000Y-22759956D01*
X22973000Y-22890044D01*
X23022783Y-23010230D01*
X23114770Y-23102217D01*
X23152620Y-23117895D01*
X23151603Y-23123010D01*
X21977000Y-23123010D01*
X21977000Y-22761872D01*
X22000000Y-22766447D01*
X22200000Y-22766447D01*
X22326839Y-22741217D01*
X22340633Y-22732000D01*
X22559367Y-22732000D01*
X22573161Y-22741217D01*
X22573161Y-22741217D01*
G37*
X22573161Y-22741217D02*
X22700000Y-22766447D01*
X22900000Y-22766447D01*
X22976625Y-22751205D01*
X22973000Y-22759956D01*
X22973000Y-22890044D01*
X23022783Y-23010230D01*
X23114770Y-23102217D01*
X23152620Y-23117895D01*
X23151603Y-23123010D01*
X21977000Y-23123010D01*
X21977000Y-22761872D01*
X22000000Y-22766447D01*
X22200000Y-22766447D01*
X22326839Y-22741217D01*
X22340633Y-22732000D01*
X22559367Y-22732000D01*
X22573161Y-22741217D01*
G36*
X19245631Y-18193658D02*
X19320718Y-18243829D01*
X19409289Y-18261447D01*
X19660000Y-18261447D01*
X19748571Y-18243829D01*
X19811173Y-18202000D01*
X19893982Y-18202000D01*
X19925632Y-18249368D01*
X20033161Y-18321217D01*
X20160000Y-18346447D01*
X20360000Y-18346447D01*
X20486839Y-18321217D01*
X20584652Y-18255860D01*
X20590182Y-18283661D01*
X20643553Y-18363536D01*
X20643553Y-18450000D01*
X20661171Y-18538571D01*
X20711342Y-18613658D01*
X20786429Y-18663829D01*
X20875000Y-18681447D01*
X20986294Y-18681447D01*
X20991339Y-18684818D01*
X21203401Y-18727000D01*
X22796599Y-18727000D01*
X22995909Y-18687354D01*
X22935264Y-18748000D01*
X22457271Y-18748000D01*
X22429997Y-18742575D01*
X22402723Y-18748000D01*
X22402719Y-18748000D01*
X22321918Y-18764072D01*
X22230293Y-18825295D01*
X22214841Y-18848420D01*
X21948418Y-19114843D01*
X21925294Y-19130295D01*
X21909842Y-19153420D01*
X21909841Y-19153421D01*
X21864070Y-19221921D01*
X21842573Y-19330000D01*
X21847999Y-19357280D01*
X21847998Y-20342725D01*
X21842573Y-20370000D01*
X21847998Y-20397275D01*
X21847998Y-20397278D01*
X21864070Y-20478079D01*
X21925293Y-20569705D01*
X21948421Y-20585159D01*
X21989840Y-20626578D01*
X22005294Y-20649706D01*
X22096919Y-20710929D01*
X22177720Y-20727001D01*
X22177724Y-20727001D01*
X22204998Y-20732426D01*
X22232272Y-20727001D01*
X23035265Y-20727001D01*
X23273000Y-20964737D01*
X23273000Y-20965044D01*
X23322783Y-21085230D01*
X23337553Y-21100000D01*
X23322783Y-21114770D01*
X23273000Y-21234956D01*
X23273000Y-21241145D01*
X23239073Y-21291920D01*
X23237623Y-21299210D01*
X23219642Y-21317192D01*
X23177217Y-21214770D01*
X23085230Y-21122783D01*
X22965044Y-21073000D01*
X22834956Y-21073000D01*
X22809479Y-21083553D01*
X22790521Y-21083553D01*
X22765044Y-21073000D01*
X22634956Y-21073000D01*
X22514770Y-21122783D01*
X22450000Y-21187553D01*
X22385230Y-21122783D01*
X22265044Y-21073000D01*
X22134956Y-21073000D01*
X22109479Y-21083553D01*
X22090521Y-21083553D01*
X22065044Y-21073000D01*
X21934956Y-21073000D01*
X21814770Y-21122783D01*
X21722783Y-21214770D01*
X21673000Y-21334956D01*
X21673000Y-21392644D01*
X21668553Y-21415000D01*
X21668553Y-21675000D01*
X21669376Y-21679136D01*
X21600295Y-21725295D01*
X21584841Y-21748423D01*
X21523423Y-21809841D01*
X21500295Y-21825295D01*
X21439072Y-21916921D01*
X21423000Y-21997722D01*
X21423000Y-21997725D01*
X21417575Y-22025000D01*
X21423000Y-22052275D01*
X21423001Y-22898000D01*
X21414736Y-22898000D01*
X21365156Y-22848420D01*
X21349705Y-22825296D01*
X21323821Y-22808000D01*
X21289178Y-22784852D01*
X21258081Y-22764073D01*
X21258080Y-22764073D01*
X21258079Y-22764072D01*
X21150000Y-22742575D01*
X21130025Y-22746548D01*
X21127217Y-22739770D01*
X21035230Y-22647783D01*
X20991447Y-22629647D01*
X20991447Y-22445000D01*
X20966217Y-22318161D01*
X20894368Y-22210632D01*
X20786839Y-22138783D01*
X20660000Y-22113553D01*
X20400000Y-22113553D01*
X20273161Y-22138783D01*
X20245028Y-22157581D01*
X20209215Y-22121768D01*
X20231447Y-22010000D01*
X20231447Y-21977000D01*
X20240044Y-21977000D01*
X20301734Y-21951447D01*
X20550000Y-21951447D01*
X20638571Y-21933829D01*
X20713658Y-21883658D01*
X20763829Y-21808571D01*
X20781447Y-21720000D01*
X20781447Y-21490000D01*
X20778861Y-21477000D01*
X20839772Y-21477000D01*
X21051844Y-21389157D01*
X21214157Y-21226844D01*
X21302000Y-21014772D01*
X21302000Y-20785228D01*
X21214157Y-20573156D01*
X21051844Y-20410843D01*
X20839772Y-20323000D01*
X20610228Y-20323000D01*
X20398156Y-20410843D01*
X20235843Y-20573156D01*
X20148000Y-20785228D01*
X20148000Y-21014772D01*
X20198000Y-21135484D01*
X20198001Y-21268896D01*
X20161429Y-21276171D01*
X20158692Y-21278000D01*
X20107205Y-21278000D01*
X20075000Y-21271594D01*
X19999665Y-21286579D01*
X19947411Y-21296973D01*
X19839246Y-21369246D01*
X19821002Y-21396550D01*
X19813953Y-21403599D01*
X19702640Y-21413361D01*
X19839157Y-21276844D01*
X19927000Y-21064772D01*
X19927000Y-20835228D01*
X19839157Y-20623156D01*
X19676844Y-20460843D01*
X19464772Y-20373000D01*
X19235228Y-20373000D01*
X19227000Y-20376408D01*
X19227000Y-19675027D01*
X19245631Y-19693658D01*
X19320718Y-19743829D01*
X19409289Y-19761447D01*
X19660000Y-19761447D01*
X19748571Y-19743829D01*
X19811173Y-19702000D01*
X19910686Y-19702000D01*
X19925632Y-19724368D01*
X20033161Y-19796217D01*
X20160000Y-19821447D01*
X20360000Y-19821447D01*
X20486839Y-19796217D01*
X20594368Y-19724368D01*
X20607032Y-19705415D01*
X20677217Y-19635230D01*
X20727000Y-19515044D01*
X20727000Y-19384956D01*
X20691447Y-19299124D01*
X20691447Y-19230000D01*
X20666217Y-19103161D01*
X20594368Y-18995632D01*
X20486839Y-18923783D01*
X20360000Y-18898553D01*
X20160000Y-18898553D01*
X20033161Y-18923783D01*
X19925632Y-18995632D01*
X19890641Y-19048000D01*
X19811173Y-19048000D01*
X19748571Y-19006171D01*
X19660000Y-18988553D01*
X19227000Y-18988553D01*
X19227000Y-18175027D01*
X19245631Y-18193658D01*
X19245631Y-18193658D01*
G37*
X19245631Y-18193658D02*
X19320718Y-18243829D01*
X19409289Y-18261447D01*
X19660000Y-18261447D01*
X19748571Y-18243829D01*
X19811173Y-18202000D01*
X19893982Y-18202000D01*
X19925632Y-18249368D01*
X20033161Y-18321217D01*
X20160000Y-18346447D01*
X20360000Y-18346447D01*
X20486839Y-18321217D01*
X20584652Y-18255860D01*
X20590182Y-18283661D01*
X20643553Y-18363536D01*
X20643553Y-18450000D01*
X20661171Y-18538571D01*
X20711342Y-18613658D01*
X20786429Y-18663829D01*
X20875000Y-18681447D01*
X20986294Y-18681447D01*
X20991339Y-18684818D01*
X21203401Y-18727000D01*
X22796599Y-18727000D01*
X22995909Y-18687354D01*
X22935264Y-18748000D01*
X22457271Y-18748000D01*
X22429997Y-18742575D01*
X22402723Y-18748000D01*
X22402719Y-18748000D01*
X22321918Y-18764072D01*
X22230293Y-18825295D01*
X22214841Y-18848420D01*
X21948418Y-19114843D01*
X21925294Y-19130295D01*
X21909842Y-19153420D01*
X21909841Y-19153421D01*
X21864070Y-19221921D01*
X21842573Y-19330000D01*
X21847999Y-19357280D01*
X21847998Y-20342725D01*
X21842573Y-20370000D01*
X21847998Y-20397275D01*
X21847998Y-20397278D01*
X21864070Y-20478079D01*
X21925293Y-20569705D01*
X21948421Y-20585159D01*
X21989840Y-20626578D01*
X22005294Y-20649706D01*
X22096919Y-20710929D01*
X22177720Y-20727001D01*
X22177724Y-20727001D01*
X22204998Y-20732426D01*
X22232272Y-20727001D01*
X23035265Y-20727001D01*
X23273000Y-20964737D01*
X23273000Y-20965044D01*
X23322783Y-21085230D01*
X23337553Y-21100000D01*
X23322783Y-21114770D01*
X23273000Y-21234956D01*
X23273000Y-21241145D01*
X23239073Y-21291920D01*
X23237623Y-21299210D01*
X23219642Y-21317192D01*
X23177217Y-21214770D01*
X23085230Y-21122783D01*
X22965044Y-21073000D01*
X22834956Y-21073000D01*
X22809479Y-21083553D01*
X22790521Y-21083553D01*
X22765044Y-21073000D01*
X22634956Y-21073000D01*
X22514770Y-21122783D01*
X22450000Y-21187553D01*
X22385230Y-21122783D01*
X22265044Y-21073000D01*
X22134956Y-21073000D01*
X22109479Y-21083553D01*
X22090521Y-21083553D01*
X22065044Y-21073000D01*
X21934956Y-21073000D01*
X21814770Y-21122783D01*
X21722783Y-21214770D01*
X21673000Y-21334956D01*
X21673000Y-21392644D01*
X21668553Y-21415000D01*
X21668553Y-21675000D01*
X21669376Y-21679136D01*
X21600295Y-21725295D01*
X21584841Y-21748423D01*
X21523423Y-21809841D01*
X21500295Y-21825295D01*
X21439072Y-21916921D01*
X21423000Y-21997722D01*
X21423000Y-21997725D01*
X21417575Y-22025000D01*
X21423000Y-22052275D01*
X21423001Y-22898000D01*
X21414736Y-22898000D01*
X21365156Y-22848420D01*
X21349705Y-22825296D01*
X21323821Y-22808000D01*
X21289178Y-22784852D01*
X21258081Y-22764073D01*
X21258080Y-22764073D01*
X21258079Y-22764072D01*
X21150000Y-22742575D01*
X21130025Y-22746548D01*
X21127217Y-22739770D01*
X21035230Y-22647783D01*
X20991447Y-22629647D01*
X20991447Y-22445000D01*
X20966217Y-22318161D01*
X20894368Y-22210632D01*
X20786839Y-22138783D01*
X20660000Y-22113553D01*
X20400000Y-22113553D01*
X20273161Y-22138783D01*
X20245028Y-22157581D01*
X20209215Y-22121768D01*
X20231447Y-22010000D01*
X20231447Y-21977000D01*
X20240044Y-21977000D01*
X20301734Y-21951447D01*
X20550000Y-21951447D01*
X20638571Y-21933829D01*
X20713658Y-21883658D01*
X20763829Y-21808571D01*
X20781447Y-21720000D01*
X20781447Y-21490000D01*
X20778861Y-21477000D01*
X20839772Y-21477000D01*
X21051844Y-21389157D01*
X21214157Y-21226844D01*
X21302000Y-21014772D01*
X21302000Y-20785228D01*
X21214157Y-20573156D01*
X21051844Y-20410843D01*
X20839772Y-20323000D01*
X20610228Y-20323000D01*
X20398156Y-20410843D01*
X20235843Y-20573156D01*
X20148000Y-20785228D01*
X20148000Y-21014772D01*
X20198000Y-21135484D01*
X20198001Y-21268896D01*
X20161429Y-21276171D01*
X20158692Y-21278000D01*
X20107205Y-21278000D01*
X20075000Y-21271594D01*
X19999665Y-21286579D01*
X19947411Y-21296973D01*
X19839246Y-21369246D01*
X19821002Y-21396550D01*
X19813953Y-21403599D01*
X19702640Y-21413361D01*
X19839157Y-21276844D01*
X19927000Y-21064772D01*
X19927000Y-20835228D01*
X19839157Y-20623156D01*
X19676844Y-20460843D01*
X19464772Y-20373000D01*
X19235228Y-20373000D01*
X19227000Y-20376408D01*
X19227000Y-19675027D01*
X19245631Y-19693658D01*
X19320718Y-19743829D01*
X19409289Y-19761447D01*
X19660000Y-19761447D01*
X19748571Y-19743829D01*
X19811173Y-19702000D01*
X19910686Y-19702000D01*
X19925632Y-19724368D01*
X20033161Y-19796217D01*
X20160000Y-19821447D01*
X20360000Y-19821447D01*
X20486839Y-19796217D01*
X20594368Y-19724368D01*
X20607032Y-19705415D01*
X20677217Y-19635230D01*
X20727000Y-19515044D01*
X20727000Y-19384956D01*
X20691447Y-19299124D01*
X20691447Y-19230000D01*
X20666217Y-19103161D01*
X20594368Y-18995632D01*
X20486839Y-18923783D01*
X20360000Y-18898553D01*
X20160000Y-18898553D01*
X20033161Y-18923783D01*
X19925632Y-18995632D01*
X19890641Y-19048000D01*
X19811173Y-19048000D01*
X19748571Y-19006171D01*
X19660000Y-18988553D01*
X19227000Y-18988553D01*
X19227000Y-18175027D01*
X19245631Y-18193658D01*
G36*
X27473000Y-19414161D02*
X27440279Y-19463131D01*
X27423000Y-19550000D01*
X27423000Y-20283128D01*
X27400000Y-20278553D01*
X27100000Y-20278553D01*
X27011429Y-20296171D01*
X26936342Y-20346342D01*
X26886171Y-20421429D01*
X26868553Y-20510000D01*
X26868553Y-20543000D01*
X26417975Y-20543000D01*
X26441447Y-20425000D01*
X26441447Y-20237269D01*
X26450928Y-20223080D01*
X26454230Y-20206479D01*
X26467000Y-20142279D01*
X26467000Y-20142275D01*
X26472425Y-20115000D01*
X26467000Y-20087725D01*
X26467000Y-19970447D01*
X26467217Y-19970230D01*
X26517000Y-19850044D01*
X26517000Y-19719956D01*
X26467217Y-19599770D01*
X26447000Y-19579553D01*
X26447000Y-19549956D01*
X26441447Y-19536550D01*
X26441447Y-19525000D01*
X26416217Y-19398161D01*
X26344368Y-19290632D01*
X26236839Y-19218783D01*
X26151129Y-19201734D01*
X26156447Y-19175000D01*
X26156447Y-18910291D01*
X26439739Y-18627000D01*
X27473000Y-18627000D01*
X27473000Y-19414161D01*
X27473000Y-19414161D01*
G37*
X27473000Y-19414161D02*
X27440279Y-19463131D01*
X27423000Y-19550000D01*
X27423000Y-20283128D01*
X27400000Y-20278553D01*
X27100000Y-20278553D01*
X27011429Y-20296171D01*
X26936342Y-20346342D01*
X26886171Y-20421429D01*
X26868553Y-20510000D01*
X26868553Y-20543000D01*
X26417975Y-20543000D01*
X26441447Y-20425000D01*
X26441447Y-20237269D01*
X26450928Y-20223080D01*
X26454230Y-20206479D01*
X26467000Y-20142279D01*
X26467000Y-20142275D01*
X26472425Y-20115000D01*
X26467000Y-20087725D01*
X26467000Y-19970447D01*
X26467217Y-19970230D01*
X26517000Y-19850044D01*
X26517000Y-19719956D01*
X26467217Y-19599770D01*
X26447000Y-19579553D01*
X26447000Y-19549956D01*
X26441447Y-19536550D01*
X26441447Y-19525000D01*
X26416217Y-19398161D01*
X26344368Y-19290632D01*
X26236839Y-19218783D01*
X26151129Y-19201734D01*
X26156447Y-19175000D01*
X26156447Y-18910291D01*
X26439739Y-18627000D01*
X27473000Y-18627000D01*
X27473000Y-19414161D01*
G36*
X24973156Y-17335843D02*
X24810843Y-17498156D01*
X24723000Y-17710228D01*
X24723000Y-17939772D01*
X24757478Y-18023010D01*
X24200842Y-18023010D01*
X24215365Y-17950000D01*
X24182225Y-17783393D01*
X24141447Y-17722364D01*
X24141447Y-17675000D01*
X24116217Y-17548161D01*
X24044368Y-17440632D01*
X23936839Y-17368783D01*
X23810000Y-17343553D01*
X23550000Y-17343553D01*
X23423161Y-17368783D01*
X23342020Y-17423000D01*
X23313152Y-17423000D01*
X23288658Y-17386342D01*
X23213571Y-17336171D01*
X23125000Y-17318553D01*
X23013706Y-17318553D01*
X23008661Y-17315182D01*
X22796599Y-17273000D01*
X21203401Y-17273000D01*
X20991339Y-17315182D01*
X20986294Y-17318553D01*
X20875000Y-17318553D01*
X20786429Y-17336171D01*
X20711342Y-17386342D01*
X20661171Y-17461429D01*
X20646688Y-17534241D01*
X20610230Y-17497783D01*
X20490044Y-17448000D01*
X20482903Y-17448000D01*
X20360000Y-17423553D01*
X20160000Y-17423553D01*
X20033161Y-17448783D01*
X19925632Y-17520632D01*
X19914272Y-17537634D01*
X19889770Y-17547783D01*
X19889553Y-17548000D01*
X19811173Y-17548000D01*
X19748571Y-17506171D01*
X19660000Y-17488553D01*
X19227000Y-17488553D01*
X19227000Y-17252000D01*
X25175571Y-17252000D01*
X24973156Y-17335843D01*
X24973156Y-17335843D01*
G37*
X24973156Y-17335843D02*
X24810843Y-17498156D01*
X24723000Y-17710228D01*
X24723000Y-17939772D01*
X24757478Y-18023010D01*
X24200842Y-18023010D01*
X24215365Y-17950000D01*
X24182225Y-17783393D01*
X24141447Y-17722364D01*
X24141447Y-17675000D01*
X24116217Y-17548161D01*
X24044368Y-17440632D01*
X23936839Y-17368783D01*
X23810000Y-17343553D01*
X23550000Y-17343553D01*
X23423161Y-17368783D01*
X23342020Y-17423000D01*
X23313152Y-17423000D01*
X23288658Y-17386342D01*
X23213571Y-17336171D01*
X23125000Y-17318553D01*
X23013706Y-17318553D01*
X23008661Y-17315182D01*
X22796599Y-17273000D01*
X21203401Y-17273000D01*
X20991339Y-17315182D01*
X20986294Y-17318553D01*
X20875000Y-17318553D01*
X20786429Y-17336171D01*
X20711342Y-17386342D01*
X20661171Y-17461429D01*
X20646688Y-17534241D01*
X20610230Y-17497783D01*
X20490044Y-17448000D01*
X20482903Y-17448000D01*
X20360000Y-17423553D01*
X20160000Y-17423553D01*
X20033161Y-17448783D01*
X19925632Y-17520632D01*
X19914272Y-17537634D01*
X19889770Y-17547783D01*
X19889553Y-17548000D01*
X19811173Y-17548000D01*
X19748571Y-17506171D01*
X19660000Y-17488553D01*
X19227000Y-17488553D01*
X19227000Y-17252000D01*
X25175571Y-17252000D01*
X24973156Y-17335843D01*
M02*
