%TF.GenerationSoftware,KiCad,Pcbnew,(5.0.1)-3*%
%TF.CreationDate,2018-11-18T15:50:50+08:00*%
%TF.ProjectId,tomu-fpga,746F6D752D667067612E6B696361645F,rev?*%
%TF.SameCoordinates,Original*%
%TF.FileFunction,Other,Fab,Top*%
%FSLAX46Y46*%
G04 Gerber Fmt 4.6, Leading zero omitted, Abs format (unit mm)*
G04 Created by KiCad (PCBNEW (5.0.1)-3) date 11/18/18 15:50:50*
%MOMM*%
%LPD*%
G01*
G04 APERTURE LIST*
%ADD10C,0.025000*%
G04 APERTURE END LIST*
D10*
X30845238Y-22516666D02*
X30845238Y-22459523D01*
X30945238Y-22488095D02*
X30845238Y-22488095D01*
X30945238Y-22411904D02*
X30940476Y-22421428D01*
X30935714Y-22426190D01*
X30926190Y-22430952D01*
X30897619Y-22430952D01*
X30888095Y-22426190D01*
X30883333Y-22421428D01*
X30878571Y-22411904D01*
X30878571Y-22397619D01*
X30883333Y-22388095D01*
X30888095Y-22383333D01*
X30897619Y-22378571D01*
X30926190Y-22378571D01*
X30935714Y-22383333D01*
X30940476Y-22388095D01*
X30945238Y-22397619D01*
X30945238Y-22411904D01*
X30878571Y-22292857D02*
X30945238Y-22292857D01*
X30878571Y-22335714D02*
X30930952Y-22335714D01*
X30940476Y-22330952D01*
X30945238Y-22321428D01*
X30945238Y-22307142D01*
X30940476Y-22297619D01*
X30935714Y-22292857D01*
X30940476Y-22202380D02*
X30945238Y-22211904D01*
X30945238Y-22230952D01*
X30940476Y-22240476D01*
X30935714Y-22245238D01*
X30926190Y-22250000D01*
X30897619Y-22250000D01*
X30888095Y-22245238D01*
X30883333Y-22240476D01*
X30878571Y-22230952D01*
X30878571Y-22211904D01*
X30883333Y-22202380D01*
X30945238Y-22159523D02*
X30845238Y-22159523D01*
X30945238Y-22116666D02*
X30892857Y-22116666D01*
X30883333Y-22121428D01*
X30878571Y-22130952D01*
X30878571Y-22145238D01*
X30883333Y-22154761D01*
X30888095Y-22159523D01*
X30878571Y-22069047D02*
X30978571Y-22069047D01*
X30883333Y-22069047D02*
X30878571Y-22059523D01*
X30878571Y-22040476D01*
X30883333Y-22030952D01*
X30888095Y-22026190D01*
X30897619Y-22021428D01*
X30926190Y-22021428D01*
X30935714Y-22026190D01*
X30940476Y-22030952D01*
X30945238Y-22040476D01*
X30945238Y-22059523D01*
X30940476Y-22069047D01*
X30945238Y-21935714D02*
X30892857Y-21935714D01*
X30883333Y-21940476D01*
X30878571Y-21950000D01*
X30878571Y-21969047D01*
X30883333Y-21978571D01*
X30940476Y-21935714D02*
X30945238Y-21945238D01*
X30945238Y-21969047D01*
X30940476Y-21978571D01*
X30930952Y-21983333D01*
X30921428Y-21983333D01*
X30911904Y-21978571D01*
X30907142Y-21969047D01*
X30907142Y-21945238D01*
X30902380Y-21935714D01*
X30945238Y-21845238D02*
X30845238Y-21845238D01*
X30940476Y-21845238D02*
X30945238Y-21854761D01*
X30945238Y-21873809D01*
X30940476Y-21883333D01*
X30935714Y-21888095D01*
X30926190Y-21892857D01*
X30897619Y-21892857D01*
X30888095Y-21888095D01*
X30883333Y-21883333D01*
X30878571Y-21873809D01*
X30878571Y-21854761D01*
X30883333Y-21845238D01*
X30945238Y-21721428D02*
X30845238Y-21721428D01*
X30916666Y-21688095D01*
X30845238Y-21654761D01*
X30945238Y-21654761D01*
X30945238Y-21564285D02*
X30892857Y-21564285D01*
X30883333Y-21569047D01*
X30878571Y-21578571D01*
X30878571Y-21597619D01*
X30883333Y-21607142D01*
X30940476Y-21564285D02*
X30945238Y-21573809D01*
X30945238Y-21597619D01*
X30940476Y-21607142D01*
X30930952Y-21611904D01*
X30921428Y-21611904D01*
X30911904Y-21607142D01*
X30907142Y-21597619D01*
X30907142Y-21573809D01*
X30902380Y-21564285D01*
X30940476Y-21521428D02*
X30945238Y-21511904D01*
X30945238Y-21492857D01*
X30940476Y-21483333D01*
X30930952Y-21478571D01*
X30926190Y-21478571D01*
X30916666Y-21483333D01*
X30911904Y-21492857D01*
X30911904Y-21507142D01*
X30907142Y-21516666D01*
X30897619Y-21521428D01*
X30892857Y-21521428D01*
X30883333Y-21516666D01*
X30878571Y-21507142D01*
X30878571Y-21492857D01*
X30883333Y-21483333D01*
X30945238Y-21435714D02*
X30845238Y-21435714D01*
X30907142Y-21426190D02*
X30945238Y-21397619D01*
X30878571Y-21397619D02*
X30916666Y-21435714D01*
X30945238Y-21221428D02*
X30897619Y-21254761D01*
X30945238Y-21278571D02*
X30845238Y-21278571D01*
X30845238Y-21240476D01*
X30850000Y-21230952D01*
X30854761Y-21226190D01*
X30864285Y-21221428D01*
X30878571Y-21221428D01*
X30888095Y-21226190D01*
X30892857Y-21230952D01*
X30897619Y-21240476D01*
X30897619Y-21278571D01*
X30940476Y-21140476D02*
X30945238Y-21150000D01*
X30945238Y-21169047D01*
X30940476Y-21178571D01*
X30930952Y-21183333D01*
X30892857Y-21183333D01*
X30883333Y-21178571D01*
X30878571Y-21169047D01*
X30878571Y-21150000D01*
X30883333Y-21140476D01*
X30892857Y-21135714D01*
X30902380Y-21135714D01*
X30911904Y-21183333D01*
X30945238Y-21092857D02*
X30878571Y-21092857D01*
X30888095Y-21092857D02*
X30883333Y-21088095D01*
X30878571Y-21078571D01*
X30878571Y-21064285D01*
X30883333Y-21054761D01*
X30892857Y-21050000D01*
X30945238Y-21050000D01*
X30892857Y-21050000D02*
X30883333Y-21045238D01*
X30878571Y-21035714D01*
X30878571Y-21021428D01*
X30883333Y-21011904D01*
X30892857Y-21007142D01*
X30945238Y-21007142D01*
X30945238Y-20945238D02*
X30940476Y-20954761D01*
X30935714Y-20959523D01*
X30926190Y-20964285D01*
X30897619Y-20964285D01*
X30888095Y-20959523D01*
X30883333Y-20954761D01*
X30878571Y-20945238D01*
X30878571Y-20930952D01*
X30883333Y-20921428D01*
X30888095Y-20916666D01*
X30897619Y-20911904D01*
X30926190Y-20911904D01*
X30935714Y-20916666D01*
X30940476Y-20921428D01*
X30945238Y-20930952D01*
X30945238Y-20945238D01*
X30878571Y-20878571D02*
X30945238Y-20854761D01*
X30878571Y-20830952D01*
X30945238Y-20750000D02*
X30892857Y-20750000D01*
X30883333Y-20754761D01*
X30878571Y-20764285D01*
X30878571Y-20783333D01*
X30883333Y-20792857D01*
X30940476Y-20750000D02*
X30945238Y-20759523D01*
X30945238Y-20783333D01*
X30940476Y-20792857D01*
X30930952Y-20797619D01*
X30921428Y-20797619D01*
X30911904Y-20792857D01*
X30907142Y-20783333D01*
X30907142Y-20759523D01*
X30902380Y-20750000D01*
X30945238Y-20688095D02*
X30940476Y-20697619D01*
X30930952Y-20702380D01*
X30845238Y-20702380D01*
X24435714Y-22585714D02*
X24440476Y-22590476D01*
X24445238Y-22604761D01*
X24445238Y-22614285D01*
X24440476Y-22628571D01*
X24430952Y-22638095D01*
X24421428Y-22642857D01*
X24402380Y-22647619D01*
X24388095Y-22647619D01*
X24369047Y-22642857D01*
X24359523Y-22638095D01*
X24350000Y-22628571D01*
X24345238Y-22614285D01*
X24345238Y-22604761D01*
X24350000Y-22590476D01*
X24354761Y-22585714D01*
X24445238Y-22500000D02*
X24392857Y-22500000D01*
X24383333Y-22504761D01*
X24378571Y-22514285D01*
X24378571Y-22533333D01*
X24383333Y-22542857D01*
X24440476Y-22500000D02*
X24445238Y-22509523D01*
X24445238Y-22533333D01*
X24440476Y-22542857D01*
X24430952Y-22547619D01*
X24421428Y-22547619D01*
X24411904Y-22542857D01*
X24407142Y-22533333D01*
X24407142Y-22509523D01*
X24402380Y-22500000D01*
X24378571Y-22452380D02*
X24478571Y-22452380D01*
X24383333Y-22452380D02*
X24378571Y-22442857D01*
X24378571Y-22423809D01*
X24383333Y-22414285D01*
X24388095Y-22409523D01*
X24397619Y-22404761D01*
X24426190Y-22404761D01*
X24435714Y-22409523D01*
X24440476Y-22414285D01*
X24445238Y-22423809D01*
X24445238Y-22442857D01*
X24440476Y-22452380D01*
X24378571Y-22376190D02*
X24378571Y-22338095D01*
X24345238Y-22361904D02*
X24430952Y-22361904D01*
X24440476Y-22357142D01*
X24445238Y-22347619D01*
X24445238Y-22338095D01*
X24445238Y-22290476D02*
X24440476Y-22300000D01*
X24435714Y-22304761D01*
X24426190Y-22309523D01*
X24397619Y-22309523D01*
X24388095Y-22304761D01*
X24383333Y-22300000D01*
X24378571Y-22290476D01*
X24378571Y-22276190D01*
X24383333Y-22266666D01*
X24388095Y-22261904D01*
X24397619Y-22257142D01*
X24426190Y-22257142D01*
X24435714Y-22261904D01*
X24440476Y-22266666D01*
X24445238Y-22276190D01*
X24445238Y-22290476D01*
X24378571Y-22171428D02*
X24445238Y-22171428D01*
X24378571Y-22214285D02*
X24430952Y-22214285D01*
X24440476Y-22209523D01*
X24445238Y-22200000D01*
X24445238Y-22185714D01*
X24440476Y-22176190D01*
X24435714Y-22171428D01*
X24440476Y-22080952D02*
X24445238Y-22090476D01*
X24445238Y-22109523D01*
X24440476Y-22119047D01*
X24435714Y-22123809D01*
X24426190Y-22128571D01*
X24397619Y-22128571D01*
X24388095Y-22123809D01*
X24383333Y-22119047D01*
X24378571Y-22109523D01*
X24378571Y-22090476D01*
X24383333Y-22080952D01*
X24445238Y-22038095D02*
X24345238Y-22038095D01*
X24445238Y-21995238D02*
X24392857Y-21995238D01*
X24383333Y-22000000D01*
X24378571Y-22009523D01*
X24378571Y-22023809D01*
X24383333Y-22033333D01*
X24388095Y-22038095D01*
X24445238Y-21871428D02*
X24345238Y-21871428D01*
X24345238Y-21833333D01*
X24350000Y-21823809D01*
X24354761Y-21819047D01*
X24364285Y-21814285D01*
X24378571Y-21814285D01*
X24388095Y-21819047D01*
X24392857Y-21823809D01*
X24397619Y-21833333D01*
X24397619Y-21871428D01*
X24445238Y-21728571D02*
X24392857Y-21728571D01*
X24383333Y-21733333D01*
X24378571Y-21742857D01*
X24378571Y-21761904D01*
X24383333Y-21771428D01*
X24440476Y-21728571D02*
X24445238Y-21738095D01*
X24445238Y-21761904D01*
X24440476Y-21771428D01*
X24430952Y-21776190D01*
X24421428Y-21776190D01*
X24411904Y-21771428D01*
X24407142Y-21761904D01*
X24407142Y-21738095D01*
X24402380Y-21728571D01*
X24445238Y-21638095D02*
X24345238Y-21638095D01*
X24440476Y-21638095D02*
X24445238Y-21647619D01*
X24445238Y-21666666D01*
X24440476Y-21676190D01*
X24435714Y-21680952D01*
X24426190Y-21685714D01*
X24397619Y-21685714D01*
X24388095Y-21680952D01*
X24383333Y-21676190D01*
X24378571Y-21666666D01*
X24378571Y-21647619D01*
X24383333Y-21638095D01*
X24440476Y-21595238D02*
X24445238Y-21585714D01*
X24445238Y-21566666D01*
X24440476Y-21557142D01*
X24430952Y-21552380D01*
X24426190Y-21552380D01*
X24416666Y-21557142D01*
X24411904Y-21566666D01*
X24411904Y-21580952D01*
X24407142Y-21590476D01*
X24397619Y-21595238D01*
X24392857Y-21595238D01*
X24383333Y-21590476D01*
X24378571Y-21580952D01*
X24378571Y-21566666D01*
X24383333Y-21557142D01*
X20186904Y-27495238D02*
X20186904Y-27576190D01*
X20191666Y-27585714D01*
X20196428Y-27590476D01*
X20205952Y-27595238D01*
X20225000Y-27595238D01*
X20234523Y-27590476D01*
X20239285Y-27585714D01*
X20244047Y-27576190D01*
X20244047Y-27495238D01*
X20286904Y-27590476D02*
X20301190Y-27595238D01*
X20325000Y-27595238D01*
X20334523Y-27590476D01*
X20339285Y-27585714D01*
X20344047Y-27576190D01*
X20344047Y-27566666D01*
X20339285Y-27557142D01*
X20334523Y-27552380D01*
X20325000Y-27547619D01*
X20305952Y-27542857D01*
X20296428Y-27538095D01*
X20291666Y-27533333D01*
X20286904Y-27523809D01*
X20286904Y-27514285D01*
X20291666Y-27504761D01*
X20296428Y-27500000D01*
X20305952Y-27495238D01*
X20329761Y-27495238D01*
X20344047Y-27500000D01*
X20420238Y-27542857D02*
X20434523Y-27547619D01*
X20439285Y-27552380D01*
X20444047Y-27561904D01*
X20444047Y-27576190D01*
X20439285Y-27585714D01*
X20434523Y-27590476D01*
X20425000Y-27595238D01*
X20386904Y-27595238D01*
X20386904Y-27495238D01*
X20420238Y-27495238D01*
X20429761Y-27500000D01*
X20434523Y-27504761D01*
X20439285Y-27514285D01*
X20439285Y-27523809D01*
X20434523Y-27533333D01*
X20429761Y-27538095D01*
X20420238Y-27542857D01*
X20386904Y-27542857D01*
X20486904Y-27557142D02*
X20563095Y-27557142D01*
X20644047Y-27542857D02*
X20658333Y-27547619D01*
X20663095Y-27552380D01*
X20667857Y-27561904D01*
X20667857Y-27576190D01*
X20663095Y-27585714D01*
X20658333Y-27590476D01*
X20648809Y-27595238D01*
X20610714Y-27595238D01*
X20610714Y-27495238D01*
X20644047Y-27495238D01*
X20653571Y-27500000D01*
X20658333Y-27504761D01*
X20663095Y-27514285D01*
X20663095Y-27523809D01*
X20658333Y-27533333D01*
X20653571Y-27538095D01*
X20644047Y-27542857D01*
X20610714Y-27542857D01*
M02*
