%TF.GenerationSoftware,KiCad,Pcbnew,(5.0.1)-3*%
%TF.CreationDate,2018-11-18T15:50:49+08:00*%
%TF.ProjectId,tomu-fpga,746F6D752D667067612E6B696361645F,rev?*%
%TF.SameCoordinates,Original*%
%TF.FileFunction,Other,User*%
%FSLAX46Y46*%
G04 Gerber Fmt 4.6, Leading zero omitted, Abs format (unit mm)*
G04 Created by KiCad (PCBNEW (5.0.1)-3) date 11/18/18 15:50:49*
%MOMM*%
%LPD*%
G01*
G04 APERTURE LIST*
%ADD10C,0.050000*%
%ADD11C,0.100000*%
%ADD12C,0.030000*%
%ADD13C,0.035000*%
G04 APERTURE END LIST*
D10*
X24700000Y-26175000D02*
X24700000Y-23675000D01*
X21150000Y-26175000D02*
X24700000Y-26175000D01*
X21150000Y-23675000D02*
X21150000Y-26175000D01*
X24700000Y-23675000D02*
X21150000Y-23675000D01*
X20150000Y-21395000D02*
X20150000Y-22195000D01*
X20150000Y-22195000D02*
X20650000Y-22195000D01*
X20650000Y-22195000D02*
X20650000Y-21395000D01*
X20650000Y-21395000D02*
X20150000Y-21395000D01*
X18700000Y-21495000D02*
X18700000Y-20695000D01*
X18700000Y-20695000D02*
X18200000Y-20695000D01*
X18200000Y-20695000D02*
X18200000Y-21495000D01*
X18200000Y-21495000D02*
X18700000Y-21495000D01*
X27010000Y-24165000D02*
X26210000Y-24165000D01*
X26210000Y-24165000D02*
X26210000Y-24665000D01*
X26210000Y-24665000D02*
X27010000Y-24665000D01*
X27010000Y-24665000D02*
X27010000Y-24165000D01*
X26650000Y-22725000D02*
X26650000Y-23525000D01*
X26650000Y-23525000D02*
X27150000Y-23525000D01*
X27150000Y-23525000D02*
X27150000Y-22725000D01*
X27150000Y-22725000D02*
X26650000Y-22725000D01*
X25600000Y-19275000D02*
X26400000Y-19275000D01*
X26400000Y-19275000D02*
X26400000Y-18775000D01*
X26400000Y-18775000D02*
X25600000Y-18775000D01*
X25600000Y-18775000D02*
X25600000Y-19275000D01*
X27500000Y-20835000D02*
X27500000Y-20035000D01*
X27500000Y-20035000D02*
X27000000Y-20035000D01*
X27000000Y-20035000D02*
X27000000Y-20835000D01*
X27000000Y-20835000D02*
X27500000Y-20835000D01*
X20325000Y-25950000D02*
X20325000Y-25150000D01*
X20325000Y-25150000D02*
X19825000Y-25150000D01*
X19825000Y-25150000D02*
X19825000Y-25950000D01*
X19825000Y-25950000D02*
X20325000Y-25950000D01*
X19910000Y-20450000D02*
X19910000Y-18950000D01*
X18090000Y-20450000D02*
X19910000Y-20450000D01*
X18090000Y-18950000D02*
X18090000Y-20450000D01*
X19910000Y-18950000D02*
X18090000Y-18950000D01*
X23300000Y-23200000D02*
X23300000Y-20600000D01*
X23300000Y-20600000D02*
X25500000Y-20600000D01*
X25500000Y-20600000D02*
X25500000Y-23200000D01*
X25500000Y-23200000D02*
X23300000Y-23200000D01*
D11*
X23325000Y-23225000D02*
G75*
G03X23325000Y-23225000I-50000J0D01*
G01*
D10*
X26200000Y-23850000D02*
X24800000Y-23850000D01*
X26200000Y-24550000D02*
X26200000Y-23850000D01*
X24800000Y-24550000D02*
X26200000Y-24550000D01*
X24800000Y-23850000D02*
X24800000Y-24550000D01*
X19810000Y-24450000D02*
X19810000Y-22950000D01*
X17990000Y-24450000D02*
X19810000Y-24450000D01*
X17990000Y-22950000D02*
X17990000Y-24450000D01*
X19810000Y-22950000D02*
X17990000Y-22950000D01*
D12*
X25870000Y-22480000D02*
X27070000Y-22480000D01*
X25870000Y-21280000D02*
X25870000Y-22480000D01*
X27070000Y-21280000D02*
X25870000Y-21280000D01*
X27070000Y-22480000D02*
X27070000Y-21280000D01*
D13*
X26700000Y-17825000D02*
G75*
G03X26700000Y-17825000I-400000J0D01*
G01*
D10*
X17390000Y-17485000D02*
X17390000Y-18885000D01*
X18090000Y-17485000D02*
X17390000Y-17485000D01*
X18090000Y-18885000D02*
X18090000Y-17485000D01*
X17390000Y-18885000D02*
X18090000Y-18885000D01*
X23300000Y-18125000D02*
X24700000Y-18125000D01*
X23300000Y-17425000D02*
X23300000Y-18125000D01*
X24700000Y-17425000D02*
X23300000Y-17425000D01*
X24700000Y-18125000D02*
X24700000Y-17425000D01*
X17990000Y-25905000D02*
X17990000Y-24505000D01*
X17290000Y-25905000D02*
X17990000Y-25905000D01*
X17290000Y-24505000D02*
X17290000Y-25905000D01*
X17990000Y-24505000D02*
X17290000Y-24505000D01*
X21750000Y-20525000D02*
X21750000Y-21925000D01*
X22450000Y-20525000D02*
X21750000Y-20525000D01*
X22450000Y-21925000D02*
X22450000Y-20525000D01*
X21750000Y-21925000D02*
X22450000Y-21925000D01*
X21025000Y-25950000D02*
X21025000Y-24550000D01*
X20325000Y-25950000D02*
X21025000Y-25950000D01*
X20325000Y-24550000D02*
X20325000Y-25950000D01*
X21025000Y-24550000D02*
X20325000Y-24550000D01*
X22450000Y-20525000D02*
X22450000Y-21925000D01*
X23150000Y-20525000D02*
X22450000Y-20525000D01*
X23150000Y-21925000D02*
X23150000Y-20525000D01*
X22450000Y-21925000D02*
X23150000Y-21925000D01*
X27000000Y-19975000D02*
X25600000Y-19975000D01*
X27000000Y-20675000D02*
X27000000Y-19975000D01*
X25600000Y-20675000D02*
X27000000Y-20675000D01*
X25600000Y-19975000D02*
X25600000Y-20675000D01*
X26200000Y-24550000D02*
X24800000Y-24550000D01*
X26200000Y-25250000D02*
X26200000Y-24550000D01*
X24800000Y-25250000D02*
X26200000Y-25250000D01*
X24800000Y-24550000D02*
X24800000Y-25250000D01*
X27000000Y-19275000D02*
X25600000Y-19275000D01*
X27000000Y-19975000D02*
X27000000Y-19275000D01*
X25600000Y-19975000D02*
X27000000Y-19975000D01*
X25600000Y-19275000D02*
X25600000Y-19975000D01*
X17290000Y-23000000D02*
X17290000Y-24400000D01*
X17990000Y-23000000D02*
X17290000Y-23000000D01*
X17990000Y-24400000D02*
X17990000Y-23000000D01*
X17290000Y-24400000D02*
X17990000Y-24400000D01*
X18090000Y-20395000D02*
X18090000Y-18995000D01*
X17390000Y-20395000D02*
X18090000Y-20395000D01*
X17390000Y-18995000D02*
X17390000Y-20395000D01*
X18090000Y-18995000D02*
X17390000Y-18995000D01*
X21550000Y-22195000D02*
X20150000Y-22195000D01*
X21550000Y-22895000D02*
X21550000Y-22195000D01*
X20150000Y-22895000D02*
X21550000Y-22895000D01*
X20150000Y-22195000D02*
X20150000Y-22895000D01*
X22450000Y-23325000D02*
X22450000Y-21925000D01*
X21750000Y-23325000D02*
X22450000Y-23325000D01*
X21750000Y-21925000D02*
X21750000Y-23325000D01*
X22450000Y-21925000D02*
X21750000Y-21925000D01*
X23150000Y-23325000D02*
X23150000Y-21925000D01*
X22450000Y-23325000D02*
X23150000Y-23325000D01*
X22450000Y-21925000D02*
X22450000Y-23325000D01*
X23150000Y-21925000D02*
X22450000Y-21925000D01*
X20610000Y-18905000D02*
X20610000Y-17505000D01*
X19910000Y-18905000D02*
X20610000Y-18905000D01*
X19910000Y-17505000D02*
X19910000Y-18905000D01*
X20610000Y-17505000D02*
X19910000Y-17505000D01*
X20500000Y-24295000D02*
X20500000Y-22895000D01*
X19800000Y-24295000D02*
X20500000Y-24295000D01*
X19800000Y-22895000D02*
X19800000Y-24295000D01*
X20500000Y-22895000D02*
X19800000Y-22895000D01*
X20610000Y-20380000D02*
X20610000Y-18980000D01*
X19910000Y-20380000D02*
X20610000Y-20380000D01*
X19910000Y-18980000D02*
X19910000Y-20380000D01*
X20610000Y-18980000D02*
X19910000Y-18980000D01*
X18050000Y-21500000D02*
X18050000Y-22900000D01*
X18750000Y-21500000D02*
X18050000Y-21500000D01*
X18750000Y-22900000D02*
X18750000Y-21500000D01*
X18050000Y-22900000D02*
X18750000Y-22900000D01*
X18050000Y-22900000D02*
X18050000Y-21500000D01*
X17350000Y-22900000D02*
X18050000Y-22900000D01*
X17350000Y-21500000D02*
X17350000Y-22900000D01*
X18050000Y-21500000D02*
X17350000Y-21500000D01*
X24800000Y-25950000D02*
X26200000Y-25950000D01*
X24800000Y-25250000D02*
X24800000Y-25950000D01*
X26200000Y-25250000D02*
X24800000Y-25250000D01*
X26200000Y-25950000D02*
X26200000Y-25250000D01*
X18750000Y-21500000D02*
X18750000Y-22900000D01*
X19450000Y-21500000D02*
X18750000Y-21500000D01*
X19450000Y-22900000D02*
X19450000Y-21500000D01*
X18750000Y-22900000D02*
X19450000Y-22900000D01*
X19450000Y-21500000D02*
X19450000Y-22900000D01*
X20150000Y-21500000D02*
X19450000Y-21500000D01*
X20150000Y-22900000D02*
X20150000Y-21500000D01*
X19450000Y-22900000D02*
X20150000Y-22900000D01*
X19910000Y-18950000D02*
X19910000Y-17450000D01*
X18090000Y-18950000D02*
X19910000Y-18950000D01*
X18090000Y-17450000D02*
X18090000Y-18950000D01*
X19910000Y-17450000D02*
X18090000Y-17450000D01*
X19810000Y-25950000D02*
X19810000Y-24450000D01*
X17990000Y-25950000D02*
X19810000Y-25950000D01*
X17990000Y-24450000D02*
X17990000Y-25950000D01*
X19810000Y-24450000D02*
X17990000Y-24450000D01*
D12*
X23300000Y-17425000D02*
X20700000Y-17425000D01*
X23300000Y-20425000D02*
X23300000Y-17425000D01*
X20700000Y-20425000D02*
X23300000Y-20425000D01*
X20700000Y-17425000D02*
X20700000Y-20425000D01*
D13*
X25700000Y-17825000D02*
G75*
G03X25700000Y-17825000I-400000J0D01*
G01*
X18000000Y-20950000D02*
G75*
G03X18000000Y-20950000I-400000J0D01*
G01*
X26500000Y-23300000D02*
G75*
G03X26500000Y-23300000I-400000J0D01*
G01*
X21125000Y-20900000D02*
G75*
G03X21125000Y-20900000I-400000J0D01*
G01*
X19750000Y-20950000D02*
G75*
G03X19750000Y-20950000I-400000J0D01*
G01*
X25450000Y-20000000D02*
G75*
G03X25450000Y-20000000I-400000J0D01*
G01*
X24375000Y-18950000D02*
G75*
G03X24375000Y-18950000I-400000J0D01*
G01*
X27325000Y-25200000D02*
G75*
G03X27325000Y-25200000I-400000J0D01*
G01*
X24350000Y-20000000D02*
G75*
G03X24350000Y-20000000I-400000J0D01*
G01*
X27700000Y-17825000D02*
G75*
G03X27700000Y-17825000I-400000J0D01*
G01*
X25450000Y-18950000D02*
G75*
G03X25450000Y-18950000I-400000J0D01*
G01*
M02*
