M48
;DRILL file {KiCad (5.0.1)-3} date 11/18/18 15:50:52
;FORMAT={-:-/ absolute / inch / decimal}
FMAT,2
INCH,TZ
T1C0.0039
%
G90
G05
M72
T1
X0.6917Y-1.001
X0.6919Y-0.8553
X0.6937Y-0.9159
X0.6939Y-0.8819
X0.6941Y-0.9238
X0.6945Y-0.7065
X0.6949Y-0.7825
X0.6957Y-1.0104
X0.7008Y-0.7933
X0.7043Y-0.7033
X0.7165Y-0.9734
X0.7165Y-0.9809
X0.7165Y-0.9892
X0.7165Y-0.997
X0.7165Y-1.0039
X0.7228Y-0.9203
X0.7236Y-0.9108
X0.7244Y-0.9734
X0.7244Y-0.9813
X0.7244Y-1.0039
X0.7264Y-0.7874
X0.7264Y-0.823
X0.7264Y-1.0167
X0.7268Y-0.9482
X0.7303Y-0.9154
X0.7343Y-0.7894
X0.7378Y-0.9085
X0.7402Y-0.7165
X0.7421Y-0.7766
X0.7421Y-1.0167
X0.7441Y-0.9823
X0.748Y-0.7106
X0.748Y-0.7264
X0.748Y-0.7677
X0.748Y-0.7854
X0.748Y-0.8376
X0.7539Y-0.9331
X0.7539Y-0.9921
X0.7559Y-0.7165
X0.7559Y-0.7756
X0.7579Y-0.9488
X0.7598Y-0.7913
X0.7618Y-0.7323
X0.7618Y-0.9429
X0.7618Y-1.002
X0.7622Y-0.7022
X0.7638Y-0.9813
X0.7657Y-0.7874
X0.7657Y-0.9183
X0.7657Y-0.9242
X0.7677Y-0.7264
X0.7677Y-0.9488
X0.7677Y-1.0079
X0.7689Y-0.7053
X0.7717Y-0.7913
X0.778Y-0.9876
X0.7787Y-0.9805
X0.7864Y-0.8799
X0.7874Y-0.9419
X0.7886Y-0.9797
X0.7904Y-0.7018
X0.7913Y-1.
X0.7943Y-0.8524
X0.7953Y-0.7835
X0.7953Y-0.9104
X0.7953Y-1.0295
X0.7982Y-0.7589
X0.8012Y-0.7913
X0.8022Y-1.
X0.8031Y-0.7657
X0.8031Y-0.8898
X0.8041Y-0.6998
X0.8051Y-0.8848
X0.8051Y-1.0157
X0.8091Y-1.0295
X0.8209Y-0.9026
X0.8238Y-1.0295
X0.828Y-0.9469
X0.8307Y-0.7008
X0.8346Y-0.7795
X0.8346Y-0.7953
X0.8378Y-0.9469
X0.8396Y-1.0295
X0.8494Y-0.7037
X0.8504Y-0.7795
X0.8504Y-0.7953
X0.8524Y-1.0295
X0.8535Y-0.8258
X0.8638Y-1.025
X0.8652Y-0.8268
X0.8661Y-0.8425
X0.8681Y-0.8829
X0.872Y-1.0217
X0.874Y-0.8258
X0.874Y-0.8425
X0.874Y-0.878
X0.874Y-0.9094
X0.876Y-0.9803
X0.876Y-0.9941
X0.8795Y-1.025
X0.8839Y-0.7126
X0.8839Y-0.9665
X0.8858Y-0.7008
X0.8878Y-0.9469
X0.8898Y-0.8238
X0.8898Y-0.877
X0.8907Y-1.0148
X0.8917Y-0.7057
X0.8917Y-1.0266
X0.8937Y-0.8425
X0.8937Y-0.9104
X0.8957Y-0.7126
X0.8957Y-0.8829
X0.8996Y-0.7008
X0.9016Y-0.8238
X0.9016Y-0.8425
X0.9085Y-1.0266
X0.9155Y-0.8683
X0.9173Y-0.8829
X0.9173Y-0.8986
X0.9272Y-0.9518
X0.9311Y-0.7028
X0.9419Y-0.9724
X0.9449Y-0.8386
X0.9449Y-0.8543
X0.9449Y-0.8701
X0.9449Y-0.8858
X0.9478Y-0.7904
X0.9488Y-0.7348
X0.9587Y-0.7077
X0.9606Y-0.8228
X0.9606Y-0.8543
X0.9606Y-0.9016
X0.9626Y-0.7028
X0.9646Y-0.9793
X0.9744Y-0.7687
X0.9763Y-0.8385
X0.9764Y-0.8543
X0.9764Y-0.8701
X0.9764Y-0.8858
X0.9852Y-0.9419
X0.9882Y-0.8031
X0.9882Y-0.9488
X0.9931Y-0.9409
X0.9941Y-0.7014
X1.003Y-0.7293
X1.0197Y-0.9301
X1.0209Y-0.9167
X1.0211Y-1.0125
X1.024Y-0.7785
X1.0246Y-0.8465
X1.0256Y-0.94
X1.0266Y-0.9577
X1.0276Y-0.9665
X1.0283Y-0.7722
X1.0311Y-0.7789
X1.0344Y-0.8514
X1.0394Y-0.6959
X1.0472Y-0.7421
X1.0472Y-0.7717
X1.0472Y-0.7972
X1.0522Y-0.937
X1.0571Y-0.75
X1.0571Y-0.8071
X1.0591Y-0.7776
X1.0591Y-0.998
X1.0787Y-0.7018
X1.0787Y-0.9518
X1.1014Y-0.7224
X1.1063Y-0.7982
X1.115Y-0.9986
X1.122Y-0.9301
T0
M30
