G04 #@! TF.GenerationSoftware,KiCad,Pcbnew,(5.0.0)*
G04 #@! TF.CreationDate,2018-11-02T13:45:18+08:00*
G04 #@! TF.ProjectId,tomu-fpga,746F6D752D667067612E6B696361645F,rev?*
G04 #@! TF.SameCoordinates,Original*
G04 #@! TF.FileFunction,Soldermask,Bot*
G04 #@! TF.FilePolarity,Negative*
%FSLAX46Y46*%
G04 Gerber Fmt 4.6, Leading zero omitted, Abs format (unit mm)*
G04 Created by KiCad (PCBNEW (5.0.0)) date 11/02/18 13:45:18*
%MOMM*%
%LPD*%
G01*
G04 APERTURE LIST*
%ADD10O,1.801600X1.801600*%
%ADD11R,1.801600X1.801600*%
G04 APERTURE END LIST*
D10*
G04 #@! TO.C,J3*
X108260000Y-77700000D03*
X105720000Y-77700000D03*
X103180000Y-77700000D03*
X100640000Y-77700000D03*
X98100000Y-77700000D03*
D11*
X95560000Y-77700000D03*
G04 #@! TD*
G04 #@! TO.C,J1*
X75000000Y-75000000D03*
D10*
X75000000Y-77540000D03*
X72460000Y-75000000D03*
X72460000Y-77540000D03*
X69920000Y-75000000D03*
X69920000Y-77540000D03*
X67380000Y-75000000D03*
X67380000Y-77540000D03*
X64840000Y-75000000D03*
X64840000Y-77540000D03*
X62300000Y-75000000D03*
X62300000Y-77540000D03*
X59760000Y-75000000D03*
X59760000Y-77540000D03*
X57220000Y-75000000D03*
X57220000Y-77540000D03*
X54680000Y-75000000D03*
X54680000Y-77540000D03*
X52140000Y-75000000D03*
X52140000Y-77540000D03*
X49600000Y-75000000D03*
X49600000Y-77540000D03*
X47060000Y-75000000D03*
X47060000Y-77540000D03*
X44520000Y-75000000D03*
X44520000Y-77540000D03*
X41980000Y-75000000D03*
X41980000Y-77540000D03*
X39440000Y-75000000D03*
X39440000Y-77540000D03*
X36900000Y-75000000D03*
X36900000Y-77540000D03*
X34360000Y-75000000D03*
X34360000Y-77540000D03*
X31820000Y-75000000D03*
X31820000Y-77540000D03*
X29280000Y-75000000D03*
X29280000Y-77540000D03*
X26740000Y-75000000D03*
X26740000Y-77540000D03*
G04 #@! TD*
M02*
